<svg xmlns="http://www.w3.org/2000/svg" width="72" height="72" viewBox="0 0 72 72">
    <defs>
        <style>
            .cls-1{fill:#fff}.cls-2{fill:#dcdde6}
        </style>
    </defs>
    <g id="グループ_1001" data-name="グループ 1001" transform="translate(-152 -217)">
        <circle id="楕円形_59" cx="36" cy="36" r="36" class="cls-1" data-name="楕円形 59" transform="translate(152 217)"/>
        <path id="user-circle-solid" d="M36 8a36 36 0 1 0 36 36A35.994 35.994 0 0 0 36 8zm0 13.935A12.774 12.774 0 1 1 23.226 34.71 12.774 12.774 0 0 1 36 21.935zm0 49.935a27.817 27.817 0 0 1-21.266-9.9 16.185 16.185 0 0 1 14.3-8.681 3.552 3.552 0 0 1 1.031.16 19.22 19.22 0 0 0 5.937 1 19.147 19.147 0 0 0 5.937-1 3.552 3.552 0 0 1 1.031-.16 16.185 16.185 0 0 1 14.3 8.681A27.817 27.817 0 0 1 36 71.871z" class="cls-2" transform="translate(152 209)"/>
    </g>
</svg>
