<svg xmlns="http://www.w3.org/2000/svg" width="21.571" height="18.5" viewBox="0 0 21.571 18.5">
    <defs>
        <style>
            .cls-1{fill:#a4b0c8}
        </style>
    </defs>
    <g id="image" transform="translate(0 -.5)">
        <path id="パス_5" d="M182.9 100.626a2.155 2.155 0 1 0-2.155-2.155 2.157 2.157 0 0 0 2.155 2.155zm0-3.046a.891.891 0 1 1-.891.891.892.892 0 0 1 .891-.891zm0 0" class="cls-1" data-name="パス 5" transform="translate(-173.135 -91.78)"/>
        <path id="パス_6" d="M20.783.5h-20A.789.789 0 0 0 0 1.288v16.924A.789.789 0 0 0 .788 19h20a.789.789 0 0 0 .788-.788V1.288A.789.789 0 0 0 20.783.5zm-.476 1.264v10l-3.975-3.973a.666.666 0 0 0-.94 0L9.77 13.413 6.179 9.822a.665.665 0 0 0-.94 0L1.264 13.8V1.764zM1.264 17.736v-2.152l4.445-4.445L9.3 14.73a.664.664 0 0 0 .94 0l5.622-5.622 4.445 4.445v4.183zm0 0" class="cls-1" data-name="パス 6"/>
    </g>
</svg>
