<svg xmlns="http://www.w3.org/2000/svg" viewBox="0 0 130.97 21.79"><defs><style>.cls-1{fill:#3f67ff;}</style></defs><title>logo_name_horizonal</title><g id="レイヤー_2" data-name="レイヤー 2"><g id="レイヤー_1-2" data-name="レイヤー 1"><path d="M34.13,17.5l-1.88-4.8-.85,1.77v3H28.78V4.35H31.4V10l2.49-5.66h2.63L33.89,9.82l3,7.68Z"/><path d="M41.92,17.5v-7c0-.61-.33-.9-.77-.9s-.78.29-.78.9v7H37.9V7.57h2.36v.72A2.56,2.56,0,0,1,41,7.66a2.08,2.08,0,0,1,.94-.24,2.23,2.23,0,0,1,1.92.83,3.18,3.18,0,0,1,.56,2.25v7Z"/><path d="M51.33,16.47a2.83,2.83,0,0,1-2.62,1.18,2.84,2.84,0,0,1-2.62-1.18,7.84,7.84,0,0,1-.68-3.93,7.86,7.86,0,0,1,.68-3.94,2.84,2.84,0,0,1,2.62-1.18A2.83,2.83,0,0,1,51.33,8.6,7.86,7.86,0,0,1,52,12.54,7.84,7.84,0,0,1,51.33,16.47Zm-2-6.45a.71.71,0,0,0-.65-.38.69.69,0,0,0-.64.38,8.41,8.41,0,0,0-.19,2.52,8.37,8.37,0,0,0,.19,2.51.69.69,0,0,0,.64.38.71.71,0,0,0,.65-.38,8.82,8.82,0,0,0,.18-2.51A8.86,8.86,0,0,0,49.36,10Z"/><path d="M61.49,17.5h-2.4l-1-5.56L57,17.5h-2.4L52.29,7.57H55l.93,6,1.11-6h2l1.1,6,.93-6h2.75Z"/><path d="M65.9,16.89a2.89,2.89,0,0,1-1.15-2.58v-10h2.47v9.79c0,.78.39,1.15,1.22,1.15V17.5A4.07,4.07,0,0,1,65.9,16.89Z"/><path d="M71.45,13.33a5.14,5.14,0,0,0,.19,1.72.7.7,0,0,0,.64.38.72.72,0,0,0,.65-.38,1.85,1.85,0,0,0,.13-.61h2.45a3.9,3.9,0,0,1-.88,2.36,3.06,3.06,0,0,1-2.35.85A2.9,2.9,0,0,1,70,16.78c-1-.92-1-2.75-1-4.24s0-3.35,1-4.27a3.1,3.1,0,0,1,2.32-.85,2.93,2.93,0,0,1,2.31.85c1.11,1.16,1,3.47,1,5.06ZM72.93,10a.75.75,0,0,0-.65-.37.73.73,0,0,0-.64.37,4.07,4.07,0,0,0-.19,1.53h1.64A4.25,4.25,0,0,0,72.93,10Z"/><path d="M80.9,17.5v-.72a2.61,2.61,0,0,1-.72.63,2.31,2.31,0,0,1-2.79-.57c-.68-.85-.68-2.33-.68-4.3s0-3.46.68-4.31a2.31,2.31,0,0,1,2.79-.57,2.62,2.62,0,0,1,.61.5V4.35h2.47V17.5Zm-.11-7a1,1,0,0,0-.24-.7.84.84,0,0,0-.54-.2.69.69,0,0,0-.64.38,8.41,8.41,0,0,0-.19,2.52,8.37,8.37,0,0,0,.19,2.51.69.69,0,0,0,.64.38.84.84,0,0,0,.54-.2,1,1,0,0,0,.24-.7Z"/><path d="M90,20a3.46,3.46,0,0,1-2.34.85A3.4,3.4,0,0,1,85.27,20a3,3,0,0,1-.9-2.23h2.47a1.18,1.18,0,0,0,.19.7.68.68,0,0,0,.59.26.76.76,0,0,0,.59-.26,1,1,0,0,0,.18-.65V15.9a2.38,2.38,0,0,1-.59.53,1.66,1.66,0,0,1-.86.19,2,2,0,0,1-1.81-.76c-.65-.78-.82-1.89-.82-3.84s.17-3,.82-3.82a2,2,0,0,1,1.81-.78,2.08,2.08,0,0,1,.94.24,2.52,2.52,0,0,1,.62.5V7.57h2.37V17.63A3.21,3.21,0,0,1,90,20Zm-1.57-9.47a.91.91,0,0,0-.22-.68.71.71,0,0,0-.55-.22A.72.72,0,0,0,87,10a5.7,5.7,0,0,0-.18,2,5.73,5.73,0,0,0,.18,2,.72.72,0,0,0,.65.38.7.7,0,0,0,.57-.24,1,1,0,0,0,.2-.66Z"/><path d="M94.39,13.33a5.14,5.14,0,0,0,.19,1.72.71.71,0,0,0,.64.38.72.72,0,0,0,.65-.38,1.85,1.85,0,0,0,.13-.61h2.45a3.9,3.9,0,0,1-.88,2.36,3.06,3.06,0,0,1-2.35.85,2.91,2.91,0,0,1-2.32-.87c-1-.92-1-2.75-1-4.24s0-3.35,1-4.27a3.1,3.1,0,0,1,2.32-.85,2.93,2.93,0,0,1,2.31.85c1.11,1.16,1,3.47,1,5.06ZM95.87,10a.75.75,0,0,0-.65-.37.73.73,0,0,0-.64.37,4.07,4.07,0,0,0-.19,1.53H96A4.19,4.19,0,0,0,95.87,10Z"/><path d="M107,16.63a3.57,3.57,0,0,1-2.73.87h-3.81V4.35h3.81A3.78,3.78,0,0,1,107,5.2,3.79,3.79,0,0,1,107.89,8a2.77,2.77,0,0,1-.63,2.12,2.25,2.25,0,0,1-.61.45,2.51,2.51,0,0,1,.59.46,3.52,3.52,0,0,1,.65,2.4A4.42,4.42,0,0,1,107,16.63Zm-3.12-9.91h-.8V9.53h.8c1,0,1.38-.43,1.38-1.41S104.93,6.72,103.88,6.72Zm0,5h-.84v3.4h.84c1,0,1.34-.5,1.34-1.7S104.93,11.74,103.92,11.74Z"/><path d="M113.09,17.5v-.81a3.33,3.33,0,0,1-.65.65,1.74,1.74,0,0,1-1.09.31,2.28,2.28,0,0,1-2-.92,3.43,3.43,0,0,1-.57-2.2,2.82,2.82,0,0,1,1-2.22,3.44,3.44,0,0,1,2.44-.7h.75V10.47c0-.56-.27-.87-.74-.87a.63.63,0,0,0-.53.24,1,1,0,0,0-.22.68H109a3,3,0,0,1,.91-2.21,3.51,3.51,0,0,1,2.31-.89,3.17,3.17,0,0,1,2.28.81,3.34,3.34,0,0,1,1,2.48V17.5Zm-.17-4.17h-.42a1.2,1.2,0,0,0-.94.24,1.27,1.27,0,0,0-.32.85c0,.72.33,1.07.85,1.07s.83-.37.83-1.07Z"/><path d="M120.34,17.5v-7c0-.61-.33-.9-.77-.9s-.78.29-.78.9v7h-2.47V7.57h2.36v.72a2.56,2.56,0,0,1,.72-.63,2.08,2.08,0,0,1,.94-.24,2.23,2.23,0,0,1,1.92.83,3.18,3.18,0,0,1,.56,2.25v7Z"/><path d="M128.24,17.5l-1.42-3.65-.61,1V17.5h-2.47V4.35h2.47v7l2.18-3.73H131l-2.54,4L131,17.5Z"/><path class="cls-1" d="M16.69,13.15h-.94V8.64h.94a4.32,4.32,0,1,0-3.45-6.9h0L8.64,6.32V5.26h0V4.32A4.32,4.32,0,1,0,4.32,8.64h.94v4.51H4.32a4.32,4.32,0,1,0,4.32,4.32v-.94h0V15.47l4.59,4.59h0a4.32,4.32,0,1,0,3.45-6.9Zm-.94-8.83a.94.94,0,1,1,.94.94h-.94ZM4.32,5.26a.94.94,0,1,1,.94-.94v.94Zm.94,12.21a.94.94,0,1,1-.94-.94h.94Zm7.11-8.83v4.51h0v1.26L8.85,10.89l3.52-3.52V8.64Zm4.32,9.77a.94.94,0,0,1-.94-.94v-.94h.94a.94.94,0,0,1,0,1.88Z"/><polygon class="cls-1" points="8.64 6.32 13.23 1.73 13.45 1.49 13.45 1.71 13.45 6.32 8.64 6.32"/><polygon class="cls-1" points="8.64 15.47 13.23 20.06 13.45 20.3 13.45 20.07 13.45 15.47 8.64 15.47"/></g></g></svg>