<svg xmlns="http://www.w3.org/2000/svg" viewBox="0 0 46.67 48.42"><defs><style>.cls-1{fill:#3f67ff;}</style></defs><title>logo</title><g id="レイヤー_2" data-name="レイヤー 2"><g id="レイヤー_1-2" data-name="レイヤー 1"><path class="cls-1" d="M37.07,29.22H35v-10h2.09A9.6,9.6,0,1,0,29.42,3.86l0,0L19.2,14V11.69h0V9.6a9.6,9.6,0,1,0-9.6,9.6h2.09v10H9.6a9.6,9.6,0,1,0,9.6,9.6V36.73h0V34.37L29.39,44.56l0,0a9.58,9.58,0,1,0,7.66-15.32ZM35,9.6a2.09,2.09,0,1,1,2.09,2.09H35ZM9.6,11.69A2.09,2.09,0,1,1,11.69,9.6v2.09Zm2.09,27.13A2.09,2.09,0,1,1,9.6,36.73h2.09ZM27.47,19.2v10h0V32L19.65,24.2l7.82-7.82V19.2Zm9.6,21.71A2.1,2.1,0,0,1,35,38.82V36.73h2.09a2.09,2.09,0,0,1,0,4.18Z"/><polygon class="cls-1" points="19.2 14.03 29.39 3.83 29.87 3.31 29.87 3.81 29.87 14.03 19.2 14.03"/><polygon class="cls-1" points="19.2 34.37 29.39 44.57 29.87 45.09 29.87 44.6 29.87 34.37 19.2 34.37"/></g></g></svg>