<svg xmlns="http://www.w3.org/2000/svg" width="13.16" height="11.515" viewBox="0 0 13.16 11.515">
    <defs>
        <style>
            .cls-1{fill:#fff}
        </style>
    </defs>
    <path id="camera-solid" d="M13.16 34.879v7.4a1.234 1.234 0 0 1-1.234 1.234H1.234A1.234 1.234 0 0 1 0 42.281v-7.4a1.234 1.234 0 0 1 1.234-1.234H3.5l.316-.846A1.232 1.232 0 0 1 4.966 32h3.226a1.232 1.232 0 0 1 1.154.8l.319.846h2.262a1.234 1.234 0 0 1 1.233 1.233zm-3.5 3.7a3.084 3.084 0 1 0-3.08 3.085 3.087 3.087 0 0 0 3.084-3.084zm-.822 0a2.262 2.262 0 1 1-2.258-2.261 2.265 2.265 0 0 1 2.262 2.262z" class="cls-1" transform="translate(0 -32)"/>
</svg>
