<svg xmlns="http://www.w3.org/2000/svg" width="12" height="12" viewBox="0 0 12 12">
    <defs>
        <style>
            .cls-1{fill:#3f67ff}
        </style>
    </defs>
    <path id="edit-light" d="M15.228 3.329L6.858 11.7l-2.676.3a.562.562 0 0 1-.621-.621l.3-2.676 8.37-8.37a1.125 1.125 0 0 1 1.591 0l1.409 1.409a1.125 1.125 0 0 1 0 1.591zm-2.507 1.3l-1.787-1.79-6.256 6.254-.223 2.007 2.011-.222zm1.9-2.282L13.214.935a.267.267 0 0 0-.378 0l-1.3 1.3 1.786 1.786 1.3-1.3a.267.267 0 0 0 0-.378z" class="cls-1" transform="translate(-3.557)"/>
</svg>
