<svg xmlns="http://www.w3.org/2000/svg" width="15.3" height="15.3" viewBox="0 0 15.3 15.3">
    <defs>
        <style>
            .cls-1{fill:#2962ff;stroke:#2962ff;stroke-linecap:round;stroke-width:.3px}
        </style>
    </defs>
    <g id="light-bulb" transform="translate(-10.85 -10.85)">
        <g id="グループ_1080" data-name="グループ 1080" transform="translate(11 11)">
            <path id="パス_354" d="M122.731 92.3a4.187 4.187 0 0 0-4.172 3.511A4.054 4.054 0 0 0 119.6 99.1a4.16 4.16 0 0 1 1.108 2.841v1.659a1.225 1.225 0 0 0 1.24 1.212h1.6a1.225 1.225 0 0 0 1.24-1.212v-1.659a3.92 3.92 0 0 1 1.044-2.777 3.944 3.944 0 0 0 1.142-2.777 4.18 4.18 0 0 0-4.243-4.087zm1.433 11.3a.58.58 0 0 1-.588.576h-1.6a.578.578 0 0 1-.588-.576v-.735h2.77v.735zm1.212-4.883a4.541 4.541 0 0 0-1.24 3.223v.288h-2.77v-.288a4.909 4.909 0 0 0-1.3-3.254 3.369 3.369 0 0 1-.882-2.777 3.6 3.6 0 0 1 3.554-2.969 3.528 3.528 0 0 1 3.588 3.447 3.336 3.336 0 0 1-.95 2.329z" class="cls-1" data-name="パス 354" transform="translate(-115.231 -89.811)"/>
            <path id="長方形_578" d="M0 0h.652v1.531H0z" class="cls-1" data-name="長方形 578" transform="translate(7.172)"/>
            <path id="パス_355" d="M385.1 73.374l.456.456 1.117-1.074-.459-.456z" class="cls-1" data-name="パス 355" transform="translate(-373.648 -70.423)"/>
            <path id="長方形_579" d="M0 0h1.598v.64H0z" class="cls-1" data-name="長方形 579" transform="translate(13.402 6.894)"/>
            <path id="長方形_580" d="M0 0h1.598v.64H0z" class="cls-1" data-name="長方形 580" transform="translate(0 6.894)"/>
            <path id="パス_356" d="M75.559 72.2l-.459.456 1.117 1.074.456-.456z" class="cls-1" data-name="パス 356" transform="translate(-73.138 -70.327)"/>
        </g>
    </g>
</svg>
