<svg xmlns="http://www.w3.org/2000/svg" width="24" height="24" viewBox="0 0 24 24">
    <defs>
        <style>
            .cls-1{fill:#7cb341}.cls-2{fill:none}.cls-3{fill:#fff}
        </style>
    </defs>
    <g id="グループ_1105" data-name="グループ 1105" transform="translate(-290 -745)">
        <circle id="楕円形_63" cx="12" cy="12" r="12" class="cls-1" data-name="楕円形 63" transform="translate(290 745)"/>
        <g id="crown" transform="translate(296.643 751.75)">
            <circle id="楕円形_62" cx=".909" cy=".909" r=".909" class="cls-2" data-name="楕円形 62" transform="translate(4.546 .455)"/>
            <g id="グループ_1009" data-name="グループ 1009" transform="translate(1.363 2.501)">
                <path id="パス_303" d="M22.185 46v.909a.909.909 0 0 1-.909.909h-6.367a.909.909 0 0 1-.909-.909V46z" class="cls-2" data-name="パス 303" transform="translate(-14 -39.862)"/>
                <path id="パス_304" d="M38.234 20.591l.089.257-1.907.652-1.056-1.848a1.59 1.59 0 0 1 2.874.939z" class="cls-2" data-name="パス 304" transform="translate(-30.504 -19)"/>
                <path id="パス_305" d="M18.572 19.652L17.517 21.5l-1.907-.652.089-.257a1.59 1.59 0 0 1 2.874-.939z" class="cls-2" data-name="パス 305" transform="translate(-15.244 -19)"/>
            </g>
            <path id="パス_306" d="M19.424 19.864a.455.455 0 0 1 .571.525l-.9 4H10.91l-.9-4a.455.455 0 0 1 .571-.525l.7.239 1.907.652 1.055-1.848.368-.643a.457.457 0 0 1 .791 0l.368.643 1.055 1.848 1.907-.652z" class="cls-2" data-name="パス 306" transform="translate(-9.547 -15.754)"/>
            <path id="パス_307" d="M18.007 17.549v-.859l.892-3.965a.91.91 0 0 0-1.141-1.051l-.023.007-.213.073a2.039 2.039 0 0 0-3.192-1.331v-.005a1.364 1.364 0 1 0-1.732 0v.005a2.039 2.039 0 0 0-3.198 1.33l-.213-.073-.023-.007a.909.909 0 0 0-1.139 1.062l.889 3.954v.859a1.365 1.365 0 0 0 1.364 1.364h6.366a1.365 1.365 0 0 0 1.363-1.363zm-2.5-6.593a1.136 1.136 0 0 1 1.133 1.1l-1.152.394-.7-1.233a1.134 1.134 0 0 1 .723-.261zM13.46 8.909a.455.455 0 1 1-.455.455.455.455 0 0 1 .455-.455zm-2.046 2.046a1.134 1.134 0 0 1 .723.261l-.7 1.233-1.152-.394a1.136 1.136 0 0 1 1.129-1.099zm.08 2.476a.455.455 0 0 0 .542-.2l1.425-2.491 1.423 2.491a.455.455 0 0 0 .542.2l1.908-.653.675-.243-.821 3.649H9.732l-.818-3.636zm5.6 4.117a.455.455 0 0 1-.455.455h-6.362a.455.455 0 0 1-.455-.455v-.455H17.1z" class="cls-3" data-name="パス 307" transform="translate(-8.005 -8)"/>
        </g>
    </g>
</svg>
