<svg xmlns="http://www.w3.org/2000/svg" width="345" height="711.3"><defs><clipPath id="a"><path data-name="パス 191" d="M803.64 96.983h12.513a5.048 5.048 0 015.027 5.517l-1.948 20.87h-18.887l-1.735-20.923a5.048 5.048 0 015.03-5.464z" transform="translate(-798.592 -96.983)" fill="#002245"/></clipPath><clipPath id="b"><path data-name="パス 198" d="M806.955 83.87c-2.3 2.026-3.946 6.782-1.921 9.084s6.952 1.275 9.254-.749a5.551 5.551 0 00-7.333-8.334z" transform="translate(-804.119 -82.487)" fill="#f4ae87"/></clipPath><clipPath id="c"><path data-name="パス 249" d="M486.08 124.3h12.467a5.029 5.029 0 015.008 5.5l-1.939 20.793H482.8l-1.728-20.845a5.029 5.029 0 015.008-5.448z" transform="translate(-481.05 -124.296)" fill="#002245"/></clipPath><clipPath id="d"><path data-name="パス 257" d="M493.525 114.882c2.306 2 3.979 6.729 1.977 9.036s-6.918 1.318-9.225-.683a5.53 5.53 0 017.249-8.354z" transform="translate(-484.371 -113.528)" fill="#f4ae87"/></clipPath></defs><g data-name="グループ 1852" transform="translate(-14 -6400.002)"><rect data-name="長方形 2544" width="110" height="240" rx="10" transform="translate(14 6503)" fill="#34be8e"/><rect data-name="長方形 2545" width="110" height="240" rx="10" transform="translate(249 6503)" fill="#f3ba18"/><path data-name="パス 1076" d="M64 6682l4.816-10L74 6682z" fill="#373943"/><path data-name="パス 1154" d="M59.2 6529.674a7.684 7.684 0 001.806 1.582 5.971 5.971 0 01.77-1.372 8.255 8.255 0 01-2.226-1.778 11.5 11.5 0 001.4-2.394 3.892 3.892 0 01.308-.588l-.672-.724a5.1 5.1 0 01-.812.042H59.2v-1.152a5.967 5.967 0 01.084-1.09H57.59a6.428 6.428 0 01.084 1.064v1.176h-.7a8.548 8.548 0 01-1.106-.056v1.554a9.586 9.586 0 011.176-.056h2.282a8.318 8.318 0 01-1.526 2.154 9.656 9.656 0 01-2.408 1.89 5.424 5.424 0 01.714 1.456 9.435 9.435 0 001.554-1.19v3.514a8.375 8.375 0 01-.084 1.456h1.694a9.941 9.941 0 01-.07-1.428zm5.936-2.074h1.484c.49 0 .924.028 1.372.07v-1.58a9.105 9.105 0 01-1.372.07h-1.484v-2.46a8.207 8.207 0 01.1-1.456h-1.75a9.909 9.909 0 01.1 1.456v2.46h-1.05a9.451 9.451 0 01-1.376-.07v1.582c.448-.042.9-.07 1.372-.07h1.05v5.474h-1.526a12.7 12.7 0 01-1.61-.084v1.694a11.29 11.29 0 011.582-.1h4.788a11.5 11.5 0 011.6.1v-1.694a12.008 12.008 0 01-1.6.084h-1.68zm8.19 5.14a10.542 10.542 0 01-3.976 1.16 4.516 4.516 0 01.85 1.388 16.626 16.626 0 002.146-.56 12.182 12.182 0 002.548-1.246l-.882-.742h3.808l-.756.686a10.532 10.532 0 004.676 1.874 4.693 4.693 0 01.868-1.37 11.1 11.1 0 01-4.032-1.19H79.7c.7 0 1.134.014 1.568.056a2.456 2.456 0 01-.042-.56c0-.056-.014-.364-.014-.91v-3.542a12.585 12.585 0 01.056-1.5c-.49.042-.882.056-1.568.056h-7.452a15.75 15.75 0 01-1.554-.056 13.853 13.853 0 01.056 1.5v3.542c0 .7-.028 1.12-.056 1.47a15.57 15.57 0 011.554-.056zm-1.078-5.24H79.7v.644h-7.452zm0 1.694H79.7v.644h-7.452zm0 1.694H79.7v.686h-7.452zm8.442-7.248a8.512 8.512 0 01.056-1.078 12.167 12.167 0 01-1.582.07h-6.356a12.4 12.4 0 01-1.6-.07 6.971 6.971 0 01.07 1.078v1.078c0 .378-.028.7-.056 1.05.42-.028.91-.042 1.54-.042h6.458c.616 0 1.092.014 1.512.042-.028-.322-.042-.63-.042-1.05zm-1.554.182v.77h-6.314v-.77z" fill="#373943"/><rect data-name="長方形 2358" width="100" height="40" rx="10" transform="translate(19 6692)" fill="#fff"/><path data-name="パス 1157" d="M48.108 6707.412a10.8 10.8 0 01-1.344-.06c.036.4.06.816.06 1.284v7.92a11.283 11.283 0 01-.072 1.356h1.44v-.672h5.616v.672h1.44a12.157 12.157 0 01-.072-1.452v-7.872a11.327 11.327 0 01.06-1.236 9.462 9.462 0 01-1.284.06zm.084 2.808v-1.52h5.616v1.52zm0 1.26h5.616v1.548h-5.616zm0 2.808h5.616v1.68h-5.616zm17.928-5.268v-.576h1.068a12.2 12.2 0 011.32.06v-1.212a11.3 11.3 0 01-1.4.072H62.28a10.344 10.344 0 01-1.356-.072v1.224a9.926 9.926 0 011.368-.072h.972v.576h-.876a9.169 9.169 0 01-1.1-.048 7.718 7.718 0 01.048.828v1.188a6.234 6.234 0 01-.048.864 10.107 10.107 0 011.136-.052h4.6a10.244 10.244 0 011.14.048 6.31 6.31 0 01-.052-.908v-1.14a5.009 5.009 0 01.048-.828 9.967 9.967 0 01-1.1.048zm-1 0h-.86v-.576h.864zm-1.86.96v.852h-.888v-.852zm1 0h.864v.852h-.864zm1.86 0H67v.852h-.88zm-5.82.276a6.044 6.044 0 01.684.036v-1.224a4.013 4.013 0 01-.708.048h-.228v-.972a8.384 8.384 0 01.06-1.248h-1.356a7.647 7.647 0 01.072 1.248v.972h-.48a3.339 3.339 0 01-.792-.06v1.244a4.537 4.537 0 01.792-.048h.348a15.4 15.4 0 01-.444 1.6 7.6 7.6 0 01-.972 2.048 5.032 5.032 0 01.6 1.32 9.322 9.322 0 001.032-2.652c-.06 1.044-.072 1.32-.072 1.632v2.38a9.814 9.814 0 01-.084 1.464h1.368a11.691 11.691 0 01-.072-1.464v-3.156c0-.468-.012-.78-.036-1.62a7.564 7.564 0 00.72 1.464 6.029 6.029 0 01.528-1.08 5.937 5.937 0 01-1.16-1.932zm4.968 4.692H67.3a8.832 8.832 0 011.224.06v-1.188a8.891 8.891 0 01-1.248.06H62.16a8.685 8.685 0 01-1.248-.06v1.188a11.621 11.621 0 011.26-.06h1.86v1.584c0 .216-.06.252-.456.252a4.62 4.62 0 01-.84-.1 4.343 4.343 0 01.228 1.2c.672.024.672.024.852.024a2.127 2.127 0 001.14-.188.856.856 0 00.312-.78zm-3.696-1.548a7.883 7.883 0 011.188-.06h3.94a7.574 7.574 0 011.14.06v-1.152a11.639 11.639 0 01-1.228.052h-3.828a8.44 8.44 0 01-1.212-.06zm4.248 2.208a6.765 6.765 0 002.136 2.076 4.371 4.371 0 01.816-1 5.891 5.891 0 01-2.016-1.664zm-3.588-.6a4.387 4.387 0 01-.78 1.056 4.586 4.586 0 01-1.1.864 4.458 4.458 0 01.96.816 7.325 7.325 0 001.98-2.256zM79.3 6711.9a4.225 4.225 0 01-.84.048h-3.544a3.694 3.694 0 01-.768-.06v1.272a3.471 3.471 0 01.54-.048 6.851 6.851 0 001.548 2.488 8.421 8.421 0 01-2.556 1.16v-1.8a5.7 5.7 0 01.036-.876 4.26 4.26 0 01-.8.036h-2.068c-.372 0-.624-.012-.924-.036a5.553 5.553 0 01.06.948v1.768a9.159 9.159 0 01-.072 1.184h1.224v-.576h1.4v.408h1.192a5.735 5.735 0 01-.048-.852 4.18 4.18 0 01.612 1.02 9.7 9.7 0 002.88-1.536 9.3 9.3 0 003 1.5 6.522 6.522 0 01.6-1.284 8.4 8.4 0 01-2.672-1.092 8.853 8.853 0 001.62-2.532 3.575 3.575 0 01.24-.492zm-.976 1.2a6.07 6.07 0 01-1.188 1.728 4.99 4.99 0 01-1.2-1.728zm-7.188 2.064h1.4v1.188h-1.4zm-1.176-6.816a7.97 7.97 0 011.008-.048H72.7a8.217 8.217 0 011 .048v-1.164a5.794 5.794 0 01-1.008.06h-1.724a5.794 5.794 0 01-1.008-.06zm-.384 1.776a7.252 7.252 0 01.972-.048h2.532a5.424 5.424 0 01.912.048v-1.236a6.393 6.393 0 01-.972.048h-2.472a5.35 5.35 0 01-.972-.06zm.408 1.692a6.747 6.747 0 01.792-.036h2.136a6.868 6.868 0 01.768.036v-1.116a5.9 5.9 0 01-.768.036h-2.136a6.607 6.607 0 01-.792-.036zm0 1.692a6.8 6.8 0 01.78-.036h2.124a5 5 0 01.792.036v-1.116a5.9 5.9 0 01-.768.036h-2.136a6.607 6.607 0 01-.792-.036zm7.516-5.052v2.112c0 .636.252.78 1.416.78 1.524 0 1.656-.144 1.8-2.112a4.725 4.725 0 01-1.08-.432c-.072 1.44-.072 1.44-.552 1.44-.288 0-.372-.048-.372-.2v-1.78a7.7 7.7 0 01.048-1.02 8.426 8.426 0 01-1.02.048H75.9a7.694 7.694 0 01-.948-.048 4.139 4.139 0 01.06.8c0 1.572-.3 2.3-1.248 3a6.3 6.3 0 011.044.828 3.5 3.5 0 00.892-1.136 4.9 4.9 0 00.492-2.28zm8.984 7.544a3.477 3.477 0 01-1.824-1.664c.18-.564.252-.84.312-1.08.108-.492.108-.5.168-.708l-1.332-.248a7.438 7.438 0 01-.24 1.3 7.105 7.105 0 01-2.068 3.388 3.266 3.266 0 011.032.984 8.5 8.5 0 001.648-2.352c.984 1.452 2.556 2.064 5.364 2.064.948 0 1.572-.012 2.556-.036a4.667 4.667 0 01.336-1.368c-1.224.108-2.04.144-2.736.144a14.028 14.028 0 01-1.956-.124v-2.06h2.268a8.1 8.1 0 011.176.06v-1.284a6.155 6.155 0 01-1.176.072h-2.268v-1.536h1.572a8.6 8.6 0 011.236.06v-1.272a8.4 8.4 0 01-1.236.06h-4.6a8.042 8.042 0 01-1.212-.06v1.272a8.543 8.543 0 011.212-.06h1.764zm-.2-7.86h-3.136c-.48 0-.888-.012-1.32-.048.024.276.048.576.048.888v.924a5.3 5.3 0 01-.06.948h1.332v-1.5H90.9v1.5h1.3a7.748 7.748 0 01-.048-.936v-.936a6.6 6.6 0 01.048-.88c-.444.036-.852.048-1.332.048h-3.24v-.456a3.644 3.644 0 01.06-.756h-1.48a3.883 3.883 0 01.072.768z" fill="#373943" stroke="rgba(0,0,0,0)"/><rect data-name="長方形 2359" width="100" height="40" rx="10" transform="translate(19 6622)" fill="#fff"/><path data-name="パス 1156" d="M61.788 6645.728c-.168-.1-.228-.144-.432-.276a10.733 10.733 0 00-3.288-1.692c-.012-.288-.012-.288-.048-1.452.468-.024.648-.036.816-.048.9-.084 1.44-.144 1.62-.168.276-.036.576-.072.78-.084l-.036-1.32a8.881 8.881 0 01-1.488.264c-1.1.12-1.1.12-1.7.156-.012-.744-.012-.888-.028-1.188a28.11 28.11 0 002.58-.24 7.506 7.506 0 01.948-.108l-.06-1.332a16.235 16.235 0 01-3.452.46 7.44 7.44 0 01.084-1.464H56.56a8.562 8.562 0 01.06 1.512c-.3.012-.708.024-.9.024a15.779 15.779 0 01-3.228-.252l-.012 1.332h.192c.036 0 .132 0 .264.012.8.06 2.352.12 2.94.12.18 0 .372 0 .756-.012.012.684.012 1.092.012 1.2-.336.012-.744.024-.984.024a15.474 15.474 0 01-2.8-.2l-.024 1.3c.18 0 .3 0 .456.012 1 .072 1.44.084 2.172.084.252 0 .624-.012 1.2-.024.012.48.012.48.024.648v.264a2.312 2.312 0 01.012.288 6.27 6.27 0 00-.8-.048c-2.016 0-3.2.768-3.2 2.076 0 1.188 1.008 1.872 2.76 1.872a3.2 3.2 0 001.98-.516 1.872 1.872 0 00.66-1.632v-.132a5.34 5.34 0 01.648.3 8.1 8.1 0 012.224 1.644zm-5.064-.928v.288a1.521 1.521 0 01-.144.768 1.246 1.246 0 01-1.044.384c-.852 0-1.368-.276-1.368-.72 0-.516.588-.828 1.56-.828a4.212 4.212 0 01.996.108zm9.936-7.748a12.259 12.259 0 01-.36 2.088c-.264.012-.468.012-.612.012a8.332 8.332 0 01-1.62-.108v1.368l.636.012c.252.012.324.012.48.012s.216 0 .756-.012a18.461 18.461 0 01-1.128 2.832 10.923 10.923 0 01-1.164 1.92l1.38.768c.072-.144.072-.144.228-.432.456-.84.564-1.056.84-1.644a23.034 23.034 0 001.32-3.48c.744-.06 1.476-.144 1.908-.216a2.34 2.34 0 01.384-.06l-.036-1.38a10.293 10.293 0 01-1.92.336c.132-.528.192-.768.252-1.056a6.007 6.007 0 01.192-.8zm7.68 3.12a18.943 18.943 0 00-3.384-1.608l-.72 1.164a14.687 14.687 0 013.456 1.68zm-.048 5.412a2.149 2.149 0 01-.18-.168 4.425 4.425 0 00-.42-.324 7.5 7.5 0 00-1.9-1.1 12.741 12.741 0 01-.108-1.644 4 4 0 01.144-1.212l-1.388-.076a6.365 6.365 0 00-.1 1.212c0 .36.024.828.06 1.38a5.96 5.96 0 00-1.112-.108c-1.524 0-2.588.856-2.588 2.064s1.028 2.016 2.612 2.016a2.77 2.77 0 001.988-.672 1.918 1.918 0 00.52-1.272c0-.048-.012-.132-.024-.24a7.258 7.258 0 011.836 1.488zm-3.84-.66s.024.288.024.408c0 .668-.396 1.008-1.212 1.008-.744 0-1.176-.288-1.176-.78s.5-.828 1.284-.828a3.025 3.025 0 011.08.192zm12.864-5.652l.012-.948a2.3 2.3 0 01-.24.012 14.015 14.015 0 01-2.928-.444 6.67 6.67 0 01-1.6-.588l-.524 1.344c.18.048.192.06.408.132a8.913 8.913 0 002.412.636l.24.024.156.024a3.6 3.6 0 00-.864.708 2.372 2.372 0 00-.66 1.572 2.588 2.588 0 00.912 1.824 3.994 3.994 0 01.744 1 1.442 1.442 0 01.192.672.845.845 0 01-.936.828 3.229 3.229 0 01-2.064-.988 6.034 6.034 0 01-.336 1.452 4.137 4.137 0 002.52.936 2.406 2.406 0 001.632-.528 2.165 2.165 0 00.768-1.64 2.686 2.686 0 00-.24-1.056 4.476 4.476 0 00-.828-1.14c-.72-.768-.768-.816-.888-1.056a1.044 1.044 0 01-.108-.432c0-.444.42-.96 1.188-1.44a2.837 2.837 0 011.016-.436l.012-.468a8.517 8.517 0 011.26 1.788l.84-.444a8.6 8.6 0 00-1.26-1.764zm.024 3.252a12.356 12.356 0 011.836 4.276l1.416-.672a14.405 14.405 0 00-1.956-4.152zm3.5-2.688a7.265 7.265 0 00-1.24-1.692l-.8.42a9.976 9.976 0 011.216 1.736zm-9.752 2.364a11.9 11.9 0 01-1.572 4.032 4.648 4.648 0 011.284.792 14.407 14.407 0 001.536-3.852c.048-.192.084-.324.1-.36s.024-.1.048-.168z" fill="#373943" stroke="rgba(0,0,0,0)"/><path data-name="パス 1079" d="M64 6612l4.816-10L74 6612z" fill="#373943"/><rect data-name="長方形 2488" width="100" height="40" rx="10" transform="translate(19 6552)" fill="#fff"/><path data-name="パス 1155" d="M55.56 6572.4a5.925 5.925 0 01.9.048v-1.208a5.832 5.832 0 01-1.044.06H50.58c.012-.588.024-.888.024-1.44v-1.26h4.476a10.09 10.09 0 011.248.048v-1.284a9.946 9.946 0 01-1.328.072h-4.212c-.5 0-1.008-.024-1.416-.06a14.636 14.636 0 01.044 1.524c0 4.992-.2 6.336-1.248 8.016a5.581 5.581 0 011.008.984 9.922 9.922 0 00.924-2.256 13.886 13.886 0 00.432-3.24h.66v3.972a6.425 6.425 0 01-1.284.156l.292 1.332a5.531 5.531 0 01.552-.156 28.858 28.858 0 003.12-.864v-1.164c-.684.228-.912.288-1.464.432v-3.712h.66a8.763 8.763 0 00.84 3.048 7.629 7.629 0 001.88 2.464 5.2 5.2 0 01.84-1.128 5.237 5.237 0 01-1.716-1.86 4.521 4.521 0 00.66-.48c.72-.588.72-.588.96-.78l-.84-.828a5.261 5.261 0 01-1.224 1.064 7.572 7.572 0 01-.312-1.5zm-8.712-2.04v2.292a7.544 7.544 0 01-1.38.384l.192 1.32a1.126 1.126 0 01.18-.072c.324-.108.6-.216 1.008-.372v2.512c0 .276-.06.336-.324.336a7.981 7.981 0 01-.972-.084 4.806 4.806 0 01.288 1.248c.576.024.636.024.864.024 1.08 0 1.392-.264 1.392-1.176v-3.36c.288-.132.432-.2.924-.456v-1.212c-.468.228-.636.312-.924.432v-1.812h.384a5.234 5.234 0 01.612.036v-1.248a3.139 3.139 0 01-.624.048H48.1v-1.02a8.339 8.339 0 01.06-1.212h-1.38a6.657 6.657 0 01.072 1.212v1.02h-.42a4.587 4.587 0 01-.852-.06v1.284a4.946 4.946 0 01.84-.06zm8.988-1a5.482 5.482 0 01-.876.048h-3.12a4.431 4.431 0 01-.8-.048v1.16a6.979 6.979 0 01.8-.036h3.132a5.6 5.6 0 01.864.048zm3.9-2.256a2.82 2.82 0 01-.036.416l-.18 1.488c-.1.828-.168 2.16-.168 3.132 0 .24.024 1.128.036 1.476v.228a.933.933 0 01-.012.156l1.44-.024v-.252a5.753 5.753 0 011.512-3.876 1.786 1.786 0 011.3-.636c1.032 0 1.608.96 1.608 2.688a3.658 3.658 0 01-2.036 3.672 7 7 0 01-2.628.684 4.59 4.59 0 01.712 1.416 10.234 10.234 0 002.352-.672 5.044 5.044 0 003.1-4.932 5.026 5.026 0 00-.864-3.192 2.513 2.513 0 00-2.056-1.076 2.865 2.865 0 00-2.28 1.22 4.851 4.851 0 00-.756 1.428 2.634 2.634 0 01-.072.264h-.036c.024-.288.072-.7.156-1.2a11.771 11.771 0 01.432-2.312zm15.216 3.884a6.284 6.284 0 001.512 2.676 7.572 7.572 0 01-2.34 1.416 4.254 4.254 0 01.816 1.08 9.179 9.179 0 002.436-1.632 9.874 9.874 0 002.676 1.56 5.349 5.349 0 01.6-1.236 8.229 8.229 0 01-2.412-1.224 8.558 8.558 0 001.46-2.556 3.461 3.461 0 01.276-.612l-.66-.66a6.125 6.125 0 01-1.08.06H74.8c.012-.228.012-.66.024-1.308h4.224a10.32 10.32 0 011.308.072v-1.308a11.425 11.425 0 01-1.38.072H74.9a11.046 11.046 0 01-1.392-.06 14.97 14.97 0 01.06 1.56 18.787 18.787 0 01-.348 4.224 4.409 4.409 0 01-.756 1.86 3.958 3.958 0 01.952 1.008 6.533 6.533 0 00.884-1.956 13.707 13.707 0 00.444-3.036zm3.456 0a6.093 6.093 0 01-1.092 1.824 5.209 5.209 0 01-1.128-1.824zm-8.748-2.964a12.1 12.1 0 012.04 2.244l1-.972a13.848 13.848 0 00-2.08-2.172zm-.1 4.764a4.453 4.453 0 01.8-.06h.66v2.58a6.668 6.668 0 01-1.72 1.192l.588 1.364c.192-.156.324-.264.4-.312a12.466 12.466 0 001.388-1.152 2.877 2.877 0 001.488 1.092 14.21 14.21 0 003.552.276c.8 0 2.616-.036 3.708-.084a6.816 6.816 0 01.36-1.416 37.351 37.351 0 01-5.22.252 5.727 5.727 0 01-2.4-.312 1.765 1.765 0 01-.876-.84v-2.568a11.7 11.7 0 01.048-1.3 7.223 7.223 0 01-.912.048h-.9a5.206 5.206 0 01-.96-.06zm14.176-5.676a2.82 2.82 0 01-.036.408l-.18 1.488c-.1.828-.168 2.16-.168 3.132 0 .24.024 1.128.036 1.476v.228a.933.933 0 01-.012.156l1.44-.024v-.252a5.753 5.753 0 011.512-3.876 1.786 1.786 0 011.3-.636c1.032 0 1.608.96 1.608 2.688a3.658 3.658 0 01-2.036 3.672 7 7 0 01-2.628.684 4.59 4.59 0 01.712 1.416 10.234 10.234 0 002.352-.672 5.044 5.044 0 003.1-4.932 5.026 5.026 0 00-.864-3.192 2.513 2.513 0 00-2.056-1.076 2.865 2.865 0 00-2.28 1.224 4.851 4.851 0 00-.756 1.428 2.634 2.634 0 01-.072.264h-.036c.024-.288.072-.7.156-1.2a11.771 11.771 0 01.432-2.316z" fill="#373943" stroke="rgba(0,0,0,0)"/><path data-name="パス 1080" d="M299 6672l4.816 10 5.184-10z" fill="#373943"/><rect data-name="長方形 2361" width="100" height="40" rx="10" transform="translate(254 6622)" fill="#fff"/><path data-name="パス 1161" d="M287.116 6640.424a1.792 1.792 0 01.228-.012c.1 0 .264 0 .48.012s.324.012.384.012h.7a1.016 1.016 0 00.156-.012 25.638 25.638 0 01-2.152 6.456l1.512.588a40.684 40.684 0 001.344-3.968c.312-1.092.612-2.364.744-3.108a16.359 16.359 0 001.968-.252c.288-.048.288-.048.384-.06l-.064-1.38a9.959 9.959 0 01-2.052.36c.048-.276.06-.348.12-.684a6.819 6.819 0 01.232-1.156l-1.584-.144a1.628 1.628 0 01.012.216 14.565 14.565 0 01-.228 1.836c-.276.012-.408.012-.552.012a9.548 9.548 0 01-1.608-.108zm9.516.264c-.756-.012-.864-.012-1.188-.012a15.4 15.4 0 00-3.576.384l.108 1.32a12.951 12.951 0 013.168-.348 12.492 12.492 0 011.512.084zm-4.732 2.52a3.384 3.384 0 00-.888 2.076 1.734 1.734 0 00.856 1.476 4.873 4.873 0 002.412.48 13.964 13.964 0 002.232-.192c.276-.048.372-.06.588-.084l-.108-1.476a9.184 9.184 0 01-2.724.444c-1.2 0-1.8-.312-1.8-.924a1.991 1.991 0 01.624-1.32zm8.388-5.364a1.536 1.536 0 01.12.408c.132.672.348 1.716.408 1.9a4.5 4.5 0 00-1.916 3.68c0 1.62.828 2.7 2.064 2.7a2.008 2.008 0 001.116-.324 5.384 5.384 0 001.428-1.32 14.415 14.415 0 002.184-4.476 2.831 2.831 0 011.08.516 2.2 2.2 0 01.876 1.86 2.875 2.875 0 01-.408 1.476 3.494 3.494 0 01-1.68 1.284 5.449 5.449 0 01-1.96.468 3.484 3.484 0 01.748 1.404 8.8 8.8 0 001.952-.576 4.212 4.212 0 002.812-3.944 3.54 3.54 0 00-1.464-2.98 4.146 4.146 0 00-1.608-.72c.048-.168.2-.756.372-1.4a1.274 1.274 0 01.12-.336l-1.512-.304a9.209 9.209 0 01-.348 1.86h-.324a5.809 5.809 0 00-2.316.48 11.793 11.793 0 01-.288-1.932zm.888 3.732a12.891 12.891 0 00.984 2.76c-.408.516-.792.78-1.128.78-.48 0-.816-.54-.816-1.32a3.034 3.034 0 01.964-2.22zm1.888 1.584a1.028 1.028 0 00-.064-.18 13.941 13.941 0 01-.72-2.268 3.98 3.98 0 012.064-.48 13.2 13.2 0 01-1.196 2.768.971.971 0 00-.072.156zm11.664-1.14a4.71 4.71 0 00.492-.312c.24-.156 1.1-.8 1.32-.984a86.196 86.196 0 001.884-1.68 2.572 2.572 0 01.624-.492l-.748-1.052a1.768 1.768 0 01-.744.156 56.737 56.737 0 01-3.648.144 10.853 10.853 0 01-1.408-.076l.06 1.44a4.048 4.048 0 01.576-.06c2.172-.1 2.94-.144 3.4-.2l.012.012-.216.216a40.068 40.068 0 01-3.588 3.12 10.792 10.792 0 01-1.7 1.124l.816 1.3a7.394 7.394 0 014.94-2.02c1.452 0 2.376.612 2.376 1.548 0 .852-.432 1.368-1.428 1.74a3.227 3.227 0 00-.552-1.08 2.583 2.583 0 00-2.076-.984 1.847 1.847 0 00-2.06 1.72 1.713 1.713 0 00.72 1.38 4.06 4.06 0 002.328.552 5.937 5.937 0 002.9-.684 2.933 2.933 0 001.632-2.652c0-1.644-1.32-2.7-3.372-2.7a5.858 5.858 0 00-2.52.552zm1.728 4.272a3.248 3.248 0 01-.624.048c-.888 0-1.428-.276-1.428-.756 0-.336.276-.552.708-.552.672 0 1.128.432 1.344 1.26z" fill="#373943" stroke="rgba(0,0,0,0)"/><rect data-name="長方形 2362" width="100" height="40" rx="10" transform="translate(254 6552)" fill="#fff"/><path data-name="パス 1159" d="M269.092 6570.172c0-.132 0-.132.012-.924l.012-.72a7.569 7.569 0 01.06-1.152h-1.656a7.553 7.553 0 01.06 1.152v.708c0 .216 0 .432-.012.936h-3.024a8.674 8.674 0 01-1.56-.084v1.512a12.326 12.326 0 011.536-.06h2.98a5.188 5.188 0 01-.588 2.412 5.54 5.54 0 01-2.896 2.364 3.727 3.727 0 011.092 1.3 7.225 7.225 0 003.06-2.688 6.625 6.625 0 00.864-3.384h2.46a12.326 12.326 0 011.536.06v-1.516a8.6 8.6 0 01-1.56.084zm7.308-2.616a5.837 5.837 0 01.06 1.236l-.048 6.48a4.232 4.232 0 01-.112 1.236l.768.924a3.438 3.438 0 01.72-.2 10.939 10.939 0 004.372-1.648 8.946 8.946 0 002.676-2.8 5.637 5.637 0 01-1.136-1.22 7.091 7.091 0 01-2.448 2.748 8.631 8.631 0 01-3.276 1.32l.06-6.852a9.286 9.286 0 01.064-1.212zm11.52 2.916a12.005 12.005 0 011.092 2.9l1.356-.432a13.842 13.842 0 00-1.176-2.84zm2.568-.5a13.2 13.2 0 011.092 2.82l1.332-.42a11.789 11.789 0 00-1.164-2.76zm4.128-.12a5.323 5.323 0 01-.216 1.376 6.9 6.9 0 01-2.724 4.164 7.784 7.784 0 01-2.04 1.1 4.359 4.359 0 01.964 1.192 9.211 9.211 0 003.66-2.892 10.244 10.244 0 001.656-4 2.526 2.526 0 01.168-.612zm5.46-1.056a14.528 14.528 0 013.204 1.64l.768-1.32a19.761 19.761 0 00-3.192-1.548zm-.948 2.916a13.928 13.928 0 013.252 1.748l.744-1.36a18.94 18.94 0 00-3.192-1.628zm7.128-3.96a8.1 8.1 0 011.26 1.788l.84-.444a7.777 7.777 0 00-1.256-1.768zm-6.444 9.74a7.086 7.086 0 01.84-.2c4.296-.844 6.828-2.812 8.316-6.448a5.834 5.834 0 01-1.248-1.068 8.253 8.253 0 01-4.86 5.292 10.66 10.66 0 01-3.468.78zm9.972-9.18a6.94 6.94 0 00-1.248-1.692l-.8.42a8.841 8.841 0 011.22 1.74zm7.152 1a2.623 2.623 0 011.212.36 2.973 2.973 0 011.476 2.664 3.36 3.36 0 01-1.668 3 6.377 6.377 0 01-2.388.66 3.828 3.828 0 01.732 1.404 7.845 7.845 0 001.884-.5 4.623 4.623 0 002.916-4.484c0-2.7-1.872-4.452-4.752-4.452a5.387 5.387 0 00-4.128 1.68 5.155 5.155 0 00-1.32 3.492c0 1.932.984 3.324 2.352 3.324.984 0 1.752-.708 2.436-2.256a17.36 17.36 0 001.248-4.896zm-1.464.012a15.815 15.815 0 01-1 4.056c-.432 1.032-.84 1.536-1.236 1.536-.528 0-.948-.78-.948-1.764a4.018 4.018 0 011.632-3.24 3.055 3.055 0 011.552-.592zm10.464 3.62c0 .132 0 .216-.012.372h-1.716a7.248 7.248 0 01-1.26-.072v1.284a7.667 7.667 0 011.26-.072h1.536a2.728 2.728 0 01-.852 1.332 4.962 4.962 0 01-2.22 1.068 4.38 4.38 0 01.852 1.176 5.669 5.669 0 002.8-1.848 4.22 4.22 0 00.744-1.728h1.548v2.328c0 .84.384 1.044 2.016 1.044 2.3 0 2.52-.18 2.784-2.208a4.094 4.094 0 01-1.3-.42 2.807 2.807 0 01-.216 1.2c-.132.168-.42.228-1.08.228a2.775 2.775 0 01-.768-.06c-.18-.048-.192-.072-.192-.324v-1.788h1.908a9.155 9.155 0 011.26.072v-1.284a7.167 7.167 0 01-1.26.072h-1.908v-1.3a9.673 9.673 0 011.152.048v-.516a12.027 12.027 0 001.98 1.08 4.9 4.9 0 01.672-1.188 10.649 10.649 0 01-1.92-.912 9.3 9.3 0 001.08-1.1c.24-.264.264-.3.336-.372l-1.1-.624a7.076 7.076 0 01-1.248 1.452c-.252-.192-.384-.3-.708-.576a12.393 12.393 0 00.888-.9c.276-.324.432-.5.468-.552l-1.1-.612c-.036.06-.036.06-.1.156a2.1 2.1 0 01-.26.348 6.309 6.309 0 01-.708.768 2.954 2.954 0 01-.744-1.308 6.91 6.91 0 01-1.032.048H325.3a6.857 6.857 0 01-1-.06v1.248l-.384-.312-.984.732a8.221 8.221 0 011.68 1.572 10.293 10.293 0 01-2.288 1.164 4.54 4.54 0 01.708 1.1 11.83 11.83 0 002.112-1.16v.528c.3-.024.432-.036.8-.048zm1.284-.924h1.392v1.3h-1.4v-.28zm-.432-3.62a7.761 7.761 0 01-1.176 1.28 10.324 10.324 0 00-1.312-1.236 5.342 5.342 0 01.732-.048zm-.456 2.5h-.324a10.019 10.019 0 002.028-2.18 10.052 10.052 0 002.04 2.172h-3.744zm11.64 3.564a2.4 2.4 0 01-1.14 1.692 6 6 0 01-2.34.792 3.765 3.765 0 01.7 1.176 6.137 6.137 0 003.048-1.44 3.68 3.68 0 001.14-2.22h1.08v2.336c0 .9.36 1.068 2.352 1.068 1.356 0 1.872-.1 2.208-.408.3-.288.42-.732.54-2.064a4.97 4.97 0 01-1.236-.5 3.811 3.811 0 01-.224 1.528c-.144.2-.384.252-1.308.252s-1.04-.036-1.04-.376v-1.844h1.032c.492 0 .96.012 1.272.036a8.955 8.955 0 01-.056-1.272v-4.38a14.281 14.281 0 01.06-1.5 9.27 9.27 0 01-1.272.06h-5.536a9.185 9.185 0 01-1.26-.06 14.619 14.619 0 01.06 1.5v4.38a9.27 9.27 0 01-.06 1.272c.312-.024.72-.036 1.3-.036zm-.66-5.864h5.412v.78h-5.412zm0 1.908h5.412v.8h-5.412zm0 1.932h5.412v.852h-5.412z" fill="#373943" stroke="rgba(0,0,0,0)"/><rect data-name="長方形 2366" width="100" height="40" rx="10" transform="translate(254 6692)" fill="#fff"/><path data-name="パス 1162" d="M271.624 6707.748a7.553 7.553 0 01-1.548.084h-3.528a7.7 7.7 0 01-1.548-.084v1.464a9.915 9.915 0 011.524-.06h3.576a9.812 9.812 0 011.524.06zm.756 4.4a10.542 10.542 0 011.524.06v-1.424a7.844 7.844 0 01-1.548.084h-7.02a7.844 7.844 0 01-1.548-.084v1.428a10.542 10.542 0 011.524-.06h2.916c-.084 2.328-1.02 3.516-3.372 4.26a3.815 3.815 0 01.984 1.332c2.712-1.044 3.84-2.628 3.972-5.592zm2.544-3.828a7.359 7.359 0 00-1.056-1.82l-.864.312a8.717 8.717 0 011.032 1.86zm-3.492-1.04a8.847 8.847 0 011.056 1.92l.9-.336a8.468 8.468 0 00-1.068-1.9zm4.38 5.952a13.174 13.174 0 011.956-.06h6.372a13.174 13.174 0 011.956.06v-1.668a11.785 11.785 0 01-1.944.084h-6.4a11.785 11.785 0 01-1.944-.084zm20.88-4.848a3.15 3.15 0 01-1.056.144c-2.928.024-2.928.024-3.12.048a5.979 5.979 0 00.284-.576 6.323 6.323 0 01.36-.672l-1.56-.348a7.316 7.316 0 01-.7 1.668 10.316 10.316 0 01-3 3.42 3.809 3.809 0 011.2.96 12.415 12.415 0 002.8-3.228l3.732-.036a11.465 11.465 0 01-1.34 2.836 15.619 15.619 0 00-2.412-1.612l-.912 1.068a13.585 13.585 0 012.46 1.716 8.711 8.711 0 01-1.968 1.668 12.094 12.094 0 01-2.34 1.2 3.809 3.809 0 011 1.236 11.718 11.718 0 005.468-4.584 20.127 20.127 0 001.536-3.3 2.15 2.15 0 01.372-.8zm3.384 6.288c.168-.2.216-.264.408-.492.648-.768 1.656-2.016 2.148-2.68s.54-.7.732-.7.2 0 .972.84a61.148 61.148 0 005.076 5.072l.756-1.644a7.212 7.212 0 01-1.14-.9 41.234 41.234 0 01-3.888-3.828c-.912-1.032-1.188-1.224-1.788-1.224a1.526 1.526 0 00-.816.228 4.062 4.062 0 00-.9.948 14.9 14.9 0 01-2.58 2.9zm6.288-5.664a8.1 8.1 0 011.26 1.792l.84-.444a7.777 7.777 0 00-1.264-1.768zm3.528.564a6.643 6.643 0 00-1.248-1.692l-.8.42a8.841 8.841 0 011.22 1.74zm1.2 3.66a13.174 13.174 0 011.956-.06h6.372a13.174 13.174 0 011.956.06v-1.668a11.785 11.785 0 01-1.944.084h-6.4a11.785 11.785 0 01-1.944-.084zm21.144 2.916c-1.452-1.4-1.452-1.4-1.752-1.668a18.6 18.6 0 00-2.22-1.74 15.893 15.893 0 001.872-3.312 2.308 2.308 0 01.384-.648l-.792-.816a2.6 2.6 0 01-1.068.136l-4.224.06h-.288a5.252 5.252 0 01-1.056-.072l.048 1.532a9.457 9.457 0 011.308-.1c3.78-.06 3.78-.06 3.972-.072l-.132.312a11.567 11.567 0 01-4.032 4.884 9.907 9.907 0 01-2.4 1.32 4.814 4.814 0 01.972 1.336 14.261 14.261 0 004.572-3.468 23.068 23.068 0 013.684 3.568zm7.812-3.5a18.352 18.352 0 004.052-2.812c.12-.1.168-.144.264-.216l-1.04-1.056a10.406 10.406 0 01-3.276 2.58v-2.676a11.139 11.139 0 01.072-1.44h-1.5a11.269 11.269 0 01.072 1.44v7.908c0 1.092.36 1.3 2.3 1.3s2.608-.136 2.98-.592a5.376 5.376 0 00.552-2.64 5.874 5.874 0 01-1.3-.468c-.06 1.452-.132 1.92-.336 2.2-.156.192-.588.264-1.668.264-.96 0-1.176-.072-1.176-.4zm-4.748 3.764a13.024 13.024 0 01-.084 1.56h1.476c-.048-.5-.072-1.044-.072-1.536v-6.444a22.3 22.3 0 00.86-2.092c.108-.288.156-.42.264-.66l-1.4-.408a9.135 9.135 0 01-1.212 2.976 10.5 10.5 0 01-1.68 2.136 6.017 6.017 0 01.636 1.416 12.448 12.448 0 001.232-1.56c-.024.8-.024.924-.024 1.344z" fill="#373943" stroke="rgba(0,0,0,0)"/><path data-name="パス 1081" d="M299 6602l4.816 10 5.184-10z" fill="#373943"/><path data-name="パス 1160" d="M298.12 6530.332h2.324a14.729 14.729 0 011.526.068v-1.622a14.236 14.236 0 01-1.54.07h-2.31v-1.386a10.648 10.648 0 01.08-1.512h-1.718a11.75 11.75 0 01.084 1.55v5.716h-2.044v-3.374a9.683 9.683 0 01.1-1.582H292.9a13.411 13.411 0 01.084 1.6v3.36h-.616a9.709 9.709 0 01-1.666-.1v1.68a11.95 11.95 0 011.79-.1h9.114a11.9 11.9 0 011.764.1v-1.682a11.537 11.537 0 01-1.764.1h-3.486zm-1.932-7.966a10.179 10.179 0 01-2.282 2.548 14.9 14.9 0 01-3.444 2.114 5.273 5.273 0 01.784 1.5 17.454 17.454 0 003.486-2.3 12.712 12.712 0 002.31-2.45 12.531 12.531 0 002.45 2.506 16.7 16.7 0 003.458 2.116 6.068 6.068 0 01.77-1.54 14.767 14.767 0 01-3.528-2 9.742 9.742 0 01-2.392-2.494zm13.972 5.474v.672h-2.772a9.941 9.941 0 01-1.428-.07v1.258a10.061 10.061 0 011.428-.07h2.772v.7h-3.71a13 13 0 01-1.68-.082v1.4a15.389 15.389 0 011.694-.084h2.6a10.064 10.064 0 01-4.574 1.988 5.73 5.73 0 01.854 1.348 13.545 13.545 0 002.856-1.18 7.786 7.786 0 002.016-1.54 9.426 9.426 0 00-.042.952v.668a10.449 10.449 0 01-.084 1.432h1.652a7.965 7.965 0 01-.1-1.414v-.686a9.583 9.583 0 00-.042-.994 10.924 10.924 0 005.2 2.772 5.544 5.544 0 01.8-1.428 12.016 12.016 0 01-2.912-.8 7.268 7.268 0 01-1.9-1.12h2.814a15.124 15.124 0 011.68.084v-1.4a12.366 12.366 0 01-1.694.084h-3.916v-.7h2.928a10.277 10.277 0 011.442.07v-1.26a10.156 10.156 0 01-1.442.07h-2.928v-.67h3.654a10.277 10.277 0 011.442.07v-1.33a12.875 12.875 0 01-1.442.056H313.7c.2-.35.252-.476.518-1.036h1.4c.686 0 1.232.028 1.666.07v-1.4a11.352 11.352 0 01-1.582.084h-.392c.308-.434.532-.784.868-1.344l-1.442-.532a7.47 7.47 0 01-1.006 1.876h-.882v-.994a7.351 7.351 0 01.07-1.092h-1.526a9.971 9.971 0 01.042 1.032v1.05h-.994v-1.05a9.428 9.428 0 01.042-1.036h-1.526a7.786 7.786 0 01.07 1.092v.994h-.8a9.9 9.9 0 00-1.076-1.83l-1.4.532a5.918 5.918 0 01.952 1.3h-.448a11.864 11.864 0 01-1.6-.084v1.4c.448-.042.98-.07 1.666-.07h1.516c.154.266.308.588.518 1.036h-1.694a12.716 12.716 0 01-1.442-.054v1.33a10.4 10.4 0 011.442-.07zm-.322-1.2a8.936 8.936 0 00-.42-1.04h3.192a8.165 8.165 0 01-.462 1.036z" fill="#373943"/><g data-name="グループ 1744" fill="#34be8e"><path data-name="長方形 2446" d="M66.759 6446.8h5v57.7h-5z"/><path data-name="長方形 2447" d="M302 6446.8h5v42.7h-5z"/><path data-name="長方形 2448" d="M67 6449v-5h240v5z"/><path data-name="多角形 16" d="M304.5 6502.5l-7.5-13h15z"/></g><g data-name="グループ 1743" fill="#f3ba18"><path data-name="長方形 2446" d="M302 6742h5v94h-5z"/><path data-name="長方形 2447" d="M67 6755h5v79h-5z"/><path data-name="長方形 2448" d="M306.892 6831.5v5H67.065v-5z"/><path data-name="多角形 16" d="M69.5 6742l7.5 13H62z"/></g><path data-name="パス 1163" d="M132.764 6911.034c0-.154 0-.154.014-1.078l.014-.84a8.831 8.831 0 01.07-1.344h-1.932a8.812 8.812 0 01.07 1.344v.826c0 .252 0 .5-.014 1.092h-3.528a10.119 10.119 0 01-1.82-.1v1.766a14.38 14.38 0 011.792-.07h3.47a6.053 6.053 0 01-.686 2.814 6.463 6.463 0 01-3.372 2.756 4.349 4.349 0 011.274 1.514 8.429 8.429 0 003.57-3.136 7.729 7.729 0 001.008-3.948h2.87a14.38 14.38 0 011.792.07v-1.764a10.028 10.028 0 01-1.82.1zm8.526-3.052a6.81 6.81 0 01.07 1.442l-.056 7.56a4.937 4.937 0 01-.126 1.442l.9 1.078a4.011 4.011 0 01.84-.238 12.762 12.762 0 005.1-1.918 10.437 10.437 0 003.122-3.262 6.576 6.576 0 01-1.34-1.428 8.273 8.273 0 01-2.856 3.206 10.069 10.069 0 01-3.82 1.536l.07-7.994a10.834 10.834 0 01.084-1.406zm13.44 3.4a14.006 14.006 0 011.27 3.39l1.582-.5a16.149 16.149 0 00-1.368-3.322zm3-.588a15.4 15.4 0 011.27 3.292l1.554-.49a13.753 13.753 0 00-1.354-3.22zm4.816-.14a6.21 6.21 0 01-.252 1.61 8.05 8.05 0 01-3.178 4.858 9.081 9.081 0 01-2.38 1.288 5.085 5.085 0 011.116 1.39 10.746 10.746 0 004.27-3.374 11.951 11.951 0 001.932-4.662 2.947 2.947 0 01.2-.714zm6.37-1.232a16.949 16.949 0 013.734 1.92l.9-1.54a23.055 23.055 0 00-3.728-1.802zm-1.106 3.4a16.25 16.25 0 013.79 2.048l.868-1.582a22.1 22.1 0 00-3.724-1.9zm8.316-4.62a9.449 9.449 0 011.47 2.086l.98-.518a9.073 9.073 0 00-1.476-2.054zm-7.526 11.372a8.267 8.267 0 01.98-.238c5.012-.98 7.966-3.276 9.7-7.518a6.807 6.807 0 01-1.45-1.246 9.629 9.629 0 01-5.67 6.174 12.437 12.437 0 01-4.046.91zm11.634-10.71a8.1 8.1 0 00-1.452-1.974l-.938.49a10.315 10.315 0 011.428 2.03zm3.15-.35v.2a10.273 10.273 0 01-.126 1.358 17.026 17.026 0 01-1.316 4.8 9.434 9.434 0 01-2 2.982 6.057 6.057 0 011.6 1.2c1.874-2.154 2.966-4.912 3.558-8.93l.042-.336.07-.406.028-.238a1.614 1.614 0 01.07-.28zm4.158.336a5.883 5.883 0 01.2 1.008 18.553 18.553 0 003.71 9.212 5.762 5.762 0 011.54-1.288 13.56 13.56 0 01-3.122-6.048 17.345 17.345 0 01-.588-3.22zm1.876-.868a9.186 9.186 0 011.152 2.282l1.064-.336a8.349 8.349 0 00-1.162-2.254zm4.05 1.386a8.285 8.285 0 00-1.148-2.168l-1.036.294a9.616 9.616 0 011.116 2.206zm1.75.644a14.7 14.7 0 013.57 2.842l1.2-1.526a19.828 19.828 0 00-3.612-2.7zm.49 9.24a4.956 4.956 0 01.924-.238 15.122 15.122 0 005.334-2.1 12.287 12.287 0 004.434-5.488 6.037 6.037 0 01-1.48-1.372 11.69 11.69 0 01-1.428 2.8 9.354 9.354 0 01-4.158 3.43 13.34 13.34 0 01-4.144 1.036zm23.156-10.094a2.48 2.48 0 01-1.022.14l-3.066.042c-.266 0-.49.014-.672.028a3.3 3.3 0 00.224-.448l.182-.364a2.826 2.826 0 01.182-.392 2.863 2.863 0 01.238-.434l-1.918-.378a5.225 5.225 0 01-.712 1.848 10.77 10.77 0 01-3.626 4.06 3.72 3.72 0 011.358 1.2 13.7 13.7 0 003.274-3.58l4.214-.07a11.086 11.086 0 01-4.088 5.908 12.608 12.608 0 01-3.066 1.652 4.314 4.314 0 011.19 1.47 14.143 14.143 0 004.984-3.556 14.521 14.521 0 002.87-5.4 2.634 2.634 0 01.35-.84zm6.888-1.652v.266a21.544 21.544 0 01-.364 2.828c-.77.112-2.464.28-2.982.28l.168 1.652a25.1 25.1 0 012.506-.448 23.75 23.75 0 01-1.358 3.962 15.3 15.3 0 01-1.456 2.632l1.624.9c.07-.14.07-.154.112-.238l.21-.42a30.026 30.026 0 001.68-3.934 29.616 29.616 0 00.854-3.038c.322-.028.532-.042.812-.042 1.106 0 1.428.378 1.428 1.666a12.44 12.44 0 01-.364 3.192c-.21.686-.434.952-.84.952a5.792 5.792 0 01-2.044-.546 5.258 5.258 0 01.14 1.19c0 .14-.014.336-.028.616a6.792 6.792 0 002.156.406 1.773 1.773 0 001.554-.63c.672-.77 1.078-2.688 1.078-5.1a3.4 3.4 0 00-.658-2.478 2.712 2.712 0 00-2.072-.742c-.266 0-.462.014-.868.042.042-.182.042-.21.1-.518.2-1.05.2-1.05.238-1.344.042-.224.056-.294.084-.476a3.257 3.257 0 01.112-.434zm5.012 2.688a9.061 9.061 0 011.61 2.394 12.584 12.584 0 011.12 3.178l1.6-.812a13.589 13.589 0 00-2.884-5.46zm8.764-1.2a25.34 25.34 0 005.46 1.75l.574-1.61a21 21 0 01-5.222-1.554zm-1.12 1.232a5.713 5.713 0 01-.084.812 208.095 208.095 0 00-.588 4.074c-.07.532-.07.588-.112.84l1.764.048a3.048 3.048 0 01.63-.6 6.372 6.372 0 013.482-1.02c1.484 0 2.366.56 2.366 1.5 0 1.19-1.372 2.016-3.346 2.016a11.3 11.3 0 01-3.766-.7 6.213 6.213 0 01.214 1.804 12.873 12.873 0 003.57.49 6.048 6.048 0 003.7-.952 3.409 3.409 0 001.442-2.7c0-1.792-1.568-2.968-3.948-2.968a6.635 6.635 0 00-4.246 1.33l-.028-.028c.042-.21.042-.21.07-.406a29.624 29.624 0 01.63-3.444zm-59.29 21.54h-2.772v-2.272a8.235 8.235 0 01.056-1.12h-1.68a7.8 7.8 0 01.07 1.232v2.772c0 .322-.014.588-.042.9.336-.028.63-.042 1.008-.042h3.36v4.592h-3.29v-2.272a6.917 6.917 0 01.07-1.2H174.2a11.636 11.636 0 01.07 1.344v2.968a10.158 10.158 0 01-.084 1.4h1.638v-.728h8.33v.728h1.646a8.84 8.84 0 01-.084-1.4v-3.028a11.193 11.193 0 01.07-1.33h-1.698a7.45 7.45 0 01.07 1.19v2.324H180.7v-4.592h3.612c.336 0 .672.014.98.042a7.671 7.671 0 01-.042-.9v-2.782a8.048 8.048 0 01.07-1.218h-1.68a8.41 8.41 0 01.06 1.106v2.282h-3v-3.062a9.01 9.01 0 01.084-1.39h-1.75a8.4 8.4 0 01.084 1.39zm11.354 5.582a5.367 5.367 0 01-.8-.868c.07-.518.1-.84.112-1.12a2.557 2.557 0 01.042-.49l-1.414-.238c.014.182.028.28.028.406a10.78 10.78 0 01-.208 1.962 6.034 6.034 0 01-.924 2.086 3.753 3.753 0 011.19.966 7.417 7.417 0 00.9-2.1 4.612 4.612 0 002.268 1.54 19.088 19.088 0 004.928.42c1.218 0 2.814-.028 3.766-.07a5.4 5.4 0 01.434-1.554c-.364.042-.518.056-.77.07a5.157 5.157 0 01.644-.84 6.63 6.63 0 01-2.142-1.288h.238c.518 0 .8.014 1.148.042a12.278 12.278 0 01-.056-1.33v-3.894a8.982 8.982 0 01.056-1.19c-.336.028-.588.042-1.176.042h-1.2a8.489 8.489 0 00.364-.924h1.21c.476 0 1.008.028 1.344.056v-1.358a8.887 8.887 0 01-1.47.084h-3.528a14.233 14.233 0 01-1.512-.07v1.358a12.448 12.448 0 011.386-.07h1.148c-.1.294-.21.6-.35.924h-.56a11.455 11.455 0 01-1.162-.042c.028.378.042.714.042 1.176v4.088c0 .476-.014.84-.042 1.148a10.633 10.633 0 011.094-.042 4.805 4.805 0 01-2.156 1.414 4.627 4.627 0 01.77.8 9.087 9.087 0 01-2.254-.308v-1.57h.714a6.336 6.336 0 011.134.07v-1.358a8.779 8.779 0 01-1.12.056h-.73v-1.132h.868a10.7 10.7 0 011.288.056v-1.416a6.981 6.981 0 01-1.162.07h-3.892a8.164 8.164 0 01-1.344-.07v1.428a7.755 7.755 0 011.344-.068h1.512zm5.278-1.12h2.45l-.854.63a8.635 8.635 0 002.03 1.554c-.91.042-2.212.084-3.192.084-.42 0-.91-.014-1.4-.028a8.059 8.059 0 001.916-1.624zm.042-5.18h2.716v.658h-2.716zm0 1.694h2.716v.644h-2.716zm0 1.666h2.716v.658h-2.716zm-7.448-3.164a9.183 9.183 0 01-.056 1.218 10.738 10.738 0 011.232-.056h2.744a10.9 10.9 0 011.232.056 8.432 8.432 0 01-.056-1.2v-2.384a9.02 9.02 0 01.06-1.232 8.588 8.588 0 01-1.26.056h-2.72a8.508 8.508 0 01-1.232-.056 10.029 10.029 0 01.056 1.218zm1.372-2.394h2.352v.686h-2.352zm0 1.722h2.352v.728h-2.352z" fill="#373943"/><g transform="translate(128 6758.027)"><path data-name="パス 627" d="M63.405 108.414l-13.433 7.089-.432 2.635c-.614 3.75-2.946 6.817-5.181 6.817v1.772h24.66v-1.772z" fill="#3d5168"/><path data-name="パス 628" d="M67.903 118.138l-1.593-9.724-7.588-7.089-7.588 7.089-1.161 7.089h13.433l.432 2.635c.614 3.75 2.946 6.817 5.181 6.817l2.032 1.772 2.032-1.772c-2.235 0-4.567-3.067-5.18-6.817z" fill="#233952"/><path data-name="パス 629" d="M79.723 128.5h-42c-.561 0-1.016-.793-1.016-1.772s.455-1.772 1.016-1.772h42c.561 0 1.016.794 1.016 1.772s-.455 1.772-1.016 1.772z" fill="#233952"/><path data-name="パス 630" d="M110.354 28.5h-7.089v79.914h7.089a7.11 7.11 0 007.089-7.089V35.589a7.11 7.11 0 00-7.089-7.089z" fill="#3d5168"/><path data-name="パス 631" d="M103.265 28.5H7.089A7.11 7.11 0 000 35.589v65.736a7.11 7.11 0 007.089 7.089h96.176a7.11 7.11 0 007.089-7.089v-7.089L58.721 60.563l51.632-24.974a7.11 7.11 0 00-7.088-7.089z" fill="#57697d"/><g data-name="グループ 1543"><path data-name="パス 632" d="M110.23 35.581l-7.089-.006L58.59 60.52s44.551 33.634 44.55 33.635l7.09-.006V35.581z" fill="#d3dfff"/><path data-name="パス 633" d="M103.141 35.581l-96.17-.006c-.006 0-.011 58.579-.021 58.58l96.188-.006s-.007-58.566.003-58.568z" fill="#f4f4f7"/></g><circle data-name="楕円形 158" cx="1.772" cy="1.772" r="1.772" transform="translate(108.742 99.546)" fill="#85cf75"/><circle data-name="楕円形 159" cx="1.772" cy="1.772" r="1.772" transform="translate(101.653 99.546)" fill="#3d5168"/><g data-name="グループ 1544" stroke="rgba(0,0,0,0)"><g data-name="グループ 1075" fill="#2962ff" stroke-miterlimit="10"><g data-name="グループ 624"><path data-name="パス 24" d="M62.715 52.233h-.494v-2.488h.494a2.385 2.385 0 000-4.764 2.229 2.229 0 00-1.809.958l-.007-.007-2.413 2.531v-.582h0v-.519a2.274 2.274 0 10-2.27 2.382h.494v2.488h-.494a2.385 2.385 0 102.27 2.382v-.518h0v-.588l2.413 2.531h0A2.231 2.231 0 0062.71 57a2.385 2.385 0 000-4.764zm-.494-4.87a.5.5 0 11.494.519h-.494zm-6.006.519a.519.519 0 11.494-.519v.519zm.494 6.733a.5.5 0 11-.494-.518h.494zm3.735-4.869v2.488h0v.695l-1.85-1.941 1.85-1.941v.7zm2.271 5.389a.507.507 0 01-.494-.519v-.518h.494a.519.519 0 010 1.038z"/><path data-name="パス 25" d="M58.485 48.463l2.413-2.531.113-.131v2.661z"/></g><path data-name="パス 26" d="M58.485 53.511l2.413 2.531.113.131v-2.661z"/></g><path data-name="パス 1166" d="M26.995 69.004v-8.508h1.656v4.044l3.576-4.056h1.824l-3.264 3.78 3.468 4.74h-1.86l-2.652-3.684-1.092 1.14v2.544zm13.716 0h-1.608v-3.528a1.838 1.838 0 00-.264-1.1.867.867 0 00-.732-.348 1.377 1.377 0 00-.492.1 1.811 1.811 0 00-.474.27 2.2 2.2 0 00-.4.414 1.637 1.637 0 00-.264.528v3.664h-1.612v-6.288h1.452v1.164a2.382 2.382 0 011.008-.936 3.233 3.233 0 011.49-.34 1.9 1.9 0 01.96.216 1.56 1.56 0 01.576.564 2.359 2.359 0 01.282.792 5.192 5.192 0 01.078.9zm4.308.12a3.452 3.452 0 01-1.38-.264 3.1 3.1 0 01-1.038-.714 3.152 3.152 0 01-.654-1.042 3.389 3.389 0 01-.228-1.236 3.422 3.422 0 01.228-1.248 3.152 3.152 0 01.654-1.038 3.1 3.1 0 011.038-.714 3.452 3.452 0 011.38-.264 3.408 3.408 0 011.374.264 3.114 3.114 0 011.032.714 3.152 3.152 0 01.654 1.038 3.421 3.421 0 01.228 1.248 3.389 3.389 0 01-.228 1.236 3.2 3.2 0 01-.648 1.038 3.035 3.035 0 01-1.032.714 3.452 3.452 0 01-1.38.268zm-1.644-3.252a2.191 2.191 0 00.126.762 1.862 1.862 0 00.348.594 1.555 1.555 0 00.522.39 1.532 1.532 0 00.648.138 1.532 1.532 0 00.648-.138 1.555 1.555 0 00.522-.39 1.849 1.849 0 00.348-.6 2.242 2.242 0 00.126-.768 2.2 2.2 0 00-.126-.756 1.849 1.849 0 00-.348-.6 1.555 1.555 0 00-.522-.39 1.532 1.532 0 00-.648-.138 1.478 1.478 0 00-.648.144 1.628 1.628 0 00-.522.4 1.849 1.849 0 00-.348.6 2.2 2.2 0 00-.126.752zm13.584-3.156h1.524l-2.628 6.288h-1.32l-1.08-2.76-1.068 2.76h-1.322l-2.616-6.288h1.516l1.87 4.776.768-2.04-1.1-2.724h1.3l.66 1.932.672-1.932h1.3l-1.104 2.724.756 2.04zm2.256-2.472h1.608v6.744a.794.794 0 00.168.54.6.6 0 00.48.192 1.2 1.2 0 00.318-.048 2.151 2.151 0 00.33-.12l.216 1.224a3.11 3.11 0 01-.756.24 4.124 4.124 0 01-.78.088 1.61 1.61 0 01-1.17-.4 1.524 1.524 0 01-.414-1.152zm6.732 8.88a3.489 3.489 0 01-1.368-.258 3.137 3.137 0 01-1.044-.702 3.116 3.116 0 01-.67-1.032 3.312 3.312 0 01-.23-1.236 3.5 3.5 0 01.23-1.266 3.09 3.09 0 01.66-1.044 3.151 3.151 0 011.05-.714 3.5 3.5 0 011.384-.268 3.408 3.408 0 011.374.264 3.16 3.16 0 011.032.712 3.009 3.009 0 01.648 1.032 3.437 3.437 0 01.222 1.224q0 .156-.006.3a1.221 1.221 0 01-.03.24h-4.86a1.866 1.866 0 00.18.66 1.631 1.631 0 00.372.492 1.62 1.62 0 00.516.312 1.7 1.7 0 00.6.108 1.854 1.854 0 00.906-.234 1.239 1.239 0 00.582-.618l1.38.384a2.805 2.805 0 01-1.11 1.182 3.44 3.44 0 01-1.818.462zm1.632-3.792a1.672 1.672 0 00-.522-1.134 1.6 1.6 0 00-1.122-.426 1.6 1.6 0 00-.606.114 1.581 1.581 0 00-.5.318 1.648 1.648 0 00-.354.492 1.734 1.734 0 00-.162.636zm5.244 3.792a2.855 2.855 0 01-1.2-.252 2.83 2.83 0 01-.948-.7 3.253 3.253 0 01-.618-1.038 3.621 3.621 0 01-.222-1.278 3.755 3.755 0 01.21-1.272 3.338 3.338 0 01.582-1.032 2.683 2.683 0 01.888-.7 2.536 2.536 0 011.128-.248 2.383 2.383 0 011.254.336 2.434 2.434 0 01.87.876v-3.572h1.608v6.912a.6.6 0 00.084.36.373.373 0 00.288.12v1.368a3.645 3.645 0 01-.682.084 1.115 1.115 0 01-.708-.216.793.793 0 01-.314-.568l-.036-.4a2.281 2.281 0 01-.942.914 2.677 2.677 0 01-1.242.306zm.42-1.368a1.51 1.51 0 00.468-.078 1.649 1.649 0 00.444-.222 1.944 1.944 0 00.366-.336 1.4 1.4 0 00.244-.416v-1.5a1.756 1.756 0 00-.27-.486 2 2 0 00-.4-.384 2.066 2.066 0 00-.468-.258 1.33 1.33 0 00-.486-.1 1.445 1.445 0 00-.666.156 1.581 1.581 0 00-.522.426 2.049 2.049 0 00-.336.618 2.193 2.193 0 00-.12.72 1.985 1.985 0 00.132.732 1.906 1.906 0 00.36.588 1.639 1.639 0 00.546.4 1.682 1.682 0 00.708.14zm7.176 1.284a2.59 2.59 0 01-1.154-.252 2.783 2.783 0 01-.894-.69 3.139 3.139 0 01-.582-1.014 3.639 3.639 0 01-.2-1.224 3.661 3.661 0 01.216-1.272 3.3 3.3 0 01.6-1.032 2.737 2.737 0 01.924-.7 2.774 2.774 0 011.186-.252 2.454 2.454 0 011.284.33 2.783 2.783 0 01.912.882v-1.1h1.4v5.988a2.857 2.857 0 01-.26 1.248 2.737 2.737 0 01-.726.936 3.24 3.24 0 01-1.1.588 4.6 4.6 0 01-1.4.2 3.94 3.94 0 01-1.734-.342 3.514 3.514 0 01-1.206-.966l.876-.852a2.49 2.49 0 00.906.7 2.731 2.731 0 001.158.252 2.485 2.485 0 00.714-.1 1.724 1.724 0 00.606-.318 1.478 1.478 0 00.414-.552 1.93 1.93 0 00.15-.792v-.792a2.122 2.122 0 01-.876.834 2.584 2.584 0 01-1.214.292zm.54-1.284a1.515 1.515 0 00.5-.084 1.793 1.793 0 00.444-.228 1.8 1.8 0 00.362-.34 1.518 1.518 0 00.24-.408v-1.492a1.952 1.952 0 00-.678-.888 1.619 1.619 0 00-.966-.336 1.391 1.391 0 00-.672.162 1.673 1.673 0 00-.516.432 1.952 1.952 0 00-.33.618 2.3 2.3 0 00-.114.72 1.951 1.951 0 00.132.72 1.847 1.847 0 00.366.588 1.724 1.724 0 00.546.4 1.612 1.612 0 00.686.136zm7.524 1.368a3.489 3.489 0 01-1.368-.258 3.137 3.137 0 01-1.044-.7 3.116 3.116 0 01-.666-1.032 3.312 3.312 0 01-.234-1.236 3.5 3.5 0 01.228-1.266 3.09 3.09 0 01.66-1.044 3.151 3.151 0 011.05-.714 3.5 3.5 0 011.386-.27 3.408 3.408 0 011.374.264 3.16 3.16 0 011.032.708 3.009 3.009 0 01.648 1.032 3.437 3.437 0 01.222 1.224q0 .156-.006.3a1.22 1.22 0 01-.03.24h-4.86a1.866 1.866 0 00.18.66 1.631 1.631 0 00.372.492 1.62 1.62 0 00.516.312 1.7 1.7 0 00.6.108 1.854 1.854 0 00.906-.234 1.239 1.239 0 00.582-.618l1.38.384a2.805 2.805 0 01-1.11 1.182 3.44 3.44 0 01-1.818.466zm1.632-3.792a1.672 1.672 0 00-.522-1.134 1.6 1.6 0 00-1.122-.426 1.6 1.6 0 00-.606.114 1.581 1.581 0 00-.5.318 1.648 1.648 0 00-.354.492 1.734 1.734 0 00-.162.636zM52.321 79.804a2 2 0 01-.216.948 1.991 1.991 0 01-.594.684 2.781 2.781 0 01-.876.42 3.806 3.806 0 01-1.062.148h-4.116v-8.52h4.56a1.681 1.681 0 01.8.192 2.007 2.007 0 01.612.5 2.282 2.282 0 01.39.7 2.342 2.342 0 01.138.786 2.32 2.32 0 01-.312 1.17 1.9 1.9 0 01-.912.81 2.191 2.191 0 011.158.774 2.237 2.237 0 01.43 1.388zm-1.668-.312a1.248 1.248 0 00-.078-.438 1.216 1.216 0 00-.21-.366.978.978 0 00-.312-.246.873.873 0 00-.4-.09h-2.544v2.252h2.46a1.079 1.079 0 00.426-.084 1.021 1.021 0 00.342-.234 1.122 1.122 0 00.228-.354 1.123 1.123 0 00.088-.436zm-3.54-4.6v2.156h2.208a.982.982 0 00.714-.288 1.058 1.058 0 00.294-.792 1.1 1.1 0 00-.27-.78.877.877 0 00-.666-.284zm8.064 7.224a2.385 2.385 0 01-.852-.15 2.048 2.048 0 01-.684-.42 1.955 1.955 0 01-.45-.63 1.908 1.908 0 01-.162-.792 1.745 1.745 0 01.2-.822 1.885 1.885 0 01.552-.642 2.737 2.737 0 01.844-.406 3.69 3.69 0 011.08-.15 4.654 4.654 0 01.822.072 3.348 3.348 0 01.714.2v-.36a1.261 1.261 0 00-.354-.96 1.472 1.472 0 00-1.05-.336 2.781 2.781 0 00-.984.18 4.57 4.57 0 00-.984.528l-.492-1.02a4.642 4.642 0 012.616-.8 3.065 3.065 0 012.106.666 2.44 2.44 0 01.75 1.93v1.956a.565.565 0 00.09.36.394.394 0 00.294.12v1.364a3.58 3.58 0 01-.708.084 1.072 1.072 0 01-.7-.2.877.877 0 01-.306-.54L57.483 81a2.783 2.783 0 01-1.02.84 2.929 2.929 0 01-1.286.284zm.456-1.176a2.1 2.1 0 00.774-.144 1.4 1.4 0 00.57-.384.578.578 0 00.264-.456v-.72a3.937 3.937 0 00-.624-.174 3.361 3.361 0 00-.652-.058 1.718 1.718 0 00-1.02.282.847.847 0 00-.4.714.859.859 0 00.312.678 1.132 1.132 0 00.776.27zm10.56 1.064h-1.608v-3.528a1.838 1.838 0 00-.264-1.1.867.867 0 00-.732-.348 1.377 1.377 0 00-.492.1 1.811 1.811 0 00-.474.27 2.2 2.2 0 00-.4.414 1.637 1.637 0 00-.264.528v3.664h-1.61v-6.288h1.452v1.164a2.382 2.382 0 011.008-.936 3.233 3.233 0 011.488-.34 1.9 1.9 0 01.96.216 1.56 1.56 0 01.576.564 2.359 2.359 0 01.282.792 5.192 5.192 0 01.078.9zm5.7 0l-1.828-2.724-.864.852v1.872h-1.604v-8.76h1.608v5.316l2.52-2.832h1.716l-2.34 2.664 2.508 3.612z" fill="#373943"/></g></g><g data-name="グループ 1817"><g data-name="グループ 1742"><g data-name="グループ 1714"><g data-name="グループ 1625"><path data-name="長方形 436" fill="#e8a181" d="M124.876 7005.013h6.018v6.292h-6.018z"/></g><g data-name="グループ 1626"><path data-name="パス 184" d="M147.611 6984.271s-1.146-3.594 1.442-4.044 2.9 4.092 2.9 4.092z" fill="#f4ae87"/></g><g data-name="グループ 1627"><path data-name="パス 185" d="M118.185 7034.284h18.874l5.743 19.694v22.989h-5.743a69.771 69.771 0 01-2.339-15.182c-.063-1.873.288-6.985.288-6.985l-6.211-12.81a1.3 1.3 0 00-1.167-.731h-.017a1.3 1.3 0 00-1.167.731l-6.21 12.81a49.491 49.491 0 01.669 7.806c0 6.566-2.722 14.362-2.722 14.362h-5.743v-22.99z" fill="#448fea"/></g><g data-name="グループ 1628"><path data-name="パス 187" d="M136.938 7021.048c-3.912-3.709-8.5-4.129-3.671-10.372 4.063-5.247 10.27-9.435 11-11s2.877-15.4 2.877-15.4l4.853-.123-.878 16a6.381 6.381 0 01-.769 2.457l-7.576 10.211z" fill="#002245"/></g><g data-name="グループ 1629"><path data-name="パス 188" d="M108.291 6984.271s1.146-3.594-1.442-4.044-2.9 4.092-2.9 4.092z" fill="#f4ae87"/></g><g data-name="グループ 1630"><path data-name="パス 189" d="M118.897 7021.048c3.912-3.709 8.5-4.129 3.671-10.372-4.063-5.247-10.27-9.435-11-11s-2.878-15.4-2.878-15.4l-4.853-.123.878 16a6.382 6.382 0 00.769 2.457l7.581 10.211z" fill="#002245"/></g><g data-name="グループ 1631"><path data-name="長方形 438" fill="#230603" d="M103.204 6985.801l.054-2.734 6.701.133-.054 2.734z"/></g><g data-name="グループ 1632"><path data-name="パス 190" d="M121.483 7008.727h12.513a5.048 5.048 0 015.027 5.517l-1.948 20.87h-18.887l-1.735-20.923a5.048 5.048 0 015.03-5.464z" fill="#002245"/><g data-name="グループ 852" clip-path="url(#a)" transform="translate(116.435 7008.727)"><g data-name="グループ 851"><path data-name="長方形 439" fill="#230603" d="M10.981-1.687h.647v31.001h-.647z"/></g></g></g><g data-name="グループ 1633"><path data-name="パス 192" d="M126.907 7009.982h1.983l1.367 16.96-1.988 2.905a.461.461 0 01-.763 0l-1.967-2.9z" fill="#f9c273"/></g><g data-name="グループ 1634"><path data-name="パス 193" d="M125.915 7010.899a2.058 2.058 0 102.058-2.057 2.057 2.057 0 00-2.058 2.057z" fill="#34be8e"/></g><g data-name="グループ 1635"><path data-name="パス 194" d="M127.937 7008.839s3.014 4.617 3.834 4.8 1.915-4.741 1.915-4.741z" fill="#230603"/></g><g data-name="グループ 1636"><path data-name="パス 195" d="M128.008 7008.839s-3.014 4.617-3.834 4.8-1.915-4.741-1.915-4.741z" fill="#230603"/></g><g data-name="グループ 1637"><path data-name="パス 196" d="M124.754 6996.04c-2.3 2.026-3.946 6.782-1.921 9.084s6.952 1.275 9.254-.749a5.551 5.551 0 00-7.333-8.334z" fill="#f4ae87"/><g data-name="グループ 860" clip-path="url(#b)" transform="translate(121.918 6994.657)"><g data-name="グループ 859"><g data-name="グループ 858"><path data-name="パス 197" d="M6.289 15.439s2.666-5.491 3.348-7.062S7.95 6.46 7.95 6.46-1.45-4.26-.59-5.497 12.339-.56 13.167.656s2.375 9.326 1.529 10.435-7.2 1.478-7.2 1.478z" fill="#fb5d51"/></g></g></g></g><g data-name="グループ 1638"><path data-name="パス 50" d="M117.884 7077.725l.042 2.986-9.971.145s-.721-2.08 2.729-2.727 5.028-.969 5.028-.969z" fill="#fb5d51"/></g><g data-name="グループ 1639"><path data-name="パス 50" d="M137.516 7077.725l-.042 2.986 9.971.145s.721-2.08-2.729-2.727-5.028-.969-5.028-.969z" fill="#fb5d51"/></g><path data-name="線 121" fill="none" stroke="#f3ba18" stroke-width="2" d="M127.5 6974.501v11"/><path data-name="線 122" fill="none" stroke="#f3ba18" stroke-width="2" d="M112.5 6977.501l8 8"/><path data-name="線 123" fill="none" stroke="#f3ba18" stroke-width="2" d="M142.5 6977.501l-8 8"/></g><g data-name="グループ 1715"><g data-name="グループ 925"><path data-name="長方形 448" fill="#f4ae87" d="M49.052 7004.336h5.996v6.268h-5.996z"/></g><g data-name="グループ 926"><path data-name="パス 240" d="M61.239 7077.949v3.164h10.638s.738-2.215-2.952-2.847-5.377-.949-5.377-.949z" fill="#014596"/></g><g data-name="グループ 927"><path data-name="パス 241" d="M42.685 7077.949v3.164H32.047s-.738-2.215 2.951-2.847 5.377-.949 5.377-.949z" fill="#014596"/></g><g data-name="グループ 928"><path data-name="パス 242" d="M71.95 6984.343s-1.141-3.581 1.437-4.03 2.89 4.076 2.89 4.076z" fill="#f4ae87"/></g><g data-name="グループ 930"><g data-name="グループ 929"><path data-name="パス 243" d="M42.435 7035.454h18.8l5.722 19.621v22.9h-5.722a69.485 69.485 0 01-2.33-15.125c-.064-1.867.285-6.959.285-6.959l-6.178-12.76a1.293 1.293 0 00-1.162-.727h-.017a1.291 1.291 0 00-1.162.727l-6.188 12.762a49.265 49.265 0 01.667 7.777c0 6.541-2.711 14.308-2.711 14.308h-5.727v-22.9z" fill="#34be8e"/></g></g><g data-name="グループ 931"><path data-name="パス 244" d="M45.704 7009.167h12.467a5.029 5.029 0 015.008 5.5l-1.939 20.793H42.424l-1.728-20.845a5.029 5.029 0 015.008-5.448z" fill="#002245"/></g><g data-name="グループ 932"><path data-name="パス 245" d="M61.273 7021.151c-3.9-3.7-8.472-4.114-3.656-10.333 4.047-5.227 10.231-9.4 10.96-10.962s2.867-15.345 2.867-15.345l4.834-.122-.875 15.947a6.379 6.379 0 01-.765 2.447l-7.551 10.174z" fill="#002245"/></g><g data-name="グループ 933"><path data-name="長方形 449" fill="#00003a" d="M70.282 6983.304l6.677-.134.054 2.725-6.677.134z"/></g><g data-name="グループ 934"><path data-name="パス 246" d="M32.063 7046.963s1.141 3.581-1.438 4.03-2.892-4.078-2.892-4.078z" fill="#f4ae87"/></g><g data-name="グループ 935"><path data-name="パス 247" d="M42.74 7010.15c3.9 3.7 8.472 4.114 3.656 10.333-4.047 5.227-10.232 9.4-10.96 10.96s-2.867 15.345-2.867 15.345l-4.835.122.874-15.946a6.36 6.36 0 01.766-2.447l7.552-10.174z" fill="#002245"/></g><g data-name="グループ 936"><path data-name="長方形 450" fill="#00003a" d="M27 7045.406l6.676-.133.054 2.725-6.676.132z"/></g><g data-name="グループ 939"><path data-name="パス 248" d="M45.704 7009.167h12.467a5.029 5.029 0 015.008 5.5l-1.939 20.793H42.424l-1.728-20.845a5.029 5.029 0 015.008-5.448z" fill="#002245"/><g data-name="グループ 938" clip-path="url(#c)" transform="translate(40.674 7009.163)"><g data-name="グループ 937"><path data-name="長方形 451" fill="#00003a" d="M10.808-1.681h.91v30.887h-.91z"/></g></g></g><g data-name="グループ 941"><g data-name="グループ 940"><path data-name="パス 250" d="M51.074 7010.389h1.975l1.362 16.9-1.981 2.894a.46.46 0 01-.76 0l-1.96-2.892z" fill="#2962ff"/></g></g><g data-name="グループ 942"><path data-name="パス 251" d="M50.086 7011.201a2.05 2.05 0 102.049-2.049 2.049 2.049 0 00-2.049 2.049z" fill="#34be8e"/></g><g data-name="グループ 943"><path data-name="パス 252" d="M52.135 7009.152s3 4.6 3.822 4.781 1.907-4.724 1.907-4.724z" fill="#00003a"/></g><g data-name="グループ 944"><path data-name="パス 253" d="M52.14 7009.152s-3 4.6-3.82 4.781-1.909-4.724-1.909-4.724z" fill="#00003a"/></g><g data-name="グループ 945"><path data-name="パス 254" d="M54.445 6995.548c2.306 2 3.979 6.729 1.977 9.036s-6.918 1.318-9.225-.683a5.53 5.53 0 017.249-8.354z" fill="#f4ae87"/></g><g data-name="グループ 948"><path data-name="パス 255" d="M54.445 6995.548c2.306 2 3.979 6.729 1.977 9.036s-6.918 1.318-9.225-.683a5.53 5.53 0 017.249-8.354z" fill="#f4ae87"/><g data-name="グループ 947" clip-path="url(#d)" transform="translate(45.291 6994.194)"><g data-name="グループ 946"><path data-name="パス 256" d="M6.8 13.883S3.113 9.926 2.424 8.365s1.667-1.921 1.667-1.921l-.616-2.338s.948-2.063.089-3.291S-.33-.52-1.146.697s-2.3 9.309-1.453 10.407 7.185 1.424 7.185 1.424z" fill="#f3ba18"/></g></g></g><g data-name="グループ 949"><path data-name="パス 258" d="M49.995 7000.18l4.322-4.981c.748-.862.8-5.181-2.776-4.928s-6.209 6.861-6.081 8.65 3.372 2.601 4.535 1.259z" fill="#f3ba18"/></g></g><path data-name="線 121" fill="none" stroke="#f3ba18" stroke-width="2" d="M58.5 6974.5v11"/><path data-name="線 122" fill="none" stroke="#f3ba18" stroke-width="2" d="M43.5 6977.5l8 8"/><path data-name="線 123" fill="none" stroke="#f3ba18" stroke-width="2" d="M73.5 6977.5l-8 8"/></g><path data-name="パス 1164" d="M57.2 7105.674a7.684 7.684 0 001.806 1.582 5.971 5.971 0 01.77-1.372 8.255 8.255 0 01-2.226-1.778 11.5 11.5 0 001.4-2.394 3.892 3.892 0 01.308-.588l-.672-.724a5.1 5.1 0 01-.812.042H57.2v-1.152a5.967 5.967 0 01.084-1.09H55.59a6.428 6.428 0 01.084 1.064v1.176h-.7a8.548 8.548 0 01-1.106-.058v1.554a9.586 9.586 0 011.176-.056h2.282a8.318 8.318 0 01-1.526 2.156 9.656 9.656 0 01-2.408 1.89 5.424 5.424 0 01.714 1.456 9.435 9.435 0 001.554-1.19v3.514a8.375 8.375 0 01-.084 1.456h1.694a9.941 9.941 0 01-.07-1.428zm5.936-2.074h1.484c.49 0 .924.028 1.372.07v-1.58a9.105 9.105 0 01-1.372.07h-1.484v-2.46a8.207 8.207 0 01.1-1.456h-1.752a9.909 9.909 0 01.1 1.456v2.46h-1.052a9.451 9.451 0 01-1.372-.07v1.582c.448-.042.9-.07 1.372-.07h1.05v5.474h-1.526a12.7 12.7 0 01-1.61-.084v1.694a11.29 11.29 0 011.582-.1h4.788a11.5 11.5 0 011.6.1v-1.694a12.008 12.008 0 01-1.6.084h-1.68zm8.19 5.138a10.542 10.542 0 01-3.976 1.162 4.516 4.516 0 01.85 1.388 16.627 16.627 0 002.142-.56 12.182 12.182 0 002.552-1.246l-.882-.742h3.808l-.756.686a10.532 10.532 0 004.676 1.874 4.693 4.693 0 01.868-1.37 11.1 11.1 0 01-4.032-1.19H77.7c.7 0 1.134.014 1.568.056a2.456 2.456 0 01-.042-.56c0-.056-.014-.364-.014-.91v-3.542a12.585 12.585 0 01.056-1.5c-.49.042-.882.056-1.568.056h-7.452a15.75 15.75 0 01-1.554-.056 13.853 13.853 0 01.056 1.5v3.542c0 .7-.028 1.12-.056 1.47a15.57 15.57 0 011.554-.056zm-1.078-5.238H77.7v.644h-7.452zm0 1.694H77.7v.644h-7.452zm0 1.694H77.7v.686h-7.452zm8.442-7.248a8.512 8.512 0 01.056-1.078 12.167 12.167 0 01-1.582.07h-6.356a12.4 12.4 0 01-1.6-.07 6.971 6.971 0 01.07 1.078v1.078c0 .378-.028.7-.056 1.05.42-.028.91-.042 1.54-.042h6.458c.616 0 1.092.014 1.512.042-.028-.322-.042-.63-.042-1.05zm-1.554.182v.77h-6.314v-.77zm11.956 1.2a3.06 3.06 0 011.414.42 3.468 3.468 0 011.722 3.108 3.92 3.92 0 01-1.946 3.5 7.44 7.44 0 01-2.786.77 4.466 4.466 0 01.854 1.642 9.153 9.153 0 002.2-.588 5.393 5.393 0 003.4-5.222c0-3.15-2.184-5.194-5.544-5.194a6.285 6.285 0 00-4.816 1.96 6.014 6.014 0 00-1.54 4.074c0 2.254 1.15 3.878 2.744 3.878 1.148 0 2.044-.826 2.842-2.632a20.254 20.254 0 001.456-5.712zm-1.708.014a18.451 18.451 0 01-1.162 4.732c-.5 1.2-.98 1.792-1.442 1.792-.616 0-1.106-.91-1.106-2.058a4.687 4.687 0 011.9-3.78 3.564 3.564 0 011.81-.682zm18.7 1.5a9.667 9.667 0 01-1.344 3.276 18.975 18.975 0 01-.64-4.184h2.52c.714 0 1.246.028 1.708.07v-1.54a7.8 7.8 0 01-1.484.084h-.42l.728-.5a7.834 7.834 0 00-1.414-1.47l-1.078.686a6.615 6.615 0 011.232 1.288h-1.848v-.646a11.554 11.554 0 01.07-1.33h-1.666a4.337 4.337 0 01.07.882c.028.616.028.98.042 1.092H98.5c-.728 0-1.3-.028-1.806-.07a13.853 13.853 0 01.084 1.988 26.312 26.312 0 01-.42 5.53 6.545 6.545 0 01-.966 2.208 5.139 5.139 0 011.218 1.19 7.573 7.573 0 001.148-2.73 21.634 21.634 0 00.434-3.514h2.044a15.218 15.218 0 01-.21 2.534c-.07.35-.2.434-.63.434a8.534 8.534 0 01-1.358-.114 5.24 5.24 0 01.362 1.488c.448.028.672.042 1.064.042 1.078 0 1.582-.21 1.806-.77a13.3 13.3 0 00.462-3.85c.028-.546.056-.938.084-1.19a6.117 6.117 0 01-.994.056h-2.574c.014-.5.014-.5.028-1.848h4.34a17.359 17.359 0 001.05 5.586 10.508 10.508 0 01-3.766 2.576 4.645 4.645 0 011.064 1.218 12.883 12.883 0 003.388-2.45c.812 1.316 1.918 2.254 2.632 2.254.77 0 1.26-.826 1.582-2.716a4.175 4.175 0 01-1.26-.938 8.152 8.152 0 01-.266 1.642c-.07.182-.126.266-.182.266a2.035 2.035 0 01-.63-.5 6.031 6.031 0 01-.84-1.2 15.222 15.222 0 001.89-3.5c.224-.532.224-.532.308-.742zm13.626 3.292h1.316a8.113 8.113 0 011.26.084v-1.512a8.885 8.885 0 01-1.386.084h-7.462v-.742h5.936a8.351 8.351 0 011.288.07v-1.288a9.317 9.317 0 01-1.288.07h-5.936v-.686h5.936a12.116 12.116 0 011.288.07v-1.278a9.619 9.619 0 01-1.288.07h-5.936v-.7h6.146a11.488 11.488 0 011.61.07v-1.48a9.482 9.482 0 01-1.624.084h-6.27a11.24 11.24 0 01-1.526-.07 10.9 10.9 0 01.056 1.386v4.424h-.73a9.041 9.041 0 01-1.456-.084v1.512a8.8 8.8 0 011.428-.084h.756v3.486a13.937 13.937 0 01-1.988.252l.294 1.568c.252-.07.294-.07.63-.14a40.541 40.541 0 005.474-1.344l-.014-1.4a24.379 24.379 0 01-2.814.756v-3.178h1.218a7.443 7.443 0 002.142 2.772 12.118 12.118 0 005.04 2.436 6.843 6.843 0 01.742-1.61 12.353 12.353 0 01-3.668-1.246 9.3 9.3 0 001.344-.966c.518-.462.686-.616.8-.7zm-.154 0a10.168 10.168 0 01-1.876 1.624 4.4 4.4 0 01-1.47-1.624z" fill="#373943"/><g data-name="グループ 1741"><g data-name="グループ 1716"><path data-name="長方形 2367" fill="#002245" d="M251.57 6998.827h39.094v30.95H251.57z"/><path data-name="長方形 2368" fill="#f4f4f7" d="M280.623 7004.303h4.721v7.778h-4.721z"/><path data-name="長方形 2369" fill="#f4f4f7" d="M272.918 7004.303h4.72v7.778h-4.72z"/><path data-name="長方形 2370" fill="#f4f4f7" d="M265.213 7004.303h4.721v7.778h-4.721z"/><path data-name="長方形 2371" fill="#f4f4f7" d="M257.507 7004.303h4.721v7.778h-4.721z"/><path data-name="長方形 2372" fill="#f4f4f7" d="M280.623 7020.168h4.721v9.608h-4.721z"/><path data-name="長方形 2373" fill="#f4f4f7" d="M272.918 7020.168h4.72v9.608h-4.72z"/><path data-name="長方形 2374" fill="#f4f4f7" d="M265.213 7020.168h4.721v9.608h-4.721z"/><path data-name="長方形 2375" fill="#f4f4f7" d="M257.507 7020.168h4.721v9.608h-4.721z"/></g><g data-name="グループ 1739"><g data-name="グループ 1717"><path data-name="長方形 2376" fill="#767676" d="M287.261 7026.656h.897v3.121h-.897z"/><path data-name="長方形 2377" fill="#767676" d="M284.212 7026.656h.897v3.121h-.897z"/><path data-name="長方形 2378" fill="#767676" d="M281.163 7026.656h.897v3.121h-.897z"/><path data-name="長方形 2379" fill="#767676" d="M278.114 7026.656h.897v3.121h-.897z"/><path data-name="長方形 2380" fill="#767676" d="M275.065 7026.656h.897v3.121h-.897z"/><path data-name="長方形 2381" fill="#767676" d="M272.016 7026.656h.897v3.121h-.897z"/><path data-name="長方形 2382" fill="#767676" d="M268.967 7026.656h.897v3.121h-.897z"/><path data-name="長方形 2383" fill="#767676" d="M265.918 7026.656h.897v3.121h-.897z"/><path data-name="長方形 2384" fill="#767676" d="M262.869 7026.656h.897v3.121h-.897z"/><path data-name="長方形 2385" fill="#767676" d="M259.82 7026.656h.896v3.121h-.896z"/><path data-name="長方形 2386" fill="#767676" d="M256.771 7026.656h.897v3.121h-.897z"/><path data-name="長方形 2387" fill="#767676" d="M253.722 7026.656h.898v3.121h-.898z"/><path data-name="長方形 2388" fill="#767676" d="M250.674 7026.656h.896v3.121h-.896z"/><path data-name="長方形 2389" fill="#767676" d="M247.623 7026.656h.897v3.121h-.897z"/><path data-name="長方形 2390" fill="#767676" d="M244.574 7026.656h.898v3.121h-.898z"/><path data-name="長方形 2391" fill="#767676" d="M241.526 7026.656h.897v3.121h-.897z"/><path data-name="長方形 2392" fill="#767676" d="M238.477 7026.656h.896v3.121h-.896z"/><path data-name="長方形 2393" fill="#767676" d="M235.427 7026.656h.898v3.121h-.898z"/><path data-name="長方形 2394" fill="#767676" d="M232.379 7026.656h.897v3.121h-.897z"/><path data-name="長方形 2395" fill="#767676" d="M229.33 7026.656h.898v3.121h-.898z"/><path data-name="長方形 2396" fill="#767676" d="M226.281 7026.656h.897v3.121h-.897z"/><path data-name="長方形 2397" fill="#767676" d="M223.231 7026.656h.897v3.121h-.897z"/><path data-name="長方形 2398" fill="#767676" d="M220.182 7026.656h.898v3.121h-.898z"/><path data-name="長方形 2399" fill="#767676" d="M217.133 7026.656h.898v3.121h-.898z"/><path data-name="長方形 2400" fill="#767676" d="M214.085 7026.656h.896v3.121h-.896z"/><path data-name="長方形 2401" fill="#bdbebf" d="M212.976 7025.721h77.687v1.08h-77.687z"/></g><g data-name="グループ 1738"><path data-name="パス 1082" d="M210.999 7029.777h79.664v49.627h-79.664z" fill="#448fea"/><g data-name="グループ 1735"><g data-name="グループ 1718"><path data-name="長方形 2403" fill="#448fea" d="M286.073 7036.796h4.59v7.778h-4.59z"/></g><g data-name="グループ 1719"><path data-name="長方形 2404" fill="#002245" d="M281.483 7036.796h4.59v7.778h-4.59z"/></g><g data-name="グループ 1720"><path data-name="長方形 2405" fill="#448fea" d="M276.893 7036.796h4.59v7.778h-4.59z"/></g><g data-name="グループ 1721"><path data-name="長方形 2406" fill="#002245" d="M272.303 7036.796h4.59v7.778h-4.59z"/></g><g data-name="グループ 1722"><path data-name="長方形 2407" fill="#448fea" d="M267.713 7036.796h4.59v7.778h-4.59z"/></g><g data-name="グループ 1723"><path data-name="長方形 2408" fill="#002245" d="M263.123 7036.796h4.59v7.778h-4.59z"/></g><g data-name="グループ 1724"><path data-name="長方形 2409" fill="#448fea" d="M258.532 7036.796h4.591v7.778h-4.591z"/></g><g data-name="グループ 1725"><path data-name="長方形 2410" fill="#002245" d="M253.943 7036.796h4.589v7.778h-4.589z"/></g><g data-name="グループ 1726"><path data-name="長方形 2411" fill="#448fea" d="M249.352 7036.796h4.591v7.778h-4.591z"/></g><g data-name="グループ 1727"><path data-name="長方形 2412" fill="#002245" d="M244.763 7036.796h4.589v7.778h-4.589z"/></g><g data-name="グループ 1728"><path data-name="長方形 2413" fill="#448fea" d="M240.172 7036.796h4.591v7.778h-4.591z"/></g><g data-name="グループ 1729"><path data-name="長方形 2414" fill="#002245" d="M235.584 7036.796h4.588v7.778h-4.588z"/></g><g data-name="グループ 1730"><path data-name="長方形 2415" fill="#448fea" d="M230.993 7036.796h4.591v7.778h-4.591z"/></g><g data-name="グループ 1731"><path data-name="長方形 2416" fill="#002245" d="M226.404 7036.796h4.589v7.778h-4.589z"/></g><g data-name="グループ 1732"><path data-name="長方形 2417" fill="#448fea" d="M221.813 7036.796h4.591v7.778h-4.591z"/></g><g data-name="グループ 1733"><path data-name="長方形 2418" fill="#002245" d="M217.224 7036.796h4.589v7.778h-4.589z"/></g><g data-name="グループ 1734"><path data-name="長方形 2419" fill="#448fea" d="M212.633 7036.796h4.591v7.778h-4.591z"/></g></g><g data-name="グループ 1736"><path data-name="長方形 2420" fill="#448fea" d="M266.501 7065.225h6.04v14.179h-6.04z"/><path data-name="長方形 2421" fill="#002245" d="M272.541 7065.225h6.039v14.179h-6.039z"/><path data-name="長方形 2422" fill="#002245" d="M260.46 7065.225h6.041v14.179h-6.041z"/><path data-name="長方形 2423" fill="#448fea" d="M278.58 7065.225h6.041v14.179h-6.041z"/><path data-name="長方形 2424" fill="#002245" d="M284.622 7065.225h6.041v14.179h-6.041z"/></g><g data-name="グループ 1737"><path data-name="長方形 2425" fill="#002245" d="M223.08 7065.225h6.041v14.179h-6.041z"/><path data-name="長方形 2426" fill="#448fea" d="M229.12 7065.225h6.038v14.179h-6.038z"/><path data-name="長方形 2427" fill="#002245" d="M210.999 7065.225h6.039v14.179h-6.039z"/><path data-name="長方形 2428" fill="#448fea" d="M217.038 7065.225h6.041v14.179h-6.041z"/><path data-name="長方形 2429" fill="#002245" d="M235.159 7065.225h6.042v14.179h-6.042z"/></g></g></g><g data-name="グループ 1740" fill="#f3ba18"><path data-name="長方形 2430" d="M290.664 6980H336v99.403h-45.336z"/><path data-name="長方形 2431" d="M324.607 7036.796h4.677v7.778h-4.677z"/><path data-name="長方形 2432" d="M324.607 7020.93h4.677v7.777h-4.677z"/><path data-name="長方形 2433" d="M324.607 7005.064h4.677v7.777h-4.677z"/><path data-name="長方形 2434" d="M324.607 7052.661h4.677v7.778h-4.677z"/><path data-name="長方形 2435" d="M324.607 6989.199h4.677v7.777h-4.677z"/><path data-name="長方形 2436" d="M310.993 7036.796h4.677v7.778h-4.677z"/><path data-name="長方形 2437" d="M310.993 7020.93h4.677v7.777h-4.677z"/><path data-name="長方形 2438" d="M310.993 7005.064h4.677v7.777h-4.677z"/><path data-name="長方形 2439" d="M310.993 7052.661h4.677v7.778h-4.677z"/><path data-name="長方形 2440" d="M310.993 6989.199h4.677v7.777h-4.677z"/><path data-name="長方形 2441" d="M297.379 7036.796h4.677v7.778h-4.677z"/><path data-name="長方形 2442" d="M297.379 7020.93h4.677v7.777h-4.677z"/><path data-name="長方形 2443" d="M297.379 7005.064h4.677v7.777h-4.677z"/><path data-name="長方形 2444" d="M297.379 7052.661h4.677v7.778h-4.677z"/><path data-name="長方形 2445" d="M297.379 6989.199h4.677v7.777h-4.677z"/></g></g><path data-name="パス 1165" d="M246.12 7106.332h2.324a14.729 14.729 0 011.526.07v-1.624a14.236 14.236 0 01-1.54.07h-2.31v-1.386a10.648 10.648 0 01.08-1.512h-1.718a11.75 11.75 0 01.084 1.55v5.716h-2.044v-3.374a9.683 9.683 0 01.1-1.582H240.9a13.411 13.411 0 01.084 1.6v3.36h-.618a9.709 9.709 0 01-1.666-.102v1.682a11.95 11.95 0 011.792-.1h9.114a11.9 11.9 0 011.764.1v-1.682a11.537 11.537 0 01-1.764.1h-3.486zm-1.932-7.966a10.179 10.179 0 01-2.282 2.548 14.9 14.9 0 01-3.444 2.114 5.273 5.273 0 01.784 1.5 17.454 17.454 0 003.486-2.3 12.712 12.712 0 002.31-2.45 12.531 12.531 0 002.45 2.506 16.7 16.7 0 003.458 2.116 6.068 6.068 0 01.77-1.54 14.767 14.767 0 01-3.528-2 9.742 9.742 0 01-2.392-2.494zm13.972 5.474v.672h-2.772a9.941 9.941 0 01-1.428-.07v1.258a10.061 10.061 0 011.428-.07h2.772v.7h-3.71a13 13 0 01-1.68-.084v1.4a15.389 15.389 0 011.694-.084h2.6a10.064 10.064 0 01-4.574 1.99 5.73 5.73 0 01.854 1.348 13.545 13.545 0 002.856-1.18 7.786 7.786 0 002.016-1.54 9.426 9.426 0 00-.042.952v.668a10.449 10.449 0 01-.084 1.428h1.652a7.965 7.965 0 01-.1-1.414v-.682a9.583 9.583 0 00-.042-.994 10.924 10.924 0 005.2 2.772 5.544 5.544 0 01.8-1.428 12.016 12.016 0 01-2.912-.8 7.268 7.268 0 01-1.9-1.12h2.814a15.124 15.124 0 011.68.084v-1.4a12.366 12.366 0 01-1.694.084h-3.916v-.7h2.928a10.277 10.277 0 011.442.07v-1.26a10.156 10.156 0 01-1.442.07h-2.928v-.67h3.654a10.277 10.277 0 011.442.07v-1.33a12.875 12.875 0 01-1.442.056H261.7c.2-.35.252-.476.518-1.036h1.4c.686 0 1.232.028 1.666.07v-1.4a11.352 11.352 0 01-1.582.084h-.392c.308-.434.532-.784.868-1.344l-1.442-.532a7.47 7.47 0 01-1.006 1.876h-.882v-.994a7.351 7.351 0 01.07-1.092h-1.526a9.971 9.971 0 01.042 1.036v1.05h-.994v-1.054a9.428 9.428 0 01.042-1.036h-1.526a7.786 7.786 0 01.07 1.092v.994h-.8a9.9 9.9 0 00-1.076-1.83l-1.4.532a5.918 5.918 0 01.952 1.3h-.448a11.864 11.864 0 01-1.6-.084v1.4c.448-.042.98-.07 1.666-.07h1.512c.154.266.308.588.518 1.036h-1.69a12.716 12.716 0 01-1.442-.056v1.33a10.4 10.4 0 011.442-.07zm-.322-1.2a8.936 8.936 0 00-.42-1.036h3.192a8.165 8.165 0 01-.462 1.036zm16.254-1.61a3.06 3.06 0 011.414.42 3.468 3.468 0 011.722 3.108 3.92 3.92 0 01-1.946 3.5 7.44 7.44 0 01-2.786.77 4.466 4.466 0 01.854 1.634 9.153 9.153 0 002.2-.588 5.393 5.393 0 003.4-5.222c0-3.15-2.184-5.194-5.544-5.194a6.285 6.285 0 00-4.816 1.96 6.014 6.014 0 00-1.54 4.074c0 2.254 1.15 3.878 2.744 3.878 1.148 0 2.044-.826 2.842-2.632a20.254 20.254 0 001.456-5.712zm-1.708.014a18.451 18.451 0 01-1.162 4.732c-.5 1.2-.98 1.792-1.442 1.792-.616 0-1.106-.91-1.106-2.058a4.687 4.687 0 011.9-3.78 3.564 3.564 0 011.81-.69zm18.7 1.5a9.667 9.667 0 01-1.344 3.276 18.975 18.975 0 01-.64-4.192h2.52c.714 0 1.246.028 1.708.07v-1.54a7.8 7.8 0 01-1.484.084h-.42l.728-.5a7.834 7.834 0 00-1.414-1.47l-1.078.686a6.615 6.615 0 011.232 1.288h-1.848v-.646a11.554 11.554 0 01.07-1.33h-1.666a4.337 4.337 0 01.07.882c.028.616.028.98.042 1.092h-4.06c-.728 0-1.3-.028-1.806-.07a13.853 13.853 0 01.084 1.988 26.312 26.312 0 01-.42 5.53 6.545 6.545 0 01-.966 2.208 5.139 5.139 0 011.218 1.19 7.573 7.573 0 001.148-2.73 21.634 21.634 0 00.434-3.514h2.044a15.218 15.218 0 01-.21 2.534c-.07.35-.2.434-.63.434a8.534 8.534 0 01-1.358-.114 5.24 5.24 0 01.362 1.488c.448.028.672.042 1.064.042 1.078 0 1.582-.21 1.806-.77a13.3 13.3 0 00.462-3.85c.028-.546.056-.938.084-1.19a6.117 6.117 0 01-.994.056h-2.574c.014-.5.014-.5.028-1.848h4.34a17.359 17.359 0 001.05 5.586 10.508 10.508 0 01-3.766 2.576 4.645 4.645 0 011.064 1.218 12.883 12.883 0 003.388-2.45c.812 1.316 1.918 2.254 2.632 2.254.77 0 1.26-.826 1.582-2.716a4.175 4.175 0 01-1.26-.938 8.152 8.152 0 01-.266 1.642c-.07.182-.126.266-.182.266a2.035 2.035 0 01-.63-.5 6.031 6.031 0 01-.84-1.2 15.222 15.222 0 001.89-3.5c.224-.532.224-.532.308-.742zm13.626 3.284h1.316a8.113 8.113 0 011.26.084v-1.512a8.885 8.885 0 01-1.386.084h-7.462v-.742h5.936a8.351 8.351 0 011.288.07v-1.288a9.317 9.317 0 01-1.288.07h-5.936v-.686h5.936a12.116 12.116 0 011.288.07v-1.278a9.619 9.619 0 01-1.288.07h-5.936v-.7h6.146a11.488 11.488 0 011.61.07v-1.48a9.482 9.482 0 01-1.624.084h-6.27a11.24 11.24 0 01-1.526-.07 10.9 10.9 0 01.056 1.386v4.424h-.73a9.041 9.041 0 01-1.456-.084v1.512a8.8 8.8 0 011.428-.084h.756v3.486a13.937 13.937 0 01-1.988.252l.294 1.568c.252-.07.294-.07.63-.14a40.541 40.541 0 005.474-1.344l-.014-1.4a24.379 24.379 0 01-2.814.756v-3.178h1.218a7.443 7.443 0 002.142 2.772 12.118 12.118 0 005.04 2.436 6.843 6.843 0 01.742-1.61 12.353 12.353 0 01-3.668-1.246 9.3 9.3 0 001.344-.966c.518-.462.686-.616.8-.7zm-.154 0a10.168 10.168 0 01-1.876 1.624 4.4 4.4 0 01-1.47-1.624z" fill="#373943"/><path data-name="線 124" fill="none" stroke="#f3ba18" stroke-width="2" d="M313.5 6958.5v11"/><path data-name="線 125" fill="none" stroke="#f3ba18" stroke-width="2" d="M298.5 6961.5l8 8"/><path data-name="線 126" fill="none" stroke="#f3ba18" stroke-width="2" d="M328.5 6961.5l-8 8"/></g><path data-name="パス 1153" d="M109.986 6405.518a16.893 16.893 0 01-2.128.1H99.57a18.054 18.054 0 01-2.142-.1v1.848c.63-.056 1.358-.1 2.142-.1h8.288a19.088 19.088 0 012.128.1zm6.776-5.1a9.156 9.156 0 01.056 1.176c0 3.36-.756 5.656-2.562 7.728a9.332 9.332 0 01-3.056 2.342 4.188 4.188 0 011.1 1.442 11.808 11.808 0 002.166-1.606 9.747 9.747 0 002.156-2.688 10.018 10.018 0 001.092-2.832 11.068 11.068 0 001.862 3.82 13.628 13.628 0 003.556 3.3 5.209 5.209 0 011.092-1.548 9.323 9.323 0 01-2.17-1.512 9.384 9.384 0 01-2.212-2.66 10.05 10.05 0 01-1.372-5.516 9.262 9.262 0 01.1-1.442zm9.352 2.688a2.612 2.612 0 01.42-.042 14.265 14.265 0 002.268-.28c.224-.042.224-.042.392-.07a2.054 2.054 0 00-.154.14c-.182.168-.182.168-.238.224a8.913 8.913 0 00-1.414 1.806 6.9 6.9 0 00-.966 3.36 4.224 4.224 0 001.736 3.57 4.522 4.522 0 002.408.658c2.646 0 4.55-2.142 4.55-5.138a8.912 8.912 0 00-.294-2.464c.42.672.644 1.036.7 1.12a10.314 10.314 0 001.54 1.764 4.027 4.027 0 01.322.294l.868-1.652a9.053 9.053 0 01-2.534-2.646 10.312 10.312 0 01-1.2-2.534l-1.68.5a11.523 11.523 0 01.752 4.264 7.444 7.444 0 01-.518 3.038 2.725 2.725 0 01-2.562 1.736 2.339 2.339 0 01-2.394-2.534 6.559 6.559 0 011.806-4.144 6.9 6.9 0 011.722-1.512l-.882-1.512a14.051 14.051 0 01-3.976.448 5.225 5.225 0 01-.7-.042zm16.758-2.324a5.95 5.95 0 01.224.91 35.672 35.672 0 00.938 3.794 8.641 8.641 0 00-1.9 1.2 3.288 3.288 0 00-1.25 2.514 2.65 2.65 0 001.216 2.338 7.84 7.84 0 004.06.77 29.586 29.586 0 003.278-.208 8.727 8.727 0 011.134-.1l-.154-1.918a15.327 15.327 0 01-4.522.574c-2.254 0-3.206-.434-3.206-1.456s1.022-1.9 3.066-2.66a34.207 34.207 0 014.62-1.34l-.6-1.764a3.832 3.832 0 01-.532.21c-2.716.9-2.716.9-3.626 1.232a23.513 23.513 0 01-.924-4.382zm13.02-.322a3.29 3.29 0 01-.042.476l-.21 1.736c-.112.966-.2 2.52-.2 3.654 0 .28.028 1.316.042 1.722v.266a1.089 1.089 0 01-.014.182l1.68-.028v-.294a6.712 6.712 0 011.764-4.522 2.084 2.084 0 011.512-.742c1.2 0 1.876 1.12 1.876 3.136 0 2.128-.742 3.458-2.366 4.284a8.172 8.172 0 01-3.066.8 5.355 5.355 0 01.832 1.654 11.94 11.94 0 002.742-.784 5.884 5.884 0 003.612-5.754 5.863 5.863 0 00-1.008-3.724 2.932 2.932 0 00-2.394-1.26 3.342 3.342 0 00-2.66 1.428 5.66 5.66 0 00-.882 1.666 3.074 3.074 0 01-.084.308h-.042c.028-.336.084-.812.182-1.4a13.733 13.733 0 01.5-2.7zm20.79 3.84a13.1 13.1 0 011.918 4.55l1.6-.8a13.021 13.021 0 00-2.1-4.45zm-4.116-3.08a3.257 3.257 0 01.112-.434l-1.82-.182v.252a19.693 19.693 0 01-.364 2.828 28.754 28.754 0 01-2.982.294l.168 1.652a5.749 5.749 0 01.574-.14l1.274-.21c.448-.084.448-.084.658-.112a20.592 20.592 0 01-2.814 6.594l1.624.9a30.057 30.057 0 002.856-7.616c.322-.028.546-.042.84-.042 1.078 0 1.4.378 1.4 1.666a12.44 12.44 0 01-.364 3.192c-.21.686-.434.952-.84.952a5.861 5.861 0 01-2.044-.56 5.258 5.258 0 01.14 1.19c0 .14-.014.35-.028.616a6.49 6.49 0 002.156.42 1.773 1.773 0 001.554-.63c.672-.77 1.078-2.688 1.078-5.1a3.4 3.4 0 00-.658-2.478 2.712 2.712 0 00-2.072-.742c-.252 0-.448.014-.868.028.042-.182.042-.182.084-.42.14-.756.238-1.33.308-1.736zm3.248.1a9.449 9.449 0 011.47 2.08l.98-.518a9.073 9.073 0 00-1.47-2.058zm4.116.658a8.1 8.1 0 00-1.456-1.978l-.938.49a10.315 10.315 0 011.428 2.03zm13.832 9.028c-1.694-1.638-1.694-1.638-2.044-1.946a21.7 21.7 0 00-2.59-2.03 18.541 18.541 0 002.184-3.864 2.693 2.693 0 01.448-.756l-.924-.952a3.033 3.033 0 01-1.246.154l-4.928.07h-.336a6.127 6.127 0 01-1.232-.082l.056 1.79a11.033 11.033 0 011.526-.112c4.41-.07 4.41-.07 4.634-.084l-.154.364a13.494 13.494 0 01-4.7 5.7 11.558 11.558 0 01-2.8 1.54 5.616 5.616 0 011.13 1.552 16.637 16.637 0 005.334-4.05 26.913 26.913 0 014.298 4.162zm5.964-7.686l-2.6.406a13.013 13.013 0 01-1.54.154l.276 1.72a14.933 14.933 0 011.538-.32l2.6-.406.42 2.3-3.4.546a8.615 8.615 0 01-1.484.14l.28 1.722a11.266 11.266 0 011.428-.308l3.458-.546.5 2.758a10.6 10.6 0 01.182 1.47l1.884-.34a7.908 7.908 0 01-.336-1.442l-.5-2.716 3.332-.532.56-.084a1.088 1.088 0 01.224-.028 3.358 3.358 0 01.644-.07l-.308-1.68a12.441 12.441 0 01-1.456.322l-3.29.518-.42-2.3 2.954-.462a11.886 11.886 0 011.344-.182l-.294-1.68a7.211 7.211 0 01-1.344.308l-2.954.462-.224-1.214a9.631 9.631 0 01-.168-1.316l-1.848.294a6.032 6.032 0 01.336 1.316zm11.4-2.268a7.036 7.036 0 01.056 1.274c0 3.92-.322 5.726-1.33 7.336a5.752 5.752 0 01-1.442 1.61 4.983 4.983 0 011.41 1.358 8.915 8.915 0 001.932-2.59 13.109 13.109 0 001.134-5.754 29.257 29.257 0 01.14-3.136zm3.71-.1a6.059 6.059 0 01.056.924v.42l-.07 7.9a6.274 6.274 0 01-.126 1.484l.9.952a6.092 6.092 0 01.6-.252 9.246 9.246 0 002.976-1.68 8.688 8.688 0 002.228-3.264 5.868 5.868 0 01-1.318-1.316 6.841 6.841 0 01-1.372 2.562 5.628 5.628 0 01-2.142 1.6l.07-7.966a7.586 7.586 0 01.1-1.33zm18.634.336a3.854 3.854 0 01-1.358.126H224.8a11.161 11.161 0 01-1.932-.112v1.75a13.457 13.457 0 011.9-.084h7.35a5.806 5.806 0 01-1.33 1.778 6.492 6.492 0 01-2.044 1.288 4.732 4.732 0 011.26 1.274 8.757 8.757 0 001.68-1.162 8.885 8.885 0 002.156-2.814 3.891 3.891 0 01.56-.98zm-6.65 2.828a3.545 3.545 0 01.07.84c0 2.646-.448 3.85-1.876 4.984a6.455 6.455 0 01-2.45 1.19 4.942 4.942 0 011.106 1.6 8.09 8.09 0 003.612-2.52c.952-1.218 1.33-2.562 1.386-4.956a6.427 6.427 0 01.056-1.134zm10.724.266a14.006 14.006 0 011.274 3.388l1.582-.5a16.149 16.149 0 00-1.376-3.32zm3-.588a15.4 15.4 0 011.274 3.29l1.554-.49a13.753 13.753 0 00-1.358-3.22zm4.816-.14a6.21 6.21 0 01-.252 1.61 8.05 8.05 0 01-3.178 4.858 9.081 9.081 0 01-2.38 1.288 5.085 5.085 0 011.112 1.39 10.746 10.746 0 004.27-3.374 11.951 11.951 0 001.932-4.662 2.947 2.947 0 01.2-.714zm7.266-1.834a9.592 9.592 0 01-1.792-.1v1.82a10.086 10.086 0 011.756-.08h6.664a10.153 10.153 0 01-7.308 7.532 5.152 5.152 0 011.232 1.666 12.556 12.556 0 008.036-9.282 1.913 1.913 0 00.266.028 1.625 1.625 0 001.62-1.624 1.622 1.622 0 00-1.624-1.61 1.613 1.613 0 00-1.61 1.624c-.238.014-.406.028-.826.028zm8.862-.952a.911.911 0 01.924.91.923.923 0 01-.924.924.92.92 0 01-.91-.924.908.908 0 01.902-.908zm4.676-.056a6.963 6.963 0 01.056.952c0 .2 0 .49-.014.91-.084 3.514-.112 4.914-.112 5.642 0 1.876.406 2.954 1.372 3.6a4.564 4.564 0 002.45.616 5.3 5.3 0 004.2-1.778 8.624 8.624 0 001.666-3.57 6.046 6.046 0 01-1.702-1.078 9.386 9.386 0 01-.644 2.352 3.6 3.6 0 01-3.388 2.394 2.217 2.217 0 01-1.876-.728 3.891 3.891 0 01-.364-2.254c0-.994.084-3.836.14-5.138a12.8 12.8 0 01.168-1.89zm-134.3 27.43h-2.17a11.519 11.519 0 01-1.54-.084v1.6a12.435 12.435 0 011.54-.084h2.17v1.806h-1.932a7.884 7.884 0 01-1.106-.056 10.7 10.7 0 01.056 1.2v3.052c0 .546-.028 1.078-.056 1.456h1.54v-.7h4.69v.7h1.582a13.775 13.775 0 01-.07-1.442v-3.01a10.485 10.485 0 01.056-1.26 7.391 7.391 0 01-1.106.056h-2.138v-1.804h2.45a11.46 11.46 0 011.554.084v-1.6a11.546 11.546 0 01-1.568.084h-2.436v-1.84c.994-.154 2.24-.406 2.926-.588.448-.112.448-.112.686-.182l-1.022-1.4a22.162 22.162 0 01-7.532 1.232 4.27 4.27 0 01.532 1.386c1.2-.07 1.484-.1 2.884-.252zm-1.5 4.606h4.69v2.156h-4.69zm-5.446-7.462a16.017 16.017 0 012.52 1.96l.91-1.2a17.8 17.8 0 00-2.478-1.834zm-.448 3.6a14.656 14.656 0 012.618 1.778l.84-1.274a16.523 16.523 0 00-2.6-1.638zm2.268 2.73a15.218 15.218 0 01-1.708 3.514 3.121 3.121 0 01-.5.616l1.358 1.078a27.979 27.979 0 002.06-4.324zm13.944 3.192a5.07 5.07 0 01-.518.14v-3.584a10.383 10.383 0 01.056-1.2h-1.288a8.048 8.048 0 01.07 1.218v3.836a2.123 2.123 0 01-.546.084l.238 1.554a7.725 7.725 0 01.742-.252 35.184 35.184 0 003.836-1.288l-.028-1.344-1.26.448v-2.398h.364c.154 0 .252 0 .476.014a4.717 4.717 0 01.588 1.12 4.742 4.742 0 00.616-.854c-.028.252-.028.294-.042.588v.266c-.014.154-.014.28-.014.364v2.1a10.55 10.55 0 01-.084 1.54h1.47v-.532h4.742c.49 0 1.008.028 1.414.07v-1.386a7.545 7.545 0 01-1.358.07h-1.586v-.7h1.19a7.414 7.414 0 011.162.056v-1.148a6.637 6.637 0 01-1.162.056h-1.19v-.672h1.176a7.865 7.865 0 011.176.056v-1.148a6.729 6.729 0 01-1.176.056h-1.176v-.672h1.512a9.049 9.049 0 011.218.056v-1.26a6.522 6.522 0 01-1.218.07h-1.26a6.956 6.956 0 00.532-.784l-1.148-.336h1.806c.532 0 .756.014 1.134.042-.014-.308-.028-.546-.028-1.162v-2.17a10.881 10.881 0 01.042-1.12 9.908 9.908 0 01-1.092.042h-1.512a7.6 7.6 0 01-1.12-.056v1.218c.308-.028.574-.042.98-.042h1.414v.588h-1.148a8.051 8.051 0 01-1.092-.052v1.078a12.49 12.49 0 011.092-.042h1.148v.616h-1.414a8.089 8.089 0 01-.994-.042v1.148c.224-.028.35-.028.6-.042a4.29 4.29 0 01-.63 1.12h-1.708a5.744 5.744 0 00.42-.77l-1.148-.35h1.022c.5 0 .714 0 1.064.028a9.444 9.444 0 01-.028-1.134v-2.188a9.876 9.876 0 01.028-1.12 9.441 9.441 0 01-1.078.042h-1.414a7.419 7.419 0 01-1.092-.056v1.218a9.325 9.325 0 01.952-.042h1.316v.588h-1.05a7.451 7.451 0 01-1.076-.052v1.078c.308-.028.63-.042 1.078-.042h1.05v.616h-1.316a8.136 8.136 0 01-.98-.042v1.148a9.723 9.723 0 01.98-.042h.364a7.041 7.041 0 01-1.54 2.408v-.784a4.4 4.4 0 01-.882.056h-.378v-1.572h.126a7.813 7.813 0 01.938.042c-.014-.182-.014-.182-.028-1.246v-2c0-.6.014-1.05.042-1.414a7.732 7.732 0 01-1.274.07h-1.6a7.558 7.558 0 01-1.19-.07 11.478 11.478 0 01.056 1.386v1.89a12.727 12.727 0 01-.056 1.386c.392-.028.658-.042 1.036-.042h.644zm4.676-2.87v-.672h1.862v.672zm0 1.036h1.862v.672h-1.87zm0 1.708h1.862v.7h-1.87zm-4.992-8.782h1.372v1.95h-1.372zm12.768 2.058a17.571 17.571 0 012.324-.28c2.716-.2 3.584-.28 4.718-.448a6.191 6.191 0 00-1.946 1.414 4.875 4.875 0 00-1.33 3.29 3.746 3.746 0 002 3.374 8.423 8.423 0 003.276.924c.266.042.294.042.476.084l.252-1.9c-.14.014-.266.014-.28.014a8.5 8.5 0 01-2.086-.364 2.351 2.351 0 01-1.862-2.282c0-1.414 1.05-2.814 2.828-3.738a6.261 6.261 0 012.772-.756 2.168 2.168 0 01.294.014l-.1-1.778a7.543 7.543 0 01-1.442.112 1290.9 1290.9 0 00-7.154.364c-2.058.14-2.058.14-2.31.14-.07 0-.224 0-.532-.014zm8.568 1.344a9.449 9.449 0 011.47 2.086l.98-.518a9.073 9.073 0 00-1.47-2.058zm4.116.658a8.1 8.1 0 00-1.456-1.974l-.938.49a10.315 10.315 0 011.428 2.03zm2.128-2.128c.294-.014.364-.028.952-.028a33.752 33.752 0 003.752-.2c.112.252.154.336.294.63.112.266.168.35.252.518a27.543 27.543 0 01-3.962.266 8.3 8.3 0 01-1.442-.056l.056 1.526c.238-.028.336-.028.574-.042a40.189 40.189 0 005.418-.378 8.429 8.429 0 001.078 1.568 9.648 9.648 0 00-2.418-.286 6.241 6.241 0 00-3.262.7 2.338 2.338 0 00-1.18 1.95 2.255 2.255 0 001.078 1.918 6.4 6.4 0 003.416.686 13.479 13.479 0 003.584-.476 6.924 6.924 0 01.91-.21l-.252-1.722a10.873 10.873 0 01-4.312.91 5.457 5.457 0 01-2-.308.923.923 0 01-.6-.812 1.01 1.01 0 01.6-.854 5.4 5.4 0 012.352-.392 7.529 7.529 0 013.22.574l1.232-.882a14 14 0 01-1.876-2.562c.168-.042.168-.042.518-.112s.8-.168 1.372-.308c.322-.084.616-.14.882-.182l-.14-1.526a7.071 7.071 0 01-1.33.406c-.084.014-.728.154-1.932.406a12.606 12.606 0 01-.546-1.148c.434-.056 1.988-.364 2.926-.588l.476-.1-.14-1.484a23.521 23.521 0 01-3.78.84 8.207 8.207 0 01-.574-1.694l-1.75.238c.014.028.21.462.56 1.274.112.252.112.252.154.364a24.881 24.881 0 01-2.884.154 11.745 11.745 0 01-1.344-.056zm17.57 2.254a5.5 5.5 0 00.574-.364c.28-.182 1.288-.938 1.54-1.148.476-.406 1.5-1.316 2.2-1.96a3 3 0 01.728-.574l-.868-1.232a2.063 2.063 0 01-.868.182c-1.358.1-3.066.168-4.256.168a12.662 12.662 0 01-1.652-.084l.07 1.68a4.723 4.723 0 01.672-.07c2.534-.112 3.43-.168 3.962-.238l.014.014-.252.252a46.746 46.746 0 01-4.186 3.64 12.591 12.591 0 01-1.974 1.316l.952 1.512a8.626 8.626 0 015.766-2.348c1.694 0 2.772.714 2.772 1.806 0 .994-.5 1.6-1.666 2.03a3.765 3.765 0 00-.644-1.26 3.013 3.013 0 00-2.422-1.148 2.155 2.155 0 00-2.408 2 2 2 0 00.84 1.61 4.736 4.736 0 002.716.644 6.927 6.927 0 003.388-.8 3.421 3.421 0 001.9-3.094c0-1.918-1.54-3.15-3.934-3.15a6.834 6.834 0 00-2.94.644zm2.016 4.988a3.789 3.789 0 01-.732.056c-1.036 0-1.666-.322-1.666-.882 0-.392.322-.644.826-.644.788-.004 1.32.504 1.572 1.47zm12.53-10.752a9.158 9.158 0 01.056 1.176c0 3.36-.756 5.656-2.562 7.728a9.332 9.332 0 01-3.056 2.338 4.188 4.188 0 011.1 1.442 11.808 11.808 0 002.17-1.61 9.747 9.747 0 002.156-2.688 10.018 10.018 0 001.092-2.828 11.068 11.068 0 001.858 3.82 13.628 13.628 0 003.556 3.3 5.209 5.209 0 011.092-1.554 9.323 9.323 0 01-2.17-1.512 9.384 9.384 0 01-2.212-2.66 10.049 10.049 0 01-1.372-5.516 9.262 9.262 0 01.1-1.442zm17.57 3.766a11.92 11.92 0 01-4.424 5.222 6.732 6.732 0 011.022 1.246 13.271 13.271 0 002.67-2.632 14.13 14.13 0 001.316-2.086l.028 5.222c0 .294-.126.35-.77.35a8.535 8.535 0 01-1.54-.14 5.172 5.172 0 01.366 1.53c.49.042.952.056 1.414.056a3.753 3.753 0 001.486-.186c.406-.2.574-.588.574-1.344l-.042-7.238h.406a9.137 9.137 0 011.386.084v-1.54a8.763 8.763 0 01-1.386.084h-.42v-.868a15.055 15.055 0 01.07-1.68h-1.694a11.934 11.934 0 01.1 1.68v.868h-2.018a14.038 14.038 0 01-1.512-.07v1.512a13.372 13.372 0 011.5-.07zm-4.41-.028a9.092 9.092 0 011.078.07v-1.512a8.77 8.77 0 01-1.092.07h-.756v-1.188a8.934 8.934 0 01.084-1.372h-1.624a9.73 9.73 0 01.088 1.372v1.19h-.812a8.612 8.612 0 01-1.33-.07v1.526a8.569 8.569 0 011.274-.084h.7a14.774 14.774 0 01-.672 1.722 10.884 10.884 0 01-1.694 2.744 5.85 5.85 0 01.784 1.6 11.6 11.6 0 001.848-3.654 11.5 11.5 0 00-.084 1.442c0 .238 0 .238-.014.77v2.772a12.937 12.937 0 01-.084 1.624h1.624a13.094 13.094 0 01-.084-1.624v-3.212a19.372 19.372 0 00-.1-2.324 8.084 8.084 0 001.316 1.932 5.918 5.918 0 01.77-1.3 7.158 7.158 0 01-1.918-2.492zm12.478 8.176c-.014-.182-.014-.294-.014-.378a11.493 11.493 0 011.246-4.242l-1.12-.5a14.278 14.278 0 00-.728 1.848c.014-.35.028-.462.028-.77a23.375 23.375 0 01.21-3.094 19.3 19.3 0 01.878-4.19l-1.848-.2a9.16 9.16 0 01-.21 1.3 26.877 26.877 0 00-.574 5.474 24.42 24.42 0 00.364 4.186c.042.322.056.406.07.658zm1.932-8.386a16.619 16.619 0 002.52.154 25.077 25.077 0 003-.168c.672-.084.882-.112.994-.126l-.084-1.694a15.438 15.438 0 01-3.808.378 10.094 10.094 0 01-2.59-.224zm.966 2.31a4.573 4.573 0 00-1.288 2.884 2.345 2.345 0 00.42 1.372c.616.826 1.736 1.218 3.472 1.218a17.264 17.264 0 002.9-.266 4.679 4.679 0 01.574-.084l-.14-1.778a9.839 9.839 0 01-3.332.532c-1.456 0-2.226-.42-2.226-1.218a3.167 3.167 0 01.994-2.016zm15.232 2.926a5 5 0 01-.03-.586c0-.2 0-.2.028-1.008l.2-4.76c.028-.6.084-1.33.126-1.708h-2.3c.056.392.1 1.092.126 1.708l.2 4.76c.042.84.042.84.042.994s-.014.308-.028.6zm.2 3.066v-1.918H242v1.918z" fill="#373943"/><g transform="translate(128.005 6581)"><g data-name="グループ 1745" fill="#0071bc"><path data-name="パス 1083" d="M53.329 50.667h9.333v2.667h-9.333z"/><path data-name="パス 1084" d="M53.329 56h9.333v2.667h-9.333z"/><path data-name="パス 1085" d="M53.329 61.333h9.333V64h-9.333z"/><path data-name="パス 1086" d="M75.995 50.667h5.333v2.667h-5.333z"/><path data-name="パス 1087" d="M75.995 56h5.333v2.667h-5.333z"/><path data-name="パス 1088" d="M75.995 61.333h5.333V64h-5.333z"/><path data-name="パス 1089" d="M62.662 44h2.667v6.667h-2.667z"/><path data-name="パス 1090" d="M67.995 44h2.667v6.667h-2.667z"/><path data-name="パス 1091" d="M73.329 44h2.667v6.667h-2.667z"/><path data-name="パス 1092" d="M62.662 64h2.667v6.667h-2.667z"/><path data-name="パス 1093" d="M67.995 64h2.667v6.667h-2.667z"/><path data-name="パス 1094" d="M73.329 64h2.667v6.667h-2.667z"/></g><path data-name="パス 1095" d="M71.996 29.334H54.663v-2.667h16.781l6.276-6.276 1.885 1.885-6.666 6.671a1.333 1.333 0 01-.943.387z" fill="#6cbbc7"/><rect data-name="長方形 2449" width="5.333" height="5.333" rx="2.667" transform="translate(77.329 17.333)" fill="#fb5d51"/><path data-name="パス 1096" d="M72.386 91.608l-3.609-3.609H54.662v-2.667h14.666a1.333 1.333 0 01.942.39l4 4z" fill="#6cbbc7"/><rect data-name="長方形 2450" width="5.333" height="5.333" rx="2.667" transform="translate(71.996 89.332)" fill="#fb5d51"/><path data-name="パス 1097" d="M87.996 86.665h-2.667v-6.667H55.996v-2.666h30.666a1.333 1.333 0 011.334 1.333z" fill="#6cbbc7"/><rect data-name="長方形 2451" width="5.333" height="5.333" rx="2.667" transform="translate(83.995 85.332)" fill="#fb5d51"/><path data-name="パス 1098" d="M82.662 37.333H55.996v-2.667H82.11l4.943-4.943 1.885 1.885-5.333 5.333a1.333 1.333 0 01-.943.392z" fill="#6cbbc7"/><rect data-name="長方形 2452" width="5.333" height="5.333" rx="2.667" transform="translate(86.662 26.667)" fill="#fb5d51"/><path data-name="パス 1099" d="M54.663 42.666h37.333v2.667H54.663z" fill="#6cbbc7"/><rect data-name="長方形 2453" width="5.333" height="5.333" rx="2.667" transform="translate(89.329 41.333)" fill="#fb5d51"/><path data-name="パス 1100" d="M54.663 69.333h38.666V72H54.663z" fill="#6cbbc7"/><rect data-name="長方形 2454" width="5.333" height="5.333" rx="2.667" transform="translate(89.329 67.999)" fill="#fb5d51"/><path data-name="パス 1101" d="M48 16a9.34 9.34 0 00-9.227 8h-.106a11.986 11.986 0 00-10.619 17.58 14.646 14.646 0 00-5.385 26.7v2.39a8.006 8.006 0 006.667 7.879V80a8.009 8.009 0 008 8h1.44a9.327 9.327 0 0018.56-1.333V25.333A9.344 9.344 0 0048 16z" fill="#fb5d51"/><path data-name="パス 1102" d="M61.329 49.333h16v16h-16z" fill="#6cbbc7"/><path data-name="パス 1103" d="M53.673 17.942a66.54 66.54 0 01-24.2 63.561 8.009 8.009 0 007.853 6.5h1.44a9.327 9.327 0 0018.56-1.333V25.333a9.314 9.314 0 00-3.653-7.391z" fill="#e0483c"/><path data-name="パス 1104" d="M39.996 73.333a6.674 6.674 0 01-6.667-6.667v-1.333h2.667v1.333a4 4 0 108 0v-1.333h2.667v1.333a6.674 6.674 0 01-6.667 6.667z" fill="#b22639"/><path data-name="パス 1105" d="M41.329 62.666h-2.666v-2.667a4 4 0 10-8 0v2.667h-2.667v-2.667a6.667 6.667 0 1113.333 0z" fill="#b22639"/><path data-name="パス 1106" d="M42.662 53.333h-1.333v-2.667h1.333a5.333 5.333 0 100-10.667h-1.333v-2.666h1.333a8 8 0 110 16z" fill="#b22639"/><path data-name="パス 1107" d="M45.329 87.999h-1.333v-2.667h1.333a4 4 0 100-8h-1.333v-2.666h1.333a6.667 6.667 0 110 13.333z" fill="#b22639"/><path data-name="パス 1108" d="M44.613 34.666a6.006 6.006 0 01-4.276-1.771l-1.284-1.282 1.887-1.885 1.286 1.286a3.381 3.381 0 104.781-4.781l-1.286-1.286 1.887-1.885 1.286 1.286a6.047 6.047 0 01-4.281 10.318z" fill="#b22639"/><path data-name="パス 1109" d="M57.33 67.999h-2.667v-2.667a6.674 6.674 0 00-6.667-6.667h-1.333v-2.666h1.333a9.344 9.344 0 019.333 9.333z" fill="#b22639"/><path data-name="パス 1110" d="M61.329 63.189v2.144h16V51.592a66.836 66.836 0 01-16 11.597z" fill="#518c95"/><path data-name="パス 1111" d="M66.662 54.666h5.333v5.333h-5.333z" fill="#0071bc"/><path data-name="パス 1112" d="M66.815 60H72v-3.714Q69.5 58.263 66.815 60z" fill="#005a97"/></g><path data-name="パス 1158" d="M138.864 6693.514v.2a10.273 10.273 0 01-.126 1.358 17.026 17.026 0 01-1.316 4.8 9.434 9.434 0 01-2 2.982 6.057 6.057 0 011.6 1.2c1.876-2.156 2.968-4.914 3.556-8.932l.042-.336.07-.406.028-.238a1.614 1.614 0 01.07-.28zm4.158.336a5.883 5.883 0 01.2 1.008 18.553 18.553 0 003.706 9.212 5.762 5.762 0 011.54-1.288 13.56 13.56 0 01-3.122-6.048 17.345 17.345 0 01-.588-3.22zm4.088-1.12a1.619 1.619 0 00-1.61 1.61 1.622 1.622 0 001.61 1.624 1.625 1.625 0 001.624-1.624 1.622 1.622 0 00-1.624-1.61zm0 .7a.911.911 0 01.924.91.923.923 0 01-.924.924.92.92 0 01-.91-.924.908.908 0 01.91-.91zm2.884 6.17a15.369 15.369 0 012.282-.07h7.434a15.369 15.369 0 012.282.07v-1.942a13.749 13.749 0 01-2.268.1h-7.462a13.749 13.749 0 01-2.268-.1zm14.686-5.47a18.027 18.027 0 011.778 4.522l1.82-.644a19.933 19.933 0 00-1.89-4.466zm8.6-.616a12.572 12.572 0 01-.7 3.164 10.572 10.572 0 01-2.282 3.976 10.77 10.77 0 01-3.898 2.674 5.234 5.234 0 011.29 1.512 12.77 12.77 0 004.032-3.052 14.425 14.425 0 003.108-6.454 6.358 6.358 0 01.378-1.372zm12 2.52c0-.154 0-.154.014-1.078l.014-.84a8.831 8.831 0 01.07-1.344h-1.938a8.812 8.812 0 01.07 1.344v.826c0 .252 0 .5-.014 1.092h-3.528a10.119 10.119 0 01-1.82-.1v1.766a14.38 14.38 0 011.792-.07h3.472a6.053 6.053 0 01-.686 2.814 6.463 6.463 0 01-3.374 2.756 4.349 4.349 0 011.274 1.514 8.429 8.429 0 003.574-3.136 7.729 7.729 0 001-3.948h2.87a14.38 14.38 0 011.792.07v-1.764a10.028 10.028 0 01-1.82.1zm8.548-1.316a10.766 10.766 0 011.61-.07h4.942a10.766 10.766 0 011.61.07V6693a7.966 7.966 0 01-1.638.1h-4.886a7.966 7.966 0 01-1.638-.1zm8.872 1.624a6.124 6.124 0 01-1.582.126h-6.66a9.937 9.937 0 01-1.82-.1v1.708a14.242 14.242 0 011.792-.07h6.818a7.284 7.284 0 01-2.254 3.276 9.092 9.092 0 01-3.894 1.85 4.878 4.878 0 011.094 1.624 12.458 12.458 0 003.668-1.9 9.9 9.9 0 003.248-4.736 6.312 6.312 0 01.392-.882zm13-3.71a11.2 11.2 0 01-2.6 2.618 20.446 20.446 0 01-7.35 3.64 5.266 5.266 0 01.938 1.6 22.683 22.683 0 005-2.268v4.924a7.874 7.874 0 01-.094 1.512h1.96a10.591 10.591 0 01-.07-1.558v-5.974a24.757 24.757 0 003.3-2.884 5.767 5.767 0 01.518-.49zm16.04 10.724a30.024 30.024 0 00-4.634-3.962 16.873 16.873 0 002.044-3.57 2.827 2.827 0 01.448-.756l-1.036-1.246a3.033 3.033 0 01-1.246.154l-4.676.07h-.34a6.127 6.127 0 01-1.232-.084l.056 1.778a11.97 11.97 0 011.526-.1l4.2-.07.126-.014a2.6 2.6 0 00.308-.014.412.412 0 00-.042.126l-.042.1-.07.154a13.31 13.31 0 01-2.912 4.214 14.026 14.026 0 01-4.588 3.024 5.232 5.232 0 011.134 1.554 16.929 16.929 0 005.336-4.046 27.606 27.606 0 014.3 4.158zM228.926 6693a9.449 9.449 0 011.474 2.082l.938-.518a9.073 9.073 0 00-1.47-2.058zm4.018.7a8.1 8.1 0 00-1.456-1.974l-.882.448a10.315 10.315 0 011.428 2.026zm-57.876 24.756a6.958 6.958 0 01-.084.812 5.417 5.417 0 01-1.834 3.192 6.606 6.606 0 01-2.17 1.288 4.969 4.969 0 011.02 1.372 8.109 8.109 0 003.556-3.08 7.449 7.449 0 001.094-3.584h2.688v.812a13.753 13.753 0 01-.438 3.724c-.126.21-.28.266-.8.266a11.509 11.509 0 01-1.694-.182 6.013 6.013 0 01.42 1.638c.938.042 1.162.056 1.442.056 1.246 0 1.75-.2 2.058-.812a19.093 19.093 0 00.588-5.852v-.476a14.276 14.276 0 001.742 1.47 6.518 6.518 0 011.064-1.512 10.857 10.857 0 01-3.878-4.06 5.233 5.233 0 01-.542-1.218l-1.554.6a5.743 5.743 0 01.294.588 14 14 0 002.31 3.514c-.336.014-.532.014-.868.014h-5.156a7.236 7.236 0 01-.726-.026 15.571 15.571 0 002.252-3.4 3.959 3.959 0 01.378-.714l-1.68-.6a4.352 4.352 0 01-.56 1.414 10.794 10.794 0 01-3.682 4.018 4.867 4.867 0 011.078 1.372 13.917 13.917 0 001.75-1.554v.994a9.728 9.728 0 011.19-.07zm16.9-1.862v-1.806a20.9 20.9 0 003.864-.728c1.092-.322 1.092-.322 1.372-.392l-1.094-1.428a15.111 15.111 0 01-5.446 1.218 2.9 2.9 0 01-.294-.014 18.324 18.324 0 01.084 2.3c0 4.858-.392 6.692-1.792 8.3a6.692 6.692 0 011.274 1.12c1.33-1.722 1.848-3.584 1.988-7.1h2v5.418a15.573 15.573 0 01-.1 1.694h1.694a14.684 14.684 0 01-.084-1.694v-5.418h.392a14.169 14.169 0 011.666.084v-1.638a13.271 13.271 0 01-1.652.084zm-2.914-.394a4.362 4.362 0 01.868.07v-1.54a4.251 4.251 0 01-.882.07h-.812v-1.258a6.741 6.741 0 01.084-1.288h-1.624a8.125 8.125 0 01.084 1.288v1.258h-.91a4.668 4.668 0 01-.994-.07v1.54a4.492 4.492 0 01.938-.07h.812a17.769 17.769 0 01-.77 1.988 11.318 11.318 0 01-1.54 2.534 4.087 4.087 0 01.952 1.26 14.238 14.238 0 001.582-3.082c-.056 1.064-.056 1.064-.056 1.918v2.842a8.983 8.983 0 01-.1 1.512h1.626a11.148 11.148 0 01-.084-1.526v-3.482c0-.868-.014-1.75-.028-2.072a11.5 11.5 0 001.05 1.778 4.593 4.593 0 01.8-1.288 7.439 7.439 0 01-1.696-2.382z" fill="#373943"/><g data-name="グループ 1823" transform="translate(-5165.5 55.5)"><rect data-name="長方形 2518" width="110.468" height="37.78" rx="4" transform="translate(5297.072 6496.568)" fill="#fb5d51"/><path data-name="パス 1168" d="M5305.164 6506.492l2.568-2.628c.528-.54.924-.924 1.272-1.272h-2.268a5.906 5.906 0 01-.936 1.164l-3.06 3.18v-2.8a8.592 8.592 0 01.108-1.548h-1.776a9.9 9.9 0 01.1 1.548v6.464a10.3 10.3 0 01-.1 1.548h1.776a8.135 8.135 0 01-.108-1.548v-1.768l1.308-1.308 2.388 3.36a11.274 11.274 0 01.756 1.26h2.22a16.3 16.3 0 01-1.2-1.524zm6.888 5.652a10.677 10.677 0 01-.1-1.56v-2.424c.528-1.188 1.236-1.788 2.1-1.788a1.129 1.129 0 011.008.492 1.971 1.971 0 01.2 1.056v2.664a12.753 12.753 0 01-.084 1.56h1.74a9.483 9.483 0 01-.1-1.56v-2.884a2.668 2.668 0 00-.408-1.68 2.371 2.371 0 00-2.04-.888 2.743 2.743 0 00-2.448 1.272 4.689 4.689 0 00.024-.516v-.636h-1.632a9.863 9.863 0 01.1 1.56v3.768a9.96 9.96 0 01-.1 1.56zm9.648.228a3.4 3.4 0 003.54-3.684 3.356 3.356 0 00-3.552-3.636 3.381 3.381 0 00-3.576 3.66 3.378 3.378 0 003.588 3.66zm-.012-6.072c1.272 0 2 .888 2 2.436 0 1.464-.768 2.364-2.016 2.364s-2.016-.912-2.016-2.388c.004-1.5.772-2.412 2.032-2.412zm11.964 5.844a8.2 8.2 0 01.3-1.14l1.332-4.26c.312-1 .336-1.092.492-1.488h-1.764a7.45 7.45 0 01-.264 1.428l-.672 2.4c-.024.084-.108.468-.144.636s-.036.168-.06.264c-.024-.108-.036-.12-.072-.276-.072-.252-.132-.48-.168-.588l-.888-2.72a11.771 11.771 0 01-.3-1.14h-1.284a8.573 8.573 0 01-.3 1.14l-.86 2.612a20.58 20.58 0 00-.276.972c-.1-.468-.168-.8-.216-.96l-.66-2.34a8.3 8.3 0 01-.264-1.428h-1.784c.168.444.336.936.5 1.488l1.328 4.256a9.786 9.786 0 01.312 1.144h1.392a11.555 11.555 0 01.312-1.144l.924-2.808c.036-.12.18-.612.24-.828.132.492.2.756.228.8l.924 2.836a9.7 9.7 0 01.3 1.14zm2.988-9.552a10.821 10.821 0 01.084 1.56v6.432a11.62 11.62 0 01-.084 1.56h1.74a12.36 12.36 0 01-.084-1.56v-6.42a11.117 11.117 0 01.084-1.572zm9.708 6.5c-.024-.276-.024-.312-.024-.336a4.933 4.933 0 00-.348-1.824 3.048 3.048 0 00-2.988-1.9c-2.052 0-3.384 1.452-3.384 3.672a3.324 3.324 0 003.468 3.668 3.408 3.408 0 002.472-.924 3.372 3.372 0 00.732-1.1l-1.416-.46a1.744 1.744 0 01-.348.624 1.9 1.9 0 01-1.44.6 1.886 1.886 0 01-1.5-.672 2.23 2.23 0 01-.444-1.34zm-5.184-1.188a1.8 1.8 0 011.8-1.632 1.711 1.711 0 011.3.48 1.884 1.884 0 01.528 1.152zm11.76 4.24h1.6a12.6 12.6 0 01-.084-1.62v-6.324a13.994 13.994 0 01.08-1.608h-1.692a12.231 12.231 0 01.084 1.62v1.2c0 .2 0 .432.012.516.012.24.012.24.012.384a3.056 3.056 0 00-.612-.66 2.848 2.848 0 00-1.824-.552c-1.98 0-3.24 1.392-3.24 3.588a3.714 3.714 0 001.248 3.012 3.051 3.051 0 002 .612 2.562 2.562 0 002.428-1.188c-.012.156-.012.288-.012.432zm-4.104-3.444c0-1.428.744-2.34 1.908-2.34a2.2 2.2 0 011.56.672 2.492 2.492 0 01.576 1.6 2.714 2.714 0 01-.464 1.604 2.007 2.007 0 01-1.608.792c-1.204 0-1.972-.9-1.972-2.328zm7.056 4.548a3.481 3.481 0 003.012 1.252 4.53 4.53 0 002.832-.772 3.587 3.587 0 001.008-2.952v-4.02a11.148 11.148 0 01.084-1.5h-1.612v.552a2.886 2.886 0 00.024.4 2.531 2.531 0 00-2.288-1.06 3.11 3.11 0 00-3.2 3.42 3.039 3.039 0 003.128 3.36 2.731 2.731 0 002.352-1.092 3.269 3.269 0 01-.316 1.596 2.157 2.157 0 01-1.968.9 2.032 2.032 0 01-1.856-.912zm1.424-4.648c0-1.428.744-2.328 1.944-2.328a1.814 1.814 0 011.164.432 2.212 2.212 0 01.72 1.776 2.542 2.542 0 01-.328 1.372 2.008 2.008 0 01-1.672.948 1.839 1.839 0 01-1.272-.54 2.316 2.316 0 01-.556-1.66zm13.48.5c-.024-.276-.024-.312-.024-.336a4.933 4.933 0 00-.348-1.824 3.048 3.048 0 00-2.988-1.9c-2.052 0-3.384 1.452-3.384 3.672a3.324 3.324 0 003.464 3.66 3.408 3.408 0 002.472-.924 3.372 3.372 0 00.732-1.1l-1.416-.456a1.744 1.744 0 01-.348.624 1.9 1.9 0 01-1.44.6 1.886 1.886 0 01-1.5-.676 2.23 2.23 0 01-.44-1.34zm-5.18-1.192a1.8 1.8 0 011.8-1.632 1.711 1.711 0 011.3.48 1.884 1.884 0 01.528 1.152zm10.964 4.236c1.992 0 3.108-.948 3.108-2.628a2.369 2.369 0 00-.744-1.836 2.2 2.2 0 00-1.212-.552 2.03 2.03 0 00.948-.5 2.146 2.146 0 00.672-1.692c0-1.5-1.044-2.34-2.9-2.34h-2.836c-.816 0-1.008 0-1.512-.024a11.439 11.439 0 01.1 1.476v6.512a8.564 8.564 0 01-.112 1.62c.492-.024.84-.036 1.536-.036zm-2.8-5.64v-2.568h2.484a1.7 1.7 0 011.152.372 1.222 1.222 0 01.312.888 1.273 1.273 0 01-1.448 1.304zm0 1.332h2.556a1.961 1.961 0 011.308.408 1.3 1.3 0 01.384 1.044c0 .972-.6 1.5-1.668 1.5h-2.58zm11.812 4.308h1.624a9.652 9.652 0 01-.1-1.5v-3.228a2.015 2.015 0 00-.564-1.656 3.12 3.12 0 00-2.364-.708 3.593 3.593 0 00-2.292.612 2.507 2.507 0 00-.948 1.336l1.536.276a1.308 1.308 0 01.48-.768 2.165 2.165 0 011.252-.352c.912 0 1.38.36 1.38 1.056v.612a9.078 9.078 0 00-3.384.48 2.129 2.129 0 00-1.356 1.944c0 1.26.888 2.016 2.352 2.016a4.246 4.246 0 001.108-.144 2.6 2.6 0 001.272-.756zm0-2.676a1.43 1.43 0 01-.432 1.056 2.437 2.437 0 01-1.668.636c-.672 0-1.092-.348-1.092-.912 0-.936.9-1.332 3.192-1.38zm4.776 2.676a10.677 10.677 0 01-.1-1.56v-2.424c.528-1.188 1.236-1.788 2.1-1.788a1.129 1.129 0 011.008.492 1.971 1.971 0 01.2 1.056v2.664a12.753 12.753 0 01-.084 1.56h1.74a9.483 9.483 0 01-.1-1.56v-2.884a2.668 2.668 0 00-.408-1.68 2.371 2.371 0 00-2.04-.888 2.743 2.743 0 00-2.448 1.272 4.689 4.689 0 00.024-.516v-.636h-1.62a9.863 9.863 0 01.1 1.56v3.768a9.96 9.96 0 01-.1 1.56zm6.372-9.552a11.006 11.006 0 01.084 1.572v6.42a11.74 11.74 0 01-.084 1.56h1.692a8.688 8.688 0 01-.084-1.536v-.78l.984-.936 1.3 1.9a5.779 5.779 0 01.784 1.352h2.14a9.192 9.192 0 01-1.092-1.392l-2.028-2.772 1.7-1.62c.516-.492.516-.492 1.2-1.1h-2.24a5.524 5.524 0 01-.948 1.068l-1.8 1.788v-3.952a11.23 11.23 0 01.084-1.572zm-79.074 22.336a2.451 2.451 0 01-.4 1.1 2.291 2.291 0 01-1.944.888c-1.68 0-2.736-1.368-2.736-3.564s1.032-3.54 2.736-3.54a2.173 2.173 0 011.752.744 2.5 2.5 0 01.516 1.032l1.668-.384a4.268 4.268 0 00-.372-.924 3.684 3.684 0 00-1.27-1.304 4.24 4.24 0 00-2.3-.576 4.17 4.17 0 00-3 1.14 5.433 5.433 0 00-1.4 3.876 5.419 5.419 0 001.3 3.768 4.127 4.127 0 003.084 1.152 4.086 4.086 0 003.276-1.308 4.585 4.585 0 00.8-1.8zm7.224-6.528a4.159 4.159 0 00-3.1 1.2 5.137 5.137 0 00-1.368 3.744c0 3.048 1.752 5 4.476 5s4.488-1.968 4.488-5a5.175 5.175 0 00-1.34-3.744 4.205 4.205 0 00-3.156-1.2zm.036 8.52a2.591 2.591 0 01-1.86-.732 3.965 3.965 0 01-.972-2.832c0-2.172 1.092-3.54 2.82-3.54a2.583 2.583 0 011.848.732 3.876 3.876 0 01.948 2.8c0 2.204-1.068 3.572-2.784 3.572zm11.64 1.224a9.771 9.771 0 01.528-1.6l1.8-4.224a14.644 14.644 0 00.552-1.752c-.012.18-.048.792-.1 1.836v3.984a11.157 11.157 0 01-.1 1.752h1.68a10.4 10.4 0 01-.1-1.752v-6.02a12.428 12.428 0 01.1-1.776h-2.2a6.65 6.65 0 01-.432 1.428l-2.424 5.952-2.436-5.952a8.3 8.3 0 01-.444-1.428h-2.2a11.9 11.9 0 01.1 1.776v6.024a11.255 11.255 0 01-.1 1.752h1.68a10.964 10.964 0 01-.1-1.752v-3.936c0-.264-.048-1.248-.1-1.884a13.355 13.355 0 00.612 1.836l1.728 4.116a8.169 8.169 0 01.528 1.62zm7.848 0a9.671 9.671 0 01-.1-1.56v-2h2.292a3.4 3.4 0 002.556-.864 3.081 3.081 0 00.8-2.208 2.806 2.806 0 00-.736-2.068 3.408 3.408 0 00-2.556-.852h-2.508a28.78 28.78 0 01-1.524-.036 10.834 10.834 0 01.1 1.548v6.496a9.7 9.7 0 01-.1 1.548zm-.098-4.944v-3.228h2.292a1.638 1.638 0 011.308.428 1.618 1.618 0 01.4 1.152 1.51 1.51 0 01-1.7 1.644zm14.846 4.944a12.593 12.593 0 01-.612-1.416l-2.664-6.928a7.946 7.946 0 01-.408-1.212h-2.088a7.108 7.108 0 01-.384 1.212l-2.64 6.924a13.117 13.117 0 01-.636 1.416h1.968a5.985 5.985 0 01.36-1.26l.48-1.308h3.84l.48 1.308a8.069 8.069 0 01.336 1.26zm-3.216-3.944h-2.976l1.246-3.556.228-.672c.132.4.168.54.216.672zm3.888 1.152a4.1 4.1 0 00.228 1 2.825 2.825 0 001.054 1.36 4.825 4.825 0 002.52.624 3.977 3.977 0 002.868-.912 2.792 2.792 0 00.756-2.04 2.368 2.368 0 00-1-2.064 5.283 5.283 0 00-1.956-.732 10.216 10.216 0 01-1.692-.432 1.141 1.141 0 01-.816-1.092c0-.78.708-1.308 1.752-1.308a1.9 1.9 0 011.5.576 1.55 1.55 0 01.36.852l1.716-.2a3.235 3.235 0 00-.588-1.392 3.537 3.537 0 00-2.988-1.212c-2.064 0-3.408 1.08-3.408 2.748a2.362 2.362 0 00.924 1.944 4.242 4.242 0 001.812.732 7.566 7.566 0 012.088.588 1.218 1.218 0 01.6 1.1c0 .9-.72 1.44-1.92 1.44a2.13 2.13 0 01-1.752-.708 1.72 1.72 0 01-.336-1.056zm8.58 0a4.1 4.1 0 00.228 1 2.825 2.825 0 001.056 1.368 4.825 4.825 0 002.52.624 3.977 3.977 0 002.868-.912 2.792 2.792 0 00.756-2.04 2.368 2.368 0 00-1-2.064 5.283 5.283 0 00-1.956-.732 10.216 10.216 0 01-1.692-.432 1.141 1.141 0 01-.816-1.092c0-.78.708-1.308 1.752-1.308a1.9 1.9 0 011.5.576 1.55 1.55 0 01.36.852l1.716-.2a3.235 3.235 0 00-.588-1.392 3.537 3.537 0 00-2.988-1.212c-2.064 0-3.408 1.08-3.408 2.748a2.362 2.362 0 00.924 1.944 4.242 4.242 0 001.812.732 7.566 7.566 0 012.088.588 1.218 1.218 0 01.6 1.1c0 .9-.72 1.44-1.92 1.44a2.13 2.13 0 01-1.752-.708 1.72 1.72 0 01-.336-1.056zm21.6 2.8a12.594 12.594 0 01-.612-1.416l-2.664-6.936a7.946 7.946 0 01-.408-1.212h-2.088a7.108 7.108 0 01-.384 1.212l-2.642 6.928a13.117 13.117 0 01-.636 1.416h1.968a5.985 5.985 0 01.36-1.26l.48-1.308h3.84l.48 1.308a8.069 8.069 0 01.336 1.26zm-3.216-3.952h-2.976l1.248-3.552.228-.672c.132.4.168.54.216.672zm4.2-5.6a8.965 8.965 0 01.1 1.548v6.452a9.054 9.054 0 01-.1 1.548h1.824a9.054 9.054 0 01-.1-1.548v-6.46a8.965 8.965 0 01.1-1.548z" fill="#fff"/></g><path data-name="長方形 2546" fill="#fb5d51" d="M189.5 6514.5v38h-5v-38z"/><path data-name="長方形 2547" fill="#fb5d51" d="M189 6519.5h-65v-5h65z"/><g data-name="グループ 1824" fill="#fb5d51"><path data-name="長方形 2516" d="M189.5 6742.25v32h-5v-32z"/><path data-name="多角形 17" d="M187 6780.5l-7.5-13h15z"/></g></g></svg>