<svg xmlns="http://www.w3.org/2000/svg" width="228.804" height="160"><defs><clipPath id="prefix__clip-path"><path id="prefix__パス_234" d="M536.432 127.083l-10.387 2.061c-2.468.49-5.845 2.523-5.128 4.934l7.692 10.359-.6 7.871 15.507-3.862-3.407-6.572 2.2-11.493c-.282-2.481-3.426-3.781-5.877-3.298z" class="prefix__cls-1" data-name="パス 234" transform="translate(-520.818 -126.982)"/></clipPath><clipPath id="prefix__clip-path-2"><path id="prefix__パス_238" d="M533.347 122.085c.505 2.545-.874 6.424-3.381 7.093-2.613.7-5.372-2.6-5.834-5.264a4.7 4.7 0 119.215-1.829z" class="prefix__cls-2" data-name="パス 238" transform="translate(-524.058 -118.301)"/></clipPath><clipPath id="prefix__clip-path-3"><path id="prefix__パス_249" d="M485.923 124.3H498a4.873 4.873 0 014.852 5.326l-1.879 20.148h-18.231l-1.674-20.2a4.873 4.873 0 014.855-5.274z" class="prefix__cls-3" data-name="パス 249" transform="translate(-481.05 -124.296)"/></clipPath><clipPath id="prefix__clip-path-4"><path id="prefix__パス_257" d="M493.241 114.84c2.235 1.938 3.855 6.52 1.915 8.756s-6.7 1.277-8.939-.661a5.358 5.358 0 017.023-8.094z" class="prefix__cls-4" data-name="パス 257" transform="translate(-484.371 -113.528)"/></clipPath><clipPath id="prefix__clip-path-5"><path id="prefix__パス_268" d="M567.66 125.942h11.84a4.777 4.777 0 014.757 5.221l-1.843 19.748h-17.873l-1.642-19.8a4.776 4.776 0 014.761-5.169z" class="prefix__cls-3" data-name="パス 268" transform="translate(-562.882 -125.942)"/></clipPath><clipPath id="prefix__clip-path-6"><path id="prefix__パス_275" d="M567 120.562c0 2.9 2.351 7.042 5.252 7.042s5.252-4.142 5.252-7.042a5.252 5.252 0 10-10.5 0z" class="prefix__cls-4" data-name="パス 275" transform="translate(-567.004 -115.31)"/></clipPath><clipPath id="prefix__clip-path-7"><path id="prefix__パス_286" d="M616.922 124.359l11.967 2.55a4.936 4.936 0 013.683 6.3l-6.745 22.179-17.8-6.743L611 128.561a4.935 4.935 0 015.922-4.202z" class="prefix__cls-5" data-name="パス 286" transform="translate(-608.024 -124.249)"/></clipPath><clipPath id="prefix__clip-path-8"><path id="prefix__パス_293" d="M617.226 116.631c-1.61 2.528-1.859 7.445.671 9.053s6.877-.7 8.486-3.225a5.427 5.427 0 00-9.157-5.829z" class="prefix__cls-4" data-name="パス 293" transform="translate(-616.005 -114.117)"/></clipPath><style>.prefix__cls-1{fill:#f3ba18}.prefix__cls-2{fill:#e8a181}.prefix__cls-3{fill:#002245}.prefix__cls-4{fill:#f4ae87}.prefix__cls-5{fill:#fb5d51}.prefix__cls-6{fill:#34be8e}.prefix__cls-7{fill:#014596}.prefix__cls-8{fill:#00003a}.prefix__cls-9{fill:#ad5549}.prefix__cls-14{fill:#c77f67}.prefix__cls-16{fill:#230603}</style></defs><g id="prefix__グループ_1758" data-name="グループ 1758" transform="translate(-471.214 -58.15)"><g id="prefix__グループ_895" data-name="グループ 895" transform="translate(486.801 62.615)"><g id="prefix__グループ_894" data-name="グループ 894"><g id="prefix__グループ_893" data-name="グループ 893"><g id="prefix__グループ_892" data-name="グループ 892"><g id="prefix__グループ_891" data-name="グループ 891"><path id="prefix__パス_220" d="M482.785 67.563l33.25-6.1 2.573 14.027L509 77.255l8.687 47.371-14.118 2.589-8.687-47.371-9.521 1.746z" class="prefix__cls-6" data-name="パス 220" transform="translate(-482.785 -61.465)"/></g></g></g></g></g><g id="prefix__グループ_897" data-name="グループ 897" transform="translate(536.644 64.686)"><g id="prefix__グループ_896" data-name="グループ 896"><path id="prefix__パス_221" d="M524.058 63l28.6 1.961-.909 13.248-14.461-.991L536.5 88.7l12.549.861-.886 12.921-12.548-.861-.779 11.337 14.555 1-.912 13.294-28.689-1.968z" class="prefix__cls-5" data-name="パス 221" transform="translate(-519.787 -63.002)"/></g></g><g id="prefix__グループ_899" data-name="グループ 899" transform="translate(581.53 60.952)"><g id="prefix__グループ_898" data-name="グループ 898"><path id="prefix__パス_222" d="M602.093 122.18l-14.723.4-2.67-10.36-14.958.405-2.193 10.491-14.443.392 14.854-62.847 15.891-.431zm-20.4-21.1q-3.561-13.845-5.493-26.38l-.187.005q-1.33 12.992-4 26.63z" class="prefix__cls-1" data-name="パス 222" transform="translate(-553.109 -60.23)"/></g></g><g id="prefix__グループ_902" data-name="グループ 902" transform="translate(637.804 58.15)"><g id="prefix__グループ_901" data-name="グループ 901"><g id="prefix__グループ_900" data-name="グループ 900"><path id="prefix__パス_223" d="M606.077 58.15l17.863 1.285q2.374 20.422 3.524 35.084l2.233-9.544q1.338-5.575 2.8-10.861l3.757-13.794 18.236 1.311 2.61 62.769-13.992-1-.7-43.086-11.8 42.187-9.56-.687-6.055-43.565-6.724 42.645-13.384-.962z" class="prefix__cls-7" data-name="パス 223" transform="translate(-594.885 -58.15)"/></g></g></g><g id="prefix__グループ_903" data-name="グループ 903" transform="translate(540.836 138.829)"><path id="prefix__パス_224" d="M536.643 126.405s-1.393-7.617-5.83-8.263-6.944 1.959-7.731 5.666a19.2 19.2 0 00.288 6.388z" class="prefix__cls-8" data-name="パス 224" transform="translate(-522.9 -118.044)"/></g><g id="prefix__グループ_904" data-name="グループ 904" transform="translate(533.188 174.152)"><path id="prefix__パス_225" d="M560.048 158.594l-14.226-10.557-8.757 2.678-5.171-6.45c-1.042 2.021-.826 7.686-.915 8.1L533.1 169.9c-.953-.154-3.451-1.515-7.089-1.238a71.909 71.909 0 01-8.256.276l-.536 3.73s17.649 3.268 19.484 1.765c1.587-1.3 4.11-13.087 4.82-16.486.19-.905 1.542-.954 1.883-.709l14.213 5.912a39.545 39.545 0 00-2.666 6.812c-.706 3.182-1.9 16.03-1.9 16.03l4.261-.368 5.353-23.416a7.619 7.619 0 00-2.619-3.614z" class="prefix__cls-4" data-name="パス 225" transform="translate(-517.222 -144.266)"/></g><g id="prefix__グループ_905" data-name="グループ 905" transform="translate(568.924 214.718)"><path id="prefix__パス_226" d="M543.751 175.161l.43 2.652 8.92-1.445s.319-1.957-2.863-1.986a30.378 30.378 0 00-6.487.779z" class="prefix__cls-9" data-name="パス 226" transform="translate(-543.751 -174.381)"/></g><g id="prefix__グループ_906" data-name="グループ 906" transform="translate(529.076 198.167)"><path id="prefix__パス_227" d="M519.642 162.742l-3.029-.648-2.444 8.7s1.641 1.111 3.007-1.761a60.135 60.135 0 002.466-6.291z" class="prefix__cls-9" data-name="パス 227" transform="translate(-514.169 -162.094)"/></g><g id="prefix__グループ_907" data-name="グループ 907" transform="translate(532.047 127.901)"><path id="prefix__パス_228" d="M523.2 141.165c3.923-2.33 8.723 2.768 5.9-3.287-2.374-5.089-6.637-11.808-6.949-13.239s3.354-13.7 3.354-13.7l-3.983-1.008-5.116 13.826a5.408 5.408 0 00.176 2.171l4.378 11.451z" class="prefix__cls-1" data-name="パス 228" transform="translate(-516.375 -109.931)"/></g><g id="prefix__グループ_908" data-name="グループ 908" transform="translate(560.178 124.361)"><path id="prefix__パス_229" d="M537.81 111.011s-1.544-2.8.531-3.6 3.083 2.918 3.083 2.918z" class="prefix__cls-4" data-name="パス 229" transform="translate(-537.258 -107.303)"/></g><g id="prefix__グループ_909" data-name="グループ 909" transform="translate(552.105 127.392)"><path id="prefix__パス_230" d="M537.08 142.665c-3.859-2.434-7.74-2.027-4.756-8.005 2.508-5.024 6.971-9.522 7.321-10.945s-.148-13.26-.148-13.26l4.008-.9 1.907 13.431a5.438 5.438 0 01-.233 2.166l-4.61 9.724z" class="prefix__cls-1" data-name="パス 230" transform="translate(-531.265 -109.553)"/></g><g id="prefix__グループ_911" data-name="グループ 911" transform="translate(559.169 126.265)"><g id="prefix__グループ_910" data-name="グループ 910"><path id="prefix__長方形_444" d="M0 0h5.672v2.315H0z" class="prefix__cls-6" data-name="長方形 444" transform="rotate(-12.31 5.608 .603)"/></g></g><g id="prefix__グループ_912" data-name="グループ 912" transform="translate(545.222 172.333)"><path id="prefix__パス_231" d="M541.662 142.916l-15.507 3.862L530 170.365a34.3 34.3 0 0015.826-1.158 49.321 49.321 0 0013.372-7.321s.15-1.363-2.038-2.818-15.498-16.152-15.498-16.152z" class="prefix__cls-7" data-name="パス 231" transform="translate(-526.155 -142.916)"/></g><g id="prefix__グループ_916" data-name="グループ 916" transform="translate(538.033 150.87)"><path id="prefix__パス_232" d="M536.432 127.083l-10.387 2.061c-2.468.49-5.845 2.523-5.128 4.934l7.692 10.359-.6 7.871 15.507-3.862-3.407-6.572 2.2-11.493c-.282-2.481-3.426-3.781-5.877-3.298z" class="prefix__cls-1" data-name="パス 232" transform="translate(-520.818 -126.982)"/><g id="prefix__グループ_915" data-name="グループ 915"><g id="prefix__グループ_913" data-name="グループ 913" transform="translate(11.197 3.177)"><path id="prefix__長方形_445" d="M0 0h.881v24.912H0z" class="prefix__cls-7" data-name="長方形 445" transform="rotate(-10.728 .873 .082)"/></g><g id="prefix__グループ_914" data-name="グループ 914" transform="translate(6.112 -3.001)"><path id="prefix__パス_233" d="M525.379 130.048a4.821 4.821 0 104.324-5.27 4.821 4.821 0 00-4.324 5.27z" class="prefix__cls-2" data-name="パス 233" transform="translate(-525.355 -124.754)"/></g></g></g><g id="prefix__グループ_917" data-name="グループ 917" transform="translate(545.522 148.119)"><path id="prefix__長方形_446" d="M0 0h5.093v5.325H0z" class="prefix__cls-2" data-name="長方形 446" transform="rotate(-11.19 5.034 .49)"/></g><g id="prefix__グループ_918" data-name="グループ 918" transform="translate(542.381 139.176)"><path id="prefix__パス_235" d="M533.351 122.085c.505 2.545-.837 6.588-3.381 7.093s-5.329-2.72-5.834-5.264a4.7 4.7 0 119.215-1.829z" class="prefix__cls-4" data-name="パス 235" transform="translate(-524.046 -118.301)"/></g><g id="prefix__グループ_921" data-name="グループ 921" transform="translate(542.397 139.176)"><path id="prefix__パス_236" d="M533.347 122.085c.505 2.545-.874 6.424-3.381 7.093-2.613.7-5.372-2.6-5.834-5.264a4.7 4.7 0 119.215-1.829z" class="prefix__cls-2" data-name="パス 236" transform="translate(-524.058 -118.301)"/><g id="prefix__グループ_920" data-name="グループ 920"><g id="prefix__グループ_919" data-name="グループ 919" transform="translate(-3.676 -2.062)"><path id="prefix__パス_237" d="M528.311 130.609l-.943-7.209s9.749-1.623 10.239-3.163c.387-1.212-8.7-3.819-9.882-3.427s-6.394 5.045-6.4 6.226 4.079 4.7 4.079 4.7z" class="prefix__cls-8" data-name="パス 237" transform="translate(-521.329 -116.771)"/></g></g></g><g id="prefix__グループ_922" data-name="グループ 922" transform="translate(538.235 124.434)"><path id="prefix__パス_239" d="M524.1 111.309s2.445-2.054.8-3.547-3.925 1.616-3.925 1.616z" class="prefix__cls-4" data-name="パス 239" transform="translate(-520.968 -107.357)"/></g><g id="prefix__グループ_924" data-name="グループ 924" transform="translate(536.659 125.962)"><g id="prefix__グループ_923" data-name="グループ 923"><path id="prefix__長方形_447" d="M0 0h2.315v5.672H0z" class="prefix__cls-6" data-name="長方形 447" transform="rotate(-64.478 1.656 1.044)"/></g></g><g id="prefix__グループ_925" data-name="グループ 925" transform="translate(492.582 142.574)"><path id="prefix__長方形_448" d="M0 0h5.81v6.074H0z" class="prefix__cls-4" data-name="長方形 448"/></g><g id="prefix__グループ_926" data-name="グループ 926" transform="translate(504.39 213.287)"><path id="prefix__パス_240" d="M495.843 173.932V177h10.308s.715-2.146-2.86-2.759-5.21-.92-5.21-.92z" class="prefix__cls-7" data-name="パス 240" transform="translate(-495.843 -173.319)"/></g><g id="prefix__グループ_927" data-name="グループ 927" transform="translate(476.047 213.287)"><path id="prefix__パス_241" d="M485.168 173.932V177H474.86s-.715-2.146 2.86-2.759 5.21-.92 5.21-.92z" class="prefix__cls-7" data-name="パス 241" transform="translate(-474.802 -173.319)"/></g><g id="prefix__グループ_928" data-name="グループ 928" transform="translate(514.524 119.266)"><path id="prefix__パス_242" d="M503.61 107.456s-1.106-3.47 1.393-3.905 2.8 3.95 2.8 3.95z" class="prefix__cls-4" data-name="パス 242" transform="translate(-503.366 -103.52)"/></g><g id="prefix__グループ_930" data-name="グループ 930" transform="translate(480.624 172.725)"><g id="prefix__グループ_929" data-name="グループ 929"><path id="prefix__パス_243" d="M483.746 143.207h18.22l5.544 19.012v22.191h-5.544a67.33 67.33 0 01-2.258-14.656c-.062-1.809.276-6.743.276-6.743l-5.994-12.366a1.253 1.253 0 00-1.126-.7h-.016a1.251 1.251 0 00-1.126.7l-6 12.366a47.739 47.739 0 01.647 7.535c0 6.338-2.627 13.864-2.627 13.864H478.2v-22.191z" class="prefix__cls-5" data-name="パス 243" transform="translate(-478.2 -143.207)"/></g></g><g id="prefix__グループ_931" data-name="グループ 931" transform="translate(484.464 147.251)"><path id="prefix__パス_244" d="M485.923 124.3H498a4.873 4.873 0 014.852 5.326l-1.879 20.148h-18.231l-1.674-20.2a4.873 4.873 0 014.855-5.274z" class="prefix__cls-3" data-name="パス 244" transform="translate(-481.05 -124.296)"/></g><g id="prefix__グループ_932" data-name="グループ 932" transform="translate(498.872 123.246)"><path id="prefix__パス_245" d="M497.3 142.1c-3.777-3.58-8.209-3.986-3.543-10.013 3.921-5.065 9.913-9.107 10.62-10.621s2.778-14.869 2.778-14.869l4.684-.119-.847 15.452a6.181 6.181 0 01-.741 2.371l-7.317 9.858z" class="prefix__cls-3" data-name="パス 245" transform="translate(-491.747 -106.475)"/></g><g id="prefix__グループ_933" data-name="グループ 933" transform="translate(513.152 122.066)"><path id="prefix__長方形_449" d="M0 0h6.47v2.641H0z" class="prefix__cls-8" data-name="長方形 449" transform="translate(0 .129)"/></g><g id="prefix__グループ_934" data-name="グループ 934" transform="translate(471.925 183.827)"><path id="prefix__パス_246" d="M475.937 151.495s1.106 3.47-1.393 3.905-2.8-3.951-2.8-3.951z" class="prefix__cls-4" data-name="パス 246" transform="translate(-471.742 -151.449)"/></g><g id="prefix__グループ_935" data-name="グループ 935" transform="translate(471.925 148.208)"><path id="prefix__パス_247" d="M486.282 125.006c3.776 3.58 8.209 3.986 3.543 10.013-3.921 5.065-9.914 9.107-10.62 10.62s-2.778 14.869-2.778 14.869l-4.685.119.847-15.451a6.161 6.161 0 01.742-2.371l7.317-9.858z" class="prefix__cls-3" data-name="パス 247" transform="translate(-471.742 -125.006)"/></g><g id="prefix__グループ_936" data-name="グループ 936" transform="translate(471.214 182.239)"><path id="prefix__長方形_450" d="M0 0h6.47v2.641H0z" class="prefix__cls-8" data-name="長方形 450" transform="rotate(-1.138 6.495 .065)"/></g><g id="prefix__グループ_939" data-name="グループ 939" transform="translate(484.464 147.251)"><path id="prefix__パス_248" d="M485.923 124.3H498a4.873 4.873 0 014.852 5.326l-1.879 20.148h-18.231l-1.674-20.2a4.873 4.873 0 014.855-5.274z" class="prefix__cls-3" data-name="パス 248" transform="translate(-481.05 -124.296)"/><g id="prefix__グループ_938" data-name="グループ 938"><g id="prefix__グループ_937" data-name="グループ 937" transform="translate(10.473 -1.628)"><path id="prefix__長方形_451" d="M0 0h.882v29.928H0z" class="prefix__cls-8" data-name="長方形 451"/></g></g></g><g id="prefix__グループ_941" data-name="グループ 941" transform="translate(493.219 148.439)"><g id="prefix__グループ_940" data-name="グループ 940"><path id="prefix__パス_250" d="M488.871 125.178h1.914l1.32 16.373-1.92 2.8a.446.446 0 01-.737 0l-1.9-2.8z" class="prefix__cls-1" data-name="パス 250" transform="translate(-487.55 -125.178)"/></g></g><g id="prefix__グループ_942" data-name="グループ 942" transform="translate(493.583 147.241)"><path id="prefix__パス_251" d="M487.82 126.274a1.986 1.986 0 101.985-1.986 1.986 1.986 0 00-1.985 1.986z" class="prefix__cls-6" data-name="パス 251" transform="translate(-487.82 -124.288)"/></g><g id="prefix__グループ_943" data-name="グループ 943" transform="translate(495.568 147.241)"><path id="prefix__パス_252" d="M489.294 124.288s2.911 4.456 3.7 4.632 1.848-4.577 1.848-4.577z" class="prefix__cls-8" data-name="パス 252" transform="translate(-489.294 -124.288)"/></g><g id="prefix__グループ_944" data-name="グループ 944" transform="translate(490.023 147.241)"><path id="prefix__パス_253" d="M490.728 124.288s-2.91 4.456-3.7 4.632-1.849-4.577-1.849-4.577z" class="prefix__cls-8" data-name="パス 253" transform="translate(-485.177 -124.288)"/></g><g id="prefix__グループ_945" data-name="グループ 945" transform="translate(488.937 132.747)"><path id="prefix__パス_254" d="M493.241 114.84c2.235 1.938 3.855 6.52 1.915 8.756s-6.7 1.277-8.939-.661a5.358 5.358 0 017.023-8.094z" class="prefix__cls-4" data-name="パス 254" transform="translate(-484.371 -113.528)"/></g><g id="prefix__グループ_948" data-name="グループ 948" transform="translate(488.937 132.747)"><path id="prefix__パス_255" d="M493.241 114.84c2.235 1.938 3.855 6.52 1.915 8.756s-6.7 1.277-8.939-.661a5.358 5.358 0 017.023-8.094z" class="prefix__cls-4" data-name="パス 255" transform="translate(-484.371 -113.528)"/><g id="prefix__グループ_947" data-name="グループ 947"><g id="prefix__グループ_946" data-name="グループ 946" transform="translate(-2.765 -.157)"><path id="prefix__パス_256" d="M491.672 127.021s-3.572-3.834-4.24-5.346 1.615-1.862 1.615-1.862l-.6-2.266s.919-2 .086-3.188-3.773-1.293-4.564-.115-2.231 9.02-1.408 10.084 6.962 1.379 6.962 1.379z" class="prefix__cls-1" data-name="パス 256" transform="translate(-482.318 -113.412)"/></g></g></g><g id="prefix__グループ_949" data-name="グループ 949" transform="translate(489.097 128.935)"><path id="prefix__パス_258" d="M488.888 120.31l4.188-4.826c.725-.835.777-5.02-2.69-4.775s-6.016 6.648-5.892 8.381 3.267 2.52 4.394 1.22z" class="prefix__cls-1" data-name="パス 258" transform="translate(-484.49 -110.698)"/></g><g id="prefix__グループ_950" data-name="グループ 950" transform="translate(602.652 145.802)"><path id="prefix__長方形_452" d="M0 0h5.694v5.953H0z" class="prefix__cls-2" data-name="長方形 452"/></g><g id="prefix__グループ_951" data-name="グループ 951" transform="translate(614.225 214.196)"><path id="prefix__パス_259" d="M577.381 174.595v3h10.1s.7-2.1-2.8-2.7-5.107-.9-5.107-.9z" class="prefix__cls-14" data-name="パス 259" transform="translate(-577.381 -173.994)"/></g><g id="prefix__グループ_952" data-name="グループ 952" transform="translate(586.444 214.196)"><path id="prefix__パス_260" d="M566.919 174.595v3h-10.1s-.7-2.1 2.8-2.7 5.108-.9 5.108-.9z" class="prefix__cls-14" data-name="パス 260" transform="translate(-556.757 -173.994)"/></g><g id="prefix__グループ_953" data-name="グループ 953" transform="translate(624.159 122.037)"><path id="prefix__パス_261" d="M584.995 109.436s-1.084-3.4 1.364-3.828 2.747 3.873 2.747 3.873z" class="prefix__cls-4" data-name="パス 261" transform="translate(-584.755 -105.578)"/></g><g id="prefix__グループ_955" data-name="グループ 955" transform="translate(590.932 174.437)"><g id="prefix__グループ_954" data-name="グループ 954"><path id="prefix__パス_262" d="M565.524 144.478h17.858l5.435 18.635v21.752h-5.435a66.025 66.025 0 01-2.212-14.365c-.061-1.774.271-6.61.271-6.61l-5.876-12.121a1.227 1.227 0 00-1.1-.691h-.015a1.227 1.227 0 00-1.1.691l-5.876 12.121a46.828 46.828 0 01.633 7.386c0 6.213-2.574 13.589-2.574 13.589h-5.435v-21.752z" class="prefix__cls-1" data-name="パス 262" transform="translate(-560.089 -144.478)"/></g></g><g id="prefix__グループ_956" data-name="グループ 956" transform="translate(594.695 149.468)"><path id="prefix__パス_263" d="M567.66 125.942h11.84a4.777 4.777 0 014.757 5.221l-1.843 19.748h-17.873l-1.642-19.8a4.776 4.776 0 014.761-5.169z" class="prefix__cls-3" data-name="パス 263" transform="translate(-562.882 -125.942)"/></g><g id="prefix__グループ_957" data-name="グループ 957" transform="translate(608.818 125.94)"><path id="prefix__パス_264" d="M578.807 143.389c-3.7-3.509-8.046-3.908-3.473-9.815 3.844-4.965 9.717-8.927 10.41-10.41s2.722-14.574 2.722-14.574l4.592-.116-.831 15.143a6.047 6.047 0 01-.727 2.325l-7.172 9.662z" class="prefix__cls-3" data-name="パス 264" transform="translate(-573.367 -108.475)"/></g><g id="prefix__グループ_958" data-name="グループ 958" transform="translate(622.815 124.783)"><path id="prefix__長方形_453" d="M0 0h6.341v2.588H0z" class="prefix__cls-7" data-name="長方形 453" transform="rotate(-1.139 6.338 .063)"/></g><g id="prefix__グループ_959" data-name="グループ 959" transform="translate(582.609 122.037)"><path id="prefix__パス_265" d="M558.021 109.436s1.084-3.4-1.365-3.828-2.747 3.873-2.747 3.873z" class="prefix__cls-4" data-name="パス 265" transform="translate(-553.91 -105.578)"/></g><g id="prefix__グループ_960" data-name="グループ 960" transform="translate(582.609 125.94)"><path id="prefix__パス_266" d="M568.162 143.389c3.7-3.509 8.046-3.908 3.473-9.815-3.843-4.965-9.718-8.927-10.41-10.41s-2.722-14.574-2.722-14.574l-4.592-.116.831 15.143a6.042 6.042 0 00.727 2.325l7.172 9.662z" class="prefix__cls-3" data-name="パス 266" transform="translate(-553.91 -108.475)"/></g><g id="prefix__グループ_961" data-name="グループ 961" transform="translate(581.912 124.783)"><path id="prefix__長方形_454" d="M0 0h2.588v6.341H0z" class="prefix__cls-7" data-name="長方形 454" transform="rotate(-88.861 1.32 1.294)"/></g><g id="prefix__グループ_964" data-name="グループ 964" transform="translate(594.695 149.468)"><path id="prefix__パス_267" d="M567.66 125.942h11.84a4.777 4.777 0 014.757 5.221l-1.843 19.748h-17.873l-1.642-19.8a4.776 4.776 0 014.761-5.169z" class="prefix__cls-3" data-name="パス 267" transform="translate(-562.882 -125.942)"/><g id="prefix__グループ_963" data-name="グループ 963"><g id="prefix__グループ_962" data-name="グループ 962" transform="translate(10.256 -1.596)"><path id="prefix__長方形_455" d="M0 0h.882v29.334H0z" class="prefix__cls-16" data-name="長方形 455"/></g></g></g><g id="prefix__グループ_965" data-name="グループ 965" transform="translate(603.278 150.634)"><path id="prefix__パス_269" d="M570.547 126.807h1.876l1.294 16.047-1.88 2.749a.437.437 0 01-.722 0l-1.862-2.748z" data-name="パス 269" transform="translate(-569.254 -126.807)" fill="#f9c273"/></g><g id="prefix__グループ_966" data-name="グループ 966" transform="translate(603.633 149.458)"><path id="prefix__パス_270" d="M569.518 127.88a1.946 1.946 0 101.947-1.946 1.947 1.947 0 00-1.947 1.946z" class="prefix__cls-6" data-name="パス 270" transform="translate(-569.518 -125.934)"/></g><g id="prefix__グループ_967" data-name="グループ 967" transform="translate(605.58 149.458)"><path id="prefix__パス_271" d="M570.963 125.934s2.853 4.368 3.629 4.541 1.812-4.487 1.812-4.487z" class="prefix__cls-7" data-name="パス 271" transform="translate(-570.963 -125.934)"/></g><g id="prefix__グループ_968" data-name="グループ 968" transform="translate(600.144 149.458)"><path id="prefix__パス_272" d="M572.369 125.934s-2.853 4.368-3.629 4.541-1.812-4.487-1.812-4.487z" class="prefix__cls-7" data-name="パス 272" transform="translate(-566.928 -125.934)"/></g><g id="prefix__グループ_971" data-name="グループ 971" transform="translate(600.247 135.147)"><path id="prefix__パス_273" d="M567 120.562c0 2.9 2.351 7.042 5.252 7.042s5.252-4.142 5.252-7.042a5.252 5.252 0 10-10.5 0z" class="prefix__cls-4" data-name="パス 273" transform="translate(-567.004 -115.31)"/><g id="prefix__グループ_970" data-name="グループ 970"><g id="prefix__グループ_969" data-name="グループ 969" transform="translate(-3.568 -2.549)"><path id="prefix__パス_274" d="M575.763 127.139v-2.846s2.07-2.07 1.381-3.537-2.415 0-2.415 0l-10.374.07s8.13-7.577 9.51-7.4 8.111 4.142 8.369 5.437-3.451 6.039-3.451 6.039z" class="prefix__cls-16" data-name="パス 274" transform="translate(-564.355 -113.418)"/></g></g></g><g id="prefix__グループ_972" data-name="グループ 972" transform="translate(666.424 143.558)"><path id="prefix__パス_276" d="M623.543 121.554l-6.129.133-1.282 6.017 5.755 1.227z" class="prefix__cls-2" data-name="パス 276" transform="translate(-616.132 -121.554)"/></g><g id="prefix__グループ_973" data-name="グループ 973" transform="translate(654.572 214.016)"><path id="prefix__パス_277" d="M607.333 174.531l.07 3.1 10.364-.229s.671-2.188-2.938-2.729-5.26-.815-5.26-.815z" class="prefix__cls-5" data-name="パス 277" transform="translate(-607.333 -173.86)"/></g><g id="prefix__グループ_974" data-name="グループ 974" transform="translate(631.772 204.395)"><path id="prefix__パス_278" d="M600.779 170.616l-1.614 2.652-8.758-5.236s.511-2.232 3.927-.88 4.993 1.946 4.993 1.946z" class="prefix__cls-5" data-name="パス 278" transform="translate(-590.407 -166.718)"/></g><g id="prefix__グループ_975" data-name="グループ 975" transform="translate(673.515 114.176)"><path id="prefix__パス_279" d="M623.014 104.311s-2.857-2.333-.977-4.084 4.561 1.8 4.561 1.8z" class="prefix__cls-4" data-name="パス 279" transform="translate(-621.396 -99.742)"/></g><g id="prefix__グループ_977" data-name="グループ 977" transform="translate(637.022 171.292)"><g id="prefix__グループ_976" data-name="グループ 976"><path id="prefix__パス_280" d="M613.6 142.143l16.94 6.578.466 19.865-14.1 16.764-5.05.445s.5-8.745 5.606-14.765c3.108-3.664 6.549-3.776 6.549-3.776l-5.466-13.28a1.264 1.264 0 00-.6-1.2l-.014-.008a1.266 1.266 0 00-1.347.018l-16.858 3.283s3.194 1.977 2.971 10.636a33.072 33.072 0 01-3.335 12.536l-4.8-2.92-.262-26.419z" data-name="パス 280" transform="translate(-594.305 -142.143)" fill="#448fea"/></g></g><g id="prefix__グループ_978" data-name="グループ 978" transform="translate(655.871 147.189)"><path id="prefix__パス_281" d="M616.827 124.359l11.967 2.55a4.936 4.936 0 013.683 6.3l-6.116 19.563-18.064-3.85 2.605-20.362a4.935 4.935 0 015.925-4.201z" class="prefix__cls-5" data-name="パス 281" transform="translate(-608.298 -124.249)"/></g><g id="prefix__グループ_979" data-name="グループ 979" transform="translate(674.808 116.465)"><path id="prefix__パス_282" d="M625.757 147.316c-5.185-.95-2.869-5.17-2.738-8.05.295-6.482 5.439-19.306 5.2-20.98s-5.865-14.155-5.865-14.155l3.909-2.69 7.825 13.581a6.261 6.261 0 01.682 2.422s.015 9.4-.758 12.412c-1.2 4.676-8.255 17.46-8.255 17.46z" class="prefix__cls-5" data-name="パス 282" transform="translate(-622.356 -101.441)"/></g><g id="prefix__グループ_980" data-name="グループ 980" transform="translate(673.206 115.098)"><path id="prefix__長方形_456" d="M0 0h6.553v2.675H0z" class="prefix__cls-7" data-name="長方形 456" transform="rotate(-34.228 5.986 1.843)"/></g><g id="prefix__グループ_981" data-name="グループ 981" transform="translate(660.725 115.695)"><path id="prefix__パス_283" d="M615.215 105.445s3.1-2.008 1.417-3.952-4.731 1.294-4.731 1.294z" class="prefix__cls-4" data-name="パス 283" transform="translate(-611.901 -100.87)"/></g><g id="prefix__グループ_982" data-name="グループ 982" transform="translate(650.774 117.913)"><path id="prefix__パス_284" d="M613.049 142.845c4.5-2.749 8.974-2.216 5.625-9.171-2.817-5.846-6.824-11.151-7.205-12.8s5.231-14.694 5.231-14.694l-3.552-3.664-8.6 16.237a6.25 6.25 0 00.236 2.505l4.366 12.53z" class="prefix__cls-5" data-name="パス 284" transform="translate(-604.514 -102.516)"/></g><g id="prefix__グループ_983" data-name="グループ 983" transform="translate(658.546 116.267)"><path id="prefix__長方形_457" d="M0 0h2.675v6.553H0z" class="prefix__cls-7" data-name="長方形 457" transform="rotate(-47.157 2.247 .98)"/></g><g id="prefix__グループ_986" data-name="グループ 986" transform="translate(655.502 147.189)"><path id="prefix__パス_285" d="M616.922 124.359l11.967 2.55a4.936 4.936 0 013.683 6.3l-6.745 22.179-17.8-6.743L611 128.561a4.935 4.935 0 015.922-4.202z" class="prefix__cls-5" data-name="パス 285" transform="translate(-608.024 -124.249)"/><g id="prefix__グループ_985" data-name="グループ 985"><g id="prefix__グループ_984" data-name="グループ 984" transform="translate(8.47 -.319)"><path id="prefix__長方形_458" d="M0 0h30.314v.882H0z" class="prefix__cls-16" data-name="長方形 458" transform="rotate(-77.944 18.323 14.823)"/></g></g></g><g id="prefix__グループ_988" data-name="グループ 988" transform="translate(663.731 149.727)"><g id="prefix__グループ_987" data-name="グループ 987"><path id="prefix__パス_287" d="M618.9 126.134l1.9.4-2.15 16.5-2.492 2.373a.452.452 0 01-.73-.158l-1.291-3.178z" class="prefix__cls-6" data-name="パス 287" transform="translate(-614.133 -126.134)"/></g></g><g id="prefix__グループ_989" data-name="グループ 989" transform="translate(667.296 148.295)"><path id="prefix__パス_288" d="M616.823 126.665a2.012 2.012 0 102.387-1.549 2.013 2.013 0 00-2.387 1.549z" class="prefix__cls-6" data-name="パス 288" transform="translate(-616.779 -125.071)"/></g><g id="prefix__グループ_990" data-name="グループ 990" transform="translate(669.561 148.299)"><path id="prefix__パス_289" d="M618.461 125.074s1.941 5.029 2.69 5.369 2.8-4.144 2.8-4.144z" class="prefix__cls-7" data-name="パス 289" transform="translate(-618.461 -125.074)"/></g><g id="prefix__グループ_991" data-name="グループ 991" transform="translate(664.056 147.183)"><path id="prefix__パス_290" d="M619.885 125.362s-3.824 3.8-4.646 3.808-.865-4.925-.865-4.925z" class="prefix__cls-7" data-name="パス 290" transform="translate(-614.374 -124.245)"/></g><g id="prefix__グループ_994" data-name="グループ 994" transform="translate(666.253 133.54)"><path id="prefix__パス_291" d="M617.226 116.631c-1.61 2.528-1.859 7.445.671 9.053s6.877-.7 8.486-3.225a5.427 5.427 0 00-9.157-5.829z" class="prefix__cls-4" data-name="パス 291" transform="translate(-616.005 -114.117)"/><g id="prefix__グループ_993" data-name="グループ 993"><g id="prefix__グループ_992" data-name="グループ 992" transform="translate(-4.962 -2.461)"><path id="prefix__パス_292" d="M625.309 127.767s-.806-2.12-.5-2.831c.357-.826 1.778-1.3 1.99-2.958s-2.105-1.34-2.105-1.34l-12.373-4.86s6.75-1.493 7.216-2.887 7.366-.043 8.473.874 4.772 8.111 4.281 9.382-6.361 3.35-6.361 3.35z" class="prefix__cls-1" data-name="パス 292" transform="translate(-612.321 -112.29)"/></g></g></g><g id="prefix__グループ_995" data-name="グループ 995" transform="translate(667.174 129.789)"><path id="prefix__パス_294" d="M616.689 118.219s1.72-6.773 2.22-6.883.444 2.887 1.11 2.887 1.665-1.61 2.276-1.5 0 1.61.61 1.832 1.36-1.235 1.859-1.068-.027 1.4.418 1.9 1.513-1.041 1.956-.819-.068 4.926-.125 6.037-10.324-2.386-10.324-2.386z" class="prefix__cls-1" data-name="パス 294" transform="translate(-616.689 -111.333)"/></g></g></svg>