<svg xmlns="http://www.w3.org/2000/svg" width="856" height="476.986"><defs><clipPath id="a"><path data-name="パス 191" d="M803.64 96.983h12.513a5.048 5.048 0 015.027 5.517l-1.948 20.87h-18.887l-1.735-20.923a5.048 5.048 0 015.03-5.464z" transform="translate(-798.592 -96.983)" fill="#002245"/></clipPath><clipPath id="b"><path data-name="パス 198" d="M806.955 83.87c-2.3 2.026-3.946 6.782-1.921 9.084s6.952 1.275 9.254-.749a5.551 5.551 0 00-7.333-8.334z" transform="translate(-804.119 -82.487)" fill="#f4ae87"/></clipPath><clipPath id="c"><path data-name="パス 249" d="M486.08 124.3h12.467a5.029 5.029 0 015.008 5.5l-1.939 20.793H482.8l-1.728-20.845a5.029 5.029 0 015.008-5.448z" transform="translate(-481.05 -124.296)" fill="#002245"/></clipPath><clipPath id="d"><path data-name="パス 257" d="M493.525 114.882c2.306 2 3.979 6.729 1.977 9.036s-6.918 1.318-9.225-.683a5.53 5.53 0 017.249-8.354z" transform="translate(-484.371 -113.528)" fill="#f4ae87"/></clipPath></defs><g data-name="グループ 1850" transform="translate(-255 -5167.002)"><g transform="translate(635.004 5320)"><g data-name="グループ 1745" fill="#0071bc"><path data-name="パス 1083" d="M43.996 42h7v2h-7z"/><path data-name="パス 1084" d="M43.996 46h7v2h-7z"/><path data-name="パス 1085" d="M43.996 50h7v2h-7z"/><path data-name="パス 1086" d="M60.996 42h4v2h-4z"/><path data-name="パス 1087" d="M60.996 46h4v2h-4z"/><path data-name="パス 1088" d="M60.996 50h4v2h-4z"/><path data-name="パス 1089" d="M50.996 37h2v5h-2z"/><path data-name="パス 1090" d="M54.996 37h2v5h-2z"/><path data-name="パス 1091" d="M58.996 37h2v5h-2z"/><path data-name="パス 1092" d="M50.996 52h2v5h-2z"/><path data-name="パス 1093" d="M54.996 52h2v5h-2z"/><path data-name="パス 1094" d="M58.996 52h2v5h-2z"/></g><path data-name="パス 1095" d="M57.996 26h-13v-2h12.586l4.707-4.707 1.414 1.414-5 5a1 1 0 01-.707.293z" fill="#6cbbc7"/><rect data-name="長方形 2449" width="4" height="4" rx="2" transform="translate(61.996 17)" fill="#fb5d51"/><path data-name="パス 1096" d="M58.289 72.706l-2.707-2.707H44.996v-2h11a1 1 0 01.707.293l3 3z" fill="#6cbbc7"/><rect data-name="長方形 2450" width="4" height="4" rx="2" transform="translate(57.996 70.999)" fill="#fb5d51"/><path data-name="パス 1097" d="M69.996 68.999h-2v-5h-22v-2h23a1 1 0 011 1z" fill="#6cbbc7"/><rect data-name="長方形 2451" width="4" height="4" rx="2" transform="translate(66.996 67.999)" fill="#fb5d51"/><path data-name="パス 1098" d="M65.996 32h-20v-2h19.586l3.707-3.707 1.414 1.414-4 4a1 1 0 01-.707.293z" fill="#6cbbc7"/><rect data-name="長方形 2452" width="4" height="4" rx="2" transform="translate(68.995 24)" fill="#fb5d51"/><path data-name="パス 1099" d="M44.996 36h28v2h-28z" fill="#6cbbc7"/><rect data-name="長方形 2453" width="4" height="4" rx="2" transform="translate(70.995 35)" fill="#fb5d51"/><path data-name="パス 1100" d="M44.996 55.999h29v2h-29z" fill="#6cbbc7"/><rect data-name="長方形 2454" width="4" height="4" rx="2" transform="translate(70.995 54.999)" fill="#fb5d51"/><path data-name="パス 1101" d="M40 16a7 7 0 00-6.92 6H33a8.99 8.99 0 00-7.961 13.185A10.985 10.985 0 0021 55.207V57a6 6 0 005 5.91V64a6.006 6.006 0 006 6h1.08A7 7 0 0047 69V23a7.008 7.008 0 00-7-7z" fill="#fb5d51"/><path data-name="パス 1102" d="M49.996 41h12v12h-12z" fill="#6cbbc7"/><path data-name="パス 1103" d="M44.254 17.457a49.905 49.905 0 01-18.148 47.671A6.007 6.007 0 0031.996 70h1.08a7 7 0 0013.92-1V23a6.985 6.985 0 00-2.742-5.543z" fill="#e0483c"/><path data-name="パス 1104" d="M33.996 58.999a5.006 5.006 0 01-5-5v-1h2v1a3 3 0 106 0v-1h2v1a5.006 5.006 0 01-5 5z" fill="#b22639"/><path data-name="パス 1105" d="M34.996 51h-2v-2a3 3 0 10-6 0v2h-2v-2a5 5 0 1110 0z" fill="#b22639"/><path data-name="パス 1106" d="M35.996 44h-1v-2h1a4 4 0 100-8h-1v-2h1a6 6 0 010 12z" fill="#b22639"/><path data-name="パス 1107" d="M37.996 69.999h-1v-2h1a3 3 0 100-6h-1v-2h1a5 5 0 110 10z" fill="#b22639"/><path data-name="パス 1108" d="M37.46 30a4.5 4.5 0 01-3.207-1.328l-.965-.965 1.415-1.414.964.965a2.535 2.535 0 103.585-3.586l-.965-.965 1.415-1.414.964.965A4.535 4.535 0 0137.459 30z" fill="#b22639"/><path data-name="パス 1109" d="M46.996 55h-2v-2a5.006 5.006 0 00-5-5h-1v-2h1a7.008 7.008 0 017 7z" fill="#b22639"/><path data-name="パス 1110" d="M49.996 51.392V53h12V42.694a50.128 50.128 0 01-12 8.698z" fill="#518c95"/><path data-name="パス 1111" d="M53.996 45h4v4h-4z" fill="#0071bc"/><path data-name="パス 1112" d="M54.11 48.996h3.885v-2.785q-1.872 1.485-3.885 2.785z" fill="#005a97"/></g><rect data-name="長方形 2365" width="190" height="250" rx="10" transform="translate(756 5248)" fill="#f3ba18"/><rect data-name="長方形 2364" width="190" height="250" rx="10" transform="translate(420 5248)" fill="#34be8e"/><path data-name="パス 1076" d="M510 5428l4.816-10 5.184 10z" fill="#373943"/><path data-name="パス 1135" d="M505.2 5275.674a7.684 7.684 0 001.806 1.582 5.971 5.971 0 01.77-1.372 8.255 8.255 0 01-2.226-1.778 11.5 11.5 0 001.4-2.394 3.892 3.892 0 01.308-.588l-.672-.724a5.1 5.1 0 01-.812.042h-.574v-1.152a5.967 5.967 0 01.084-1.09h-1.694a6.428 6.428 0 01.084 1.064v1.176h-.7a8.548 8.548 0 01-1.106-.056v1.554a9.586 9.586 0 011.176-.056h2.282a8.318 8.318 0 01-1.526 2.154 9.656 9.656 0 01-2.408 1.89 5.424 5.424 0 01.714 1.456 9.435 9.435 0 001.554-1.19v3.514a8.375 8.375 0 01-.084 1.456h1.694a9.941 9.941 0 01-.07-1.428zm5.936-2.074h1.484c.49 0 .924.028 1.372.07v-1.58a9.105 9.105 0 01-1.372.07h-1.484v-2.46a8.207 8.207 0 01.1-1.456h-1.75a9.909 9.909 0 01.1 1.456v2.46h-1.05a9.451 9.451 0 01-1.376-.07v1.582c.448-.042.9-.07 1.372-.07h1.05v5.474h-1.526a12.7 12.7 0 01-1.61-.084v1.694a11.29 11.29 0 011.582-.1h4.788a11.5 11.5 0 011.6.1v-1.694a12.008 12.008 0 01-1.6.084h-1.68zm8.19 5.14a10.542 10.542 0 01-3.976 1.16 4.516 4.516 0 01.85 1.388 16.626 16.626 0 002.146-.56 12.182 12.182 0 002.548-1.246l-.882-.742h3.808l-.756.686a10.532 10.532 0 004.676 1.874 4.693 4.693 0 01.868-1.37 11.1 11.1 0 01-4.032-1.19h1.124c.7 0 1.134.014 1.568.056a2.456 2.456 0 01-.042-.56c0-.056-.014-.364-.014-.91v-3.542a12.585 12.585 0 01.056-1.5c-.49.042-.882.056-1.568.056h-7.452a15.75 15.75 0 01-1.554-.056 13.853 13.853 0 01.056 1.5v3.542c0 .7-.028 1.12-.056 1.47a15.57 15.57 0 011.554-.056zm-1.078-5.24h7.452v.644h-7.452zm0 1.694h7.452v.644h-7.452zm0 1.694h7.452v.686h-7.452zm8.442-7.248a8.512 8.512 0 01.056-1.078 12.167 12.167 0 01-1.582.07h-6.356a12.4 12.4 0 01-1.6-.07 6.971 6.971 0 01.07 1.078v1.078c0 .378-.028.7-.056 1.05.42-.028.91-.042 1.54-.042h6.458c.616 0 1.092.014 1.512.042-.028-.322-.042-.63-.042-1.05zm-1.554.182v.77h-6.314v-.77z" fill="#373943"/><g data-name="グループ 1742"><g data-name="グループ 1714"><g data-name="グループ 1625"><path data-name="長方形 436" fill="#e8a181" d="M352.876 5327.013h6.018v6.292h-6.018z"/></g><g data-name="グループ 1626"><path data-name="パス 184" d="M375.611 5306.271s-1.146-3.594 1.442-4.044 2.9 4.092 2.9 4.092z" fill="#f4ae87"/></g><g data-name="グループ 1627"><path data-name="パス 185" d="M346.185 5356.284h18.874l5.743 19.694v22.989h-5.743a69.771 69.771 0 01-2.339-15.182c-.063-1.873.288-6.985.288-6.985l-6.211-12.81a1.3 1.3 0 00-1.167-.731h-.017a1.3 1.3 0 00-1.167.731l-6.21 12.81a49.491 49.491 0 01.669 7.806c0 6.566-2.722 14.362-2.722 14.362h-5.743v-22.99z" fill="#448fea"/></g><g data-name="グループ 1628"><path data-name="パス 187" d="M364.938 5343.048c-3.912-3.709-8.5-4.129-3.671-10.372 4.063-5.247 10.27-9.435 11-11s2.877-15.4 2.877-15.4l4.853-.123-.878 16a6.381 6.381 0 01-.769 2.457l-7.576 10.211z" fill="#002245"/></g><g data-name="グループ 1629"><path data-name="パス 188" d="M336.291 5306.271s1.146-3.594-1.442-4.044-2.9 4.092-2.9 4.092z" fill="#f4ae87"/></g><g data-name="グループ 1630"><path data-name="パス 189" d="M346.897 5343.048c3.912-3.709 8.5-4.129 3.671-10.372-4.063-5.247-10.27-9.435-11-11s-2.878-15.4-2.878-15.4l-4.853-.123.878 16a6.382 6.382 0 00.769 2.457l7.581 10.211z" fill="#002245"/></g><g data-name="グループ 1631"><path data-name="長方形 438" fill="#230603" d="M331.204 5307.801l.054-2.734 6.701.133-.054 2.734z"/></g><g data-name="グループ 1632"><path data-name="パス 190" d="M349.483 5330.727h12.513a5.048 5.048 0 015.027 5.517l-1.948 20.87h-18.887l-1.735-20.923a5.048 5.048 0 015.03-5.464z" fill="#002245"/><g data-name="グループ 852" clip-path="url(#a)" transform="translate(344.435 5330.727)"><g data-name="グループ 851"><path data-name="長方形 439" fill="#230603" d="M10.981-1.687h.647v31.001h-.647z"/></g></g></g><g data-name="グループ 1633"><path data-name="パス 192" d="M354.907 5331.982h1.983l1.367 16.96-1.988 2.905a.461.461 0 01-.763 0l-1.967-2.9z" fill="#f9c273"/></g><g data-name="グループ 1634"><path data-name="パス 193" d="M353.915 5332.899a2.058 2.058 0 102.058-2.057 2.057 2.057 0 00-2.058 2.057z" fill="#34be8e"/></g><g data-name="グループ 1635"><path data-name="パス 194" d="M355.937 5330.839s3.014 4.617 3.834 4.8 1.915-4.741 1.915-4.741z" fill="#230603"/></g><g data-name="グループ 1636"><path data-name="パス 195" d="M356.008 5330.839s-3.014 4.617-3.834 4.8-1.915-4.741-1.915-4.741z" fill="#230603"/></g><g data-name="グループ 1637"><path data-name="パス 196" d="M352.754 5318.04c-2.3 2.026-3.946 6.782-1.921 9.084s6.952 1.275 9.254-.749a5.551 5.551 0 00-7.333-8.334z" fill="#f4ae87"/><g data-name="グループ 860" clip-path="url(#b)" transform="translate(349.918 5316.657)"><g data-name="グループ 859"><g data-name="グループ 858"><path data-name="パス 197" d="M6.289 15.439s2.666-5.491 3.348-7.062S7.95 6.46 7.95 6.46-1.45-4.26-.59-5.497 12.339-.56 13.167.656s2.375 9.326 1.529 10.435-7.2 1.478-7.2 1.478z" fill="#fb5d51"/></g></g></g></g><g data-name="グループ 1638"><path data-name="パス 50" d="M345.884 5399.725l.042 2.986-9.971.145s-.721-2.08 2.729-2.727 5.028-.969 5.028-.969z" fill="#fb5d51"/></g><g data-name="グループ 1639"><path data-name="パス 50" d="M365.516 5399.725l-.042 2.986 9.971.145s.721-2.08-2.729-2.727-5.028-.969-5.028-.969z" fill="#fb5d51"/></g><path data-name="線 121" fill="none" stroke="#f3ba18" stroke-width="2" d="M355.5 5296.501v11"/><path data-name="線 122" fill="none" stroke="#f3ba18" stroke-width="2" d="M340.5 5299.501l8 8"/><path data-name="線 123" fill="none" stroke="#f3ba18" stroke-width="2" d="M370.5 5299.501l-8 8"/></g><g data-name="グループ 1715"><g data-name="グループ 925"><path data-name="長方形 448" fill="#f4ae87" d="M277.052 5326.336h5.996v6.268h-5.996z"/></g><g data-name="グループ 926"><path data-name="パス 240" d="M289.239 5399.949v3.164h10.638s.738-2.215-2.952-2.847-5.377-.949-5.377-.949z" fill="#014596"/></g><g data-name="グループ 927"><path data-name="パス 241" d="M270.685 5399.949v3.164h-10.638s-.738-2.215 2.951-2.847 5.377-.949 5.377-.949z" fill="#014596"/></g><g data-name="グループ 928"><path data-name="パス 242" d="M299.95 5306.343s-1.141-3.581 1.437-4.03 2.89 4.076 2.89 4.076z" fill="#f4ae87"/></g><g data-name="グループ 930"><g data-name="グループ 929"><path data-name="パス 243" d="M270.435 5357.454h18.8l5.722 19.621v22.9h-5.722a69.485 69.485 0 01-2.33-15.125c-.064-1.867.285-6.959.285-6.959l-6.178-12.76a1.293 1.293 0 00-1.162-.727h-.017a1.291 1.291 0 00-1.162.727l-6.188 12.762a49.265 49.265 0 01.667 7.777c0 6.541-2.711 14.308-2.711 14.308h-5.727v-22.9z" fill="#34be8e"/></g></g><g data-name="グループ 931"><path data-name="パス 244" d="M273.704 5331.167h12.467a5.029 5.029 0 015.008 5.5l-1.939 20.793h-18.816l-1.728-20.845a5.029 5.029 0 015.008-5.448z" fill="#002245"/></g><g data-name="グループ 932"><path data-name="パス 245" d="M289.273 5343.151c-3.9-3.7-8.472-4.114-3.656-10.333 4.047-5.227 10.231-9.4 10.96-10.962s2.867-15.345 2.867-15.345l4.834-.122-.875 15.947a6.379 6.379 0 01-.765 2.447l-7.551 10.174z" fill="#002245"/></g><g data-name="グループ 933"><path data-name="長方形 449" fill="#00003a" d="M298.282 5305.304l6.677-.134.054 2.725-6.676.134z"/></g><g data-name="グループ 934"><path data-name="パス 246" d="M260.063 5368.963s1.141 3.581-1.438 4.03-2.892-4.078-2.892-4.078z" fill="#f4ae87"/></g><g data-name="グループ 935"><path data-name="パス 247" d="M270.74 5332.15c3.9 3.7 8.472 4.114 3.656 10.333-4.047 5.227-10.232 9.4-10.96 10.96s-2.867 15.345-2.867 15.345l-4.835.122.874-15.946a6.36 6.36 0 01.766-2.447l7.552-10.174z" fill="#002245"/></g><g data-name="グループ 936"><path data-name="長方形 450" fill="#00003a" d="M255 5367.406l6.676-.133.054 2.725-6.676.132z"/></g><g data-name="グループ 939"><path data-name="パス 248" d="M273.704 5331.167h12.467a5.029 5.029 0 015.008 5.5l-1.939 20.793h-18.816l-1.728-20.845a5.029 5.029 0 015.008-5.448z" fill="#002245"/><g data-name="グループ 938" clip-path="url(#c)" transform="translate(268.674 5331.163)"><g data-name="グループ 937"><path data-name="長方形 451" fill="#00003a" d="M10.808-1.681h.91v30.887h-.91z"/></g></g></g><g data-name="グループ 941"><g data-name="グループ 940"><path data-name="パス 250" d="M279.074 5332.389h1.975l1.362 16.9-1.981 2.894a.46.46 0 01-.76 0l-1.96-2.892z" fill="#2962ff"/></g></g><g data-name="グループ 942"><path data-name="パス 251" d="M278.086 5333.201a2.05 2.05 0 102.049-2.049 2.049 2.049 0 00-2.049 2.049z" fill="#34be8e"/></g><g data-name="グループ 943"><path data-name="パス 252" d="M280.135 5331.152s3 4.6 3.822 4.781 1.907-4.724 1.907-4.724z" fill="#00003a"/></g><g data-name="グループ 944"><path data-name="パス 253" d="M280.14 5331.152s-3 4.6-3.82 4.781-1.909-4.724-1.909-4.724z" fill="#00003a"/></g><g data-name="グループ 945"><path data-name="パス 254" d="M282.445 5317.548c2.306 2 3.979 6.729 1.977 9.036s-6.918 1.318-9.225-.683a5.53 5.53 0 017.249-8.354z" fill="#f4ae87"/></g><g data-name="グループ 948"><path data-name="パス 255" d="M282.445 5317.548c2.306 2 3.979 6.729 1.977 9.036s-6.918 1.318-9.225-.683a5.53 5.53 0 017.249-8.354z" fill="#f4ae87"/><g data-name="グループ 947" clip-path="url(#d)" transform="translate(273.291 5316.194)"><g data-name="グループ 946"><path data-name="パス 256" d="M6.8 13.883S3.113 9.926 2.424 8.365s1.667-1.921 1.667-1.921l-.616-2.338s.948-2.063.089-3.291S-.33-.52-1.146.697s-2.3 9.309-1.453 10.407 7.185 1.424 7.185 1.424z" fill="#f3ba18"/></g></g></g><g data-name="グループ 949"><path data-name="パス 258" d="M277.995 5322.18l4.322-4.981c.748-.862.8-5.181-2.776-4.928s-6.209 6.861-6.081 8.65 3.372 2.601 4.535 1.259z" fill="#f3ba18"/></g></g><path data-name="線 121" fill="none" stroke="#f3ba18" stroke-width="2" d="M286.5 5296.5v11"/><path data-name="線 122" fill="none" stroke="#f3ba18" stroke-width="2" d="M271.5 5299.5l8 8"/><path data-name="線 123" fill="none" stroke="#f3ba18" stroke-width="2" d="M301.5 5299.5l-8 8"/></g><rect data-name="長方形 2358" width="150" height="40" rx="10" transform="translate(440 5438)" fill="#fff"/><path data-name="パス 1132" d="M487.144 5451.216a14.4 14.4 0 01-1.792-.08c.048.528.08 1.088.08 1.712v10.56a15.044 15.044 0 01-.1 1.808h1.92v-.896h7.488v.9h1.92a16.209 16.209 0 01-.1-1.936v-10.5a15.1 15.1 0 01.08-1.648 12.616 12.616 0 01-1.712.08zm.112 3.744v-2.032h7.488v2.032zm0 1.68h7.488v2.06h-7.488zm0 3.744h7.488v2.24h-7.488zm23.9-7.024v-.768h1.424a16.269 16.269 0 011.76.08v-1.616a15.065 15.065 0 01-1.872.1h-6.428a13.792 13.792 0 01-1.808-.1v1.632a13.234 13.234 0 011.824-.1h1.3v.768h-1.172a12.225 12.225 0 01-1.472-.064 10.29 10.29 0 01.064 1.1v1.584a8.312 8.312 0 01-.064 1.152 13.476 13.476 0 011.52-.064h6.128a13.658 13.658 0 011.52.064 8.413 8.413 0 01-.064-1.208v-1.52a6.679 6.679 0 01.064-1.1 13.289 13.289 0 01-1.472.064zm-1.328 0h-1.148v-.768h1.152zm-2.48 1.28v1.136h-1.18v-1.136zm1.328 0h1.152v1.136h-1.148zm2.48 0h1.168v1.136h-1.164zm-7.76.368a8.058 8.058 0 01.912.048v-1.632a5.351 5.351 0 01-.944.064h-.3v-1.3a11.179 11.179 0 01.08-1.664h-1.808a10.2 10.2 0 01.1 1.664v1.3h-.64a4.452 4.452 0 01-1.056-.08v1.664a6.049 6.049 0 011.056-.064h.464a20.526 20.526 0 01-.592 2.128 10.138 10.138 0 01-1.3 2.736 6.709 6.709 0 01.8 1.76 12.43 12.43 0 001.376-3.532c-.08 1.392-.1 1.76-.1 2.176v3.164a13.086 13.086 0 01-.112 1.952h1.824a15.588 15.588 0 01-.1-1.952v-4.208c0-.624-.016-1.04-.048-2.16a10.085 10.085 0 00.96 1.952 8.038 8.038 0 01.7-1.44 7.916 7.916 0 01-1.552-2.576zm6.624 6.256h2.7a11.776 11.776 0 011.632.08v-1.584a11.855 11.855 0 01-1.652.08h-6.82a11.581 11.581 0 01-1.664-.08v1.584a15.5 15.5 0 011.68-.08h2.48v2.112c0 .288-.08.336-.608.336a6.16 6.16 0 01-1.12-.128 5.79 5.79 0 01.3 1.6c.9.032.9.032 1.136.032a2.835 2.835 0 001.524-.256 1.141 1.141 0 00.416-1.04zm-4.92-2.064a10.511 10.511 0 011.58-.08h5.248a10.1 10.1 0 011.52.08v-1.536a15.519 15.519 0 01-1.632.064h-5.1a11.254 11.254 0 01-1.616-.08zm5.66 2.944a9.021 9.021 0 002.848 2.768 5.828 5.828 0 011.092-1.328 7.855 7.855 0 01-2.692-2.224zm-4.784-.8a5.849 5.849 0 01-1.04 1.408 6.115 6.115 0 01-1.472 1.148 5.944 5.944 0 011.28 1.092 9.767 9.767 0 002.64-3.008zm22.752-4.144a5.633 5.633 0 01-1.12.064h-4.72a4.925 4.925 0 01-1.024-.08v1.7a4.628 4.628 0 01.72-.064 9.135 9.135 0 002.064 3.308 11.228 11.228 0 01-3.408 1.552v-2.4a7.6 7.6 0 01.048-1.168 5.68 5.68 0 01-1.072.048h-2.752c-.5 0-.832-.016-1.232-.048a7.4 7.4 0 01.08 1.264v2.352a12.212 12.212 0 01-.1 1.584h1.636v-.768h1.872v.544h1.58a7.647 7.647 0 01-.06-1.136 5.573 5.573 0 01.816 1.36 12.939 12.939 0 003.844-2.048 12.4 12.4 0 004 2 8.7 8.7 0 01.8-1.712 11.2 11.2 0 01-3.572-1.452 11.8 11.8 0 002.16-3.376 4.766 4.766 0 01.32-.656zm-1.3 1.6a8.094 8.094 0 01-1.584 2.3 6.653 6.653 0 01-1.6-2.3zm-9.58 2.752h1.872v1.584h-1.872zm-1.568-9.088a10.626 10.626 0 011.344-.064h2.3a10.955 10.955 0 011.344.064v-1.552a7.725 7.725 0 01-1.344.08h-2.3a7.725 7.725 0 01-1.344-.08zm-.512 2.368a9.67 9.67 0 011.3-.064h3.372a7.232 7.232 0 011.216.064v-1.648a8.524 8.524 0 01-1.3.064h-3.3a7.134 7.134 0 01-1.3-.08zm.544 2.256a9 9 0 011.056-.048h2.848a9.157 9.157 0 011.024.048v-1.488a7.871 7.871 0 01-1.024.048h-2.848a8.81 8.81 0 01-1.056-.048zm0 2.256a9.071 9.071 0 011.04-.044h2.832a6.672 6.672 0 011.056.048v-1.492a7.87 7.87 0 01-1.024.044h-2.848a8.81 8.81 0 01-1.056-.048zm10.016-6.736v2.816c0 .848.336 1.04 1.888 1.04 2.032 0 2.208-.192 2.4-2.816a6.3 6.3 0 01-1.44-.576c-.1 1.92-.1 1.92-.736 1.92-.384 0-.5-.064-.5-.272v-2.368a10.265 10.265 0 01.064-1.36 11.234 11.234 0 01-1.36.064H524.2a10.259 10.259 0 01-1.264-.064 5.518 5.518 0 01.08 1.072c0 2.1-.4 3.072-1.664 4a8.4 8.4 0 011.392 1.1 4.666 4.666 0 001.184-1.52 6.539 6.539 0 00.656-3.04zm11.984 10.064a4.636 4.636 0 01-2.432-2.224c.24-.752.336-1.12.416-1.44.144-.656.144-.672.224-.944l-1.776-.336a9.918 9.918 0 01-.32 1.728 9.473 9.473 0 01-2.752 4.528 4.355 4.355 0 011.376 1.316 11.334 11.334 0 002.192-3.14c1.312 1.94 3.408 2.752 7.152 2.752 1.264 0 2.1-.016 3.408-.048a6.223 6.223 0 01.448-1.824c-1.632.144-2.72.192-3.648.192a18.7 18.7 0 01-2.608-.16v-2.752h3.024a10.8 10.8 0 011.568.08v-1.712a8.207 8.207 0 01-1.568.1h-3.024v-2.052h2.1a11.471 11.471 0 011.648.08v-1.7a11.2 11.2 0 01-1.648.08h-6.132a10.723 10.723 0 01-1.616-.08v1.7a11.39 11.39 0 011.616-.08h2.352zm-.272-10.48h-4.176c-.64 0-1.184-.016-1.76-.064.032.368.064.768.064 1.184v1.232a7.071 7.071 0 01-.08 1.264h1.776v-2H544.2v2h1.728a10.331 10.331 0 01-.064-1.248v-1.248a8.8 8.8 0 01.064-1.184c-.592.048-1.136.064-1.776.064h-4.32v-.608a4.858 4.858 0 01.08-1.008h-1.968a5.178 5.178 0 01.1 1.024z" fill="#373943" stroke="rgba(0,0,0,0)"/><rect data-name="長方形 2359" width="150" height="40" rx="10" transform="translate(440 5368)" fill="#fff"/><path data-name="パス 1133" d="M505.384 5392.3c-.224-.128-.3-.192-.576-.368a14.311 14.311 0 00-4.384-2.252c-.016-.384-.016-.384-.064-1.936.624-.032.864-.048 1.088-.064 1.2-.112 1.92-.192 2.16-.224.368-.048.768-.1 1.04-.112l-.048-1.76a11.841 11.841 0 01-1.984.352c-1.472.16-1.472.16-2.272.208-.016-.992-.016-1.184-.032-1.584 1.408-.08 2.032-.128 3.44-.32a10.008 10.008 0 011.264-.14l-.08-1.776a21.647 21.647 0 01-4.608.608 9.919 9.919 0 01.112-1.952h-2.032a11.416 11.416 0 01.08 2.016c-.4.016-.944.032-1.2.032a21.039 21.039 0 01-4.3-.336l-.016 1.776h.256c.048 0 .176 0 .352.016 1.072.08 3.136.16 3.92.16.24 0 .5 0 1.008-.016.016.912.016 1.456.016 1.6-.448.016-.992.032-1.312.032a20.632 20.632 0 01-3.728-.272l-.032 1.728c.24 0 .4 0 .608.016 1.328.1 1.92.112 2.9.112.336 0 .832-.016 1.6-.032.016.64.016.64.032.864v.352a3.083 3.083 0 01.016.384 8.359 8.359 0 00-1.072-.064c-2.688 0-4.272 1.024-4.272 2.768 0 1.584 1.344 2.5 3.68 2.5a4.26 4.26 0 002.64-.688 2.5 2.5 0 00.9-2.16v-.176a7.12 7.12 0 01.864.4 10.8 10.8 0 012.952 2.184zm-6.752-1.232v.384a2.028 2.028 0 01-.192 1.028 1.661 1.661 0 01-1.392.512c-1.136 0-1.824-.368-1.824-.96 0-.688.784-1.1 2.08-1.1a5.616 5.616 0 011.328.14zm13.248-10.332a16.346 16.346 0 01-.48 2.784c-.352.016-.624.016-.816.016a11.109 11.109 0 01-2.16-.144v1.824l.848.016c.336.016.432.016.64.016.192 0 .288 0 1.008-.016a24.615 24.615 0 01-1.5 3.776 14.564 14.564 0 01-1.552 2.56l1.832 1.024.3-.576c.608-1.12.752-1.408 1.12-2.192a30.712 30.712 0 001.76-4.64c1-.084 1.976-.192 2.552-.284a3.12 3.12 0 01.512-.08l-.044-1.844a13.724 13.724 0 01-2.56.448c.176-.7.256-1.024.336-1.408a8.009 8.009 0 01.256-1.072zm10.24 4.164a25.257 25.257 0 00-4.512-2.144l-.96 1.544a19.583 19.583 0 014.608 2.24zm-.064 7.212a2.865 2.865 0 01-.24-.224 5.9 5.9 0 00-.56-.432 10 10 0 00-2.528-1.472 16.988 16.988 0 01-.144-2.192 5.333 5.333 0 01.192-1.616l-1.856-.096a8.487 8.487 0 00-.128 1.62c0 .48.032 1.1.08 1.84a7.947 7.947 0 00-1.488-.148c-2.032 0-3.456 1.136-3.456 2.752 0 1.632 1.372 2.688 3.488 2.688a3.694 3.694 0 002.656-.9 2.557 2.557 0 00.688-1.7c0-.064-.016-.176-.032-.32a9.677 9.677 0 012.448 1.988zm-5.12-.88s.032.384.032.544c0 .9-.528 1.344-1.616 1.344-.992 0-1.568-.384-1.568-1.04 0-.672.672-1.1 1.712-1.1a4.033 4.033 0 011.44.252zm17.152-7.532l.016-1.264a3.068 3.068 0 01-.32.016 18.686 18.686 0 01-3.9-.592 8.893 8.893 0 01-2.128-.784l-.7 1.792c.24.064.256.08.544.176a11.885 11.885 0 003.216.848l.32.032.208.032a4.8 4.8 0 00-1.152.944 3.163 3.163 0 00-.88 2.1 3.451 3.451 0 001.208 2.424 5.325 5.325 0 01.992 1.328 1.923 1.923 0 01.256.9 1.127 1.127 0 01-1.248 1.1 4.305 4.305 0 01-2.752-1.312 8.045 8.045 0 01-.448 1.936 5.517 5.517 0 003.36 1.248 3.209 3.209 0 002.176-.7 2.887 2.887 0 001.024-2.196 3.582 3.582 0 00-.32-1.408 5.968 5.968 0 00-1.1-1.52c-.96-1.024-1.024-1.088-1.184-1.408a1.392 1.392 0 01-.144-.576c0-.592.56-1.28 1.584-1.92a3.783 3.783 0 011.36-.576l.016-.624a11.356 11.356 0 011.68 2.384l1.12-.592a11.464 11.464 0 00-1.68-2.352zm.032 4.336a16.475 16.475 0 012.448 5.7l1.888-.9a19.207 19.207 0 00-2.608-5.536zm4.672-3.584a9.686 9.686 0 00-1.664-2.256l-1.072.56a13.3 13.3 0 011.632 2.32zm-13.008 3.148a15.862 15.862 0 01-2.1 5.376 6.2 6.2 0 011.716 1.056 19.21 19.21 0 002.048-5.132c.064-.256.112-.432.128-.48.016-.032.032-.128.064-.224z" fill="#373943" stroke="rgba(0,0,0,0)"/><path data-name="パス 1079" d="M510 5358l4.816-10 5.184 10z" fill="#373943"/><path data-name="パス 1080" d="M846 5418l4.816 10 5.184-10z" fill="#373943"/><rect data-name="長方形 2361" width="150" height="40" rx="10" transform="translate(776 5368)" fill="#fff"/><path data-name="パス 1139" d="M828.488 5385.232a2.389 2.389 0 01.3-.016c.128 0 .352 0 .64.016.272.016.432.016.512.016h.928a1.355 1.355 0 00.208-.016 34.184 34.184 0 01-2.86 8.608l2.016.784a54.246 54.246 0 001.792-5.3c.416-1.456.816-3.152.992-4.144a21.811 21.811 0 002.624-.336c.384-.064.384-.064.512-.08l-.08-1.84a13.279 13.279 0 01-2.736.48c.064-.368.08-.464.16-.912a9.092 9.092 0 01.3-1.536l-2.112-.192a2.171 2.171 0 01.016.288 19.42 19.42 0 01-.3 2.448c-.368.016-.544.016-.736.016a12.73 12.73 0 01-2.144-.144zm12.688.352c-1.008-.016-1.152-.016-1.584-.016a20.533 20.533 0 00-4.768.512l.144 1.76a17.268 17.268 0 014.224-.464 16.657 16.657 0 012.016.112zm-6.3 3.36a4.512 4.512 0 00-1.184 2.768 2.312 2.312 0 001.132 1.968 6.5 6.5 0 003.216.64 18.619 18.619 0 002.976-.256c.368-.064.5-.08.784-.112l-.144-1.968a12.245 12.245 0 01-3.632.592c-1.6 0-2.4-.416-2.4-1.232a2.655 2.655 0 01.832-1.76zm11.184-7.152a2.048 2.048 0 01.16.544c.176.9.464 2.288.544 2.528a5.993 5.993 0 00-2.564 4.912c0 2.16 1.1 3.6 2.752 3.6a2.677 2.677 0 001.488-.432 7.179 7.179 0 001.9-1.76 19.22 19.22 0 002.916-5.968 3.775 3.775 0 011.444.684 2.929 2.929 0 011.168 2.48 3.834 3.834 0 01-.548 1.972 4.659 4.659 0 01-2.24 1.712 7.265 7.265 0 01-2.608.624 4.645 4.645 0 01.992 1.872 11.735 11.735 0 002.608-.768 5.616 5.616 0 003.744-5.264 4.72 4.72 0 00-1.952-3.968 5.528 5.528 0 00-2.144-.96c.064-.224.272-1.008.5-1.872a1.7 1.7 0 01.16-.448l-2.016-.4a12.279 12.279 0 01-.464 2.48h-.436a7.745 7.745 0 00-3.088.64 15.724 15.724 0 01-.384-2.576zm1.18 4.976a17.189 17.189 0 001.312 3.68c-.544.688-1.056 1.04-1.5 1.04-.64 0-1.088-.72-1.088-1.76a4.045 4.045 0 011.276-2.96zm2.512 2.112a1.37 1.37 0 00-.08-.24 18.588 18.588 0 01-.96-3.024 5.307 5.307 0 012.752-.64 17.606 17.606 0 01-1.6 3.7 1.3 1.3 0 00-.1.208zm15.548-1.52a6.28 6.28 0 00.656-.416 35.879 35.879 0 001.76-1.312c.544-.464 1.712-1.5 2.512-2.24a3.43 3.43 0 01.832-.656l-.992-1.408a2.358 2.358 0 01-.992.208c-1.552.112-3.5.192-4.864.192a14.47 14.47 0 01-1.888-.1l.08 1.92a5.4 5.4 0 01.768-.08c2.9-.128 3.92-.192 4.528-.272l.016.016-.288.288a53.424 53.424 0 01-4.784 4.16 14.39 14.39 0 01-2.256 1.5l1.092 1.74a9.858 9.858 0 016.592-2.688c1.936 0 3.168.816 3.168 2.064 0 1.136-.576 1.824-1.9 2.32a4.3 4.3 0 00-.736-1.44 3.444 3.444 0 00-2.772-1.316c-1.6 0-2.752.96-2.752 2.288a2.284 2.284 0 00.96 1.84 5.413 5.413 0 003.1.736 7.916 7.916 0 003.872-.912 3.91 3.91 0 002.176-3.536c0-2.192-1.76-3.6-4.5-3.6a7.81 7.81 0 00-3.36.736zm2.3 5.7a4.331 4.331 0 01-.832.064c-1.184 0-1.9-.368-1.9-1.008 0-.448.368-.736.944-.736.9-.004 1.508.572 1.796 1.676z" fill="#373943" stroke="rgba(0,0,0,0)"/><rect data-name="長方形 2362" width="150" height="40" rx="10" transform="translate(776 5298)" fill="#fff"/><path data-name="パス 1140" d="M804.456 5314.9c0-.176 0-.176.016-1.232l.016-.96a10.092 10.092 0 01.08-1.536h-2.208a10.071 10.071 0 01.08 1.536v.944c0 .288 0 .576-.016 1.248h-4.032a11.565 11.565 0 01-2.08-.112v2.012a16.434 16.434 0 012.048-.08h3.968a6.917 6.917 0 01-.784 3.216 7.386 7.386 0 01-3.856 3.152 4.97 4.97 0 011.456 1.728 9.633 9.633 0 004.08-3.584 8.833 8.833 0 001.152-4.512h3.28a16.434 16.434 0 012.044.08v-2.016a11.461 11.461 0 01-2.08.112zm9.744-3.488a7.783 7.783 0 01.08 1.648l-.064 8.64a5.642 5.642 0 01-.144 1.648l1.028 1.228a4.584 4.584 0 01.956-.276 14.586 14.586 0 005.824-2.188 11.928 11.928 0 003.568-3.728 7.516 7.516 0 01-1.52-1.632 9.455 9.455 0 01-3.264 3.664 11.508 11.508 0 01-4.364 1.76l.08-9.136a12.381 12.381 0 01.1-1.616zm15.36 3.888a16.007 16.007 0 011.456 3.872l1.808-.576a18.456 18.456 0 00-1.568-3.796zm3.424-.672a17.594 17.594 0 011.456 3.76l1.776-.56a15.718 15.718 0 00-1.552-3.68zm5.5-.16a7.1 7.1 0 01-.284 1.832 9.2 9.2 0 01-3.632 5.552 10.379 10.379 0 01-2.72 1.472 5.812 5.812 0 011.28 1.588 12.281 12.281 0 004.88-3.856 13.658 13.658 0 002.208-5.328 3.367 3.367 0 01.224-.816zm7.28-1.408a19.371 19.371 0 014.276 2.188l1.024-1.76a26.348 26.348 0 00-4.256-2.064zm-1.264 3.884a18.571 18.571 0 014.34 2.336l.992-1.808a25.253 25.253 0 00-4.256-2.172zm9.5-5.28a10.8 10.8 0 011.68 2.384l1.12-.592a10.369 10.369 0 00-1.672-2.356zm-8.584 12.992a9.447 9.447 0 011.12-.272c5.728-1.12 9.104-3.744 11.088-8.592a7.779 7.779 0 01-1.664-1.424 11 11 0 01-6.48 7.056 14.214 14.214 0 01-4.624 1.04zm13.3-12.24a9.253 9.253 0 00-1.668-2.256l-1.072.56a11.788 11.788 0 011.632 2.32zm9.536 1.328a3.5 3.5 0 011.616.48 3.964 3.964 0 011.968 3.552 4.48 4.48 0 01-2.224 4 8.5 8.5 0 01-3.184.88 5.1 5.1 0 01.972 1.872 10.46 10.46 0 002.512-.672 6.164 6.164 0 003.888-5.968c0-3.6-2.5-5.936-6.336-5.936a7.182 7.182 0 00-5.5 2.24 6.873 6.873 0 00-1.764 4.656c0 2.576 1.312 4.432 3.136 4.432 1.312 0 2.336-.944 3.248-3.008a23.147 23.147 0 001.664-6.528zm-1.952.016a21.087 21.087 0 01-1.328 5.408c-.576 1.376-1.12 2.048-1.648 2.048-.7 0-1.264-1.04-1.264-2.352a5.357 5.357 0 012.176-4.32 4.073 4.073 0 012.064-.784zm13.948 4.832c0 .176 0 .288-.016.5h-2.288a9.664 9.664 0 01-1.68-.1v1.708a10.222 10.222 0 011.68-.1h2.048a3.637 3.637 0 01-1.136 1.776 6.616 6.616 0 01-2.956 1.432 5.84 5.84 0 011.136 1.568 7.558 7.558 0 003.724-2.464 5.627 5.627 0 00.992-2.3h2.064v3.1c0 1.12.512 1.392 2.688 1.392 3.072 0 3.36-.24 3.712-2.944a5.459 5.459 0 01-1.728-.56 3.743 3.743 0 01-.288 1.6c-.176.224-.56.3-1.44.3a3.7 3.7 0 01-1.024-.08c-.24-.064-.256-.1-.256-.432v-2.38h2.544a12.206 12.206 0 011.68.1v-1.716a9.556 9.556 0 01-1.68.1h-2.544v-1.732a12.9 12.9 0 011.536.064v-.688a16.037 16.037 0 002.64 1.44 6.527 6.527 0 01.9-1.584 14.2 14.2 0 01-2.56-1.216 12.393 12.393 0 001.44-1.472c.32-.352.352-.4.448-.5l-1.472-.832a9.434 9.434 0 01-1.664 1.936c-.336-.256-.512-.4-.944-.768a16.523 16.523 0 001.184-1.2c.368-.432.576-.672.624-.736l-1.472-.816c-.048.08-.048.08-.128.208a2.806 2.806 0 01-.336.464 8.412 8.412 0 01-.944 1.024 3.939 3.939 0 01-.992-1.744 9.213 9.213 0 01-1.376.064H879.4a9.143 9.143 0 01-1.328-.08v1.664l-.512-.416-1.312.976a10.961 10.961 0 012.24 2.1 13.724 13.724 0 01-3.056 1.552 6.054 6.054 0 01.944 1.472 15.773 15.773 0 002.816-1.552v.7c.4-.032.576-.048 1.072-.064zm1.712-1.232h1.856v1.728h-1.872v-.368zm-.576-4.832a10.347 10.347 0 01-1.568 1.712 13.766 13.766 0 00-1.744-1.648 7.122 7.122 0 01.976-.064zm-.608 3.328h-.432a13.359 13.359 0 002.7-2.9 13.4 13.4 0 002.72 2.9h-4.988zm15.524 4.752a3.206 3.206 0 01-1.52 2.256 7.994 7.994 0 01-3.124 1.056 5.02 5.02 0 01.928 1.568 8.182 8.182 0 004.064-1.92 4.907 4.907 0 001.52-2.96h1.44v3.12c0 1.2.48 1.424 3.136 1.424 1.808 0 2.5-.128 2.944-.544.4-.384.56-.976.72-2.752a6.627 6.627 0 01-1.648-.672 5.081 5.081 0 01-.288 2.048c-.192.272-.512.336-1.744.336-1.248 0-1.392-.048-1.392-.5v-2.46h1.376c.656 0 1.28.016 1.7.048a11.94 11.94 0 01-.08-1.7v-5.84a19.041 19.041 0 01.08-2 12.36 12.36 0 01-1.7.08h-7.376a12.247 12.247 0 01-1.68-.08 19.492 19.492 0 01.08 2v5.84a12.359 12.359 0 01-.08 1.7c.416-.032.96-.048 1.728-.048zm-.88-7.808h7.216v1.04h-7.22zm0 2.544h7.216v1.072h-7.22zm0 2.576h7.216v1.136h-7.22z" fill="#373943" stroke="rgba(0,0,0,0)"/><rect data-name="長方形 2366" width="150" height="40" rx="10" transform="translate(776 5438)" fill="#fff"/><path data-name="パス 1138" d="M807.832 5451.664a10.071 10.071 0 01-2.064.112h-4.7a10.263 10.263 0 01-2.068-.112v1.952a13.22 13.22 0 012.032-.08h4.768a13.083 13.083 0 012.032.08zm1.008 5.872a14.056 14.056 0 012.032.08v-1.9a10.458 10.458 0 01-2.064.112h-9.36a10.458 10.458 0 01-2.064-.112v1.9a14.056 14.056 0 012.032-.08h3.884c-.112 3.1-1.36 4.688-4.5 5.68a5.086 5.086 0 011.32 1.776c3.616-1.392 5.12-3.5 5.3-7.456zm3.392-5.1a9.811 9.811 0 00-1.408-2.436l-1.152.416a11.622 11.622 0 011.376 2.48zm-4.656-1.392a11.8 11.8 0 011.408 2.56l1.2-.448a11.291 11.291 0 00-1.424-2.528zm5.84 7.936a17.565 17.565 0 012.608-.08h8.5a17.565 17.565 0 012.608.08v-2.228a15.713 15.713 0 01-2.592.112h-8.528a15.713 15.713 0 01-2.592-.112zm27.84-6.464a4.2 4.2 0 01-1.408.192c-3.9.032-3.9.032-4.16.064a7.972 7.972 0 00.384-.772 8.43 8.43 0 01.48-.9l-2.08-.464a9.754 9.754 0 01-.928 2.224 13.755 13.755 0 01-4.016 4.56 5.079 5.079 0 011.6 1.28 16.553 16.553 0 003.744-4.3l4.976-.048a15.287 15.287 0 01-1.792 3.776 20.826 20.826 0 00-3.216-2.144l-1.216 1.424a18.113 18.113 0 013.276 2.292 11.615 11.615 0 01-2.62 2.22 16.125 16.125 0 01-3.12 1.6 5.078 5.078 0 011.328 1.648 15.623 15.623 0 007.3-6.112 26.836 26.836 0 002.048-4.4 2.866 2.866 0 01.5-1.072zm4.512 8.384c.224-.272.288-.352.544-.656.864-1.024 2.208-2.688 2.864-3.568s.72-.928.976-.928c.272 0 .272 0 1.3 1.12a81.53 81.53 0 006.764 6.748l1.008-2.192a9.616 9.616 0 01-1.52-1.2 54.979 54.979 0 01-5.184-5.104c-1.22-1.376-1.584-1.632-2.384-1.632a2.035 2.035 0 00-1.088.3 5.416 5.416 0 00-1.2 1.264c-2.148 2.692-2.976 3.636-3.44 3.876zm8.384-7.552a10.8 10.8 0 011.68 2.384l1.12-.592a10.369 10.369 0 00-1.68-2.352zm4.7.752a8.857 8.857 0 00-1.66-2.26l-1.072.56a11.789 11.789 0 011.632 2.32zm1.6 4.88a17.565 17.565 0 012.608-.08h8.5a17.565 17.565 0 012.608.08v-2.228a15.713 15.713 0 01-2.592.112h-8.528a15.713 15.713 0 01-2.592-.112zm28.196 3.884c-1.936-1.872-1.936-1.872-2.336-2.224a24.8 24.8 0 00-2.96-2.32 21.19 21.19 0 002.5-4.416 3.077 3.077 0 01.512-.864l-1.064-1.088a3.466 3.466 0 01-1.424.176l-5.632.08h-.384a7 7 0 01-1.408-.1l.068 2.052a12.609 12.609 0 011.744-.128c5.04-.08 5.04-.08 5.3-.1l-.176.416a15.422 15.422 0 01-5.376 6.512 13.21 13.21 0 01-3.2 1.76 6.418 6.418 0 011.288 1.78 19.014 19.014 0 006.1-4.624 30.757 30.757 0 014.912 4.752zm10.416-4.672a24.469 24.469 0 005.408-3.744c.16-.128.224-.192.352-.288l-1.392-1.408a13.875 13.875 0 01-4.368 3.44v-3.568a14.852 14.852 0 01.1-1.92h-2a15.023 15.023 0 01.1 1.92v10.544c-.008 1.456.472 1.732 3.064 1.732s3.472-.18 3.972-.788c.384-.48.608-1.536.736-3.52a7.832 7.832 0 01-1.736-.624c-.08 1.936-.176 2.56-.448 2.928-.208.256-.784.352-2.224.352-1.28 0-1.568-.1-1.568-.528zm-6.336 5.024a17.365 17.365 0 01-.112 2.08h1.968c-.064-.672-.1-1.392-.1-2.048v-8.592a29.734 29.734 0 001.152-2.784c.144-.384.208-.56.352-.88l-1.872-.544a12.18 12.18 0 01-1.616 3.968 14 14 0 01-2.24 2.848 8.022 8.022 0 01.848 1.888 16.6 16.6 0 001.648-2.08c-.032 1.072-.032 1.232-.032 1.792z" fill="#373943" stroke="rgba(0,0,0,0)"/><path data-name="パス 1081" d="M846 5348l4.816 10 5.184-10z" fill="#373943"/><g data-name="グループ 1741"><g data-name="グループ 1716"><path data-name="長方形 2367" fill="#002245" d="M1026.57 5320.827h39.094v30.95h-39.094z"/><path data-name="長方形 2368" fill="#f4f4f7" d="M1055.623 5326.303h4.721v7.778h-4.721z"/><path data-name="長方形 2369" fill="#f4f4f7" d="M1047.918 5326.303h4.72v7.778h-4.72z"/><path data-name="長方形 2370" fill="#f4f4f7" d="M1040.213 5326.303h4.721v7.778h-4.721z"/><path data-name="長方形 2371" fill="#f4f4f7" d="M1032.507 5326.303h4.721v7.778h-4.721z"/><path data-name="長方形 2372" fill="#f4f4f7" d="M1055.623 5342.168h4.721v9.608h-4.721z"/><path data-name="長方形 2373" fill="#f4f4f7" d="M1047.918 5342.168h4.72v9.608h-4.72z"/><path data-name="長方形 2374" fill="#f4f4f7" d="M1040.213 5342.168h4.721v9.608h-4.721z"/><path data-name="長方形 2375" fill="#f4f4f7" d="M1032.507 5342.168h4.721v9.608h-4.721z"/></g><g data-name="グループ 1739"><g data-name="グループ 1717"><path data-name="長方形 2376" fill="#767676" d="M1062.261 5348.656h.897v3.121h-.897z"/><path data-name="長方形 2377" fill="#767676" d="M1059.212 5348.656h.897v3.121h-.897z"/><path data-name="長方形 2378" fill="#767676" d="M1056.163 5348.656h.897v3.121h-.897z"/><path data-name="長方形 2379" fill="#767676" d="M1053.114 5348.656h.897v3.121h-.897z"/><path data-name="長方形 2380" fill="#767676" d="M1050.065 5348.656h.897v3.121h-.897z"/><path data-name="長方形 2381" fill="#767676" d="M1047.016 5348.656h.897v3.121h-.897z"/><path data-name="長方形 2382" fill="#767676" d="M1043.967 5348.656h.897v3.121h-.897z"/><path data-name="長方形 2383" fill="#767676" d="M1040.918 5348.656h.897v3.121h-.897z"/><path data-name="長方形 2384" fill="#767676" d="M1037.869 5348.656h.897v3.121h-.897z"/><path data-name="長方形 2385" fill="#767676" d="M1034.82 5348.656h.896v3.121h-.896z"/><path data-name="長方形 2386" fill="#767676" d="M1031.771 5348.656h.897v3.121h-.897z"/><path data-name="長方形 2387" fill="#767676" d="M1028.722 5348.656h.898v3.121h-.898z"/><path data-name="長方形 2388" fill="#767676" d="M1025.674 5348.656h.896v3.121h-.896z"/><path data-name="長方形 2389" fill="#767676" d="M1022.623 5348.656h.897v3.121h-.897z"/><path data-name="長方形 2390" fill="#767676" d="M1019.574 5348.656h.898v3.121h-.898z"/><path data-name="長方形 2391" fill="#767676" d="M1016.526 5348.656h.897v3.121h-.897z"/><path data-name="長方形 2392" fill="#767676" d="M1013.477 5348.656h.896v3.121h-.896z"/><path data-name="長方形 2393" fill="#767676" d="M1010.427 5348.656h.898v3.121h-.898z"/><path data-name="長方形 2394" fill="#767676" d="M1007.379 5348.656h.897v3.121h-.897z"/><path data-name="長方形 2395" fill="#767676" d="M1004.33 5348.656h.898v3.121h-.898z"/><path data-name="長方形 2396" fill="#767676" d="M1001.281 5348.656h.897v3.121h-.897z"/><path data-name="長方形 2397" fill="#767676" d="M998.231 5348.656h.897v3.121h-.897z"/><path data-name="長方形 2398" fill="#767676" d="M995.182 5348.656h.898v3.121h-.898z"/><path data-name="長方形 2399" fill="#767676" d="M992.133 5348.656h.898v3.121h-.898z"/><path data-name="長方形 2400" fill="#767676" d="M989.085 5348.656h.896v3.121h-.896z"/><path data-name="長方形 2401" fill="#bdbebf" d="M987.976 5347.721h77.687v1.08h-77.687z"/></g><g data-name="グループ 1738"><path data-name="パス 1082" d="M985.999 5351.777h79.664v49.627h-79.664z" fill="#448fea"/><g data-name="グループ 1735"><g data-name="グループ 1718"><path data-name="長方形 2403" fill="#448fea" d="M1061.073 5358.796h4.59v7.778h-4.59z"/></g><g data-name="グループ 1719"><path data-name="長方形 2404" fill="#002245" d="M1056.483 5358.796h4.59v7.778h-4.59z"/></g><g data-name="グループ 1720"><path data-name="長方形 2405" fill="#448fea" d="M1051.893 5358.796h4.59v7.778h-4.59z"/></g><g data-name="グループ 1721"><path data-name="長方形 2406" fill="#002245" d="M1047.303 5358.796h4.59v7.778h-4.59z"/></g><g data-name="グループ 1722"><path data-name="長方形 2407" fill="#448fea" d="M1042.713 5358.796h4.59v7.778h-4.59z"/></g><g data-name="グループ 1723"><path data-name="長方形 2408" fill="#002245" d="M1038.123 5358.796h4.59v7.778h-4.59z"/></g><g data-name="グループ 1724"><path data-name="長方形 2409" fill="#448fea" d="M1033.532 5358.796h4.591v7.778h-4.591z"/></g><g data-name="グループ 1725"><path data-name="長方形 2410" fill="#002245" d="M1028.943 5358.796h4.589v7.778h-4.589z"/></g><g data-name="グループ 1726"><path data-name="長方形 2411" fill="#448fea" d="M1024.352 5358.796h4.591v7.778h-4.591z"/></g><g data-name="グループ 1727"><path data-name="長方形 2412" fill="#002245" d="M1019.763 5358.796h4.589v7.778h-4.589z"/></g><g data-name="グループ 1728"><path data-name="長方形 2413" fill="#448fea" d="M1015.172 5358.796h4.591v7.778h-4.591z"/></g><g data-name="グループ 1729"><path data-name="長方形 2414" fill="#002245" d="M1010.584 5358.796h4.588v7.778h-4.588z"/></g><g data-name="グループ 1730"><path data-name="長方形 2415" fill="#448fea" d="M1005.993 5358.796h4.591v7.778h-4.591z"/></g><g data-name="グループ 1731"><path data-name="長方形 2416" fill="#002245" d="M1001.404 5358.796h4.589v7.778h-4.589z"/></g><g data-name="グループ 1732"><path data-name="長方形 2417" fill="#448fea" d="M996.813 5358.796h4.591v7.778h-4.591z"/></g><g data-name="グループ 1733"><path data-name="長方形 2418" fill="#002245" d="M992.224 5358.796h4.589v7.778h-4.589z"/></g><g data-name="グループ 1734"><path data-name="長方形 2419" fill="#448fea" d="M987.633 5358.796h4.591v7.778h-4.591z"/></g></g><g data-name="グループ 1736"><path data-name="長方形 2420" fill="#448fea" d="M1041.501 5387.225h6.04v14.179h-6.04z"/><path data-name="長方形 2421" fill="#002245" d="M1047.541 5387.225h6.039v14.179h-6.039z"/><path data-name="長方形 2422" fill="#002245" d="M1035.46 5387.225h6.041v14.179h-6.041z"/><path data-name="長方形 2423" fill="#448fea" d="M1053.58 5387.225h6.041v14.179h-6.041z"/><path data-name="長方形 2424" fill="#002245" d="M1059.622 5387.225h6.041v14.179h-6.041z"/></g><g data-name="グループ 1737"><path data-name="長方形 2425" fill="#002245" d="M998.08 5387.225h6.041v14.179h-6.041z"/><path data-name="長方形 2426" fill="#448fea" d="M1004.12 5387.225h6.038v14.179h-6.038z"/><path data-name="長方形 2427" fill="#002245" d="M985.999 5387.225h6.039v14.179h-6.039z"/><path data-name="長方形 2428" fill="#448fea" d="M992.038 5387.225h6.041v14.179h-6.041z"/><path data-name="長方形 2429" fill="#002245" d="M1010.159 5387.225h6.042v14.179h-6.042z"/></g></g></g><g data-name="グループ 1740" fill="#f3ba18"><path data-name="長方形 2430" d="M1065.664 5302H1111v99.403h-45.336z"/><path data-name="長方形 2431" d="M1099.607 5358.796h4.677v7.778h-4.677z"/><path data-name="長方形 2432" d="M1099.607 5342.93h4.677v7.777h-4.677z"/><path data-name="長方形 2433" d="M1099.607 5327.064h4.677v7.777h-4.677z"/><path data-name="長方形 2434" d="M1099.607 5374.661h4.677v7.778h-4.677z"/><path data-name="長方形 2435" d="M1099.607 5311.199h4.677v7.777h-4.677z"/><path data-name="長方形 2436" d="M1085.993 5358.796h4.677v7.778h-4.677z"/><path data-name="長方形 2437" d="M1085.993 5342.93h4.677v7.777h-4.677z"/><path data-name="長方形 2438" d="M1085.993 5327.064h4.677v7.777h-4.677z"/><path data-name="長方形 2439" d="M1085.993 5374.661h4.677v7.778h-4.677z"/><path data-name="長方形 2440" d="M1085.993 5311.199h4.677v7.777h-4.677z"/><path data-name="長方形 2441" d="M1072.379 5358.796h4.677v7.778h-4.677z"/><path data-name="長方形 2442" d="M1072.379 5342.93h4.677v7.777h-4.677z"/><path data-name="長方形 2443" d="M1072.379 5327.064h4.677v7.777h-4.677z"/><path data-name="長方形 2444" d="M1072.379 5374.661h4.677v7.778h-4.677z"/><path data-name="長方形 2445" d="M1072.379 5311.199h4.677v7.777h-4.677z"/></g></g><path data-name="パス 1142" d="M1021.12 5428.332h2.324a14.729 14.729 0 011.526.07v-1.624a14.236 14.236 0 01-1.54.07h-2.31v-1.386a10.648 10.648 0 01.08-1.512h-1.718a11.75 11.75 0 01.084 1.55v5.716h-2.044v-3.374a9.683 9.683 0 01.1-1.582h-1.722a13.411 13.411 0 01.084 1.6v3.36h-.618a9.709 9.709 0 01-1.666-.102v1.682a11.95 11.95 0 011.792-.1h9.114a11.9 11.9 0 011.764.1v-1.682a11.537 11.537 0 01-1.764.1h-3.486zm-1.932-7.966a10.179 10.179 0 01-2.282 2.548 14.9 14.9 0 01-3.444 2.114 5.273 5.273 0 01.784 1.5 17.454 17.454 0 003.486-2.3 12.712 12.712 0 002.31-2.45 12.531 12.531 0 002.45 2.506 16.7 16.7 0 003.458 2.116 6.068 6.068 0 01.77-1.54 14.767 14.767 0 01-3.528-2 9.742 9.742 0 01-2.392-2.494zm13.972 5.474v.672h-2.772a9.941 9.941 0 01-1.428-.07v1.258a10.061 10.061 0 011.428-.07h2.772v.7h-3.71a13 13 0 01-1.68-.084v1.4a15.389 15.389 0 011.694-.084h2.6a10.064 10.064 0 01-4.574 1.99 5.73 5.73 0 01.854 1.348 13.545 13.545 0 002.856-1.18 7.786 7.786 0 002.016-1.54 9.426 9.426 0 00-.042.952v.668a10.449 10.449 0 01-.084 1.428h1.652a7.965 7.965 0 01-.1-1.414v-.682a9.583 9.583 0 00-.042-.994 10.924 10.924 0 005.2 2.772 5.544 5.544 0 01.8-1.428 12.016 12.016 0 01-2.912-.8 7.268 7.268 0 01-1.9-1.12h2.814a15.124 15.124 0 011.68.084v-1.4a12.366 12.366 0 01-1.694.084h-3.916v-.7h2.928a10.277 10.277 0 011.442.07v-1.26a10.156 10.156 0 01-1.442.07h-2.928v-.67h3.654a10.277 10.277 0 011.442.07v-1.33a12.875 12.875 0 01-1.442.056h-1.626c.2-.35.252-.476.518-1.036h1.4c.686 0 1.232.028 1.666.07v-1.4a11.352 11.352 0 01-1.582.084h-.392c.308-.434.532-.784.868-1.344l-1.442-.532a7.47 7.47 0 01-1.006 1.876h-.882v-.994a7.351 7.351 0 01.07-1.092h-1.526a9.971 9.971 0 01.042 1.036v1.05h-.994v-1.054a9.428 9.428 0 01.042-1.036h-1.526a7.786 7.786 0 01.07 1.092v.994h-.8a9.9 9.9 0 00-1.076-1.83l-1.4.532a5.918 5.918 0 01.952 1.3h-.448a11.864 11.864 0 01-1.6-.084v1.4c.448-.042.98-.07 1.666-.07h1.512c.154.266.308.588.518 1.036h-1.69a12.716 12.716 0 01-1.442-.056v1.33a10.4 10.4 0 011.442-.07zm-.322-1.2a8.936 8.936 0 00-.42-1.036h3.192a8.165 8.165 0 01-.462 1.036zm16.254-1.61a3.06 3.06 0 011.414.42 3.468 3.468 0 011.722 3.108 3.92 3.92 0 01-1.946 3.5 7.44 7.44 0 01-2.786.77 4.466 4.466 0 01.854 1.634 9.153 9.153 0 002.2-.588 5.393 5.393 0 003.4-5.222c0-3.15-2.184-5.194-5.544-5.194a6.285 6.285 0 00-4.816 1.96 6.014 6.014 0 00-1.54 4.074c0 2.254 1.15 3.878 2.744 3.878 1.148 0 2.044-.826 2.842-2.632a20.254 20.254 0 001.456-5.712zm-1.708.014a18.451 18.451 0 01-1.162 4.732c-.5 1.2-.98 1.792-1.442 1.792-.616 0-1.106-.91-1.106-2.058a4.687 4.687 0 011.9-3.78 3.564 3.564 0 011.81-.69zm18.7 1.5a9.667 9.667 0 01-1.344 3.276 18.975 18.975 0 01-.64-4.192h2.52c.714 0 1.246.028 1.708.07v-1.54a7.8 7.8 0 01-1.484.084h-.42l.728-.5a7.834 7.834 0 00-1.414-1.47l-1.078.686a6.615 6.615 0 011.232 1.288h-1.848v-.646a11.554 11.554 0 01.07-1.33h-1.666a4.337 4.337 0 01.07.882c.028.616.028.98.042 1.092h-4.06c-.728 0-1.3-.028-1.806-.07a13.853 13.853 0 01.084 1.988 26.312 26.312 0 01-.42 5.53 6.545 6.545 0 01-.966 2.208 5.139 5.139 0 011.218 1.19 7.573 7.573 0 001.148-2.73 21.634 21.634 0 00.434-3.514h2.044a15.218 15.218 0 01-.21 2.534c-.07.35-.2.434-.63.434a8.534 8.534 0 01-1.358-.114 5.24 5.24 0 01.362 1.488c.448.028.672.042 1.064.042 1.078 0 1.582-.21 1.806-.77a13.3 13.3 0 00.462-3.85c.028-.546.056-.938.084-1.19a6.117 6.117 0 01-.994.056h-2.574c.014-.5.014-.5.028-1.848h4.34a17.359 17.359 0 001.05 5.586 10.508 10.508 0 01-3.766 2.576 4.645 4.645 0 011.064 1.218 12.883 12.883 0 003.388-2.45c.812 1.316 1.918 2.254 2.632 2.254.77 0 1.26-.826 1.582-2.716a4.175 4.175 0 01-1.26-.938 8.152 8.152 0 01-.266 1.642c-.07.182-.126.266-.182.266a2.035 2.035 0 01-.63-.5 6.031 6.031 0 01-.84-1.2 15.222 15.222 0 001.89-3.5c.224-.532.224-.532.308-.742zm13.626 3.284h1.316a8.113 8.113 0 011.26.084v-1.512a8.885 8.885 0 01-1.386.084h-7.462v-.742h5.936a8.351 8.351 0 011.288.07v-1.288a9.317 9.317 0 01-1.288.07h-5.936v-.686h5.936a12.116 12.116 0 011.288.07v-1.278a9.619 9.619 0 01-1.288.07h-5.936v-.7h6.146a11.488 11.488 0 011.61.07v-1.48a9.482 9.482 0 01-1.624.084h-6.27a11.24 11.24 0 01-1.526-.07 10.9 10.9 0 01.056 1.386v4.424h-.73a9.041 9.041 0 01-1.456-.084v1.512a8.8 8.8 0 011.428-.084h.756v3.486a13.937 13.937 0 01-1.988.252l.294 1.568c.252-.07.294-.07.63-.14a40.541 40.541 0 005.474-1.344l-.014-1.4a24.379 24.379 0 01-2.814.756v-3.178h1.218a7.443 7.443 0 002.142 2.772 12.118 12.118 0 005.04 2.436 6.843 6.843 0 01.742-1.61 12.353 12.353 0 01-3.668-1.246 9.3 9.3 0 001.344-.966c.518-.462.686-.616.8-.7zm-.154 0a10.168 10.168 0 01-1.876 1.624 4.4 4.4 0 01-1.47-1.624z" fill="#373943"/><path data-name="線 124" fill="none" stroke="#f3ba18" stroke-width="2" d="M1088.5 5280.5v11"/><path data-name="線 125" fill="none" stroke="#f3ba18" stroke-width="2" d="M1073.5 5283.5l8 8"/><path data-name="線 126" fill="none" stroke="#f3ba18" stroke-width="2" d="M1103.5 5283.5l-8 8"/><g data-name="グループ 1743" fill="#f3ba18"><path data-name="長方形 2446" d="M851 5498h5v50h-5z"/><path data-name="長方形 2447" d="M513 5518h5v30h-5z"/><path data-name="長方形 2448" d="M856 5545.5v5H513v-5z"/><path data-name="多角形 16" d="M515.5 5505l7.5 13h-15z"/></g><g data-name="グループ 1744" fill="#34be8e"><path data-name="長方形 2446" d="M508 5198.5h5v50h-5z"/><path data-name="長方形 2447" d="M846 5198.5h5v30h-5z"/><path data-name="長方形 2448" d="M508 5201v-5h343v5z"/><path data-name="多角形 16" d="M848.5 5241.5l-7.5-13h15z"/></g><path data-name="パス 1131" d="M631.638 5619.6c0-.143 0-.143.013-1l.013-.78a8.2 8.2 0 01.065-1.248h-1.794a8.183 8.183 0 01.065 1.25v.767c0 .234 0 .468-.013 1.014h-3.276a9.4 9.4 0 01-1.69-.091v1.638a13.353 13.353 0 011.664-.065h3.224a5.62 5.62 0 01-.637 2.615 6 6 0 01-3.133 2.559 4.038 4.038 0 011.183 1.4 7.827 7.827 0 003.315-2.912 7.177 7.177 0 00.936-3.666h2.665a13.353 13.353 0 011.662.069v-1.638a9.312 9.312 0 01-1.69.091zm7.917-2.834a6.323 6.323 0 01.065 1.339l-.052 7.02a4.584 4.584 0 01-.117 1.339l.832 1a3.725 3.725 0 01.78-.221 11.851 11.851 0 004.737-1.777 9.692 9.692 0 002.9-3.029 6.107 6.107 0 01-1.235-1.326 7.682 7.682 0 01-2.652 2.977 9.35 9.35 0 01-3.549 1.43l.065-7.423a10.06 10.06 0 01.078-1.313zm12.48 3.159a13.006 13.006 0 011.183 3.146l1.469-.468a15 15 0 00-1.274-3.081zm2.782-.546a14.3 14.3 0 011.183 3.058l1.443-.455a12.771 12.771 0 00-1.261-2.99zm4.472-.13a5.766 5.766 0 01-.234 1.495 7.475 7.475 0 01-2.955 4.514 8.433 8.433 0 01-2.21 1.2 4.722 4.722 0 011.044 1.283 9.978 9.978 0 003.966-3.133 11.1 11.1 0 001.794-4.329 2.736 2.736 0 01.182-.663zm5.911-1.141a15.739 15.739 0 013.471 1.781l.832-1.43a21.408 21.408 0 00-3.458-1.677zm-1.027 3.159a15.089 15.089 0 013.523 1.9l.806-1.469a20.518 20.518 0 00-3.458-1.768zm7.722-4.29a8.774 8.774 0 011.369 1.937l.91-.481a8.425 8.425 0 00-1.365-1.911zm-6.977 10.556a7.676 7.676 0 01.91-.221c4.654-.91 7.4-3.042 9.009-6.981a6.321 6.321 0 01-1.352-1.157 8.941 8.941 0 01-5.265 5.733 11.549 11.549 0 01-3.757.845zm10.8-9.945a7.518 7.518 0 00-1.352-1.833l-.871.455a9.578 9.578 0 011.329 1.89zm2.925-.325v.182a9.539 9.539 0 01-.117 1.261 15.81 15.81 0 01-1.219 4.459 8.76 8.76 0 01-1.859 2.769 5.624 5.624 0 011.482 1.118c1.742-2 2.756-4.563 3.3-8.294l.039-.312.065-.377.026-.221a1.5 1.5 0 01.065-.26zm3.861.312a5.462 5.462 0 01.182.936 17.228 17.228 0 003.448 8.554 5.351 5.351 0 011.43-1.2 12.592 12.592 0 01-2.9-5.616 16.106 16.106 0 01-.546-2.99zm1.742-.806a8.53 8.53 0 011.069 2.119l.985-.312a7.753 7.753 0 00-1.079-2.093zm3.76 1.287a7.693 7.693 0 00-1.066-2.015l-.962.273a8.929 8.929 0 011.04 2.054zm1.625.6a13.649 13.649 0 013.315 2.639l1.118-1.417a18.412 18.412 0 00-3.354-2.511zm.455 8.578a4.6 4.6 0 01.858-.221 14.042 14.042 0 004.956-1.95 11.409 11.409 0 004.121-5.1 5.606 5.606 0 01-1.381-1.27 10.855 10.855 0 01-1.326 2.6 8.686 8.686 0 01-3.861 3.185 12.387 12.387 0 01-3.853.962zm21.5-9.373a2.3 2.3 0 01-.949.13l-2.847.039c-.247 0-.455.013-.624.026a3.066 3.066 0 00.208-.416l.169-.338a2.624 2.624 0 01.169-.364 2.658 2.658 0 01.221-.4l-1.781-.351a4.852 4.852 0 01-.661 1.713 10 10 0 01-3.367 3.77 3.454 3.454 0 011.261 1.118 12.724 12.724 0 003.042-3.328l3.913-.06a10.294 10.294 0 01-3.8 5.486 11.707 11.707 0 01-2.84 1.529 4.006 4.006 0 011.1 1.365 13.133 13.133 0 004.628-3.3 13.484 13.484 0 002.667-5.02 2.445 2.445 0 01.325-.78zm6.4-1.534v.247a20.006 20.006 0 01-.34 2.626c-.715.1-2.288.26-2.769.26l.156 1.534a23.306 23.306 0 012.327-.416 22.054 22.054 0 01-1.26 3.679 14.2 14.2 0 01-1.353 2.443l1.508.832c.065-.13.065-.143.1-.221l.195-.39a27.881 27.881 0 001.56-3.653 27.5 27.5 0 00.793-2.821c.3-.026.494-.039.754-.039 1.027 0 1.326.351 1.326 1.547a11.551 11.551 0 01-.338 2.964c-.195.637-.4.884-.78.884a5.378 5.378 0 01-1.9-.507 4.883 4.883 0 01.135 1.104c0 .13-.013.312-.026.572a6.307 6.307 0 002 .377 1.646 1.646 0 001.446-.583c.624-.715 1-2.5 1-4.732a3.153 3.153 0 00-.611-2.3 2.518 2.518 0 00-1.924-.689c-.247 0-.429.013-.806.039.039-.169.039-.2.091-.481.182-.975.182-.975.221-1.248.039-.208.052-.273.078-.442a3.024 3.024 0 01.1-.4zm4.654 2.5a8.414 8.414 0 011.495 2.223 11.685 11.685 0 011.038 2.95l1.482-.754a12.619 12.619 0 00-2.678-5.07zm8.136-1.127a23.53 23.53 0 005.07 1.625l.533-1.5a19.5 19.5 0 01-4.849-1.443zm-1.04 1.144a5.305 5.305 0 01-.078.754 193.23 193.23 0 00-.546 3.783c-.065.494-.065.546-.1.78l1.638.052a2.83 2.83 0 01.585-.559 5.916 5.916 0 013.237-.949c1.378 0 2.2.52 2.2 1.391 0 1.105-1.274 1.872-3.107 1.872a10.5 10.5 0 01-3.5-.65 5.769 5.769 0 01.191 1.682 11.954 11.954 0 003.315.455 5.616 5.616 0 003.429-.884 3.165 3.165 0 001.339-2.509c0-1.664-1.456-2.756-3.666-2.756a6.161 6.161 0 00-3.939 1.235l-.026-.026c.039-.2.039-.2.065-.377a27.508 27.508 0 01.585-3.2zm-55.055 17.435h-2.574v-2.106a7.647 7.647 0 01.052-1.04H670.6a7.241 7.241 0 01.065 1.144v2.574c0 .3-.013.546-.039.832.312-.026.585-.039.936-.039h3.12v4.264h-3.055v-2.108a6.423 6.423 0 01.065-1.118h-1.573a10.805 10.805 0 01.065 1.248v2.756a9.432 9.432 0 01-.078 1.3h1.521v-.676h7.735v.676h1.521a8.209 8.209 0 01-.078-1.3v-2.806a10.394 10.394 0 01.065-1.235h-1.57a6.918 6.918 0 01.065 1.1v2.158h-3.215v-4.259h3.35c.312 0 .624.013.91.039a7.122 7.122 0 01-.039-.832v-2.587a7.473 7.473 0 01.069-1.131h-1.56a7.809 7.809 0 01.052 1.027v2.119h-2.782v-2.847a8.366 8.366 0 01.078-1.287H674.6a7.8 7.8 0 01.078 1.287zm10.543 5.187a4.983 4.983 0 01-.741-.806c.065-.481.091-.78.1-1.04a2.375 2.375 0 01.039-.455l-1.313-.221c.013.169.026.26.026.377a10.01 10.01 0 01-.195 1.82 5.6 5.6 0 01-.858 1.937 3.485 3.485 0 011.105.9 6.887 6.887 0 00.832-1.95 4.282 4.282 0 002.106 1.43 17.724 17.724 0 004.576.39c1.131 0 2.613-.026 3.5-.065a5.018 5.018 0 01.4-1.443c-.338.039-.481.052-.715.065a4.789 4.789 0 01.6-.78 6.156 6.156 0 01-1.989-1.2h.221c.481 0 .741.013 1.066.039a11.4 11.4 0 01-.052-1.235v-3.613a8.341 8.341 0 01.052-1.1c-.312.026-.546.039-1.092.039h-1.116a7.882 7.882 0 00.338-.858h1.131c.442 0 .936.026 1.248.052v-1.266a8.253 8.253 0 01-1.365.078h-3.276a13.216 13.216 0 01-1.4-.065v1.261a11.559 11.559 0 011.287-.065h1.061c-.091.273-.195.559-.325.858h-.52a10.637 10.637 0 01-1.079-.039c.026.351.039.663.039 1.092v3.8c0 .442-.013.78-.039 1.066a9.873 9.873 0 011.014-.039 4.462 4.462 0 01-2 1.313 4.3 4.3 0 01.715.741 8.438 8.438 0 01-2.093-.286v-1.46h.663a5.884 5.884 0 011.053.065v-1.261a8.152 8.152 0 01-1.04.052h-.677v-1.053h.806a9.933 9.933 0 011.2.052v-1.313a6.483 6.483 0 01-1.079.065h-3.618a7.581 7.581 0 01-1.248-.065v1.326a7.2 7.2 0 011.248-.065h1.4zm4.9-1.04h2.276l-.793.585a8.018 8.018 0 001.885 1.443c-.845.039-2.054.078-2.964.078-.39 0-.845-.013-1.3-.026a7.483 7.483 0 001.781-1.506zm.039-4.81h2.522v.611h-2.521zm0 1.573h2.522v.6h-2.521zm0 1.547h2.522v.611h-2.521zm-6.915-2.936a8.527 8.527 0 01-.048 1.129 9.971 9.971 0 011.14-.052h2.548a10.118 10.118 0 011.144.052 7.829 7.829 0 01-.052-1.118v-2.211a8.375 8.375 0 01.052-1.144 7.975 7.975 0 01-1.17.052h-2.522a7.9 7.9 0 01-1.14-.051 9.312 9.312 0 01.052 1.131zm1.274-2.225h2.184v.637h-2.184zm0 1.6h2.184v.675h-2.184z" fill="#373943"/><g transform="translate(624 5472.027)"><path data-name="パス 627" d="M63.405 108.414l-13.433 7.089-.432 2.635c-.614 3.75-2.946 6.817-5.181 6.817v1.772h24.66v-1.772z" fill="#3d5168"/><path data-name="パス 628" d="M67.903 118.138l-1.593-9.724-7.588-7.089-7.588 7.089-1.161 7.089h13.433l.432 2.635c.614 3.75 2.946 6.817 5.181 6.817l2.032 1.772 2.032-1.772c-2.235 0-4.567-3.067-5.18-6.817z" fill="#233952"/><path data-name="パス 629" d="M79.723 128.5h-42c-.561 0-1.016-.793-1.016-1.772s.455-1.772 1.016-1.772h42c.561 0 1.016.794 1.016 1.772s-.455 1.772-1.016 1.772z" fill="#233952"/><path data-name="パス 630" d="M110.354 28.5h-7.089v79.914h7.089a7.11 7.11 0 007.089-7.089V35.589a7.11 7.11 0 00-7.089-7.089z" fill="#3d5168"/><path data-name="パス 631" d="M103.265 28.5H7.089A7.11 7.11 0 000 35.589v65.736a7.11 7.11 0 007.089 7.089h96.176a7.11 7.11 0 007.089-7.089v-7.089L58.721 60.563l51.632-24.974a7.11 7.11 0 00-7.088-7.089z" fill="#57697d"/><g data-name="グループ 1543"><path data-name="パス 632" d="M110.23 35.581l-7.089-.006L58.59 60.52s44.551 33.634 44.55 33.635l7.09-.006V35.581z" fill="#d3dfff"/><path data-name="パス 633" d="M103.141 35.581l-96.17-.006c-.006 0-.011 58.579-.021 58.58l96.188-.006s-.007-58.566.003-58.568z" fill="#f4f4f7"/></g><circle data-name="楕円形 158" cx="1.772" cy="1.772" r="1.772" transform="translate(108.742 99.546)" fill="#85cf75"/><circle data-name="楕円形 159" cx="1.772" cy="1.772" r="1.772" transform="translate(101.653 99.546)" fill="#3d5168"/><g data-name="グループ 1544" stroke="rgba(0,0,0,0)"><g data-name="グループ 1075" fill="#2962ff" stroke-miterlimit="10"><g data-name="グループ 624"><path data-name="パス 24" d="M62.715 52.233h-.494v-2.488h.494a2.385 2.385 0 000-4.764 2.229 2.229 0 00-1.809.958l-.007-.007-2.413 2.531v-.582h0v-.519a2.274 2.274 0 10-2.27 2.382h.494v2.488h-.494a2.385 2.385 0 102.27 2.382v-.518h0v-.588l2.413 2.531h0A2.231 2.231 0 0062.71 57a2.385 2.385 0 000-4.764zm-.494-4.87a.5.5 0 11.494.519h-.494zm-6.006.519a.519.519 0 11.494-.519v.519zm.494 6.733a.5.5 0 11-.494-.518h.494zm3.735-4.869v2.488h0v.695l-1.85-1.941 1.85-1.941v.7zm2.271 5.389a.507.507 0 01-.494-.519v-.518h.494a.519.519 0 010 1.038z"/><path data-name="パス 25" d="M58.485 48.463l2.413-2.531.113-.131v2.661z"/></g><path data-name="パス 26" d="M58.485 53.511l2.413 2.531.113.131v-2.661z"/></g><path data-name="パス 1143" d="M26.995 69.004v-8.508h1.656v4.044l3.576-4.056h1.824l-3.264 3.78 3.468 4.74h-1.86l-2.652-3.684-1.092 1.14v2.544zm13.716 0h-1.608v-3.528a1.838 1.838 0 00-.264-1.1.867.867 0 00-.732-.348 1.377 1.377 0 00-.492.1 1.811 1.811 0 00-.474.27 2.2 2.2 0 00-.4.414 1.637 1.637 0 00-.264.528v3.664h-1.612v-6.288h1.452v1.164a2.382 2.382 0 011.008-.936 3.233 3.233 0 011.49-.34 1.9 1.9 0 01.96.216 1.56 1.56 0 01.576.564 2.359 2.359 0 01.282.792 5.192 5.192 0 01.078.9zm4.308.12a3.452 3.452 0 01-1.38-.264 3.1 3.1 0 01-1.038-.714 3.152 3.152 0 01-.654-1.042 3.389 3.389 0 01-.228-1.236 3.422 3.422 0 01.228-1.248 3.152 3.152 0 01.654-1.038 3.1 3.1 0 011.038-.714 3.452 3.452 0 011.38-.264 3.408 3.408 0 011.374.264 3.114 3.114 0 011.032.714 3.152 3.152 0 01.654 1.038 3.421 3.421 0 01.228 1.248 3.389 3.389 0 01-.228 1.236 3.2 3.2 0 01-.648 1.038 3.035 3.035 0 01-1.032.714 3.452 3.452 0 01-1.38.268zm-1.644-3.252a2.191 2.191 0 00.126.762 1.862 1.862 0 00.348.594 1.555 1.555 0 00.522.39 1.532 1.532 0 00.648.138 1.532 1.532 0 00.648-.138 1.555 1.555 0 00.522-.39 1.849 1.849 0 00.348-.6 2.242 2.242 0 00.126-.768 2.2 2.2 0 00-.126-.756 1.849 1.849 0 00-.348-.6 1.555 1.555 0 00-.522-.39 1.532 1.532 0 00-.648-.138 1.478 1.478 0 00-.648.144 1.628 1.628 0 00-.522.4 1.849 1.849 0 00-.348.6 2.2 2.2 0 00-.126.752zm13.584-3.156h1.524l-2.628 6.288h-1.32l-1.08-2.76-1.068 2.76h-1.322l-2.616-6.288h1.516l1.87 4.776.768-2.04-1.1-2.724h1.3l.66 1.932.672-1.932h1.3l-1.104 2.724.756 2.04zm2.256-2.472h1.608v6.744a.794.794 0 00.168.54.6.6 0 00.48.192 1.2 1.2 0 00.318-.048 2.151 2.151 0 00.33-.12l.216 1.224a3.11 3.11 0 01-.756.24 4.124 4.124 0 01-.78.088 1.61 1.61 0 01-1.17-.4 1.524 1.524 0 01-.414-1.152zm6.732 8.88a3.489 3.489 0 01-1.368-.258 3.137 3.137 0 01-1.044-.702 3.116 3.116 0 01-.67-1.032 3.312 3.312 0 01-.23-1.236 3.5 3.5 0 01.23-1.266 3.09 3.09 0 01.66-1.044 3.151 3.151 0 011.05-.714 3.5 3.5 0 011.384-.268 3.408 3.408 0 011.374.264 3.16 3.16 0 011.032.712 3.009 3.009 0 01.648 1.032 3.437 3.437 0 01.222 1.224q0 .156-.006.3a1.221 1.221 0 01-.03.24h-4.86a1.866 1.866 0 00.18.66 1.631 1.631 0 00.372.492 1.62 1.62 0 00.516.312 1.7 1.7 0 00.6.108 1.854 1.854 0 00.906-.234 1.239 1.239 0 00.582-.618l1.38.384a2.805 2.805 0 01-1.11 1.182 3.44 3.44 0 01-1.818.462zm1.632-3.792a1.672 1.672 0 00-.522-1.134 1.6 1.6 0 00-1.122-.426 1.6 1.6 0 00-.606.114 1.581 1.581 0 00-.5.318 1.648 1.648 0 00-.354.492 1.734 1.734 0 00-.162.636zm5.244 3.792a2.855 2.855 0 01-1.2-.252 2.83 2.83 0 01-.948-.7 3.253 3.253 0 01-.618-1.038 3.621 3.621 0 01-.222-1.278 3.755 3.755 0 01.21-1.272 3.338 3.338 0 01.582-1.032 2.683 2.683 0 01.888-.7 2.536 2.536 0 011.128-.248 2.383 2.383 0 011.254.336 2.434 2.434 0 01.87.876v-3.572h1.608v6.912a.6.6 0 00.084.36.373.373 0 00.288.12v1.368a3.645 3.645 0 01-.682.084 1.115 1.115 0 01-.708-.216.793.793 0 01-.314-.568l-.036-.4a2.281 2.281 0 01-.942.914 2.677 2.677 0 01-1.242.306zm.42-1.368a1.51 1.51 0 00.468-.078 1.649 1.649 0 00.444-.222 1.944 1.944 0 00.366-.336 1.4 1.4 0 00.244-.416v-1.5a1.756 1.756 0 00-.27-.486 2 2 0 00-.4-.384 2.066 2.066 0 00-.468-.258 1.33 1.33 0 00-.486-.1 1.445 1.445 0 00-.666.156 1.581 1.581 0 00-.522.426 2.049 2.049 0 00-.336.618 2.193 2.193 0 00-.12.72 1.985 1.985 0 00.132.732 1.906 1.906 0 00.36.588 1.639 1.639 0 00.546.4 1.682 1.682 0 00.708.14zm7.176 1.284a2.59 2.59 0 01-1.154-.252 2.783 2.783 0 01-.894-.69 3.139 3.139 0 01-.582-1.014 3.639 3.639 0 01-.2-1.224 3.661 3.661 0 01.216-1.272 3.3 3.3 0 01.6-1.032 2.737 2.737 0 01.924-.7 2.774 2.774 0 011.186-.252 2.454 2.454 0 011.284.33 2.783 2.783 0 01.912.882v-1.1h1.4v5.988a2.857 2.857 0 01-.26 1.248 2.737 2.737 0 01-.726.936 3.24 3.24 0 01-1.1.588 4.6 4.6 0 01-1.4.2 3.94 3.94 0 01-1.734-.342 3.514 3.514 0 01-1.206-.966l.876-.852a2.49 2.49 0 00.906.7 2.731 2.731 0 001.158.252 2.485 2.485 0 00.714-.1 1.724 1.724 0 00.606-.318 1.478 1.478 0 00.414-.552 1.93 1.93 0 00.15-.792v-.792a2.122 2.122 0 01-.876.834 2.584 2.584 0 01-1.214.292zm.54-1.284a1.515 1.515 0 00.5-.084 1.793 1.793 0 00.444-.228 1.8 1.8 0 00.362-.34 1.518 1.518 0 00.24-.408v-1.492a1.952 1.952 0 00-.678-.888 1.619 1.619 0 00-.966-.336 1.391 1.391 0 00-.672.162 1.673 1.673 0 00-.516.432 1.952 1.952 0 00-.33.618 2.3 2.3 0 00-.114.72 1.951 1.951 0 00.132.72 1.847 1.847 0 00.366.588 1.724 1.724 0 00.546.4 1.612 1.612 0 00.686.136zm7.524 1.368a3.489 3.489 0 01-1.368-.258 3.137 3.137 0 01-1.044-.7 3.116 3.116 0 01-.666-1.032 3.312 3.312 0 01-.234-1.236 3.5 3.5 0 01.228-1.266 3.09 3.09 0 01.66-1.044 3.151 3.151 0 011.05-.714 3.5 3.5 0 011.386-.27 3.408 3.408 0 011.374.264 3.16 3.16 0 011.032.708 3.009 3.009 0 01.648 1.032 3.437 3.437 0 01.222 1.224q0 .156-.006.3a1.22 1.22 0 01-.03.24h-4.86a1.866 1.866 0 00.18.66 1.631 1.631 0 00.372.492 1.62 1.62 0 00.516.312 1.7 1.7 0 00.6.108 1.854 1.854 0 00.906-.234 1.239 1.239 0 00.582-.618l1.38.384a2.805 2.805 0 01-1.11 1.182 3.44 3.44 0 01-1.818.466zm1.632-3.792a1.672 1.672 0 00-.522-1.134 1.6 1.6 0 00-1.122-.426 1.6 1.6 0 00-.606.114 1.581 1.581 0 00-.5.318 1.648 1.648 0 00-.354.492 1.734 1.734 0 00-.162.636zM52.321 79.804a2 2 0 01-.216.948 1.991 1.991 0 01-.594.684 2.781 2.781 0 01-.876.42 3.806 3.806 0 01-1.062.148h-4.116v-8.52h4.56a1.681 1.681 0 01.8.192 2.007 2.007 0 01.612.5 2.282 2.282 0 01.39.7 2.342 2.342 0 01.138.786 2.32 2.32 0 01-.312 1.17 1.9 1.9 0 01-.912.81 2.191 2.191 0 011.158.774 2.237 2.237 0 01.43 1.388zm-1.668-.312a1.248 1.248 0 00-.078-.438 1.216 1.216 0 00-.21-.366.978.978 0 00-.312-.246.873.873 0 00-.4-.09h-2.544v2.252h2.46a1.079 1.079 0 00.426-.084 1.021 1.021 0 00.342-.234 1.122 1.122 0 00.228-.354 1.123 1.123 0 00.088-.436zm-3.54-4.6v2.156h2.208a.982.982 0 00.714-.288 1.058 1.058 0 00.294-.792 1.1 1.1 0 00-.27-.78.877.877 0 00-.666-.284zm8.064 7.224a2.385 2.385 0 01-.852-.15 2.048 2.048 0 01-.684-.42 1.955 1.955 0 01-.45-.63 1.908 1.908 0 01-.162-.792 1.745 1.745 0 01.2-.822 1.885 1.885 0 01.552-.642 2.737 2.737 0 01.844-.406 3.69 3.69 0 011.08-.15 4.654 4.654 0 01.822.072 3.348 3.348 0 01.714.2v-.36a1.261 1.261 0 00-.354-.96 1.472 1.472 0 00-1.05-.336 2.781 2.781 0 00-.984.18 4.57 4.57 0 00-.984.528l-.492-1.02a4.642 4.642 0 012.616-.8 3.065 3.065 0 012.106.666 2.44 2.44 0 01.75 1.93v1.956a.565.565 0 00.09.36.394.394 0 00.294.12v1.364a3.58 3.58 0 01-.708.084 1.072 1.072 0 01-.7-.2.877.877 0 01-.306-.54L57.483 81a2.783 2.783 0 01-1.02.84 2.929 2.929 0 01-1.286.284zm.456-1.176a2.1 2.1 0 00.774-.144 1.4 1.4 0 00.57-.384.578.578 0 00.264-.456v-.72a3.937 3.937 0 00-.624-.174 3.361 3.361 0 00-.652-.058 1.718 1.718 0 00-1.02.282.847.847 0 00-.4.714.859.859 0 00.312.678 1.132 1.132 0 00.776.27zm10.56 1.064h-1.608v-3.528a1.838 1.838 0 00-.264-1.1.867.867 0 00-.732-.348 1.377 1.377 0 00-.492.1 1.811 1.811 0 00-.474.27 2.2 2.2 0 00-.4.414 1.637 1.637 0 00-.264.528v3.664h-1.61v-6.288h1.452v1.164a2.382 2.382 0 011.008-.936 3.233 3.233 0 011.488-.34 1.9 1.9 0 01.96.216 1.56 1.56 0 01.576.564 2.359 2.359 0 01.282.792 5.192 5.192 0 01.078.9zm5.7 0l-1.828-2.724-.864.852v1.872h-1.604v-8.76h1.608v5.316l2.52-2.832h1.716l-2.34 2.664 2.508 3.612z" fill="#373943"/></g></g><path data-name="パス 1130" d="M285.2 5427.674a7.684 7.684 0 001.806 1.582 5.971 5.971 0 01.77-1.372 8.255 8.255 0 01-2.226-1.778 11.5 11.5 0 001.4-2.394 3.892 3.892 0 01.308-.588l-.672-.724a5.1 5.1 0 01-.812.042h-.574v-1.152a5.967 5.967 0 01.084-1.09h-1.694a6.428 6.428 0 01.084 1.064v1.176h-.7a8.548 8.548 0 01-1.106-.058v1.554a9.586 9.586 0 011.176-.056h2.282a8.318 8.318 0 01-1.526 2.156 9.656 9.656 0 01-2.408 1.89 5.424 5.424 0 01.714 1.456 9.435 9.435 0 001.554-1.19v3.514a8.375 8.375 0 01-.084 1.456h1.694a9.941 9.941 0 01-.07-1.428zm5.936-2.074h1.484c.49 0 .924.028 1.372.07v-1.58a9.105 9.105 0 01-1.372.07h-1.484v-2.46a8.207 8.207 0 01.1-1.456h-1.752a9.909 9.909 0 01.1 1.456v2.46h-1.052a9.451 9.451 0 01-1.372-.07v1.582c.448-.042.9-.07 1.372-.07h1.05v5.474h-1.526a12.7 12.7 0 01-1.61-.084v1.694a11.29 11.29 0 011.582-.1h4.788a11.5 11.5 0 011.6.1v-1.694a12.008 12.008 0 01-1.6.084h-1.68zm8.19 5.138a10.542 10.542 0 01-3.976 1.162 4.516 4.516 0 01.85 1.388 16.627 16.627 0 002.142-.56 12.182 12.182 0 002.552-1.246l-.882-.742h3.808l-.756.686a10.532 10.532 0 004.676 1.874 4.693 4.693 0 01.868-1.37 11.1 11.1 0 01-4.032-1.19h1.124c.7 0 1.134.014 1.568.056a2.456 2.456 0 01-.042-.56c0-.056-.014-.364-.014-.91v-3.542a12.585 12.585 0 01.056-1.5c-.49.042-.882.056-1.568.056h-7.452a15.75 15.75 0 01-1.554-.056 13.853 13.853 0 01.056 1.5v3.542c0 .7-.028 1.12-.056 1.47a15.57 15.57 0 011.554-.056zm-1.078-5.238h7.452v.644h-7.452zm0 1.694h7.452v.644h-7.452zm0 1.694h7.452v.686h-7.452zm8.442-7.248a8.512 8.512 0 01.056-1.078 12.167 12.167 0 01-1.582.07h-6.356a12.4 12.4 0 01-1.6-.07 6.971 6.971 0 01.07 1.078v1.078c0 .378-.028.7-.056 1.05.42-.028.91-.042 1.54-.042h6.458c.616 0 1.092.014 1.512.042-.028-.322-.042-.63-.042-1.05zm-1.554.182v.77h-6.314v-.77zm11.956 1.2a3.06 3.06 0 011.414.42 3.468 3.468 0 011.722 3.108 3.92 3.92 0 01-1.946 3.5 7.44 7.44 0 01-2.786.77 4.466 4.466 0 01.854 1.642 9.153 9.153 0 002.2-.588 5.393 5.393 0 003.4-5.222c0-3.15-2.184-5.194-5.544-5.194a6.285 6.285 0 00-4.816 1.96 6.014 6.014 0 00-1.54 4.074c0 2.254 1.15 3.878 2.744 3.878 1.148 0 2.044-.826 2.842-2.632a20.254 20.254 0 001.456-5.712zm-1.708.014a18.451 18.451 0 01-1.162 4.732c-.5 1.2-.98 1.792-1.442 1.792-.616 0-1.106-.91-1.106-2.058a4.687 4.687 0 011.9-3.78 3.564 3.564 0 011.81-.682zm18.7 1.5a9.667 9.667 0 01-1.344 3.276 18.975 18.975 0 01-.64-4.184h2.52c.714 0 1.246.028 1.708.07v-1.54a7.8 7.8 0 01-1.484.084h-.42l.728-.5a7.834 7.834 0 00-1.414-1.47l-1.078.686a6.615 6.615 0 011.232 1.288h-1.848v-.646a11.554 11.554 0 01.07-1.33h-1.666a4.337 4.337 0 01.07.882c.028.616.028.98.042 1.092h-4.06c-.728 0-1.3-.028-1.806-.07a13.853 13.853 0 01.084 1.988 26.312 26.312 0 01-.42 5.53 6.545 6.545 0 01-.966 2.208 5.139 5.139 0 011.218 1.19 7.573 7.573 0 001.148-2.73 21.634 21.634 0 00.434-3.514h2.044a15.218 15.218 0 01-.21 2.534c-.07.35-.2.434-.63.434a8.534 8.534 0 01-1.358-.114 5.24 5.24 0 01.362 1.488c.448.028.672.042 1.064.042 1.078 0 1.582-.21 1.806-.77a13.3 13.3 0 00.462-3.85c.028-.546.056-.938.084-1.19a6.117 6.117 0 01-.994.056h-2.574c.014-.5.014-.5.028-1.848h4.34a17.359 17.359 0 001.05 5.586 10.508 10.508 0 01-3.766 2.576 4.645 4.645 0 011.064 1.218 12.883 12.883 0 003.388-2.45c.812 1.316 1.918 2.254 2.632 2.254.77 0 1.26-.826 1.582-2.716a4.175 4.175 0 01-1.26-.938 8.152 8.152 0 01-.266 1.642c-.07.182-.126.266-.182.266a2.035 2.035 0 01-.63-.5 6.031 6.031 0 01-.84-1.2 15.222 15.222 0 001.89-3.5c.224-.532.224-.532.308-.742zm13.626 3.292h1.316a8.113 8.113 0 011.26.084v-1.512a8.885 8.885 0 01-1.386.084h-7.462v-.742h5.936a8.351 8.351 0 011.288.07v-1.288a9.317 9.317 0 01-1.288.07h-5.936v-.686h5.936a12.116 12.116 0 011.288.07v-1.278a9.619 9.619 0 01-1.288.07h-5.936v-.7h6.146a11.488 11.488 0 011.61.07v-1.48a9.482 9.482 0 01-1.624.084h-6.27a11.24 11.24 0 01-1.526-.07 10.9 10.9 0 01.056 1.386v4.424h-.73a9.041 9.041 0 01-1.456-.084v1.512a8.8 8.8 0 011.428-.084h.756v3.486a13.937 13.937 0 01-1.988.252l.294 1.568c.252-.07.294-.07.63-.14a40.541 40.541 0 005.474-1.344l-.014-1.4a24.379 24.379 0 01-2.814.756v-3.178h1.218a7.443 7.443 0 002.142 2.772 12.118 12.118 0 005.04 2.436 6.843 6.843 0 01.742-1.61 12.353 12.353 0 01-3.668-1.246 9.3 9.3 0 001.344-.966c.518-.462.686-.616.8-.7zm-.154 0a10.168 10.168 0 01-1.876 1.624 4.4 4.4 0 01-1.47-1.624z" fill="#373943"/><path data-name="パス 1141" d="M845.12 5276.332h2.324a14.729 14.729 0 011.526.068v-1.622a14.236 14.236 0 01-1.54.07h-2.31v-1.386a10.648 10.648 0 01.08-1.512h-1.718a11.75 11.75 0 01.084 1.55v5.716h-2.044v-3.374a9.683 9.683 0 01.1-1.582H839.9a13.411 13.411 0 01.084 1.6v3.36h-.616a9.709 9.709 0 01-1.666-.1v1.68a11.95 11.95 0 011.79-.1h9.114a11.9 11.9 0 011.764.1v-1.682a11.537 11.537 0 01-1.764.1h-3.486zm-1.932-7.966a10.179 10.179 0 01-2.282 2.548 14.9 14.9 0 01-3.444 2.114 5.273 5.273 0 01.784 1.5 17.454 17.454 0 003.486-2.3 12.712 12.712 0 002.31-2.45 12.531 12.531 0 002.45 2.506 16.7 16.7 0 003.458 2.116 6.068 6.068 0 01.77-1.54 14.767 14.767 0 01-3.528-2 9.742 9.742 0 01-2.392-2.494zm13.972 5.474v.672h-2.772a9.941 9.941 0 01-1.428-.07v1.258a10.061 10.061 0 011.428-.07h2.772v.7h-3.71a13 13 0 01-1.68-.082v1.4a15.389 15.389 0 011.694-.084h2.6a10.064 10.064 0 01-4.574 1.988 5.73 5.73 0 01.854 1.348 13.545 13.545 0 002.856-1.18 7.786 7.786 0 002.016-1.54 9.426 9.426 0 00-.042.952v.668a10.449 10.449 0 01-.084 1.432h1.652a7.965 7.965 0 01-.1-1.414v-.686a9.583 9.583 0 00-.042-.994 10.924 10.924 0 005.2 2.772 5.544 5.544 0 01.8-1.428 12.016 12.016 0 01-2.912-.8 7.268 7.268 0 01-1.9-1.12h2.814a15.124 15.124 0 011.68.084v-1.4a12.366 12.366 0 01-1.694.084h-3.916v-.7h2.928a10.277 10.277 0 011.442.07v-1.26a10.156 10.156 0 01-1.442.07h-2.928v-.67h3.654a10.277 10.277 0 011.442.07v-1.33a12.875 12.875 0 01-1.442.056H860.7c.2-.35.252-.476.518-1.036h1.4c.686 0 1.232.028 1.666.07v-1.4a11.352 11.352 0 01-1.582.084h-.392c.308-.434.532-.784.868-1.344l-1.442-.532a7.47 7.47 0 01-1.006 1.876h-.882v-.994a7.351 7.351 0 01.07-1.092h-1.526a9.971 9.971 0 01.042 1.032v1.05h-.994v-1.05a9.428 9.428 0 01.042-1.036h-1.526a7.786 7.786 0 01.07 1.092v.994h-.8a9.9 9.9 0 00-1.076-1.83l-1.4.532a5.918 5.918 0 01.952 1.3h-.448a11.864 11.864 0 01-1.6-.084v1.4c.448-.042.98-.07 1.666-.07h1.516c.154.266.308.588.518 1.036h-1.694a12.716 12.716 0 01-1.442-.054v1.33a10.4 10.4 0 011.442-.07zm-.322-1.2a8.936 8.936 0 00-.42-1.04h3.192a8.165 8.165 0 01-.462 1.036z" fill="#373943"/><path data-name="パス 1137" d="M641.088 5405.263v.182a9.539 9.539 0 01-.117 1.261 15.81 15.81 0 01-1.222 4.459 8.76 8.76 0 01-1.859 2.769 5.624 5.624 0 011.482 1.118c1.742-2 2.756-4.563 3.3-8.294l.039-.312.065-.377.026-.221a1.5 1.5 0 01.065-.26zm3.861.312a5.463 5.463 0 01.182.936 17.228 17.228 0 003.445 8.554 5.351 5.351 0 011.43-1.2 12.592 12.592 0 01-2.9-5.616 16.106 16.106 0 01-.546-2.99zm3.8-1.04a1.5 1.5 0 00-1.499 1.495 1.506 1.506 0 001.495 1.508 1.509 1.509 0 001.508-1.508 1.506 1.506 0 00-1.508-1.495zm0 .65a.846.846 0 01.858.845.857.857 0 01-.858.858.854.854 0 01-.849-.858.843.843 0 01.845-.845zm2.678 5.733a14.271 14.271 0 012.119-.065h6.9a14.271 14.271 0 012.119.065v-1.807a12.767 12.767 0 01-2.106.091h-6.929a12.767 12.767 0 01-2.106-.091zm13.633-5.083a16.74 16.74 0 011.651 4.2l1.69-.6a18.509 18.509 0 00-1.755-4.147zm7.982-.572a11.674 11.674 0 01-.65 2.938 9.816 9.816 0 01-2.119 3.692 10 10 0 01-3.614 2.483 4.86 4.86 0 011.2 1.4 11.858 11.858 0 003.741-2.83 13.394 13.394 0 002.885-5.993 5.9 5.9 0 01.351-1.274zm11.141 2.337c0-.143 0-.143.013-1l.013-.78a8.2 8.2 0 01.065-1.248h-1.794a8.183 8.183 0 01.065 1.25v.767c0 .234 0 .468-.013 1.014h-3.276a9.4 9.4 0 01-1.69-.091v1.638a13.353 13.353 0 011.664-.065h3.224a5.62 5.62 0 01-.637 2.615 6 6 0 01-3.133 2.559 4.038 4.038 0 011.183 1.404 7.827 7.827 0 003.315-2.912 7.177 7.177 0 00.936-3.666h2.665a13.353 13.353 0 011.664.065v-1.638a9.312 9.312 0 01-1.69.091zm7.943-1.219a10 10 0 011.495-.065h4.589a10 10 0 011.495.065v-1.6a7.4 7.4 0 01-1.521.091h-4.537a7.4 7.4 0 01-1.521-.091zm8.242 1.508a5.686 5.686 0 01-1.469.117h-6.188a9.227 9.227 0 01-1.69-.091v1.585a13.225 13.225 0 011.664-.065h6.331a6.764 6.764 0 01-2.093 3.042 8.442 8.442 0 01-3.614 1.717 4.53 4.53 0 011.014 1.506 11.568 11.568 0 003.406-1.768 9.193 9.193 0 003.016-4.392 5.861 5.861 0 01.364-.819zm12.064-3.445a10.4 10.4 0 01-2.418 2.431 18.986 18.986 0 01-6.825 3.38 4.89 4.89 0 01.871 1.482 21.063 21.063 0 004.64-2.106v4.576a7.312 7.312 0 01-.078 1.4h1.82a9.834 9.834 0 01-.065-1.443v-5.547a22.988 22.988 0 003.068-2.678 5.355 5.355 0 01.481-.455zm14.898 9.956a27.88 27.88 0 00-4.3-3.679 15.668 15.668 0 001.9-3.315 2.626 2.626 0 01.416-.7l-.962-1.157a2.816 2.816 0 01-1.157.143l-4.342.065h-.312a5.689 5.689 0 01-1.144-.078l.052 1.651a11.115 11.115 0 011.417-.091l3.9-.065.117-.013a2.412 2.412 0 00.286-.013.383.383 0 00-.039.117l-.039.091-.065.143a12.36 12.36 0 01-2.7 3.913 13.024 13.024 0 01-4.273 2.808 4.858 4.858 0 011.053 1.443 15.72 15.72 0 004.953-3.757 25.634 25.634 0 013.991 3.861zm-2.613-9.62a8.774 8.774 0 011.365 1.937l.871-.481a8.425 8.425 0 00-1.365-1.911zm3.731.65a7.518 7.518 0 00-1.348-1.83l-.819.416a9.578 9.578 0 011.319 1.884zm-53.742 20.422a6.461 6.461 0 01-.078.754 5.03 5.03 0 01-1.7 2.964 6.134 6.134 0 01-2.015 1.2 4.614 4.614 0 01.949 1.274 7.53 7.53 0 003.3-2.86 6.917 6.917 0 001.014-3.328h2.5v.754a12.771 12.771 0 01-.4 3.458c-.117.195-.26.247-.741.247a10.687 10.687 0 01-1.573-.169 5.583 5.583 0 01.39 1.521c.871.039 1.079.052 1.339.052 1.157 0 1.625-.182 1.911-.754a17.729 17.729 0 00.546-5.434v-.442a13.256 13.256 0 001.604 1.361 6.052 6.052 0 01.988-1.4 10.081 10.081 0 01-3.6-3.77 4.859 4.859 0 01-.507-1.131l-1.444.551a5.332 5.332 0 01.273.546 13 13 0 002.145 3.267c-.312.013-.494.013-.806.013h-4.784a6.719 6.719 0 01-.676-.026 14.459 14.459 0 002.093-3.159 3.676 3.676 0 01.351-.663l-1.56-.559a4.041 4.041 0 01-.525 1.313 10.023 10.023 0 01-3.419 3.731 4.52 4.52 0 011 1.274 12.923 12.923 0 001.625-1.443v.923a9.034 9.034 0 011.1-.065zm15.694-1.729v-1.677a19.4 19.4 0 003.588-.676c1.014-.3 1.014-.3 1.274-.364l-1.017-1.326a14.032 14.032 0 01-5.057 1.131 2.7 2.7 0 01-.273-.011 17.015 17.015 0 01.078 2.13c0 4.511-.364 6.214-1.664 7.709a6.214 6.214 0 011.183 1.04c1.235-1.6 1.716-3.328 1.846-6.591h1.859v5.031a14.461 14.461 0 01-.091 1.573h1.574a13.636 13.636 0 01-.078-1.573v-5.031h.364a13.157 13.157 0 011.547.078v-1.521a12.323 12.323 0 01-1.533.078zm-2.7-.364a4.051 4.051 0 01.806.065v-1.43a3.947 3.947 0 01-.819.065h-.761v-1.17a6.26 6.26 0 01.074-1.196h-1.5a7.545 7.545 0 01.078 1.2v1.17h-.849a4.335 4.335 0 01-.923-.065v1.43a4.171 4.171 0 01.871-.065h.754a16.5 16.5 0 01-.715 1.837 10.51 10.51 0 01-1.43 2.353 3.8 3.8 0 01.884 1.17 13.221 13.221 0 001.469-2.86c-.052.988-.052.988-.052 1.781v2.639a8.341 8.341 0 01-.091 1.4H687a10.352 10.352 0 01-.078-1.417v-3.228c0-.806-.013-1.625-.026-1.924a10.674 10.674 0 00.975 1.651 4.265 4.265 0 01.741-1.2 6.907 6.907 0 01-1.573-2.21z" fill="#373943"/><rect data-name="長方形 2488" width="150" height="40" rx="10" transform="translate(440 5298)" fill="#fff"/><path data-name="パス 1134" d="M497.08 5317.872a7.9 7.9 0 011.2.064v-1.616a7.776 7.776 0 01-1.392.08h-6.448c.016-.784.032-1.184.032-1.92v-1.68h5.968a13.454 13.454 0 011.664.064v-1.712a13.261 13.261 0 01-1.776.1h-5.616c-.672 0-1.344-.032-1.888-.08a19.514 19.514 0 01.064 2.032c0 6.656-.272 8.448-1.664 10.688a7.441 7.441 0 011.344 1.308 13.23 13.23 0 001.232-3.008 18.515 18.515 0 00.576-4.32h.88v5.3a8.566 8.566 0 01-1.712.208l.384 1.776a7.375 7.375 0 01.736-.208 38.478 38.478 0 004.16-1.152v-1.556c-.912.3-1.216.384-1.952.576v-4.944h.88a11.684 11.684 0 001.12 4.064 10.172 10.172 0 002.512 3.28 6.929 6.929 0 011.12-1.5 6.982 6.982 0 01-2.288-2.48 6.028 6.028 0 00.88-.64c.96-.784.96-.784 1.28-1.04l-1.12-1.1a7.015 7.015 0 01-1.632 1.424 10.1 10.1 0 01-.416-2zm-11.616-2.72v3.056a10.059 10.059 0 01-1.84.512l.256 1.76a1.5 1.5 0 01.24-.1c.432-.144.8-.288 1.344-.5v3.352c0 .368-.08.448-.432.448a10.642 10.642 0 01-1.3-.112 6.408 6.408 0 01.384 1.664c.768.032.848.032 1.152.032 1.44 0 1.856-.352 1.856-1.568v-4.48a26.43 26.43 0 001.232-.608v-1.616c-.624.3-.848.416-1.232.576v-2.416h.512a6.978 6.978 0 01.816.048v-1.664a4.185 4.185 0 01-.832.064h-.5v-1.36a11.119 11.119 0 01.08-1.616h-1.84a8.876 8.876 0 01.1 1.616v1.36h-.56a6.116 6.116 0 01-1.136-.08v1.712a6.6 6.6 0 011.12-.08zm11.984-1.328a7.31 7.31 0 01-1.168.064h-4.16a5.909 5.909 0 01-1.072-.064v1.536a9.3 9.3 0 011.072-.048h4.18a7.472 7.472 0 011.152.064zm5.2-3.008a3.76 3.76 0 01-.048.544l-.24 1.984c-.128 1.1-.224 2.88-.224 4.176 0 .32.032 1.5.048 1.968v.3a1.244 1.244 0 01-.016.212l1.92-.032v-.336a7.671 7.671 0 012.012-5.168 2.381 2.381 0 011.728-.848c1.376 0 2.144 1.28 2.144 3.584 0 2.432-.848 3.952-2.7 4.9a9.34 9.34 0 01-3.5.912 6.12 6.12 0 01.94 1.888 13.645 13.645 0 003.136-.9 6.725 6.725 0 004.128-6.576 6.7 6.7 0 00-1.152-4.256 3.351 3.351 0 00-2.736-1.44 3.82 3.82 0 00-3.04 1.632 6.468 6.468 0 00-1.008 1.9 3.513 3.513 0 01-.1.352h-.04c.032-.384.1-.928.208-1.6a15.7 15.7 0 01.576-3.088zm20.288 5.168a8.379 8.379 0 002.016 3.568 10.1 10.1 0 01-3.12 1.888 5.672 5.672 0 011.088 1.44 12.239 12.239 0 003.248-2.18 13.165 13.165 0 003.568 2.08 7.132 7.132 0 01.8-1.648 10.972 10.972 0 01-3.216-1.632 11.41 11.41 0 001.952-3.4 4.615 4.615 0 01.368-.816l-.88-.88a8.166 8.166 0 01-1.44.08h-4.592c.016-.3.016-.88.032-1.744h5.632a13.76 13.76 0 011.744.1v-1.744a15.233 15.233 0 01-1.84.1h-5.424a14.728 14.728 0 01-1.856-.08 19.959 19.959 0 01.08 2.08 25.049 25.049 0 01-.464 5.632 5.879 5.879 0 01-1.008 2.472 5.277 5.277 0 011.264 1.34 8.711 8.711 0 001.184-2.608 18.275 18.275 0 00.592-4.048zm4.608 0a8.124 8.124 0 01-1.456 2.432 6.946 6.946 0 01-1.5-2.432zm-11.664-3.952a16.139 16.139 0 012.72 2.992l1.328-1.3a18.464 18.464 0 00-2.768-2.9zm-.128 6.352a5.937 5.937 0 011.072-.084h.876v3.44a8.891 8.891 0 01-2.3 1.588l.784 1.824c.256-.208.432-.352.528-.416a16.621 16.621 0 001.856-1.536 3.836 3.836 0 001.984 1.456 18.947 18.947 0 004.736.368c1.072 0 3.488-.048 4.944-.112a9.089 9.089 0 01.48-1.888 49.8 49.8 0 01-6.96.336 7.637 7.637 0 01-3.2-.416 2.354 2.354 0 01-1.168-1.12v-3.424a15.6 15.6 0 01.064-1.728 9.631 9.631 0 01-1.216.064h-1.2a6.942 6.942 0 01-1.28-.08zm18.9-7.568a3.76 3.76 0 01-.048.544l-.24 1.984c-.128 1.1-.224 2.88-.224 4.176 0 .32.032 1.5.048 1.968v.3a1.244 1.244 0 01-.02.212l1.92-.032v-.336a7.671 7.671 0 012.012-5.168 2.381 2.381 0 011.728-.848c1.376 0 2.144 1.28 2.144 3.584 0 2.432-.848 3.952-2.7 4.9a9.34 9.34 0 01-3.5.912 6.12 6.12 0 01.94 1.888 13.645 13.645 0 003.136-.9 6.725 6.725 0 004.128-6.576 6.7 6.7 0 00-1.152-4.256 3.351 3.351 0 00-2.736-1.44 3.82 3.82 0 00-3.04 1.632 6.468 6.468 0 00-1.008 1.9 3.513 3.513 0 01-.1.352h-.04c.032-.384.1-.928.208-1.6a15.7 15.7 0 01.576-3.088z" fill="#373943" stroke="rgba(0,0,0,0)"/><path data-name="長方形 2515" fill="#fb5d51" d="M610 5275h72v5h-72z"/><path data-name="長方形 2516" fill="#fb5d51" d="M685 5440.5v46h-5v-46z"/><path data-name="多角形 17" d="M682.5 5494.5l-7.5-13h15z" fill="#fb5d51"/><path data-name="長方形 2517" fill="#fb5d51" d="M685 5275v22h-5v-22z"/><path data-name="パス 1136" d="M543.286 5172.518a16.893 16.893 0 01-2.128.1h-8.288a18.054 18.054 0 01-2.142-.1v1.848c.63-.056 1.358-.1 2.142-.1h8.288a19.088 19.088 0 012.128.1zm6.776-5.1a9.158 9.158 0 01.056 1.176c0 3.36-.756 5.656-2.562 7.728a9.332 9.332 0 01-3.056 2.342 4.188 4.188 0 011.1 1.442 11.808 11.808 0 002.166-1.606 9.747 9.747 0 002.156-2.688 10.018 10.018 0 001.092-2.832 11.068 11.068 0 001.862 3.82 13.628 13.628 0 003.556 3.3 5.209 5.209 0 011.092-1.548 9.323 9.323 0 01-2.17-1.512 9.384 9.384 0 01-2.212-2.66 10.049 10.049 0 01-1.372-5.516 9.262 9.262 0 01.1-1.442zm9.352 2.692a2.612 2.612 0 01.42-.042 14.265 14.265 0 002.268-.28c.224-.042.224-.042.392-.07a2.054 2.054 0 00-.154.14c-.182.168-.182.168-.238.224a8.913 8.913 0 00-1.414 1.806 6.9 6.9 0 00-.966 3.36 4.224 4.224 0 001.736 3.57 4.522 4.522 0 002.408.658c2.646 0 4.55-2.142 4.55-5.138a8.912 8.912 0 00-.294-2.464c.42.672.644 1.036.7 1.12a10.314 10.314 0 001.54 1.764 4.027 4.027 0 01.322.294l.868-1.652a9.053 9.053 0 01-2.534-2.646 10.312 10.312 0 01-1.2-2.534l-1.68.5a11.523 11.523 0 01.752 4.26 7.444 7.444 0 01-.518 3.038 2.725 2.725 0 01-2.562 1.736 2.339 2.339 0 01-2.394-2.534 6.559 6.559 0 011.806-4.144 6.9 6.9 0 011.722-1.512l-.882-1.512a14.051 14.051 0 01-3.976.448 5.225 5.225 0 01-.7-.042zm16.758-2.324a5.95 5.95 0 01.224.91 35.672 35.672 0 00.938 3.794 8.641 8.641 0 00-1.9 1.2 3.288 3.288 0 00-1.25 2.51 2.65 2.65 0 001.216 2.338 7.84 7.84 0 004.06.77 29.586 29.586 0 003.278-.208 8.727 8.727 0 011.134-.1l-.154-1.918a15.327 15.327 0 01-4.522.574c-2.254 0-3.206-.434-3.206-1.456s1.022-1.9 3.066-2.66a34.207 34.207 0 014.62-1.34l-.6-1.764a3.832 3.832 0 01-.532.21c-2.716.9-2.716.9-3.626 1.232a23.513 23.513 0 01-.924-4.382zm13.02-.322a3.29 3.29 0 01-.042.476l-.21 1.736c-.112.966-.2 2.52-.2 3.654 0 .28.028 1.316.042 1.722v.266a1.089 1.089 0 01-.014.182l1.68-.028v-.294a6.712 6.712 0 011.764-4.522 2.084 2.084 0 011.512-.742c1.2 0 1.876 1.12 1.876 3.136 0 2.128-.742 3.458-2.366 4.284a8.172 8.172 0 01-3.066.8 5.355 5.355 0 01.832 1.65 11.94 11.94 0 002.742-.784 5.884 5.884 0 003.612-5.754 5.863 5.863 0 00-1.008-3.724 2.932 2.932 0 00-2.394-1.26 3.342 3.342 0 00-2.66 1.428 5.66 5.66 0 00-.882 1.666 3.074 3.074 0 01-.084.308h-.042c.028-.336.084-.812.182-1.4a13.733 13.733 0 01.5-2.7zm20.79 3.836a13.1 13.1 0 011.918 4.55l1.6-.8a13.021 13.021 0 00-2.1-4.45zm-4.116-3.08a3.257 3.257 0 01.112-.434l-1.82-.182v.252a19.693 19.693 0 01-.364 2.828 28.754 28.754 0 01-2.982.294l.168 1.652a5.749 5.749 0 01.574-.14l1.274-.21c.448-.084.448-.084.658-.112a20.592 20.592 0 01-2.814 6.594l1.624.9a30.057 30.057 0 002.856-7.616c.322-.028.546-.042.84-.042 1.078 0 1.4.378 1.4 1.666a12.44 12.44 0 01-.364 3.192c-.21.686-.434.952-.84.952a5.861 5.861 0 01-2.044-.56 5.258 5.258 0 01.14 1.19c0 .14-.014.35-.028.616a6.49 6.49 0 002.156.42 1.773 1.773 0 001.554-.63c.672-.77 1.078-2.688 1.078-5.1a3.4 3.4 0 00-.658-2.478 2.712 2.712 0 00-2.072-.742c-.252 0-.448.014-.868.028.042-.182.042-.182.084-.42.14-.756.238-1.33.308-1.736zm3.248.1a9.449 9.449 0 011.47 2.08l.98-.518a9.073 9.073 0 00-1.47-2.058zm4.116.658a8.1 8.1 0 00-1.456-1.978l-.938.49a10.315 10.315 0 011.428 2.03zm13.832 9.028c-1.694-1.638-1.694-1.638-2.044-1.946a21.7 21.7 0 00-2.59-2.03 18.541 18.541 0 002.184-3.864 2.693 2.693 0 01.448-.756l-.924-.952a3.033 3.033 0 01-1.246.154l-4.928.07h-.336a6.127 6.127 0 01-1.232-.084l.056 1.792a11.033 11.033 0 011.526-.112c4.41-.07 4.41-.07 4.634-.084l-.154.364a13.494 13.494 0 01-4.7 5.7 11.558 11.558 0 01-2.8 1.54 5.616 5.616 0 011.13 1.552 16.637 16.637 0 005.334-4.05 26.913 26.913 0 014.3 4.158zm5.964-7.686l-2.6.406a13.013 13.013 0 01-1.54.154l.28 1.722a14.932 14.932 0 011.54-.322l2.6-.406.42 2.3-3.4.546a8.615 8.615 0 01-1.484.14l.28 1.722a11.266 11.266 0 011.428-.308l3.458-.546.5 2.758a10.6 10.6 0 01.182 1.47l1.876-.336a7.908 7.908 0 01-.336-1.442l-.5-2.716 3.332-.532.56-.084a1.088 1.088 0 01.224-.028 3.358 3.358 0 01.644-.07l-.308-1.68a12.441 12.441 0 01-1.456.322l-3.29.518-.42-2.3 2.954-.462a11.886 11.886 0 011.344-.182l-.294-1.68a7.211 7.211 0 01-1.344.308l-2.954.462-.224-1.218a9.631 9.631 0 01-.168-1.316l-1.848.294a6.032 6.032 0 01.336 1.316zm11.4-2.268a7.036 7.036 0 01.056 1.274c0 3.92-.322 5.726-1.33 7.336a5.752 5.752 0 01-1.442 1.61 4.983 4.983 0 011.41 1.358 8.915 8.915 0 001.932-2.59 13.109 13.109 0 001.134-5.754 29.257 29.257 0 01.14-3.136zm3.71-.1a6.059 6.059 0 01.056.924v.42l-.07 7.9a6.274 6.274 0 01-.126 1.484l.9.952a6.093 6.093 0 01.6-.252 9.246 9.246 0 002.982-1.68 8.688 8.688 0 002.222-3.264 5.868 5.868 0 01-1.316-1.316 6.841 6.841 0 01-1.372 2.562 5.628 5.628 0 01-2.142 1.6l.07-7.966a7.586 7.586 0 01.1-1.33zm18.634.336a3.854 3.854 0 01-1.358.126H658.1a11.161 11.161 0 01-1.932-.112v1.75a13.457 13.457 0 011.9-.084h7.35a5.806 5.806 0 01-1.33 1.778 6.492 6.492 0 01-2.044 1.288 4.732 4.732 0 011.26 1.274 8.757 8.757 0 001.68-1.162 8.885 8.885 0 002.156-2.814 3.891 3.891 0 01.56-.98zm-6.65 2.828a3.545 3.545 0 01.07.84c0 2.646-.448 3.85-1.876 4.984a6.455 6.455 0 01-2.45 1.19 4.942 4.942 0 011.106 1.6 8.09 8.09 0 003.612-2.52c.952-1.218 1.33-2.562 1.386-4.956a6.426 6.426 0 01.056-1.134zm10.724.266a14.007 14.007 0 011.274 3.388l1.582-.5a16.149 16.149 0 00-1.372-3.318zm3-.588a15.394 15.394 0 011.274 3.29l1.554-.49a13.753 13.753 0 00-1.358-3.22zm4.816-.14a6.21 6.21 0 01-.252 1.61 8.05 8.05 0 01-3.178 4.858 9.081 9.081 0 01-2.38 1.288 5.085 5.085 0 011.112 1.39 10.746 10.746 0 004.27-3.374 11.951 11.951 0 001.932-4.662 2.946 2.946 0 01.2-.714zm7.266-1.834a9.592 9.592 0 01-1.792-.1v1.82a10.087 10.087 0 011.764-.084h6.664a10.153 10.153 0 01-7.308 7.532 5.152 5.152 0 011.224 1.67 12.556 12.556 0 008.036-9.282 1.913 1.913 0 00.266.028 1.625 1.625 0 001.62-1.624 1.622 1.622 0 00-1.624-1.61 1.613 1.613 0 00-1.61 1.624c-.238.014-.406.028-.826.028zm8.862-.952a.911.911 0 01.924.91.923.923 0 01-.924.924.92.92 0 01-.91-.924.908.908 0 01.902-.908zm4.676-.056a6.964 6.964 0 01.056.952c0 .2 0 .49-.014.91-.084 3.514-.112 4.914-.112 5.642 0 1.876.406 2.954 1.372 3.6a4.564 4.564 0 002.45.616 5.3 5.3 0 004.2-1.778 8.624 8.624 0 001.666-3.57 6.046 6.046 0 01-1.694-1.078 9.385 9.385 0 01-.644 2.352 3.6 3.6 0 01-3.388 2.394 2.217 2.217 0 01-1.876-.728 3.891 3.891 0 01-.364-2.254c0-.994.084-3.836.14-5.138a12.8 12.8 0 01.168-1.89zm19 3.43h-2.17a11.519 11.519 0 01-1.54-.084v1.6a12.435 12.435 0 011.54-.084h2.17v1.806h-1.932a7.884 7.884 0 01-1.106-.056 10.7 10.7 0 01.056 1.2v3.054c0 .546-.028 1.078-.056 1.456h1.54v-.7h4.69v.7h1.582a13.773 13.773 0 01-.07-1.442v-3.01a10.486 10.486 0 01.056-1.26 7.391 7.391 0 01-1.106.056h-2.138v-1.806h2.45a11.46 11.46 0 011.554.084v-1.6a11.546 11.546 0 01-1.568.084h-2.436v-1.84c.994-.154 2.24-.406 2.926-.588.448-.112.448-.112.686-.182l-1.022-1.4a22.162 22.162 0 01-7.532 1.232 4.27 4.27 0 01.532 1.386c1.2-.07 1.484-.1 2.884-.252zm-1.5 4.606h4.69v2.158h-4.69zm-5.446-7.462a16.016 16.016 0 012.52 1.96l.91-1.2a17.8 17.8 0 00-2.478-1.834zm-.448 3.6a14.656 14.656 0 012.618 1.778l.84-1.274a16.522 16.522 0 00-2.6-1.638zm2.268 2.73a15.218 15.218 0 01-1.716 3.514 3.121 3.121 0 01-.5.616l1.354 1.078a27.98 27.98 0 002.072-4.324zm13.944 3.192a5.07 5.07 0 01-.518.14v-3.584a10.382 10.382 0 01.056-1.2h-1.288a8.048 8.048 0 01.07 1.218v3.832a2.123 2.123 0 01-.546.084l.238 1.554a7.725 7.725 0 01.734-.252 35.184 35.184 0 003.836-1.288l-.028-1.344-1.26.448v-2.394h.364c.154 0 .252 0 .476.014a4.718 4.718 0 01.584 1.12 4.743 4.743 0 00.616-.854c-.028.252-.028.294-.042.588v.266c-.014.154-.014.28-.014.364v2.1a10.55 10.55 0 01-.084 1.54h1.47v-.532h4.754c.49 0 1.008.028 1.414.07v-1.386a7.545 7.545 0 01-1.358.07h-1.586v-.7h1.19a7.414 7.414 0 011.162.056v-1.148a6.637 6.637 0 01-1.162.056h-1.19v-.672h1.176a7.865 7.865 0 011.176.056v-1.148a6.729 6.729 0 01-1.176.056h-1.176v-.672h1.512a9.049 9.049 0 011.218.056v-1.26a6.522 6.522 0 01-1.218.07h-1.26a6.957 6.957 0 00.532-.784l-1.148-.336h1.806c.532 0 .756.014 1.134.042-.014-.308-.028-.546-.028-1.162v-2.17a10.881 10.881 0 01.042-1.12 9.908 9.908 0 01-1.092.042h-1.512a7.6 7.6 0 01-1.12-.056v1.218c.308-.028.574-.042.98-.042h1.414v.588h-1.148a8.051 8.051 0 01-1.092-.052v1.078a12.49 12.49 0 011.092-.042h1.148v.616h-1.414a8.089 8.089 0 01-.994-.042v1.148c.224-.028.35-.028.6-.042a4.29 4.29 0 01-.63 1.12h-1.708a5.745 5.745 0 00.42-.77l-1.148-.35h1.022c.5 0 .714 0 1.064.028a9.444 9.444 0 01-.028-1.134v-2.184a9.876 9.876 0 01.028-1.12 9.441 9.441 0 01-1.078.042h-1.414a7.419 7.419 0 01-1.092-.056v1.218a9.325 9.325 0 01.952-.042h1.316v.588h-1.05a7.451 7.451 0 01-1.076-.056v1.078c.308-.028.63-.042 1.078-.042h1.05v.616h-1.316a8.136 8.136 0 01-.98-.042v1.148a9.723 9.723 0 01.98-.042h.364a7.041 7.041 0 01-1.54 2.408v-.784a4.4 4.4 0 01-.882.056h-.378v-1.572h.126a7.813 7.813 0 01.938.042c-.014-.182-.014-.182-.028-1.246v-2c0-.6.014-1.05.042-1.414a7.732 7.732 0 01-1.274.07h-1.6a7.558 7.558 0 01-1.19-.07 11.48 11.48 0 01.056 1.386v1.89a12.729 12.729 0 01-.056 1.386c.392-.028.658-.042 1.036-.042h.644zm4.676-2.87v-.672h1.862v.672zm0 1.036h1.862v.672h-1.87zm0 1.708h1.862v.7h-1.87zm-4.992-8.782h1.372v1.95h-1.372zm12.768 2.058a17.571 17.571 0 012.324-.28c2.716-.2 3.584-.28 4.718-.448a6.191 6.191 0 00-1.946 1.414 4.875 4.875 0 00-1.33 3.29 3.746 3.746 0 002 3.374 8.423 8.423 0 003.276.924c.266.042.294.042.476.084l.252-1.9c-.14.014-.266.014-.28.014a8.5 8.5 0 01-2.086-.364 2.351 2.351 0 01-1.862-2.282c0-1.414 1.05-2.814 2.828-3.738a6.261 6.261 0 012.772-.756 2.168 2.168 0 01.294.014l-.1-1.778a7.543 7.543 0 01-1.442.112 1290.9 1290.9 0 00-7.154.364c-2.058.14-2.058.14-2.31.14-.07 0-.224 0-.532-.014zm8.566 1.348a9.449 9.449 0 011.47 2.086l.98-.518a9.073 9.073 0 00-1.47-2.058zm4.116.658a8.1 8.1 0 00-1.456-1.974l-.938.49a10.315 10.315 0 011.428 2.03zm2.128-2.128c.294-.014.364-.028.952-.028a33.752 33.752 0 003.752-.2c.112.252.154.336.294.63.112.266.168.35.252.518a27.543 27.543 0 01-3.962.266 8.3 8.3 0 01-1.442-.056l.056 1.526c.238-.028.336-.028.574-.042a40.189 40.189 0 005.418-.378 8.429 8.429 0 001.078 1.568 9.648 9.648 0 00-2.416-.29 6.241 6.241 0 00-3.262.7 2.338 2.338 0 00-1.18 1.95 2.255 2.255 0 001.078 1.914 6.4 6.4 0 003.416.686 13.479 13.479 0 003.584-.476 6.924 6.924 0 01.91-.21l-.252-1.722a10.873 10.873 0 01-4.312.91 5.457 5.457 0 01-2-.308.923.923 0 01-.6-.812 1.01 1.01 0 01.6-.854 5.4 5.4 0 012.352-.392 7.529 7.529 0 013.22.574l1.232-.882a14 14 0 01-1.876-2.562c.168-.042.168-.042.518-.112s.8-.168 1.372-.308c.322-.084.616-.14.882-.182l-.14-1.526a7.071 7.071 0 01-1.33.406c-.084.014-.728.154-1.932.406a12.6 12.6 0 01-.546-1.148c.434-.056 1.988-.364 2.926-.588l.476-.1-.14-1.484a23.521 23.521 0 01-3.78.84 8.207 8.207 0 01-.574-1.694l-1.75.238c.014.028.21.462.56 1.274.112.252.112.252.154.364a24.882 24.882 0 01-2.884.154 11.745 11.745 0 01-1.344-.056zm17.57 2.254a5.494 5.494 0 00.574-.364c.28-.182 1.288-.938 1.54-1.148.476-.406 1.5-1.316 2.2-1.96a3 3 0 01.728-.574l-.868-1.232a2.063 2.063 0 01-.868.182c-1.358.1-3.066.168-4.256.168a12.661 12.661 0 01-1.652-.084l.07 1.68a4.723 4.723 0 01.672-.07c2.534-.112 3.43-.168 3.962-.238l.014.014-.252.252a46.748 46.748 0 01-4.186 3.64 12.591 12.591 0 01-1.974 1.316l.952 1.512a8.626 8.626 0 015.768-2.352c1.694 0 2.772.714 2.772 1.806 0 .994-.5 1.6-1.666 2.03a3.765 3.765 0 00-.644-1.26 3.013 3.013 0 00-2.422-1.148 2.155 2.155 0 00-2.408 2 2 2 0 00.84 1.61 4.736 4.736 0 002.716.644 6.927 6.927 0 003.388-.8 3.421 3.421 0 001.9-3.094c0-1.918-1.54-3.15-3.934-3.15a6.834 6.834 0 00-2.94.644zm2.016 4.984a3.789 3.789 0 01-.728.056c-1.036 0-1.666-.322-1.666-.882 0-.392.322-.644.826-.644.786-.004 1.318.504 1.57 1.47zm12.53-10.752a9.159 9.159 0 01.056 1.176c0 3.36-.756 5.656-2.562 7.728a9.332 9.332 0 01-3.054 2.338 4.188 4.188 0 011.1 1.442 11.808 11.808 0 002.17-1.61 9.747 9.747 0 002.156-2.688 10.018 10.018 0 001.092-2.828 11.068 11.068 0 001.858 3.82 13.628 13.628 0 003.556 3.3 5.209 5.209 0 011.092-1.554 9.323 9.323 0 01-2.17-1.512 9.384 9.384 0 01-2.212-2.66 10.05 10.05 0 01-1.372-5.516 9.262 9.262 0 01.1-1.442zm17.57 3.766a11.92 11.92 0 01-4.424 5.222 6.733 6.733 0 011.022 1.246 13.271 13.271 0 002.672-2.632 14.128 14.128 0 001.316-2.086l.028 5.222c0 .294-.126.35-.77.35a8.535 8.535 0 01-1.54-.14 5.172 5.172 0 01.366 1.53c.49.042.952.056 1.414.056a3.753 3.753 0 001.486-.186c.406-.2.574-.588.574-1.344l-.042-7.238h.406a9.136 9.136 0 011.386.084v-1.54a8.762 8.762 0 01-1.386.084h-.42v-.868a15.055 15.055 0 01.07-1.68h-1.694a11.933 11.933 0 01.1 1.68v.868h-2.016a14.038 14.038 0 01-1.512-.07v1.512a13.371 13.371 0 011.5-.07zm-4.41-.028a9.091 9.091 0 011.078.07v-1.512a8.769 8.769 0 01-1.092.07h-.756v-1.188a8.934 8.934 0 01.084-1.372h-1.624a9.73 9.73 0 01.09 1.372v1.19h-.812a8.612 8.612 0 01-1.33-.07v1.526a8.568 8.568 0 011.274-.084h.7a14.772 14.772 0 01-.672 1.722 10.884 10.884 0 01-1.694 2.744 5.85 5.85 0 01.784 1.6 11.6 11.6 0 001.848-3.654 11.5 11.5 0 00-.084 1.442c0 .238 0 .238-.014.77v2.766a12.937 12.937 0 01-.084 1.624h1.624a13.093 13.093 0 01-.084-1.624v-3.206a19.375 19.375 0 00-.1-2.324 8.082 8.082 0 001.316 1.932 5.918 5.918 0 01.77-1.3 7.158 7.158 0 01-1.918-2.492zm12.48 8.176c-.014-.182-.014-.294-.014-.378a11.493 11.493 0 011.246-4.242l-1.12-.5a14.281 14.281 0 00-.728 1.848c.014-.35.028-.462.028-.77a23.379 23.379 0 01.21-3.094 19.3 19.3 0 01.882-4.186l-1.848-.2a9.159 9.159 0 01-.21 1.3 26.877 26.877 0 00-.574 5.474 24.418 24.418 0 00.364 4.186c.042.322.056.406.07.658zm1.932-8.386a16.62 16.62 0 002.52.154 25.078 25.078 0 003-.168c.672-.084.882-.112.994-.126l-.084-1.694a15.438 15.438 0 01-3.808.378 10.094 10.094 0 01-2.59-.224zm.966 2.31a4.574 4.574 0 00-1.288 2.884 2.345 2.345 0 00.42 1.372c.616.826 1.736 1.218 3.472 1.218a17.264 17.264 0 002.9-.266 4.678 4.678 0 01.574-.084l-.14-1.778a9.839 9.839 0 01-3.332.532c-1.456 0-2.226-.42-2.226-1.218a3.167 3.167 0 01.994-2.016zm15.232 2.926a5 5 0 01-.03-.586c0-.2 0-.2.028-1.008l.2-4.76c.028-.6.084-1.33.126-1.708h-2.3c.056.392.1 1.092.126 1.708l.2 4.76c.042.84.042.84.042.994s-.014.308-.028.6zm.2 3.066v-1.918h-2.03v1.918z" fill="#373943"/><g data-name="グループ 1827" transform="translate(-4668.5 -1206.5)"><rect data-name="長方形 2518" width="114.468" height="37.78" rx="4" transform="translate(5295.072 6496.568)" fill="#fb5d51"/><path data-name="パス 1167" d="M5305.164 6506.492l2.568-2.628c.528-.54.924-.924 1.272-1.272h-2.268a5.906 5.906 0 01-.936 1.164l-3.06 3.18v-2.8a8.592 8.592 0 01.108-1.548h-1.776a9.9 9.9 0 01.1 1.548v6.464a10.3 10.3 0 01-.1 1.548h1.776a8.135 8.135 0 01-.108-1.548v-1.768l1.308-1.308 2.388 3.36a11.274 11.274 0 01.756 1.26h2.22a16.3 16.3 0 01-1.2-1.524zm6.888 5.652a10.677 10.677 0 01-.1-1.56v-2.424c.528-1.188 1.236-1.788 2.1-1.788a1.129 1.129 0 011.008.492 1.971 1.971 0 01.2 1.056v2.664a12.753 12.753 0 01-.084 1.56h1.74a9.483 9.483 0 01-.1-1.56v-2.884a2.668 2.668 0 00-.408-1.68 2.371 2.371 0 00-2.04-.888 2.743 2.743 0 00-2.448 1.272 4.689 4.689 0 00.024-.516v-.636h-1.632a9.863 9.863 0 01.1 1.56v3.768a9.96 9.96 0 01-.1 1.56zm9.648.228a3.4 3.4 0 003.54-3.684 3.356 3.356 0 00-3.552-3.636 3.381 3.381 0 00-3.576 3.66 3.378 3.378 0 003.588 3.66zm-.012-6.072c1.272 0 2 .888 2 2.436 0 1.464-.768 2.364-2.016 2.364s-2.016-.912-2.016-2.388c.004-1.5.772-2.412 2.032-2.412zm11.964 5.844a8.2 8.2 0 01.3-1.14l1.332-4.26c.312-1 .336-1.092.492-1.488h-1.764a7.45 7.45 0 01-.264 1.428l-.672 2.4c-.024.084-.108.468-.144.636s-.036.168-.06.264c-.024-.108-.036-.12-.072-.276-.072-.252-.132-.48-.168-.588l-.888-2.72a11.771 11.771 0 01-.3-1.14h-1.284a8.573 8.573 0 01-.3 1.14l-.86 2.612a20.58 20.58 0 00-.276.972c-.1-.468-.168-.8-.216-.96l-.66-2.34a8.3 8.3 0 01-.264-1.428h-1.784c.168.444.336.936.5 1.488l1.328 4.256a9.786 9.786 0 01.312 1.144h1.392a11.555 11.555 0 01.312-1.144l.924-2.808c.036-.12.18-.612.24-.828.132.492.2.756.228.8l.924 2.836a9.7 9.7 0 01.3 1.14zm2.988-9.552a10.821 10.821 0 01.084 1.56v6.432a11.62 11.62 0 01-.084 1.56h1.74a12.36 12.36 0 01-.084-1.56v-6.42a11.117 11.117 0 01.084-1.572zm9.708 6.5c-.024-.276-.024-.312-.024-.336a4.933 4.933 0 00-.348-1.824 3.048 3.048 0 00-2.988-1.9c-2.052 0-3.384 1.452-3.384 3.672a3.324 3.324 0 003.468 3.668 3.408 3.408 0 002.472-.924 3.372 3.372 0 00.732-1.1l-1.416-.46a1.744 1.744 0 01-.348.624 1.9 1.9 0 01-1.44.6 1.886 1.886 0 01-1.5-.672 2.23 2.23 0 01-.444-1.34zm-5.184-1.188a1.8 1.8 0 011.8-1.632 1.711 1.711 0 011.3.48 1.884 1.884 0 01.528 1.152zm11.76 4.24h1.6a12.6 12.6 0 01-.084-1.62v-6.324a13.994 13.994 0 01.08-1.608h-1.692a12.231 12.231 0 01.084 1.62v1.2c0 .2 0 .432.012.516.012.24.012.24.012.384a3.056 3.056 0 00-.612-.66 2.848 2.848 0 00-1.824-.552c-1.98 0-3.24 1.392-3.24 3.588a3.714 3.714 0 001.248 3.012 3.051 3.051 0 002 .612 2.562 2.562 0 002.428-1.188c-.012.156-.012.288-.012.432zm-4.104-3.444c0-1.428.744-2.34 1.908-2.34a2.2 2.2 0 011.56.672 2.492 2.492 0 01.576 1.6 2.714 2.714 0 01-.464 1.604 2.007 2.007 0 01-1.608.792c-1.204 0-1.972-.9-1.972-2.328zm7.056 4.548a3.481 3.481 0 003.012 1.252 4.53 4.53 0 002.832-.772 3.587 3.587 0 001.008-2.952v-4.02a11.148 11.148 0 01.084-1.5h-1.612v.552a2.886 2.886 0 00.024.4 2.531 2.531 0 00-2.288-1.06 3.11 3.11 0 00-3.2 3.42 3.039 3.039 0 003.128 3.36 2.731 2.731 0 002.352-1.092 3.269 3.269 0 01-.316 1.596 2.157 2.157 0 01-1.968.9 2.032 2.032 0 01-1.856-.912zm1.424-4.648c0-1.428.744-2.328 1.944-2.328a1.814 1.814 0 011.164.432 2.212 2.212 0 01.72 1.776 2.542 2.542 0 01-.328 1.372 2.008 2.008 0 01-1.672.948 1.839 1.839 0 01-1.272-.54 2.316 2.316 0 01-.556-1.66zm13.48.5c-.024-.276-.024-.312-.024-.336a4.933 4.933 0 00-.348-1.824 3.048 3.048 0 00-2.988-1.9c-2.052 0-3.384 1.452-3.384 3.672a3.324 3.324 0 003.464 3.66 3.408 3.408 0 002.472-.924 3.372 3.372 0 00.732-1.1l-1.416-.456a1.744 1.744 0 01-.348.624 1.9 1.9 0 01-1.44.6 1.886 1.886 0 01-1.5-.676 2.23 2.23 0 01-.44-1.34zm-5.18-1.192a1.8 1.8 0 011.8-1.632 1.711 1.711 0 011.3.48 1.884 1.884 0 01.528 1.152zm10.964 4.236c1.992 0 3.108-.948 3.108-2.628a2.369 2.369 0 00-.744-1.836 2.2 2.2 0 00-1.212-.552 2.03 2.03 0 00.948-.5 2.146 2.146 0 00.672-1.692c0-1.5-1.044-2.34-2.9-2.34h-2.836c-.816 0-1.008 0-1.512-.024a11.439 11.439 0 01.1 1.476v6.512a8.564 8.564 0 01-.112 1.62c.492-.024.84-.036 1.536-.036zm-2.8-5.64v-2.568h2.484a1.7 1.7 0 011.152.372 1.222 1.222 0 01.312.888 1.273 1.273 0 01-1.448 1.304zm0 1.332h2.556a1.961 1.961 0 011.308.408 1.3 1.3 0 01.384 1.044c0 .972-.6 1.5-1.668 1.5h-2.58zm11.812 4.308h1.624a9.652 9.652 0 01-.1-1.5v-3.228a2.015 2.015 0 00-.564-1.656 3.12 3.12 0 00-2.364-.708 3.593 3.593 0 00-2.292.612 2.507 2.507 0 00-.948 1.336l1.536.276a1.308 1.308 0 01.48-.768 2.165 2.165 0 011.252-.352c.912 0 1.38.36 1.38 1.056v.612a9.078 9.078 0 00-3.384.48 2.129 2.129 0 00-1.356 1.944c0 1.26.888 2.016 2.352 2.016a4.246 4.246 0 001.108-.144 2.6 2.6 0 001.272-.756zm0-2.676a1.43 1.43 0 01-.432 1.056 2.437 2.437 0 01-1.668.636c-.672 0-1.092-.348-1.092-.912 0-.936.9-1.332 3.192-1.38zm4.776 2.676a10.677 10.677 0 01-.1-1.56v-2.424c.528-1.188 1.236-1.788 2.1-1.788a1.129 1.129 0 011.008.492 1.971 1.971 0 01.2 1.056v2.664a12.753 12.753 0 01-.084 1.56h1.74a9.483 9.483 0 01-.1-1.56v-2.884a2.668 2.668 0 00-.408-1.68 2.371 2.371 0 00-2.04-.888 2.743 2.743 0 00-2.448 1.272 4.689 4.689 0 00.024-.516v-.636h-1.62a9.863 9.863 0 01.1 1.56v3.768a9.96 9.96 0 01-.1 1.56zm6.372-9.552a11.006 11.006 0 01.084 1.572v6.42a11.74 11.74 0 01-.084 1.56h1.692a8.688 8.688 0 01-.084-1.536v-.78l.984-.936 1.3 1.9a5.779 5.779 0 01.784 1.352h2.14a9.192 9.192 0 01-1.092-1.392l-2.028-2.772 1.7-1.62c.516-.492.516-.492 1.2-1.1h-2.24a5.524 5.524 0 01-.948 1.068l-1.8 1.788v-3.952a11.23 11.23 0 01.084-1.572zm-79.074 22.336a2.451 2.451 0 01-.4 1.1 2.291 2.291 0 01-1.944.888c-1.68 0-2.736-1.368-2.736-3.564s1.032-3.54 2.736-3.54a2.173 2.173 0 011.752.744 2.5 2.5 0 01.516 1.032l1.668-.384a4.268 4.268 0 00-.372-.924 3.684 3.684 0 00-1.27-1.304 4.24 4.24 0 00-2.3-.576 4.17 4.17 0 00-3 1.14 5.433 5.433 0 00-1.4 3.876 5.419 5.419 0 001.3 3.768 4.127 4.127 0 003.084 1.152 4.086 4.086 0 003.276-1.308 4.585 4.585 0 00.8-1.8zm7.224-6.528a4.159 4.159 0 00-3.1 1.2 5.137 5.137 0 00-1.368 3.744c0 3.048 1.752 5 4.476 5s4.488-1.968 4.488-5a5.175 5.175 0 00-1.34-3.744 4.205 4.205 0 00-3.156-1.2zm.036 8.52a2.591 2.591 0 01-1.86-.732 3.965 3.965 0 01-.972-2.832c0-2.172 1.092-3.54 2.82-3.54a2.583 2.583 0 011.848.732 3.876 3.876 0 01.948 2.8c0 2.204-1.068 3.572-2.784 3.572zm11.64 1.224a9.771 9.771 0 01.528-1.6l1.8-4.224a14.644 14.644 0 00.552-1.752c-.012.18-.048.792-.1 1.836v3.984a11.157 11.157 0 01-.1 1.752h1.68a10.4 10.4 0 01-.1-1.752v-6.02a12.428 12.428 0 01.1-1.776h-2.2a6.65 6.65 0 01-.432 1.428l-2.424 5.952-2.436-5.952a8.3 8.3 0 01-.444-1.428h-2.2a11.9 11.9 0 01.1 1.776v6.024a11.255 11.255 0 01-.1 1.752h1.68a10.964 10.964 0 01-.1-1.752v-3.936c0-.264-.048-1.248-.1-1.884a13.355 13.355 0 00.612 1.836l1.728 4.116a8.169 8.169 0 01.528 1.62zm7.848 0a9.671 9.671 0 01-.1-1.56v-2h2.292a3.4 3.4 0 002.556-.864 3.081 3.081 0 00.8-2.208 2.806 2.806 0 00-.736-2.068 3.408 3.408 0 00-2.556-.852h-2.508a28.78 28.78 0 01-1.524-.036 10.834 10.834 0 01.1 1.548v6.496a9.7 9.7 0 01-.1 1.548zm-.098-4.944v-3.228h2.292a1.638 1.638 0 011.308.428 1.618 1.618 0 01.4 1.152 1.51 1.51 0 01-1.7 1.644zm14.846 4.944a12.593 12.593 0 01-.612-1.416l-2.664-6.928a7.946 7.946 0 01-.408-1.212h-2.088a7.108 7.108 0 01-.384 1.212l-2.64 6.924a13.117 13.117 0 01-.636 1.416h1.968a5.985 5.985 0 01.36-1.26l.48-1.308h3.84l.48 1.308a8.069 8.069 0 01.336 1.26zm-3.216-3.944h-2.976l1.246-3.556.228-.672c.132.4.168.54.216.672zm3.888 1.152a4.1 4.1 0 00.228 1 2.825 2.825 0 001.054 1.36 4.825 4.825 0 002.52.624 3.977 3.977 0 002.868-.912 2.792 2.792 0 00.756-2.04 2.368 2.368 0 00-1-2.064 5.283 5.283 0 00-1.956-.732 10.216 10.216 0 01-1.692-.432 1.141 1.141 0 01-.816-1.092c0-.78.708-1.308 1.752-1.308a1.9 1.9 0 011.5.576 1.55 1.55 0 01.36.852l1.716-.2a3.235 3.235 0 00-.588-1.392 3.537 3.537 0 00-2.988-1.212c-2.064 0-3.408 1.08-3.408 2.748a2.362 2.362 0 00.924 1.944 4.242 4.242 0 001.812.732 7.566 7.566 0 012.088.588 1.218 1.218 0 01.6 1.1c0 .9-.72 1.44-1.92 1.44a2.13 2.13 0 01-1.752-.708 1.72 1.72 0 01-.336-1.056zm8.58 0a4.1 4.1 0 00.228 1 2.825 2.825 0 001.056 1.368 4.825 4.825 0 002.52.624 3.977 3.977 0 002.868-.912 2.792 2.792 0 00.756-2.04 2.368 2.368 0 00-1-2.064 5.283 5.283 0 00-1.956-.732 10.216 10.216 0 01-1.692-.432 1.141 1.141 0 01-.816-1.092c0-.78.708-1.308 1.752-1.308a1.9 1.9 0 011.5.576 1.55 1.55 0 01.36.852l1.716-.2a3.235 3.235 0 00-.588-1.392 3.537 3.537 0 00-2.988-1.212c-2.064 0-3.408 1.08-3.408 2.748a2.362 2.362 0 00.924 1.944 4.242 4.242 0 001.812.732 7.566 7.566 0 012.088.588 1.218 1.218 0 01.6 1.1c0 .9-.72 1.44-1.92 1.44a2.13 2.13 0 01-1.752-.708 1.72 1.72 0 01-.336-1.056zm21.6 2.8a12.594 12.594 0 01-.612-1.416l-2.664-6.936a7.946 7.946 0 01-.408-1.212h-2.088a7.108 7.108 0 01-.384 1.212l-2.642 6.928a13.117 13.117 0 01-.636 1.416h1.968a5.985 5.985 0 01.36-1.26l.48-1.308h3.84l.48 1.308a8.069 8.069 0 01.336 1.26zm-3.216-3.952h-2.976l1.248-3.552.228-.672c.132.4.168.54.216.672zm4.2-5.6a8.965 8.965 0 01.1 1.548v6.452a9.054 9.054 0 01-.1 1.548h1.824a9.054 9.054 0 01-.1-1.548v-6.46a8.965 8.965 0 01.1-1.548z" fill="#fff"/></g></g></svg>