<svg xmlns="http://www.w3.org/2000/svg" width="174.135" height="160"><defs><clipPath id="prefix__clip-path"><path id="prefix__パス_45" d="M173.727 106.18l12.322 1.206c2.928.287 7.089 2.264 6.531 5.153l-7.76 12.934 1.717 8.2-18.6-1.821 3.21-8.036-3.88-13.119c.044-2.927 3.553-4.802 6.46-4.517z" class="prefix__cls-1" data-name="パス 45" transform="translate(-167.268 -106.151)"/></clipPath><clipPath id="prefix__clip-path-2"><path id="prefix__パス_48" d="M173.907 97.132c-.307 3.14 1.8 7.873 4.94 8.18s6.125-3.926 6.432-7.067a5.713 5.713 0 10-11.372-1.113z" class="prefix__cls-2" data-name="パス 48" transform="translate(-173.877 -91.975)"/></clipPath><clipPath id="prefix__clip-path-3"><path id="prefix__パス_59" d="M81.134 97.075l-12.077-4.034a5.137 5.137 0 00-6.629 3.705l-5.665 23.446 19.523 3.358 7.941-19.579a5.136 5.136 0 00-3.093-6.896z" class="prefix__cls-1" data-name="パス 59" transform="translate(-56.763 -92.774)"/></clipPath><clipPath id="prefix__clip-path-4"><path id="prefix__パス_68" d="M83.45 88.117c-.988 2.959-4.8 6.382-7.756 5.393s-3.947-6.013-2.958-8.971a5.647 5.647 0 0110.714 3.578z" class="prefix__cls-3" data-name="パス 68" transform="translate(-72.365 -80.679)"/></clipPath><style>.prefix__cls-1{fill:#002245}.prefix__cls-2{fill:#f4ae87}.prefix__cls-3{fill:#e8a181}.prefix__cls-4{fill:#272168}.prefix__cls-6{fill:#448fea}.prefix__cls-8{fill:#014596}.prefix__cls-9{fill:#fb5d51}.prefix__cls-10{fill:#34be8e}</style></defs><g id="prefix__グループ_1753" data-name="グループ 1753" transform="translate(-46.894 -41.938)"><g id="prefix__グループ_636" data-name="グループ 636" transform="translate(173.592 191.86)"><path id="prefix__パス_33" d="M173.662 181.989v2.611h-8.781s-.61-1.828 2.437-2.35 4.438-.784 4.438-.784z" class="prefix__cls-1" data-name="パス 33" transform="translate(-164.832 -181.467)"/></g><g id="prefix__グループ_637" data-name="グループ 637" transform="translate(186.818 191.86)"><path id="prefix__パス_34" d="M185.632 181.989v2.611h-8.782s-.609-1.828 2.437-2.35 4.439-.784 4.439-.784z" class="prefix__cls-1" data-name="パス 34" transform="translate(-176.801 -181.467)"/></g><g id="prefix__グループ_638" data-name="グループ 638" transform="translate(172.586 168.843)"><path id="prefix__パス_35" d="M163.884 159.732l5.514 23.484 4.391.613-2.553-23.893z" class="prefix__cls-2" data-name="パス 35" transform="translate(-163.884 -159.732)"/></g><g id="prefix__グループ_639" data-name="グループ 639" transform="translate(185.764 166.141)"><path id="prefix__パス_36" d="M175.805 159.882l5.82 23.382 4.084.715-2.931-26.8z" class="prefix__cls-2" data-name="パス 36" transform="translate(-175.805 -157.18)"/></g><g id="prefix__グループ_640" data-name="グループ 640" transform="translate(202.415 150.239)"><path id="prefix__パス_37" d="M192.209 142.789s-1.767 2.9.4 3.845 3.409-2.961 3.409-2.961z" class="prefix__cls-2" data-name="パス 37" transform="translate(-191.53 -142.789)"/></g><g id="prefix__グループ_641" data-name="グループ 641" transform="translate(195.191 115.423)"><path id="prefix__パス_38" d="M191.1 110.124c-4.21 2.411-8.316 1.8-5.416 8.29 2.437 5.452 6.974 10.435 7.281 11.962s-.76 14.082-.76 14.082l4.218 1.14 2.637-14.184a5.766 5.766 0 00-.149-2.312l-4.457-10.543z" class="prefix__cls-1" data-name="パス 38" transform="translate(-184.708 -110.124)"/></g><g id="prefix__グループ_642" data-name="グループ 642" transform="translate(201.703 148.453)"><path id="prefix__パス_39" d="M196.4 144.986l-5.541-1.477.625-2.381 5.541 1.477z" class="prefix__cls-4" data-name="パス 39" transform="translate(-190.858 -141.128)"/></g><g id="prefix__グループ_643" data-name="グループ 643" transform="translate(146.686 128.785)"><path id="prefix__パス_40" d="M143.566 123s-3.364-.976-3.72 1.437 3.868 2.594 3.868 2.594z" class="prefix__cls-2" data-name="パス 40" transform="translate(-139.825 -122.81)"/></g><g id="prefix__グループ_644" data-name="グループ 644" transform="translate(150.94 111.82)"><path id="prefix__パス_41" d="M177.381 113.1c-3.537-3.541-2.774-9.06-8.451-4.423-4.77 3.9-9.772 11.031-11.209 11.748s-14.226 3.045-14.226 3.045v4.507l14.835-1.2a5.935 5.935 0 002.261-.773l9.294-7.283z" class="prefix__cls-1" data-name="パス 41" transform="translate(-143.495 -106.9)"/></g><g id="prefix__グループ_645" data-name="グループ 645" transform="translate(149.46 127.742)"><path id="prefix__パス_42" d="M142.444 127.762l-.025-5.916 2.54-.021.025 5.916z" class="prefix__cls-4" data-name="パス 42" transform="translate(-142.419 -121.825)"/></g><g id="prefix__グループ_651" data-name="グループ 651" transform="translate(176.724 111.068)"><path id="prefix__パス_43" d="M173.727 106.18l12.322 1.206c2.928.287 7.089 2.264 6.531 5.153l-7.76 12.934 1.717 8.2-18.6-1.821 3.21-8.036-3.88-13.119c.044-2.927 3.553-4.802 6.46-4.517z" class="prefix__cls-1" data-name="パス 43" transform="translate(-167.268 -106.151)"/><g id="prefix__グループ_650" data-name="グループ 650"><g id="prefix__グループ_647" data-name="グループ 647" transform="translate(8.52 3.216)"><g id="prefix__グループ_646" data-name="グループ 646"><path id="prefix__長方形_407" d="M0 0h29.123v.693H0z" class="prefix__cls-6" data-name="長方形 407" transform="rotate(-84.89 15.859 14.504)"/></g></g><g id="prefix__グループ_649" data-name="グループ 649" transform="translate(6.195 -4.213)"><g id="prefix__グループ_648" data-name="グループ 648"><path id="prefix__パス_44" d="M184.388 107.809a5.635 5.635 0 11-5.635-5.636 5.635 5.635 0 015.635 5.636z" class="prefix__cls-3" data-name="パス 44" transform="translate(-173.118 -102.173)"/></g></g></g></g><g id="prefix__グループ_652" data-name="グループ 652" transform="translate(185.095 107.211)"><path id="prefix__長方形_408" d="M0 0h6.225v5.954H0z" class="prefix__cls-3" data-name="長方形 408" transform="matrix(.097 -.995 .995 .097 0 6.195)"/></g><g id="prefix__グループ_655" data-name="グループ 655" transform="translate(183.341 95.72)"><path id="prefix__パス_46" d="M173.907 97.132c-.307 3.14 1.8 7.873 4.94 8.18s6.125-3.926 6.432-7.067a5.713 5.713 0 10-11.372-1.113z" class="prefix__cls-2" data-name="パス 46" transform="translate(-173.877 -91.975)"/><g id="prefix__グループ_654" data-name="グループ 654"><g id="prefix__グループ_653" data-name="グループ 653" transform="translate(-6.436 -2.385)"><path id="prefix__パス_47" d="M183.476 108.38l-.476-6.739s2.119-1.993 1.157-3.471c-.884-1.362-2.042.34-2.042.34s-13.517.239-14.294-1.565c-.613-1.422 11.8-7.542 13.279-7.209s8.341 5.343 8.484 6.772-4.377 6.172-4.377 6.172z" class="prefix__cls-1" data-name="パス 47" transform="translate(-167.799 -89.723)"/></g></g></g><g id="prefix__グループ_656" data-name="グループ 656" transform="translate(167.369 137.271)"><path id="prefix__パス_49" d="M187.057 132.237l-18.6-1.821-10.024 31.043 33.694 2.859z" class="prefix__cls-6" data-name="パス 49" transform="translate(-158.434 -130.416)"/></g><g id="prefix__グループ_658" data-name="グループ 658" transform="translate(100.522 142.758)"><g id="prefix__グループ_657" data-name="グループ 657"><circle id="prefix__楕円形_57" cx="22.647" cy="22.647" r="22.647" class="prefix__cls-8" data-name="楕円形 57" transform="rotate(-67.5 31.313 20.923)"/></g></g><g id="prefix__グループ_660" data-name="グループ 660" transform="translate(92.247 73.149)"><g id="prefix__グループ_659" data-name="グループ 659"><path id="prefix__長方形_409" d="M0 0h53.53v53.53H0z" class="prefix__cls-9" data-name="長方形 409" transform="rotate(-45 45.69 18.925)"/></g></g><g id="prefix__グループ_661" data-name="グループ 661" transform="translate(89.74 56.511)"><path id="prefix__長方形_410" d="M0 0h80.706v16.49H0z" class="prefix__cls-10" data-name="長方形 410"/></g><g id="prefix__グループ_662" data-name="グループ 662" transform="translate(72.821 93.894)"><path id="prefix__長方形_411" d="M0 0h6.402v6.123H0z" class="prefix__cls-3" data-name="長方形 411" transform="rotate(-71.532 4.215 3.036)"/></g><g id="prefix__グループ_663" data-name="グループ 663" transform="translate(46.903 171.079)"><path id="prefix__パス_50" d="M57.711 162.455l.046 3.23-10.786.157s-.78-2.25 2.952-2.95 5.439-1.048 5.439-1.048z" class="prefix__cls-9" data-name="パス 50" transform="translate(-46.903 -161.843)"/></g><g id="prefix__グループ_664" data-name="グループ 664" transform="translate(77.343 170.741)"><path id="prefix__パス_51" d="M75.233 162.116l.046 3.23 10.618-.068s.722-2.271-3.056-2.863-5.5-.891-5.5-.891z" class="prefix__cls-9" data-name="パス 51" transform="translate(-75.233 -161.524)"/></g><g id="prefix__グループ_665" data-name="グループ 665" transform="translate(85.707 64.269)"><path id="prefix__パス_52" d="M85.044 67.56s3.794-.583 3.033-3.146-5.042-.792-5.042-.792z" class="prefix__cls-2" data-name="パス 52" transform="translate(-83.035 -63.026)"/></g><g id="prefix__グループ_667" data-name="グループ 667" transform="translate(51.533 124.383)"><g id="prefix__グループ_666" data-name="グループ 666"><path id="prefix__パス_53" d="M76.035 121.352L57.371 118.3l-6.1 23.445.335 23.387 5.844-.084a70.976 70.976 0 002.158-15.479c.038-1.907-.394-7.1-.394-7.1l6.132-13.121a1.32 1.32 0 011.176-.761h.017a1.323 1.323 0 011.2.726L81.12 141.16s-2.937 2.915-3.8 9.657a106.47 106.47 0 00-.665 13.96l5.844-.084 6.736-26.193z" class="prefix__cls-8" data-name="パス 53" transform="translate(-51.275 -118.302)"/></g></g><g id="prefix__グループ_668" data-name="グループ 668" transform="translate(58.162 96.69)"><path id="prefix__パス_54" d="M81.089 97.075l-12.077-4.034a5.137 5.137 0 00-6.629 3.705l-4.848 20.769 18.228 6.085 8.418-19.633a5.136 5.136 0 00-3.092-6.892z" class="prefix__cls-1" data-name="パス 54" transform="translate(-57.535 -92.774)"/></g><g id="prefix__グループ_669" data-name="グループ 669" transform="translate(61.392 64.865)"><path id="prefix__パス_55" d="M60.585 104.988c5.15 1.887 5.3-3.12 6.706-5.771 3.159-5.967 5.32-20.181 6.417-21.558s12.734-9.593 12.734-9.593l-2.084-4.477-14.189 8.044a6.518 6.518 0 00-1.89 1.812S63.3 81.865 62.4 84.973c-1.389 4.827-1.815 20.015-1.815 20.015z" class="prefix__cls-1" data-name="パス 55" transform="translate(-60.585 -63.589)"/></g><g id="prefix__グループ_670" data-name="グループ 670" transform="translate(83.972 63.689)"><path id="prefix__長方形_412" d="M0 0h2.783v6.819H0z" class="prefix__cls-8" data-name="長方形 412" transform="rotate(-25.31 2.648 .595)"/></g><g id="prefix__グループ_671" data-name="グループ 671" transform="translate(97.752 72.822)"><path id="prefix__パス_56" d="M94.819 75.1s-1.714-3.435.817-4.292 3.557 3.66 3.557 3.66z" class="prefix__cls-2" data-name="パス 56" transform="translate(-94.251 -70.697)"/></g><g id="prefix__グループ_673" data-name="グループ 673" transform="translate(77.229 77.642)"><g id="prefix__グループ_672" data-name="グループ 672"><path id="prefix__パス_57" d="M78.84 110.619c-2.581-4.84-6.876-6.725-.2-11.193 5.611-3.754 12.007-6.394 13.219-7.671s4.515-16.008 4.515-16.008l5.088-.681-2.273 18.445a6.511 6.511 0 01-1.534 2.122l-10.532 8.929z" class="prefix__cls-1" data-name="パス 57" transform="translate(-75.083 -75.067)"/></g></g><g id="prefix__グループ_674" data-name="グループ 674" transform="translate(97.066 75.612)"><path id="prefix__長方形_413" d="M0 0h6.819v2.783H0z" class="prefix__cls-8" data-name="長方形 413" transform="rotate(-12.31 6.735 .724)"/></g><g id="prefix__グループ_677" data-name="グループ 677" transform="translate(57.345 96.69)"><path id="prefix__パス_58" d="M81.134 97.075l-12.077-4.034a5.137 5.137 0 00-6.629 3.705l-5.665 23.446 19.523 3.358 7.941-19.579a5.136 5.136 0 00-3.093-6.896z" class="prefix__cls-1" data-name="パス 58" transform="translate(-56.763 -92.774)"/><g id="prefix__グループ_676" data-name="グループ 676"><g id="prefix__グループ_675" data-name="グループ 675" transform="translate(8.56 .544)"><path id="prefix__長方形_414" d="M0 0h31.544v.693H0z" class="prefix__cls-8" data-name="長方形 414" transform="rotate(-71.554 20.762 14.961)"/></g></g></g><g id="prefix__グループ_678" data-name="グループ 678" transform="translate(68.041 99.777)"><path id="prefix__パス_60" d="M75.564 96.353l-1.913-.64-6.787 15.926.982 3.445a.47.47 0 00.737.245l2.835-2.168z" class="prefix__cls-10" data-name="パス 60" transform="translate(-66.864 -95.713)"/></g><g id="prefix__グループ_679" data-name="グループ 679" transform="translate(73.356 98.66)"><path id="prefix__パス_61" d="M75.963 97.514a2.093 2.093 0 11-1.323-2.648 2.093 2.093 0 011.323 2.648z" class="prefix__cls-10" data-name="パス 61" transform="translate(-71.884 -94.758)"/></g><g id="prefix__グループ_680" data-name="グループ 680" transform="translate(70.382 96.952)"><path id="prefix__パス_62" d="M74.806 94.96s-4.4 3.484-5.248 3.395-.319-5.193-.319-5.193z" class="prefix__cls-8" data-name="パス 62" transform="translate(-69.075 -93.162)"/></g><g id="prefix__グループ_681" data-name="グループ 681" transform="translate(76.523 98.778)"><path id="prefix__パス_63" d="M74.482 94.859s1.421 5.426 2.155 5.866 3.376-3.958 3.376-3.958z" class="prefix__cls-8" data-name="パス 63" transform="translate(-74.482 -94.859)"/></g><g id="prefix__グループ_682" data-name="グループ 682" transform="translate(74.264 83.577)"><path id="prefix__パス_64" d="M83.45 88.117c-.988 2.959-4.8 6.382-7.756 5.393s-3.947-6.013-2.958-8.971a5.647 5.647 0 0110.714 3.578z" class="prefix__cls-3" data-name="パス 64" transform="translate(-72.365 -80.679)"/></g><g id="prefix__グループ_683" data-name="グループ 683" transform="translate(77.707 83.346)"><path id="prefix__パス_65" d="M77.151 85.738l6.388 2.134c1.106.37 5.2-1.266 3.566-4.545s-8.9-3.18-10.537-2.361-1.137 4.197.583 4.772z" class="prefix__cls-1" data-name="パス 65" transform="translate(-75.568 -80.485)"/></g><g id="prefix__グループ_686" data-name="グループ 686" transform="translate(74.264 83.577)"><path id="prefix__パス_66" d="M83.45 88.117c-.988 2.959-4.8 6.382-7.756 5.393s-3.947-6.013-2.958-8.971a5.647 5.647 0 0110.714 3.578z" class="prefix__cls-3" data-name="パス 66" transform="translate(-72.365 -80.679)"/><g id="prefix__グループ_685" data-name="グループ 685"><g id="prefix__グループ_684" data-name="グループ 684" transform="translate(-2.849 -2.572)"><path id="prefix__パス_67" d="M73.6 91.627l.969-2.9s-1.406-2.817-.2-4.078 2.464.823 2.464.823l1.966-1.5s2.317.09 3.14-1.2-.262-4.2-1.728-4.49-9.683 1.461-10.388 2.693 1.463 7.335 1.463 7.335z" class="prefix__cls-1" data-name="パス 67" transform="translate(-69.675 -78.25)"/></g></g></g><g id="prefix__グループ_687" data-name="グループ 687" transform="translate(46.894 174.459)"><path id="prefix__長方形_415" d="M0 0h40.7v2.126H0z" class="prefix__cls-6" data-name="長方形 415"/></g><g id="prefix__グループ_688" data-name="グループ 688" transform="translate(46.898 175.077)"><path id="prefix__長方形_416" d="M0 0h.92v20.074H0z" class="prefix__cls-6" data-name="長方形 416"/></g><g id="prefix__グループ_689" data-name="グループ 689" transform="translate(87.219 175.077)"><path id="prefix__長方形_417" d="M0 0h.92v20.074H0z" class="prefix__cls-6" data-name="長方形 417"/></g><g id="prefix__グループ_691" data-name="グループ 691" transform="translate(190.271 87.235)"><g id="prefix__グループ_690" data-name="グループ 690"><path id="prefix__パス_69" d="M180.327 92.181a6.24 6.24 0 015.693-8.11c6.541-.467 6.161 3.9 9.358 6.082 1.794 1.225 9.2-1.481 14.037 4.757 4.133 5.334-1.33 14.885-10.138 11.541-8.422-3.2-3.743-8.734-8.422-10.06-2.855-.806-8.189 2.652-10.528-4.21z" class="prefix__cls-1" data-name="パス 69" transform="translate(-180.061 -84.036)"/></g></g><g id="prefix__グループ_692" data-name="グループ 692" transform="translate(172.967 46.965)"><path id="prefix__パス_70" d="M170.675 47.081a1.7 1.7 0 112.181 2.611c-.721.6-8.61 4.973-8.61 4.973s5.708-6.983 6.429-7.584z" class="prefix__cls-10" data-name="パス 70" transform="translate(-164.246 -46.685)"/></g><g id="prefix__グループ_693" data-name="グループ 693" transform="translate(130.577 41.938)"><path id="prefix__パス_71" d="M124.829 43.527a1.7 1.7 0 113.395.223c-.061.937-2.341 9.663-2.341 9.663s-1.115-8.948-1.054-9.886z" class="prefix__cls-10" data-name="パス 71" transform="translate(-124.827 -41.938)"/></g><g id="prefix__グループ_694" data-name="グループ 694" transform="translate(173.107 75.514)"><path id="prefix__パス_72" d="M173.03 78.088a1.7 1.7 0 01-2.156 2.631c-.727-.6-6.5-7.527-6.5-7.527s7.926 4.3 8.656 4.896z" class="prefix__cls-10" data-name="パス 72" transform="translate(-164.376 -73.193)"/></g><g id="prefix__グループ_695" data-name="グループ 695" transform="translate(77.406 47.155)"><path id="prefix__パス_73" d="M78.086 47.26a1.7 1.7 0 10-2.18 2.612c.721.6 8.609 4.973 8.609 4.973s-5.708-6.983-6.429-7.585z" class="prefix__cls-10" data-name="パス 73" transform="translate(-75.295 -46.865)"/></g><g id="prefix__グループ_696" data-name="グループ 696" transform="translate(76.708 74.642)"><path id="prefix__パス_74" d="M75.269 77.276a1.7 1.7 0 002.157 2.631c.726-.6 6.5-7.527 6.5-7.527s-7.926 4.3-8.657 4.896z" class="prefix__cls-10" data-name="パス 74" transform="translate(-74.646 -72.381)"/></g></g></svg>