<svg xmlns="http://www.w3.org/2000/svg" xmlns:xlink="http://www.w3.org/1999/xlink" width="265.095" height="260.824"><defs><linearGradient id="prefix__linear-gradient" x1=".5" x2=".5" y2="1" gradientUnits="objectBoundingBox"><stop offset="0" stop-color="#e8a181"/><stop offset="1" stop-color="#e8a181"/></linearGradient><linearGradient id="prefix__linear-gradient-3" x1="345.51" x2="345.938" y1="-144.716" y2="-145.46" gradientUnits="objectBoundingBox"><stop offset="0" stop-color="#f2f8fc"/><stop offset="1" stop-color="#94c7f2"/></linearGradient><linearGradient id="prefix__linear-gradient-4" x1="544.051" x2="544.677" y1="37.479" y2="36.779" xlink:href="#prefix__linear-gradient-3"/><style>.prefix__cls-1{fill:#002245}.prefix__cls-2{fill:#f4ae87}.prefix__cls-3{fill:url(#prefix__linear-gradient)}.prefix__cls-4{fill:#34be8e}.prefix__cls-5{opacity:.1}.prefix__cls-6{fill:#fff}.prefix__cls-7{fill:#f3ba18}.prefix__cls-9{fill:#dedede}.prefix__cls-10{fill:#fb5d51}.prefix__cls-11{fill:#083d7c}.prefix__cls-12{fill:#d1d3d4}.prefix__cls-13{fill:#2962ff}.prefix__cls-14{fill:#e8a281}.prefix__cls-15{fill:#f4f4f7}.prefix__cls-17{fill:#022542}.prefix__cls-21{fill:#e8a180}</style></defs><g id="prefix__グループ_1708" data-name="グループ 1708" transform="translate(-170.152 -171.562)"><path id="prefix__長方形_2312" d="M0 0h40.551v38.143H0z" class="prefix__cls-1" data-name="長方形 2312" transform="rotate(180 216.702 216.193)"/><g id="prefix__グループ_1636" data-name="グループ 1636" transform="translate(323.252 253.317)"><g id="prefix__グループ_1626" data-name="グループ 1626" transform="translate(9.608 29.369)"><path id="prefix__パス_900" d="M1598.093 837.527l-12.319 12.324 3.558-12.243a1.011 1.011 0 00-.7-1.257 1.011 1.011 0 00-1.233.671l-4.629 14.716a2.059 2.059 0 00.769 2.294 2.059 2.059 0 002.674-.245l13.862-14.314a1.389 1.389 0 00-.126-2.047 1.388 1.388 0 00-1.856.101z" class="prefix__cls-1" data-name="パス 900" transform="translate(-1582.673 -832.013)"/><g id="prefix__グループ_1625" data-name="グループ 1625" transform="translate(4.745)"><g id="prefix__グループ_1624" data-name="グループ 1624" transform="translate(0 .127)"><path id="prefix__パス_901" d="M1610 814.943l.422 1.451-.256.652a.811.811 0 00.451 1.048.811.811 0 001.058-.456l.25-.637 1.845-.375.473-3.78a.509.509 0 00-.422-.565h-.01a.509.509 0 00-.581.4l-.033.156-.131-.249a.406.406 0 00-.406-.214h-.006a.406.406 0 00-.355.343l-.021.137-.037-.119a.394.394 0 00-.439-.272h-.006a.4.4 0 00-.312.267l-.1.314-.018-.058a.345.345 0 00-.331-.245.345.345 0 00-.323.229z" class="prefix__cls-2" data-name="パス 901" transform="translate(-1610.001 -812.272)"/><path id="prefix__パス_902" d="M1620.742 823.073l1.845-.375 1.533-2.455a.4.4 0 00-.1-.535h-.006a.4.4 0 00-.567.077l-.853 1.127a1.641 1.641 0 00-1.574.787c-.565.931-.278 1.374-.278 1.374z" class="prefix__cls-2" data-name="パス 902" transform="translate(-1618.817 -818.345)"/></g><path id="prefix__長方形_2313" d="M.514 0H1.6a.514.514 0 01.514.514.514.514 0 01-.514.514H.514A.514.514 0 010 .514.514.514 0 01.514 0z" class="prefix__cls-2" data-name="長方形 2313" transform="rotate(-73.02 2.755 -.863)"/><path id="prefix__長方形_2314" d="M.4 0h1.314a.4.4 0 01.4.4.4.4 0 01-.4.4H.4A.4.4 0 010 .4.4.4 0 01.4 0z" class="prefix__cls-3" data-name="長方形 2314" transform="rotate(-73.03 2.003 .457)"/><path id="prefix__パス_903" d="M1621.368 814.838h.009a.447.447 0 00.558-.3l.356-1.169a.447.447 0 00-.3-.558h-.009a.447.447 0 00-.558.3l-.356 1.169a.447.447 0 00.3.558z" class="prefix__cls-2" data-name="パス 903" transform="translate(-1619.133 -812.577)"/><path id="prefix__パス_904" d="M1612.513 816.48h.006a.308.308 0 00.385-.205l.3-.989a.308.308 0 00-.205-.385h-.006a.308.308 0 00-.385.2l-.3.99a.308.308 0 00.205.389z" class="prefix__cls-3" data-name="パス 904" transform="translate(-1611.896 -814.306)"/></g></g><path id="prefix__パス_905" d="M1535.536 676.819l-8.2-20.816 17.762-13.6-1.373 4.938 47.422 13.179-6.821 24.543-47.422-13.179z" class="prefix__cls-4" data-name="パス 905" transform="translate(-1527.339 -642.401)"/><path id="prefix__パス_906" d="M1676.694 834.722l-7.433-.885-4.121.786a3.144 3.144 0 00-2.532 2.709 82.339 82.339 0 001.392 27.926l.517 2.307h17.073s.475-8.247-2.167-10.8l.043-18.911a3.144 3.144 0 00-2.772-3.132z" class="prefix__cls-1" data-name="パス 906" transform="translate(-1638.624 -800.597)"/><g id="prefix__グループ_1627" data-name="グループ 1627" transform="translate(28.029 67.731)"><path id="prefix__パス_907" d="M1825.945 1322.817l.694 1.869-1.222.454-.347-.934-.476 1.24-2.968 1.1a.772.772 0 01.455-.992l1.222-.454-.029-1.293z" class="prefix__cls-1" data-name="パス 907" transform="translate(-1798.515 -1272.403)"/><path id="prefix__パス_908" d="M1688.759 1035.232l9.806 22.2 14.973 26.435 2.671-.992s-6.63-25.738-12.15-27.936l-4.643-22.468z" class="prefix__cls-1" data-name="パス 908" transform="translate(-1688.759 -1032.473)"/></g><path id="prefix__パス_909" d="M1688.756 1035.226l7.242 16.4 5.382-9.644-1.966-9.513z" class="prefix__cls-5" data-name="パス 909" transform="translate(-1660.728 -964.735)"/><path id="prefix__パス_910" d="M1685.351 869.426l-2.623-28.894-5.114-.879H1672s-3.546 5.28-2.2 11.44 2.714 12.479 1.848 18.332z" class="prefix__cls-6" data-name="パス 910" transform="translate(-1644.813 -805.404)"/><g id="prefix__グループ_1629" data-name="グループ 1629" transform="translate(23.383 21.815)"><g id="prefix__グループ_1628" data-name="グループ 1628"><path id="prefix__パス_911" d="M1689.17 787.164s1.078-.226 1.451 1.477-2.774 5.044-2.378 6.755c0 0-3.829-1.951-4.414-3.548s-.683-5.067 1.967-4.805a14.923 14.923 0 003.374.121z" class="prefix__cls-7" data-name="パス 911" transform="translate(-1679.76 -783.73)"/><path id="prefix__パス_912" d="M1665.444 810.455l2.61.891 1.243 4.432 5.329-1.442-3.018-7.11z" data-name="パス 912" transform="translate(-1664.847 -800.421)" fill="#e7a081"/><path id="prefix__パス_913" d="M1664.973 780.319s-1.142 1.2-1.168 1.54.083.638 0 .773c-.063.107-1.191 1.184-1.65 1.621a.3.3 0 000 .436 2.269 2.269 0 00.386.254c.354.2.024.917.024.917l-.536 1.642a.521.521 0 00.361.666c1.227.326 4.2 1.025 4.8.31a7.77 7.77 0 001.024-3.14l.834-.21a.544.544 0 00.387-.688v-.01a.544.544 0 00-.638-.37l-.91.2-.373 1.145a.466.466 0 01-.588.3.463.463 0 01-.314-.508l.886-2.675 1.3-.955z" class="prefix__cls-2" data-name="パス 913" transform="translate(-1662.008 -778.186)"/><path id="prefix__パス_916" d="M1678.833 772.271a2.872 2.872 0 00-2-3.084l-3.353-1.045a2.344 2.344 0 00-3.025 1.968l-.1.823a3.688 3.688 0 001.917-.709s-.351 1.164.363 1.541a5.54 5.54 0 011.146-.853 4.351 4.351 0 01-.377 1 4.475 4.475 0 002.327-.022z" class="prefix__cls-7" data-name="パス 916" transform="translate(-1668.911 -768.035)"/></g></g><path id="prefix__パス_917" d="M1693.092 836.7s-2.536 2.783-4.279 2.795a2.085 2.085 0 002.109 1.964l2.774-4.246z" class="prefix__cls-9" data-name="パス 917" transform="translate(-1660.775 -802.962)"/><path id="prefix__パス_918" d="M1680.73 848.333l.326.626a1.438 1.438 0 00-.664 1.441s-.74-1.766.338-2.067z" class="prefix__cls-9" data-name="パス 918" transform="translate(-1653.612 -812.575)"/><path id="prefix__パス_919" d="M1682.264 854.816a.543.543 0 01-.161-.11c-.393-.409-.082-1.6.573-1.489a2.194 2.194 0 001.08 1.588s-.195.048-.454.081l1.7 22.963-1.967 1.625-1.282-1.8z" class="prefix__cls-10" data-name="パス 919" transform="translate(-1654.942 -816.605)"/><g id="prefix__グループ_1630" data-name="グループ 1630" transform="translate(15.649 64.023)"><path id="prefix__パス_920" d="M1642.116 1011.116l-3.942 23.945-4.414 31.416 2.8.536s11.732-23.948 8.152-30.125c0 0 10.328-18.631 11.109-25.771z" class="prefix__cls-1" data-name="パス 920" transform="translate(-1630.931 -1011.116)"/><path id="prefix__パス_921" d="M1623.094 1330.481l-.375 1.958-1.281-.245.187-.979-1.049.814-3.11-.6a.772.772 0 01.9-.613l1.281.245.646-1.121z" class="prefix__cls-1" data-name="パス 921" transform="translate(-1617.466 -1274.584)"/></g><path id="prefix__パス_922" d="M1712.15 838.212a67.237 67.237 0 00.253 25.122l1.453 7.239h7.418l-3.25-31.434z" class="prefix__cls-1" data-name="パス 922" transform="translate(-1679.183 -804.212)"/><path id="prefix__パス_923" d="M1713.855 862.106l2.035-16.585-2.068-.294 2.021-.956-1.667-4.791-.132.737a64.977 64.977 0 00-.189 21.889z" class="prefix__cls-11" data-name="パス 923" transform="translate(-1680.777 -805.261)"/><g id="prefix__グループ_1635" data-name="グループ 1635" transform="translate(37.564 34.656)"><path id="prefix__パス_924" d="M1828.069 1020.879l.746 2.616a.42.42 0 00.5.293h.008a.42.42 0 00.314-.485l-.261-1.415z" class="prefix__cls-2" data-name="パス 924" transform="translate(-1813.415 -989.818)"/><g id="prefix__グループ_1634" data-name="グループ 1634" transform="translate(12.466 29.949)"><g id="prefix__グループ_1631" data-name="グループ 1631" transform="translate(2.417 .295)"><path id="prefix__パス_925" d="M1829.562 1019.914a1.112 1.112 0 01.339-1.534l3.191-2.035a1.112 1.112 0 011.534.339l1.641 2.572-5.064 3.23zm4.477-2.855a.414.414 0 00-.571-.126l-3.191 2.036a.414.414 0 00-.126.571l1.266 1.984 3.889-2.48z" class="prefix__cls-1" data-name="パス 925" transform="translate(-1829.388 -1016.171)"/></g><g id="prefix__グループ_1633" data-name="グループ 1633"><rect id="prefix__長方形_2315" width="14.293" height="11.726" class="prefix__cls-11" data-name="長方形 2315" rx="2.372" transform="rotate(147.46 7.735 7.622)"/><path id="prefix__パス_926" d="M1816.434 1023.253l1.244 1.95a11.516 11.516 0 0012.026-7.7l.007-.02-1.225-1.921a.413.413 0 00-.57-.126l-11.355 7.243a.412.412 0 00-.127.574z" class="prefix__cls-1" data-name="パス 926" transform="translate(-1816.212 -1015.219)"/><path id="prefix__パス_927" d="M1822.865 1067.041a.412.412 0 00.126-.569l-5.862-9.191a.412.412 0 00-.569-.126.412.412 0 00-.126.569l5.862 9.192a.412.412 0 00.569.125z" class="prefix__cls-5" data-name="パス 927" transform="translate(-1816.212 -1049.691)"/><g id="prefix__グループ_1632" data-name="グループ 1632" transform="translate(8.112 6.708)"><rect id="prefix__長方形_2316" width="2.223" height="1.533" class="prefix__cls-12" data-name="長方形 2316" rx=".766" transform="rotate(147.469 1.152 1.068)"/><path id="prefix__長方形_2317" d="M.766 0h.69a.766.766 0 01.766.766.766.766 0 01-.766.766h-.69A.766.766 0 010 .766.766.766 0 01.766 0z" class="prefix__cls-6" data-name="長方形 2317" transform="rotate(147.47 1.205 1.053)"/><path id="prefix__パス_928" d="M1869.336 1055.938l1.286-.82a.307.307 0 00.095-.424l-.495-.776a.306.306 0 00-.424-.093l-.171.109a2.594 2.594 0 01-.291 2.004z" class="prefix__cls-5" data-name="パス 928" transform="translate(-1868.094 -1053.66)"/></g></g></g><path id="prefix__パス_929" d="M1829.834 995.5l-1.334-.636-1.33-2.688-1.422.7 1.33 2.688-.927 1.592 2.454 2.805a.5.5 0 00.688.059l.007-.006a.5.5 0 00.088-.683l-.093-.125.267.066a.4.4 0 00.421-.158.4.4 0 00-.02-.483l-.087-.1.11.05a.386.386 0 00.485-.144.385.385 0 00.009-.4l-.163-.28.054.025a.337.337 0 00.393-.083.337.337 0 00.043-.385z" class="prefix__cls-2" data-name="パス 929" transform="translate(-1811.497 -966.098)"/><path id="prefix__パス_930" d="M1760.194 871.591a1.439 1.439 0 00.589-1.949l-14.4-26.89a1.44 1.44 0 00-1.949-.59 1.44 1.44 0 00-.589 1.949l14.4 26.89a1.44 1.44 0 001.949.59z" class="prefix__cls-1" data-name="パス 930" transform="translate(-1743.673 -841.992)"/></g></g><path id="prefix__長方形_2318" d="M0 0h40.551v57.114H0z" class="prefix__cls-10" data-name="長方形 2318" transform="rotate(180 189.636 216.193)"/><path id="prefix__長方形_2319" d="M0 0h40.551v76.286H0z" class="prefix__cls-7" data-name="長方形 2319" transform="rotate(180 162.309 216.193)"/><path id="prefix__長方形_2320" d="M0 0h40.551v95.346H0z" class="prefix__cls-13" data-name="長方形 2320" transform="rotate(180 135.502 216.193)"/><path id="prefix__長方形_2321" d="M0 0h40.551v119.167H0z" class="prefix__cls-4" data-name="長方形 2321" transform="rotate(180 108.436 216.193)"/><g id="prefix__グループ_1649" data-name="グループ 1649" transform="translate(170.152 171.562)"><g id="prefix__グループ_1640" data-name="グループ 1640"><path id="prefix__パス_931" d="M667.11 326.948a1.442 1.442 0 011.96.563l14.8 26.724a1.442 1.442 0 01-.563 1.96 1.442 1.442 0 01-1.96-.563l-14.8-26.724a1.442 1.442 0 01.563-1.96z" class="prefix__cls-1" data-name="パス 931" transform="translate(-662.763 -299.818)"/><g id="prefix__グループ_1639" data-name="グループ 1639"><g id="prefix__グループ_1638" data-name="グループ 1638"><path id="prefix__パス_932" d="M655.2 305.324l1.347.684.3.633a.811.811 0 001.073.387.811.811 0 00.391-1.084l-.294-.618.988-1.6-2.436-2.929a.509.509 0 00-.7-.078l-.008.006a.509.509 0 00-.107.7l.091.13-.271-.074a.406.406 0 00-.434.15.407.407 0 00.008.494l.086.108-.112-.054a.394.394 0 00-.5.134.4.4 0 00-.019.41l.159.29-.055-.027a.344.344 0 00-.4.074.345.345 0 00-.054.392z" class="prefix__cls-2" data-name="パス 932" transform="translate(-652.714 -278.203)"/><g id="prefix__グループ_1637" data-name="グループ 1637"><path id="prefix__パス_1113" d="M0 0h1.467v38.1H0z" class="prefix__cls-6" data-name="パス 1113" transform="rotate(-136.22 6.263 14.054)"/><path id="prefix__パス_933" d="M740.465 186.74l1.544 2.352a22.46 22.46 0 008.085 7.428l.723.391a22.457 22.457 0 016.922 5.817l1.8 2.274 2.539-6.972 6.367-2.329-1.637-2.073a22.458 22.458 0 00-7.262-6.007 22.46 22.46 0 01-8.2-7.278l-1.978-2.9z" class="prefix__cls-10" data-name="パス 933" transform="translate(-723.995 -176.419)"/></g><path id="prefix__パス_934" d="M671.99 305.4l.987-1.6-.745-2.8a.4.4 0 00-.456-.294h-.008a.4.4 0 00-.332.467l.239 1.393a1.641 1.641 0 00-.5 1.687c.296 1.053.815 1.147.815 1.147z" class="prefix__cls-2" data-name="パス 934" transform="translate(-666.682 -278.276)"/></g><path id="prefix__長方形_2323" d="M.514 0a.514.514 0 01.514.514V1.6a.514.514 0 01-.514.514A.514.514 0 010 1.6V.514A.514.514 0 01.514 0z" class="prefix__cls-14" data-name="長方形 2323" transform="rotate(-29.901 43.952 6.188)"/><path id="prefix__長方形_2324" d="M.4 0a.4.4 0 01.4.4v1.314a.4.4 0 01-.4.4.4.4 0 01-.4-.4V.4A.4.4 0 01.4 0z" class="prefix__cls-14" data-name="長方形 2324" transform="rotate(-29.92 46.097 8.915)"/><path id="prefix__パス_935" d="M660.4 307.219h.008a.447.447 0 00.164-.61l-.61-1.059a.447.447 0 00-.61-.164h-.008a.447.447 0 00-.164.611l.61 1.059a.447.447 0 00.61.163z" class="prefix__cls-14" data-name="パス 935" transform="translate(-656.779 -282.096)"/><path id="prefix__長方形_2325" d="M.311 0a.311.311 0 01.312.311V1.34a.311.311 0 01-.311.311A.311.311 0 010 1.34V.311A.311.311 0 01.311 0z" class="prefix__cls-14" data-name="長方形 2325" transform="rotate(-29.923 47.4 9.93)"/></g></g><path id="prefix__パス_936" d="M760.808 478.769l-8.97-.882-5.262.841a1.449 1.449 0 00-1.208 1.241l-.258 1.957a79.3 79.3 0 001.341 26.9l.636 2.84h17.1s.476-8.259-2.17-10.818l.1-20.627a1.449 1.449 0 00-1.309-1.452z" class="prefix__cls-1" data-name="パス 936" transform="translate(-727.356 -424.698)"/><g id="prefix__グループ_1641" data-name="グループ 1641" transform="translate(18.083 84.016)"><path id="prefix__パス_937" d="M755.111 975.886v2h-1.306v-1l-.879 1h-3.171a.773.773 0 01.773-.773h1.306l.424-1.224z" class="prefix__cls-1" data-name="パス 937" transform="translate(-749.755 -920.241)"/><path id="prefix__パス_938" d="M757.244 655.422l-1.563 24.758 1.474 30.887h2.853s6.177-25.794 1.682-30.256l6.65-25.375z" class="prefix__cls-1" data-name="パス 938" transform="translate(-754.652 -655.422)"/><path id="prefix__パス_939" d="M759.924 668.5a53.438 53.438 0 016.171 8.878l5.751-21.947-11.1-.012z" class="prefix__cls-5" data-name="パス 939" transform="translate(-758.158 -655.42)"/></g><path id="prefix__パス_940" d="M768.154 513.528l-2.627-28.935-5.121-.88h-5.618s-3.551 5.287-2.208 11.457 2.718 12.5 1.85 18.358z" class="prefix__cls-6" data-name="パス 940" transform="translate(-733.756 -429.512)"/><g id="prefix__グループ_1643" data-name="グループ 1643" transform="translate(15.85 41.435)"><g id="prefix__グループ_1642" data-name="グループ 1642"><path id="prefix__パス_941" d="M745.817 413.869l-1.876-.8s-2.081-1.343-.23-2.877c0 0 .09 1.356 2.075 1.641s4.68-.957 5.164.831-3.713 2.471-5.133 1.205z" class="prefix__cls-13" data-name="パス 941" transform="translate(-741.894 -410.19)"/><path id="prefix__パス_942" d="M762.018 426.591s1.013-.432 1.712 1.165-1.734 5.489-1.011 7.089c0 0-4.137-1.165-5.023-2.616s-1.661-4.836.989-5.1a14.93 14.93 0 003.333-.538z" class="prefix__cls-13" data-name="パス 942" transform="translate(-753.396 -423.699)"/><path id="prefix__パス_943" d="M744.205 453.244l2.734.364 2.086 4.1 4.944-2.456-4.351-6.383z" class="prefix__cls-14" data-name="パス 943" transform="translate(-742.936 -442.155)"/><path id="prefix__パス_944" d="M738.944 426.76a6.665 6.665 0 00-.844 1.738c.041.34.206.609.154.757-.041.118-.936 1.394-1.3 1.913a.3.3 0 00.086.427 2.282 2.282 0 00.428.173c.385.123.2.895.2.895l-.2 1.715a.521.521 0 00.484.582c1.266.08 4.321.183 4.771-.635a7.773 7.773 0 00.39-3.279l.777-.369a.544.544 0 00.244-.751l-.005-.01a.544.544 0 00-.7-.238l-.853.377-.142 1.2a.466.466 0 01-.518.408.463.463 0 01-.407-.437l.346-2.8 1.089-1.191z" class="prefix__cls-2" data-name="パス 944" transform="translate(-736.897 -423.883)"/></g></g><path id="prefix__パス_947" d="M830 975.886v2h-1.306v-1l-.879 1h-3.171a.773.773 0 01.773-.773h1.306l.424-1.224z" class="prefix__cls-1" data-name="パス 947" transform="translate(-793.558 -836.225)"/><path id="prefix__パス_948" d="M776.127 481.393s-2.76 2.676-4.506 2.688a2.088 2.088 0 002.112 1.967l2.778-4.252z" class="prefix__cls-15" data-name="パス 948" transform="translate(-749.741 -427.595)"/><path id="prefix__パス_949" d="M763.526 492.4l.326.627a1.44 1.44 0 00-.665 1.443s-.74-1.765.339-2.07z" class="prefix__cls-15" data-name="パス 949" transform="translate(-742.567 -436.694)"/><path id="prefix__パス_950" d="M765.062 498.9a.538.538 0 01-.161-.11c-.393-.41-.082-1.606.574-1.492a2.2 2.2 0 001.082 1.59 4.6 4.6 0 01-.455.081l1.7 23-1.969 1.627-1.284-1.8z" class="prefix__cls-10" data-name="パス 950" transform="translate(-743.899 -440.73)"/><path id="prefix__パス_951" d="M773.921 655.435l11.31 55.632h2.853s3.395-24.663-3.216-31.62c0 0 3.915-17.375 1.173-24.025z" class="prefix__cls-1" data-name="パス 951" transform="translate(-751.642 -571.406)"/><path id="prefix__パス_952" d="M794.991 482.269a67.327 67.327 0 00.253 25.158l1.455 7.249h7.429l-3.255-31.476z" class="prefix__cls-1" data-name="パス 952" transform="translate(-768.176 -428.319)"/><path id="prefix__パス_953" d="M796.7 506.2l2.037-16.609-2.071-.294 2.023-.957-1.669-4.8-.132.738a65.067 65.067 0 00-.188 21.922z" data-name="パス 953" transform="translate(-769.772 -429.369)" fill="#04579b"/><g id="prefix__グループ_1648" data-name="グループ 1648" transform="translate(31.865 54.085)"><path id="prefix__パス_954" d="M913.526 661.93l.746 2.616a.421.421 0 00.5.293h.008a.42.42 0 00.314-.484l-.261-1.415z" class="prefix__cls-2" data-name="パス 954" transform="translate(-898.872 -630.868)"/><g id="prefix__グループ_1647" data-name="グループ 1647" transform="translate(12.466 29.949)"><g id="prefix__グループ_1644" data-name="グループ 1644" transform="translate(2.417 .295)"><path id="prefix__パス_955" d="M915.019 660.965a1.112 1.112 0 01.339-1.534l3.191-2.035a1.112 1.112 0 011.534.339l1.641 2.572-5.064 3.23zm4.477-2.855a.414.414 0 00-.571-.126l-3.191 2.035a.414.414 0 00-.126.571l1.266 1.984 3.889-2.48z" class="prefix__cls-1" data-name="パス 955" transform="translate(-914.845 -657.221)"/></g><g id="prefix__グループ_1646" data-name="グループ 1646"><rect id="prefix__長方形_2326" width="14.293" height="11.726" class="prefix__cls-11" data-name="長方形 2326" rx="2.372" transform="rotate(147.46 7.735 7.622)"/><path id="prefix__パス_956" d="M901.891 664.3l1.244 1.95a11.516 11.516 0 0012.026-7.7l.007-.02-1.225-1.921a.413.413 0 00-.57-.126l-11.355 7.243a.413.413 0 00-.127.574z" class="prefix__cls-1" data-name="パス 956" transform="translate(-901.669 -656.27)"/><path id="prefix__パス_957" d="M908.322 708.092a.412.412 0 00.126-.569l-5.862-9.191a.412.412 0 00-.569-.126.412.412 0 00-.126.569l5.862 9.191a.412.412 0 00.569.126z" class="prefix__cls-5" data-name="パス 957" transform="translate(-901.669 -690.741)"/><g id="prefix__グループ_1645" data-name="グループ 1645" transform="translate(8.111 6.708)"><path id="prefix__長方形_2327" d="M.766 0h.69a.766.766 0 01.766.766.766.766 0 01-.766.766h-.69A.766.766 0 010 .766.766.766 0 01.766 0z" class="prefix__cls-12" data-name="長方形 2327" transform="rotate(147.469 1.152 1.068)"/><path id="prefix__長方形_2328" d="M.766 0h.69a.766.766 0 01.766.766.766.766 0 01-.766.766h-.69A.766.766 0 010 .766.766.766 0 01.766 0z" class="prefix__cls-6" data-name="長方形 2328" transform="rotate(147.469 1.205 1.053)"/><path id="prefix__パス_958" d="M954.793 696.988l1.286-.82a.307.307 0 00.095-.424l-.495-.776a.307.307 0 00-.424-.093l-.171.109a2.6 2.6 0 01-.291 2.004z" class="prefix__cls-5" data-name="パス 958" transform="translate(-953.551 -694.711)"/></g></g></g><path id="prefix__パス_959" d="M915.291 636.55l-1.334-.636-1.33-2.688-1.422.7 1.33 2.688-.927 1.592 2.454 2.805a.5.5 0 00.687.06l.008-.006a.5.5 0 00.088-.683l-.093-.125.267.066a.4.4 0 00.421-.158.4.4 0 00-.02-.483l-.087-.1.11.05a.386.386 0 00.485-.143.386.386 0 00.009-.4l-.163-.28.054.025a.337.337 0 00.393-.083.337.337 0 00.043-.385z" class="prefix__cls-2" data-name="パス 959" transform="translate(-896.954 -607.148)"/><path id="prefix__パス_960" d="M845.651 512.641a1.44 1.44 0 00.589-1.949l-14.4-26.89a1.439 1.439 0 00-1.949-.589 1.44 1.44 0 00-.589 1.949l14.4 26.89a1.44 1.44 0 001.949.589z" class="prefix__cls-1" data-name="パス 960" transform="translate(-829.13 -483.042)"/></g></g><g id="prefix__グループ_1661" data-name="グループ 1661" transform="translate(263.111 256.335)"><g id="prefix__グループ_1652" data-name="グループ 1652" transform="translate(3.78 14.016)"><path id="prefix__パス_961" d="M1256.646 755.7a1.442 1.442 0 01-.674-1.925l6-12.463a1.442 1.442 0 011.925-.674 1.442 1.442 0 01.674 1.925l-6 12.463a1.442 1.442 0 01-1.925.674z" class="prefix__cls-1" data-name="パス 961" transform="translate(-1246.611 -740.499)"/><g id="prefix__グループ_1651" data-name="グループ 1651" transform="translate(0 12.662)"><g id="prefix__グループ_1650" data-name="グループ 1650"><path id="prefix__パス_962" d="M1212.5 830.066l-.375-1.334 7.125-13.582a1.182 1.182 0 00-.5-1.6 1.182 1.182 0 00-1.622.56l-6.376 14.05-1.7.329-.464 3.464a.467.467 0 00.382.522h.009a.466.466 0 00.536-.36l.031-.143.119.229a.373.373 0 00.371.2h.005a.373.373 0 00.329-.312l.02-.125.033.109a.361.361 0 00.4.253h.005a.362.362 0 00.288-.242l.1-.287.016.053a.316.316 0 00.3.227.316.316 0 00.3-.207z" class="prefix__cls-2" data-name="パス 962" transform="translate(-1207.574 -813.419)"/><path id="prefix__パス_963" d="M1205.922 898.328l-1.7.329-1.426 2.24a.371.371 0 00.085.491h.005a.371.371 0 00.521-.066l.791-1.027a1.506 1.506 0 001.45-.71c.533-.848.274-1.257.274-1.257z" class="prefix__cls-2" data-name="パス 963" transform="translate(-1202.743 -883.585)"/></g><path id="prefix__長方形_2329" d="M.472 0h1a.472.472 0 01.472.472.472.472 0 01-.472.472h-1A.472.472 0 010 .472.472.472 0 01.472 0z" class="prefix__cls-14" data-name="長方形 2329" transform="rotate(-72.54 13.328 8.84)"/><path id="prefix__長方形_2330" d="M.369 0h1.2a.369.369 0 01.369.369.369.369 0 01-.369.369h-1.2A.369.369 0 010 .369.369.369 0 01.369 0z" class="prefix__cls-14" data-name="長方形 2330" transform="rotate(-72.585 14.156 7.526)"/><path id="prefix__長方形_2331" d="M.414 0h1.113a.414.414 0 01.414.414.414.414 0 01-.414.414H.414A.414.414 0 010 .414.414.414 0 01.414 0z" class="prefix__cls-14" data-name="長方形 2331" transform="rotate(-72.54 13.788 8.133)"/><path id="prefix__長方形_2332" d="M.286 0h.944a.286.286 0 01.286.286.286.286 0 01-.286.286H.285A.285.285 0 010 .286.286.286 0 01.286 0z" class="prefix__cls-14" data-name="長方形 2332" transform="rotate(-72.615 14.454 6.816)"/></g></g><path id="prefix__パス_964" d="M1291.636 736.7l-4.194-1.222h-4.436l-1.6.835a2.12 2.12 0 00-1.085 1.411 81.155 81.155 0 00-2 17.9 2.5 2.5 0 002.495 2.495h11.82a.647.647 0 00.629-.8l-1.932-8.085 1.793-10.132a2.12 2.12 0 00-1.49-2.402z" class="prefix__cls-1" data-name="パス 964" transform="translate(-1261.422 -722.333)"/><g id="prefix__グループ_1653" data-name="グループ 1653" transform="translate(0 43.419)"><path id="prefix__パス_965" d="M1235.893 1157.726s2.971-3.794 3.123-3.241-1.168 3.138-2.2 3.492-.923-.251-.923-.251z" class="prefix__cls-17" data-name="パス 965" transform="translate(-1226.354 -1111.96)"/><path id="prefix__パス_966" d="M1202.066 909.838l-19.244 7.78a2.953 2.953 0 00-1.687 3.7l10.744 31.366-1.31 3.116-1.5 1.062.059.3 2.352-.512 2.235-3.029-.075-1.255s-2.542-27.749-7.261-30.059l19.237-5.475z" class="prefix__cls-2" data-name="パス 966" transform="translate(-1180.976 -909.838)"/><path id="prefix__パス_967" d="M1230.458 1158.8s-.257-1.947-.234-2.543a2.408 2.408 0 00-.094-1.207 2.355 2.355 0 00-.216-.307 2.045 2.045 0 00-.9 1.093c-.412.9-.776 1.719-1.389 1.947a2.2 2.2 0 01-.838.2l-1.768 1.207a.34.34 0 00-.142.347v.006a.341.341 0 00.4.269l2.1-.411a1.293 1.293 0 00.842-.573l1.01-1.583.52 1.692z" class="prefix__cls-10" data-name="パス 967" transform="translate(-1217.252 -1112.222)"/></g><g id="prefix__グループ_1654" data-name="グループ 1654" transform="translate(21.547 47.623)"><path id="prefix__パス_968" d="M1413.349 1209.59s3.263-3.546 3.372-2.983-1.415 3.036-2.476 3.306-.896-.323-.896-.323z" class="prefix__cls-17" data-name="パス 968" transform="translate(-1394.539 -1159.23)"/><path id="prefix__パス_969" d="M1305.068 935.1l7.97 18.557 12.433 27.937-1.554 3-1.583.939.035.306 2.385-.323 2.469-2.841.025-1.257s-4.044-27.555-9.326-28.559l-3.567-18.818z" class="prefix__cls-2" data-name="パス 969" transform="translate(-1305.068 -934.045)"/><path id="prefix__パス_970" d="M1407.324 1210.984s-.1-1.962-.031-2.554a1.518 1.518 0 00-.188-1.534 2.045 2.045 0 00-.98 1.019c-.482.863-.911 1.652-1.54 1.83a2.2 2.2 0 01-.851.134l-1.858 1.062a.341.341 0 00-.169.335v.006a.341.341 0 00.377.3l2.125-.242a1.293 1.293 0 00.884-.5l1.133-1.5.383 1.728z" class="prefix__cls-10" data-name="パス 970" transform="translate(-1384.924 -1159.519)"/></g><path id="prefix__パス_971" d="M1217.506 876.734l11.507.01a24.307 24.307 0 013.52 10.706l1.211 14.437-31-12.971 16.008-7.724z" class="prefix__cls-1" data-name="パス 971" transform="translate(-1198.963 -839.063)"/><path id="prefix__パス_972" d="M1285.984 736h-3.509l-2.483 4.243-1.658 1.659a2.947 2.947 0 001.106 4.863l-.181 13.667 11.507.01-2.286-9.839 2.07-12.448z" class="prefix__cls-4" data-name="パス 972" transform="translate(-1260.715 -722.769)"/><path id="prefix__パス_973" d="M1302.971 788.106a6.665 6.665 0 004.594-2.355 33.23 33.23 0 01-4.594 2.355z" class="prefix__cls-5" data-name="パス 973" transform="translate(-1281.788 -763.878)"/><path id="prefix__パス_974" d="M1300.1 737.662s-5.484 5.186-5.652 7.673c0 0-1-3.213 3.047-7.64z" data-name="パス 974" transform="translate(-1274.656 -724.139)" fill="#e85f5b"/><path id="prefix__パス_975" d="M1320.094 738.8l-.669 1.545a28.957 28.957 0 00-1.642 18.014 3.23 3.23 0 003.147 2.5h3.173l-2.01-9.108 1.77-10.251a1.635 1.635 0 00-1.1-1.832z" class="prefix__cls-1" data-name="パス 975" transform="translate(-1293.415 -725.083)"/><path id="prefix__パス_976" d="M1321.056 741.032a32.913 32.913 0 00-3 12.2l3.619-8.711-1.046-.6 1.431-.078z" class="prefix__cls-11" data-name="パス 976" transform="translate(-1294.251 -726.924)"/><g id="prefix__グループ_1659" data-name="グループ 1659" transform="translate(28.901 14.703)"><path id="prefix__パス_977" d="M1420.483 918.662l.587 2.426a.386.386 0 00.451.287h.007a.386.386 0 00.306-.433l-.187-1.307z" data-name="パス 977" transform="translate(-1407.796 -888.413)"/><g id="prefix__グループ_1658" data-name="グループ 1658" transform="translate(9.56 29.816)"><g id="prefix__グループ_1655" data-name="グループ 1655" transform="translate(2.586 .078)"><path id="prefix__パス_978" d="M1417.521 920.193l.847 1.453.688 1.182 5.192-3.024-.688-1.182-.847-1.453a1.11 1.11 0 00-1.519-.4l-2.684 1.562-.275.16-.313.182a1.1 1.1 0 00-.284.236 1.117 1.117 0 00-.117 1.284zm1.449 1.1l-.628-1.083-.216-.371a.413.413 0 01.147-.566l.344-.2.06-.035 2.868-1.669a.4.4 0 01.218-.055.41.41 0 01.349.2l.845 1.453.338.58-3.986 2.321z" class="prefix__cls-1" data-name="パス 978" transform="translate(-1417.371 -916.619)"/></g><g id="prefix__グループ_1657" data-name="グループ 1657"><rect id="prefix__長方形_2333" width="14.293" height="11.726" class="prefix__cls-11" data-name="長方形 2333" rx="2.372" transform="rotate(149.791 7.759 7.53)"/><path id="prefix__パス_979" d="M1403.4 924.438l1.164 2a11.517 11.517 0 0012.328-7.2l.008-.02-1.146-1.969a.413.413 0 00-.564-.149l-11.64 6.777a.413.413 0 00-.15.561z" class="prefix__cls-1" data-name="パス 979" transform="translate(-1403.196 -916.89)"/><path id="prefix__パス_980" d="M1409.452 966.262a.412.412 0 00.149-.563l-5.485-9.421a.412.412 0 00-.563-.149.412.412 0 00-.149.563l5.485 9.421a.412.412 0 00.563.149z" class="prefix__cls-5" data-name="パス 980" transform="translate(-1403.196 -949.144)"/><g id="prefix__グループ_1656" data-name="グループ 1656" transform="translate(8.094 6.622)"><path id="prefix__長方形_2334" d="M.766 0h.69a.766.766 0 01.766.766.766.766 0 01-.766.766h-.69A.766.766 0 010 .766.766.766 0 01.766 0z" class="prefix__cls-12" data-name="長方形 2334" transform="rotate(149.791 1.16 1.052)"/><path id="prefix__長方形_2335" d="M.766 0h.69a.766.766 0 01.766.766.766.766 0 01-.766.766h-.69A.766.766 0 010 .766.766.766 0 01.766 0z" class="prefix__cls-6" data-name="長方形 2335" transform="rotate(149.791 1.213 1.038)"/><path id="prefix__パス_981" d="M1456 957.091l1.318-.767a.307.307 0 00.112-.419l-.463-.8a.307.307 0 00-.42-.11l-.175.1a2.6 2.6 0 01-.372 1.996z" class="prefix__cls-5" data-name="パス 981" transform="translate(-1454.799 -954.845)"/></g></g></g><path id="prefix__パス_982" d="M1391.507 834.2l-1.21-.611-6.718-14.687a1.2 1.2 0 00-1.575-.6 1.2 1.2 0 00-.574 1.657l7.548 14.243-.883 1.441 2.192 2.624a.457.457 0 00.63.069l.007-.005a.457.457 0 00.095-.625l-.083-.117.244.066a.365.365 0 00.389-.136.365.365 0 00-.008-.443l-.077-.1.1.048a.354.354 0 00.448-.122.354.354 0 00.016-.368l-.143-.26.049.024a.31.31 0 00.363-.068.309.309 0 00.048-.352z" class="prefix__cls-2" data-name="パス 982" transform="translate(-1375.408 -805.394)"/><path id="prefix__パス_983" d="M1355.1 759.81a1.44 1.44 0 00.724-1.9l-5.654-12.6a1.44 1.44 0 00-1.9-.724 1.44 1.44 0 00-.724 1.9l5.654 12.6a1.44 1.44 0 001.9.724z" class="prefix__cls-1" data-name="パス 983" transform="translate(-1347.417 -744.455)"/></g><g id="prefix__グループ_1660" data-name="グループ 1660" transform="translate(16.178 .422)"><path id="prefix__パス_984" d="M1280.511 662.214s-4.389-.343-6.035 4.686 3.292 8.046 6.309 8 .411-9.646.411-9.646l-3.145-1.361a8.029 8.029 0 012.46-1.679z" class="prefix__cls-1" data-name="パス 984" transform="translate(-1274.148 -662.209)"/><path id="prefix__パス_985" d="M1282.682 669.477a6.086 6.086 0 00-1.966 2.377c-.457 1.3-.335 1.341-.678 1.63s-.968.8-.907 1.036.411.289.48.632-.335.328-.358.541.137.282.084.366-.063.213.064.4a.6.6 0 01.058.617.506.506 0 00.35.739c.45.137 1.989-.333 2.724.762s1.4 5.079 1.374 5.111l3.624-2.376-2.023-11.353z" class="prefix__cls-2" data-name="パス 985" transform="translate(-1278.262 -668.215)"/></g><path id="prefix__パス_987" d="M1296.235 661.292s4.292 9.551 2.552 11.438c0 0 7.683-.514 8.123-4.9s-6.304-11.067-10.675-6.538z" class="prefix__cls-1" data-name="パス 987" transform="translate(-1276.222 -659.78)"/></g><g id="prefix__グループ_1673" data-name="グループ 1673" transform="translate(402.711 294.452)"><path id="prefix__パス_988" d="M2054.563 947.043s9.825 4.217 5.447 9 8.067-.729 4.566 5.588-12.059 6.249-11.083 1.018-2.188-13.011-1.471-14.153a4.218 4.218 0 012.541-1.453z" data-name="パス 988" transform="translate(-2040.287 -935.281)" fill="#012856"/><ellipse id="prefix__楕円形_183" cx="2.273" cy="1.939" class="prefix__cls-10" data-name="楕円形 183" rx="2.273" ry="1.939" transform="rotate(-24.853 29.608 -16.044)"/><g id="prefix__グループ_1664" data-name="グループ 1664" transform="translate(0 14.459)"><path id="prefix__パス_989" d="M2007.32 979.155a1.442 1.442 0 01-1.237-1.621l1.84-13.709a1.442 1.442 0 011.621-1.237 1.442 1.442 0 011.237 1.621l-1.84 13.709a1.442 1.442 0 01-1.621 1.237z" class="prefix__cls-1" data-name="パス 989" transform="translate(-2002.403 -962.575)"/><g id="prefix__グループ_1663" data-name="グループ 1663" transform="translate(0 13.919)"><g id="prefix__グループ_1662" data-name="グループ 1662"><path id="prefix__パス_990" d="M1992.588 1060.392l-.771-1.152 2.562-15.121a1.181 1.181 0 00-.971-1.363 1.181 1.181 0 00-1.368 1.035l-1.706 15.334-1.51.839.633 3.437a.466.466 0 00.525.377h.009a.467.467 0 00.4-.509l-.014-.145.184.181a.373.373 0 00.415.074.373.373 0 00.216-.4l-.02-.125.065.093a.361.361 0 00.459.117.363.363 0 00.2-.32v-.3l.031.046a.316.316 0 00.357.122.316.316 0 00.219-.289z" class="prefix__cls-2" data-name="パス 990" transform="translate(-1988.151 -1042.739)"/><path id="prefix__パス_991" d="M1987.134 1137.106l-1.51.839-.661 2.572a.371.371 0 00.233.441h.007a.371.371 0 00.475-.225l.434-1.221a1.506 1.506 0 001.159-1.125c.236-.973-.137-1.281-.137-1.281z" class="prefix__cls-2" data-name="パス 991" transform="translate(-1984.952 -1120.72)"/></g><path id="prefix__パス_992" d="M1992.827 1152.752h-.01a.467.467 0 00-.462.472l.011 1.007a.467.467 0 00.472.462h.009a.467.467 0 00.462-.472l-.011-1.007a.466.466 0 00-.471-.462z" class="prefix__cls-21" data-name="パス 992" transform="translate(-1991.07 -1133.65)"/><path id="prefix__パス_993" d="M2002.584 1148.8h-.007a.365.365 0 00-.361.369l.013 1.211a.365.365 0 00.369.361h.007a.365.365 0 00.361-.369l-.013-1.211a.365.365 0 00-.369-.361z" class="prefix__cls-21" data-name="パス 993" transform="translate(-1999.218 -1130.38)"/><path id="prefix__長方形_2336" d="M.414 0a.414.414 0 01.414.414v1.113a.414.414 0 01-.414.414A.414.414 0 010 1.527V.414A.414.414 0 01.414 0z" class="prefix__cls-21" data-name="長方形 2336" transform="translate(2.211 18.745)"/><path id="prefix__パス_994" d="M2007.03 1148.527h-.006a.283.283 0 00-.28.286l.01.949a.283.283 0 00.286.28h.006a.283.283 0 00.28-.286l-.01-.949a.283.283 0 00-.286-.28z" class="prefix__cls-21" data-name="パス 994" transform="translate(-2002.96 -1130.158)"/></g></g><path id="prefix__パス_995" d="M2017.616 956.1l-4.2-1.224h-4.442l-1.6.836a2.123 2.123 0 00-1.087 1.413 81.285 81.285 0 00-2 17.926 2.5 2.5 0 002.5 2.5h11.838a.648.648 0 00.63-.8l-1.934-8.1 1.8-10.146a2.123 2.123 0 00-1.505-2.405z" class="prefix__cls-1" data-name="パス 995" transform="translate(-2000.929 -941.754)"/><g id="prefix__グループ_1665" data-name="グループ 1665" transform="translate(5.417 49.098)"><path id="prefix__パス_996" d="M2030.174 1432.7s3.649-3.158 3.693-2.585-1.751 2.86-2.838 3.008-.855-.423-.855-.423z" class="prefix__cls-17" data-name="パス 996" transform="translate(-2027.722 -1383.513)"/><path id="prefix__パス_997" d="M2016.15 1162.067l.461 16.479 3.9 30.094-1.887 2.811-1.681.755v.309l2.41-.052 2.779-2.547.168-1.247s3-27.272-1.194-30.449l4.256-16.152z" class="prefix__cls-2" data-name="パス 997" transform="translate(-2016.15 -1162.067)"/><path id="prefix__パス_998" d="M2023.366 1434.535s.122-1.963.258-2.544a2.41 2.41 0 00.14-1.2 2.346 2.346 0 00-.153-.344 2.045 2.045 0 00-1.091.9c-.577.8-1.094 1.541-1.74 1.646a2.2 2.2 0 01-.862.037l-1.969.846a.341.341 0 00-.207.314v.006a.341.341 0 00.341.341h2.142a1.294 1.294 0 00.937-.4l1.3-1.362.186 1.763z" class="prefix__cls-10" data-name="パス 998" transform="translate(-2017.466 -1383.843)"/></g><g id="prefix__グループ_1666" data-name="グループ 1666" transform="translate(10.849 48.735)"><path id="prefix__パス_999" d="M2077.185 1432.7s3.649-3.158 3.693-2.585-1.752 2.86-2.838 3.008-.855-.423-.855-.423z" class="prefix__cls-17" data-name="パス 999" transform="translate(-2072.001 -1383.15)"/><path id="prefix__パス_1000" d="M2047.432 1159.975l3.192 16.842 3.9 30.094-1.887 2.81-1.681.755v.309l2.41-.051 2.779-2.547.168-1.247s3.461-27.184-.734-30.361l.877-16.239z" class="prefix__cls-2" data-name="パス 1000" transform="translate(-2047.432 -1159.975)"/><path id="prefix__パス_1001" d="M2070.376 1434.535s.122-1.963.259-2.544a2.411 2.411 0 00.14-1.2 2.385 2.385 0 00-.153-.344 2.046 2.046 0 00-1.091.9c-.577.8-1.093 1.541-1.74 1.646a2.2 2.2 0 01-.862.037l-1.969.846a.341.341 0 00-.207.314v.006a.341.341 0 00.341.341h2.142a1.294 1.294 0 00.937-.4l1.3-1.362.186 1.763z" class="prefix__cls-10" data-name="パス 1001" transform="translate(-2061.745 -1383.48)"/></g><path id="prefix__パス_1002" d="M2008.012 1096.338l11.524.011.03.049a22.746 22.746 0 013.337 10.624l.713 12.491h-16.809l1.609-18.14z" class="prefix__cls-1" data-name="パス 1002" transform="translate(-2003.012 -1058.653)"/><path id="prefix__パス_1003" d="M2011.955 955.405h-3.514l-2.487 4.25-1.66 1.661a2.951 2.951 0 001.108 4.87l-.181 13.687 11.524.011-2.289-9.853 2.073-12.466z" class="prefix__cls-7" data-name="パス 1003" transform="translate(-2000.221 -942.191)"/><path id="prefix__パス_1004" d="M2028.967 1007.582a6.676 6.676 0 004.6-2.358 33.3 33.3 0 01-4.6 2.358z" class="prefix__cls-5" data-name="パス 1004" transform="translate(-2021.324 -983.359)"/><path id="prefix__パス_1005" d="M2026.094 957.065s-5.491 5.193-5.66 7.684c0 0-1-3.218 3.052-7.651z" class="prefix__cls-4" data-name="パス 1005" transform="translate(-2014.182 -943.563)"/><g id="prefix__グループ_1667" data-name="グループ 1667" transform="translate(4.472 .043)"><path id="prefix__パス_1006" d="M2020.637 879.607s-3.444-.528-4.555 1.729.666 9.5 3.923 10.258.632-11.987.632-11.987z" class="prefix__cls-1" data-name="パス 1006" transform="translate(-2014.874 -879.553)"/><path id="prefix__パス_1007" d="M2015.152 885.5a6.087 6.087 0 00-2.307 2.048c-.651 1.218-.537 1.274-.92 1.508s-1.079.642-1.055.885.362.349.378.7-.381.273-.437.48.092.3.027.374-.095.2 0 .4a.6.6 0 01-.037.619.507.507 0 00.233.784c.423.2 2.017-.025 2.575 1.17s.6 5.233.576 5.261l3.944-1.793-.261-11.529z" class="prefix__cls-2" data-name="パス 1007" transform="translate(-2010.705 -884.466)"/></g><path id="prefix__パス_1009" d="M2046.114 958.209l-.67 1.548a29 29 0 00-1.644 18.043 3.235 3.235 0 003.152 2.508h3.178l-2.013-9.121 1.772-10.266a1.637 1.637 0 00-1.1-1.835z" class="prefix__cls-1" data-name="パス 1009" transform="translate(-2032.968 -944.508)"/><path id="prefix__パス_1010" d="M2047.079 960.44a32.962 32.962 0 00-3.008 12.219l3.624-8.724-1.048-.6 1.433-.078z" class="prefix__cls-11" data-name="パス 1010" transform="translate(-2033.806 -946.352)"/><g id="prefix__グループ_1672" data-name="グループ 1672" transform="translate(15.287 14.462)"><path id="prefix__パス_1011" d="M2101.851 1148.046l-.045 2.5a.386.386 0 00.364.393h.008a.386.386 0 00.406-.342l.15-1.314z" data-name="パス 1011" transform="translate(-2096.802 -1115.844)"/><g id="prefix__グループ_1671" data-name="グループ 1671" transform="translate(.309 32.795)"><g id="prefix__グループ_1668" data-name="グループ 1668" transform="translate(3.507)"><path id="prefix__パス_1012" d="M2095 1153.885l.453 1.622.367 1.319 5.8-1.616-.368-1.32-.452-1.622a1.112 1.112 0 00-1.37-.773l-3 .834-.307.085-.349.1a1.106 1.106 0 00-.335.156 1.119 1.119 0 00-.439 1.215zm1.125 1.435l-.335-1.208-.116-.414a.414.414 0 01.287-.512l.384-.108.067-.018 3.2-.891a.4.4 0 01.225 0 .412.412 0 01.286.286l.45 1.622.181.648-4.45 1.24z" class="prefix__cls-1" data-name="パス 1012" transform="translate(-2094.962 -1151.456)"/></g><g id="prefix__グループ_1670" data-name="グループ 1670" transform="translate(0 1.324)"><rect id="prefix__長方形_2337" width="14.314" height="11.743" class="prefix__cls-11" data-name="長方形 2337" rx="2.376" transform="rotate(164.45 7.7 6.815)"/><path id="prefix__パス_1013" d="M2075.331 1163.773l.622 2.231a11.533 11.533 0 0013.767-3.858l.013-.017-.613-2.2a.413.413 0 00-.509-.287l-12.993 3.62a.414.414 0 00-.287.511z" class="prefix__cls-1" data-name="パス 1013" transform="translate(-2075.221 -1159.533)"/><path id="prefix__パス_1014" d="M2078.771 1191.808a.413.413 0 00.287-.508l-2.931-10.517a.412.412 0 00-.508-.287.412.412 0 00-.287.508l2.93 10.517a.413.413 0 00.509.287z" class="prefix__cls-5" data-name="パス 1014" transform="translate(-2075.221 -1176.765)"/><g id="prefix__グループ_1669" data-name="グループ 1669" transform="translate(7.69 5.848)"><rect id="prefix__長方形_2338" width="2.226" height="1.535" class="prefix__cls-12" data-name="長方形 2338" rx=".767" transform="rotate(164.45 1.175 .928)"/><rect id="prefix__長方形_2339" width="2.226" height="1.535" class="prefix__cls-6" data-name="長方形 2339" rx=".767" transform="rotate(164.45 1.228 .921)"/><path id="prefix__パス_1015" d="M2124.184 1195.068l1.471-.41a.307.307 0 00.214-.378l-.247-.887a.307.307 0 00-.379-.213l-.2.054a2.6 2.6 0 01-.859 1.834z" class="prefix__cls-5" data-name="パス 1015" transform="translate(-2123.293 -1193.098)"/></g></g></g><path id="prefix__パス_1016" d="M2093.737 1060.131l-1.018-.9-2.792-15.931a1.2 1.2 0 00-1.375-.978 1.2 1.2 0 00-.976 1.461l3.709 15.711-1.221 1.173 1.459 3.1a.457.457 0 00.592.226h.008a.457.457 0 00.25-.581l-.05-.134.219.126a.366.366 0 00.412-.033.365.365 0 00.1-.431l-.05-.114.085.072a.354.354 0 00.464 0 .355.355 0 00.109-.352l-.073-.289.042.036a.31.31 0 00.369.026.31.31 0 00.135-.329z" class="prefix__cls-2" data-name="パス 1016" transform="translate(-2085.016 -1028.465)"/><path id="prefix__パス_1017" d="M2076.96 979.093a1.442 1.442 0 001.183-1.661l-2.289-13.641a1.442 1.442 0 00-1.661-1.183 1.442 1.442 0 00-1.183 1.661l2.289 13.641a1.442 1.442 0 001.661 1.183z" class="prefix__cls-1" data-name="パス 1017" transform="translate(-2072.99 -962.588)"/></g><path id="prefix__パス_1018" d="M2032.072 880.181s-.281 11.235 3.693 11.735 5.505-16.623-3.693-11.735z" class="prefix__cls-1" data-name="パス 1018" transform="translate(-2023.887 -879.302)"/></g></g></svg>