<svg xmlns="http://www.w3.org/2000/svg" width="193.814" height="160"><defs><clipPath id="prefix__clip-path"><path id="prefix__パス_85" d="M275.6 100.231l-8.585 4.671a3.941 3.941 0 00-1.389 5.66l9.125 13.591 12.957-7.049-6.618-15a3.942 3.942 0 00-5.49-1.873z" class="prefix__cls-1" data-name="パス 85" transform="translate(-264.958 -99.751)"/></clipPath><clipPath id="prefix__clip-path-2"><path id="prefix__パス_92" d="M271.563 94.452c1.144 2.1 1.072 6.033-1.031 7.177s-5.442-.932-6.585-3.035a4.335 4.335 0 117.616-4.142z" class="prefix__cls-2" data-name="パス 92" transform="translate(-263.419 -92.188)"/></clipPath><clipPath id="prefix__clip-path-3"><path id="prefix__パス_105" d="M307.273 89.114l-8.343 4.341c-1.983 1.032-4.355 3.6-3.145 5.483l9.135 6.917 1.112 6.263 12.594-6.553-4.54-4.755-.986-10.345c-.854-2.047-3.858-2.375-5.827-1.351z" class="prefix__cls-3" data-name="パス 105" transform="translate(-295.456 -88.551)"/></clipPath><clipPath id="prefix__clip-path-4"><path id="prefix__パス_110" d="M303.592 83.261c1.063 2.045.852 5.695-1.119 6.889-2.055 1.245-5.226-.881-6.283-3.037a4.172 4.172 0 017.4-3.852z" class="prefix__cls-4" data-name="パス 110" transform="translate(-295.739 -81.015)"/></clipPath><clipPath id="prefix__clip-path-5"><path id="prefix__パス_119" d="M334.131 72.064l-8.584 4.671a3.942 3.942 0 00-1.389 5.661l9.125 13.591 12.958-7.049-6.618-15a3.944 3.944 0 00-5.492-1.874z" class="prefix__cls-5" data-name="パス 119" transform="translate(-323.488 -71.584)"/></clipPath><clipPath id="prefix__clip-path-6"><path id="prefix__パス_126" d="M330.091 66.285c1.145 2.1 1.073 6.034-1.03 7.177s-5.442-.931-6.585-3.034a4.335 4.335 0 017.615-4.143z" class="prefix__cls-6" data-name="パス 126" transform="translate(-321.948 -64.021)"/></clipPath><style>.prefix__cls-1{fill:#002245}.prefix__cls-2{fill:#f4ae87}.prefix__cls-3{fill:#f3ba18}.prefix__cls-4{fill:#e8a181}.prefix__cls-5{fill:#014596}.prefix__cls-6{fill:#f9bb9b}.prefix__cls-8{fill:#fb5d51}.prefix__cls-10{fill:#fff}.prefix__cls-12{fill:#e0902f}.prefix__cls-16{fill:#448fea}.prefix__cls-17{fill:#251d6d}</style></defs><g id="prefix__グループ_1759" data-name="グループ 1759" transform="translate(-245.393 -31.369)"><g id="prefix__グループ_699" data-name="グループ 699" transform="translate(322.824 32.026)"><g id="prefix__グループ_698" data-name="グループ 698"><path id="prefix__長方形_418" d="M0 0h.633v34.146H0z" class="prefix__cls-5" data-name="長方形 418" transform="rotate(-26.817 .6 .143)"/></g></g><g id="prefix__グループ_700" data-name="グループ 700" transform="translate(334.7 54.306)"><path id="prefix__パス_75" d="M339.16 55.242s-.556-2.893-2.5-2.236-.464 3.89-.464 3.89z" class="prefix__cls-2" data-name="パス 75" transform="translate(-335.658 -52.909)"/></g><g id="prefix__グループ_701" data-name="グループ 701" transform="translate(289.458 79.491)"><path id="prefix__パス_76" d="M301.954 92.026c2.037-4.536 2.433-5.387 2.112-8.009A3.4 3.4 0 00301.344 81a3.225 3.225 0 00-3.015.159c-5.17 2.8-1.874 7.743-2.313 9.584a7.691 7.691 0 01-1.5 3.489c-2.186 2.384-4.2 5.2-4.381 8.456a7.032 7.032 0 005 6.976c2.816.781 9.733-.327 9.773-6.832.038-6.056-3.95-8.59-2.954-10.806z" class="prefix__cls-1" data-name="パス 76" transform="translate(-290.129 -80.701)"/></g><g id="prefix__グループ_703" data-name="グループ 703" transform="translate(245.393 70.479)"><g id="prefix__グループ_702" data-name="グループ 702"><path id="prefix__パス_77" d="M437.533 80.814l-68.618-12.681a2.021 2.021 0 00-2.247 2.814l4.062 8.618a1.991 1.991 0 01-1.005 2.665l-123.137 55.52a1.99 1.99 0 00-1.006 2.664l22.34 47.4a2.073 2.073 0 002.725.983l123.135-55.518a2.073 2.073 0 012.725.983l4.062 8.618a2.075 2.075 0 003.648.158l34.716-59.256a2 2 0 00-1.4-2.968z" class="prefix__cls-5" data-name="パス 77" transform="translate(-245.393 -68.096)"/></g></g><g id="prefix__グループ_704" data-name="グループ 704" transform="translate(268.992 98.053)"><path id="prefix__長方形_419" d="M0 0h4.7v4.913H0z" data-name="長方形 419" transform="matrix(.878 -.478 .478 .878 0 2.246)" fill="#63281d"/></g><g id="prefix__グループ_705" data-name="グループ 705" transform="translate(307.007 135.919)"><path id="prefix__パス_78" d="M307.79 139.376l.963 2.285 7.686-3.236s-.141-1.824-3-1.159-4.174.95-4.174.95z" class="prefix__cls-1" data-name="パス 78" transform="translate(-307.79 -137.121)"/></g><g id="prefix__グループ_706" data-name="グループ 706" transform="translate(256.553 132.433)"><path id="prefix__パス_79" d="M259.747 133.543s.724 2.778-1.24 3.37-2.634-2.9-2.634-2.9z" class="prefix__cls-2" data-name="パス 79" transform="translate(-255.873 -133.543)"/></g><g id="prefix__グループ_707" data-name="グループ 707" transform="translate(302.067 141.563)"><path id="prefix__パス_80" d="M302.789 144.494l.767 2.359 7.931-2.578s.014-1.829-2.891-1.407-4.238.6-4.238.6z" class="prefix__cls-1" data-name="パス 80" transform="translate(-302.789 -142.804)"/></g><g id="prefix__グループ_708" data-name="グループ 708" transform="translate(274.92 113.786)"><path id="prefix__パス_81" d="M303.815 123.2l-16.623-7.2-7.872 4.323-6.039-4.66c-.5 2.038.93 7.073.939 7.46a9.066 9.066 0 002.429 6.793c3.35 3.607 16.391 6.306 16.391 6.306-.889.07 4.295-4.829 4.295-4.829s-12.6-4.027-12.443-5.56a1.344 1.344 0 011.535-1.044l13.293 2.966A18.866 18.866 0 00303 134a95.033 95.033 0 007.2 7.088l3.753-1.986z" class="prefix__cls-8" data-name="パス 81" transform="translate(-273.177 -115.66)"/></g><g id="prefix__グループ_709" data-name="グループ 709" transform="translate(256.189 104)"><path id="prefix__パス_82" d="M266.255 105.8c3.146 2.8 6.853 2.433 3.235 7.426-3.04 4.2-7.781 7.619-8.314 8.862s-1.861 12.094-1.861 12.094l-3.785.217.285-12.515a5 5 0 01.539-1.936l5.662-8.16z" class="prefix__cls-1" data-name="パス 82" transform="translate(-255.531 -105.798)"/></g><g id="prefix__グループ_710" data-name="グループ 710" transform="translate(255.787 131.347)"><path id="prefix__長方形_420" d="M0 0h5.234v2.136H0z" class="prefix__cls-5" data-name="長方形 420" transform="rotate(-2.968 5.23 .135)"/></g><g id="prefix__グループ_711" data-name="グループ 711" transform="translate(275.92 81.537)"><path id="prefix__パス_83" d="M281.393 108.562c-4.068-1.084-9.435-.384-6.389-5.746 2.852-5.02 5.394-7.38 5.312-8.728s-2.921-9.5-2.921-9.5l3.282-1.9 2.648 6.244a37.4 37.4 0 011.765 4.484s-1.368 6.035-1.882 8.058c-.484 1.913-1.815 7.088-1.815 7.088z" class="prefix__cls-1" data-name="パス 83" transform="translate(-274.108 -82.691)"/></g><g id="prefix__グループ_714" data-name="グループ 714" transform="translate(266.228 98.272)"><path id="prefix__パス_84" d="M275.6 100.231l-8.585 4.671a3.941 3.941 0 00-1.389 5.66l9.125 13.591 12.957-7.049-6.618-15a3.942 3.942 0 00-5.49-1.873z" class="prefix__cls-1" data-name="パス 84" transform="translate(-264.958 -99.751)"/><g id="prefix__グループ_713" data-name="グループ 713"><g id="prefix__グループ_712" data-name="グループ 712" transform="translate(5.444 1.507)"><path id="prefix__長方形_421" d="M0 0h.633v24.211H0z" class="prefix__cls-8" data-name="長方形 421" transform="rotate(-28.548 .595 .151)"/></g></g></g><g id="prefix__グループ_715" data-name="グループ 715" transform="translate(272.274 101.738)"><path id="prefix__パス_86" d="M272 102.884l-1.36.74 5.392 12.145 2.447 1.251a.361.361 0 00.524-.286l.265-2.726z" class="prefix__cls-10" data-name="パス 86" transform="translate(-270.636 -102.884)"/></g><g id="prefix__グループ_716" data-name="グループ 716" transform="translate(271.6 101.51)"><path id="prefix__パス_87" d="M273.022 103.112a1.607 1.607 0 11-2.18-.643 1.608 1.608 0 012.18.643z" class="prefix__cls-10" data-name="パス 87" transform="translate(-270.003 -102.273)"/></g><g id="prefix__グループ_717" data-name="グループ 717" transform="translate(268.516 101.642)"><path id="prefix__パス_88" d="M271.03 102.457s-.345 4.291-.84 4.723-3.083-2.538-3.083-2.538z" class="prefix__cls-5" data-name="パス 88" transform="translate(-267.107 -102.457)"/></g><g id="prefix__グループ_718" data-name="グループ 718" transform="translate(272.436 99.712)"><path id="prefix__パス_89" d="M270.788 102.587s3.791 2.041 4.421 1.86-.456-3.968-.456-3.968z" class="prefix__cls-5" data-name="パス 89" transform="translate(-270.788 -100.48)"/></g><g id="prefix__グループ_721" data-name="グループ 721" transform="translate(264.589 91.347)"><path id="prefix__パス_90" d="M271.563 94.452c1.144 2.1 1.072 6.033-1.031 7.177s-5.442-.932-6.585-3.035a4.335 4.335 0 117.616-4.142z" class="prefix__cls-2" data-name="パス 90" transform="translate(-263.419 -92.188)"/><g id="prefix__グループ_720" data-name="グループ 720"><g id="prefix__グループ_719" data-name="グループ 719" transform="translate(-3.186 -1.586)"><path id="prefix__パス_91" d="M268.408 101.933l-1.123-2.065s-2.318-.684-2.4-2.02 1.752-.952 1.752-.952 7.371-3.863 7.38-5.354c.007-1.175-8.714-.973-9.647-.3s-4.247 6.2-3.924 7.242 4.885 3.017 4.885 3.017z" class="prefix__cls-3" data-name="パス 91" transform="translate(-260.427 -90.699)"/></g></g></g><g id="prefix__グループ_722" data-name="グループ 722" transform="translate(278.767 80.033)"><path id="prefix__パス_93" d="M280.235 82.914s-.556-2.894-2.5-2.237-.463 3.89-.463 3.89z" class="prefix__cls-2" data-name="パス 93" transform="translate(-276.733 -80.58)"/></g><g id="prefix__グループ_723" data-name="グループ 723" transform="translate(277.937 81.435)"><path id="prefix__長方形_422" d="M0 0h5.234v2.136H0z" class="prefix__cls-5" data-name="長方形 422" transform="rotate(-27.41 4.94 1.204)"/></g><g id="prefix__グループ_724" data-name="グループ 724" transform="translate(316.769 116.668)"><path id="prefix__パス_94" d="M319.716 129.132a63.634 63.634 0 013.382 6.511l3.195-1s-4.138-15.394-6.045-16.289a5.645 5.645 0 00-2.332-.076c-.697 1.934.184 8.044 1.8 10.854z" class="prefix__cls-2" data-name="パス 94" transform="translate(-317.675 -118.207)"/></g><g id="prefix__グループ_725" data-name="グループ 725" transform="translate(303.576 99.106)"><path id="prefix__パス_95" d="M333.226 116.541a6.764 6.764 0 00-2.361-3.18l-14.4-8.255-6.091 1.5-4.66-5.675c-.9 1.8-.654 6.834-.728 7.2 0 0 8.965 7.176 9.424 4.845.159-.806 1.359-.863 1.664-.647l12.684 5.1s.556 4.922 2.055 7.619c2.4 4.314 4.041 7.7 4.041 7.7l3.78-.372z" class="prefix__cls-2" data-name="パス 95" transform="translate(-304.985 -100.928)"/></g><g id="prefix__グループ_726" data-name="グループ 726" transform="translate(331.865 128.726)"><path id="prefix__パス_96" d="M332.953 130.539l.409 2.351 7.908-1.376s.262-1.741-2.563-1.734a26.99 26.99 0 00-5.754.759z" class="prefix__cls-1" data-name="パス 96" transform="translate(-332.953 -129.781)"/></g><g id="prefix__グループ_727" data-name="グループ 727" transform="translate(280.896 79.387)"><path id="prefix__パス_97" d="M282.147 82.2s-.483-2.794-2.366-2.2-.514 3.735-.514 3.735z" class="prefix__cls-2" data-name="パス 97" transform="translate(-278.786 -79.922)"/></g><g id="prefix__グループ_728" data-name="グループ 728" transform="translate(321.502 132.461)"><path id="prefix__パス_98" d="M322.467 133.988l.642 2.675 7.908-1.373s.263-1.741-2.562-1.735a53.187 53.187 0 00-5.988.433z" class="prefix__cls-1" data-name="パス 98" transform="translate(-322.467 -133.556)"/></g><g id="prefix__グループ_729" data-name="グループ 729" transform="translate(278.581 81.008)"><path id="prefix__パス_99" d="M302.081 102.983c1.321-3.83 4.237-5.7-1.151-8.189-4.529-2.089-10.121-2.727-11.154-3.518S282.515 82 282.515 82l-3.278 1.6 6.138 10.368a4.788 4.788 0 001.364 1.37l8.6 4.18z" class="prefix__cls-3" data-name="パス 99" transform="translate(-279.237 -82.004)"/></g><g id="prefix__グループ_730" data-name="グループ 730" transform="translate(280.496 80.313)"><path id="prefix__長方形_423" d="M0 0h5.037v2.056H0z" class="prefix__cls-12" data-name="長方形 423" transform="rotate(-26.351 4.776 1.118)"/></g><g id="prefix__グループ_731" data-name="グループ 731" transform="translate(305.245 65.441)"><path id="prefix__パス_100" d="M306.937 69.3s-2.012-2-.441-3.2 3.353 1.722 3.353 1.722z" class="prefix__cls-2" data-name="パス 100" transform="translate(-305.897 -65.816)"/></g><g id="prefix__グループ_732" data-name="グループ 732" transform="translate(305.564 66.798)"><path id="prefix__パス_101" d="M312.582 97.532c-3.9-1.116-7.1.2-6.045-5.643.888-4.908 3.574-9.853 3.518-11.152s-3.426-11.267-3.426-11.267l3.193-1.766 4.968 10.976a4.825 4.825 0 01.34 1.905l-1.511 9.438z" class="prefix__cls-3" data-name="パス 101" transform="translate(-306.333 -67.704)"/></g><g id="prefix__グループ_733" data-name="グループ 733" transform="translate(304.806 66.319)"><path id="prefix__長方形_424" d="M0 0h5.037v2.056H0z" class="prefix__cls-12" data-name="長方形 424" transform="rotate(-28.629 4.73 1.207)"/></g><g id="prefix__グループ_735" data-name="グループ 735" transform="translate(303.717 103.097)"><g id="prefix__グループ_734" data-name="グループ 734"><path id="prefix__パス_102" d="M318.008 104.529l-13.023 3.371a31.593 31.593 0 001.689 6.987c1.971 4.505 5.915 2.752 7.76 4.245 2.393 1.937.545 6.669 2.119 6.2 2.53-.76 12.9-7.726 16.972-10.137 1.133-.67-1.054-5.738-3.362-6.14-4.157-.724-5.451-.307-9.17-2.5a24 24 0 01-2.985-2.026z" data-name="パス 102" transform="translate(-304.985 -104.529)" fill="#34be8e"/></g></g><g id="prefix__グループ_741" data-name="グループ 741" transform="translate(294.523 87.342)"><path id="prefix__パス_103" d="M307.273 89.114l-8.343 4.341c-1.983 1.032-4.355 3.6-3.145 5.483l9.135 6.917 1.112 6.263 12.594-6.553-4.54-4.755-.986-10.345c-.854-2.047-3.858-2.375-5.827-1.351z" class="prefix__cls-3" data-name="パス 103" transform="translate(-295.456 -88.551)"/><g id="prefix__グループ_740" data-name="グループ 740"><g id="prefix__グループ_737" data-name="グループ 737" transform="translate(8.925 4.104)"><g id="prefix__グループ_736" data-name="グループ 736"><path id="prefix__長方形_425" d="M0 0h.633v22.124H0z" class="prefix__cls-5" data-name="長方形 425" transform="rotate(-26.994 .598 .143)"/></g></g><g id="prefix__グループ_739" data-name="グループ 739" transform="translate(3.972 -1.089)"><g id="prefix__グループ_738" data-name="グループ 738"><path id="prefix__パス_104" d="M299.5 93.407a4.281 4.281 0 102.376-5.569 4.281 4.281 0 00-2.376 5.569z" class="prefix__cls-6" data-name="パス 104" transform="translate(-299.185 -87.528)"/></g></g></g></g><g id="prefix__グループ_742" data-name="グループ 742" transform="translate(298.42 86.845)"><path id="prefix__パス_106" d="M299.056 87.583l4.607-.055 2.183 4.195-4.013 2.088z" class="prefix__cls-6" data-name="パス 106" transform="translate(-299.056 -87.528)"/></g><g id="prefix__グループ_743" data-name="グループ 743" transform="translate(295.081 80.342)"><path id="prefix__パス_107" d="M303.593 83.261c1.063 2.045 1.837 5.58-.207 6.643s-6.133-.746-7.2-2.791a4.172 4.172 0 017.4-3.852z" class="prefix__cls-6" data-name="パス 107" transform="translate(-295.719 -81.015)"/></g><g id="prefix__グループ_746" data-name="グループ 746" transform="translate(295.11 80.335)"><path id="prefix__パス_108" d="M303.592 83.261c1.063 2.045.852 5.695-1.119 6.889-2.055 1.245-5.226-.881-6.283-3.037a4.172 4.172 0 017.4-3.852z" class="prefix__cls-4" data-name="パス 108" transform="translate(-295.739 -81.015)"/><g id="prefix__グループ_745" data-name="グループ 745"><g id="prefix__グループ_744" data-name="グループ 744" transform="translate(-3.117 -1.506)"><path id="prefix__パス_109" d="M300.427 90.4l-1.044-2.006s-2.218-.7-2.27-1.986 1.7-.886 1.7-.886 7.161-3.586 7.2-5.021c.029-1.13-8.368-1.091-9.277-.463s-4.2 5.892-3.9 6.9 4.647 2.99 4.647 2.99z" class="prefix__cls-1" data-name="パス 109" transform="translate(-292.812 -79.6)"/></g></g></g><g id="prefix__グループ_747" data-name="グループ 747" transform="translate(290.69 128.762)"><path id="prefix__パス_111" d="M296.154 130.432l10.261 13.678-2.533 2.123a52.219 52.219 0 01-8.262-5.61c-3.374-2.974-3.906-5.685-3.906-5.685l-.328-3.97z" class="prefix__cls-8" data-name="パス 111" transform="translate(-291.385 -130.432)"/></g><g id="prefix__グループ_748" data-name="グループ 748" transform="translate(325.137 70.233)"><path id="prefix__長方形_426" d="M0 0h4.7v4.913H0z" class="prefix__cls-2" data-name="長方形 426" transform="rotate(-28.547 4.414 1.123)"/></g><g id="prefix__グループ_749" data-name="グループ 749" transform="translate(364.801 108.072)"><path id="prefix__パス_112" d="M366.319 111.209l.963 2.285 7.685-3.236s-.14-1.824-3-1.159-4.173.95-4.173.95z" class="prefix__cls-1" data-name="パス 112" transform="translate(-366.319 -108.954)"/></g><g id="prefix__グループ_750" data-name="グループ 750" transform="translate(325.725 99.877)"><path id="prefix__パス_113" d="M329.284 100.631s2.23 1.717.835 3.092-3.517-1.276-3.517-1.276z" class="prefix__cls-2" data-name="パス 113" transform="translate(-326.601 -100.631)"/></g><g id="prefix__グループ_751" data-name="グループ 751" transform="translate(359.86 113.71)"><path id="prefix__パス_114" d="M361.318 116.328l.767 2.358 7.93-2.578s.014-1.829-2.89-1.407-4.238.6-4.238.6z" class="prefix__cls-1" data-name="パス 114" transform="translate(-361.318 -114.637)"/></g><g id="prefix__グループ_752" data-name="グループ 752" transform="translate(329.34 86.246)"><path id="prefix__パス_115" d="M362.343 95.034l-16.622-7.2-7.872 4.322-6.04-4.66c-.5 2.039.931 7.073.94 7.462a13.929 13.929 0 002.874 7.6c1.885 2.256 15.946 5.5 15.946 5.5-.889.07 4.295-4.828 4.295-4.828s-12.6-4.028-12.443-5.56a1.343 1.343 0 011.535-1.045l13.294 2.966a18.866 18.866 0 003.282 6.247 94.9 94.9 0 007.2 7.087l3.752-1.985z" class="prefix__cls-16" data-name="パス 115" transform="translate(-331.705 -87.493)"/></g><g id="prefix__グループ_753" data-name="グループ 753" transform="translate(319.482 74.82)"><path id="prefix__パス_116" d="M325.029 77.031c3.551-1.885 5.86-2 5.031 3.827-.7 4.9-4.68 8.74-4.576 10.027s3.816 11.045 3.816 11.045l-3.1 1.87-5.336-10.7a4.739 4.739 0 01-.408-1.875s2.527-13.109 4.573-14.194z" class="prefix__cls-5" data-name="パス 116" transform="translate(-320.457 -75.877)"/></g><g id="prefix__グループ_754" data-name="グループ 754" transform="translate(324.274 98.857)"><path id="prefix__長方形_427" d="M0 0h4.998v2.04H0z" class="prefix__cls-17" data-name="長方形 427" transform="rotate(-30.8 4.644 1.279)"/></g><g id="prefix__グループ_755" data-name="グループ 755" transform="translate(331.461 55.981)"><path id="prefix__パス_117" d="M339.921 80.4c-4.068-1.084-9.435-.384-6.388-5.745 2.852-5.02 5.394-7.381 5.311-8.729s-2.921-9.5-2.921-9.5l3.283-1.894 2.648 6.243a37.691 37.691 0 011.764 4.485s-1.368 6.035-1.882 8.058c-.483 1.902-1.815 7.082-1.815 7.082z" class="prefix__cls-5" data-name="パス 117" transform="translate(-332.636 -54.525)"/></g><g id="prefix__グループ_758" data-name="グループ 758" transform="translate(322.048 70.715)"><path id="prefix__パス_118" d="M334.131 72.064l-8.584 4.671a3.942 3.942 0 00-1.389 5.661l9.125 13.591 12.958-7.049-6.618-15a3.944 3.944 0 00-5.492-1.874z" class="prefix__cls-5" data-name="パス 118" transform="translate(-323.488 -71.584)"/><g id="prefix__グループ_757" data-name="グループ 757"><g id="prefix__グループ_756" data-name="グループ 756" transform="translate(5.443 1.507)"><path id="prefix__長方形_428" d="M0 0h.634v24.211H0z" class="prefix__cls-1" data-name="長方形 428" transform="rotate(-28.57 .595 .152)"/></g></g></g><g id="prefix__グループ_759" data-name="グループ 759" transform="translate(328.113 74.023)"><path id="prefix__パス_120" d="M330.525 74.717l-1.361.74 5.392 12.143L337 88.854a.361.361 0 00.523-.286l.266-2.726z" class="prefix__cls-10" data-name="パス 120" transform="translate(-329.164 -74.717)"/></g><g id="prefix__グループ_760" data-name="グループ 760" transform="translate(327.659 73.647)"><path id="prefix__パス_121" d="M331.55 74.946a1.606 1.606 0 11-2.179-.643 1.606 1.606 0 012.179.643z" class="prefix__cls-10" data-name="パス 121" transform="translate(-328.532 -74.107)"/></g><g id="prefix__グループ_761" data-name="グループ 761" transform="translate(324.771 73.799)"><path id="prefix__パス_122" d="M329.559 74.291s-.345 4.291-.84 4.723-3.084-2.539-3.084-2.539z" class="prefix__cls-17" data-name="パス 122" transform="translate(-325.635 -74.291)"/></g><g id="prefix__グループ_762" data-name="グループ 762" transform="translate(328.391 71.859)"><path id="prefix__パス_123" d="M329.316 74.42s3.791 2.041 4.422 1.86-.456-3.967-.456-3.967z" class="prefix__cls-17" data-name="パス 123" transform="translate(-329.316 -72.314)"/></g><g id="prefix__グループ_765" data-name="グループ 765" transform="translate(320.98 63.57)"><path id="prefix__パス_124" d="M330.091 66.285c1.145 2.1 1.073 6.034-1.03 7.177s-5.442-.931-6.585-3.034a4.335 4.335 0 017.615-4.143z" class="prefix__cls-6" data-name="パス 124" transform="translate(-321.948 -64.021)"/><g id="prefix__グループ_764" data-name="グループ 764"><g id="prefix__グループ_763" data-name="グループ 763" transform="translate(-3.186 -1.585)"><path id="prefix__パス_125" d="M326.936 73.767l-1.122-2.067s-2.318-.685-2.4-2.02 1.752-.953 1.752-.953 7.371-3.863 7.381-5.354c.007-1.175-8.715-.972-9.648-.3s-4.246 6.2-3.923 7.241 4.884 3.018 4.884 3.018z" class="prefix__cls-1" data-name="パス 125" transform="translate(-318.956 -62.532)"/></g></g></g><g id="prefix__グループ_766" data-name="グループ 766" transform="translate(348.334 101.071)"><path id="prefix__パス_127" d="M354.683 102.266l10.26 13.678-2.532 2.122a52.213 52.213 0 01-8.262-5.609c-3.374-2.974-3.907-5.685-3.907-5.685l-.328-3.971z" class="prefix__cls-16" data-name="パス 127" transform="translate(-349.913 -102.266)"/></g><g id="prefix__グループ_767" data-name="グループ 767" transform="translate(334.165 55.64)"><path id="prefix__長方形_429" d="M0 0h4.998v2.04H0z" class="prefix__cls-17" data-name="長方形 429" transform="rotate(-30.8 4.644 1.279)"/></g><g id="prefix__グループ_768" data-name="グループ 768" transform="translate(323.658 33.981)"><path id="prefix__パス_128" d="M345.637 34.332a.309.309 0 00-.235-.51l-19.872.062a.412.412 0 00-.433.59l6.361 12.8.866 1.742a.412.412 0 00.733.012z" class="prefix__cls-8" data-name="パス 128" transform="translate(-325.053 -33.822)"/></g><g id="prefix__グループ_769" data-name="グループ 769" transform="translate(322.798 31.369)"><path id="prefix__パス_129" d="M325.047 32.107a.738.738 0 11-.738-.738.738.738 0 01.738.738z" class="prefix__cls-5" data-name="パス 129" transform="translate(-323.57 -31.369)"/></g></g></svg>