<svg xmlns="http://www.w3.org/2000/svg" id="prefix__user" width="30.035" height="36"><defs><style>.prefix__cls-1{fill:#f3ba18}</style></defs><path id="prefix__パス_861" d="M95.7 17.341a8.39 8.39 0 006.131-2.54 8.389 8.389 0 002.54-6.131 8.391 8.391 0 00-2.54-6.131 8.669 8.669 0 00-12.261 0 8.39 8.39 0 00-2.54 6.13 8.389 8.389 0 002.542 6.131 8.392 8.392 0 006.128 2.541zm0 0" class="prefix__cls-1" data-name="パス 861" transform="translate(-80.912)"/><path id="prefix__パス_862" d="M29.962 257.609a21.417 21.417 0 00-.292-2.275 17.922 17.922 0 00-.559-2.287 11.3 11.3 0 00-.94-2.133 8.049 8.049 0 00-1.418-1.848 6.251 6.251 0 00-2.037-1.28 7.038 7.038 0 00-2.6-.47 2.639 2.639 0 00-1.409.6 196.5 196.5 0 01-1.468.946 8.413 8.413 0 01-1.9.837 7.376 7.376 0 01-4.647 0 8.393 8.393 0 01-1.9-.837c-.546-.349-1.041-.668-1.469-.947a2.635 2.635 0 00-1.409-.6 7.029 7.029 0 00-2.6.471 6.246 6.246 0 00-2.037 1.28 8.05 8.05 0 00-1.417 1.847 11.319 11.319 0 00-.94 2.133 17.964 17.964 0 00-.559 2.287 21.341 21.341 0 00-.292 2.276c-.048.689-.072 1.4-.072 2.126a5.978 5.978 0 001.775 4.522 6.391 6.391 0 004.575 1.669h17.337a6.39 6.39 0 004.575-1.669 5.975 5.975 0 001.776-4.523 31.22 31.22 0 00-.073-2.125zm0 0" class="prefix__cls-1" data-name="パス 862" transform="translate(0 -229.927)"/></svg>