<svg xmlns="http://www.w3.org/2000/svg" id="prefix__portfolio" width="40.96" height="36"><defs><style>.prefix__cls-1{fill:#2962ff}</style></defs><path id="prefix__パス_858" d="M211 240h7.2v2.4H211zm0 0" class="prefix__cls-1" data-name="パス 858" transform="translate(-194.12 -220.8)"/><path id="prefix__パス_859" d="M33.23 92.817h-6.75v1.2a1.2 1.2 0 01-1.2 1.2h-9.6a1.2 1.2 0 01-1.2-1.2v-1.2H7.73a3.6 3.6 0 01-3.415-2.461L0 77.41v26.207a3.6 3.6 0 003.6 3.6h33.76a3.6 3.6 0 003.6-3.6V77.411l-4.315 12.945a3.6 3.6 0 01-3.415 2.461zm0 0" class="prefix__cls-1" data-name="パス 859" transform="translate(0 -71.217)"/><path id="prefix__パス_860" d="M49.024 0h-9.6a3.6 3.6 0 00-3.6 3.6v1.2H25.809l4.526 13.58a1.2 1.2 0 001.139.82h6.75V18a1.2 1.2 0 011.2-1.2h9.6a1.2 1.2 0 011.2 1.2v1.2h6.75a1.2 1.2 0 001.139-.82L62.64 4.8H52.624V3.6a3.6 3.6 0 00-3.6-3.6zm-10.8 4.8V3.6a1.2 1.2 0 011.2-1.2h9.6a1.2 1.2 0 011.2 1.2v1.2zm0 0" class="prefix__cls-1" data-name="パス 860" transform="translate(-23.744)"/></svg>