<svg xmlns="http://www.w3.org/2000/svg" width="100" height="99.999"><defs><style>.prefix__cls-1{fill:#3a556a}.prefix__cls-3{fill:#ebf0f3}.prefix__cls-4{fill:#d5d6db}.prefix__cls-6{fill:#c9e8ea}.prefix__cls-7{fill:#fff}.prefix__cls-10{fill:#f3ba18}.prefix__cls-11{fill:#fb5d51}</style></defs><g id="prefix__laptop_1_" data-name="laptop (1)" transform="translate(-29.896 -29.896)"><path id="prefix__パス_739" d="M180.637 145.03H94.283a2.273 2.273 0 00-2.272 2.273v60.779h90.9V147.3a2.273 2.273 0 00-2.274-2.27z" class="prefix__cls-1" data-name="パス 739" transform="translate(-57.565 -86.484)"/><path id="prefix__長方形_2273" d="M0 0h80.273v53.316H0z" data-name="長方形 2273" transform="translate(39.767 63.418)" fill="#64798a"/><path id="prefix__長方形_2274" d="M0 0h100v6.295H0z" class="prefix__cls-3" data-name="長方形 2274" transform="translate(29.896 121.605)"/><g id="prefix__グループ_1575" data-name="グループ 1575" transform="translate(30.036 124.005)"><path id="prefix__パス_740" d="M182.028 297.608H82.309l6.566 2h86.587z" class="prefix__cls-4" data-name="パス 740" transform="translate(-82.309 -293.714)"/><path id="prefix__長方形_2275" d="M0 0h13.473v1.473H0z" class="prefix__cls-4" data-name="長方形 2275" transform="translate(43.114)"/></g><ellipse id="prefix__楕円形_168" cx="1.427" cy="1.176" data-name="楕円形 168" rx="1.427" ry="1.176" transform="translate(78.454 75.138)" fill="#bfbdbd"/><path id="prefix__パス_741" d="M186.154 155.323h-9.544s5.312 10.47-4.574 52.955l7.488.174 3.021.094 7.639.282c-9.884-42.485-4.03-53.505-4.03-53.505z" class="prefix__cls-6" data-name="パス 741" transform="translate(-101.215 -92.099)"/><path id="prefix__パス_742" d="M186.295 150.651l-1.749.188v-.223l-1.615-.3s2.675 46.555-4.062 53.683l.312 1.545 4.915.386.895-.191 4.735.062 1.079-.215c-6.737-7.125-4.51-54.935-4.51-54.935z" class="prefix__cls-7" data-name="パス 742" transform="translate(-104.942 -89.369)"/><path id="prefix__パス_743" d="M238.6 225.949a9.1 9.1 0 00-4.144-.015c-4.537 1.022-7.556 5.13-6.742 9.176.021.107.047.212.073.316l-.026.006a7.759 7.759 0 00-4.869 3.355 6.148 6.148 0 00-.952 4.085l8.66-1.95 17.84-4.022v-18.8c-.248.042-.5.09-.746.146a12.478 12.478 0 00-9.094 7.703z" class="prefix__cls-6" data-name="パス 743" transform="translate(-128.408 -126.342)"/><path id="prefix__パス_744" d="M233.765 246.774a9.175 9.175 0 00-4.05-.927c-4.64 0-8.4 3.354-8.4 7.49v.054a12.747 12.747 0 012.448 2.2h24.364v-13.743a13.114 13.114 0 00-3.95-.6 12.11 12.11 0 00-10.412 5.526z" class="prefix__cls-7" data-name="パス 744" transform="translate(-128.094 -138.966)"/><path id="prefix__パス_745" d="M195.686 265.125a13.382 13.382 0 00-4.1-1.9 11.8 11.8 0 00-11.385 2.609 9.5 9.5 0 00-5.877-2.293 6.022 6.022 0 011.735 3.785h22.071a12.72 12.72 0 00-2.444-2.201z" class="prefix__cls-6" data-name="パス 745" transform="translate(-102.464 -150.7)"/><path id="prefix__パス_746" d="M135.8 246.935a7.546 7.546 0 00-5.422-2.209h-.027c.005-.108.009-.216.009-.325 0-4.136-3.761-7.49-8.4-7.49a9.172 9.172 0 00-4.05.927 12.109 12.109 0 00-10.41-5.528 13.14 13.14 0 00-3.8.556v17.854h33.839a6.02 6.02 0 00-1.739-3.785z" class="prefix__cls-7" data-name="パス 746" transform="translate(-63.939 -134.091)"/><path id="prefix__パス_747" d="M127.585 259.287a7.408 7.408 0 00-5.745-.918l-.027.006a7.42 7.42 0 00-.057-.32c-.844-4.039-5.2-6.454-9.731-5.394a9.378 9.378 0 00-3.765 1.83 10.793 10.793 0 00-4.564-2.8v9.6H129.5a6 6 0 00-1.915-2.004z" class="prefix__cls-6" data-name="パス 747" transform="translate(-63.939 -144.662)"/><g id="prefix__グループ_1576" data-name="グループ 1576" transform="translate(63.195 70.314)"><path id="prefix__パス_748" d="M215.222 187.385a13.066 13.066 0 00.677-3.929c.108-6.59-4.625-12.01-10.57-12.108l-.129 7.878c4.7.074 8.629 3.484 10.022 8.159z" class="prefix__cls-1" data-name="パス 748" transform="translate(-182.5 -171.153)"/><path id="prefix__パス_749" d="M155.809 186.626a13.06 13.06 0 01-.549-3.949c.108-6.59 5.014-11.853 10.96-11.756l-.129 7.878c-4.698-.077-8.737 3.201-10.282 7.827z" class="prefix__cls-1" data-name="パス 749" transform="translate(-155.258 -170.919)"/></g><path id="prefix__パス_750" d="M187.071 134.344c2.045-4.016 3.38-10.166 3.515-18.416.261-16.006-5.8-33.861-9.811-33.926-3.334-.055-10.651 17.583-10.913 33.588-.135 8.25 1 14.441 2.912 18.521z" class="prefix__cls-3" data-name="パス 750" transform="translate(-100.023 -52.105)"/><circle id="prefix__楕円形_169" cx="5.253" cy="5.253" r="5.253" data-name="楕円形 169" transform="translate(75.139 46.239)" fill="#e1e6e9"/><circle id="prefix__楕円形_170" cx="3.865" cy="3.865" r="3.865" data-name="楕円形 170" transform="translate(76.526 47.627)" fill="#27a2db"/><path id="prefix__パス_751" d="M180.247 196.724a5.676 5.676 0 00-.913 3c-.051 3.155 5.524 11.595 5.524 11.595s5.848-8.253 5.9-11.408a5.674 5.674 0 00-.815-3.025z" class="prefix__cls-10" data-name="パス 751" transform="translate(-105.195 -114.681)"/><path id="prefix__パス_752" d="M183.155 196.767a4.275 4.275 0 00-.687 2.255c-.039 2.375 4.158 8.727 4.158 8.727s4.4-6.213 4.441-8.587a4.272 4.272 0 00-.614-2.276z" class="prefix__cls-11" data-name="パス 752" transform="translate(-106.905 -114.704)"/><path id="prefix__パス_753" d="M186.622 196.818a2.6 2.6 0 00-.418 1.372c-.024 1.445 2.53 5.309 2.53 5.309s2.678-3.779 2.7-5.224a2.6 2.6 0 00-.373-1.385z" data-name="パス 753" transform="translate(-108.943 -114.732)" fill="#fcd462"/><path id="prefix__パス_754" d="M186.927 82c-1.473-.024-3.721 3.405-5.8 8.618l11.586.189c-1.847-5.277-4.013-8.778-5.786-8.807z" class="prefix__cls-11" data-name="パス 754" transform="translate(-106.175 -52.104)"/><path id="prefix__パス_755" d="M192.207 101.148l-11.586-.189a55.06 55.06 0 00-.424 1.108l12.385.2a48.832 48.832 0 00-.375-1.119z" class="prefix__cls-10" data-name="パス 755" transform="translate(-105.666 -62.445)"/></g></svg>