<svg xmlns="http://www.w3.org/2000/svg" width="115.797" height="65.999"><defs><style>.prefix__cls-1{fill:#2145aa}.prefix__cls-2{fill:#1e3e99}.prefix__cls-3{fill:#44c4a1}.prefix__cls-4{fill:#3ea69b}.prefix__cls-5{fill:#3a556a}.prefix__cls-6{fill:#2f4859}</style></defs><g id="prefix__group" transform="translate(-29.896 -47.143)"><circle id="prefix__楕円形_172" cx="12.045" cy="12.045" r="12.045" class="prefix__cls-1" data-name="楕円形 172" transform="translate(43.112 47.737)"/><path id="prefix__パス_757" d="M137.987 213.2a25.26 25.26 0 10-50.521 0z" class="prefix__cls-2" data-name="パス 757" transform="translate(-57.57 -116.116)"/><path id="prefix__パス_758" d="M87.467 213.2a25.26 25.26 0 0125.26-25.26v25.26z" class="prefix__cls-1" data-name="パス 758" transform="translate(-57.571 -116.116)"/><path id="prefix__パス_759" d="M138.657 163.21a12.044 12.044 0 000-24.088z" class="prefix__cls-2" data-name="パス 759" transform="translate(-83.501 -91.389)"/><circle id="prefix__楕円形_173" cx="12.045" cy="12.045" r="12.045" class="prefix__cls-3" data-name="楕円形 173" transform="translate(108.381 47.15)"/><path id="prefix__パス_760" d="M270.272 212a25.26 25.26 0 10-50.521 0z" class="prefix__cls-4" data-name="パス 760" transform="translate(-124.579 -115.51)"/><path id="prefix__パス_761" d="M219.752 212a25.26 25.26 0 0125.26-25.26V212z" class="prefix__cls-3" data-name="パス 761" transform="translate(-124.579 -115.51)"/><path id="prefix__パス_762" d="M270.943 162.013a12.044 12.044 0 000-24.088z" class="prefix__cls-4" data-name="パス 762" transform="translate(-150.51 -90.783)"/><circle id="prefix__楕円形_174" cx="15.963" cy="15.963" r="15.963" class="prefix__cls-5" data-name="楕円形 174" transform="translate(70.8 47.737)"/><path id="prefix__パス_763" d="M196.011 237.307a5.824 5.824 0 005.718-7 33.49 33.49 0 00-65.5 0 5.824 5.824 0 005.718 7z" class="prefix__cls-6" data-name="パス 763" transform="translate(-82.208 -124.165)"/><path id="prefix__パス_764" d="M136.231 230.311a33.493 33.493 0 0132.749-26.486v33.481h-27.032a5.823 5.823 0 01-5.717-6.995z" class="prefix__cls-5" data-name="パス 764" transform="translate(-82.208 -124.164)"/><path id="prefix__パス_765" d="M202.728 171.049a15.964 15.964 0 000-31.928z" class="prefix__cls-6" data-name="パス 765" transform="translate(-115.956 -91.389)"/></g></svg>