<svg xmlns="http://www.w3.org/2000/svg" width="100" height="100"><defs><style>.prefix__cls-1{fill:#27a2db}.prefix__cls-2{fill:#2d93ba}.prefix__cls-3{fill:#fb5d51}.prefix__cls-4{fill:#fcd462}.prefix__cls-5{fill:#fff}.prefix__cls-8{fill:#d5d6db}</style></defs><g id="prefix__credit-card" transform="translate(-29.896 -29.896)"><path id="prefix__パス_812" d="M200.951 104.96h-91.982a4.006 4.006 0 00-4.009 4v57.965a4.007 4.007 0 004.009 4h91.982a4.006 4.006 0 004.009-4v-57.961a4.006 4.006 0 00-4.009-4.004z" class="prefix__cls-1" data-name="パス 812" transform="translate(-75.064 -75.064)"/><g id="prefix__グループ_1577" data-name="グループ 1577" transform="translate(35.064 35.368)"><path id="prefix__パス_813" d="M365.212 218.176c.1-.008.238-.1.324-.017a.677.677 0 01-.324.358c-.071.031-.164.02-.238.051-.142.058-.216.206-.34.307s-.272.176-.392.256-.284.229-.426.119c.011-.2.223-.2.273-.358 0-.119-.106-.132-.1-.256.236-.207.607-.356.664-.783.026-.189-.128-.6.1-.614.272-.021.118.273.137.426.007.062.071.1.1.188.057.147.052.285.222.323z" class="prefix__cls-2" data-name="パス 813" transform="translate(-277.061 -182.838)"/><path id="prefix__パス_814" d="M357.124 222.484c-.095.284-.509.433-.784.614-.084.056-.153.182-.256.221-.133.053-.284.036-.425.1a5.5 5.5 0 00-.6.443 1.836 1.836 0 01-.716.323c-.252.019-.718-.143-.409-.375a4.523 4.523 0 01.562-.289 12.542 12.542 0 001.567-.7c.227-.165.432-.34.648-.477.112-.065.289.12.413.14z" class="prefix__cls-2" data-name="パス 814" transform="translate(-270.625 -186.124)"/><path id="prefix__パス_815" d="M353.37 190.658c.055-.015.053.027.086.034a.386.386 0 01-.478.375c-.139-.013-.382-.117-.391-.187-.035-.245.627-.094.783-.222z" class="prefix__cls-2" data-name="パス 815" transform="translate(-269.819 -165.695)"/><path id="prefix__パス_816" d="M343.123 189c.123.035.67.422.494.6-.1.1-.218-.051-.374-.085-.209-.046-.369.01-.511-.1-.162-.127-.2-.4-.375-.562a.766.766 0 00-.477-.17c-.271.029-.268.34-.511.477-.233-.025-.37.043-.546-.017s-.277-.3-.443-.323-.583.279-.647.017c-.052-.212.286-.282.306-.426a.681.681 0 00-.2-.443c-.071-.065-.172-.07-.256-.119s-.154-.152-.256-.2c-.357-.186-.9-.11-1.039-.409-.024-.053.014-.111-.017-.187-.037-.093-.174-.124-.222-.2-.121-.208-.036-.515.17-.545a.768.768 0 01.6.341c.023.072-.016.154 0 .238.019.1.17.347.307.358.176.015.281-.258.443-.358a.837.837 0 01.444-.136c.145.011.242.125.408.187.119.045.268.062.409.1.124.035.23.108.358.153a2.738 2.738 0 011.107.494c.06.071.059.177.137.256s.466.144.477.307c.009.124-.162.131-.17.255-.023.236.325.221.384.497z" class="prefix__cls-2" data-name="パス 816" transform="translate(-260.406 -162.881)"/><path id="prefix__パス_817" d="M340.277 222.519a1.084 1.084 0 01-.426.6c-.154.107-.642.323-.7.017a2.014 2.014 0 01.136-.562c.12-.239.249-.083.443-.051s.388-.123.547-.004z" class="prefix__cls-2" data-name="パス 817" transform="translate(-261.156 -186.193)"/><path id="prefix__パス_818" d="M333.692 150.678c.069.2.116.406.171.6-.188.234-.559.147-.834.272-.13.059-.165.274-.29.307-.1.026-.177-.087-.272-.085-.245 0-.364.409-.665.307-.172.1.007.495-.2.528-.15.024-.233-.17-.324-.289-.11-.145-.268-.224-.272-.341s.244-.324.323-.409a1.213 1.213 0 01.409-.324c.227-.05.458.022.631-.051.149-.064.158-.3.238-.358s.146-.037.2-.068a.618.618 0 00.238-.681c-.057-.19-.372-.4-.17-.631a.938.938 0 01.749.631c.02.118-.045.235-.034.358a1.652 1.652 0 00.102.234z" class="prefix__cls-2" data-name="パス 818" transform="translate(-255.899 -139.123)"/><path id="prefix__パス_819" d="M336.327 146.589c-.038.087-.115.069-.187.119s-.152.205-.238.222c-.137.026-.29-.134-.427-.1-.159.038-.066.16-.119.306-.14-.03-.369-.185-.375-.341 0-.1.123-.158.154-.272.05-.195-.081-.293-.154-.477-.005-.028.016-.029.017-.051.167-.035.493.279.869.341.243.038.446.016.46.253z" class="prefix__cls-2" data-name="パス 819" transform="translate(-258.466 -136.892)"/><path id="prefix__パス_820" d="M336.534 196.25c.017.142-.23.125-.256.033.005-.109.222-.143.256-.033z" class="prefix__cls-2" data-name="パス 820" transform="translate(-259.302 -169.26)"/><path id="prefix__パス_821" d="M333.613 143.647c.169.089.577.291.289.477-.174-.064-.355-.285-.289-.477z" class="prefix__cls-2" data-name="パス 821" transform="translate(-257.575 -135.38)"/><path id="prefix__パス_822" d="M330.843 193.8c.195-.106.408-.339.749-.222-.075.212-.332.208-.494.307s-.3.27-.511.289a.156.156 0 00-.069-.069c0-.188.19-.232.325-.305z" class="prefix__cls-2" data-name="パス 822" transform="translate(-255.588 -167.56)"/><path id="prefix__パス_823" d="M328.651 185.116c.2 0 .388-.061.527.017-.026.426-.686.1-1.124.17-.093.014-.121.086-.222.051a.367.367 0 01.324-.306c.126-.013.312.068.495.068z" class="prefix__cls-2" data-name="パス 823" transform="translate(-253.856 -162.079)"/><path id="prefix__パス_824" d="M328.14 186.636c.019.236-.3.262-.392.444.142.216.2.519.358.715-.007.13.026.3-.051.358-.343.066-.527-.551-.665-.766-.262.049-.023.888-.374.783-.173-.051 0-.291-.034-.477-.032-.163-.192-.2-.2-.324-.01-.105.116-.216.153-.324.054-.154.02-.452.2-.46.091 0 .213.191.273.2.203.049.444-.202.732-.149z" class="prefix__cls-2" data-name="パス 824" transform="translate(-253.175 -163.071)"/><path id="prefix__パス_825" d="M328.038 193.636c-.063.129-.413.067-.443-.051.059-.135.413-.094.443.051z" class="prefix__cls-2" data-name="パス 825" transform="translate(-253.703 -167.532)"/><path id="prefix__パス_826" d="M327.248 194.667a.424.424 0 01-.068.069c-.13-.042-.268-.073-.307-.2.097-.145.371-.029.375.131z" class="prefix__cls-2" data-name="パス 826" transform="translate(-253.238 -168.155)"/><path id="prefix__パス_827" d="M325.024 193.568c-.086.123-.386-.01-.494.119-.177 0-.356-.006-.392-.153.051-.125.213-.039.341-.051.206-.019.491-.163.545.085z" class="prefix__cls-2" data-name="パス 827" transform="translate(-251.473 -167.481)"/><path id="prefix__パス_828" d="M319.066 201.687a3.564 3.564 0 00-.12-.442c-.009-.058.009-.132 0-.2-.011-.105-.063-.193-.051-.256.024-.113.155-.125.188-.222.053-.159-.065-.184-.069-.375 0-.135.1-.2.171-.375.032-.081.033-.232.068-.289s.233-.134.307-.17c.261-.128.471-.366.733-.409.066-.011.157.008.2 0 .154-.027.348-.157.562-.2a1.951 1.951 0 00.545-.12 1.418 1.418 0 00.477-.511c.078-.187.055-.345.2-.409.073-.031.145 0 .222-.017a1.057 1.057 0 00.307-.153c.119-.106.138-.281.272-.392a2.393 2.393 0 01.392-.255.673.673 0 01.272-.069c.24.021.352.356.614.289.093-.023.189-.222.273-.341.123-.174.212-.408.425-.46.172-.042.365.066.46-.085.022-.108-.081-.172 0-.239.2.012.535.281.835.289.162.005.462-.176.494.069.014.108-.121.2-.153.307-.023.078.033.12-.017.2-.139.055-.285.083-.289.238-.005.195.275.286.443.392.115.073.211.184.273.221s.136.045.17.068c.111.072.189.234.341.239.173 0 .346-.217.442-.426a3.5 3.5 0 00.17-.8c.017-.086.078-.17.1-.256.066-.233.155-.548.358-.63a1.356 1.356 0 01.239.989c.136.1.375.069.408.307.012.082-.041.187-.034.272.012.143.118.269.137.392.034.227-.038.414.067.579.133.208.394.2.563.426a.8.8 0 00.085.306c.016.052 0 .137.017.171.055.114.2.125.256.221.026.047.019.136.051.222a2.028 2.028 0 00.238.341 1.528 1.528 0 01.222.341c.034.17-.089.286-.119.426a3.554 3.554 0 01-.067.562 6.282 6.282 0 01-.427.664 2.257 2.257 0 01-.477.6c-.108.086-.235.136-.341.222a4.977 4.977 0 00-.443.46c-.153.162-.34.286-.46.425-.175.2-.262.529-.562.563a1.79 1.79 0 00-.494.069c-.252.1-.419.285-.545.289s-.254-.154-.375-.17-.244.1-.443.1c-.081 0-.122-.048-.238-.085-.244-.077-.511-.074-.545-.341-.019-.145.092-.211.085-.341s-.135-.163-.187-.272a.283.283 0 00-.085-.341.341.341 0 01.069-.238 2.33 2.33 0 00-.341.137c-.124.075-.213.247-.357.221-.135-.047-.031-.181-.051-.289a1.494 1.494 0 00-.29-.494 2.423 2.423 0 00-.579-.222c-.527-.082-.862.2-1.278.239-.107.01-.223-.018-.323 0a2.307 2.307 0 00-.937.511 5.379 5.379 0 00-1.073.034c-.361.105-.568.406-1.124.323-.11-.095-.306-.142-.307-.306 0-.13.192-.214.256-.307a1.2 1.2 0 00.187-.477c0-.113-.076-.249-.069-.391.01-.119.077-.236.076-.349z" class="prefix__cls-2" data-name="パス 828" transform="translate(-247.917 -169.075)"/><path id="prefix__パス_829" d="M316.516 191.718c.093-.013.162-.082.256-.085.2-.008.395.147.63.119.051.055.016.1.018.188.2.106.526.087.63.289-.149.158-.371.045-.562.017-.173-.025-.357-.012-.545-.034-.238-.028-.454-.159-.681-.187-.138-.017-.279.02-.409 0-.153-.024-.724-.239-.733-.391s.257-.2.494-.171c.305.037.509.31.902.255z" class="prefix__cls-2" data-name="パス 829" transform="translate(-245.657 -166.21)"/><path id="prefix__パス_830" d="M318.925 182.954c-.129-.036-.249-.016-.306-.051-.117-.072-.1-.276-.137-.392s-.179-.18-.255-.341c-.111-.232-.159-.753.136-.8.119-.02.241.071.323.051.164-.04.136-.253.273-.341.076-.049.216-.028.324-.068a.731.731 0 00.272-.238c.071-.085.128-.228.222-.289s.2-.071.289-.136c.223-.17.231-.408.409-.614.151-.174.391.167.409.307.085.108.251.135.324.256-.1.3-.384.326-.324.749a1.225 1.225 0 00.1.29c.049.1.193.207.187.272-.011.128-.268.122-.324.256s0 .132-.017.323c-.072.139-.264.173-.324.341-.072.2.011.464-.153.614-.113-.006-.237.1-.374.084s-.292-.218-.529-.222c-.09 0-.2.058-.289.051-.07-.006-.129-.073-.236-.102z" class="prefix__cls-2" data-name="パス 830" transform="translate(-247.606 -158.621)"/><path id="prefix__パス_831" d="M316.653 187.821a.336.336 0 010 .673.336.336 0 010-.673z" class="prefix__cls-2" data-name="パス 831" transform="translate(-246.437 -163.868)"/><path id="prefix__パス_832" d="M309.454 183.444a.708.708 0 01.239.341c-.006.12-.186.114-.239.272-.08.245.036.522-.1.648a.783.783 0 01-.34.034 5 5 0 01-.818-.767 1.9 1.9 0 01-.273-.307c-.088-.163-.12-.342-.221-.494-.089-.134-.254-.229-.341-.375-.071-.12-.078-.277-.153-.392s-.189-.153-.273-.239c-.054-.056-.085-.143-.136-.2-.214-.256-.626-.39-.647-.767.087-.1.177.037.34.069.106.02.23-.009.307.017.155.052.261.294.426.426.092.074.212.125.306.2s.175.206.256.256c.111.068.265.113.409.2.2.125.549.255.6.511.012.063-.03.171-.017.221.024.089.137.128.2.2.084.095.1.237.222.256s.123-.127.253-.11z" class="prefix__cls-2" data-name="パス 832" transform="translate(-239.873 -159.572)"/><path id="prefix__パス_833" d="M292.569 177.517c.147.048.636.643.494.972a.386.386 0 01-.375.187c-.337-.053-.273-.8-.171-1.108a.086.086 0 01.052-.051z" class="prefix__cls-2" data-name="パス 833" transform="translate(-231.029 -157.223)"/><path id="prefix__パス_834" d="M260.346 198.828a.773.773 0 01.222-.444c.157-.116.37-.1.528-.187a1.334 1.334 0 00.409-.307c.082-.106.087-.228.154-.307.046-.055.149-.069.2-.136s.039-.172.12-.238c.237-.1.3.332.341.63a2.154 2.154 0 01.05.238c-.024.136-.174.164-.221.256a2.746 2.746 0 01-.29 1c-.113.265-.179.555-.272.784-.034.083-.105.148-.136.221-.123.29-.168.745-.392.869a1.79 1.79 0 01-.477.119.486.486 0 01-.443-.34 2.472 2.472 0 01-.017-.307 1.452 1.452 0 01-.085-.409c.038-.347.375-.515.392-.8.015-.21-.106-.424-.083-.642z" class="prefix__cls-2" data-name="パス 834" transform="translate(-210.136 -169.913)"/><path id="prefix__パス_835" d="M218.57 125.04c.02.286-.437.25-.494.494-.026.11.053.258.034.358-.035.179-.208.127-.426.222-.112.048-.219.225-.341.238s-.181-.065-.256-.051c-.112.021-.075.158-.239.187-.131.023-.36-.117-.375.051-.01.108.206.167.341.153.107-.01.185-.084.289-.085.2 0 .333.15.46.153.293.008.58-.27.886-.239.138.014.221.112.323.1.164-.016.3-.205.426-.273-.052-.287 0-.665.273-.681.184-.011.46.315.494 0 .015-.137-.145-.258-.255-.256s-.227.194-.307.034c0-.156.175-.115.273-.154.072-.029.124-.108.2-.136.405-.142.967.14 1.124-.2-.359-.307-.972.112-1.38.085a.559.559 0 01-.46-.307c-.018-.053 0-.123-.017-.221s-.072-.223-.068-.29c.017-.308.783-.366.783-.749a.643.643 0 00-.716.034c-.05.054-.048.164-.119.273-.153.233-.646.26-.8.545a.611.611 0 00-.069.341c.046.161.405.205.416.374zm-4.054 16.66a2.544 2.544 0 00-1.329.272 1.929 1.929 0 01-.562.222 3.222 3.222 0 01-.477-.1 2.608 2.608 0 00-.665.034c-.2.035-.372.175-.545.187-.33.025-.645-.3-.852-.46-.127-.1-.256-.18-.375-.272s-.293-.16-.392-.256c-.134-.13-.134-.356-.2-.528-.083-.2-.336-.352-.528-.545-.144-.144-.475-.36-.511-.545-.018-.095.04-.2.034-.307-.009-.15-.121-.234-.119-.341 0-.15.18-.266.222-.392.022-.065.011-.156.034-.238.048-.173.162-.275.136-.528-.01-.1-.1-.193-.1-.324 0-.089.059-.14.051-.222-.013-.146-.2-.174-.222-.34s.165-.315.273-.511c.049-.088.075-.222.119-.289.1-.145.251-.215.324-.358.053-.105.071-.262.119-.34.063-.1.188-.156.307-.289.1-.109.136-.24.2-.289a1.69 1.69 0 01.307-.119 1.345 1.345 0 00.7-.631.706.706 0 01.136-.579 1.061 1.061 0 01.358-.443c.213-.12.413-.132.562-.358a1.059 1.059 0 00.188-.426.473.473 0 00-.323-.409c-.154-.024-.391.117-.477-.051-.027-.054.01-.179 0-.239-.02-.112-.115-.19-.119-.272-.008-.16.157-.326.2-.511a2.2 2.2 0 00-.017-.733c.238-.376.767-.189 1.3-.154.079.006.17-.019.255-.017.313.007.559.1.664-.17a1.807 1.807 0 00.051-.58 1.32 1.32 0 00-.358-.477c-.169-.108-.414-.061-.511-.256.079-.336.456-.056.681-.136.115-.041.1-.24.2-.273.07-.022.159.07.256.069a1.75 1.75 0 00.46-.2c.109-.074.142-.226.238-.289a1.346 1.346 0 01.222-.068 1.284 1.284 0 00.426-.307c.141-.169.2-.378.375-.409.228-.042.745.045.784-.2s-.21-.425-.119-.681c.071-.2.254-.167.511-.289.124.088.088.34.1.494.158 0 .48-.047.511-.187.038-.175-.23-.354-.289-.46s-.077-.317-.2-.341c-.259-.05-.511.358-.835.358a.57.57 0 01-.494-.324 1.384 1.384 0 01-.017-.273 1.218 1.218 0 01-.068-.477c.13-.224.431-.26.647-.375.082-.043.147-.136.238-.17.153-.056.379 0 .528-.085.095-.054.068-.147.136-.256.043-.069.147-.108.2-.187.04-.055.045-.137.085-.187.148-.184.418-.252.528-.443.049-.084-.084-.116-.051-.239.055-.119.267-.032.391-.051.169-.026.326-.232.511-.272a3.99 3.99 0 00.58-.085c.107-.042.206-.138.307-.154.036-.005.136.02.187.017s.135-.043.222-.051c.125-.012.281.031.443.034a2.029 2.029 0 01.75.017c.117.051.1.184.255.238.076.027.177-.011.29 0 .167.016.341.131.562.153.079.008.16-.01.238 0a4.183 4.183 0 01.75.238c.2.067.623.152.63.341.01.224-.368.289-.528.289-.268 0-.623-.157-.9-.068a.712.712 0 00.8.63c.033-.181-.215-.081-.187-.256.17-.128.373.086.614.051.094-.025.078-.161.1-.256a.8.8 0 01.767-.17.152.152 0 01.069-.068c.02-.187-.2-.285-.085-.46.059-.121.377-.079.426.017.025.115-.079.1-.069.2a.274.274 0 00.273.153c.167-.009.2-.159.358-.239.064-.032.157-.036.238-.068.1-.038.178-.116.256-.136.057-.015.142 0 .222-.017.1-.022.207-.1.289-.1.1 0 .176.119.307.136.071.01.152-.04.256-.051.083-.009.17.01.238 0 .163-.024.274-.109.409-.1.1.005.258.133.323.069.11-.109-.147-.191-.067-.29.261.02.539.014.8.051a11.268 11.268 0 001.107.256c-.033-.236-.3-.169-.426-.272a.991.991 0 01-.187-.358 2.048 2.048 0 01.238-.409.681.681 0 01.783.051c.1.131.065.328.2.324.12 0 .185-.3.324-.307.115-.006.174.19.289.188.141 0 .239-.266.426-.273.1 0 .134.051.289.068.107-.069-.035-.159.017-.256.19-.138.626-.033.869-.119.068-.081-.087-.138-.017-.222a2.536 2.536 0 01.92-.221c.218-.038.425-.189.6-.2s.35.105.511.1a.955.955 0 00.307-.068c.1-.037.161-.13.256-.153a4.62 4.62 0 01.511 0 2.358 2.358 0 01.477-.068c.124.02.223.152.341.17.359.056.729-.054 1.056.034.059.016.118.077.188.1.219.08.368.055.409.324.172.061.273.219.477.273a1.727 1.727 0 00.426-.017 4.765 4.765 0 01.63.034c.1.015.178.087.273.1.069.011.16-.007.238 0 .107.01.2.054.289.051.179-.006.314-.165.46-.187a1.192 1.192 0 01.256.034 7.65 7.65 0 01.852.017 1.687 1.687 0 01.477.272c.1.076.161.2.255.255a.938.938 0 00.409.136c.109-.017.114-.138.221-.187.338-.075.938.108 1.21-.017.105-.049.085-.16.17-.222.511-.025 1.021.021 1.5.034a3.866 3.866 0 01.494-.017c.169.029.292.2.46.256.112.038.309.018.477.051.113.022.206.09.289.1a2.33 2.33 0 00.529-.034 2.98 2.98 0 011.278.1c.2.082.291.248.511.272.315.035.8-.026 1.125 0a2.041 2.041 0 00.2.034c.108-.008.174-.1.307-.1.169 0 .437.263.682.222.105-.071-.085-.171.016-.239s.227 0 .375 0c.081 0 .179-.041.256-.034.187.016.365.185.6.238a2.127 2.127 0 00.665.034 1.83 1.83 0 01.46-.051 2.345 2.345 0 01.221.085c.073.018.144 0 .2.017s.113.069.171.085c.316.091.738.135 1.074.239a2.716 2.716 0 00.562.187c.081 0 .152-.035.256-.034.515 0 1.12.218 1.073.7-.6.132-1.106-.415-1.738-.255a.272.272 0 00-.2.238c.023.3.771.272.834.562-.122.092-.256 0-.358.017a1.242 1.242 0 00-.511.272c-.115.108-.216.385-.341.409-.152.03-.385-.15-.614-.1-.084.018-.164.122-.238.136-.188.036-.427-.1-.545.119.062.156.024.373.153.46.083.057.187.013.289.051.12.045.186.191.289.273.085.067.175.069.222.153.011.126-.05.14-.034.222.027.143.25.175.256.272.008.123-.141.1-.17.222-.011.079.092.1.1.2.007.07-.056.142-.051.222.007.114.1.189.085.289a.265.265 0 01-.154.188c-.326-.21-.62-.5-.971-.767s-.929-.614-.988-1.192c0-.089.188-.158.221-.289.013-.054-.021-.13-.017-.2.012-.2.177-.392.171-.511a.717.717 0 00-.375-.409c-.1.052 0 .155-.017.239a.337.337 0 01-.256.238c-.322.028-.358-.415-.869-.289a.431.431 0 00-.272.477c.014.075.219.154.2.256s-.464.127-.562.119c-.275-.022-.416-.228-.664-.222-.122 0-.228.1-.324.119-.537.1-1.333-.264-1.516.2-.026.066-.012.153-.034.222a2.386 2.386 0 01-.136.239c-.021.053-.017.156-.051.238s-.353.365-.068.443c.068.018.1-.029.188-.017.146.02.39.255.562.255.1 0 .245-.116.323-.119a.788.788 0 01.392.153 1.306 1.306 0 00.375.17c.161-.008.084-.12.238-.17.295.087.433.4.715.647.1.089.254.167.392.289.077.069.314.254.324.341s-.066.116-.086.188c-.028.1.037.18-.034.256-.272-.1-.333-.369-.528-.6-.072-.085-.145-.185-.255-.307-.05-.055-.23-.246-.341-.2-.214.081.118.406.17.477a1.191 1.191 0 01.273.511c.006.1-.066.286-.069.46 0 .118.029.224.017.324a2.2 2.2 0 01-.12.324c-.04.125-.049.274-.085.358a.643.643 0 01-.444.341c-.141.006-.2-.109-.341-.1-.21.01-.248.2-.374.358.011.168.063.225.034.341-.046.181-.3.212-.289.392s.23.2.34.273a2.866 2.866 0 01.563.511.955.955 0 01.222.477c-.013.169-.5.4-.7.341s-.125-.241-.17-.409c-.035-.129-.136-.185-.187-.289-.027-.055-.015-.142-.052-.2-.1-.173-.282-.079-.494-.187-.139-.071-.1-.222-.153-.358-.073-.183-.382-.27-.63-.221-.183.035-.239.189-.409.221-.25-.148.051-.513-.255-.545-.235-.025-.391.337-.528.443-.093.071-.261.086-.272.187-.02.188.2.15.374.222.16.065.178.246.324.255.122.008.2-.126.323-.136a.847.847 0 01.511.153c-.085.206-.544.358-.545.63 0 .158.183.185.324.289.119.088.276.337.443.511.072.075.189.124.222.17.079.113.066.25.153.324.015.093-.043.116-.034.2.042.123.23.1.273.222-.035.294.087.57-.153.681a1.94 1.94 0 01-.6 1.227 3.462 3.462 0 01-1.142.46c-.1.033-.182.139-.272.17-.227.077-.63.03-.647.307-.01.136.173.219.187.358a.44.44 0 01-.307.443c-.1.011-.312-.058-.324-.239-.013-.2.252-.286.273-.409a.4.4 0 00-.443-.409c-.225.017-.737.468-.749.716-.01.185.366.569.494.681.478.422.987.675.9 1.7-.119.261-.425.316-.664.46-.182.109-.273.448-.58.477-.123-.042-.051-.234-.085-.324-.047-.122-.29-.182-.443-.307-.125-.1-.177-.264-.273-.358a1.8 1.8 0 00-.443-.222c-.092-.05-.163-.225-.256-.221-.15.006-.1.151-.136.391s-.211.419-.154.7c.024.114.167.207.238.324.118.193.135.418.256.528.08.073.216.088.307.153a2.12 2.12 0 01.563.563c.074.179 0 .391.051.58.057.218.342.374.171.6a1.385 1.385 0 01-.444-.222 1.364 1.364 0 01-.494-.511 1.592 1.592 0 01-.136-.2c-.059-.153-.047-.326-.1-.511a1.585 1.585 0 00-.375-.545c-.12-.113-.332-.179-.341-.341-.012-.229.077-.5.069-.767 0-.058-.042-.116-.051-.187-.018-.131.013-.291-.017-.409a1.954 1.954 0 00-.153-.306 3.279 3.279 0 01-.136-.324c-.069-.2-.147-.577-.307-.6s-.339.32-.562.324a.31.31 0 01-.289-.2c-.022-.1.054-.21.051-.324-.006-.228-.169-.317-.29-.477-.049-.065-.062-.156-.1-.2-.077-.092-.226-.144-.324-.238a1.35 1.35 0 01-.239-.307c-.066-.134-.087-.306-.187-.324s-.207.121-.307.153a2.839 2.839 0 01-.46.085c-.342.024-.619-.067-.579.341-.053.183-.247.185-.375.272a4.677 4.677 0 00-.46.511c-.087.087-.212.141-.289.222s-.085.175-.154.239c-.182.172-.454.186-.578.426-.007.283.134.5.1.766-.015.123-.106.232-.12.358-.011.108.045.225.017.341-.015.062-.084.094-.137.17s-.066.158-.1.2c-.058.074-.152.125-.205.188-.086.1-.1.175-.187.188-.373.054-.466-.657-.63-.954-.076-.137-.231-.26-.307-.426a6.069 6.069 0 00-.239-.647 4.222 4.222 0 01-.323-.562c-.061-.162-.113-.365-.17-.545a2.927 2.927 0 01-.136-.579c-.014-.221.043-.358-.136-.443-.164.039-.238.2-.426.2s-.67-.315-.528-.6c-.119-.169-.419-.261-.648-.46-.131-.114-.249-.386-.477-.409a1.2 1.2 0 00-.2.034c-.144.012-.4-.013-.562 0a3.614 3.614 0 01-.716.034c-.167-.018-.374-.05-.545-.068a1.272 1.272 0 01-.63-.187c-.076-.07-.106-.293-.239-.323-.158-.037-.245.086-.391.119a.99.99 0 01-.784-.2c-.15-.1-.286-.151-.392-.222-.259-.173-.305-.695-.7-.7-.137 0-.354.085-.375.239-.013.108.13.31.188.392.191.269.542.37.647.732.071.027.215-.062.289.017.066.155 0 .444.153.511.708.117.91-.271 1.227-.545.184.12.123.225.187.358a.565.565 0 00.289.29c.086.033.2 0 .324.051.081.031.416.348.427.46a1.624 1.624 0 01-.29.528c-.067.085-.172.128-.2.2-.024.059-.016.184-.034.222-.031.068-.184.157-.273.238a3.466 3.466 0 01-.289.222c-.108.083-.174.2-.289.239-.227.083-.443.048-.63.17-.123.08-.124.261-.272.358s-.422.1-.648.2c-.145.066-.232.194-.357.238-.051.018-.115 0-.171.017-.113.029-.218.109-.324.136-.084.022-.173.011-.256.034-.262.076-.5.342-.767.187-.124-.287-.145-.648-.289-.9-.074-.13-.219-.17-.272-.307-.007-.11.125-.079.136-.17-.043-.184-.217-.27-.323-.426-.052-.076-.076-.185-.136-.272-.2-.3-.6-.449-.682-.818-.021-.1 0-.179-.017-.256a.97.97 0 00-.2-.358c-.065-.076-.2-.127-.272-.239-.049-.074-.06-.177-.1-.255a2.824 2.824 0 00-.681-.818c-.139.02-.288.03-.358.12a2.619 2.619 0 00.289.6 3.433 3.433 0 01.323.545c.027.071.022.164.051.238.107.27.444.353.511.665.045.209-.01.353.051.562s.354.319.477.511a3.935 3.935 0 01.17.528c.1.218.387.313.6.46a5.106 5.106 0 01.477.477c.091.083.217.1.239.188.029.115-.049.154-.069.255.131.136.258.388.477.409.09.009.2-.082.341-.1.069-.01.147.011.2 0 .091-.016.17-.1.273-.119.174-.037.376-.022.6-.051s.352-.2.511-.153c.175.192.049.411 0 .6-.017.065-.017.133-.033.188a8.962 8.962 0 01-.444.8c-.034.083-.028.186-.067.272a3.426 3.426 0 01-.6.767 3.348 3.348 0 01-.341.341c-.122.1-.272.155-.409.256a3.677 3.677 0 00-.749.75c-.075.1-.11.22-.187.307-.111.124-.283.185-.375.307a3.453 3.453 0 00-.2.443c-.094.195-.289.327-.255.6.013.1.105.167.136.273a1.144 1.144 0 01-.017.528 1.685 1.685 0 00.341.647c.021.345-.028.679 0 .971.018.186.09.323.017.494a1.6 1.6 0 01-.46.511c-.161.1-.407.131-.58.256-.12.087-.219.239-.341.341-.2.167-.476.324-.494.494a1.22 1.22 0 00.1.34 1.478 1.478 0 01.017.886c-.124.295-.748.234-.818.545-.021.095.042.17.034.273a2.305 2.305 0 01-.17.494c-.075.141-.246.2-.358.324-.14.151-.21.37-.358.528a5.136 5.136 0 01-.733.63 2.141 2.141 0 01-.988.358c-.207.015-.429-.049-.647-.017-.08.011-.167.085-.273.1-.061.01-.124-.011-.187 0-.107.018-.207.1-.307.1a.6.6 0 01-.511-.528c0-.1.086-.2.085-.29 0-.109-.135-.245-.239-.443s-.138-.406-.238-.561-.246-.245-.323-.375a2.469 2.469 0 01-.222-.886c-.017-.1-.087-.213-.1-.341a3.918 3.918 0 00-.017-.46 2.3 2.3 0 00-.2-.324c-.12-.221-.2-.51-.306-.681s-.289-.328-.307-.511a2.533 2.533 0 01.034-.477c.018-.12.107-.214.136-.34.02-.084 0-.18.017-.273.087-.39.516-.532.46-1.005-.024-.2-.166-.3-.187-.528-.01-.107.053-.2.051-.307a1.594 1.594 0 00-.187-.494 3.905 3.905 0 00-.528-1c-.136-.156-.314-.265-.426-.409a1.078 1.078 0 01-.2-.426c0-.1.075-.158.1-.256.036-.126.038-.364.085-.562a1.456 1.456 0 00.1-.46.71.71 0 00-.409-.46c-.238-.059-.483.076-.783.051-.273-.184-.254-.613-.627-.67zm9.421 6.1c.079-.125.178-.477 0-.562h-.037c-.073.143-.154.484.037.562zm-.239-3.561c.058-.118.193-.243.17-.391-.049-.328-.663-.167-.732.068-.047.158.028.283-.034.443.067.126.235.151.443.136.115-.049.101-.146.155-.255zM222.659 146c.067-.125-.108-.207-.136-.341-.034-.157.038-.342-.1-.426h-.051c-.126.275.049.736.287.767zm11.619-16.918c-.064-.129-.248.038-.17.154.116.003.157-.064.17-.158zm-3.969.7c.276-.053 0-.495-.2-.443-.276.061.012.474.2.437zm-1.261 2.2c.085-.591-.375-.635-.46-1.056.039.005.019-.049.051-.051.112-.054.281.086.34-.051 0-.2-.255-.352-.511-.256-.074-.051-.084-.166-.1-.273-.193-.115-.671-.366-.665-.6.006-.189.25-.3.528-.289.118-.089.042-.363-.068-.426a1.028 1.028 0 00-.954.17c-.134.1-.283.163-.358.222a.438.438 0 00-.153.272c.011.105.162.167.222.307.031.072.024.162.051.222.075.164.265.271.409.409.1.1.386.309.392.426.005.1-.087.119-.119.222a1.273 1.273 0 00-.051.426c.037.187.231.194.408.273a1.552 1.552 0 00.528.221.72.72 0 00.51-.176zm-4-1.227c.462-.083.251-.474.017-.613-.177-.106-.389-.2-.6-.324-.12-.073-.576-.211-.579-.358s.339-.212.2-.494c-.233-.057-.788.033-.749.289.022.148.2.066.238.222-.167.059-.37.215-.545.188-.209-.033-.262-.289-.375-.443-.162.005-.269-.157-.46-.136s-.307.313-.409.46c-.054.077-.141.118-.17.187-.017.042 0 .109-.017.17-.059.189-.222.258-.2.426.016.147.176.214.188.341-.011.131-.221.063-.2.222.305.252.322-.119.477-.17.125-.042.37.034.528 0 .128-.028.228-.15.375-.2a1.05 1.05 0 01.324-.069c.542-.022.892.33 1.363.341a3.647 3.647 0 00.59-.046zm-1.09 2.01c.01-.183-.07-.321-.085-.579-.315-.19-.549.176-.869.136-.2-.025-.337-.253-.545-.221-.115.017-.172.166-.29.187-.244.045-.354-.195-.613-.1a1.873 1.873 0 01-.614-1.244c-.2-.261-.5-.049-.647.119-.09 0-.2-.049-.221.051-.067.315.445.348.443.562 0 .139-.2.126-.289.221s-.032.191-.153.256c-.336.04-.447-.143-.443-.443-.145-.22-.328-.381-.46-.562a.692.692 0 01-.136-.273c-.012-.08.038-.181.017-.272-.037-.163-.34-.285-.528-.375a3.105 3.105 0 01-.6-.307c-.1-.085-.149-.233-.238-.289s-.171-.038-.239-.085c-.093-.065-.078-.174-.2-.2-.064-.024-.163.064-.2.12-.083.372.219.4.358.562.1.113.142.283.239.358s.243.065.375.119c.091.037.151.151.238.2.163.1.424.116.443.307-.1.069-.33-.1-.409.069-.02.11.088.167.085.272a.353.353 0 01-.358.324c-.017-.1.089-.181.085-.29-.007-.217-.443-.548-.664-.647-.1-.047-.23-.049-.324-.1a2.44 2.44 0 01-.562-.46c-.122-.162-.226-.46-.494-.443-.109.007-.2.107-.289.154a2.457 2.457 0 00-.256.136.6.6 0 01-.273.136c-.214.009-.4-.159-.579-.119a.488.488 0 00-.187.136 2.288 2.288 0 01.017.272c-.055.1-.22.09-.341.154a2.359 2.359 0 00-.477.426c-.092.091-.176.167-.187.238-.009.056.048.163.034.239a.811.811 0 01-.273.324c-.06.041-.14.047-.2.085-.134.08-.195.183-.307.2-.3.055-.839-.06-.835.256 0 .211.287.212.46.2a5.142 5.142 0 00.579.017 2.393 2.393 0 00.289-.17c.061-.027.124-.028.17-.051.1-.051.16-.134.239-.17a2.127 2.127 0 01.613-.136c.23-.014.47.024.767 0 .106-.008.21-.076.324-.085.185-.015.429.073.579.069.1 0 .219-.1.341-.1a.349.349 0 01.307.188c.014.05-.029.13-.017.2.02.124.126.175.12.255-.009.107-.275.249-.239.375.024.081.214.165.307.222a1.109 1.109 0 00.375.153c.1.011.181-.027.273-.017a1.337 1.337 0 01.477.17c.16.113.138.293.323.358.079.028.222.012.324.034.248.054.432.26.614.238.285-.033.155-.3.188-.494.073-.435.922-.415 1.09-.12.124.033.233.005.375.051.082.027.143.116.222.136.059.015.146-.009.222 0 .327.037.623.28.9.238.178-.026.307-.194.477-.2.326-.02.535.243.886.119.259-.091.2-.359.289-.63.047-.196.166-.325.173-.467zm18.366-5.81a.61.61 0 00-.17-.579c-.2.034-.055.238-.068.358-.019.169-.2.287-.187.46-.065.077-.177.107-.187.238.108.075.156-.059.238-.136.125-.129.324-.201.37-.348zm-4.464-5.912a.65.65 0 00-.375.136c-.064.034-.195.053-.153.153.16-.026.485-.1.524-.295zm-7.189 2.1a.354.354 0 00.324-.614c-.062-.059-.271-.083-.357-.221-.1-.167-.09-.389-.341-.341 0 .02 0 .048-.017.051-.023.373.519.466.511.767-.009.147-.176.164-.124.347z" class="prefix__cls-2" data-name="パス 835" transform="translate(-176.572 -120.368)"/><path id="prefix__パス_836" d="M256.052 126.1c-.049-.184.3-.154.239.017-.055.051-.204.047-.239-.017z" class="prefix__cls-2" data-name="パス 836" transform="translate(-207.563 -123.984)"/><path id="prefix__パス_837" d="M250.161 154.766c.008-.141.329-.193.391-.068-.021.137-.325.231-.391.068z" class="prefix__cls-2" data-name="パス 837" transform="translate(-203.767 -142.462)"/><path id="prefix__パス_838" d="M233.7 152.283c.178-.144.573-.047.818-.051-.046.13-.053.3-.153.375a.918.918 0 01-.665-.324z" class="prefix__cls-2" data-name="パス 838" transform="translate(-193.154 -140.899)"/><path id="prefix__パス_839" d="M230.172 149.664c.234-.244.48-.115.392.358-.056.141-.3.329-.409.12a1.8 1.8 0 00.017-.478z" class="prefix__cls-2" data-name="パス 839" transform="translate(-190.865 -139.183)"/><path id="prefix__パス_840" d="M230.75 148.259a.226.226 0 01-.119.256c-.224-.04-.053-.443.119-.256z" class="prefix__cls-2" data-name="パス 840" transform="translate(-191.103 -138.323)"/><path id="prefix__パス_841" d="M220.581 135.822a.288.288 0 00-.154-.273c-.056-.032-.142-.017-.2-.051-.166-.091-.226-.281-.324-.323.012-.187-.051-.322 0-.443a1.008 1.008 0 01.375-.324c.149-.053.3-.006.392-.119a.111.111 0 01.085.017c0 .108-.091.125-.1.222.021.155.294.058.324.2-.026.159-.169.191-.17.307s.206.293.307.426c.075.1.206.172.273.273s.071.193.119.238c.089.085.292.1.307.222.02.163-.2.227-.17.409-.234.184-.624.089-1.005.136-.173.022-.363.194-.545.051-.042-.114.151-.13.17-.238-.014-.1-.141-.087-.17-.17.049-.132.2-.159.188-.358.086-.101.269-.062.298-.202z" class="prefix__cls-2" data-name="パス 841" transform="translate(-184.238 -129.344)"/><path id="prefix__パス_842" d="M217.049 137.342c.228-.139.625-.033.647.136.017.128-.121.146-.17.289s.009.285-.051.375-.194.073-.29.1c-.214.064-.628.316-.8.034.025-.151.171-.181.222-.306 0-.1-.1-.151-.085-.255.021-.129.118-.085.256-.136.099-.037.142-.158.271-.237z" class="prefix__cls-2" data-name="パス 842" transform="translate(-181.984 -131.273)"/><path id="prefix__パス_843" d="M184.588 126.895c.036.151-.448.349-.494.154-.037-.157.371-.349.494-.154z" class="prefix__cls-2" data-name="パス 843" transform="translate(-161.159 -124.523)"/><path id="prefix__パス_844" d="M183.442 235.146h-.256a.4.4 0 01.256 0z" class="prefix__cls-2" data-name="パス 844" transform="translate(-160.575 -194.373)"/><path id="prefix__パス_845" d="M181.747 123.61a.083.083 0 01.1 0c-.017.04-.03.083-.1.068z" class="prefix__cls-2" data-name="パス 845" transform="translate(-159.647 -122.447)"/><path id="prefix__パス_846" d="M176.794 131.1c0 .094-.338.249-.375.068a.134.134 0 01.069-.136c.09-.06.302-.032.306.068z" class="prefix__cls-2" data-name="パス 846" transform="translate(-156.21 -127.225)"/><path id="prefix__パス_847" d="M157.307 175.726c-.009.025-.025.043-.034.069-.181-.007-.018-.239.034-.069z" class="prefix__cls-2" data-name="パス 847" transform="translate(-143.811 -156.028)"/><path id="prefix__パス_848" d="M138.037 142.275c.12-.07.234.105.154.188-.132.025-.166-.126-.154-.188z" class="prefix__cls-2" data-name="パス 848" transform="translate(-131.458 -134.485)"/><path id="prefix__パス_849" d="M144.664 130.016c-.08-.02-.188-.016-.289-.034s-.19-.041-.272-.051c-.21-.025-.438.036-.562-.085a5.538 5.538 0 01.733-.767c.077-.069.244-.116.2-.256-.145-.127-.323.008-.46.085a1.567 1.567 0 01-.477.222c-.282.042-.656-.083-.886.068-.032.129.262.079.221.273a.34.34 0 01-.306-.051c-.079-.071-.034-.179-.085-.222a1.056 1.056 0 00-.562-.068.4.4 0 00-.358.289c.215.1.57-.1.647.153-.118.212-.4.329-.358.613a.384.384 0 00.239.273c.094.016.147-.077.238-.069s.075.119.188.1c.164-.07.255-.3.443-.29.225.274-.2.407-.443.494-.273.1-.627.151-.835.239-.109.045-.521.444-.579.136-.042-.222.2-.158.256-.341a1.428 1.428 0 00-.75.2c-.342.13-.923.212-1.005.6-.016.077.033.221-.017.272a2.859 2.859 0 01-.392.085c-.164.056-.308.177-.409.2-.077.021-.19.015-.238.034-.135.053-.185.236-.341.358-.064.05-.2.086-.256.136-.088.088-.1.308-.255.341-.1.009-.179-.075-.273-.017a2.2 2.2 0 01-.017.733 4.635 4.635 0 01-.681.426c-.143.081-.271.1-.443.188-.122.061-.234.206-.375.289-.325.191-.718.418-.716.9 0 .105.055.218.068.341.008.072-.009.143 0 .222.02.178.149.4 0 .528a2.03 2.03 0 01-.681-.289c-.044-.168.089-.307.069-.46a.555.555 0 00-.29-.358c-.1-.016-.2.094-.306.085-.128-.01-.246-.185-.409-.2-.24-.028-.416.055-.682.017-.257.137-.332.382-.647.358-.111-.008-.212-.093-.341-.119a2.129 2.129 0 00-.494-.068 1.978 1.978 0 00-.749.358c-.22.114-.531.257-.6.494-.036.128-.006.307-.051.426a2.118 2.118 0 01-.136.221 1.713 1.713 0 00-.2 1.312 3.027 3.027 0 00.289.579.943.943 0 00.494.238 2.176 2.176 0 00.392-.085 3.7 3.7 0 00.443-.068c.368-.118.3-.616.664-.784a1.75 1.75 0 01.63-.1.382.382 0 01.12.323c-.01.087-.092.166-.136.29s-.047.236-.085.324c-.051.115-.164.2-.2.307-.027.07-.012.157-.034.221-.039.112-.189.191-.12.307.365.145.806-.041 1.125.017.134.025.411.185.409.392 0 .155-.12.256-.136.426-.021.213-.11.474-.119.647a.94.94 0 00.716.767c.324 0 .513-.322.9-.153.13.056.266.266.409.256.118-.009.3-.215.375-.358.1-.174.1-.321.272-.409s.328-.049.562-.136a1.356 1.356 0 00.289-.17c.083-.057.169-.206.273-.1.136.136-.167.212-.051.358.236.125.357-.233.528-.238a1.191 1.191 0 01.341.17c.133.087.178.21.323.238.093.018.244-.036.375-.017.174.025.277.174.409.17.161 0 .238-.179.375-.2a.452.452 0 01.545.222c.148.026.153-.172.289-.1-.075.148.026.217.085.341.039.079.032.136.069.17.081.077.238.077.358.153a2.081 2.081 0 01.341.392 1.034 1.034 0 00.6.358c.187.012.339-.053.494-.034a1.6 1.6 0 01.818.409c.138.106.262.179.306.306.031.088.016.207.051.307.075.212.385.314.273.681.051.108.166.146.289.222.1.061.183.187.289.2a1.715 1.715 0 00.2-.017 1.59 1.59 0 01.494.154 2 2 0 01.307.1c.086.058.1.254.2.306.07.034.225-.013.341 0 .183.021.431.133.6.137.1 0 .183-.042.272-.034.417.032.654.531 1.057.681.125.047.323.014.409.051.151.065.278.527.289.732.035.619-.441.818-.715 1.227-.057.086-.089.221-.17.341-.163.24-.346.29-.324.733.006.121.068.24.068.375a2.457 2.457 0 01-.051.528c-.028.113-.121.2-.136.307s.031.184.017.273a1.616 1.616 0 01-.187.374c-.157.291-.192.633-.511.749-.187.069-.442.031-.647.1-.083.029-.188.106-.29.153-.3.138-.719.324-.8.63-.073.273.1.49.051.8a2.684 2.684 0 01-.2.289c-.074.1-.11.211-.187.307-.1.128-.262.185-.324.358-.021.059-.008.128-.034.221-.01.034-.073.088-.1.153s-.026.138-.051.188c-.078.157-.309.515-.477.562-.354.1-.727-.15-.971-.1.035.171.159.153.239.273a1.834 1.834 0 00.136.238c.076.088.144.121.153.222a.606.606 0 01-.256.494 1.555 1.555 0 01-.494.136c-.126.021-.451.022-.511.1-.088.118.047.411-.017.528-.127.249-.47-.007-.647.068a.326.326 0 00.136.324c.107.063.27-.019.341.1-.035.169-.217.191-.256.358 0 .163.055.205.034.306-.044.219-.385.21-.375.443.015.349.669.206.681.545.007.206-.187.208-.255.408-.037.108.021.132 0 .222-.028.121-.17.156-.17.289 0 .163.238.343.358.477a1.916 1.916 0 00.426.409c.239.132.6.1.7.341-.033.143-.171.182-.307.221h-.034a.4.4 0 00-.256 0h-.238c-.228-.105-.5-.173-.784-.272-.1-.036-.214-.121-.323-.17-.082-.038-.175-.052-.239-.086-.147-.077-.312-.327-.46-.425-.09-.061-.231-.092-.289-.154a2.533 2.533 0 01-.136-.255c-.055-.078-.156-.135-.222-.222a1.5 1.5 0 01-.323-.58c0-.136.13-.229.085-.357s-.3-.095-.341-.239c-.023-.087.075-.234.068-.357 0-.072-.138-.169-.085-.273.061-.119.177.01.273-.051-.072-.246.006-.642-.239-.716-.126.106.128.344-.085.409-.206-.092-.158-.363-.2-.562a2.142 2.142 0 01-.1-.392 2.1 2.1 0 00.017-.238c-.036-.23-.292-.418-.307-.648-.007-.111.068-.2.085-.324.012-.081-.011-.171 0-.256.015-.108.075-.208.085-.307a2.67 2.67 0 00-.034-.665c-.042-.2-.2-.364-.222-.578-.008-.078.026-.207.017-.307s-.059-.184-.068-.29a1.964 1.964 0 01.034-.307c.018-.214-.042-.452-.034-.665 0-.062.035-.109.034-.17 0-.176-.061-.353-.069-.528a6.124 6.124 0 00-.017-.852 2.984 2.984 0 00-.17-.715 2.232 2.232 0 00-.63-.529c-.119-.066-.262-.089-.392-.153-.277-.136-.815-.424-.937-.7-.035-.08-.031-.185-.069-.273a3.59 3.59 0 00-.341-.494c-.21-.321-.38-.724-.6-1.056a4.229 4.229 0 00-.324-.494c-.07-.079-.295-.153-.323-.273a1.948 1.948 0 01-.136-.494c.025-.163.341-.295.341-.443 0-.126-.169-.2-.2-.307-.086-.261.05-.414.153-.631.034-.071.067-.186.1-.238.063-.094.189-.12.272-.222.047-.057.076-.175.136-.256.13-.172.339-.236.392-.392a3.245 3.245 0 00.017-.971c-.03-.122-.144-.224-.187-.341-.077-.206-.1-.43-.307-.426-.131 0-.223.147-.307.238-.02.121-.01.252-.136.289-.194.057-.268-.2-.494-.272-.09-.027-.233-.026-.289-.051-.165-.074-.218-.315-.392-.409-.146-.078-.27-.051-.358-.17a1.335 1.335 0 01-.017-.341c-.187-.109-.345-.517-.562-.613-.144-.064-.365-.058-.545-.119a2.17 2.17 0 00-.239-.085 1.43 1.43 0 01-.306-.069c-.337-.167-.519-.71-.937-.7-.178 0-.35.171-.511.17a2.018 2.018 0 01-.631-.222c-.209-.1-.441-.15-.613-.238-.139-.071-.236-.2-.358-.256-.093-.041-.23-.049-.306-.085a3.381 3.381 0 01-.358-.256c-.129-.089-.268-.225-.273-.34-.006-.133.123-.247.136-.375a1.328 1.328 0 00-.443-.937c-.139-.178-.3-.329-.443-.494a1.217 1.217 0 000-.238 3.328 3.328 0 01-.307-.409c-.1-.139-.3-.287-.324-.443-.032-.191.073-.36 0-.545-.121-.309-.549-.169-.494.239.016.112.174.264.222.375s.039.255.085.392.176.244.222.392c.072.233.07.484.136.63.059.13.274.252.153.409-.161.033-.223-.128-.324-.222-.056-.052-.259-.151-.289-.272-.026-.1.064-.235.034-.358-.059-.24-.544-.246-.545-.494 0-.155.2-.174.2-.324s-.224-.3-.273-.443a2.549 2.549 0 01-.068-.511 3.185 3.185 0 00-.034-.494.8.8 0 00-.324-.341c-.149-.083-.268-.049-.341-.17a1.406 1.406 0 01-.119-.443c-.025-.2-.006-.429-.017-.647a3.323 3.323 0 010-.664c.084-.165.238-.246.324-.409.06-.114.069-.254.136-.375a5.553 5.553 0 01.58-.647 3.015 3.015 0 00.494-.733 1.105 1.105 0 00.136-.426c-.022-.164-.331-.3-.307-.494.016-.121.188-.119.239-.238a1.2 1.2 0 00.051-.307 2.8 2.8 0 01-.051-.511c.028-.15.251-.21.136-.375s-.317.088-.443-.017.023-.214.034-.392c0-.071-.041-.152-.034-.2.01-.076.159-.2.119-.256-.092-.117-.2-.413-.392-.511-.25-.126-.521-.041-.869-.1-.213-.038-.315-.237-.511-.221-.121.01-.191.148-.358.221a3 3 0 01-.545.085c-.163.038-.241.15-.409.136-.14-.011-.141-.137-.306-.153a2.709 2.709 0 00-.289.051 3.971 3.971 0 01-1.005-.017 2.9 2.9 0 01-.664-.256c-.2-.094-.578-.209-.562-.358.01-.1.356-.2.494-.238a2.884 2.884 0 01.528-.187c.065 0 .151.04.238.034s.195-.087.307-.1c.238-.033.574.012.545-.222-.181-.143-.918.106-.937-.2-.012-.187.28-.244.494-.289a3.28 3.28 0 01.664-.1c.195.01.45.228.562-.017.054-.174-.066-.32-.1-.46.145-.2.411-.175.614-.2a2.492 2.492 0 00.647-.17 2.486 2.486 0 01.647-.17c.232-.03.456-.118.665-.136a4.793 4.793 0 00.494-.034 1.95 1.95 0 01.46-.1c.107 0 .2.083.306.1s.217-.005.324.017c.082.017.156.073.238.085.129.02.267-.018.392 0s.212.088.323.1c.262.034.563-.014.818.034.1.018.184.066.289.085s.209 0 .307.017c.135.027.249.155.392.17a5.082 5.082 0 00.834-.136 4.828 4.828 0 00.614-.034 3.978 3.978 0 01.545-.119c.093 0 .171.028.255.017s.194-.118.289-.1c.127.02.1.181.239.222.148-.077.3.005.46 0a2.2 2.2 0 01.477-.051c.31.049.744.352.988.188.061-.042.047-.114.1-.222.075-.147.224-.319.188-.528-.342.006-.668.173-1.056.188-.393-.246.105-.4.392-.511.237-.093.424-.3.716-.341a3.346 3.346 0 01.783.085c.165.019.33-.012.426.017.167.05.254.216.392.256.06.017.158.016.238.034.153.035.29.116.443 0 .12.022.134.149.256.17.113-.061.2-.216.375-.256.076-.017.155.013.238 0 .139-.022.324-.211.409-.035-.035.123-.221.141-.324.239s-.233.285-.221.375c.02.163.264.1.272.307-.036.119-.175.066-.289.119s-.144.149-.256.17a4.478 4.478 0 01-.835-.068c-.012.116.132.184.2.221a1.434 1.434 0 00.783.1c.175 0 .377.053.528-.051.1-.065.09-.21.17-.289a.654.654 0 01.46-.17c.077.013.186.105.188.17 0 .155-.219.105-.222.273a.5.5 0 00.545-.239c.015-.105-.124-.166-.119-.272.008-.179.251-.175.222-.358-.117-.092-.239.02-.358 0-.167-.028-.318-.228-.392-.358.074-.092.229-.03.341-.017a.9.9 0 01.681-.273c.115-.011.268-.057.324.051.028.161-.239.258-.187.443.229.057.3-.252.494-.375a1.846 1.846 0 01.323-.136c.105-.04.221-.139.307-.136s.111.08.2.119.194-.024.222.085c-.2.342-.934.146-1.125.494.043.234-.115.456.017.614.095.112.308.036.358.153.067.157-.207.157-.136.341.18.108.395-.1.562-.187s.405-.2.426-.409c-.09-.173-.425-.039-.477-.221-.028-.1.1-.321.136-.358a1.89 1.89 0 011.244-.443c.085.008.17.059.256.069.293.03.639-.126.869 0 .185-.108.407.015.664-.017.2.117.144.366.443.477.081.03.183.009.289.034.079.019.165.112.255.154.129.059.228.045.256.136s-.094.147-.085.239c.074.061.012.152.051.238.074.158.259.146.442.222.129.053.4.215.392.341-.008.084-.259.232-.341.273a1.388 1.388 0 01-.443.153c-.161-.024-.224-.349-.443-.341a.182.182 0 00-.187.188c0 .224.25.232.256.426.007.231-.126.247-.324.391a1.38 1.38 0 00-.443-.153c-.109.13.179.176.085.34a1.4 1.4 0 01-.732-.153 1.467 1.467 0 01-.256-.051c-.1-.056-.125-.222-.2-.307a.708.708 0 00-.426-.238c-.21 0-.515.262-.681.017.115-.39.662-.1 1.022-.238.134-.051.18-.193.29-.256.22-.126.578-.143.545-.392-.017-.125-.192-.124-.289-.187-.134-.087-.235-.394-.426-.409-.1-.008-.169.075-.273.085-.22.021-.466-.089-.664 0-.092.053-.03.138-.1.238-.059.082-.2.106-.256.188s-.052.215-.136.289a1.953 1.953 0 01-.613.2c-.079.027-.179.12-.256.12-.141 0-.2-.189-.358-.12-.014.182.193.256.323.341a.712.712 0 01.341.34c-.138.294-.36-.016-.579-.017-.242 0-.594.46-.8.085.051-.2.27-.23.324-.426-.24.041-.45.244-.733.307-.119.026-.234.02-.341.051-.2.06-.346.211-.562.29-.085.031-.185.022-.273.051a4.548 4.548 0 00-.664.307 3.839 3.839 0 00-.6.358c-.073.063-.262.287-.256.358.009.1.2.135.2.239 0 .063-.11.2-.034.289s.21.016.358.034c.26.032.431.247.63.358a1.751 1.751 0 00.545.2c.234.029.5-.069.528.119s-.22.245-.238.358c.126.167-.086.246-.085.392a.369.369 0 00.272.306.61.61 0 00.494-.341c.085-.2.049-.482.2-.63.794.022 1.465-.36 1.414-1.175a1.107 1.107 0 01-.034-.273c.025-.132.251-.242.221-.409.222-.069.213-.425.443-.477.193-.043.411.136.664.119.083-.006.19-.08.273-.068.167.023.267.228.392.324s.227.058.256.17c-.033.191-.167.2-.154.375a.368.368 0 00.256.29.815.815 0 00.426-.1c.228-.108.423-.433.614-.392.15.033.267.51.289.681s-.025.325-.017.494c.022.287.384.258.562.409.054.045.075.162.12.222.086.115.191.115.2.238.032.294-.267.319-.239.647-.061.128-.217.12-.2.289.02.269.406.063.511.273.057.113-.01.2-.051.358.132.157.131.409-.1.409-.135-.001-.174-.149-.317-.185zm-18.416-.443c.081-.082-.034-.257-.154-.187-.012.062.022.214.153.188zm11.892 1.55c-.071-.069-.3-.049-.46-.034-.111.011-.244.035-.256.119.176.082.659.141.715-.084zm-.886-.289a.209.209 0 00-.068-.358c-.056-.015-.13.041-.222.034s-.193-.1-.272-.1a.408.408 0 00-.324.119c-.005.1.075.118.069.222-.165.118-.078.514.085.528s.262-.437.494-.477c.084-.016.125.046.237.032zm-.238.681c-.242-.086-.466.059-.664.085-.118.016-.334-.024-.307.153.022.145.245.092.375.051a1.627 1.627 0 00.594-.288zm-.75-1.3c.34-.145-.067-.59-.222-.63-.276-.072-.669.2-.988.29-.18.049-.351.053-.392.2.161.267.48-.059.716-.017.119.021.189.184.307.2a3.608 3.608 0 00.578-.037zm-.239.273c-.071-.083-.453.01-.562.085-.075.052-.126.179-.2.273s-.17.172-.238.256-.407.574-.136.63c.115.024.352-.215.375-.307a1.022 1.022 0 01.46-.681c.134-.08.274-.069.3-.251zm-2.13-1.908c.19-.007.319-.569 0-.494-.214.055-.265.509.003.499zm-.92 12.778c.009-.026.025-.043.034-.069-.052-.164-.211.068-.034.074zM125.77 127.1c0-.032-.02-.038-.017-.069-.052 0-.112-.01-.1.051a.071.071 0 00.117.018zm17.906-2.675c.084.01.131-.016.119-.1-.076-.052-.186.018-.119.103zm-1.959-1.669a.083.083 0 00-.1 0v.068c.07.018.083-.024.1-.065zm-6.474 1.312c.057-.037.144-.086.1-.17a3.221 3.221 0 00-.783-.051c-.157-.222-.421-.257-.443.1.318.262.798-.116 1.126.124zm-3.05 1.755c.1-.033.231-.016.255-.12-.08-.064-.161-.15-.255-.153-.124 0-.183.105-.307.17-.144.076-.344.095-.358.222a1.242 1.242 0 00.665-.117zm-.085-1.227c.109-.018.221.031.29-.068-.081-.375-.6-.146-.9-.119a.87.87 0 00-.17.341c.231.062.514-.106.78-.15zm5.111 17.412c.135-.022.1-.331-.068-.256-.124.06-.06.279.068.258z" class="prefix__cls-2" data-name="パス 849" transform="translate(-119.515 -121.597)"/><path id="prefix__パス_850" d="M136.895 135.682c0 .031.021.036.017.069a.071.071 0 01-.119-.017c-.01-.062.05-.053.102-.052z" class="prefix__cls-2" data-name="パス 850" transform="translate(-130.656 -130.243)"/><path id="prefix__パス_851" d="M135.056 138.374a.362.362 0 01-.239.2.421.421 0 01-.085-.085c.007-.157.237-.276.324-.115z" class="prefix__cls-2" data-name="パス 851" transform="translate(-129.328 -131.931)"/></g><ellipse id="prefix__楕円形_176" cx="8.009" cy="7.998" class="prefix__cls-3" data-name="楕円形 176" rx="8.009" ry="7.998" transform="translate(106.219 35.552)"/><ellipse id="prefix__楕円形_177" cx="8.009" cy="7.998" class="prefix__cls-4" data-name="楕円形 177" rx="8.009" ry="7.998" transform="translate(95.779 35.552)"/><g id="prefix__グループ_1578" data-name="グループ 1578" transform="translate(37.683 62.818)"><path id="prefix__長方形_2276" d="M0 0h26.04v3.182H0z" class="prefix__cls-5" data-name="長方形 2276"/><path id="prefix__長方形_2277" d="M0 0h13.249v3.182H0z" class="prefix__cls-5" data-name="長方形 2277" transform="translate(0 20.93)"/><path id="prefix__長方形_2278" d="M0 0h13.249v3.182H0z" class="prefix__cls-5" data-name="長方形 2278" transform="translate(23.899 20.952)"/><path id="prefix__長方形_2279" d="M0 0h13.249v3.182H0z" class="prefix__cls-5" data-name="長方形 2279" transform="translate(46.74 20.969)"/><path id="prefix__長方形_2280" d="M0 0h13.249v3.182H0z" class="prefix__cls-5" data-name="長方形 2280" transform="translate(70.632 20.969)"/><path id="prefix__長方形_2281" d="M0 0h39.13v3.182H0z" class="prefix__cls-5" data-name="長方形 2281" transform="translate(0 11.42)"/></g><path id="prefix__パス_852" d="M138.479 127.649H125.3a1.311 1.311 0 00-1.312 1.31v13.156a1.311 1.311 0 001.312 1.31h13.175a1.311 1.311 0 001.312-1.31v-13.156a1.311 1.311 0 00-1.308-1.31z" class="prefix__cls-4" data-name="パス 852" transform="translate(-87.338 -89.696)"/><path id="prefix__パス_853" d="M139.791 132.792v-1.371h-3.8v-3.8h-1.371v3.8h-5.45v-3.8h-1.37v3.8H124v1.371h3.8v5.45H124v1.371h3.8v3.8h1.371v-3.8h5.45v3.8h1.371v-3.8h3.8v-1.371h-3.8v-5.45zm-5.174 5.45h-5.45v-5.45h5.45z" data-name="パス 853" transform="translate(-87.338 -89.676)" fill="#dc8744"/><path id="prefix__パス_854" d="M170.144 237.189l.809 2.664 2.658-.83.809 2.665 2.658-.83.809 2.665 2.658-.83.809 2.665 2.658-.83.809 2.664 2.658-.83.809 2.665 2.658-.83.809 2.664 2.658-.83.809 2.665 2.658-.83.809 2.665 2.658-.83.809 2.665 28.23-53.348-34.668-18.346-28.23 53.348z" data-name="パス 854" transform="translate(-115.386 -126.469)" fill="#ebf0f3"/><g id="prefix__グループ_1579" data-name="グループ 1579" transform="translate(59.383 92.304)"><path id="prefix__長方形_2282" d="M0 0h18.182v1.756H0z" class="prefix__cls-8" data-name="長方形 2282" transform="rotate(-152.115 10.602 8.342)"/><path id="prefix__長方形_2283" d="M0 0h20.182v1.756H0z" class="prefix__cls-8" data-name="長方形 2283" transform="rotate(-152.115 12.359 5.58)"/><path id="prefix__長方形_2284" d="M0 0h13.809v1.756H0z" class="prefix__cls-8" data-name="長方形 2284" transform="rotate(-152.115 9.911 1.792)"/></g><g id="prefix__グループ_1580" data-name="グループ 1580" transform="translate(68.022 86.622)"><path id="prefix__長方形_2285" d="M0 0h13.809v1.756H0z" class="prefix__cls-1" data-name="長方形 2285" transform="rotate(-152.115 7.097 2.49)"/><path id="prefix__長方形_2286" d="M0 0h6.542v1.756H0z" class="prefix__cls-1" data-name="長方形 2286" transform="rotate(-152.115 16.663 4.866)"/></g><g id="prefix__グループ_1581" data-name="グループ 1581" transform="translate(71.399 80.243)"><path id="prefix__長方形_2287" d="M0 0h6.542v1.756H0z" class="prefix__cls-8" data-name="長方形 2287" transform="rotate(-152.115 14.975 11.692)"/><path id="prefix__長方形_2288" d="M0 0h6.542v1.756H0z" class="prefix__cls-8" data-name="長方形 2288" transform="rotate(-152.115 14.232 14.69)"/><path id="prefix__長方形_2289" d="M0 0h6.542v1.756H0z" class="prefix__cls-8" data-name="長方形 2289" transform="rotate(-152.115 13.483 17.695)"/><path id="prefix__長方形_2290" d="M0 0h16.474v1.756H0z" class="prefix__cls-8" data-name="長方形 2290" transform="rotate(-152.115 8.43 2.821)"/></g><path id="prefix__長方形_2291" d="M0 0h32.944v1.756H0z" data-name="長方形 2291" transform="rotate(-152.115 63.049 33.243)" fill="#44c4a1"/><circle id="prefix__楕円形_178" cx="4.616" cy="4.616" r="4.616" class="prefix__cls-3" data-name="楕円形 178" transform="translate(88.408 71.526)"/></g></svg>