<svg xmlns="http://www.w3.org/2000/svg" width="81.014" height="100"><defs><style>.prefix__cls-1{fill:#f7be56}.prefix__cls-5{fill:#ebf0f3}.prefix__cls-7{fill:#3a556a}</style></defs><g id="prefix__support" transform="translate(-44.649 -34.428)"><path id="prefix__パス_727" d="M84.288 49.387c-1.527-.127-2.969 2.22-3.22 5.242s.784 5.575 2.311 5.7 2.969-2.22 3.22-5.242-.784-5.573-2.311-5.7z" class="prefix__cls-1" data-name="パス 727" transform="translate(19.714 9.622)"/><path id="prefix__パス_728" d="M57.216 49.387c1.527-.127 2.969 2.22 3.22 5.242s-.784 5.575-2.311 5.7-2.969-2.22-3.22-5.242.784-5.573 2.311-5.7z" class="prefix__cls-1" data-name="パス 728" transform="translate(8.904 9.622)"/><path id="prefix__パス_729" d="M120.365 84.4q-.2-.589-.431-1.143a18.028 18.028 0 00-12.157-10.273l-16.592-4.391-9.342 6.08-9.343-6.08-16.59 4.393a18.028 18.028 0 00-12.157 10.272q-.23.553-.431 1.143c-1.9 5.607-2.019 22.28-1.98 29.3a3.189 3.189 0 003.194 3.169h74.615a3.189 3.189 0 003.194-3.169c.039-7.02-.079-23.693-1.98-29.301z" data-name="パス 729" transform="translate(3.313 17.56)" fill="#d5d6db"/><path id="prefix__パス_730" d="M63.219 58.72v21.663H81.9V58.72z" class="prefix__cls-1" data-name="パス 730" transform="translate(12.354 13.481)"/><ellipse id="prefix__楕円形_166" cx="18.01" cy="20.231" data-name="楕円形 166" rx="18.01" ry="20.231" transform="translate(67.146 44.25)" fill="#fcd462"/><path id="prefix__パス_731" d="M77.061 78.374l-5.621-4.4-5.5 4.592 3.2 4.874-2.633 31.2h9.853l-2.633-31.2z" data-name="パス 731" transform="translate(13.479 19.783)" fill="#fb5d51"/><path id="prefix__パス_732" d="M79.171 67.573l-9.339 9.047 7.993 6.719L83.13 70z" class="prefix__cls-5" data-name="パス 732" transform="translate(15.087 17.138)"/><path id="prefix__パス_733" d="M64.3 67.573l9.342 9.047-7.756 6.719-5.28-13.283z" class="prefix__cls-5" data-name="パス 733" transform="translate(11.275 17.138)"/><path id="prefix__パス_734" d="M78.585 90.9H97.25v4.252H78.585z" data-name="パス 734" transform="translate(18.703 26.776)" fill="#e1e6e9"/><path id="prefix__パス_735" d="M87.362 54.876v-.018c-.062.659-1.672 16.158-17.3 14.977l-.1 1.328q.891.066 1.724.065c15.284 0 16.982-16.076 17-16.245 0 0 .05-4.359.287-5.75a17.286 17.286 0 00-1.611 5.643z" class="prefix__cls-7" data-name="パス 735" transform="translate(15.142 9.56)"/><path id="prefix__パス_736" d="M70.809 61.939c-2.247 0-4.068 1.356-4.068 3.029S68.562 68 70.809 68s4.069-1.356 4.069-3.029-1.822-3.032-4.069-3.032z" class="prefix__cls-7" data-name="パス 736" transform="translate(13.809 14.81)"/><path id="prefix__パス_737" d="M88.633 35.182c-5.334-1.967-22.6-8.131-28.076 4.852 0 0-4.633-2.229-5.475 4.59S58.2 64.349 58.2 64.79a21.674 21.674 0 00.586 2.437c.1.38 1.59.344 1.579 0 .078-1.588.251-4.375.611-7.653.562-5.114-1.123-7.868 1.825-9.836s8.52 4.721 26.251 3.934a41.062 41.062 0 01.7 4.59c.578 4.106 1.251 3.6 1.469 7.841a1.257 1.257 0 001.245 1.2 1.24 1.24 0 001.218-.975c.474-2.182 1.169-5.575 2.069-10.487 1.829-9.97-1.786-18.692-7.12-20.659z" data-name="パス 737" transform="translate(8.944 2.437)" fill="#4e5366"/></g></svg>