<?xml version="1.0" encoding="utf-8"?>
<!-- Generator: Adobe Illustrator 24.0.3, SVG Export Plug-In . SVG Version: 6.00 Build 0)  -->
<svg version="1.1" id="レイヤー_1" xmlns="http://www.w3.org/2000/svg" xmlns:xlink="http://www.w3.org/1999/xlink" x="0px"
	 y="0px" viewBox="0 0 512 512" style="enable-background:new 0 0 512 512;" xml:space="preserve">
<style type="text/css">
	.st0{fill:#F3BA17;}
</style>
<circle class="st0" cx="256" cy="53.3" r="21.3"/>
<circle class="st0" cx="490.7" cy="160" r="21.3"/>
<circle class="st0" cx="21.3" cy="160" r="21.3"/>
<path class="st0" d="M63.5,394.7h385.1l41.6-187.4c2.6-11.5-4.7-22.9-16.2-25.5c-5.7-1.3-11.6-0.2-16.5,3.1l-107.9,71.9l-74.5-149.1
	c-5.3-10.5-18.1-14.8-28.6-9.5c-4.1,2.1-7.5,5.4-9.5,9.5l-74.5,149.1L54.5,184.9c-9.8-6.5-23-3.9-29.6,5.9
	c-3.2,4.8-4.3,10.8-3.1,16.5L63.5,394.7z"/>
<path class="st0" d="M64,416v42.7c0,11.8,9.6,21.3,21.3,21.3h341.3c11.8,0,21.3-9.6,21.3-21.3V416H64z"/>
</svg>
