<?xml version="1.0" encoding="utf-8"?>
<!-- Generator: Adobe Illustrator 24.0.3, SVG Export Plug-In . SVG Version: 6.00 Build 0)  -->
<svg version="1.1" id="レイヤー_1" focusable="false"
	 xmlns="http://www.w3.org/2000/svg" xmlns:xlink="http://www.w3.org/1999/xlink" x="0px" y="0px" viewBox="0 0 12 12"
	 style="enable-background:new 0 0 12 12;" xml:space="preserve">
<style type="text/css">
	.st0{fill:#2962FF;}
</style>
<path class="st0" d="M4,5.1L3.3,5.8L5.5,8l4.9-4.9L9.7,2.4L5.5,6.6C5.5,6.6,4,5.1,4,5.1z M9.9,6c0,2.1-1.8,3.9-3.9,3.9
	S2.1,8.1,2.1,6S3.9,2.1,6,2.1c0.4,0,0.7,0,1.1,0.1l0.8-0.8C7.3,1.2,6.7,1.1,6,1.1C3.3,1.1,1.1,3.3,1.1,6s2.2,4.9,4.9,4.9
	s4.9-2.2,4.9-4.9H9.9z"/>
</svg>
