<svg xmlns="http://www.w3.org/2000/svg" width="14.6" height="14.65" viewBox="0 0 14.6 14.65">
    <defs>
        <style>
            .cls-1{fill:#7f849c;stroke:#7f849c;stroke-width:.6px}
        </style>
    </defs>
    <g id="customer" transform="translate(.3 .35)">
        <g id="グループ_1504" data-name="グループ 1504" transform="translate(1.167 1.167)">
            <path id="パス_676" d="M7.833 13.667a5.833 5.833 0 1 1 5.833-5.833 5.85 5.85 0 0 1-5.833 5.833zm0-11.083a5.25 5.25 0 1 0 5.25 5.25 5.228 5.228 0 0 0-5.25-5.251z" class="cls-1" data-name="パス 676" transform="translate(-2 -2)"/>
        </g>
        <g id="グループ_1505" data-name="グループ 1505" transform="translate(6.708)">
            <path id="パス_677" fill="#7f849c" stroke="#7f849c" stroke-width="0.7px" d="M11.792 2.917a.276.276 0 0 1-.292-.292V.292a.292.292 0 0 1 .583 0v2.333a.276.276 0 0 1-.291.292z" data-name="パス 677" transform="translate(-11.5)"/>
        </g>
        <g id="グループ_1506" data-name="グループ 1506" transform="translate(6.708)">
            <path id="パス_678" d="M11.792 2.917a.276.276 0 0 1-.292-.292V.292a.292.292 0 0 1 .583 0v2.333a.276.276 0 0 1-.291.292z" class="cls-1" data-name="パス 678" transform="translate(-11.5)"/>
        </g>
        <g id="グループ_1507" data-name="グループ 1507" transform="translate(11.083 6.708)">
            <path id="パス_679" d="M21.625 12.083h-2.333a.292.292 0 1 1 0-.583h2.333a.292.292 0 0 1 0 .583z" class="cls-1" data-name="パス 679" transform="translate(-19 -11.5)"/>
        </g>
        <g id="グループ_1508" data-name="グループ 1508" transform="translate(6.708 11.083)">
            <path id="パス_680" d="M11.792 21.917a.276.276 0 0 1-.292-.292v-2.333a.292.292 0 1 1 .583 0v2.333a.276.276 0 0 1-.291.292z" class="cls-1" data-name="パス 680" transform="translate(-11.5 -19)"/>
        </g>
        <g id="グループ_1509" data-name="グループ 1509" transform="translate(0 6.708)">
            <path id="パス_681" d="M2.625 12.083H.292a.292.292 0 0 1 0-.583h2.333a.292.292 0 0 1 0 .583z" class="cls-1" data-name="パス 681" transform="translate(0 -11.5)"/>
        </g>
        <g id="グループ_1641" data-name="グループ 1641" transform="translate(5.5 5.5)">
            <path id="パス_676-2" fill="#7f849c" stroke="#7f849c" d="M3.5 5A1.5 1.5 0 1 1 5 3.5 1.5 1.5 0 0 1 3.5 5zm0-2.851A1.35 1.35 0 1 0 4.851 3.5 1.345 1.345 0 0 0 3.5 2.15z" data-name="パス 676" transform="translate(-2 -2)"/>
        </g>
    </g>
</svg>
