<svg version="1.1" id="レイヤー_1" xmlns="http://www.w3.org/2000/svg" x="0" y="0" viewBox="0 0 140 140" xml:space="preserve"><style>.st1{fill:#002245}.st2{fill:#e8a181}</style><circle id="prefix__楕円形_52" cx="70" cy="70" r="70" fill="#faf8dc"/><path id="prefix__パス_139" class="st1" d="M50.5 22.2c2.5-2.8 5.6-.8 8.1-.6s3.7-.8 6.3-1.4c2.6-.6 5 1.6 6.3 3.2s3.8 1.6 4.8.5 2.7-3.9 6.3-3.4 4.8 2.9 4.8 5-.5 4.2 1.1 5 5 .8 5.3 2.7.8 4 3.1 4.5 8.4-.3 10.3 4-1.4 7.1-2.9 9.2-1.8 6.6 1 8.4 3.9 4 2.4 7.7c-1.4 3.7.5 5.8 1.8 8s.3 6.3-2.4 7.2-5.6.2-6.8 2.4-1.6 5.6-4.8 5.8-4.8-2.6-7.2-2.3-4 3.6-8 2.7-20.6-6.6-20.6-6.6-4 7.2-8.7 6.8-2.9-2.7-5.3-3.2-4 1.7-7.1.1c-2.2-1.2-.1-3.3-2-4.4s-4-.1-4.4-3.3c-.5-3.7 2.7-5.6 2.4-7.1s-3.6-2.7-3.3-6.9 3.7-5.2 4.7-7.9c1.4-3.9-.2-4.7-1-10.9-.5-4.6 4.2-8.7 7.3-9.2 3.6-.6 5.9-1.5 6.9-4.4s-2.6-7 1.6-11.6z"/><path id="prefix__パス_140" class="st2" d="M98.3 118.4c-2.5 6.7-9.6 20.8-26.6 21.3-20.3.6-27.1-14.3-29.6-22.1 4.8-2.7 9-5.4 10.8-8.6 3.9-6.8 3.2-18.5 3.2-26.7l29.4 2.4s-1.4 13.6 1.4 22.5c1.6 4.9 5.8 7.8 11.4 11.2z"/><path d="M110.9 126.8c-4.5-3.5-8.8-6-12.6-8.4-2.5 6.7-9.6 20.8-26.6 21.3-20.3.6-27.1-14.3-29.6-22.1-3.5 2-8.9 5.6-13.2 8.9C40.4 135 54.6 140 70 140c15.3 0 29.4-4.9 40.9-13.2z" fill="#f4b4b2"/><g id="prefix__グループ_1272" transform="translate(44.119 23.654)"><g id="prefix__グループ_1271"><path id="prefix__パス_142" d="M47.4 44.9c0 14.6-10 26.1-19.6 25.8S7.4 58.8 7.4 44.2s6.7-24.3 20.5-24.1c14.9.3 19.5 10.2 19.5 24.8z" fill="#f4ae87"/></g></g><g id="prefix__グループ_1274" transform="translate(83.217 43.544)"><g id="prefix__グループ_1273"><path id="prefix__パス_143" class="st2" d="M8 20.2s5.3-1.3 5.6 5.7S7.4 32 7.4 32L8 20.2z"/></g></g><g id="prefix__グループ_1276" transform="translate(38.991 43.383)"><g id="prefix__グループ_1275"><path id="prefix__パス_144" class="st2" d="M13 20.2s-5.3-1.3-5.6 5.7 6.2 6.1 6.2 6.1L13 20.2z"/></g></g><g id="prefix__グループ_1278" transform="translate(51.432 45.115)"><g id="prefix__グループ_1277"><path id="prefix__パス_145" class="st1" d="M9.6 21.2c0 .6-.5 1.1-1.1 1.1s-1.1-.5-1.1-1.1c0-.6.5-1.1 1.1-1.1.6 0 1.1.5 1.1 1.1z"/></g></g><g id="prefix__グループ_1280" transform="translate(75.219 44.955)"><g id="prefix__グループ_1279"><circle id="prefix__楕円形_53" class="st1" cx="8.5" cy="21.2" r="1.1"/></g></g><g id="prefix__グループ_1282" transform="translate(60.218 43.767)"><g id="prefix__グループ_1281"><path id="prefix__パス_146" d="M11.7 20.1L7.4 30.2l3.2.9c.7.2 1.4.2 2.1 0L16 30l-4.3-9.9z" fill="#de4e31"/></g></g><path id="prefix__パス_147" class="st1" d="M71.5 77c4.3-.1 7 2.7 8.4 4.7.3.4.2 1-.2 1.2-.2.1-.5.2-.7.1-4.8-1.1-9.7-1-14.5.3-.5.1-1-.2-1.1-.6-.1-.2 0-.5.1-.7 1.6-2.9 4.7-4.8 8-5z"/><path id="prefix__パス_148" class="st1" d="M65.5 92.6c2-1.2 4.3-1.8 6.6-1.9 2.3 0 4.5.7 6.3 2 0 0-2.9 5.6-6.1 5.8s-6.8-5.9-6.8-5.9z"/></svg>