<svg version="1.1" id="レイヤー_1" xmlns="http://www.w3.org/2000/svg" x="0" y="0" viewBox="0 0 140 140" xml:space="preserve"><style>.st2{fill:#e8a181}.st4{fill:#002245}.st5{fill:#de4e31}</style><circle id="prefix__楕円形_23" cx="70" cy="70" r="70" fill="#f3aaa8"/><path d="M120.6 118.3c-9.3-7.6-20.6-14.1-29.5-20.4H51.7c-9.4 6.6-21.5 13.5-31.1 21.7C33.3 132.2 50.7 140 70 140c19.9 0 37.9-8.3 50.6-21.7z" fill="#34be8e"/><path id="prefix__パス_80" class="st2" d="M51.6 71.9l.1 26s9.6 8.5 22 7.8S91.2 98 91.2 98l-2.4-26.3-37.2.2z"/><g id="prefix__グループ_1161" transform="translate(90.373 32.581)"><g id="prefix__グループ_1160"><path id="prefix__パス_81" class="st2" d="M2.5 17.6s5.6-1.4 5.9 6S1.9 30 1.9 30l.6-12.4z"/></g></g><g id="prefix__グループ_1163" transform="translate(39.488 32.508)"><g id="prefix__グループ_1162"><path id="prefix__パス_82" class="st2" d="M7.8 17.6s-5.6-1.4-5.9 6S8.4 30 8.4 30l-.6-12.4z"/></g></g><g id="prefix__グループ_1166" transform="translate(44.718 6.876)"><g id="prefix__グループ_1165"><g id="prefix__グループ_1164"><path id="prefix__パス_83" d="M48.8 51.2c0 17.1-11.7 30.5-23 30.2S1.9 67.4 1.9 50.2.1 18.6 25.3 17.6c21.3-.9 23.5 16.4 23.5 33.6z" fill="#f4ae87"/></g></g></g><path id="prefix__パス_84" class="st4" d="M68.8 17.6c5.6-.7 15.8 6.8 17.4 9.3s5.8 9.2 6.6 15.6c.7 5.3 1 10.6.7 15.9 0 0-2-13-2.4-14.7-.9-3-2.3-5.9-4-8.6-1-1.5-1.7-3.1-2.3-4.9-.5-1.3-1.8-2.1-3.1-1.9-3.2.4-9 1.2-12.2 1.3-3.4.1-9.7-.2-13-.4-1.3-.1-2.4.7-2.9 1.9-.9 2.4-2 4.8-3.3 7-2.7 4.7-3.4 8.7-2.8 12.4s-1.2 7.9-1.2 7.9-.4-8.6 0-15.1 2.5-12.2 6-16.4 11.4-8.6 16.5-9.3z"/><g id="prefix__グループ_1168" transform="translate(54.533 34.563)"><g id="prefix__グループ_1167"><path id="prefix__パス_85" class="st4" d="M4 18.6c0 .6-.5 1-1 1s-1-.5-1-1 .5-1 1-1c.5-.1 1 .4 1 1z"/></g></g><g id="prefix__グループ_1170" transform="translate(79.016 34.121)"><g id="prefix__グループ_1169"><circle id="prefix__楕円形_24" class="st4" cx="2.9" cy="18.6" r="1"/></g></g><g id="prefix__グループ_1172" transform="translate(64.341 34.271)"><g id="prefix__グループ_1171"><path id="prefix__パス_86" class="st5" d="M6 17.5l-4.1 9.6 3 .9c.6.2 1.3.2 2 0l3.1-1-4-9.5z"/></g></g><path id="prefix__パス_87" class="st4" d="M52.8 76.9c4.7 6.8 11.5 11.2 17.8 11.4 6.4.2 13-4.1 17.5-11.1-1.5-3.5-7.4-15.1-17.1-14.6-11.2.5-14.2 7.8-18.2 14.3z"/><g id="prefix__グループ_1175" transform="translate(62.645 49.013)"><g id="prefix__グループ_1174"><g id="prefix__グループ_1173"><path id="prefix__パス_88" d="M1.9 18.4c0 2 2.4 3.6 5.3 3.6s5.3-1.6 5.3-3.5-2.2 0-5.1 0-5.5-2.1-5.5-.1z" fill="#fff"/></g></g></g><g id="prefix__グループ_1177" transform="translate(49.223 40.02)"><g id="prefix__グループ_1176"><circle id="prefix__楕円形_25" class="st5" cx="5.3" cy="20.9" r="3.4"/></g></g><g id="prefix__グループ_1179" transform="translate(79.016 40.02)"><g id="prefix__グループ_1178"><circle id="prefix__楕円形_26" class="st5" cx="5.3" cy="20.9" r="3.4"/></g></g></svg>