<svg version="1.1" id="レイヤー_1" xmlns="http://www.w3.org/2000/svg" x="0" y="0" viewBox="0 0 140 140" xml:space="preserve"><style>.st1{fill:#002245}.st3{fill:#e8a181}</style><circle id="prefix__楕円形_44" cx="70" cy="70" r="70" fill="#2962ff"/><path class="st1" d="M114.6 124c-10.3-7.4-30.4-17.6-32.9-21.7-2.7-4.6-32.7.4-32.7.4-2.4.8-16.9 12.6-25.9 19.3C35.5 133.2 52 140 70 140c16.9 0 32.5-6 44.6-16z"/><path id="prefix__パス_121" d="M47.7 59.4c-1.6-2.8-3.4-12-1.9-17.8s7.6-8.1 7.6-8.1-.1-5 3.2-7.1 9.5-.9 15.5-1.9S84.7 19 86.5 21s-4.1 6.1-4.1 6.1 4.9-3.5 6.1-2.1-1.3 4.1-1.3 4.1 3.3-1.8 3.6.2-5 4.5-5 4.5 5.7 4.8 5.9 11.3S88.1 60 88.1 60l-40.4-.6z" fill="#f3ba18"/><g id="prefix__グループ_1236" transform="translate(40.957 36.457)"><g id="prefix__グループ_1235"><path id="prefix__パス_122" class="st3" d="M8 20.5s-5.1-.3-4.1 6.2 6.7 4.5 6.7 4.5L8 20.5z"/></g></g><path id="prefix__パス_123" class="st3" d="M49.7 56.1c-.4 10.1 1.1 30.6 0 37.6s-1.4 11-1.4 11 9 23.2 18.7 23 15.3-18 15.5-21.6.2-17.8.2-24.3 2-21 2-21l-35-4.7z"/><g id="prefix__グループ_1238" transform="translate(45.671 10.725)"><g id="prefix__グループ_1237"><path id="prefix__パス_124" d="M41.1 45c0 13.7-9.4 24.4-18.3 24.1S3.7 58 3.7 44.3s3.8-24.1 18.9-23.8c19.5.4 18.5 10.9 18.5 24.5z" fill="#f4ae87"/></g></g><g id="prefix__グループ_1240" transform="translate(80.023 37.659)"><g id="prefix__グループ_1239"><path id="prefix__パス_125" class="st3" d="M6.3 20.5s5.1-.3 4.1 6.2-6.7 4.5-6.7 4.5l2.6-10.7z"/></g></g><g id="prefix__グループ_1243" transform="translate(58.088 37.585)"><g id="prefix__グループ_1242"><g id="prefix__グループ_1241"><path id="prefix__パス_126" d="M14.5 23.7c.1-1.6-2.3-3.1-5.3-3.2s-5.5 1.1-5.6 2.7 2.4.1 5.4.3 5.5 1.9 5.5.2z" fill="#fff"/></g></g></g><g id="prefix__グループ_1245" transform="translate(52.908 26.606)"><g id="prefix__グループ_1244"><path id="prefix__パス_127" class="st1" d="M5.8 21.5c0 .6-.5 1.1-1.1 1.1-.6 0-1.1-.5-1.1-1.1 0-.6.5-1 1.1-1.1.7.1 1.1.6 1.1 1.1z"/></g></g><g id="prefix__グループ_1247" transform="translate(73.439 26.907)"><g id="prefix__グループ_1246"><path id="prefix__パス_128" class="st1" d="M5.8 21.5c0 .6-.5 1.1-1.1 1.1-.6 0-1.1-.5-1.1-1.1 0-.6.5-1.1 1.1-1.1.7.1 1.1.6 1.1 1.1z"/></g></g><g id="prefix__グループ_1249" transform="translate(59.843 25.154)"><g id="prefix__グループ_1248"><path id="prefix__パス_129" d="M7.9 20.5l-4.2 8 3.1.7c.7.2 1.3.1 2 0l3.2-.8-4.1-7.9z" fill="#de4e31"/></g></g></svg>