<svg version="1.1" id="レイヤー_1" xmlns="http://www.w3.org/2000/svg" x="0" y="0" viewBox="0 0 140 140" xml:space="preserve"><style>.st3{fill:#e8a181}.st5{fill:#002245}.st6{fill:#de4e31}</style><g id="prefix__グループ_1088" transform="translate(2467.712 1502.167)"><path id="prefix__パス_553" d="M-2397.7-1502.2c38.7 0 70 31.3 70 70s-31.3 70-70 70-70-31.3-70-70 31.3-70 70-70z" fill="#2962ff"/><g id="prefix__グループ_1087"><g id="prefix__グループ_1086" transform="translate(11.979 26.301)"><path d="M-2397.9-1419c-4.4-5.1-31.7-.9-31.7-.9-6.6 3.2-17.9 7.9-25.8 14.3 12.3 10.6 28.3 17.1 45.8 17.1 15 0 28.8-4.7 40.2-12.7-9.2-10.8-24.2-12.7-28.5-17.8z" fill="#f3ba18"/><path id="prefix__パス_28" d="M-2402.2-1500.5s-10-4.1-19.5.8c-10.2 5.3-14.3 18.3-12.4 28.3 0 0-3.5 1.7-4.1 8.1s3.6 10.3 6.5 10.7c-.8 2-1.9 3.9-3.2 5.5-2.3 2.8-4.8 8.1-1.4 12.1s8.7 6.5 14.3 7.5c0 0 33-40.4 33.3-40.7s6.4-12.3 1.8-22.9c-4.9-11.2-15.3-9.4-15.3-9.4z" fill="#34be8e"/><path id="prefix__パス_29" class="st3" d="M-2429.6-1419.8c4.7 3.2 10.2 4.9 15.8 5 5.7 0 11.2-1.2 16.4-3.4 0 0-.4-3.8-.6-8.8-.2-5.5-.1-11.8-.1-11.8-8.8 0-20.2-4-24.6-12.3-1.4-2.6-2.6-4.6-3.6-6-.4 14.2-3.4 37.3-3.3 37.3z"/><path id="prefix__パス_30" d="M-2426.3-1457.2c1 1.5 2.2 3.4 3.6 6 4.4 8.3 11.2 13.9 20.1 13.9 2.1 0 8.6-2.1 11.8-9.4s4.8-26 2.7-32.8c-1.7-5.4-5.1-13.5-14.2-11.5-2.2-1.2-5.7-1.3-9.4-.6-12 2.9-14.3 18.6-14.5 34.3l-.1.1z" fill="#f4ae87"/><g id="prefix__グループ_1078" transform="translate(50.812 33.899)"><g id="prefix__グループ_1077"><path id="prefix__パス_31" class="st5" d="M-2467.7-1501.1c0 .6.5 1 1 1 .6 0 1-.5 1-1 0-.6-.5-1-1-1-.5-.1-1 .4-1 1z"/></g></g><circle id="prefix__楕円形_2" class="st5" cx="-2392.9" cy="-1467" r="1"/><circle id="prefix__楕円形_3" class="st6" cx="-2416.9" cy="-1457.3" r="3.4"/><circle id="prefix__楕円形_4" class="st6" cx="-2392.6" cy="-1457.5" r="3.4"/><g id="prefix__グループ_1081" transform="translate(59.834 50.02)"><g id="prefix__グループ_1080"><g id="prefix__グループ_1079"><path id="prefix__パス_32" d="M-2457.1-1501.3c0 2-2.4 3.6-5.3 3.6s-5.3-1.6-5.3-3.5 2.2 0 5.1 0 5.5-2.1 5.5-.1z" fill="#fff"/></g></g></g><g id="prefix__グループ_1083" transform="translate(36.272 33.772)"><g id="prefix__グループ_1082"><path id="prefix__パス_33" class="st3" d="M-2462.6-1502.1s-4.9-1.2-5.1 5.2 5.7 5.6 5.7 5.6l-.6-10.8z"/></g></g><g id="prefix__グループ_1085" transform="translate(63.408 35.7)"><g id="prefix__グループ_1084"><path id="prefix__パス_34" class="st6" d="M-2467.2-1502.2l-.6 9.9 4.5-.3c.5 0 .8-.4.8-.9 0-.1 0-.2-.1-.4l-4.6-8.3z"/></g></g></g></g></g></svg>