<svg xmlns="http://www.w3.org/2000/svg" width="140" height="140"><defs><clipPath id="prefix__clip-path"><circle id="prefix__楕円形_39" cx="70" cy="70" r="70" class="prefix__cls-1" data-name="楕円形 39"/></clipPath><style>.prefix__cls-1{fill:#f3ba18}.prefix__cls-5{fill:#f4ae87}.prefix__cls-6{fill:#e8a181}.prefix__cls-7{fill:#002245}.prefix__cls-8{fill:#de4e31}</style></defs><g id="prefix__グループ_1216" data-name="グループ 1216" transform="translate(-1735.934 -1316.954)"><g id="prefix__グループ_1215" data-name="グループ 1215" transform="translate(1735.934 1316.954)"><circle id="prefix__楕円形_36" cx="70" cy="70" r="70" class="prefix__cls-1" data-name="楕円形 36"/><g id="prefix__グループ_1214" data-name="グループ 1214"><g id="prefix__グループ_1213" data-name="グループ 1213" transform="translate(13.414 22.544)"><path id="prefix__パス_100" d="M1786.163 1400.45c-1.622.59-.885 11.062-2.654 14.306s-21.387 11.505-25.811 22.566-8.26 40.56-8.26 40.56h118.435s0-32.006-11.652-46.607-24.631-15.339-28.613-19.617-3.244-11.946-5.6-14.9-7.375-2.212-12.241-1.475-23.604 5.167-23.604 5.167z" data-name="パス 100" transform="translate(-1749.438 -1340.015)" fill="#e85f5b"/><path id="prefix__パス_101" d="M1788.98 1407.764c-.1 3.835-.393 9.44-.393 9.44s5.014 8.161 6.785 13.471 3.736 13.667 4.621 13.569 2.852-9.833 4.818-15.143 4.72-9.144 5.212-11.307.983-7.965.983-7.965z" data-name="パス 101" transform="translate(-1749.698 -1340.102)" fill="#faf8dc"/><path id="prefix__パス_102" d="M1788.933 1405.686c0 7.079 9.587 16.912 11.947 18.436 4.031-.442 13.569-18.042 13.569-18.042z" class="prefix__cls-5" data-name="パス 102" transform="translate(-1749.701 -1340.089)"/><g id="prefix__グループ_1197" data-name="グループ 1197" transform="translate(32.016 37.43)"><g id="prefix__グループ_1196" data-name="グループ 1196"><path id="prefix__パス_103" d="M1786.882 1377.438s-4.853-1.305-5.2 5.145 5.589 5.675 5.589 5.675z" class="prefix__cls-6" data-name="パス 103" transform="translate(-1781.668 -1377.33)"/></g></g><path id="prefix__パス_104" d="M1790.976 1359.344c-3.382 5.073-5.654 16.715-5.359 29.1s2.291 20.007 5.6 23.5c3.639 3.834 13.225 7.325 19.862-1.082s9.98-17.994 12.487-27.138 1.109-19.484-3.048-22.516c-5.452-3.978-26.297-6.732-29.542-1.864z" class="prefix__cls-5" data-name="パス 104" transform="translate(-1749.678 -1339.763)"/><g id="prefix__グループ_1199" data-name="グループ 1199" transform="translate(70.852 42.351)"><g id="prefix__グループ_1198" data-name="グループ 1198"><path id="prefix__パス_105" d="M1823.584 1382.285s5.022-.177 3.9 6.184-6.725 4.268-6.725 4.268z" class="prefix__cls-6" data-name="パス 105" transform="translate(-1820.764 -1382.285)"/></g></g><g id="prefix__グループ_1201" data-name="グループ 1201" transform="translate(42.281 38.999)"><g id="prefix__グループ_1200" data-name="グループ 1200"><path id="prefix__パス_106" d="M1794.067 1379.943a1.033 1.033 0 11-1.033-1.033 1.033 1.033 0 011.033 1.033z" class="prefix__cls-7" data-name="パス 106" transform="translate(-1792.002 -1378.91)"/></g></g><g id="prefix__グループ_1203" data-name="グループ 1203" transform="translate(64.895 42.048)"><g id="prefix__グループ_1202" data-name="グループ 1202"><path id="prefix__パス_107" d="M1816.833 1383.011a1.033 1.033 0 11-1.032-1.032 1.033 1.033 0 011.032 1.032z" class="prefix__cls-7" data-name="パス 107" transform="translate(-1814.768 -1381.979)"/></g></g><g id="prefix__グループ_1205" data-name="グループ 1205" transform="translate(47.086 40.88)"><g id="prefix__グループ_1204" data-name="グループ 1204"><path id="prefix__パス_108" d="M1801.753 1380.8l1.5 9.865-4.665.8a1.393 1.393 0 01-1.59-1.954z" class="prefix__cls-8" data-name="パス 108" transform="translate(-1796.839 -1380.803)"/></g></g><g id="prefix__グループ_1207" data-name="グループ 1207" transform="translate(58.406 47.751)"><g id="prefix__グループ_1206" data-name="グループ 1206"><circle id="prefix__楕円形_37" cx="3.392" cy="3.392" r="3.392" class="prefix__cls-8" data-name="楕円形 37"/></g></g><g id="prefix__グループ_1209" data-name="グループ 1209" transform="translate(37.463 44.408)"><g id="prefix__グループ_1208" data-name="グループ 1208"><circle id="prefix__楕円形_38" cx="3.392" cy="3.392" r="3.392" class="prefix__cls-8" data-name="楕円形 38"/></g></g><path id="prefix__パス_109" d="M1785.6 1377.518c-.393-1.672-.2-5.014.393-8.653.849-5.235.984-7.57-.2-10.127s-2.949-5.9-2.359-8.948a6.907 6.907 0 014.129-5.506c2.163-1.082 2.458-2.851 4.916-3.146s4.229.1 7.08 1.474 5.211-2.261 8.948-2.851a9.288 9.288 0 017.965 2.753c1.572 1.475 5.211.59 8.16 2.655s2.36 4.621 5.016 6.293 4.719 3.245 4.523 7.178-2.95 12.586-5.014 16.715-7.228 12.439-7.228 12.439H1821a79.519 79.519 0 002.164-9.193c.646-4.713-2.262-8.013-1.18-14.946-2.507-1.18-7.866-.59-14.7-1.278a73.614 73.614 0 01-15.486-3.146s-.786 3.048-1.819 7.473c-1.029 4.41-2.31 6.538-2.654 8.554-.283 1.657-1.082 8.014-1.082 8.014l-.738-.148z" data-name="パス 109" transform="translate(-1749.663 -1339.649)" fill="#2962ff"/><g id="prefix__グループ_1212" data-name="グループ 1212" transform="translate(44.707 56.064)"><g id="prefix__グループ_1211" data-name="グループ 1211"><g id="prefix__グループ_1210" data-name="グループ 1210"><path id="prefix__パス_110" d="M1794.451 1396.569c-.143 1.241 2.1 2.506 5.018 2.828s5.394-.423 5.537-1.664-2.187-.24-5.1-.562-5.312-1.843-5.455-.602z" data-name="パス 110" transform="translate(-1794.445 -1396.089)" fill="#fff"/></g></g></g></g></g></g></g></svg>