<svg version="1.1" id="レイヤー_1" xmlns="http://www.w3.org/2000/svg" x="0" y="0" viewBox="0 0 140 140" xml:space="preserve"><style>.st2{fill:#e8a181}.st4{fill:#de4e31}.st5{fill:#002245}</style><circle id="prefix__楕円形_10" cx="70" cy="70" r="70" fill="#faf8dc"/><path d="M113.9 124.5c-10-6.4-25.6-10.7-28.5-15.4-3.8-6.2-33.6.1-33.6.1-4.3 4-16.4 8.8-25.8 15.2 12 9.8 27.3 15.6 44 15.6 16.6 0 31.9-5.8 43.9-15.5z" fill="#f3ba18"/><path id="prefix__パス_46" class="st2" d="M51.1 74.4l.7 34.7s6.3 7.2 18.5 6.7 15.1-6.8 15.1-6.8l-1.7-36.4-32.6 1.8z"/><g id="prefix__グループ_1108" transform="translate(79.367 40.261)"><g id="prefix__グループ_1107"><path id="prefix__パス_47" class="st2" d="M9.5 21.3s4.9-1.2 5.1 5.2S9 32.2 9 32.2l.5-10.9z"/></g></g><g id="prefix__グループ_1110" transform="translate(33.129 40.261)"><g id="prefix__グループ_1109"><path id="prefix__パス_48" class="st2" d="M14.1 21.3S9.2 20.1 9 26.5s5.7 5.6 5.7 5.6l-.6-10.8z"/></g></g><g id="prefix__グループ_1112" transform="translate(38.233 14.882)"><g id="prefix__グループ_1111"><path id="prefix__パス_49" d="M50.5 53.3c0 15.1-10.4 27-20.3 26.7S9 67.6 9 52.5s2.5-31 21.2-31.2c21.7-.3 20.3 16.8 20.3 32z" fill="#f4ae87"/></g></g><g id="prefix__グループ_1114" transform="translate(55.73 41.165)"><g id="prefix__グループ_1113"><path id="prefix__パス_50" class="st4" d="M13.1 21.2L9 30.8l3 .9c.6.2 1.3.2 2 0l3.1-1-4-9.5z"/></g></g><g id="prefix__グループ_1116" transform="translate(47.618 39.761)"><g id="prefix__グループ_1115"><path id="prefix__パス_51" class="st5" d="M11.1 22.3c0 .6-.5 1-1 1s-1-.5-1-1 .5-1 1-1c.5-.1 1 .4 1 1z"/></g></g><g id="prefix__グループ_1118" transform="translate(69.938 40.104)"><g id="prefix__グループ_1117"><path id="prefix__パス_52" class="st5" d="M11.1 22.3c0 .6-.5 1-1 1-.6 0-1-.5-1-1 0-.6.5-1 1-1 .5-.1 1 .4 1 1z"/></g></g><path id="prefix__パス_53" class="st5" d="M88.7 68.2v-.6c-.4 2.6-1.1 5.2-2 7.7-1.2 2.9-2.9 5.7-5 8.1-1.3-2.5-3-4.9-4.9-7-2.8-2.7-10.7-3.4-15-1-2.8 1.8-5 4.3-6.3 7.4-1.9-1.7-6.2-7.9-8.1-12.5 1.3 13.8 11.7 24.4 21 24.7 9.9.2 20.3-11.7 20.3-26.8z"/><g id="prefix__グループ_1121" transform="translate(54.255 55.734)"><g id="prefix__グループ_1120"><g id="prefix__グループ_1119"><path id="prefix__パス_54" d="M9 22.1c0 2 2.4 3.6 5.3 3.6s5.3-1.6 5.3-3.5-2.2 0-5.1 0-5.5-2-5.5-.1z" fill="#fff"/></g></g></g><g id="prefix__グループ_1123" transform="translate(42.898 45.906)"><g id="prefix__グループ_1122"><circle id="prefix__楕円形_11" class="st4" cx="12.4" cy="24.6" r="3.4"/></g></g><g id="prefix__グループ_1125" transform="translate(68.561 45.906)"><g id="prefix__グループ_1124"><circle id="prefix__楕円形_12" class="st4" cx="12.4" cy="24.6" r="3.4"/></g></g><path id="prefix__パス_55" class="st5" d="M47.2 67.4s-.1-9.5 3.4-13.1c2.4-2.5 1.9-7 1.9-7s9.4.8 15-.7 15.7-5.2 15.7-5.2-.7 9 2.4 10.6c3.1 1.6 3 15 3 15s5.7-16.3 5.8-17.9-1.7-1.7-2.8 0c.9-1.7 1.6-3.5 2.1-5.4.7-2.7-1.1-2.4-1.9-1.5-.7 1-1.3 2-1.8 3.1.9-1.9 1.5-3.9 2-5.9.7-3.2-.4-3-1-2.7s-2.2 4.2-2.7 4.9c0 0 2.1-5.9.7-8.2s-3.7 2.8-3.7 2.8 1.1-6-2.1-10.1S73.4 20 71.5 22s2.3 2.4 3.6 4.3c.7 1 1.3 2.2 1.6 3.4 0 0-1.4-3.2-6-4.7s-9.5-1-10.8.6c-1.6.1-3.1.6-4.4 1.5-1.4 1.1-2.7 2.4-3.8 3.8-.6-.3-1.4-.3-1.9.1-.7.6-1.2 1.3-1.5 2.1-.7-.3-1.5-.2-2 .4-1 1-1.3 4.1-.7 6.5 0 0-2.4 2-2.2 7s2.9 11.9 3 14.5c.4 2.7.8 5.9.8 5.9z"/></svg>