<svg version="1.1" id="レイヤー_1" xmlns="http://www.w3.org/2000/svg" x="0" y="0" viewBox="0 0 140 140" xml:space="preserve"><style>.st1{fill:#e8a181}.st5{fill:#002245}.st6{fill:#de4e31}</style><circle id="prefix__楕円形_31" cx="70" cy="70" r="70" fill="#f4b4b2"/><path id="prefix__パス_89" class="st1" d="M83.4 80.1c0 5.3 4.5 28.4 8.7 30.2-13.4 4.1-36.1 2.4-44.5.1 2.4-2.7 6.7-6.3 8.2-15.1.9-4.9 1.3-9.8 1.2-14.7l26.4-.5z"/><path d="M115.8 122.9c-7.5-5.8-18.7-8.9-23.4-12.8-3.9-3.2-5.3-10.8-6.3-14.5-.9-3.8-1.5-7.7-1.9-11.7 0 0-9.4 6.8-18.6 9.9C61 95.4 54.5 97 54.5 97s-.6 5.5-7.4 12.5c-5.2 5.4-16.2 7-23.2 13C36.3 133.5 52.4 140 70 140c17.5 0 33.6-6.5 45.8-17.1z" fill="#2962ff"/><path id="prefix__パス_91" d="M49.8 38.6c2.6-7.9 9.1-14.2 21.5-14.2 10-.2 18.9 6.3 21.7 15.9 1.9 7.2 2.8 23.9-6.8 34.5S55.6 81 51.3 68s-3.9-22.3-1.5-29.4z" fill="#e85f5b"/><path id="prefix__パス_92" d="M70.9 36.2c7.7-.4 19.1 9.1 19.8 23.2.5 11.2-1.5 31.4-19.8 31.4S51 71.2 50.7 63.5s4.9-26.4 20.2-27.3z" fill="#f4ae87"/><path id="prefix__パス_93" class="st5" d="M59.2 60.9c0 .6-.5 1-1 1-.6 0-1-.5-1-1 0-.6.5-1 1-1 .5-.1 1 .4 1 1z"/><circle id="prefix__楕円形_32" class="st5" cx="82.4" cy="61.4" r="1"/><circle id="prefix__楕円形_33" class="st6" cx="58.5" cy="69" r="3.4"/><g id="prefix__グループ_1186" transform="translate(65.854 41.002)"><g id="prefix__グループ_1185"><circle id="prefix__楕円形_34" class="st6" cx="17.1" cy="27.8" r="3.4"/></g></g><g id="prefix__グループ_1188" transform="translate(51.768 48.446)"><g id="prefix__グループ_1187"><path id="prefix__パス_94" d="M13.7 25.3c0 2 2.4 3.6 5.3 3.6s5.3-1.6 5.3-3.5-2.2 0-5.1 0-5.5-2.1-5.5-.1z" fill="#fff"/></g></g><g id="prefix__グループ_1190" transform="translate(52.997 35.372)"><g id="prefix__グループ_1189"><path id="prefix__パス_95" class="st6" d="M17.8 24.4L13.7 34l3 .9c.6.2 1.3.2 2 0l3.1-1-4-9.5z"/></g></g><path id="prefix__パス_96" class="st1" d="M50.4 57.5s-4.9-1.1-5 5.3 5.8 5.5 5.8 5.5l-.8-10.8z"/><path id="prefix__パス_97" class="st1" d="M91.2 58.4s4.9-1.1 5 5.3-5.8 5.5-5.8 5.5l.8-10.8z"/></svg>