<svg version="1.1" id="レイヤー_1" xmlns="http://www.w3.org/2000/svg" x="0" y="0" viewBox="0 0 140 140" xml:space="preserve"><style>.st2{fill:#e8a181}.st3{fill:#002245}.st5{fill:#de4e31}</style><circle id="prefix__楕円形_19" cx="70" cy="70" r="70" fill="#34be8e"/><path d="M119 120c-6.7-6.6-17.4-11.1-24.2-15.9-2.5 3-8.8 8.8-20.5 10-14.3 1.4-21.9-3.1-26.9-8.6-6.4 5.3-16 11.8-21.7 18.7 12 9.9 27.5 15.8 44.3 15.8 19.1 0 36.3-7.6 49-20z" fill="#faf8dc"/><path id="prefix__パス_64" class="st2" d="M94.7 104.1c-2.5 3-8.8 8.8-20.5 10-14.3 1.4-21.9-3.1-26.9-8.6 3-2.5 5.2-4.7 6-6.6 2.8-6.6 2-19.9 2.2-24.3l28.6-.6s.8 15.2 4.9 24.2c1 2 3.1 4 5.7 5.9z"/><path id="prefix__パス_65" class="st3" d="M68.4 22.2c6.6-.4 11.7 4.5 15.3 7.9s6.6 7.6 6.2 13.2-.9 10.8-.9 10.8.5 10.9-2.4 11.3-31 .6-32.2.4-2.7-9.7-3.5-11.6-3-8.9-1.6-13.7 4.6-9.2 7.8-12.5 8.7-5.6 11.3-5.8z"/><path id="prefix__パス_66" d="M51 39.9c1.2-4.8 4.8-7.4 13.1-5.8s13.5-.1 16-1.1c3.6-1.4 7.1 1.9 8.4 6.9s-.5 12.9-1.3 17.2-1.2 13.9-2 18-7.7 14.2-14.1 14.5-14.2-10.3-15.4-12.5c-2-3.8-1.4-9.8-2.6-16.1S49.7 45.3 51 39.9z" fill="#f4ae87"/><g id="prefix__グループ_1139" transform="translate(71.399 31.947)"><g id="prefix__グループ_1138"><path id="prefix__パス_67" class="st2" d="M17.5 22.2s5.3-.5 4.5 6.4-6.9 4.9-6.9 4.9l2.4-11.3z"/></g></g><g id="prefix__グループ_1141" transform="translate(31.668 31.947)"><g id="prefix__グループ_1140"><path id="prefix__パス_68" class="st2" d="M19.7 22.2s-5.3-.5-4.5 6.4c.9 6.8 6.9 4.9 6.9 4.9l-2.4-11.3z"/></g></g><g id="prefix__グループ_1143" transform="translate(50.254 33.487)"><g id="prefix__グループ_1142"><path id="prefix__パス_69" class="st5" d="M20.3 22.2l1.6 10.5-5 .9c-.8.2-1.6-.3-1.8-1.1-.1-.3 0-.7.1-1l5.1-9.3z"/></g></g><g id="prefix__グループ_1145" transform="translate(44.487 33.133)"><g id="prefix__グループ_1144"><path id="prefix__パス_70" class="st3" d="M17.3 23.3c0 .6-.5 1.1-1.1 1.1-.6 0-1.1-.5-1.1-1.1 0-.6.5-1.1 1.1-1.1s1.1.5 1.1 1.1z"/></g></g><g id="prefix__グループ_1147" transform="translate(63.318 32.976)"><g id="prefix__グループ_1146"><path id="prefix__パス_71" class="st3" d="M17.3 23.3c0 .6-.5 1.1-1.1 1.1-.6 0-1.1-.5-1.1-1.1 0-.6.5-1.1 1.1-1.1.6 0 1.1.5 1.1 1.1z"/></g></g><path id="prefix__パス_72" d="M85.4 74.5C83 73.1 75 68.4 69.6 68.6c-5.8.2-10.7 5-13.9 8.2 0 .1.1.2.1.3 1.2 2.2 9 12.9 15.4 12.6s13.3-10.4 14.1-14.5c0-.2 0-.4.1-.7z" opacity=".21" fill="#2962ff"/><g id="prefix__グループ_1149" transform="translate(40.194 38.021)"><g id="prefix__グループ_1148"><circle id="prefix__楕円形_20" class="st5" cx="18.7" cy="25.8" r="3"/></g></g><g id="prefix__グループ_1151" transform="translate(62.141 38.626)"><g id="prefix__グループ_1150"><circle id="prefix__楕円形_21" class="st5" cx="18.1" cy="25.2" r="3"/></g></g><g id="prefix__グループ_1154" transform="translate(49.195 50.234)"><g id="prefix__グループ_1153"><g id="prefix__グループ_1152"><path id="prefix__パス_75" d="M15.1 23.1c0 2.1 2.5 3.8 5.6 3.8s5.7-1.7 5.7-3.7-2.3 0-5.5 0-5.8-2.2-5.8-.1z" fill="#fff"/></g></g></g></svg>