<svg xmlns="http://www.w3.org/2000/svg" width="140" height="140"><defs><clipPath id="prefix__clip-path"><circle id="prefix__楕円形_18" cx="70" cy="70" r="70" class="prefix__cls-1" data-name="楕円形 18"/></clipPath><style>.prefix__cls-1{fill:#f4b4b2}.prefix__cls-3{fill:#002245}.prefix__cls-6{fill:#de4e31}.prefix__cls-7{fill:#e8a181}</style></defs><g id="prefix__グループ_1137" data-name="グループ 1137" transform="translate(-2282.126 -1316.954)"><g id="prefix__グループ_1136" data-name="グループ 1136" transform="translate(2282.126 1316.954)"><circle id="prefix__楕円形_14" cx="70" cy="70" r="70" class="prefix__cls-1" data-name="楕円形 14"/><g id="prefix__グループ_1135" data-name="グループ 1135"><g id="prefix__グループ_1134" data-name="グループ 1134" transform="translate(16.765 24.261)"><path id="prefix__パス_56" d="M2351.834 1342.133s-9.292-2.95-16.961 3.539c-8.051 6.812-9.735 14.749-8.7 25.958s.147 22.271-.59 30.531 5.456 27.433 7.817 32.448 41.149 7.817 43.8 1.032 3.392-21.681 2.359-33.185-5.6-18.437-4.866-24.631 2.949-13.274-.148-23.008a18.985 18.985 0 00-15.043-13.274 19.535 19.535 0 00-7.668.59z" class="prefix__cls-3" data-name="パス 56" transform="translate(-2299.179 -1341.378)"/><path id="prefix__パス_57" d="M2351.067 1397.519c9 .147 16.076.737 16.518 4.719s1.328 22.639 1.77 26.622 24.336 6.785 30.088 23.451 3.392 25.295 3.392 25.295H2299s.315-16.468 3.761-25.738c4.277-11.5 26.77-20.574 30.31-23.229.57-.427.242-7.035.442-15.486.156-6.588.182-12.683 2.507-13.716 6.696-2.976 15.047-1.918 15.047-1.918z" data-name="パス 57" transform="translate(-2299.003 -1341.75)" fill="#f3ba18"/><path id="prefix__パス_58" d="M2351.281 1352.234c2.9 2.114 19.321 7.915 19.764 23.156.325 11.2-1.525 31.366-19.813 31.366s-19.914-19.565-20.157-27.237c-.59-18.682 14.65-24.089 20.206-27.285z" data-name="パス 58" transform="translate(-2299.216 -1341.45)" fill="#f4ae87"/><circle id="prefix__楕円形_15" cx="1.032" cy="1.032" r="1.032" class="prefix__cls-3" data-name="楕円形 15" transform="translate(38.274 34.382)"/><path id="prefix__パス_59" d="M2363.948 1377.617a1.032 1.032 0 11-1.032-1.033 1.032 1.032 0 011.032 1.033z" class="prefix__cls-3" data-name="パス 59" transform="translate(-2299.421 -1341.612)"/><circle id="prefix__楕円形_16" cx="3.392" cy="3.392" r="3.392" class="prefix__cls-6" data-name="楕円形 16" transform="translate(36.209 43.158)"/><g id="prefix__グループ_1131" data-name="グループ 1131" transform="translate(60.692 43.232)"><g id="prefix__グループ_1130" data-name="グループ 1130"><circle id="prefix__楕円形_17" cx="3.392" cy="3.392" r="3.392" class="prefix__cls-6" data-name="楕円形 17"/></g></g><g id="prefix__グループ_1133" data-name="グループ 1133" transform="translate(47.542 36.127)"><g id="prefix__グループ_1132" data-name="グループ 1132"><path id="prefix__パス_60" d="M2350.943 1377.747l-4.08 9.587 3.047.892a3.319 3.319 0 001.959-.029l3.106-1.01z" class="prefix__cls-6" data-name="パス 60" transform="translate(-2346.863 -1377.747)"/></g></g><path id="prefix__パス_61" d="M2330.707 1373.661s-4.9-1.119-5 5.339 5.8 5.458 5.8 5.458z" class="prefix__cls-7" data-name="パス 61" transform="translate(-2299.181 -1341.592)"/><path id="prefix__パス_62" d="M2371.793 1374.552s4.9-1.12 5 5.339-5.8 5.457-5.8 5.457z" class="prefix__cls-7" data-name="パス 62" transform="translate(-2299.482 -1341.598)"/></g></g></g></g></svg>