<svg xmlns="http://www.w3.org/2000/svg" width="140" height="140"><defs><clipPath id="prefix__clip-path"><circle id="prefix__楕円形_57" cx="70" cy="70" r="70" class="prefix__cls-1" data-name="楕円形 57"/></clipPath><style>.prefix__cls-1{fill:#34be8e}.prefix__cls-4{fill:#f4ae87}.prefix__cls-7{fill:#de4e31}.prefix__cls-8{fill:#002245}</style></defs><g id="prefix__グループ_1297" data-name="グループ 1297" transform="translate(-2096.539 -1502.167)"><g id="prefix__グループ_1296" data-name="グループ 1296" transform="translate(2096.539 1502.167)"><circle id="prefix__楕円形_55" cx="70" cy="70" r="70" class="prefix__cls-1" data-name="楕円形 55"/><g id="prefix__グループ_1295" data-name="グループ 1295"><g id="prefix__グループ_1294" data-name="グループ 1294" transform="translate(-6.687 20.829)"><path id="prefix__パス_151" d="M2200.012 1658.957c.466 6.54-3.656 10.6-6.429 14.411h-61.005s-.931-17.2-3.721-27.587c0 0 3.951-7.751 3.721-14.494-.211-6.091-2.7-11.235-10.373-19.885q.65-.665 1.3-1.277a24.688 24.688 0 0126.586-5.27s22.789 7.13 26.046 10.233c3.061 2.916 23.735 13.645 26.963 27.675l-7.277 3.638s3.492 2.789 4.189 12.556z" data-name="パス 151" transform="translate(-2090.022 -1523.666)" fill="#fb5d51"/><path id="prefix__パス_152" d="M2128.847 1645.734c-2.687 4.651-15.321 27.691-15.321 27.691h-23.719s22.194-49.5 32.183-61.966c7.676 8.65 10.162 13.794 10.373 19.885.229 6.742-3.516 14.39-3.516 14.39z" class="prefix__cls-4" data-name="パス 152" transform="translate(-2089.807 -1523.722)"/><path id="prefix__パス_153" d="M2203.977 1673.634h-9.916c2.773-3.813 6.895-7.871 6.429-14.411-.7-9.767-4.187-12.557-4.187-12.557l7.277-3.638a16.4 16.4 0 01.4 2.708 231.727 231.727 0 01-.003 27.898z" class="prefix__cls-4" data-name="パス 153" transform="translate(-2090.5 -1523.932)"/><path id="prefix__パス_154" d="M2150.238 1604.391a123.786 123.786 0 003.41-21.543c-2.946-7.131-6.662-14.925-8.57-20.935-5.067-15.955 5.441-26.13 17.453-28.275s19.294 7.2 24.416 23.656c7.472 24-8.65 29.43-8.65 29.43l-2.016 27.9a52.1 52.1 0 01-12.557-2.48 48.541 48.541 0 01-13.486-7.753z" class="prefix__cls-4" data-name="パス 154" transform="translate(-2090.166 -1523.203)"/><path id="prefix__パス_155" d="M2155.187 1566.5s1.811-7.713 1.46-10.033c1.061-1.411 5.757-4.24 4.779-11.759 0 0 18.277.393 23.837-8.4 6.56-10.375-4.8-12.736-8.322-7.584 0 0-.468-5.234-4.961-5.581s-6.82 5.684-6.82 5.684a28.128 28.128 0 00-12.712 4.961c-4.361 3-8.025 7.529-9.818 15.4-3.721 16.329 11.006 33.536 11.006 33.536l.361-11.937z" data-name="パス 155" transform="translate(-2090.154 -1523.135)" fill="#2962ff"/><path id="prefix__パス_156" d="M2153.946 1562.675s-4.973.121-3.495 6.341 6.9 3.821 6.9 3.821z" data-name="パス 156" transform="translate(-2090.209 -1523.398)" fill="#e8a181"/><circle id="prefix__楕円形_56" cx="3.741" cy="3.741" r="3.741" class="prefix__cls-7" data-name="楕円形 56" transform="translate(75.353 40.326)"/><path id="prefix__パス_157" d="M2187.415 1558.094a3.737 3.737 0 001.538 7.265 55.77 55.77 0 00-1.538-7.265z" class="prefix__cls-7" data-name="パス 157" transform="translate(-2090.439 -1523.367)"/><g id="prefix__グループ_1289" data-name="グループ 1289" transform="translate(75.471 34.687)"><g id="prefix__グループ_1288" data-name="グループ 1288"><path id="prefix__パス_158" d="M2167.953 1559.14a1.085 1.085 0 11-1.086-1.086 1.085 1.085 0 011.086 1.086z" class="prefix__cls-8" data-name="パス 158" transform="translate(-2165.783 -1558.054)"/></g></g><g id="prefix__グループ_1291" data-name="グループ 1291" transform="translate(92.937 30.451)"><g id="prefix__グループ_1290" data-name="グループ 1290"><path id="prefix__パス_159" d="M2185.535 1554.874a1.085 1.085 0 11-1.085-1.085 1.085 1.085 0 011.085 1.085z" class="prefix__cls-8" data-name="パス 159" transform="translate(-2183.366 -1553.789)"/></g></g><g id="prefix__グループ_1293" data-name="グループ 1293" transform="translate(84.326 30.824)"><g id="prefix__グループ_1292" data-name="グループ 1292"><path id="prefix__パス_160" d="M2174.7 1554.165l3.589 9.854 4.706-1.61a1.464 1.464 0 00.482-2.6z" class="prefix__cls-7" data-name="パス 160" transform="translate(-2174.698 -1554.165)"/></g></g></g></g></g></g></svg>