<svg xmlns="http://www.w3.org/2000/svg" width="140" height="140"><defs><clipPath id="prefix__clip-path"><circle id="prefix__楕円形_63" cx="70" cy="70" r="70" class="prefix__cls-1" data-name="楕円形 63"/></clipPath><style>.prefix__cls-1{fill:#faf8dc}.prefix__cls-4{fill:#e8a181}.prefix__cls-6{fill:#f3ba18}.prefix__cls-7{fill:#de4e31}.prefix__cls-8{fill:#002245}</style></defs><g id="prefix__グループ_1321" data-name="グループ 1321" transform="translate(-1910.952 -1316.954)"><g id="prefix__グループ_1320" data-name="グループ 1320" transform="translate(1910.952 1316.954)"><circle id="prefix__楕円形_58" cx="70" cy="70" r="70" class="prefix__cls-1" data-name="楕円形 58"/><g id="prefix__グループ_1319" data-name="グループ 1319"><g id="prefix__グループ_1318" data-name="グループ 1318" transform="translate(1.105 25.401)"><path id="prefix__パス_161" d="M2045.025 1482.237h-132.96s2.508-36.92 14.739-46.953c8.046-6.6 22.017-13.67 28.039-17.981 3.8 8.6 12.839 19.272 26.76 17.3 12.882-1.822 18.259-14.675 19.886-19.7 4.262 4.248 19.384 13.775 28.483 19.44 16.621 10.35 15.053 47.894 15.053 47.894z" data-name="パス 161" transform="translate(-1912.065 -1343.007)" fill="#2962ff"/><path id="prefix__パス_162" d="M2001.776 1414.785c-1.627 5.028-7 17.881-19.886 19.7-13.921 1.969-22.959-8.706-26.76-17.3 3.134-2.242 5.392-4.454 6.142-6.922a29.519 29.519 0 001.044-13.041l34.233 1.332c.283 2.413 1.702 12.721 5.227 16.231z" class="prefix__cls-4" data-name="パス 162" transform="translate(-1912.351 -1342.889)"/><g id="prefix__グループ_1299" data-name="グループ 1299" transform="translate(86.983 31.581)"><g id="prefix__グループ_1298" data-name="グループ 1298"><path id="prefix__パス_163" d="M2000.2 1374.419s5.177-1.316 5.451 5.545-6.024 5.951-6.024 5.951z" class="prefix__cls-4" data-name="パス 163" transform="translate(-1999.63 -1374.318)"/></g></g><g id="prefix__グループ_1301" data-name="グループ 1301" transform="translate(39.475 31.581)"><g id="prefix__グループ_1300" data-name="グループ 1300"><path id="prefix__パス_164" d="M1957.264 1374.419s-5.177-1.316-5.452 5.545 6.024 5.951 6.024 5.951z" class="prefix__cls-4" data-name="パス 164" transform="translate(-1951.804 -1374.318)"/></g></g><g id="prefix__グループ_1303" data-name="グループ 1303" transform="translate(44.843 5.727)"><g id="prefix__グループ_1302" data-name="グループ 1302"><path id="prefix__パス_165" d="M2000.482 1376.948c0 15.44-10.818 27.539-21.21 27.26s-22.064-12.655-22.064-28.095 3.765-27.541 22.064-27.818c21.054-.317 21.21 13.214 21.21 28.653z" data-name="パス 165" transform="translate(-1957.208 -1348.291)" fill="#f4ae87"/></g></g><path id="prefix__パス_166" d="M1957.365 1374.28s-.784-16.306 3.371-22.342 14.691-9.57 20.147-9.407c7.918.234 15.977 6.9 18.031 11.524 1.881 4.234 2.038 11.445 1.96 13.719s-.548 6.9-.548 6.9-.392-3.684-1.1-9.956-1.8-11.289-7.684-12.464-8 3.606-11.759 3.684-5.566-4.234-10.269-4-8.859 3.057-10.035 9.8-2.114 12.542-2.114 12.542z" class="prefix__cls-6" data-name="パス 166" transform="translate(-1912.366 -1342.526)"/><path id="prefix__パス_167" d="M1957.2 1377.019a35.193 35.193 0 00-.078 14.738c1.647 8.545 3.841 13.641 2.117 17.091s-3.449 3.684-1.176 5.33 6.272-1.568 6.272-1.568-5.488 5.958-5.41 7.761 3.058.862 6.664-1.568c0 0-6.507 7.056-3.214 7.918s7.369-4 7.369-4-5.016 6.428-2.037 6.977 8.859-2.745 14.189-7.134 12.8-14.831 14.738-20.461a68.011 68.011 0 003.136-17.64c.138-2.38.745-6.311.745-6.311s-3.332 8.428-5.605 11.485-4.939 6.194-4.939 6.194-.784-1.724-4-3.684a23.97 23.97 0 01-5.88-5.724l-2.744-.313a11.151 11.151 0 01-3.45 3.37c-2.351 1.49-7.134 3.607-8.231 5.958 0 0-3.4-4.468-5.567-8-2.113-3.438-2.899-10.419-2.899-10.419z" class="prefix__cls-6" data-name="パス 167" transform="translate(-1912.36 -1342.755)"/><g id="prefix__グループ_1305" data-name="グループ 1305" transform="translate(62.169 32.464)"><g id="prefix__グループ_1304" data-name="グループ 1304"><path id="prefix__パス_168" d="M1978.988 1375.207l-4.338 10.192 3.239.949a3.526 3.526 0 002.082-.032l3.3-1.074z" class="prefix__cls-7" data-name="パス 168" transform="translate(-1974.65 -1375.207)"/></g></g><g id="prefix__グループ_1307" data-name="グループ 1307" transform="translate(54.094 30.579)"><g id="prefix__グループ_1306" data-name="グループ 1306"><circle id="prefix__楕円形_59" cx="1.098" cy="1.098" r="1.098" class="prefix__cls-8" data-name="楕円形 59"/></g></g><g id="prefix__グループ_1309" data-name="グループ 1309" transform="translate(76.045 30.971)"><g id="prefix__グループ_1308" data-name="グループ 1308"><circle id="prefix__楕円形_60" cx="1.098" cy="1.098" r="1.098" class="prefix__cls-8" data-name="楕円形 60"/></g></g><g id="prefix__グループ_1312" data-name="グループ 1312" transform="translate(60.365 49.86)"><g id="prefix__グループ_1311" data-name="グループ 1311"><g id="prefix__グループ_1310" data-name="グループ 1310"><path id="prefix__パス_169" d="M1972.834 1393.639c-.011 2.078 2.507 3.777 5.625 3.794s5.653-1.655 5.664-3.733-2.339-.013-5.456-.029-5.821-2.11-5.833-.032z" data-name="パス 169" transform="translate(-1972.834 -1392.72)" fill="#fff"/></g></g></g><g id="prefix__グループ_1314" data-name="グループ 1314" transform="translate(50.723 38.419)"><g id="prefix__グループ_1313" data-name="グループ 1313"><circle id="prefix__楕円形_61" cx="3.606" cy="3.606" r="3.606" class="prefix__cls-7" data-name="楕円形 61"/></g></g><g id="prefix__グループ_1316" data-name="グループ 1316" transform="translate(72.43 37.313)"><g id="prefix__グループ_1315" data-name="グループ 1315"><circle id="prefix__楕円形_62" cx="3.606" cy="3.606" r="3.606" class="prefix__cls-7" data-name="楕円形 62" transform="rotate(-22.5 6.938 1.38)"/></g></g><g id="prefix__グループ_1317" data-name="グループ 1317" transform="translate(35.467 107.368)"><path id="prefix__パス_170" d="M1967.514 1470l1.849 4.461a.6.6 0 001.077.141 69.072 69.072 0 016.318-7.7l3.408 7.383a.6.6 0 00.926.119l5.752-5.69a23.5 23.5 0 012.792 13.865h1.171a24.746 24.746 0 00-3.321-15.125.6.6 0 00-.925-.119l-5.707 5.644q-1.709-3.7-3.419-7.407a.593.593 0 00-.926-.119 71.069 71.069 0 00-6.442 7.66l-2.026-4.89a.6.6 0 00-1.136 0 29.838 29.838 0 00-1.844 14.357h1.176a28.747 28.747 0 011.277-12.58z" class="prefix__cls-1" data-name="パス 170" transform="translate(-1947.883 -1450.71)"/><path id="prefix__パス_171" d="M1971.7 1465.6a22.166 22.166 0 00.044-2.826c-.036-.755-1.215-.76-1.178 0a21.966 21.966 0 01-.045 2.826c-.06.758 1.119.754 1.179 0z" class="prefix__cls-1" data-name="パス 171" transform="translate(-1947.92 -1450.689)"/><path id="prefix__パス_172" d="M1996.877 1474.416l-2.824 1.041c-.705.26-.4 1.4.314 1.136l2.823-1.041c.71-.26.402-1.4-.313-1.136z" class="prefix__cls-1" data-name="パス 172" transform="translate(-1948.074 -1450.77)"/><path id="prefix__パス_173" d="M1983.159 1464.863a23.23 23.23 0 00.056-3.034c-.036-.755-1.215-.76-1.179 0a22.913 22.913 0 01-.056 3.034c-.064.756 1.12.752 1.179 0z" class="prefix__cls-1" data-name="パス 173" transform="translate(-1947.996 -1450.683)"/><path id="prefix__パス_174" d="M1961.212 1476.149c.742.135 1.06-1 .314-1.137l-2.419-.443c-.742-.135-1.06 1-.314 1.136z" class="prefix__cls-1" data-name="パス 174" transform="translate(-1947.839 -1450.771)"/><path id="prefix__パス_175" d="M1954.652 1481.581a24.086 24.086 0 0148.172 0c0 .313-.008.624-.02.935h.707c.012-.311.02-.622.02-.935a24.793 24.793 0 00-49.586 0c0 .313.008.624.02.935h.707c-.012-.316-.02-.622-.02-.935z" class="prefix__cls-1" data-name="パス 175" transform="translate(-1947.81 -1450.653)"/><path id="prefix__パス_176" d="M1957.331 1479.859a20.91 20.91 0 003.4.459c.758.04.756-1.139 0-1.179a18.945 18.945 0 01-3.082-.416c-.744-.162-1.06.977-.318 1.136z" class="prefix__cls-1" data-name="パス 176" transform="translate(-1947.83 -1450.799)"/><path id="prefix__パス_177" d="M2009.61 1482.475c.009-.311.015-.622.015-.935a30.928 30.928 0 00-61.856 0c0 .313.006.624.015.935h.708c-.01-.311-.016-.622-.016-.935a30.221 30.221 0 0160.441 0c0 .313-.006.624-.016.935z" class="prefix__cls-1" data-name="パス 177" transform="translate(-1947.769 -1450.612)"/><path id="prefix__パス_178" d="M1980.576 1479.3l-.123 3.365h1.179l.123-3.365c.028-.762-1.155-.761-1.179 0z" class="prefix__cls-1" data-name="パス 178" transform="translate(-1947.986 -1450.799)"/><path id="prefix__パス_179" d="M1994.944 1480.8l4.079-.507c.743-.092.752-1.271 0-1.178l-4.079.505c-.744.096-.752 1.28 0 1.18z" class="prefix__cls-1" data-name="パス 179" transform="translate(-1948.079 -1450.802)"/><path id="prefix__パス_180" d="M1985.577 1475.929a41.969 41.969 0 01-.57 6.637.648.648 0 00-.005.073h1.179a44 44 0 00.575-6.71.59.59 0 00-1.179 0z" class="prefix__cls-1" data-name="パス 180" transform="translate(-1948.017 -1450.776)"/><path id="prefix__パス_181" d="M1968.051 1478.244v4.41h1.179v-4.41a.59.59 0 00-1.179 0z" class="prefix__cls-1" data-name="パス 181" transform="translate(-1947.904 -1450.792)"/><path id="prefix__パス_182" d="M1976.829 1482.4a48.451 48.451 0 01.222-7.742c.082-.753-1.1-.747-1.178 0a48.309 48.309 0 00-.222 7.742.6.6 0 00.057.23h1.089a.579.579 0 00.032-.23z" class="prefix__cls-1" data-name="パス 182" transform="translate(-1947.954 -1450.768)"/><path id="prefix__パス_183" d="M1973.127 1479.823c.047-.758-1.132-.755-1.179 0a18.346 18.346 0 00.047 2.842h1.178a18.316 18.316 0 01-.046-2.842z" class="prefix__cls-1" data-name="パス 183" transform="translate(-1947.93 -1450.803)"/></g></g></g></g></g></svg>