<svg version="1.1" id="レイヤー_1" xmlns="http://www.w3.org/2000/svg" x="0" y="0" viewBox="0 0 140 140" xml:space="preserve"><style>.st3{fill:#e8a181}.st6{fill:#de4e31}.st7{fill:#002245}</style><path id="prefix__パス_548" d="M70 0c38.7 0 70 31.3 70 70s-31.3 70-70 70S0 108.7 0 70 31.3 0 70 0z" fill="#faf8dc"/><path d="M87.2 111.5c-2-2.5-2.9-7.6-3.7-10.6-.3-1.3-1.5-2.2-2.8-2.3l-20-.8c-1 0-1.9.4-2.5 1.2-1.8 2.6-4.8 8.4-9.1 11.8-4.2 3.4-14.6 7.3-21.5 14.9 11.8 9 26.5 14.3 42.4 14.3 12.8 0 24.8-3.4 35.1-9.4-.2-.5-.4-1-.7-1.4-5.1-9.1-11.5-10.9-17.2-17.7z" fill="#e85f5b"/><path id="prefix__パス_131" d="M77.9 32.6c-.5-4.5-4.1-11.3-10.3-11.2s-8.5 3.5-9.8 5.9-5.3 4.9-10.4 5.5-7.2 5.7-6.2 9.8c.9 3.7-.8 7.7-4.2 9.4-3.2 1.9-6.2 7.1-3.6 11.5s4.7 6.4 3 12 4.1 11 8.8 9.5 6-1.6 8.2.2 5.5 5.5 10.4 3.3 14.1-55.9 14.1-55.9z" fill="#f3ba18"/><path id="prefix__パス_132" class="st3" d="M60.3 67.2c-.4 11.7-.7 34.1-.7 34.1 3.7 1.6 7.7 2.5 11.8 2.5 3.8 0 7.5-.3 11.2-.9l.6-13.6-22.9-22.1z"/><path id="prefix__パス_133" d="M60.3 67.2c-.4 7.2 6.3 26.2 16.2 27.9 11.2 1.9 20.6-10.6 24.9-19.5 3.7-7.7 4.3-16.5 1.8-24.6-2.7-8.8-20.2-11-29.5-7.1S60.9 56.8 60.3 67.2z" fill="#f4ae87"/><g id="prefix__グループ_1256" transform="translate(69.607 58.027)"><g id="prefix__グループ_1255"><g id="prefix__グループ_1254"><path id="prefix__パス_134" d="M9.2 22c-.6 1.9 1.2 4.1 4 5s5.5.1 6.1-1.8-2.1-.7-4.9-1.6-4.6-3.4-5.2-1.6z" fill="#fff"/></g></g></g><g id="prefix__グループ_1258" transform="translate(75.819 49.202)"><g id="prefix__グループ_1257"><path id="prefix__パス_135" class="st6" d="M12.6 21.4l-3.5 7.2 4.2 1.5c.6.2 1.1-.1 1-.7l-1.7-8z"/></g></g><g id="prefix__グループ_1260" transform="translate(65.928 43.904)"><g id="prefix__グループ_1259"><circle id="prefix__楕円形_48" class="st7" cx="10.1" cy="22.4" r="1"/></g></g><g id="prefix__グループ_1262" transform="translate(85.987 52.852)"><g id="prefix__グループ_1261"><circle id="prefix__楕円形_49" class="st7" cx="10.1" cy="22.4" r="1"/></g></g><g id="prefix__グループ_1264" transform="translate(59.832 48.919)"><g id="prefix__グループ_1263"><circle id="prefix__楕円形_50" class="st6" cx="12.5" cy="24.8" r="3.4"/></g></g><path id="prefix__パス_136" class="st6" d="M95.7 81c-1.9 0-3.4 1.5-3.4 3.4 0 1.1.5 2.1 1.4 2.7 1.5-1.7 2.9-3.5 4.1-5.4-.6-.4-1.3-.7-2.1-.7z"/><path id="prefix__パス_137" d="M75.9 46.1s-6.4 3.4-9.7 8.1c-2.1 3.2-3.6 6.8-4.4 10.5-3.1-3.9-4.5-8.8-3.8-13.8C59.8 40.5 68.5 32.7 79.1 32c15.1-1.4 23.8 10.2 25.7 15.3s2.9 13.9-1 21.8c.5-4.6.6-9.3.2-14 0 0-4.6 1.1-13.1-1.7-5.3-1.6-10.4-4.1-15-7.3z" fill="#fcc860"/><g id="prefix__グループ_1266" transform="translate(46.909 34.772)"><g id="prefix__グループ_1265"><path id="prefix__パス_138" class="st3" d="M15.1 21.7s-4.6-2-5.9 4.4 4.7 6.4 4.7 6.4l1.2-10.8z"/></g></g></svg>