<svg version="1.1" id="レイヤー_1" xmlns="http://www.w3.org/2000/svg" x="0" y="0" viewBox="0 0 140 140" xml:space="preserve"><style>.st2{fill:#fb5d51}.st3{fill:#e8a181}.st6{fill:#de4e31}.st7{fill:#002245}</style><circle id="prefix__楕円形_68" cx="70" cy="70" r="70" fill="#34be8e"/><path d="M97 134.6c6.4-2.7 12.3-6.3 17.6-10.7-7.1-7.1-17-13.3-23.6-17.1 3.1 9 5.1 18.3 6 27.8zm-56.2-27c-6.3 3.6-13.3 7.9-19.3 12.8 5 4.8 10.8 8.9 17.1 12.1.7-10.5 1.8-20.8 2.2-24.9z" fill="#2962ff"/><path class="st2" d="M84.2 103.1s2.8 1.4 6.8 3.7c-4-2.3-6.8-3.7-6.8-3.7l-33-1.6c-2.9 1.8-6.5 3.8-10.4 6.1 3.9-2.2 7.5-4.3 10.4-6.1l33 1.6z"/><path class="st2" d="M84.2 103.1l-33-1.6c-2.9 1.8-6.5 3.8-10.4 6.1-.4 4.2-1.4 14.4-2.3 25C48 137.3 58.7 140 70 140c9.6 0 18.7-1.9 27-5.4-1-9.4-3-18.8-6-27.8-4-2.3-6.8-3.7-6.8-3.7z"/><path id="prefix__パス_222" class="st3" d="M51.4 76.4l-.2 25.1s7.8 8.7 18.6 7.5 14.4-5.9 14.4-5.9l.8-26.7H51.4z"/><g id="prefix__グループ_1341" transform="translate(84.669 33.111)"><g id="prefix__グループ_1340"><path id="prefix__パス_223" class="st3" d="M3.6 27.7s5.2-1.3 5.5 5.6-6.1 6-6.1 6l.6-11.6z"/></g></g><g id="prefix__グループ_1343" transform="translate(41.324 33.111)"><g id="prefix__グループ_1342"><path id="prefix__パス_224" class="st3" d="M8.6 27.7s-5.2-1.3-5.5 5.6 6.1 6 6.1 6l-.6-11.6z"/></g></g><g id="prefix__グループ_1345" transform="translate(46.911 14.359)"><g id="prefix__グループ_1344"><path id="prefix__パス_225" d="M41.4 54.3c0 14.4-9.6 25.7-18.8 25.5S3 68 3 53.6s.9-26.4 19.6-26c21.9.4 18.8 12.3 18.8 26.7z" fill="#f4ae87"/></g></g><path id="prefix__パス_226" d="M50.1 65.4s-4.9-3.6-4.8-9.3 1.4-8.1 1.4-8.1-.4-3.3.2-4.8c.4-1 1-1.9 1.7-2.7 1.3-3.8 3.9-7 7.3-9.2 5.5-3.3 14.9-4.1 18.9-3.5s9.4 2 9.4 2 12.9-1.7 13.4-.4-3.4 9.7-3.4 9.7.8-1.2 1.3-.4-1.4 7.1-3.3 10.6c.4 1.5.4 3.1.1 4.7-.4 3.1-4 9.2-4 9.2s-.7-4-1.3-7.2c-1.1-5-4.3-8.7-4.4-10.6-4 1.1-8.1 1.7-12.3 1.7-4.3-.1-8.5-.6-12.7-1.7-1.9 3.1-3.5 6.3-4.9 9.6-1.3 3.8-2.6 10.4-2.6 10.4z" fill="#faf8dc"/><g id="prefix__グループ_1347" transform="translate(61.898 37.519)"><g id="prefix__グループ_1346"><path id="prefix__パス_227" class="st6" d="M7.4 27.6L3 37.9l3.3 1c.7.1 1.4.1 2.1-.1l3.3-1.1-4.3-10.1z"/></g></g><g id="prefix__グループ_1349" transform="translate(54.47 37.357)"><g id="prefix__グループ_1348"><circle id="prefix__楕円形_69" class="st7" cx="4.2" cy="28.7" r="1.1"/></g></g><g id="prefix__グループ_1351" transform="translate(75.615 37.357)"><g id="prefix__グループ_1350"><path id="prefix__パス_228" class="st7" d="M5.3 28.7c0 .6-.5 1.1-1.1 1.1S3 29.3 3 28.7s.5-1.1 1.1-1.1c.7 0 1.2.5 1.2 1.1z"/></g></g><g id="prefix__グループ_1353" transform="translate(50.075 42.265)"><g id="prefix__グループ_1352"><circle id="prefix__楕円形_70" class="st6" cx="7.8" cy="32.3" r="3.6"/></g></g><g id="prefix__グループ_1355" transform="translate(74.135 43.383)"><g id="prefix__グループ_1354"><circle id="prefix__楕円形_71" class="st6" cx="6.7" cy="31.2" r="3.6"/></g></g><g id="prefix__グループ_1358" transform="translate(60.338 51.626)"><g id="prefix__グループ_1357"><g id="prefix__グループ_1356"><path id="prefix__パス_229" d="M3 28.5c0 2.1 2.5 3.8 5.7 3.8s5.7-1.7 5.7-3.8-2.4 0-5.5 0-5.8-2.1-5.9 0z" fill="#fff"/></g></g></g></svg>