<svg version="1.1" id="レイヤー_1" xmlns="http://www.w3.org/2000/svg" x="0" y="0" viewBox="0 0 140 140" xml:space="preserve"><style>.st2{fill:#e8a181}.st3{fill:#002245}.st5{fill:#de4e31}</style><circle id="prefix__楕円形_40" cx="70" cy="70" r="70" fill="#2962ff"/><path d="M62.4 139.6c5 7.1 9.4 12.6 10.6 12.5-1.2.1-5.6-5.5-10.6-12.5z" fill="none"/><path class="st2" d="M80.8 139.2c4.5-9.2 9.5-21 12-27-4.7-3.8-8.4-7.3-9.2-9.8-2.2-7-1.6-22.1-1.6-22.1l-26.6-.9s2.7 19.6-1.1 25c-1.3 1.8-5.1 5-9.7 8.8 3.1 4.8 11 16.9 17.7 26.4 2.5.3 5 .4 7.6.4 3.8 0 7.4-.3 10.9-.8z"/><path class="st3" d="M80.8 139.2c11.4-1.8 21.9-6.3 30.8-12.9-5.2-4.3-12.8-9.3-18.8-14-2.4 5.8-7.5 17.6-12 26.9zm-36.2-26.1c-5.1 4.1-11.3 8.8-16.3 13.1 9.7 7.2 21.4 11.9 34 13.3-6.7-9.4-14.6-21.6-17.7-26.4z"/><path d="M92.9 112.2c-2.5 5.9-7.6 17.7-12 27 4.4-9.3 9.5-21.1 12-27z"/><path id="prefix__パス_113" d="M50.8 55.4c-.2 5-.9 19.2 2 24.2S60.5 93.2 70.4 93s14.7-11.1 16.3-15.2 1.9-16.1 1.2-22.8-.7-18.7-17.6-19.2-19.3 14-19.5 19.6z" fill="#f4ae87"/><g id="prefix__グループ_1218" transform="translate(43.923 49.276)"><g id="prefix__グループ_1217"><path id="prefix__パス_114" class="st3" d="M15.4 17.3c0 .6-.5 1.1-1.1 1.1-.6 0-1.1-.5-1.1-1.1 0-.6.5-1.1 1.1-1.1.6 0 1.1.5 1.1 1.1z"/></g></g><g id="prefix__グループ_1220" transform="translate(65.845 49.777)"><g id="prefix__グループ_1219"><path id="prefix__パス_115" class="st3" d="M15.4 17.3c0 .6-.5 1.1-1.1 1.1-.6 0-1.1-.5-1.1-1.1 0-.6.5-1.1 1.1-1.1s1.1.5 1.1 1.1z"/></g></g><g id="prefix__グループ_1222" transform="translate(40.92 55.082)"><g id="prefix__グループ_1221"><circle id="prefix__楕円形_41" class="st5" cx="16.7" cy="19.7" r="3.5"/></g></g><g id="prefix__グループ_1224" transform="translate(63.743 54.982)"><g id="prefix__グループ_1223"><circle id="prefix__楕円形_42" class="st5" cx="16.7" cy="19.7" r="3.5"/></g></g><g id="prefix__グループ_1226" transform="translate(52.656 48.629)"><g id="prefix__グループ_1225"><path id="prefix__パス_116" class="st5" d="M17.4 16.2L13.3 26l3.1.9c.7.2 1.3.2 2 0l3.2-1-4.2-9.7z"/></g></g><g id="prefix__グループ_1228" transform="translate(74.218 45.255)"><g id="prefix__グループ_1227"><path id="prefix__パス_117" class="st2" d="M13.8 16.3s5-1.3 5.2 5.3-5.8 5.7-5.8 5.7l.6-11z"/></g></g><g id="prefix__グループ_1230" transform="translate(32.427 45.255)"><g id="prefix__グループ_1229"><path id="prefix__パス_118" class="st2" d="M18.5 16.3s-5-1.3-5.2 5.3 5.8 5.7 5.8 5.7l-.6-11z"/></g></g><path id="prefix__パス_119" d="M51.4 38.7s.2 1.7-2.6 3.2c-2.7 1.4-3.3 5.6-2.1 8.4s0 4.3-.4 6.9c-.5 3.5 2.5 3.8 3.2 4.6.7 1.2 1.2 2.5 1.6 3.8.3-2.3.4-4.5.4-6.8-.2-1.6-.9-3.8-.5-5.5s1.1-3.9 3.2-4.2 3.6-2.6 4-5.3 3.4-3.2 5.2-2.3 2.7-1.2 4.5-1.8 2.5-.4 3.6 1.4 3.8 1.5 4.8.7c1.3-1.2 3.2-1.4 4.8-.7 1.7.9 2.7 2.7 2.5 4.6-.1 2-.8 3.6 1.1 5.9s3.1 8.1 3.2 12c.5-1 1.2-1.9 2.1-2.6 1.4-1.2 1.6-2.8 1.2-5.2s.7-3.1.9-4.5c.3-1.4.2-2.9-.4-4.2-.8-1.9 1.1-2 1-4.1-.1-2.9-2.4-2.9-3-4.3s.5-2.8-1-4.5c-1.2-1.2-2.7-1.9-4.3-2.1 0 0 3.1-3.5-.4-6.2-2.6-2 .4-3.8-4.2-5.6-1.7-.7-2.8 1-4.9.1-1.5-.6-1.2-3.8-5-4.1-2.9-.3-3.9 1.9-5.8 2.8s-4.5-.2-6.9.9-3.1 4-3.1 6-2.1 2.6-4 3.6-2.7 3.9-1.8 6.2c.7 1.3 1.7 2.4 3.1 2.9z" fill="#fb5d51"/></svg>