<svg xmlns="http://www.w3.org/2000/svg" viewBox="0 0 278.05 31.31"><g data-name="レイヤー 2"><g data-name="レイヤー 1"><g data-name="prefix グループ 1076"><path d="M21.32 17.19h-1.17v-5.9h1.17a5.65 5.65 0 000-11.29 5.26 5.26 0 00-4 2l-.32.25-5.72 6v-2.6a5.39 5.39 0 10-5.38 5.64h1.19v5.89H5.92a5.65 5.65 0 105.37 5.92 2.44 2.44 0 000-.27v-2.62l5.72 6 .17.19a5.26 5.26 0 004.13 2.08 5.65 5.65 0 000-11.29zM20.15 5.64a1.17 1.17 0 111.17 1.23h-1.17zM7.09 6.87H5.92A1.22 1.22 0 014.63 5.7a1.23 1.23 0 012.46-.12v1.29zm0 16a1.17 1.17 0 11-1.17-1.27h1.17zm8.85-11.54v7.54l-4.38-4.6 4.38-4.6zm5.38 12.78a1.19 1.19 0 01-1.17-1.22V21.6h1.17a1.23 1.23 0 011.16 1.3 1.25 1.25 0 01-1.16 1.16z" fill="#2962ff"/><path d="M38.89 25V3.53h4.33v9.53L52 3.53h5.83l-8.08 8.36L58.25 25h-5.61l-5.9-10.08-3.52 3.59V25zm35.73 0H70.5v-7.94a12.58 12.58 0 00-.26-3.26 2.35 2.35 0 00-.86-1.15 2.48 2.48 0 00-1.38-.41 3.33 3.33 0 00-1.92.59 3 3 0 00-1.16 1.55 13.34 13.34 0 00-.37 3.62v7h-4.11V9.44h3.82v2.29a6.24 6.24 0 015.13-2.64 6.36 6.36 0 012.49.49 4.21 4.21 0 011.7 1.25 4.51 4.51 0 01.81 1.73 13 13 0 01.23 2.77zm3.22-8a8.45 8.45 0 011-4 7 7 0 012.86-2.93 8.57 8.57 0 014.14-1 7.82 7.82 0 015.79 2.29 7.94 7.94 0 012.25 5.8A8 8 0 0191.62 23a7.69 7.69 0 01-5.74 2.32 8.94 8.94 0 01-4.08-1 6.62 6.62 0 01-3-2.83 9.5 9.5 0 01-.96-4.49zm4.22.22a5.14 5.14 0 001.1 3.55 3.59 3.59 0 005.41 0 5.23 5.23 0 001.09-3.58 5.11 5.11 0 00-1.09-3.51 3.59 3.59 0 00-5.41 0 5.11 5.11 0 00-1.1 3.54zM100 25L95.09 9.44h4l2.91 10.2 2.68-10.2h4l2.59 10.2 3-10.2h4l-5 15.56h-4l-2.68-10L104 25zm20.45 0V3.53h4.12V25zm17.34-4.95l4.11.69a6.71 6.71 0 01-2.5 3.43 7.31 7.31 0 01-4.27 1.18q-4.06 0-6-2.65a9 9 0 01-1.54-5.36 8.59 8.59 0 012-6.06 6.64 6.64 0 015.11-2.19 6.94 6.94 0 015.48 2.29q2 2.3 1.92 7h-10.3a4.15 4.15 0 001 2.85 3.11 3.11 0 002.37 1 2.53 2.53 0 001.63-.53 3.22 3.22 0 00.99-1.65zm.24-4.16a4 4 0 00-.92-2.72 2.84 2.84 0 00-2.14-.93 2.88 2.88 0 00-2.23 1 3.8 3.8 0 00-.86 2.67zM159.74 25h-3.82v-2.29a6.22 6.22 0 01-2.25 2 5.84 5.84 0 01-7.21-1.51 8.76 8.76 0 01-1.91-6 8.69 8.69 0 011.86-6 6.08 6.08 0 014.7-2.06 5.81 5.81 0 014.51 2.17V3.53h4.12zm-11-8.12a7.13 7.13 0 00.69 3.61 3.11 3.11 0 002.78 1.61 3 3 0 002.42-1.21 5.59 5.59 0 001-3.61 6.13 6.13 0 00-1-3.86 3 3 0 00-2.48-1.18 3.09 3.09 0 00-2.45 1.17 5.22 5.22 0 00-.95 3.47zM163.42 26l4.7.57a1.61 1.61 0 00.54 1.12 3 3 0 001.84.44 4.83 4.83 0 002.42-.48 2 2 0 00.82-1 6.14 6.14 0 00.19-1.89v-2.28a5.57 5.57 0 01-4.66 2.52 5.72 5.72 0 01-5-2.65 9 9 0 01-1.44-5.22 8.58 8.58 0 011.88-6 6.09 6.09 0 014.69-2.07 5.71 5.71 0 014.76 2.54V9.44h3.85v14a13.65 13.65 0 01-.46 4.12 5 5 0 01-1.27 2.14 5.61 5.61 0 01-2.19 1.21 11.29 11.29 0 01-3.46.44q-4 0-5.61-1.35a4.25 4.25 0 01-1.66-3.44c.04-.17.05-.34.06-.56zm3.67-9.13a5.63 5.63 0 001 3.63 3 3 0 002.37 1.14A3.3 3.3 0 00173 20.5a5.19 5.19 0 001-3.5 5.47 5.47 0 00-1-3.59 3.16 3.16 0 00-2.52-1.17 3 3 0 00-2.44 1.15 5.41 5.41 0 00-.95 3.51zm24.04 3.18l4.1.69a6.71 6.71 0 01-2.5 3.43 7.29 7.29 0 01-4.27 1.18q-4.05 0-6-2.65a8.88 8.88 0 01-1.54-5.36 8.58 8.58 0 012-6.06 6.66 6.66 0 015.11-2.19 6.93 6.93 0 015.48 2.29q2 2.3 1.92 7h-10.29a4.19 4.19 0 001 2.85 3.13 3.13 0 002.38 1 2.52 2.52 0 001.62-.53 3.23 3.23 0 00.99-1.65zm.23-4.16a3.91 3.91 0 00-.92-2.72 3 3 0 00-4.36.05 3.8 3.8 0 00-.87 2.67zm15.82-12.36h8.59a25.1 25.1 0 013.8.21 5.57 5.57 0 012.24.88 5.51 5.51 0 011.65 1.8 4.85 4.85 0 01.66 2.51 4.94 4.94 0 01-.82 2.77 5 5 0 01-2.2 1.89 5.63 5.63 0 013 1.95 5.17 5.17 0 011 3.23 6.29 6.29 0 01-.68 2.85 5.7 5.7 0 01-1.86 2.22 6.08 6.08 0 01-2.91 1c-.72.08-2.46.13-5.23.15h-7.31zm4.34 3.57v5h2.84c1.69 0 2.74 0 3.15-.08a2.84 2.84 0 001.75-.77 2.23 2.23 0 00.64-1.67 2.32 2.32 0 00-.55-1.62 2.48 2.48 0 00-1.63-.76c-.43 0-1.67-.07-3.71-.07zm0 8.54v5.74h4a19.45 19.45 0 003-.13 2.66 2.66 0 001.57-.86 2.6 2.6 0 00.61-1.82 2.81 2.81 0 00-.47-1.64 2.59 2.59 0 00-1.35-1 14.52 14.52 0 00-3.85-.31zm20.36-1.45l-3.73-.67a5.81 5.81 0 012.16-3.34 7.89 7.89 0 014.57-1.09 10 10 0 014.11.65 4.11 4.11 0 011.89 1.66 8.43 8.43 0 01.55 3.68v4.81a15.91 15.91 0 00.2 3 8.36 8.36 0 00.74 2.09h-4.08c-.1-.27-.24-.68-.39-1.22q-.11-.36-.15-.48a7.41 7.41 0 01-2.25 1.54 6.51 6.51 0 01-2.57.51 5.28 5.28 0 01-3.78-1.3 4.32 4.32 0 01-1.39-3.3 4.42 4.42 0 01.63-2.35 4.12 4.12 0 011.77-1.58 13.27 13.27 0 013.27-1 22.61 22.61 0 004-1v-.41a2.12 2.12 0 00-.59-1.69 3.47 3.47 0 00-2.21-.51 3 3 0 00-1.71.43 3.08 3.08 0 00-1.04 1.57zm5.51 3.34a23.32 23.32 0 01-2.51.63 7.35 7.35 0 00-2.24.72 1.72 1.72 0 00-.8 1.45 2 2 0 00.64 1.49 2.26 2.26 0 001.64.63 3.56 3.56 0 002.13-.73 2.6 2.6 0 001-1.36 8.07 8.07 0 00.16-2zM259.64 25h-4.12v-7.94a12.13 12.13 0 00-.26-3.26 2.23 2.23 0 00-.86-1.15 2.45 2.45 0 00-1.42-.41 3.28 3.28 0 00-1.92.59 3 3 0 00-1.17 1.55 13.46 13.46 0 00-.31 3.57V25h-4.12V9.44h3.82v2.29a6.38 6.38 0 017.62-2.15 4.32 4.32 0 011.71 1.25 4.65 4.65 0 01.8 1.73 13 13 0 01.23 2.77zm4.03 0V3.53h4.12v11.39l4.81-5.48h5.07l-5.31 5.69 5.69 9.87h-4.43l-3.92-7-1.91 2v5z" fill="#373943" data-name="prefix Knowledge Bank"/></g></g></g></svg>