<svg xmlns="http://www.w3.org/2000/svg" viewBox="0 0 178.31 26.01"><g data-name="レイヤー 2"><g data-name="レイヤー 1"><path d="M19.47 15.7H18.4v-5.39h1.07a5.16 5.16 0 000-10.31 4.78 4.78 0 00-3.68 1.78l-.25.28-5.22 5.48V5.15a4.92 4.92 0 10-4.91 5.16h1.07v5.38H5.41a5.16 5.16 0 104.9 5.4 1.93 1.93 0 000-.24v-2.39l5.22 5.47.15.18A4.86 4.86 0 0019.47 26a5.16 5.16 0 000-10.31zM18.4 5.16a1.07 1.07 0 111.07 1.12H18.4zM6.47 6.28H5.4A1.13 1.13 0 116.47 5.1v1.18zm0 14.57a1.07 1.07 0 01-2.14-.1 1.06 1.06 0 011.07-1h1.07zm8.08-10.54v6.88l-4-4.2 4-4.2zM19.47 22a1.09 1.09 0 01-1.07-1.12v-1.15h1.07a1.12 1.12 0 010 2.24z" fill="#2962ff"/><path d="M34.81 20V7.12h2.61v5.72l5.25-5.72h3.5l-4.85 5L46.43 20h-3.36l-3.54-6-2.11 2.16V20zm21.44 0h-2.47v-4.76a7.19 7.19 0 00-.16-2 1.37 1.37 0 00-.51-.69 1.5 1.5 0 00-.86-.24 1.93 1.93 0 00-1.15.35 1.76 1.76 0 00-.7.93 8.3 8.3 0 00-.19 2.14V20h-2.47v-9.33H50V12a3.71 3.71 0 013.07-1.58 3.65 3.65 0 011.5.29 2.56 2.56 0 011 .75 2.93 2.93 0 01.49 1 7.86 7.86 0 01.13 1.66zm1.93-4.8a5.11 5.11 0 01.61-2.38 4.23 4.23 0 011.72-1.76 5.14 5.14 0 012.48-.6 4.68 4.68 0 013.47 1.37 4.74 4.74 0 011.36 3.48 4.82 4.82 0 01-1.37 3.51A4.61 4.61 0 0163 20.21a5.38 5.38 0 01-2.45-.58 4 4 0 01-1.77-1.7 5.73 5.73 0 01-.6-2.73zm2.54.13a3.09 3.09 0 00.66 2.13 2.14 2.14 0 003.24 0 3.12 3.12 0 00.66-2.14 3 3 0 00-.66-2.11 2.14 2.14 0 00-3.24 0 3.08 3.08 0 00-.66 2.12zM71.49 20l-2.95-9.33h2.4l1.75 6.11 1.61-6.11h2.38l1.55 6.11L80 10.67h2.43l-3 9.33h-2.35l-1.61-6-1.58 6zm12.26 0V7.12h2.47V20zm10.41-3l2.46.41a4 4 0 01-1.5 2.06 4.34 4.34 0 01-2.56.71A4.16 4.16 0 0189 18.62a5.32 5.32 0 01-1-3.22 5.16 5.16 0 011.22-3.63 4 4 0 013.06-1.31 4.16 4.16 0 013.29 1.37 6.08 6.08 0 011.15 4.22h-6.16a2.48 2.48 0 00.6 1.7 1.87 1.87 0 001.42.62 1.52 1.52 0 001-.32 2 2 0 00.58-1.05zm.14-2.5a2.42 2.42 0 00-.55-1.63 1.8 1.8 0 00-2.62 0 2.24 2.24 0 00-.52 1.6zm13.02 5.5H105v-1.37a3.71 3.71 0 01-1.35 1.19 3.47 3.47 0 01-1.57.39 3.55 3.55 0 01-2.75-1.29 5.26 5.26 0 01-1.15-3.62 5.19 5.19 0 011.12-3.61 3.63 3.63 0 012.82-1.23 3.47 3.47 0 012.7 1.3V7.12h2.47zm-6.59-4.87a4.18 4.18 0 00.42 2.16 1.88 1.88 0 003.12.25 3.42 3.42 0 00.59-2.17 3.68 3.68 0 00-.58-2.32 1.82 1.82 0 00-1.48-.7 1.85 1.85 0 00-1.47.69 3.16 3.16 0 00-.6 2.09zm8.8 5.49l2.82.34a1 1 0 00.33.68 1.87 1.87 0 001.1.26 2.89 2.89 0 001.45-.29 1.21 1.21 0 00.5-.62 4.09 4.09 0 00.11-1.14v-1.36a3.33 3.33 0 01-2.79 1.51 3.43 3.43 0 01-3-1.59 5.37 5.37 0 01-.87-3.13 5.14 5.14 0 011.13-3.58 3.65 3.65 0 012.81-1.24A3.4 3.4 0 01116 12v-1.33h2.31V19a8.4 8.4 0 01-.27 2.47 3 3 0 01-.77 1.29 3.35 3.35 0 01-1.31.73 7.13 7.13 0 01-2.08.26 5.43 5.43 0 01-3.37-.81 2.57 2.57 0 01-1-2.06c.01-.05.01-.15.02-.26zm2.21-5.48a3.41 3.41 0 00.57 2.18 1.79 1.79 0 001.42.69 2 2 0 001.53-.71 3.06 3.06 0 00.62-2.1 3.27 3.27 0 00-.59-2.15 1.9 1.9 0 00-1.51-.7 1.83 1.83 0 00-1.47.69 3.25 3.25 0 00-.57 2.1zM126.16 17l2.46.41a4 4 0 01-1.5 2.06 4.34 4.34 0 01-2.56.71 4.17 4.17 0 01-3.6-1.59 5.32 5.32 0 01-.96-3.19 5.16 5.16 0 011.22-3.63 4 4 0 013.06-1.31 4.16 4.16 0 013.29 1.37 6.08 6.08 0 011.15 4.22h-6.19a2.48 2.48 0 00.6 1.7 1.88 1.88 0 001.43.62 1.51 1.51 0 001-.32 1.94 1.94 0 00.6-1.05zm.14-2.5a2.42 2.42 0 00-.55-1.63 1.8 1.8 0 00-2.62 0 2.29 2.29 0 00-.52 1.6zm9.49-7.38h5.15a15.76 15.76 0 012.28.12 3.49 3.49 0 011.35.54 3.3 3.3 0 011 1.07 3.09 3.09 0 01-.1 3.17 3 3 0 01-1.32 1.13 3.38 3.38 0 011.85 1.17 3.12 3.12 0 01.63 1.95 3.89 3.89 0 01-.4 1.71 3.53 3.53 0 01-1.12 1.32 3.61 3.61 0 01-1.74.61c-.44.05-1.48.08-3.14.09h-4.39zm2.6 2.14v3h3.6a1.82 1.82 0 001-.46 1.41 1.41 0 00.38-1 1.41 1.41 0 00-.33-1 1.54 1.54 0 00-1-.46h-2.22zm0 5.12v3.45h2.41a12.27 12.27 0 001.79-.08 1.52 1.52 0 001.31-1.61 1.67 1.67 0 00-.29-1 1.51 1.51 0 00-.81-.59 8.86 8.86 0 00-2.31-.19zm12.22-.87l-2.24-.4a3.44 3.44 0 011.3-2 4.72 4.72 0 012.74-.65 5.93 5.93 0 012.46.39 2.45 2.45 0 011.14 1 5.09 5.09 0 01.33 2.21v2.88a10 10 0 00.12 1.82 5.13 5.13 0 00.45 1.25h-2.45c-.06-.16-.14-.41-.23-.73 0-.14-.07-.24-.09-.29a4.25 4.25 0 01-1.36.92 3.77 3.77 0 01-1.53.31 3.18 3.18 0 01-2.27-.78 2.58 2.58 0 01-.84-2 2.66 2.66 0 01.38-1.41 2.51 2.51 0 011.06-.95 8.19 8.19 0 012-.57 13.25 13.25 0 002.39-.61v-.25a1.25 1.25 0 00-.35-1 2.09 2.09 0 00-1.32-.3 1.78 1.78 0 00-1 .25 1.81 1.81 0 00-.69.91zm3.3 2c-.31.1-.81.23-1.5.38a4.37 4.37 0 00-1.34.43 1 1 0 00-.49.87 1.2 1.2 0 00.39.89 1.33 1.33 0 001 .38 2.09 2.09 0 001.28-.44 1.54 1.54 0 00.59-.82 5.19 5.19 0 00.09-1.2zM167.27 20h-2.47v-4.76a7.64 7.64 0 00-.16-2 1.45 1.45 0 00-.52-.69 1.47 1.47 0 00-.85-.24 1.91 1.91 0 00-1.15.35 1.71 1.71 0 00-.7.93 7.86 7.86 0 00-.19 2.14V20h-2.47v-9.33h2.29V12a3.73 3.73 0 013.08-1.58 3.64 3.64 0 011.49.29 2.67 2.67 0 011 .75 2.75 2.75 0 01.48 1 7.74 7.74 0 01.14 1.66zm2.41 0V7.12h2.47V14l2.85-3.33h3l-3.19 3.41 3.5 5.92h-2.66l-2.35-4.19-1.15 1.19v3z" fill="#373943" data-name="prefix Knowledge Bank"/></g></g></svg>