<svg version="1.1" id="レイヤー_1" xmlns="http://www.w3.org/2000/svg" x="0" y="0" viewBox="0 0 354 156" xml:space="preserve"><style>.st0{enable-background:new}.st1{fill:#2962ff}.st2{fill:#57697d}.st3{fill:#233952}.st4{fill:#3d5168}.st8{fill:#373943}.st10{fill:#fb5d51}.st11{fill:#e8a181}.st14{fill:#de4e31}.st15{fill:#002245}</style><g class="st0"><path class="st1" d="M166.2 130.5c0 .7 0 1.2.1 1.5h-1.4c0-.4.1-.7.1-1.5v-9.1h4.5v4h-3.3v5.1zm0-7.6h2.1v-.6h-2.1v.6zm0 1.4h2.1v-.6h-2.1v.6zm6.2 5.2v1c.3 0 .7.1.9.1.3 0 .4-.1.4-.3v-5h-3.5v-4h4.7v9.2c0 .7-.1 1-.6 1.2-.3.1-.6.1-1.4.1h-.8c-.1-.5-.1-.8-.3-1.2h-3.2v.7h-1.3c0-.3.1-.8.1-1.2v-4h4.9v3.4h.1zm-3.7-1.7h2.4v-.8h-2.4v.8zm0 1.7h2.4v-.8h-2.4v.8zm2.8-6.6h2.2v-.6h-2.2v.6zm0 1.4h2.2v-.6h-2.2v.6zm5 1.2c.3 0 .5.1.9.1h1.8v3.9c.2.4.5.7 1 .9.4.2 1.2.3 2.5.3 2.2 0 3.5 0 5-.2-.1.3-.2.7-.3 1.3-1 0-2.9.1-4 .1-1.7 0-2.7-.1-3.3-.2-.6-.2-1.1-.5-1.5-1.1-.6.6-.6.6-1.7 1.4l-.6-1.4c.5-.2 1.1-.6 1.7-1.2v-2.6h-.6c-.3 0-.5 0-.8.1l-.1-1.4zm4.8-2.5c.2-.3.2-.3.3-.5h-1.4v-1.1c.3 0 .6.1 1.1.1h.8c.1-.3.2-.5.3-.8l1.3.1c0 .1-.1.3-.3.7h2.9v1.5h.3c.4 0 .6 0 .9-.1v1.1c-.3 0-.6-.1-1.1-.1h-6.9v-.7l-.9.8c-.8-1.1-1.2-1.5-2-2.2l.9-.9c.9.8 1.3 1.2 1.9 1.9h1.9v.2zm-.1 3.6h-.9v-2.2h6.3v2.3h-1.8v.4h2.2v1h-2.1v.6h1.4c.5 0 .8 0 1.1-.1v1.1h-2.5c0 .4 0 .5.1.8h-1.4c0-.3 0-.4.1-.8h-3.9v-1.1h1.1v-.6h-.8v-1h3.7v-.4h-2.6zm.4-.8h3.8v-.5h-3.8v.5zm.4 2.7h1.6v-.6H182v.6zm3-5.5v-.5h-2.1c-.1.2-.1.2-.3.5h2.4zm4.6 1.3h.7c1.2 0 2.8-.1 4.3-.3.5-.1.8-.1 1-.2l.8 1c-.2.2-.5.4-1 .9-.6.6-1.7 1.5-2.1 1.8.3-.1.5-.1.7-.1.5 0 .8.2 1 .5s.2.4.3 1.1c.1.9.2 1.1 1 1.1s1.7-.2 2.4-.5l.2 1.5c-.2 0-.3 0-1.1.1-.7.1-1.2.1-1.7.1-.9 0-1.3-.1-1.7-.5-.3-.3-.4-.6-.5-1.5 0-.5 0-.6-.1-.8s-.3-.3-.5-.3c-.6 0-1.1.3-2.1 1.3-.6.6-1.3 1.3-1.7 1.8l-1.1-1.2c.5-.4.5-.4 2.8-2.4.3-.3.5-.5 1.4-1.3.3-.3.8-.8 1.4-1.3-.7.1-1 .2-1.6.2-.2 0-.2 0-1.2.1-.2 0-.2 0-.6.1-.4 0-.5 0-.9.1l-.1-1.3zm1.5-3.1c1.4.4 2.9.6 4.8.7l-.2 1.3c-2.4-.1-3.3-.3-5-.7l.4-1.3zm8.9 1.8c.4.1.9.1 1.6.1h.6c.1-.6.2-1.5.2-1.8v-.2l1.6.1c-.1.3-.1.3-.2 1.2-.1.3-.1.4-.1.7.9-.1 1.5-.2 2.1-.4l.1 1.4c-.1 0-.1 0-.4.1-.6.1-1.6.2-2 .3-.1.7-.4 2-.7 3.1-.3 1.2-.6 1.8-1.3 4l-1.5-.6c.8-1.5 1.8-4.3 2.1-6.5h-2.2l.1-1.5zm5.9 4.7c-.5.6-.6.9-.6 1.3 0 .6.6.9 1.8.9.9 0 2-.2 2.7-.4l.1 1.5c-.2 0-.3 0-.6.1-1 .1-1.5.2-2.2.2-1.1 0-1.8-.2-2.4-.5-.5-.3-.9-.9-.9-1.5s.2-1.2.9-2.1l1.2.5zm3.6-1.6c-.6-.1-.9-.1-1.5-.1-1.2 0-2 .1-3.2.3l-.1-1.3c1.7-.3 2.3-.4 3.6-.4h1.2v1.5zm3.3 4.3c0 .7 0 1.2.1 1.5h-1.4c0-.4.1-.7.1-1.5v-9.3h4.5v4.2h-3.3v5.1zm0-7.5h2.1v-.6h-2.1v.6zm0 1.5h2.1v-.6h-2.1v.6zm6.1 4.8v.8h-3.6v.8H214c0-.3.1-.7.1-1.2v-3.4h4.8v3zm-3.5-.3h2.3v-1.6h-2.3v1.6zm6.2 1.5c0 .7-.1 1-.4 1.2-.2.1-.6.2-1.3.2h-1.1c-.1-.6-.1-.8-.3-1.3.5.1 1.1.1 1.5.1.3 0 .4 0 .4-.3v-4.9h-3.5v-4.2h4.7c0 .4-.1.8-.1 1.3v7.9h.1zm-3.5-7.5h2.2v-.6h-2.2v.6zm0 1.5h2.2v-.6h-2.2v.6zm7.4 2.5h-1.3c-.6 0-.8 0-1.2.1v-1.2c.3 0 .6.1 1.2.1h3.3c.4 0 .7 0 1-.1v1.2h-1.8v1h1.6v1.2c-.3 0-.5-.1-1-.1h-.6v1.3c.5.1 1 .2 1.9.3-.2-.3-.4-.5-.7-.7.8-.3 1.4-.6 1.8-1.2h-.9v-5.5h1.5c.1-.3.2-.5.3-.8h-1c-.5 0-.9 0-1.2.1v-1.2c.3 0 .7.1 1.3.1h3c.6 0 1 0 1.3-.1v1.2h-2.2c-.1.3-.2.5-.3.8h2v5.4h-1.2c.6.5 1.1.8 1.8 1.1-.2.3-.4.4-.6.7.2 0 .3 0 .7-.1-.2.4-.3.7-.4 1.3-.8 0-2.2.1-3.2.1-2.1 0-3.4-.1-4.2-.4-.8-.2-1.5-.7-1.9-1.3-.2.7-.4 1.3-.8 1.8-.3-.4-.4-.5-1-.8.4-.5.6-1.1.8-1.8.1-.4.2-1.2.2-1.7v-.3l1.2.2v.4c0 .2 0 .5-.1 1 .2.3.4.4.7.7v-2.8zm-1.8-4.6v-1h4.5v4.1h-4.6v-1l.1-2.1zm1.2.6h2v-.6h-2v.6zm0 1.5h2v-.6h-2v.6zm5.9 4.7c-.5.6-1.1 1.1-1.6 1.4h1.2c.8 0 2 0 2.7-.1-.6-.3-1.1-.7-1.7-1.3l.7-.5H230l.8.5zm-.7-4.4h2.3v-.6h-2.3v.6zm0 1.5h2.3v-.6h-2.3v.6zm0 1.4h2.3v-.6h-2.3v.6zm5.4-5.2c.5.1 1.3.2 2.8.2.3-.7.4-1.1.5-1.5l1.6.2c-.1.1-.1.1-.5 1.1-.1.1-.1.2-.1.2h.8c1.4-.1 2.5-.2 3.1-.4l.1 1.4c-.3 0-.3 0-.9.1-.9.1-2.4.2-3.6.2a5 5 0 01-1.1 1.6l.2-.2c.4-.3 1.1-.5 1.7-.5.9 0 1.5.4 1.7 1.3.9-.3 1.5-.6 1.8-.6.6-.2.7-.2.9-.4l.6 1.4c-.3 0-.7.1-1.3.3-.2 0-.8.3-1.8.6v2.1h-1.4c0-.2.1-.8.1-1.4v-.3c-.6.3-.9.4-1.2.6-.4.3-.6.6-.6 1 0 .6.6.9 2 .9s2.7-.2 3.5-.5l.1 1.5h-.6c-.9.1-2 .2-3.1.2-1.3 0-2.1-.1-2.7-.5-.6-.3-.9-.9-.9-1.5 0-.5.1-.9.5-1.3.5-.7 1.2-1.1 2.6-1.7-.1-.4-.3-.6-.7-.6-.7 0-1.5.4-2.5 1.2-.5.4-.8.7-1 1.1l-1.1-1.1c.3-.2.7-.6 1.1-1.1.5-.6 1.2-1.6 1.4-2.1 0-.1 0-.1.1-.2h-2.2l.1-1.3z"/></g><g class="st0"><path class="st1" d="M182.2 139.4c.3-.5.4-1 .6-1.6l1.5.1c-.2.6-.4 1-.6 1.4h2.8c.7 0 1 0 1.5-.1 0 .4-.1.7-.1 1.5v6.7c0 .7 0 1 .1 1.4h-1.4v-.6h-5.9v.6h-1.4c0-.3.1-.8.1-1.4v-6.7c0-.7 0-1.1-.1-1.5.4 0 .8.1 1.5.1h1.4v.1zm-1.6 2.5h5.9v-1.4h-5.9v1.4zm0 2.6h5.9v-1.4h-5.9v1.4zm0 2.6h5.9v-1.5h-5.9v1.5zm11.7-7.8c-.8.1-1.2.1-2.1.1-.1-.3-.2-.6-.4-1 2.4 0 4.4-.3 5.2-.6l.7 1c-.1 0-.5.1-.7.1-.4.1-1 .2-1.6.3v.7h1.2c.6 0 .8 0 1.1-.1v1.1h-2.4v.5h2.2v3.8h-2.2v.5h2.2v1.1c-.2 0-.4-.1-.8-.1h-1.3v.6c.6-.1 1-.1 2.2-.3v.5c.5-.8.9-1.7 1.1-2.8.2-.9.3-1.6.3-3.2h-1v-1.3h1.1v-.9c0-1 0-1.2-.1-1.5h1.4c-.1.3-.1.3-.1 2.4h2.1c0 .4 0 .5-.1 2.3-.1 3.1-.2 4.8-.5 5.5-.2.5-.6.7-1.5.7h-1c0-.5-.1-.8-.3-1.3-.3.6-.5.9-1 1.6-.3-.4-.5-.7-.9-.9-1.6.2-2.5.3-4.7.5-.2 0-.4 0-.7.1l-.2-1.3h.6c.5 0 .8 0 2-.1v-.7h-2.3v-1.1c.3 0 .6.1 1.1.1h1.2v-.5h-2.2v-3.7h2.2v-.5h-1.5c-.5 0-.8 0-1.1.1v-1.1c.3 0 .6.1 1.1.1h1.5v-.7h.2zm-1 3v.5h1v-.5h-1zm0 1.4v.5h1v-.5h-1zm2.2-.9h1v-.5h-1v.5zm0 1.4h1v-.5h-1v.5zm4.8-2.6c-.1 2.9-.4 4.2-1.1 5.9.6.1.8.1 1.1.1.5 0 .6-.1.8-1.3.1-.6.1-1.2.2-2.5v-2.2h-1zm14-1.5c-.1.1-.1.1-.2.3-.3.3-.7.8-1.1 1.1l1.8.9c-.3.4-.4.7-.6 1.2-1.3-.6-1.9-.9-2.9-1.7v.7H205v-.8c-1 .8-1.7 1.2-3 1.9-.2-.5-.4-.8-.6-1.1.9-.3 1.4-.6 2.3-1.2-.6-.6-1-.9-1.6-1.4l.9-.8c.7.5 1.2.9 1.7 1.5.6-.5.8-.7 1.1-1.2h-2.3v-1.2c.3 0 .5.1 1 .1h3.3c.1.5.3.8.8 1.4.4-.5.8-.9 1-1.3l1 .7c-.3.4-.8 1-1.2 1.4.3.3.4.4.7.6.5-.5.9-1 1.2-1.4l1 .3zm-7.3 7.4c-.1-.3-.3-.7-.5-1l1.1-.4h-2.2v-3.2h7.5v3.2h-2.1l1 .4c-.2.4-.5.9-.6 1h2.1c.6 0 .8 0 1.2-.1v1.3c-.4 0-.7-.1-1.2-.1H203c-.6 0-.9 0-1.2.1v-1.3c.3 0 .6.1 1.2.1h2zm-.3-2.4h4.9v-1h-4.9v1zm3.8-3.7h.3c-.6-.6-1.1-1.1-1.7-1.9-.5.8-1 1.3-1.7 1.9h3.1zm-.4 6.1c.3-.5.5-1 .6-1.4h-3c.3.5.4.9.6 1.4h1.8zm7.2-5.6h-.7v-.6c-.2.2-.3.3-.6.5-.2-.5-.3-.7-.6-1.1 1-.7 1.7-1.6 2.1-2.6h1.3c.4.9.9 1.4 1.8 2-.3.4-.5.6-.7 1.1l-.1-.1v.9h-1v.8h1.4v-1c.3 0 .7.1 1.2.1h3v-.7h-3.5V140c.3 0 .5.1 1.1.1h2.4v-.7h-3.8v-1.2c.3 0 .7.1 1.2.1h3.9c0 .3 0 .3-.1 1.2 0 .6-.1 1.7-.1 2.3h.1c.5 0 .8 0 1.2-.1v1.2c-.3 0-.7-.1-1.1-.1H222c.1.7.2 1 .6 1.8.5-.5.8-.9 1.2-1.4l1 .7c-.6.7-1.1 1.3-1.6 1.7.5.7 1 1.2 1.8 1.7-.3.4-.5.7-.7 1.2-.8-.7-1.1-1-1.5-1.5-.4-.6-.6-1-.9-1.9 0 .2 0 .7.1 1.3v1.5c0 .8-.3 1.1-1.3 1.1h-1.1c0-.6-.1-.8-.3-1.2.4.1.7.1.9.1.4 0 .5 0 .5-.3v-1.1c-.4.3-.5.4-.9.7-.2.1-.2.1-1 .7-.2.1-.2.1-.4.3l-.4-.9v.5c-1.2.4-2.1.6-3.2.9-.6.1-.6.1-.9.2l-.2-1.3c.5 0 .9-.1 1.9-.3v-3.4h-.6c-.5 0-.9 0-1.2.1v-1.2c.3 0 .7.1 1.2.1h.6v-.8h-.3v-.2zm-.9 5c-.1-.8-.2-1.4-.5-2.3l.9-.3c.3.8.4 1.3.5 2.3l-.9.3zm1-6.1h2.2c-.5-.5-.9-1-1.3-1.7-.4.7-.7 1.2-1.2 1.7h.3zm3.9 2h-1.1v1c-.3 0-.5-.1-.9-.1h-.5v3.1c.5-.1.7-.2 1.3-.4v.3c1-.5 1.8-1 2.7-1.7v-2.3l-1.5.1zm-2.4 3.3c.3-.7.4-1.2.5-2l.9.3c-.2.8-.3 1.3-.6 1.9l-.8-.2zm2.5-3c.6.8.7 1 1 1.8l-.9.6c-.3-.8-.6-1.3-1.1-1.9l1-.5z"/></g><path id="prefix__パス_627" class="st2" d="M72.9 109.4l-15.4 8.1-.5 3c-.7 4.3-3.4 7.8-6 7.8v2h28.3v-2l-6.4-18.9z"/><path id="prefix__パス_628" class="st3" d="M78.1 120.6l-1.8-11.2-8.7-8.1-8.7 8.1-1.3 8.2H73l.5 3c.7 4.3 3.4 7.8 6 7.8l2.3 2 2.3-2c-2.7 0-5.3-3.5-6-7.8z"/><path id="prefix__パス_629" class="st3" d="M91.6 132.5H43.4c-.6 0-1.2-.9-1.2-2s.5-2 1.2-2h48.3c.6 0 1.2.9 1.2 2s-.6 2-1.3 2z"/><path id="prefix__パス_630" class="st4" d="M126.8 17.5h-8.1v91.9h8.1c4.5 0 8.1-3.7 8.1-8.1V25.7c.1-4.5-3.6-8.2-8.1-8.2z"/><path id="prefix__パス_631" class="st2" d="M118.7 17.5H8.1c-4.5 0-8.1 3.7-8.1 8.1v75.6c0 4.5 3.7 8.1 8.1 8.1h110.6c4.5 0 8.1-3.7 8.1-8.1v-8.1L67.5 54.4l59.3-28.7c0-4.5-3.6-8.2-8.1-8.2z"/><g id="prefix__グループ_1543" transform="translate(-.151)"><path id="prefix__パス_632" d="M126.8 25.7h-8.1L67.5 54.4l51.2 38.7h8.1V25.7z" fill="#d3dfff"/><path id="prefix__パス_633" d="M118.7 25.7H8.2v67.4h110.5V25.7z" fill="#f4f4f7"/></g><circle id="prefix__楕円形_158" cx="127" cy="101.2" r="2" fill="#85cf75"/><circle id="prefix__楕円形_159" class="st4" cx="118.9" cy="101.2" r="2"/><g id="prefix__グループ_1544"><path class="st1" d="M518.4 331.8h-.6V329h.6c1.5-.1 2.7-1.4 2.6-2.9-.1-1.4-1.2-2.5-2.6-2.6-.8 0-1.5.4-2 1l-.1.1-2.8 2.9v-1.3c-.1-1.4-1.3-2.6-2.7-2.5-1.4.1-2.6 1.3-2.5 2.7.1 1.4 1.2 2.5 2.6 2.5h.6v2.9h-.6c-1.5-.1-2.8 1.1-2.9 2.6s1.1 2.8 2.6 2.9c1.5.1 2.8-1.1 2.9-2.6v-1.4l2.8 2.9.1.2c.5.6 1.2 1 2 1 1.5-.1 2.7-1.4 2.6-2.9 0-1.5-1.2-2.6-2.6-2.7zm-.6-5.6c0-.3.3-.6.6-.5.3 0 .6.3.5.6 0 .3-.3.5-.6.5h-.6l.1-.6zm-6.3 8.4c0 .3-.3.6-.6.5-.3 0-.6-.3-.5-.6 0-.3.3-.5.6-.5h.6v.6h-.1zm0-7.8h-.6c-.3 0-.6-.2-.6-.6 0-.3.2-.6.6-.6.3 0 .6.2.6.6v.6zm4.3 1.4v4.5l-2.1-2.2 2.1-2.3zm2.6 7c-.3 0-.6-.3-.6-.6v-.6h.6c.3 0 .6.3.5.7 0 .2-.2.4-.5.5z" transform="translate(-446.327 -287.027)"/><g class="st0"><path class="st8" d="M476.9 352v-10h2v4.5l4.1-4.5h2.7l-3.8 3.9 4 6.1h-2.6l-2.8-4.7-1.6 1.7v3h-2zm16.7 0h-1.9v-3.7c0-.8 0-1.3-.1-1.5-.1-.2-.2-.4-.4-.5s-.4-.2-.7-.2c-.3 0-.6.1-.9.3s-.4.4-.5.7-.1.9-.1 1.7v3.3h-2v-7.3h1.8v1.1c.6-.8 1.4-1.2 2.4-1.2.4 0 .8.1 1.2.2.4.2.6.3.8.6s.3.5.4.8.1.7.1 1.3v4.4zm1.5-3.7c0-.6.2-1.3.5-1.9s.8-1.1 1.3-1.4 1.2-.5 1.9-.5c1.1 0 2 .4 2.7 1.1.7.7 1.1 1.6 1.1 2.7s-.4 2-1.1 2.7c-.7.7-1.6 1.1-2.7 1.1-.7 0-1.3-.2-1.9-.5s-1.1-.7-1.4-1.3c-.2-.5-.4-1.2-.4-2zm2 .1c0 .7.2 1.3.5 1.7s.8.6 1.3.6.9-.2 1.3-.6.5-.9.5-1.7c0-.7-.2-1.3-.5-1.6s-.8-.6-1.3-.6-.9.2-1.3.6-.5.9-.5 1.6zm8.3 3.6l-2.3-7.3h1.9l1.4 4.8 1.3-4.8h1.9l1.2 4.8 1.4-4.8h1.9l-2.3 7.3H510l-1.3-4.7-1.2 4.7h-2.1zm9.6 0v-10h1.9v10H515zm8.1-2.3l1.9.3c-.2.7-.6 1.2-1.2 1.6-.5.4-1.2.6-2 .6-1.3 0-2.2-.4-2.8-1.2-.5-.7-.7-1.5-.7-2.5 0-1.2.3-2.1.9-2.8.6-.7 1.4-1 2.4-1 1.1 0 1.9.4 2.6 1.1.6.7.9 1.8.9 3.3h-4.8c0 .6.2 1 .5 1.3.3.3.7.5 1.1.5.3 0 .6-.1.8-.2s.3-.6.4-1zm.1-1.9c0-.6-.2-1-.4-1.3-.3-.3-.6-.4-1-.4s-.8.2-1 .5-.4.7-.4 1.2h2.8zm10.1 4.2h-1.8v-1c-.3.4-.6.7-1 .9-.4.2-.8.3-1.2.3-.8 0-1.5-.3-2.1-1-.6-.7-.9-1.6-.9-2.8 0-1.2.3-2.2.9-2.8.6-.6 1.3-1 2.2-1 .8 0 1.5.3 2.1 1V342h1.9v10zm-5.1-3.8c0 .8.1 1.3.3 1.7.3.5.7.8 1.3.8.4 0 .8-.2 1.1-.6.3-.4.5-.9.5-1.7 0-.8-.2-1.4-.5-1.8-.3-.4-.7-.5-1.2-.5s-.8.2-1.1.5c-.3.4-.4.9-.4 1.6zm6.8 4.3l2.2.3c0 .3.1.4.3.5.2.1.5.2.9.2.5 0 .9-.1 1.1-.2.2-.1.3-.3.4-.5.1-.2.1-.5.1-.9v-1.1c-.6.8-1.3 1.2-2.2 1.2-1 0-1.7-.4-2.3-1.2-.4-.7-.7-1.5-.7-2.4 0-1.2.3-2.1.9-2.8s1.3-1 2.2-1c.9 0 1.6.4 2.2 1.2v-1h1.8v6.5c0 .9-.1 1.5-.2 1.9s-.3.8-.6 1-.6.4-1 .6-1 .2-1.6.2c-1.2 0-2.1-.2-2.6-.6-.5-.4-.8-1-.8-1.6-.1-.1-.1-.2-.1-.3zm1.7-4.3c0 .8.1 1.3.4 1.7.3.4.7.5 1.1.5.5 0 .9-.2 1.2-.5.3-.4.5-.9.5-1.6 0-.8-.2-1.3-.5-1.7s-.7-.5-1.2-.5-.8.2-1.1.5c-.2.4-.4.9-.4 1.6zm11.3 1.5l1.9.3c-.2.7-.6 1.2-1.2 1.6-.5.4-1.2.6-2 .6-1.3 0-2.2-.4-2.8-1.2-.5-.7-.7-1.5-.7-2.5 0-1.2.3-2.1.9-2.8.6-.7 1.4-1 2.4-1 1.1 0 1.9.4 2.6 1.1.6.7.9 1.8.9 3.3h-4.8c0 .6.2 1 .5 1.3.3.3.7.5 1.1.5.3 0 .6-.1.8-.2s.3-.6.4-1zm.1-1.9c0-.6-.2-1-.4-1.3-.3-.3-.6-.4-1-.4s-.8.2-1 .5-.4.7-.4 1.2h2.8z" transform="translate(-446.327 -287.027)"/></g><g class="st0"><path class="st8" d="M498.4 357h4c.8 0 1.4 0 1.8.1.4.1.7.2 1 .4s.6.5.8.8c.2.3.3.7.3 1.2s-.1.9-.4 1.3-.6.7-1 .9c.6.2 1.1.5 1.4.9s.5.9.5 1.5c0 .5-.1.9-.3 1.3-.2.4-.5.8-.9 1-.4.3-.8.4-1.4.5-.3 0-1.2.1-2.4.1h-3.4v-10zm2.1 1.7v2.3h2.8c.3 0 .6-.2.8-.4.2-.2.3-.5.3-.8 0-.3-.1-.6-.3-.8-.2-.2-.4-.3-.8-.4h-2.8zm0 4v2.7h1.9c.7 0 1.2 0 1.4-.1.3-.1.5-.2.7-.4.2-.2.3-.5.3-.9 0-.3-.1-.6-.2-.8s-.4-.4-.6-.5-.9-.1-1.8-.1h-1.7zm9.5-.7l-1.7-.3c.2-.7.5-1.2 1-1.6s1.2-.5 2.1-.5c.9 0 1.5.1 1.9.3.4.2.7.5.9.8.2.3.3.9.3 1.7v2.2c0 .6 0 1.1.1 1.4.1.3.2.6.3 1H513c-.1-.1-.1-.3-.2-.6 0-.1-.1-.2-.1-.2-.3.3-.7.6-1.1.7-.4.2-.8.2-1.2.2-.7 0-1.3-.2-1.8-.6s-.6-.9-.6-1.5c0-.4.1-.8.3-1.1.2-.3.5-.6.8-.7.4-.2.9-.3 1.5-.4.9-.2 1.5-.3 1.9-.5v-.2c0-.4-.1-.6-.3-.8-.2-.2-.5-.2-1-.2-.3 0-.6.1-.8.2-.2.1-.3.3-.4.7zm2.5 1.5c-.2.1-.6.2-1.2.3s-.9.2-1 .3c-.3.2-.4.4-.4.7 0 .3.1.5.3.7s.5.3.8.3c.3 0 .7-.1 1-.3.2-.2.4-.4.5-.6.1-.2.1-.5.1-.9v-.5zm10.4 3.5H521v-3.7c0-.8 0-1.3-.1-1.5-.1-.2-.2-.4-.4-.5s-.4-.2-.7-.2c-.3 0-.6.1-.9.3s-.4.4-.5.7-.1.9-.1 1.7v3.3h-1.9v-7.3h1.8v1.1c.6-.8 1.4-1.2 2.4-1.2.4 0 .8.1 1.2.2.4.2.6.3.8.6s.3.5.4.8.1.7.1 1.3v4.4zm1.9 0v-10h1.9v5.3l2.2-2.6h2.4l-2.5 2.7 2.7 4.6h-2.1l-1.8-3.3-.9.9v2.3h-1.9z" transform="translate(-446.327 -287.027)"/></g></g><circle id="prefix__楕円形_68" cx="320" cy="64" r="34" fill="#34be8e"/><path class="st1" d="M326.9 80.1s.2.1.5.2c-.3-.1-.5-.2-.5-.2l-16-.8c-.4.2-.8.5-1.2.7.4-.2.8-.5 1.2-.7l16 .8zm-20.9 2c1.2-.7 2.4-1.4 3.4-2-1 .7-2.2 1.3-3.4 2zm21.5-1.7s.1 0 .1.1l-.1-.1zm5.6 15c3.1-1.3 6-3.1 8.6-5.2-3.5-3.4-8.3-6.5-11.5-8.3 1.5 4.4 2.5 8.9 2.9 13.5zm-27.3-13.2c-3.1 1.8-6.5 3.8-9.4 6.2 2.4 2.4 5.2 4.3 8.3 5.9.4-5.1.9-10 1.1-12.1z"/><path class="st10" d="M305.8 82.2c.1 0 .1-.1.2-.1-.1.1-.1.1-.2.1zm24.4-.3c-1.1-.7-2-1.1-2.6-1.4.6.2 1.5.7 2.6 1.4zm-20.8-1.7c.1-.1.2-.1.3-.2-.1 0-.2.1-.3.2zm18 .1z"/><path class="st10" d="M327.6 80.4s-.1 0-.1-.1h-.1c-.3-.2-.5-.2-.5-.2l-16-.8c-.4.2-.8.5-1.2.7-.1.1-.2.1-.3.2-1.1.6-2.2 1.3-3.4 2-.1 0-.1.1-.2.1-.2 2-.7 7-1.1 12.1 4.6 2.3 9.8 3.6 15.3 3.6 4.7 0 9.1-.9 13.1-2.6-.5-4.6-1.4-9.1-2.9-13.5-1.1-.7-2-1.2-2.6-1.5z"/><path id="prefix__パス_222" class="st11" d="M311 67.1l-.1 12.2s3.8 4.2 9 3.6 7-2.8 7-2.8l.4-12.9-16.3-.1z"/><g id="prefix__グループ_1341" transform="translate(41.125 16.082)"><g id="prefix__グループ_1340"><path id="prefix__パス_223" class="st11" d="M287.8 43.4s2.5-.6 2.7 2.7c.2 1.4-.7 2.7-2.1 2.9h-.9l.3-5.6z"/></g></g><g id="prefix__グループ_1343" transform="translate(20.071 16.082)"><g id="prefix__グループ_1342"><path id="prefix__パス_224" class="st11" d="M290.2 43.4s-2.5-.6-2.7 2.7c-.2 1.4.7 2.7 2.1 2.9h.9l-.3-5.6z"/></g></g><g id="prefix__グループ_1345" transform="translate(22.785 6.974)"><g id="prefix__グループ_1344"><path id="prefix__パス_225" d="M306.1 56.4c0 7-4.7 12.5-9.1 12.4s-9.5-5.7-9.5-12.7.4-12.8 9.5-12.6c10.6.1 9.1 5.9 9.1 12.9z" fill="#f4ae87"/></g></g><path id="prefix__パス_226" d="M310.3 61.8c-1.4-1.1-2.2-2.7-2.3-4.5-.1-1.4.2-2.7.7-4-.3-1.3 0-2.7.9-3.6.6-1.8 1.9-3.4 3.5-4.5 2.8-1.4 6-2 9.2-1.7 2 .3 4.6 1 4.6 1s6.3-.8 6.5-.2-1.6 4.7-1.6 4.7.4-.6.6-.2-.7 3.4-1.6 5.1c.2.7.2 1.5.1 2.3-.5 1.6-1.1 3.1-2 4.5 0 0-.3-1.9-.7-3.4-.5-2.4-2.1-4.2-2.2-5.1-1.9.5-3.9.8-6 .8s-4.1-.3-6.2-.8c-.9 1.5-1.7 3-2.4 4.7-.4 1.7-1.1 4.9-1.1 4.9z" fill="#faf8dc"/><g id="prefix__グループ_1347" transform="translate(30.065 18.224)"><g id="prefix__グループ_1346"><path id="prefix__パス_227" class="st14" d="M289.6 43.4l-2.1 5 1.6.5c.3.1.7.1 1 0l1.6-.5-2.1-5z"/></g></g><g id="prefix__グループ_1349" transform="translate(26.457 18.145)"><g id="prefix__グループ_1348"><circle id="prefix__楕円形_69" class="st15" cx="288" cy="43.9" r=".5"/></g></g><g id="prefix__グループ_1351" transform="translate(36.727 18.145)"><g id="prefix__グループ_1350"><path id="prefix__パス_228" class="st15" d="M288.6 43.9c0 .3-.2.5-.5.5s-.5-.2-.5-.5.2-.5.5-.5c.2 0 .5.2.5.5z"/></g></g><g id="prefix__グループ_1353" transform="translate(24.322 20.529)"><g id="prefix__グループ_1352"><circle id="prefix__楕円形_70" class="st14" cx="289.8" cy="45.7" r="1.8"/></g></g><g id="prefix__グループ_1355" transform="translate(36.008 21.072)"><g id="prefix__グループ_1354"><circle id="prefix__楕円形_71" class="st14" cx="289.2" cy="45.2" r="1.8"/></g></g><g id="prefix__グループ_1358" transform="translate(29.307 25.075)"><g id="prefix__グループ_1357"><g id="prefix__グループ_1356"><path id="prefix__パス_229" d="M287.5 43.8c0 1 1.2 1.9 2.8 1.9s2.8-.8 2.8-1.8-1.1 0-2.7 0-2.9-1.1-2.9-.1z" fill="#fff"/></g></g></g><g id="prefix__グループ_1762" transform="translate(-42 26)"><path id="prefix__パス_635" class="st8" d="M284.6-1l10.9 5.2-10.9 5.6V-1z"/><path id="prefix__長方形_2490" class="st8" d="M198 3h87v3h-87V3z"/></g><g id="prefix__グループ_1763" transform="translate(902 4344)"><path id="prefix__パス_635-2" class="st8" d="M-735.1-4249l-10.9 5.2 10.9 5.6v-10.8z"/><path id="prefix__長方形_2490-2" class="st8" d="M-735.6-4245h87v3h-87v-3z"/></g><g class="st0"><path class="st1" d="M171.8 9c-.6-.1-1.1-.1-1.8-.1h-7.1c-.7 0-1.3 0-1.8.1V7.4c.5.1 1.1.1 1.8.1h7.1c.8 0 1.4 0 1.8-.1V9zm7.4-5.9c0 .2-.1.8-.1 1.2 0 1.9.3 3.2 1.2 4.7.5.9 1 1.5 1.9 2.3.7.6 1.1.9 1.9 1.3-.5.5-.6.8-.9 1.3-1.5-1-2.2-1.7-3-2.8-.7-1-1.2-1.9-1.6-3.3-.2 1-.4 1.5-.9 2.4-.5.9-1 1.5-1.8 2.3-.6.6-1 .9-1.9 1.4-.3-.6-.5-.9-.9-1.2 1.2-.6 1.9-1.1 2.6-2 1.5-1.8 2.2-3.7 2.2-6.6v-1h1.3zm5.7 1.5h.5c.2 0 .2 0 2-.1.9 0 2.9-.2 6.1-.3 1 0 1 0 1.2-.1l.1 1.5h-.3c-.7 0-1.6.2-2.4.6-1.5.8-2.4 2-2.4 3.2 0 .9.6 1.7 1.6 2 .6.2 1.4.3 1.8.3h.2l-.2 1.6c-.2 0-.2 0-.4-.1-1.3-.2-2.1-.4-2.8-.8-1.1-.6-1.7-1.6-1.7-2.9 0-1 .4-2 1.1-2.8.5-.5.9-.8 1.7-1.2-1 .1-1.7.2-4 .4-1.1.1-1.6.2-2 .2l-.1-1.5zm8.3 2.3c.5.6.9 1 1.3 1.8l-.8.4c-.4-.7-.7-1.2-1.3-1.8l.8-.4zm1.8 1.5c-.4-.7-.8-1.2-1.2-1.7l.8-.4c.5.6.9 1 1.2 1.7l-.8.4zm8.5-3.3v-.7c0-.9 0-1.1-.1-1.5h1.4c0 .3-.1.6-.1 1V5h2.4c0 .4 0 .7-.1 1.5-.1 2.3-.2 3.9-.5 4.6.4.1.6.2.9.2-.1 1.2-.3 1.8-.8 2.1-.4.3-1.2.3-3.5.3-1.9 0-2.3 0-2.8-.2-.5-.1-.7-.4-.7-1v-3h-.6c-.1 1.1-.1 1.4-.3 2-.2.7-.6 1.3-1.1 1.8-.2.2-.4.4-.8.7-.2-.4-.5-.7-.9-1.1 1-.7 1.3-1.1 1.6-1.9.2-.5.2-.8.2-1.5h-1.1V6.9l-.3.3c-.1-.4-.3-.8-.5-1.2.6-.5.9-.8 1.3-1.4.4-.6.7-1.2.8-1.8l1.4.2c0 .1 0 .1-.1.2 0 0 0 .1-.1.2 0 .1 0 .1-.1.3h1.9l.5.6c-.1.1-.2.3-.3.5-.3.5-.6 1-.8 1.3h1.7v-1h1.5zm-4.2.9c.3-.4.6-.8.7-1.2h-1.3c-.3.4-.5.7-.9 1.2h1.5zM198 8.4h1.1V7.1H198v1.3zm2.1 0h1.1V7.1h-1.1v1.3zm4.5-2.1c-.1.9-.3 2-.5 2.8-.4 1.3-.9 2.1-2 3.2-.2-.3-.5-.6-.9-1 .6-.5.9-.9 1.2-1.5.5-.9.8-2 .9-3.5h-1.1v3.3h-1.4v2.6c0 .4.2.5 2.1.5 1.8 0 2.5 0 2.7-.2.2-.1.3-.3.4-.8-.3.2-.6.2-1.1.2h-1c0-.6-.1-.8-.2-1.2.6.1.9.1 1.2.1s.5-.2.6-.7c.1-1.1.2-1.9.2-3.7l-1.1-.1zm6.5 2.3h.8v.6c-.1 1.8-.1 2.3-.3 3.2-.2.7-.4 1.1-.8 1.3-.2.1-.5.2-1 .2h-1c0-.6-.1-.8-.3-1.3.4.1.9.1 1.2.1.4 0 .6-.1.7-.3.2-.5.3-1.3.3-2.5h-2.2c.2-1 .3-2.4.4-3.8h1.9V4.5h-2.2V3.3c.3.1.6.1 1.1.1h2.4v3.7H210c-.1 1-.1 1-.1 1.5h1.2zm3.9-2.3c-1.6.1-2.5.1-2.6.2l-.1-1.3h.9c.6-.9.8-1.5 1.1-2.3l1.4.3c-.1.3-.1.3-.4.8-.2.4-.4.7-.7 1.2.9 0 1.7-.1 2.5-.2-.3-.4-.5-.6-.9-1.1l1-.5c.8.9 1.5 1.7 2.2 2.7l-1 .7c-.2-.4-.3-.5-.5-.8-.7.1-1.1.1-1.6.2v1h2.6v3.5h-2.6v1.4c.6-.1.6-.1 1.3-.2-.1-.2-.2-.4-.4-.7l1-.4c.7 1.1.9 1.5 1.4 2.7l-1.1.5c-.2-.6-.3-.8-.4-1.1-1.5.2-3.5.5-5 .7-.6.1-.6.1-.8.1l-.2-1.4h.4c.5 0 1.6-.1 2.7-.1v-1.5h-2.4V7.2h2.5v-.9h-.3zm-1.3 2v1.3h1.3V8.3h-1.3zm2.5 1.3h1.4V8.3h-1.4v1.3zm8-1.2c0 .8-.6 1.4-1.4 1.4-.8 0-1.4-.6-1.4-1.4 0-.8.6-1.4 1.4-1.4.7 0 1.4.6 1.4 1.4zm4.5 4c0 .6 0 1.1.1 1.5h-1.4c0-.4.1-.9.1-1.5V9.1c-.3.4-.5.6-.9.9-.1-.5-.3-.9-.6-1.3.8-.6 1.4-1.3 2-2.2.3-.4.5-.7.5-.9l1.1.7c-.1.1-.1.1-.2.3 0 0 0 .1-.1.1l-.1.2c-.1.2-.3.4-.6.8l.1 4.7zm1-8.9l-.2.2c-1 1.2-1.6 1.8-2.7 2.5-.2-.5-.3-.7-.7-1.1.6-.3.9-.5 1.3-.9.6-.6 1-1 1.2-1.5l1.1.8zm6.7 6.8l-.4.4c-.5.5-.9.9-1.5 1.4 1 .3 1.9.5 3 .6-.3.4-.4.8-.5 1.3-1.7-.3-2.6-.6-3.7-1.1-1.2.6-2.3.9-3.8 1.1-.1-.4-.3-.7-.5-1.2 1.3-.1 2.1-.3 3.2-.7-.4-.3-.6-.5-1.1-1-.4.3-.7.5-1.4.9-.2-.4-.4-.7-.7-1 1.2-.5 1.9-1 2.5-1.8h-1.1v-3c-.1.1-.2.2-.3.4-.4-.5-.6-.7-1-.9.9-.7 1.7-2 1.9-2.9l1.4.3c-.1.2-.2.3-.4.6h3.6c.7 0 1.1 0 1.5-.1v1.3c-.3 0-.8-.1-1.4-.1h-4.3c-.1.2-.2.3-.3.5h5.2v4h-3.5c-.2.2-.2.3-.4.5h3.2l.8.5zm-4.7-3.5h3.4v-.5h-3.4v.5zm0 1.4h3.4v-.5h-3.4v.5zm.4 2.4c.3.3.7.6 1.2.9.4-.2.7-.4 1.2-.9h-2.4zm16.4-3.5c0 .6-.1.8-.3 1-.2.2-.6.2-1.3.2h-.9c0-.4-.1-.7-.2-1-.5.2-.7.3-1.2.5-.2.1-.2.1-.3.1-.3.5-.3.6-.5.9h3.8v3.9c0 .7 0 1 .1 1.4h-1.4v-.5h-5.4v.4h-1.4c.1-.4.1-.7.1-1.4V8.7h2.9c.1-.2.1-.2.4-.6-.3.1-.6.1-1.1.1h-.8c0-.4-.1-.7-.3-1-.6.3-1 .5-1.6.7-.3.1-.3.1-.5.2l-.4-1.1c.9-.1 2.1-.6 3.4-1.3v1.1l-.8.4h.6c.6 0 .6 0 .6-.3V4.3h-2.6c.6.3 1 .6 1.6 1.1l-.9.8c-.5-.5-.8-.7-1.6-1.1l.8-.7h-.1c-.5 0-.8 0-1.1.1V3.1c.4 0 .8.1 1.3.1h3.7v3.9c0 .3 0 .4-.1.6l.7.1-.3-1c.9-.1 1.9-.5 3.2-1.2v1.1c-.4.2-.5.3-.8.4h.7c.5 0 .6 0 .6-.3V4.3h-2.7c.8.4 1 .6 1.6 1.1l-.8.8c-.6-.5-.9-.8-1.6-1.1l.7-.7c-.4 0-.6 0-1 .1V3.1c.4.1.8.1 1.4.1h3.6v3.9h.2zm-7.7 3.5h5.4v-.8h-5.4v.8zm0 1.8h5.4v-.9h-5.4v.9z"/></g></svg>