<svg version="1.1" id="レイヤー_1" xmlns="http://www.w3.org/2000/svg" x="0" y="0" viewBox="0 0 140 140" xml:space="preserve"><style>.st2{fill:#7fd4bf}.st3{fill:#e8a181}.st5{fill:#de4e31}.st6{fill:#002245}</style><circle id="prefix__楕円形_64_1_" cx="70" cy="70" r="70" fill="#f3ba18"/><path d="M114.6 124c-.1-.1-.2-.3-.3-.4-8.6-9.8-19.6-14.7-23.5-20.1S56.6 101 56.6 101c-9.5 6.4-24.3 3.3-33.3 15.5-.6.8-1.2 2.2-1.7 4C34.2 132.6 51.2 140 70 140c16.9 0 32.5-6 44.6-16z" fill="#34be8e"/><path id="prefix__パス_187_1_" class="st2" d="M73.9 108.7c-.5-1.1-2.4-1.4-2.4-1.4s-1.1 1.6-.6 2.7 1.6 1.8 2.4 1.4c.9-.6 1.2-1.8.6-2.7z"/><path id="prefix__パス_188_1_" class="st2" d="M94.4 132.6c-.5 1-.1 2.1.8 2.6.9.3 1.9-.4 2.3-1.6s-.8-2.6-.8-2.6-1.9.4-2.3 1.6z"/><path id="prefix__パス_189_1_" class="st2" d="M49.7 117.1c0-1.2-1.6-2.3-1.6-2.3s-1.6 1-1.7 2.2.7 2.2 1.6 2.3 1.7-.9 1.7-2.2z"/><path id="prefix__パス_190_1_" class="st2" d="M76.7 135.4c.5-1 .1-2.1-.8-2.7-.9-.3-1.9.4-2.3 1.6s.8 2.7.8 2.7 1.8-.4 2.3-1.6z"/><path id="prefix__パス_196_1_" class="st2" d="M55.4 137.8c1-.4 1.5-1.5 1.2-2.5-.2-1.2-2-1.9-2-1.9s-1.4 1.3-1.2 2.5 1.1 2.1 2 1.9z"/><path id="prefix__パス_197_1_" class="st2" d="M56.6 101.8c.1-.3.1-.5.1-.8h-.1c-.9.6-1.8 1.1-2.8 1.6.2.4.4.7.7 1 0 0 1.9-.6 2.1-1.8z"/><path id="prefix__パス_198_1_" class="st2" d="M91.3 104.3c.1.1.3.3.4.3-.2-.3-.5-.5-.7-.8.1.3.2.4.3.5z"/><path id="prefix__パス_199_1_" class="st2" d="M60.5 121.8s.8 1.7 2 1.9 2.3-.5 2.4-1.3-.8-1.7-2-1.9-2.4 1.3-2.4 1.3z"/><path id="prefix__パス_200_1_" class="st2" d="M108.6 118.5c.2.1.5.1.7.1-.8-.7-1.5-1.3-2.3-1.9.3.8.9 1.5 1.6 1.8z"/><path id="prefix__パス_202_1_" class="st2" d="M88.1 120.8c.1-.9-.7-1.8-2-2s-2.5 1.3-2.5 1.3.7 1.8 2 2c1 .3 2.1-.3 2.5-1.3z"/><path class="st2" d="M31.4 114.3c-.4-.6-1.1-1.1-1.9-1.2v3.8c.4.3 1 .4 1.5.1.7-.6 1-1.8.4-2.7zm-2.5-1.3s-1 1.6-.5 2.7c.2.5.6.9 1 1.1V113c-.1.1-.3 0-.5 0z"/><path id="prefix__パス_211_1_" class="st3" d="M60.2 84.7c-.1 5.6-1.3 11.2-3.6 16.3 0 0 6.7 9.5 16.5 8.8 6.3-.6 12.4-2.8 17.6-6.4-1.1-12.6-.7-25.2 1.1-37.7l-31.6 19z"/><path id="prefix__パス_212_1_" d="M49.7 49.9c.5 11.8 4.7 40.8 18.8 41.8s23.3-26 23.3-26 2.6-29.2-14.5-31.8-28.2 1.6-27.6 16z" fill="#f4ae87"/><g id="prefix__グループ_1325_1_" transform="translate(42.365 37.781)"><g id="prefix__グループ_1324_1_"><path id="prefix__パス_215_1_" class="st5" d="M20 25.3L22.6 36l-3.9 1.4c-1 .4-2-.8-1.6-2L20 25.3z"/></g></g><g id="prefix__グループ_1327_1_" transform="translate(55.743 35.355)"><g id="prefix__グループ_1326_1_"><path id="prefix__パス_216_1_" class="st6" d="M19.4 26.4c0 .6-.5 1.1-1.1 1.1s-1.1-.5-1.1-1.1.5-1.1 1.1-1.1c.5 0 1.1.5 1.1 1.1z"/></g></g><g id="prefix__グループ_1329_1_" transform="translate(35.715 37.858)"><g id="prefix__グループ_1328_1_"><circle id="prefix__楕円形_65_1_" class="st6" cx="18.2" cy="26.4" r="1.1"/></g></g><g id="prefix__グループ_1331_1_" transform="translate(55.081 41.332)"><g id="prefix__グループ_1330_1_"><circle id="prefix__楕円形_66_1_" class="st5" cx="21.4" cy="29.6" r="3.8"/></g></g><g id="prefix__グループ_1333_1_" transform="translate(71.426 26.345)"><g id="prefix__グループ_1332_1_"><path id="prefix__パス_218_1_" class="st3" d="M17.1 25.6s5.1-2.2 6.5 4.8-5.2 7.1-5.2 7.1l-1.3-11.9z"/></g></g><g id="prefix__グループ_1335_1_" transform="translate(44.015 52.161)"><g id="prefix__グループ_1334_1_"><path id="prefix__パス_219_1_" class="st5" d="M17.1 26.9c.8-.9 1.8-1.4 2.9-1.6 1.5-.2 3.1.1 4.5.7-.6 1.2-1.8 2.1-3.2 2.1-1.5.2-3-.3-4.2-1.2z"/></g></g><path id="prefix__パス_217" d="M79.4 36.9s-1 4.4-5.2 5.4-5.4-2.4-8.6.1-.8 3.7-4 5.7-5-1.1-7.6 1.4-16.1-3.3-16-7.4 3.4-8.7 7.7-8.7c5.2 0 7.4-2 9.6-4.6s6.7-3.4 11.6-.9c4.7 2.4 4.3-2.1 9.3-2.6 3.9-.4 8.6 3.4 8.6 6.7 0 0 6.9-1.2 10 4s3 16.7-1.2 21c0 0-1.7-6.5-4.4-5.3-2 .9-1.2 4.1-.5 6.4.4 1.2.5 2.4.2 3.6l-1.9.7s-.1-4.9-2.2-7.1-7.3-4.8-7.4-8.4 2-10 2-10z" fill="#19324b"/></svg>