<svg version="1.1" id="レイヤー_1" xmlns="http://www.w3.org/2000/svg" x="0" y="0" viewBox="0 0 367 197" xml:space="preserve"><style>.st0{fill:#373943}.st1{enable-background:new}.st2{fill:#2962ff}.st3{fill:#faf8dc}.st4{fill:#e85f5b}.st6{fill:#e8a181}.st7{fill:#f4ae87}.st8{fill:#fff}.st9{fill:#de4e31}.st11{fill:#34be8e}.st13{fill:#57697d}.st14{fill:#233952}.st15{fill:#3d5168}.st19{fill:#002245}</style><path id="prefix__パス_634" class="st0" d="M85.3 47l11.4 4L93 39.3 85.3 47z"/><path id="prefix__パス_635" class="st0" d="M281.7 47l-11.4 4 3.7-11.7 7.7 7.7z"/><path id="prefix__パス_636" class="st0" d="M85.3 141l11.4-4-3.7 11.7-7.7-7.7z"/><path id="prefix__パス_637" class="st0" d="M281.7 141l-11.4-4 3.7 11.7 7.7-7.7z"/><g class="st1"><path class="st2" d="M145.6 186c1 0 1.3 0 1.8-.1v1.8c-.5-.1-.9-.1-1.8-.1h-2.9c-.1 1.9-.4 2.9-1 4-.8 1.3-1.8 2.1-3.6 3.1-.5-.8-.7-1.1-1.3-1.5 1.7-.7 2.7-1.6 3.4-2.8.4-.8.6-1.4.7-2.8h-3.5c-.9 0-1.3 0-1.8.1v-1.8c.5.1.9.1 1.8.1h3.5v-1.9c0-.6 0-1-.1-1.3h1.9c-.1.4-.1.5-.1 1.3v1.9h3zm6.4-3c-.1.4-.1.7-.1 1.4l-.1 8c1.5-.3 2.8-.8 3.8-1.5 1.3-.9 2.2-1.8 2.9-3.2.5.7.7.9 1.3 1.4-1 1.5-1.9 2.4-3.1 3.3-1.4.9-2.8 1.5-5.1 1.9-.4.1-.5.1-.8.2l-.9-1.1c.1-.4.1-.6.1-1.4l.1-7.6c0-1 0-1-.1-1.4h2zm11.1 2.9c.6 1.1.9 1.8 1.4 3.3l-1.6.5c-.4-1.4-.6-2.2-1.3-3.4l1.5-.4zm8.1.1c-.1.2-.1.3-.2.7-.4 1.9-1 3.4-1.9 4.7-1 1.4-2.2 2.3-4.3 3.4-.4-.6-.5-.8-1.1-1.4 1-.4 1.6-.7 2.4-1.3 1.6-1.2 2.6-2.6 3.2-4.9.2-.7.3-1.2.3-1.6l1.6.4zm-5.1-.6c.7 1.4 1 2 1.4 3.2l-1.6.5c-.3-1.1-.7-2.1-1.3-3.3l1.5-.4zm7.9 1c1.3.5 2.7 1.2 3.7 1.9l-.9 1.6c-.9-.7-2.5-1.6-3.8-2l1-1.5zm-.6 6.3c1.1 0 2.6-.3 4-.9 2.6-.9 4.7-3.2 5.7-6.2.5.6.8.8 1.5 1.2-1.7 4.2-4.7 6.5-9.7 7.5-.6.1-.7.2-1 .2l-.5-1.8zm1.7-9.7c1.3.5 2.7 1.2 3.7 1.8l-.9 1.5c-1.1-.8-2.7-1.6-3.7-1.9l.9-1.4zm7.3-.3c.6.7 1 1.2 1.5 2.1l-1 .5c-.5-.9-.9-1.4-1.5-2.1l1-.5zm2.2 1.7c-.4-.8-.9-1.4-1.4-2l.9-.5c.6.6 1 1.2 1.5 2l-1 .5zm7.4 6.3c-.8 1.8-1.7 2.6-2.8 2.6-1.6 0-2.7-1.6-2.7-3.9 0-1.5.5-3 1.5-4.1 1.2-1.3 2.8-2 4.8-2 3.4 0 5.5 2 5.5 5.2 0 2.4-1.3 4.4-3.4 5.2-.7.3-1.2.4-2.2.6-.2-.7-.4-1-.9-1.6 1.3-.2 2.1-.4 2.8-.8 1.2-.7 1.9-2 1.9-3.5 0-1.3-.6-2.4-1.7-3.1-.4-.3-.8-.4-1.4-.4-.3 2.3-.7 4.3-1.4 5.8zm-2.1-5c-1.2.8-1.9 2.3-1.9 3.8 0 1.1.5 2.1 1.1 2.1.5 0 .9-.6 1.4-1.8.5-1.3 1-3.2 1.2-4.7-.7 0-1.2.2-1.8.6zm13.1-2.8c0-.3 0-.5-.1-.8h1.6c0 .3-.1.5-.1.8v.1h3.1v-.1c0-.3 0-.5-.1-.8h1.6c0 .3-.1.5-.1.8v.1h1.7c.7 0 1.2 0 1.6-.1v1.4c-.4-.1-.9-.1-1.6-.1H209c0 .2 0 .4.1.6h-1.5v-.6h-3.1v.6H203v-.6h-1.6c-.8 0-1.2 0-1.6.1V183c.4.1.9.1 1.6.1h1.6v-.2zm6.1 4.2c-.6.5-1.7 1.3-2.1 1.6 1.1 0 2-.1 2.5-.1-.3-.2-.4-.3-.9-.6l1.1-.8c1.1.8 1.9 1.5 2.8 2.4l-1.1 1c-.4-.5-.5-.7-.8-1-3.1.2-4.7.3-9.8.4-.3 0-.6 0-.8.1l-.2-1.4c.4.1 1.3.1 3.4.1h.7c-.5-.3-1.8-.8-2.5-1.1l.9-1c.7.3.8.4 1.3.6.3-.2.5-.4.9-.8h-2.9c-.7 0-1.2 0-1.6.1v-1.4c.4.1.9.1 1.6.1h3.6v-.8h1.5v.8h3.8c.7 0 1.3 0 1.6-.1v1.4c-.4 0-.9-.1-1.6-.1H208l1.1.6zm-8 4.5v-1.3h8.7c.7 0 1 0 1.4-.1v3.5c0 .5 0 .9.1 1.4h-1.5v-.5h-7.1v.5H201c0-.5.1-.9.1-1.4v-2.1zm1.5.4h2.8v-.6h-2.8v.6zm0 1.5h2.8v-.6h-2.8v.6zm3.6-6.9c-.5.5-1 .9-1.5 1.3.4.2.5.3.8.4.9-.6 1.7-1.2 2.1-1.7h-1.4zm.5 5.4h2.9v-.6h-2.9v.6zm0 1.5h2.9v-.6h-2.9v.6zm11.3-6.4h-1c.2.4.2.6.4.9.4.6.7 1 1.2 1.4-.3.3-.5.6-.7 1.1-.4-.5-.7-.9-1.1-1.7 0 .5 0 .5.1 1.7v3c0 .8 0 1.3.1 1.7h-1.6c.1-.5.1-1 .1-1.6v-2c0-.7 0-1.4.1-2.1-.3 1.1-.8 2-1.4 2.8-.2-.5-.4-.8-.8-1.3.6-.7 1-1.4 1.4-2.3.3-.6.4-1.1.5-1.6h-.6c-.5 0-.7 0-1.1.1v-1.5c.3.1.6.1 1.1.1h.7v-1.4c-.4.1-.6.2-1.3.3-.1-.5-.2-.7-.5-1.3 1.4-.2 2.4-.4 3.3-.8.3-.1.4-.2.6-.3l.8 1.2c-.1 0-.1 0-.2.1-.4.2-.6.3-1.2.4v1.8h.3c.4 0 .7 0 .9-.1v.5h3.2v-.5h-2.7v-1.1c.3 0 .6.1 1.1.1h1.6v-.5h-1.8c-.6 0-.8 0-1.2.1V183c.4.1.8.1 1.3.1h1.7c0-.4 0-.6-.1-.9h1.6c-.1.3-.1.5-.1.9h1.9c.5 0 1 0 1.4-.1v1.2c-.4-.1-.7-.1-1.2-.1h-2v.5h1.8c.5 0 .9 0 1.2-.1v1.1h-3v.5h2.3c.6 0 .9 0 1.3-.1v1.3c-.4-.1-.7-.1-1.3-.1h-5.8c-.5 0-.9 0-1.3.1v-.2zm1.9 5.9h-1.2c0-.4.1-.7.1-1.3v-4.2h7c0 .3-.1.6-.1 1.2v2.9c0 .7 0 1 .1 1.3H224c.9.4 1.7.7 2.8.9-.4.5-.5.8-.8 1.3-1.4-.4-2.2-.8-3.2-1.5l.6-.7h-2.6l.6.7c-1.1.8-1.8 1.1-3.2 1.5-.4-.8-.4-.8-.7-1.2 1.2-.2 1.8-.4 2.8-1h-.4v.1zm.2-3.8h4.1v-.5h-4.1v.5zm0 1.4h4.1v-.5h-4.1v.5zm0 1.4h4.1v-.5h-4.1v.5z"/></g><path id="prefix__パス_548" class="st3" d="M34 115c18.8 0 34 15.2 34 34s-15.2 34-34 34-34-15.2-34-34 15.2-34 34-34z"/><path class="st4" d="M42.4 169.1c-1-1.2-1.4-3.7-1.8-5.1-.2-.6-.7-1.1-1.4-1.1l-9.7-.4c-.5 0-.9.2-1.2.6-.9 1.2-2.3 4.1-4.4 5.7-2 1.6-7.1 3.6-10.5 7.2 5.7 4.4 12.9 7 20.6 7 6.2 0 12-1.7 17-4.6-.1-.2-.2-.5-.3-.7-2.4-4.4-5.6-5.2-8.3-8.6z"/><path id="prefix__パス_131" d="M37.8 130.8c-.2-2.2-2-5.5-5-5.4-2-.1-3.9 1-4.8 2.9-1.2 1.6-3.1 2.6-5.1 2.7-2 .3-3.4 2.2-3.1 4.3 0 .2.1.3.1.5.5 1.8-.4 3.7-2.1 4.6-1.6.9-3 3.4-1.8 5.6s2.3 3.1 1.5 5.8 2 5.3 4.3 4.6 2.9-.8 4 .1 2.7 2.7 5.1 1.6 6.9-27.3 6.9-27.3z" fill="#f3ba18"/><path id="prefix__パス_132" class="st6" d="M29.3 147.6c-.2 5.7-.4 16.5-.4 16.5 1.8.8 3.8 1.2 5.7 1.2 1.8 0 3.6-.1 5.4-.4l.3-6.6-11-10.7z"/><path id="prefix__パス_133" class="st7" d="M29.3 147.6c-.2 3.5 3.1 12.7 7.9 13.5 5.4.9 10-5.2 12.1-9.5 1.8-3.7 2.1-8 .9-12-1.3-4.2-9.8-5.3-14.3-3.4s-6.3 6.4-6.6 11.4z"/><g id="prefix__グループ_1256" transform="translate(33.809 28.184)"><g id="prefix__グループ_1255"><g id="prefix__グループ_1254"><path id="prefix__パス_134" class="st8" d="M4.1 125.7c-.3.9.6 2 1.9 2.4 1.4.4 2.7.1 3-.9.3-.9-1-.3-2.4-.8s-2.2-1.6-2.5-.7z"/></g></g></g><g id="prefix__グループ_1258" transform="translate(36.827 23.898)"><g id="prefix__グループ_1257"><path id="prefix__パス_135" class="st9" d="M6.1 125.4l-1.7 3.5 2 .7c.3.1.5-.1.5-.3l-.8-3.9z"/></g></g><g id="prefix__グループ_1260" transform="translate(32.022 21.325)"><g id="prefix__グループ_1259"><circle id="prefix__楕円形_48" cx="4.9" cy="125.9" r=".5"/></g></g><g id="prefix__グループ_1262" transform="translate(41.765 25.671)"><g id="prefix__グループ_1261"><circle id="prefix__楕円形_49" cx="4.9" cy="125.9" r=".5"/></g></g><g id="prefix__グループ_1264" transform="translate(29.061 23.761)"><g id="prefix__グループ_1263"><circle id="prefix__楕円形_50" class="st9" cx="6.1" cy="127" r="1.6"/></g></g><path id="prefix__パス_136" class="st9" d="M46.5 154.4c-.9 0-1.6.7-1.6 1.6 0 .5.2 1 .7 1.3.7-.8 1.4-1.7 2-2.6-.4-.2-.7-.3-1.1-.3z"/><path id="prefix__パス_137" d="M36.9 137.4c-1.8 1-3.4 2.3-4.7 3.9-1 1.5-1.8 3.3-2.1 5.1-1.5-1.9-2.2-4.3-1.9-6.7.9-5.1 5.1-8.9 10.3-9.2 5.3-.5 10.3 2.5 12.5 7.4 1.2 3.5 1.1 7.3-.5 10.6.2-2.3.3-4.5.1-6.8 0 0-2.2.5-6.4-.8-2.6-.8-5.1-2-7.3-3.5z" fill="#fcc860"/><g id="prefix__グループ_1266" transform="translate(22.784 16.889)"><g id="prefix__グループ_1265"><path id="prefix__パス_138" class="st6" d="M7.3 125.5s-2.2-1-2.9 2.1c-.4 1.2.3 2.6 1.5 3 .3.1.5.1.8.1l.6-5.2z"/></g></g><circle id="prefix__楕円形_55" class="st11" cx="34" cy="34" r="34"/><path d="M38.6 54.5c-1.6-1.5-12.7-5-12.7-5-4.4-1.8-9.5-.8-12.9 2.6l-.6.6c3.7 4.2 4.9 6.7 5 9.7v.3c0 .3 0 .6-.1.9C22.2 66.4 27.9 68 34 68c5.7 0 11.1-1.4 15.8-3.9-3.4-4.9-10-8.4-11.2-9.6z" fill="#fb5d51"/><path class="st7" d="M17.3 63.6c0-.3.1-.6.1-.9v-.3c-.1-3-1.3-5.5-5-9.7-.9 1.1-1.9 2.7-3 4.7 2.3 2.4 5 4.5 7.9 6.2z"/><path d="M17.3 63.6c0-.3.1-.6.1-.9 0 .3-.1.6-.1.9z"/><path id="prefix__パス_154" class="st7" d="M25.9 49.6c.9-3.4 1.4-6.9 1.7-10.5-1.4-3.5-3.2-7.2-4.2-10.2-2.5-7.8 2.6-12.7 8.5-13.7s9.4 3.5 11.9 11.5C47.4 38.3 39.6 41 39.6 41l-1 13.6c-2.1-.1-4.1-.6-6.1-1.2-2.4-1-4.6-2.2-6.6-3.8z"/><path id="prefix__パス_155" class="st2" d="M28.3 31.2c.4-1.6.6-3.2.7-4.9.5-.7 2.8-2.1 2.3-5.7 0 0 8.9.2 11.6-4.1 3.2-5-2.3-6.2-4-3.7 0 0-.2-2.5-2.4-2.7s-3.3 2.8-3.3 2.8c-2.2.3-4.4 1.1-6.2 2.4-2.5 1.8-4.2 4.5-4.8 7.5-1.8 7.9 5.3 16.3 5.3 16.3l.2-5.8.6-2.1z"/><path id="prefix__パス_156" class="st6" d="M27.7 29.2s-2.4.1-1.7 3.1c.1 1.3 1.3 2.2 2.6 2.1.3 0 .5-.1.8-.2l-1.7-5z"/><circle id="prefix__楕円形_56" class="st9" cx="35.2" cy="31.5" r="1.8"/><path id="prefix__パス_157" class="st9" d="M43.9 27c-1 .3-1.5 1.3-1.2 2.3.3.8 1.1 1.3 1.9 1.2-.2-1.2-.4-2.4-.7-3.5z"/><g id="prefix__グループ_1289" transform="translate(36.657 16.848)"><g id="prefix__グループ_1288"><path id="prefix__パス_158" d="M-2.2 10.6c0 .3-.2.5-.5.5s-.5-.2-.5-.5.2-.5.5-.5.5.3.5.5z"/></g></g><g id="prefix__グループ_1291" transform="translate(45.141 14.79)"><g id="prefix__グループ_1290"><path id="prefix__パス_159" d="M-2.2 10.6c0 .3-.2.5-.5.5s-.5-.2-.5-.5.2-.5.5-.5.5.3.5.5z"/></g></g><g id="prefix__グループ_1293" transform="translate(40.959 14.972)"><g id="prefix__グループ_1292"><path id="prefix__パス_160" class="st9" d="M-3.2 10.1l1.7 4.8 2.3-.8c.4-.1.6-.5.5-.9 0-.2-.1-.3-.3-.4l-4.2-2.7z"/></g></g><path id="prefix__パス_627_1_" class="st13" d="M188.9 142.4l-15.4 8.1-.5 3c-.7 4.3-3.4 7.8-6 7.8v2h28.3v-2l-6.4-18.9z"/><path id="prefix__パス_628_1_" class="st14" d="M194.1 153.6l-1.8-11.2-8.7-8.1-8.7 8.1-1.3 8.2H189l.5 3c.7 4.3 3.4 7.8 6 7.8l2.3 2 2.3-2c-2.7 0-5.3-3.5-6-7.8z"/><path id="prefix__パス_629_1_" class="st14" d="M207.6 165.5h-48.3c-.6 0-1.2-.9-1.2-2s.5-2 1.2-2h48.3c.6 0 1.2.9 1.2 2s-.5 2-1.2 2z"/><path id="prefix__パス_630_1_" class="st15" d="M242.8 50.5h-8.1v91.9h8.1c4.5 0 8.1-3.7 8.1-8.1V58.7c.1-4.5-3.6-8.2-8.1-8.2z"/><path id="prefix__パス_631_1_" class="st13" d="M234.7 50.5H124.2c-4.5 0-8.1 3.7-8.1 8.1v75.6c0 4.5 3.7 8.1 8.1 8.1h110.6c4.5 0 8.1-3.7 8.1-8.1v-8.1l-59.3-38.7 59.3-28.7c-.1-4.5-3.7-8.2-8.2-8.2z"/><g id="prefix__グループ_1543_1_" transform="translate(-.151)"><path id="prefix__パス_632_1_" d="M242.8 58.7h-8.1l-51.2 28.7 51.2 38.7h8.1c.1 0 0-67.4 0-67.4z" fill="#d3dfff"/><path id="prefix__パス_633_1_" d="M234.7 58.7H124.2v67.4h110.5V58.7z" fill="#f4f4f7"/></g><circle id="prefix__楕円形_158_1_" cx="243" cy="134.2" r="2" fill="#85cf75"/><circle id="prefix__楕円形_159_1_" class="st15" cx="234.9" cy="134.2" r="2"/><g id="prefix__グループ_1544_1_"><path class="st2" d="M634.4 364.8h-.6V362h.6c1.5-.1 2.7-1.4 2.6-2.9-.1-1.4-1.2-2.5-2.6-2.6-.8 0-1.5.4-2 1l-.1.1-2.8 2.9v-1.3c-.1-1.4-1.3-2.6-2.7-2.5s-2.6 1.3-2.5 2.7c.1 1.4 1.2 2.5 2.6 2.5h.6v2.9h-.6c-1.5-.1-2.8 1.1-2.9 2.6s1.1 2.8 2.6 2.9 2.8-1.1 2.9-2.6v-1.4l2.8 2.9.1.2c.5.6 1.2 1 2 1 1.5-.1 2.7-1.4 2.6-2.9 0-1.5-1.2-2.6-2.6-2.7zm-.5-5.6c0-.3.3-.6.6-.5.3 0 .6.3.5.6 0 .3-.3.5-.6.5h-.6l.1-.6zm-6.4 8.4c0 .3-.3.6-.6.5-.3 0-.6-.3-.5-.6 0-.3.3-.5.6-.5h.6l-.1.6zm0-7.8h-.6c-.3 0-.6-.2-.6-.6 0-.3.2-.6.6-.6.3 0 .6.2.6.6v.6zm4.3 1.4v4.5l-2.1-2.2 2.1-2.3zm2.6 7c-.3 0-.6-.3-.6-.6v-.6h.6c.3 0 .6.3.5.7 0 .2-.2.4-.5.5z" transform="translate(-446.327 -287.027)"/><g class="st1"><path class="st0" d="M592.9 385v-10h2v4.5l4.1-4.5h2.7l-3.8 3.9 4 6.1h-2.6l-2.8-4.7-1.6 1.7v3h-2zm16.7 0h-1.9v-3.7c0-.8 0-1.3-.1-1.5-.1-.2-.2-.4-.4-.5s-.4-.2-.7-.2c-.3 0-.6.1-.9.3s-.4.4-.5.7-.1.9-.1 1.7v3.3h-2v-7.3h1.8v1.1c.6-.8 1.4-1.2 2.4-1.2.4 0 .8.1 1.2.2.4.2.6.3.8.6s.3.5.4.8.1.7.1 1.3v4.4zm1.5-3.7c0-.6.2-1.3.5-1.9s.8-1.1 1.3-1.4 1.2-.5 1.9-.5c1.1 0 2 .4 2.7 1.1.7.7 1.1 1.6 1.1 2.7s-.4 2-1.1 2.7c-.7.7-1.6 1.1-2.7 1.1-.7 0-1.3-.2-1.9-.5s-1.1-.7-1.4-1.3c-.2-.5-.4-1.2-.4-2zm2 .1c0 .7.2 1.3.5 1.7s.8.6 1.3.6.9-.2 1.3-.6.5-.9.5-1.7c0-.7-.2-1.3-.5-1.6s-.8-.6-1.3-.6-.9.2-1.3.6-.5.9-.5 1.6zm8.3 3.6l-2.3-7.3h1.9l1.4 4.8 1.3-4.8h1.9l1.2 4.8 1.4-4.8h1.9l-2.3 7.3H626l-1.3-4.7-1.2 4.7h-2.1zm9.6 0v-10h1.9v10H631zm8.1-2.3l1.9.3c-.2.7-.6 1.2-1.2 1.6-.5.4-1.2.6-2 .6-1.3 0-2.2-.4-2.8-1.2-.5-.7-.7-1.5-.7-2.5 0-1.2.3-2.1.9-2.8.6-.7 1.4-1 2.4-1 1.1 0 1.9.4 2.6 1.1.6.7.9 1.8.9 3.3h-4.8c0 .6.2 1 .5 1.3.3.3.7.5 1.1.5.3 0 .6-.1.8-.2s.3-.6.4-1zm.1-1.9c0-.6-.2-1-.4-1.3-.3-.3-.6-.4-1-.4s-.8.2-1 .5-.4.7-.4 1.2h2.8zm10.1 4.2h-1.8v-1c-.3.4-.6.7-1 .9-.4.2-.8.3-1.2.3-.8 0-1.5-.3-2.1-1-.6-.7-.9-1.6-.9-2.8 0-1.2.3-2.2.9-2.8.6-.6 1.3-1 2.2-1 .8 0 1.5.3 2.1 1V375h1.9v10zm-5.1-3.8c0 .8.1 1.3.3 1.7.3.5.7.8 1.3.8.4 0 .8-.2 1.1-.6.3-.4.5-.9.5-1.7 0-.8-.2-1.4-.5-1.8-.3-.4-.7-.5-1.2-.5s-.8.2-1.1.5c-.3.4-.4.9-.4 1.6zm6.8 4.3l2.2.3c0 .3.1.4.3.5.2.1.5.2.9.2.5 0 .9-.1 1.1-.2.2-.1.3-.3.4-.5.1-.2.1-.5.1-.9v-1.1c-.6.8-1.3 1.2-2.2 1.2-1 0-1.7-.4-2.3-1.2-.4-.7-.7-1.5-.7-2.4 0-1.2.3-2.1.9-2.8.6-.6 1.3-1 2.2-1 .9 0 1.6.4 2.2 1.2v-1h1.8v6.5c0 .9-.1 1.5-.2 1.9-.1.4-.3.8-.6 1-.3.2-.6.4-1 .6-.4.1-1 .2-1.6.2-1.2 0-2.1-.2-2.6-.6-.5-.4-.8-1-.8-1.6-.1-.1-.1-.2-.1-.3zm1.7-4.3c0 .8.1 1.3.4 1.7.3.4.7.5 1.1.5.5 0 .9-.2 1.2-.5.3-.4.5-.9.5-1.6 0-.8-.2-1.3-.5-1.7-.3-.4-.7-.5-1.2-.5s-.8.2-1.1.5c-.2.4-.4.9-.4 1.6zm11.3 1.5l1.9.3c-.2.7-.6 1.2-1.2 1.6-.5.4-1.2.6-2 .6-1.3 0-2.2-.4-2.8-1.2-.5-.7-.7-1.5-.7-2.5 0-1.2.3-2.1.9-2.8.6-.7 1.4-1 2.4-1 1.1 0 1.9.4 2.6 1.1.6.7.9 1.8.9 3.3h-4.8c0 .6.2 1 .5 1.3.3.3.7.5 1.1.5.3 0 .6-.1.8-.2s.3-.6.4-1zm.1-1.9c0-.6-.2-1-.4-1.3-.3-.3-.6-.4-1-.4s-.8.2-1 .5-.4.7-.4 1.2h2.8z" transform="translate(-446.327 -287.027)"/></g><g class="st1"><path class="st0" d="M614.4 390h4c.8 0 1.4 0 1.8.1.4.1.7.2 1 .4s.6.5.8.8c.2.3.3.7.3 1.2s-.1.9-.4 1.3-.6.7-1 .9c.6.2 1.1.5 1.4.9s.5.9.5 1.5c0 .5-.1.9-.3 1.3-.2.4-.5.8-.9 1-.4.3-.8.4-1.4.5-.3 0-1.2.1-2.4.1h-3.4v-10zm2.1 1.7v2.3h2.8c.3 0 .6-.2.8-.4.2-.2.3-.5.3-.8 0-.3-.1-.6-.3-.8-.2-.2-.4-.3-.8-.4h-2.8zm0 4v2.7h1.9c.7 0 1.2 0 1.4-.1.3-.1.5-.2.7-.4.2-.2.3-.5.3-.9 0-.3-.1-.6-.2-.8s-.4-.4-.6-.5-.9-.1-1.8-.1h-1.7zm9.5-.7l-1.7-.3c.2-.7.5-1.2 1-1.6s1.2-.5 2.1-.5c.9 0 1.5.1 1.9.3.4.2.7.5.9.8.2.3.3.9.3 1.7v2.2c0 .6 0 1.1.1 1.4.1.3.2.6.3 1H629c-.1-.1-.1-.3-.2-.6 0-.1-.1-.2-.1-.2-.3.3-.7.6-1.1.7s-.8.2-1.2.2c-.7 0-1.3-.2-1.8-.6s-.6-.9-.6-1.5c0-.4.1-.8.3-1.1.2-.3.5-.6.8-.7.4-.2.9-.3 1.5-.4.9-.2 1.5-.3 1.9-.5v-.2c0-.4-.1-.6-.3-.8-.2-.2-.5-.2-1-.2-.3 0-.6.1-.8.2-.2.1-.3.3-.4.7zm2.5 1.5c-.2.1-.6.2-1.2.3s-.9.2-1 .3c-.3.2-.4.4-.4.7 0 .3.1.5.3.7s.5.3.8.3c.3 0 .7-.1 1-.3.2-.2.4-.4.5-.6.1-.2.1-.5.1-.9v-.5zm10.4 3.5H637v-3.7c0-.8 0-1.3-.1-1.5-.1-.2-.2-.4-.4-.5s-.4-.2-.7-.2c-.3 0-.6.1-.9.3-.3.2-.4.4-.5.7-.1.3-.1.9-.1 1.7v3.3h-1.9v-7.3h1.8v1.1c.6-.8 1.4-1.2 2.4-1.2.4 0 .8.1 1.2.2.4.2.6.3.8.6.2.2.3.5.4.8.1.3.1.7.1 1.3v4.4zm1.9 0v-10h1.9v5.3l2.2-2.6h2.4l-2.5 2.7 2.7 4.6h-2.1l-1.8-3.3-.9.9v2.3h-1.9z" transform="translate(-446.327 -287.027)"/></g></g><g id="prefix__グループ_1105_1_" transform="translate(1179.174 1316.954)"><circle id="prefix__楕円形_6_1_" class="st2" cx="-846.2" cy="-1168" r="34"/><path id="prefix__パス_35_1_" d="M-835.2-1148.1c-1.1 3.1-5.3 7.4-9.7 7.1-4.5-.3-8.9-3.9-10-8.6 1.2-.6 2-1.4 2.2-2.4.8-4.5.7-13.4.7-13.4l12.1-.4s.4 11.9 2.1 15.3c.4.9 1.3 1.6 2.6 2.4z"/><path class="st6" d="M-839.6-1140.5c.3-1.2 1.2-1.6.2-2.8s-1.2-2.2-.7-3 2.3-1.9 1.8-3.2-.8-2.6-.4-3.5-1.5-1.7-1.6-3.1.3-1.3.5-2.4c.1-.9.1-1.9-.2-2.8-.2-.8 1.3-.6 1.6-2.1s-.5-2.6-.2-3.5 1.2-1.4 1.4-2.2c.2-.9-.6-1.6-.8-2.8-.2-1.2.9-1.9.9-2.6-.1-1.4-2.1-1.7-2.3-3.3-.1-1.1 1-1.2.8-2.2-.1-1-1.9 0-2.1-1.7-.1-.8.7-2-.6-3-1.2-.8-1.8.5-3.9-.3-1.8-.7-.7-1.6-1.8-2.4-1.2-.9-3.4-.1-3.4-.1-.5.7-1.1 1.4-1.8 1.9-.8.5-1.7.4-2.2 1.1-1.1 1.7.5 2.7-.1 3.9-.8 2-2.3 2.2-2.4 2.8-.6 2.7.5 2 1.1 3.7s-.7 2.1-.8 3.4 1.7 1 1.9 2.9-.8 1.9 0 3.4 2.1.5 2.3 2.5c.3 2-1 2.2-.6 3.4.5 1.1 1.9.8 2.1 2.6s-1.2 1.6-1.5 2.7 1.5 1.4 2 2.8-1.1 1.3-.8 2.6 2.2 1.2 2.1 2.8-1.3 1.1-1.3 2.2c0 1 1.7 1.4 1.4 2.8 1.2.4 2.4.6 3.7.6 1.9.2 3.9-.3 5.7-1.1z"/><path id="prefix__パス_36_1_" class="st7" d="M-848.9-1187.1c3.7-.4 10.9.1 11.8 9.4.8 9.2-1.7 17.2-8.2 17-6.5-.1-8.2-5.1-9.4-11.5s.6-14.4 5.8-14.9z"/><g id="prefix__グループ_1091_1_" transform="translate(52.089 35.926)"><g id="prefix__グループ_1090_1_"><path id="prefix__パス_37_1_" class="st9" d="M-897.5-1210.5l-2.1 4.9 1.6.4c.3.1.7.1 1 0l1.6-.5-2.1-4.8z"/></g></g><g id="prefix__グループ_1093_1_" transform="translate(40.545 40.913)"><g id="prefix__グループ_1092_1_"><circle id="prefix__楕円形_7_1_" class="st9" cx="-891.9" cy="-1211.3" r="1.5"/></g></g><g id="prefix__グループ_1095_1_" transform="translate(64.121 41.512)"><g id="prefix__グループ_1094_1_"><circle id="prefix__楕円形_8_1_" class="st9" cx="-904.3" cy="-1211.9" r="1.5"/></g></g><g id="prefix__グループ_1097_1_" transform="translate(44.249 34.992)"><g id="prefix__グループ_1096_1_"><path id="prefix__パス_38_1_" class="st19" d="M-894.5-1209.5c0 .3-.2.5-.5.5s-.5-.2-.5-.5.2-.5.5-.5.5.2.5.5z"/></g></g><g id="prefix__グループ_1099_1_" transform="translate(64.432 35.302)"><g id="prefix__グループ_1098_1_"><path id="prefix__パス_39_1_" class="st19" d="M-904.9-1209.7c0 .3-.2.5-.5.5s-.5-.2-.5-.5.2-.5.5-.5.5.2.5.5z"/></g></g><path d="M-866.4-1140.6c-.1 0-.1-.1-.2-.2l.2.2zm39.8.4c.3-.2.5-.4.8-.6-.2 0-.5.1-.7.2-.1.2-.1.3-.1.4z"/><path class="st11" d="M-864-1142c-.4-1.4-1.7-.9-1.7-2.4v-.7c-1.2.7-2.1 1.6-2.9 2.7.6.5 1.3 1.1 1.9 1.6.1 0 .1.1.2.2.7.5 1.4 1 2.1 1.4.3-1.1.8-1.6.4-2.8zm37.5 1.4s0 .1 0 0c.2 0 .5-.1.7-.2.2-.2.5-.4.7-.5-.4.2-1.1.2-1.4.7zm-14.1 4c.4-1 1.2-1.6.8-2.9s-1-1.4-.8-2.6c-1.4.8-2.8 1.2-4.3 1.1-.9 0-1.9-.3-2.8-.6 0 .1 0 .2-.1.4-.5 1.7-1.6 1.2-1.7 2.2s.8 1.3.5 2.2c-.3.9-1.9.6-1.6 1.9 0 .3.1.5.2.7 1.4.1 2.7.2 4.1.2 2.3 0 4.5-.2 6.7-.6-.2-.8-1.5-1.1-1-2z"/><path class="st3" d="M-824.7-1141.6c.1 0 .1 0 0 0 .1-.1.1 0 0 0zm-.3.3c.1 0 .3-.1.4-.2-.2 0-.3.1-.4.2z"/><path class="st3" d="M-822.4-1156.8c.1-1 1.1-1.3 1.1-2.6s-1.5-1.5-1.5-2.7 1-1.2.8-2.1c-.1-.9-1.7-1.1-2.1-2.3-.3-1.2 1.7-1.4 1.5-2.6-.1-1.2-1.7-1-1.9-2.1s1.6-1.2 1.4-2.4c-.2-1.2-1.4-.9-1.8-2.3s.9-1.5.7-3-1.7-1.2-2.2-2.1.4-1.7.1-2.7c-.3-1.1-1.8-.8-2.3-1.5s.4-1.2-.4-2.5c-.9-1.3-1.4.2-3.2-1.7-1-1.1-2 .3-3.1 0-.6-.2-1.1-1.7-1.7-1.8-1-.2-1.7.8-2.6.6-1-.2-1.7-.9-2-1-1.4-.5-2.1 1.1-3.2.9s-1.6-.9-3-.1c-.9.5-1.5 1.4-1.6 2.3-.5-.2-1.2-.3-1.7-.1-.5.1-1.2 1-2.5 1.4-.7.1-1.7-.6-2.7-.3-2.2.8-.2 3-3 3.3-1.2.1-2.5-.3-3.2.2-1.3 1-1.1 2-1.3 3s-2.3 1-2.6 2.2-.2 2.4-.2 3.4-1.3 1-1.2 2.9.8 1.5 1.4 2.8c.5 1.3-1.2 1.9-1.4 3.2s.9 2 .8 2.8c0 .8-1.1 1.2-1.4 2.6s1 1.5 1.1 2.6c0 1.1-1.1 1.4-1.2 2.9-.1 1.5 1.4 1.6 1.7 2.8s-.8 1.7-.5 3 1.7 1.3 2.3 2.6c.4 1.1-.1 1.6-.3 2.6v.7c.1 1.5 1.3 1 1.7 2.4.4 1.2-.2 1.7-.4 2.8 4.2 2.6 8.9 4.4 14.1 5-.1-.2-.2-.4-.2-.7-.3-1.3 1.3-1 1.6-1.9s-.7-1.2-.5-2.2c.1-1 1.2-.5 1.7-2.2 0-.1 0-.2.1-.4.2-1.3-1.1-1.7-1.1-2.6 0-1.1.9-.6 1-2.1 0-1.5-1.4-1.4-1.6-2.6-.2-1.2.9-1.1.6-2.4-.3-1.4-1.7-1.6-1.5-2.6.2-1.1 1.3-.9 1.1-2.5-.1-1.6-1.3-1.3-1.6-2.4s.7-1.4.4-3.2-1.2-1-1.7-2.3.1-1.4 0-3.2-1.5-1.5-1.4-2.7 1.1-1.7.6-3.2c-.5-1.6-1.3-.9-.8-3.4.1-.6 1.2-.8 1.8-2.6.4-1.2-.8-2 0-3.6.3-.7 1.1-.6 1.7-1.1.5-.5 1-1.1 1.4-1.8 0 0 1.7-.8 2.5 0s0 1.6 1.4 2.3c1.6.8 2.1-.5 3 .2 1.1.9.4 2 .5 2.8.2 1.6 1.6.6 1.6 1.6s-.8 1.1-.6 2.1c.1 1.5 1.7 1.8 1.7 3.1 0 .6-.8 1.3-.7 2.4.1 1.2.8 1.8.6 2.6-.2.8-.8 1.2-1.1 2.1-.2.9.4 1.9.1 3.3-.2 1.4-1.4 1.2-1.2 1.9.2.9.2 1.7.1 2.6-.1 1.1-.4 1-.4 2.3s1.5 1.9 1.2 2.9c-.3.9-.1 2.1.3 3.3.4 1.2-1 2.2-1.4 3s-.2 1.7.5 2.8c.8 1 .1 1.4-.1 2.6-.2 1.1.4 1.3.8 2.6s-.4 1.9-.8 2.9.9 1.2 1.1 2c4-.8 7.7-2.3 11.1-4.3.6-.4 1.3-.8 1.9-1.3v-.3c.3-.6.9-.5 1.5-.7.1-.1.2-.2.4-.3l.1-.1v-.1c.4-.9-.9-1.7-.8-2.6.1-.9 1-.6 1.6-1.7.6-1.2-1.2-1.4-1.1-2.3s.8-.4 1.7-1.7-.7-1.3-.3-2.3c.4-1.1 1.4-.8 1.6-1.6-.1-1.6-.9-2.5-.9-3.5z"/><g id="prefix__グループ_1102_1_" transform="translate(50.614 49.116)"><g id="prefix__グループ_1101_1_"><g id="prefix__グループ_1100_1_"><path id="prefix__パス_44_1_" class="st8" d="M-898.8-1216.8c0 1 1.2 1.8 2.7 1.8s2.7-.8 2.7-1.8-1.1 0-2.6 0-2.8-1-2.8 0z"/></g></g></g></g><circle id="prefix__楕円形_31_1_" cx="333" cy="34" r="34" fill="#f4b4b2"/><path id="prefix__パス_89_1_" class="st6" d="M339.5 38.9c0 2.6 2.2 13.8 4.2 14.7-6.5 2-17.5 1.2-21.6 0 1.2-1.3 3.3-3.1 4-7.3.4-2.4.6-4.8.6-7.1l12.8-.3z"/><path class="st2" d="M355.2 59.7c-3.6-2.8-9.1-4.3-11.4-6.2-1.9-1.6-2.6-5.2-3.1-7-.4-1.8-.7-3.7-.9-5.7 0 0-4.6 3.3-9 4.8-2.2.8-5.4 1.6-5.4 1.6s-.3 2.7-3.6 6.1c-2.5 2.6-7.9 3.4-11.3 6.3 6 5.3 13.8 8.5 22.4 8.5 8.6-.1 16.4-3.3 22.3-8.4z"/><path id="prefix__パス_91_1_" class="st4" d="M323.2 18.7c1.3-3.8 4.4-6.9 10.4-6.9 4.9-.1 9.2 3.1 10.5 7.7.9 3.5 1.4 11.6-3.3 16.8-4.7 5.1-14.9 3-17-3.3s-1.8-10.8-.6-14.3z"/><path id="prefix__パス_92_1_" class="st7" d="M333.4 17.6c3.7-.2 9.3 4.4 9.6 11.3.2 5.4-.7 15.3-9.6 15.3s-9.7-9.5-9.8-13.3c-.1-3.8 2.4-12.9 9.8-13.3z"/><path id="prefix__パス_93_1_" class="st19" d="M327.8 29.6c0 .3-.2.5-.5.5s-.5-.2-.5-.5.2-.5.5-.5c.2-.1.5.2.5.5z"/><circle id="prefix__楕円形_32_1_" class="st19" cx="339" cy="29.8" r=".5"/><circle id="prefix__楕円形_33_1_" class="st9" cx="327.4" cy="33.5" r="1.7"/><g id="prefix__グループ_1186_1_" transform="translate(65.854 41.002)"><g id="prefix__グループ_1185_1_"><circle id="prefix__楕円形_34_1_" class="st9" cx="273.4" cy="-7.6" r="1.7"/></g></g><g id="prefix__グループ_1188_1_" transform="translate(51.768 48.446)"><g id="prefix__グループ_1187_1_"><path id="prefix__パス_94_1_" class="st8" d="M279-12.6c0 1 1.2 1.7 2.6 1.7s2.6-.8 2.6-1.7-1.1 0-2.5 0-2.7-1-2.7 0z"/></g></g><g id="prefix__グループ_1190_1_" transform="translate(52.997 35.372)"><g id="prefix__グループ_1189_1_"><path id="prefix__パス_95_1_" class="st9" d="M280.4-6.3l-2 4.7 1.5.4c.3.1.6.1 1 0l1.5-.5-2-4.6z"/></g></g><path id="prefix__パス_96_1_" class="st6" d="M323.5 27.9s-2.4-.5-2.4 2.6 2.8 2.7 2.8 2.7l-.4-5.3z"/><path id="prefix__パス_97_1_" class="st6" d="M343.3 28.4s2.4-.5 2.4 2.6-2.8 2.7-2.8 2.7l.4-5.3z"/></svg>