<svg version="1.1" id="レイヤー_1" xmlns="http://www.w3.org/2000/svg" x="0" y="0" viewBox="0 0 375 225" xml:space="preserve"><style>.st0{enable-background:new}.st1{fill:#f3ba18}.st3{fill:#faf8dc}.st4{fill:#e8a181}.st5{fill:#f4ae87}.st6{fill:#002245}.st7{fill:#de4e31}.st8{fill:#2962ff}.st9{fill:#fff}.st10{fill:#373943}.st16{fill:#57697d}.st17{fill:#233952}.st18{fill:#3d5168}</style><path d="M33.4 203h3.1c.7 0 1 0 1.5-.1v1.1c-.4 0-.7-.1-1.4-.1h-7.1c-.7 0-1 0-1.4.1v-1.1c.4.1.7.1 1.5.1h2.9v-5.2h-2c-.7 0-1 0-1.4.1v-1.1c.4.1.7.1 1.4.1h5.3c.7 0 1 0 1.5-.1v1.1c-.4 0-.8-.1-1.4-.1h-2.2v5.2h-.3zm8.1-7.3v5.2h-1.2c0-.3.1-.7.1-1.2v-2.9c0-.6 0-.8-.1-1.1h1.2zm5.3 0c0 .3-.1.5-.1 1.2v1.4c0 1.9-.1 3-.3 3.7-.3 1.1-1.1 2-2.3 2.7-.6.3-1.2.6-2.2.9-.2-.4-.2-.6-.6-1 1.2-.3 1.9-.5 2.6-1 1.2-.8 1.6-1.6 1.7-3.2v-4.6l1.2-.1zm7.3 2.5v.9c0 2-.4 3.2-1.2 4.2-.7.9-1.6 1.5-3.1 2.1-.2-.5-.3-.6-.7-1 1-.3 1.5-.6 2.2-1.1 1.3-1 1.7-2.2 1.7-4.5v-.7h1.1v.1zm4.8-1.5c-.1.2-.2.2-.3.5-.8 1.6-1.9 2.7-3.5 3.5-.2-.4-.3-.5-.7-.8.8-.3 1.3-.6 1.9-1.1.5-.5.9-1 1.3-1.7h-6.7c-.7 0-1 0-1.5.1v-1.1c.4.1.8.1 1.5.1h6.4c.7 0 .8 0 1.1-.1l.5.6zm-44.1 22.9c1.4-1.2 2.5-2.4 3.4-3.9 0-.1 0-.1.1-.2h-6.6c-.7 0-1 0-1.5.1v-1.1c.4.1.8.1 1.5.1h6.8c.4 0 .6 0 .8-.1l.6.7c-.2.2-.2.3-.5.7-1.1 1.8-2.4 3.3-3.9 4.5.4.5 1 1.2 1.7 2.1l-.9.7c-.6-1-1.3-1.8-2.3-3-.9-1-1.5-1.5-2.4-2.3l.8-.6c.7.6 1.2 1 1.6 1.5l.8.8zm10.5 4.1c0-.3.1-.7.1-1.3v-3.2c-.1.1-.2.2-.4.3-.9.5-2.1 1-3.6 1.5-.2-.4-.2-.6-.5-.9 2.2-.5 4.1-1.4 5.8-2.6.6-.4 1-.8 1.6-1.4h-4.9c-.6 0-.9 0-1.3.1V215c.4.1.7.1 1.3.1h2.1v-1.9h1.1c0 .3-.1.5-.1.9v1h2.4c.3 0 .4 0 .6-.1l.5.6-.5.5c-.7.8-1.7 1.7-2.6 2.3 1.7.6 2.8 1.1 4.3 2l-.6.9c-.9-.6-2-1.2-3.5-1.9-.4-.2-.5-.2-.7-.4v3.3c0 .7 0 .9.1 1.3l-1.2.1zm7.3-5.9c.4 0 .8.1 1.7.1H41c1 0 1.2 0 1.6-.1v1.2c-.5 0-.8-.1-1.6-.1h-6.7c-.9 0-1.2 0-1.7.1v-1.2zm12.4-1.2c1.1.5 2.1.9 3.1 1.6l-.5 1c-.9-.7-2-1.2-3.1-1.7l.5-.9zm-.4 5.5c.8 0 2.1-.3 3.3-.8 1.5-.6 2.6-1.4 3.6-2.7.7-.9 1.1-1.6 1.4-2.7.4.4.5.5.9.8-1.1 2.5-2.5 4.1-4.6 5.2-.9.4-2.1.9-3.1 1.1-.2 0-.4.1-.6.1-.3 0-.3.1-.5.1l-.4-1.1zm1.4-8.3c1.2.5 2 .9 3 1.5l-.6.9c-.9-.7-2.1-1.3-3-1.6l.6-.8zm6.3-.6c.6.7.8 1.1 1.3 1.9l-.7.4c-.4-.7-.8-1.3-1.2-1.9l.6-.4zm1.4-.6c.6.7.8 1 1.3 1.8l-.7.4c-.3-.7-.7-1.2-1.2-1.9l.6-.3zm4.2 3.8c-.1-.6-.1-.6-.2-.9l1-.2c0 .3 0 .4.1 1l.2.9 3.8-.6c.4-.1.5-.1.7-.2l.6.5-.3.6c-.5 1.3-1.2 2.1-2.3 2.9-.3-.3-.4-.4-.8-.6 1-.6 1.6-1.2 2.1-2.2l.1-.1c-.1 0-.2 0-.3.1l-3.4.6.8 4.3c.1.8.1.8.3 1.1l-1.1.2c0-.4 0-.6-.1-1.1l-.8-4.3-1.1.2c-.5.1-.8.1-1.1.3l-.2-1c.4 0 .7 0 1.2-.1l1.1-.2-.3-1.2zm8.2 1.4c.4 0 .8.1 1.7.1h6.7c1 0 1.2 0 1.6-.1v1.2c-.5 0-.8-.1-1.6-.1h-6.7c-.9 0-1.2 0-1.7.1v-1.2zm265.5-8.4c0 .6 0 1 .1 1.5h-1.1c0-.3.1-.9.1-1.5v-3.6c-.3.4-.6.7-1.2 1.2-.1-.4-.2-.5-.5-.9 1.2-.8 2.4-2.2 2.8-3.3l.8.6c-.1.1-.1.1-.2.3s-.3.5-.5.7c-.1.2-.1.2-.3.4-.1.1-.1.1-.2.3v4.3h.2zm1.1-8.9c-.1.1-.1.2-.3.4-.7.9-1.4 1.5-2.5 2.3-.2-.3-.3-.5-.6-.7.9-.6 1.6-1.1 2.2-1.8.2-.3.3-.5.4-.6l.8.4zm6.4 5.1c-.1.2-.2.2-.3.5-.7 1.1-1.2 1.8-2 2.5.4.3.7.4 1.1.6.9.4 1.4.6 2.2.8-.2.4-.3.5-.4.9-1.5-.4-2.6-.9-3.6-1.7-1.1.8-2.1 1.3-3.5 1.7-.1-.3-.2-.5-.5-.9 1.3-.3 2.2-.7 3.3-1.4-.8-.7-1.3-1.4-1.8-2.6h-.9v-.9c.3 0 .6.1 1 .1h4.2c.5 0 .7 0 .9-.1l.3.5zm-4.2-4.3c0 1-.2 1.6-.6 2.2-.3.4-.5.7-1.1 1.2-.2-.3-.4-.5-.7-.7.6-.4.9-.7 1.2-1.3.2-.5.3-1 .3-1.8v-.5h3.9v2.7c0 .2.1.2.6.2.9 0 .9 0 .9-1.4l.8.4c-.1.9-.2 1.3-.3 1.5-.2.3-.6.4-1.5.4-1.2 0-1.5-.1-1.5-.7v-2.2h-2zm-.5 4.7c.4.8.9 1.4 1.6 2.1.8-.6 1.2-1.2 1.8-2.1h-3.4zm9.1 2.9h-1.4v-5.5h8.8v5.5h-2.4c.9.6 2.1 1.1 3.6 1.3-.3.3-.4.5-.6.8-1.8-.5-2.5-.8-3.7-1.6l.6-.5h-3.8l.7.6c-.7.5-1.1.7-1.9 1-.4.2-.7.3-1.8.6-.2-.4-.3-.5-.6-.8 1.4-.2 2.7-.7 3.5-1.3l-1-.1zm6.9-6.9v.9h-7.9v-2.6c.4 0 .7.1 1.4.1h5.2c.6 0 1 0 1.4-.1v1.7h-.1zm-7.3 3.1h6.9v-.8h-6.9v.8zm0 1.5h6.9v-.8h-6.9v.8zm0 1.6h6.9v-.8h-6.9v.8zm.4-7v1h6v-1h-6zM22.2 88.2v.9c0 2-.4 3.2-1.2 4.2-.7.9-1.6 1.5-3.1 2.1-.2-.5-.3-.6-.7-1 1-.3 1.5-.6 2.2-1.1 1.3-1 1.7-2.2 1.7-4.5v-.7l1.1.1zm4.8-1.5c-.1.2-.2.2-.3.5-.8 1.6-1.9 2.7-3.5 3.5-.2-.4-.3-.5-.7-.8.8-.3 1.3-.6 1.9-1.1.5-.5.9-1 1.3-1.7H19c-.7 0-1 0-1.5.1v-1.1c.4.1.8.1 1.5.1h6.4c.7 0 .8 0 1.1-.1l.5.6zm3.7-.8c0 .3 0 .3-.1 1.1-.1 3.3-.2 4.2-.6 5.4-.4 1.1-1 2-2.1 3-.3-.4-.4-.5-.9-.8 1-.8 1.6-1.6 2-2.7s.5-2.6.5-5V86l1.2-.1zm3.1-.2c-.1.3-.1.5-.1 1.2l-.1 7c.9-.4 1.5-.8 2.1-1.4.6-.7 1.1-1.4 1.4-2.3.3.4.4.5.8.8-.6 1.4-1.4 2.4-2.5 3.1-.5.3-1 .6-1.7.9-.1 0-.3.1-.4.1-.1.1-.2.1-.3.1l-.6-.6c.1-.2.1-.4.1-.9l.1-6.8v-.3c0-.5 0-.7-.1-1l1.3.1zm8.4.7c0 .2-.1.3-.2.9-.5 3.5-1.4 5.7-3.1 7.6-.4-.4-.5-.5-.9-.7 1-.9 1.6-1.9 2.1-3.4.5-1.4.9-3.1.9-4.5l1.2.1zm3.4-.2c0 .6.3 1.8.5 2.9.6 2.2 1.5 3.8 2.7 5-.4.3-.6.4-.9.8-.8-.9-1.4-1.9-2-3.2-.6-1.3-1-2.9-1.2-4.4-.1-.4-.1-.6-.2-.8l1.1-.3zm1.2-.9c.6.7.8 1.1 1.3 1.9l-.7.4c-.4-.7-.8-1.3-1.2-1.9l.6-.4zm1.4-.6c.6.7.8 1 1.3 1.8l-.7.4c-.3-.7-.7-1.2-1.2-1.9l.6-.3zm10.7 1.4l-.4.4c-.9.9-1.8 1.7-2.9 2.5v5c0 .7 0 1.1.1 1.4h-1.2c.1-.4.1-.6.1-1.4v-4.3c-1.5.9-2.3 1.3-4.5 2.1-.2-.4-.3-.6-.6-1 2.3-.6 4.3-1.6 6.2-3.1 1.1-.9 1.9-1.7 2.3-2.3l.9.7zm3 9.3c.1-.4.1-.7.1-1.4v-7.3c0-.7 0-1-.1-1.3h1.2c0 .3-.1.7-.1 1.4v2.1c1.7.6 3.3 1.4 5.4 2.5l-.6 1c-1.1-.7-2.7-1.6-4.4-2.4-.2 0-.2 0-.4-.1V94c0 .6 0 1 .1 1.4h-1.2zm257.6-7.8c-.5 0-.9 0-1.3.1v-1c.5.1.8.1 1.3.1h3.3v-1c0-.4 0-.7-.1-1.1h1.1c0 .3-.1.7-.1 1.1v1h3.5c.6 0 1 0 1.4-.1v1c-.5 0-.9-.1-1.4-.1h-3c.7 1.2 1.2 2 2 2.8.9.9 1.8 1.6 2.8 2.2-.3.3-.4.5-.6.9-.9-.6-1.7-1.2-2.4-2-.5-.6-1-1.1-1.4-1.8-.3-.5-.5-.8-.8-1.5 0 .7.1 1.2.1 1.5v2.5h1.3c.6 0 .8 0 1.2-.1v1c-.3 0-.7-.1-1.2-.1H324v1.1c0 .6 0 1 .1 1.4H323c0-.4.1-.9.1-1.4v-1H322c-.5 0-.9 0-1.2.1v-1c.3 0 .6.1 1.2.1h1.1v-4c-.6 1.3-1.2 2.2-2.2 3.4-.7.8-1.4 1.4-2.2 2-.2-.4-.3-.5-.6-.9 1-.6 1.9-1.3 2.7-2.4.8-1 1.3-1.7 1.8-2.7l-3.1-.1zm15.6 1.6c.5 0 .9 0 1.1-.1v.9c-.3 0-.6-.1-1.1-.1h-4c-.6 0-.9 0-1.2.1v-.9c.3 0 .6.1 1.2.1h2.5c.4-.9.6-1.4.8-2.3l.9.3c-.3.8-.4 1.2-.8 2h.6zm-.2-3.3c.5 0 .8 0 1.1-.1v.9c-.3 0-.6-.1-1.1-.1h-3.7c-.5 0-.8 0-1.1.1v-.9c.3 0 .6.1 1.1.1h1.4v-.4c0-.4 0-.7-.1-.9h1.1c0 .3-.1.5-.1.9v.4h1.4zm-3.3 9.6h-.9v-4.6h4.8v4.6h-.9v-.7h-2.9v.7h-.1zm.2-8.6c.3.7.5 1.1.7 1.9l-.8.3c-.2-.8-.4-1.2-.7-1.9l.8-.3zm-.2 7h2.9v-2.2h-2.9v2.2zm9.3-8.4c-.1.2-.1.2-.5 1.1-.3.7-.7 1.6-1.2 2.4.7.8 1 1.2 1.3 1.8.2.5.3 1.1.3 1.7 0 .7-.2 1.1-.6 1.4-.2.1-.6.2-1.2.2h-.9c0-.4-.1-.6-.2-.9.4.1.7.1 1.1.1.6 0 .9-.2.9-.7s-.1-1.1-.4-1.6c-.3-.6-.6-1-1.4-1.7.7-1.2 1.1-2.1 1.5-3.3h-2.2v8.4c0 .6 0 1 .1 1.4h-1.1c0-.4.1-.8.1-1.3v-9.6h3.9l.5.6zm3.9 8.9c0 .5 0 .9.1 1.2h-1c0-.3.1-.7.1-1.2v-3.5c-.6.6-.9.8-1.6 1.3-.1-.3-.3-.6-.5-.8.9-.5 1.5-1 2.2-1.8.6-.6 1-1.2 1.4-2.1h-3.2v-.9h1.6v-1.1c0-.3 0-.7-.1-.9h1.1c0 .3-.1.6-.1.9v1.1h1.3l.4.5c-.1.1-.2.3-.3.5-.4.8-.7 1.3-1.3 2 .6.7 1.1 1.1 1.9 1.6-.2.3-.3.5-.5.8-.7-.5-1.2-.9-1.6-1.5l.1 3.9zm5-.3h1.8c.6 0 1 0 1.3-.1v1.1c-.4-.1-.8-.1-1.3-.1h-4.3c-.5 0-.9 0-1.3.1V94c.3 0 .7.1 1.3.1h1.5v-5h-1.1c-.4 0-.8 0-1.2.1v-1c.3 0 .7.1 1.2.1h1.1v-2.5c0-.4 0-.7-.1-1.1h1.1c-.1.5-.1.7-.1 1.1v2.5h1.5c.5 0 .8 0 1.2-.1v1c-.4 0-.7-.1-1.2-.1h-1.5v5h.1zm6.3-.6h-1.4V88h8.8v5.5h-2.4c.9.6 2.1 1.1 3.6 1.3-.3.3-.4.5-.6.8-1.8-.5-2.5-.8-3.7-1.6l.6-.5h-3.8l.7.6c-.7.5-1.1.7-1.9 1-.4.2-.7.3-1.8.6-.2-.4-.3-.5-.6-.8 1.4-.2 2.7-.7 3.5-1.3l-1-.1zm7-6.8v.9h-7.9V85c.4 0 .7.1 1.4.1h5.2c.6 0 1 0 1.4-.1v1.7h-.1zm-7.4 3h6.9v-.8h-6.9v.8zm0 1.5h6.9v-.8h-6.9v.8zm0 1.6h6.9V92h-6.9v.8zm.5-7v1h6v-1h-6z"/><circle id="prefix__楕円形_36" class="st1" cx="42" cy="34" r="34"/><path d="M67.5 56.5c-.3-.5-.6-.9-.9-1.3-5.7-7.1-12-7.5-13.9-9.6s-1.6-5.8-2.7-7.3-3.6-1.1-6-.7-11.5 2.5-11.5 2.5c-.8.3-.4 5.4-1.3 7s-10.4 5.6-12.6 11c0 .1-.1.2-.1.3 6.1 6 14.4 9.6 23.5 9.6 10.1 0 19.2-4.4 25.5-11.5z" fill="#e85f5b"/><path id="prefix__パス_101" class="st3" d="M33.7 43.7c0 1.9-.2 4.6-.2 4.6 1.3 2.1 2.4 4.3 3.3 6.6.9 2.6 1.8 6.7 2.3 6.6s1.4-4.8 2.3-7.4 2.3-4.5 2.5-5.5.5-3.9.5-3.9l-10.7-1z"/><path id="prefix__パス_102" class="st4" d="M33.6 42.7c0 3.4 4.7 8.2 5.8 9 2-.2 6.6-8.8 6.6-8.8l-12.4-.2z"/><g id="prefix__グループ_1197" transform="translate(15.597 18.234)"><g id="prefix__グループ_1196"><path id="prefix__パス_103" class="st4" d="M17.1 10.8s-2.4-.6-2.5 2.5c-.2 1.3.6 2.5 1.9 2.8.3.1.5.1.8 0l-.2-5.3z"/></g></g><path id="prefix__パス_104" class="st5" d="M34.7 20.3c-1.6 2.5-2.8 8.1-2.6 14.2s1.1 9.7 2.7 11.4c2.4 2.5 6.4 2.7 9 .2.2-.2.5-.5.7-.8 3.2-4.1 4.9-8.8 6.1-13.2s.5-9.5-1.5-11c-2.7-1.8-12.9-3.2-14.4-.8z"/><g id="prefix__グループ_1199" transform="translate(34.516 20.632)"><g id="prefix__グループ_1198"><path id="prefix__パス_105" class="st4" d="M15.9 10.8s2.4-.1 1.9 3c-.1 1.3-1.2 2.3-2.5 2.3-.3 0-.5-.1-.8-.2l1.4-5.1z"/></g></g><g id="prefix__グループ_1201" transform="translate(20.598 18.999)"><g id="prefix__グループ_1200"><path id="prefix__パス_106" class="st6" d="M15.5 11.3c0 .3-.2.5-.5.5s-.5-.2-.5-.5.2-.5.5-.5.5.2.5.5z"/></g></g><g id="prefix__グループ_1203" transform="translate(31.615 20.484)"><g id="prefix__グループ_1202"><path id="prefix__パス_107" class="st6" d="M15.5 11.3c0 .3-.2.5-.5.5s-.5-.2-.5-.5.2-.5.5-.5.5.2.5.5z"/></g></g><g id="prefix__グループ_1205" transform="translate(22.939 19.915)"><g id="prefix__グループ_1204"><path id="prefix__パス_108" class="st7" d="M16.9 10.8l.7 4.8-2.2.4c-.4.1-.7-.1-.8-.5V15l2.3-4.2z"/></g></g><g id="prefix__グループ_1207" transform="translate(28.453 23.262)"><g id="prefix__グループ_1206"><circle id="prefix__楕円形_37" class="st7" cx="16.2" cy="12.4" r="1.7"/></g></g><g id="prefix__グループ_1209" transform="translate(18.251 21.634)"><g id="prefix__グループ_1208"><circle id="prefix__楕円形_38" class="st7" cx="16.2" cy="12.4" r="1.7"/></g></g><path id="prefix__パス_109" class="st8" d="M32 29.2c-.2-1.4-.1-2.8.2-4.2.4-2.6.5-3.7-.1-4.9s-1.4-2.9-1.1-4.4c.1-1.2.9-2.2 2-2.7s1.2-1.4 2.4-1.5 2.4.1 3.4.7c1.4.7 2.5-1.1 4.4-1.4 1.4-.2 2.9.3 3.9 1.3.8.7 2.5.3 4 1.3s1.2 2.3 2.4 3.1c1.2.8 2.3 1.6 2.2 3.5-.4 2.8-1.2 5.6-2.4 8.1-1 2-3.5 6.1-3.5 6.1h-.5c.4-1.5.8-3 1.1-4.5.3-2.3-1.1-3.9-.6-7.3-1.2-.6-3.8-.3-7.2-.6-2.6-.2-5.1-.8-7.5-1.5 0 0-.4 1.5-.9 3.6s-1.1 3.2-1.3 4.2c-.1.8-.5 3.9-.5 3.9H32v-2.8z"/><g id="prefix__グループ_1212" transform="translate(21.78 27.312)"><g id="prefix__グループ_1211"><g id="prefix__グループ_1210"><path id="prefix__パス_110" class="st9" d="M14.5 11c-.1.6 1 1.2 2.4 1.4s2.6-.2 2.7-.8-1.1-.1-2.5-.3-2.5-.9-2.6-.3z"/></g></g></g><ellipse id="prefix__楕円形_58" class="st3" cx="340.5" cy="149" rx="34.5" ry="34"/><path id="prefix__パス_162" class="st4" d="M350.5 162.4c-.8 2.4-3.4 8.7-9.7 9.6-6.8 1-11.2-4.2-13-8.4 1.3-.8 2.4-2 3-3.4.6-2.1.8-4.2.5-6.4l16.7.6c.1 1.3.8 6.3 2.5 8z"/><g id="prefix__グループ_1299" transform="translate(42.375 15.385)"><g id="prefix__グループ_1298"><path id="prefix__パス_163" class="st4" d="M307.2 127.4s2.5-.6 2.7 2.7c.2 1.4-.7 2.7-2.1 2.9h-.9l.3-5.6z"/></g></g><g id="prefix__グループ_1301" transform="translate(19.231 15.385)"><g id="prefix__グループ_1300"><path id="prefix__パス_164" class="st4" d="M309.6 127.4s-2.5-.6-2.7 2.7c-.2 1.4.7 2.7 2.1 2.9h.9l-.3-5.6z"/></g></g><g id="prefix__グループ_1303" transform="translate(21.846 2.79)"><g id="prefix__グループ_1302"><path id="prefix__パス_165" class="st5" d="M328 141.3c0 7.5-5.3 13.4-10.3 13.3s-10.7-6.2-10.7-13.7 1.8-13.4 10.7-13.6c10.3-.1 10.3 6.5 10.3 14z"/></g></g><path id="prefix__パス_166" class="st1" d="M328.9 142.8s-.4-7.9 1.6-10.9 7.2-4.7 9.8-4.6c3.7.3 6.9 2.4 8.8 5.6.7 2.2 1 4.4 1 6.7 0 1.1-.3 3.4-.3 3.4s-.2-1.8-.5-4.8-.9-5.5-3.7-6.1-3.9 1.8-5.7 1.8-2.7-2.1-5-1.9-4.3 1.5-4.9 4.8-1.1 6-1.1 6z"/><path id="prefix__パス_167" class="st1" d="M328.8 144.1c-.5 2.4-.5 4.8 0 7.2.8 4.2 1.9 6.6 1 8.3s-1.7 1.8-.6 2.6 3.1-.8 3.1-.8-2.7 2.9-2.6 3.8 1.5.4 3.2-.8c0 0-3.2 3.4-1.6 3.9s3.6-1.9 3.6-1.9-2.4 3.1-1 3.4 4.3-1.3 6.9-3.5 6.2-7.2 7.2-10c.9-2.8 1.4-5.7 1.5-8.6.1-1.2.4-3.1.4-3.1-.7 1.9-1.7 3.8-2.7 5.6-1.1 1.5-2.4 3-2.4 3-.5-.8-1.1-1.4-1.9-1.8-1.1-.8-2.1-1.7-2.9-2.8l-1.3-.2c-.4.7-1 1.2-1.7 1.6-1.1.7-3.5 1.8-4 2.9 0 0-1.7-2.2-2.7-3.9-.8-1.5-1.3-3.2-1.5-4.9z"/><g id="prefix__グループ_1305" transform="translate(30.286 15.815)"><g id="prefix__グループ_1304"><path id="prefix__パス_168" class="st7" d="M309.1 127.4l-2.1 5 1.6.5c.3.1.7.1 1 0l1.6-.5-2.1-5z"/></g></g><g id="prefix__グループ_1307" transform="translate(26.352 14.897)"><g id="prefix__グループ_1306"><path id="prefix__楕円形_59" class="st6" d="M307.5 127.4c.3 0 .5.2.5.5s-.2.5-.5.5-.5-.2-.5-.5.2-.5.5-.5z"/></g></g><g id="prefix__グループ_1309" transform="translate(37.046 15.088)"><g id="prefix__グループ_1308"><path id="prefix__楕円形_60" class="st6" d="M307.5 127.4c.3 0 .5.2.5.5s-.2.5-.5.5-.5-.2-.5-.5.2-.5.5-.5z"/></g></g><g id="prefix__グループ_1312" transform="translate(29.408 24.29)"><g id="prefix__グループ_1311"><g id="prefix__グループ_1310"><path id="prefix__パス_169" class="st9" d="M306.9 127.8c0 1 1.2 1.8 2.7 1.8s2.8-.8 2.8-1.8-1.1 0-2.7 0-2.7-1-2.8 0z"/></g></g></g><g id="prefix__グループ_1314" transform="translate(24.71 18.716)"><g id="prefix__グループ_1313"><circle id="prefix__楕円形_61" class="st7" cx="308.7" cy="129.1" r="1.8"/></g></g><g id="prefix__グループ_1316" transform="translate(35.285 18.178)"><g id="prefix__グループ_1315"><circle id="prefix__楕円形_62" class="st7" cx="309.2" cy="129.7" r="1.8"/></g></g><path class="st8" d="M331.6 181.8c2.3-1.4 4.9-2.2 7.7-2.2 3.1 0 6 .9 8.4 2.6 6.9-1.4 13-4.9 17.6-9.7-.3-.3-.6-.5-1-.7-4.4-2.8-11.8-7.4-13.9-9.5-.8 2.5-3.4 8.7-9.7 9.6-6.8 1-11.2-4.2-13-8.4-2.8 2-8.9 5.1-12.9 8.2 4.5 4.9 10.2 8.4 16.8 10.1z"/><path class="st8" d="M332.2 182c1.7.4 3.4.7 5.1.9.7-.1 1.3-.2 2-.2.9 0 1.8.1 2.6.3 1.7-.1 3.5-.3 5.1-.6-2.2-1.4-4.8-2.2-7.6-2.2-2.6-.1-5.1.6-7.2 1.8z"/><path class="st9" d="M337.3 182.8c1.1.1 2.1.2 3.2.2h1.4c-.8-.2-1.7-.3-2.6-.3-.7 0-1.4 0-2 .1zm-5.7-1c.2.1.4.1.6.2 2.1-1.2 4.6-1.9 7.2-1.8 2.8 0 5.4.8 7.6 2.2.2 0 .4-.1.7-.1-2.4-1.6-5.3-2.6-8.4-2.6-2.8 0-5.5.8-7.7 2.1z"/><path id="prefix__パス_634" class="st10" d="M108.7 47l-11.4-4 3.7 11.7 7.7-7.7z"/><path id="prefix__パス_635" class="st10" d="M274.3 47l11.4-4-3.7 11.7-7.7-7.7z"/><path id="prefix__パス_636" class="st10" d="M108.7 141l-11.4 4 3.7-11.7 7.7 7.7z"/><path id="prefix__パス_637" class="st10" d="M274.3 141l11.4 4-3.7-11.7-7.7 7.7z"/><text transform="translate(136.21 194)" class="st8" font-size="14" font-family="HiraginoSans-W6-83pv-RKSJ-H">問題を出しわける</text><circle id="prefix__楕円形_19_1_" cx="42" cy="149" r="34" fill="#34be8e"/><path class="st3" d="M65.8 173.3c-3.3-3.2-8.5-5.4-11.8-7.7-1.2 1.5-4.3 4.3-10 4.9-6.9.7-10.6-1.5-13.1-4.2-3.1 2.6-7.8 5.7-10.5 9.1 5.8 4.8 13.4 7.7 21.5 7.7 9.4-.1 17.7-3.8 23.9-9.8z"/><path id="prefix__パス_64" class="st4" d="M54 165.6c-1.2 1.5-4.3 4.3-10 4.9-6.9.7-10.6-1.5-13.1-4.2 1.5-1.2 2.5-2.3 2.9-3.2 1.4-3.2 1-9.7 1.1-11.8l13.9-.3s.4 7.4 2.4 11.8c.5.9 1.5 1.8 2.8 2.8z"/><path id="prefix__パス_65" class="st6" d="M41.2 125.8c3.2-.2 5.7 2.2 7.4 3.8 1.7 1.7 3.2 3.7 3 6.4s-.4 5.2-.4 5.2.2 5.3-1.2 5.5-15.1.3-15.6.2-1.3-4.7-1.7-5.6c-.4-.9-1.5-4.3-.8-6.7.7-2.3 2.2-4.5 3.8-6.1s4.3-2.6 5.5-2.7z"/><path id="prefix__パス_66" class="st5" d="M32.8 134.4c.6-2.3 2.3-3.6 6.4-2.8s6.6 0 7.8-.5c1.7-.7 3.4.9 4.1 3.4s-.2 6.3-.6 8.4c-.4 2.1-.6 6.8-1 8.7s-3.7 6.9-6.8 7-6.9-5-7.5-6.1c-1-1.8-.7-4.8-1.3-7.8-.7-3.1-1.8-7.7-1.1-10.3z"/><g id="prefix__グループ_1139" transform="translate(71.399 31.947)"><g id="prefix__グループ_1138"><path id="prefix__パス_67" class="st4" d="M-20.2 109.4s2.6-.2 2.2 3.1c-.4 3.4-3.4 2.4-3.4 2.4l1.2-5.5z"/></g></g><g id="prefix__グループ_1141" transform="translate(31.668 31.947)"><g id="prefix__グループ_1140"><path id="prefix__パス_68" class="st4" d="M1.3 109.4s-2.6-.2-2.2 3.1c.4 3.3 3.4 2.4 3.4 2.4l-1.2-5.5z"/></g></g><g id="prefix__グループ_1143" transform="translate(50.254 33.487)"><g id="prefix__グループ_1142"><path id="prefix__パス_69" class="st7" d="M-8 108.6l.8 5.1-2.4.4c-.4.1-.8-.1-.9-.5v-.5l2.5-4.5z"/></g></g><g id="prefix__グループ_1145" transform="translate(44.487 33.133)"><g id="prefix__グループ_1144"><path id="prefix__パス_70" class="st6" d="M-6.5 109.3c0 .3-.2.5-.5.5s-.5-.2-.5-.5.2-.5.5-.5c.3-.1.5.2.5.5z"/></g></g><g id="prefix__グループ_1147" transform="translate(63.318 32.976)"><g id="prefix__グループ_1146"><path id="prefix__パス_71" class="st6" d="M-16.2 109.4c0 .3-.2.5-.5.5s-.5-.2-.5-.5.2-.5.5-.5c.3-.1.5.2.5.5z"/></g></g><path id="prefix__パス_72" d="M49.5 151.2c-1.2-.7-5.1-3-7.7-2.9-2.8.1-5.2 2.4-6.8 4v.1c.6 1.1 4.4 6.3 7.5 6.1 3.1-.1 6.5-5.1 6.8-7 .1-.1.1-.2.2-.3z" opacity=".21" fill="#2962ff"/><g id="prefix__グループ_1149" transform="translate(40.194 38.021)"><g id="prefix__グループ_1148"><circle id="prefix__楕円形_20" class="st7" cx="-3.6" cy="108" r="1.5"/></g></g><g id="prefix__グループ_1151" transform="translate(62.141 38.626)"><g id="prefix__グループ_1150"><circle id="prefix__楕円形_21" class="st7" cx="-15.2" cy="107.4" r="1.5"/></g></g><g id="prefix__グループ_1154" transform="translate(49.195 50.234)"><g id="prefix__グループ_1153"><g id="prefix__グループ_1152"><path id="prefix__パス_75" class="st9" d="M-10 100.4c0 1 1.2 1.8 2.7 1.8s2.8-.8 2.8-1.8-1.1 0-2.7 0-2.8-1-2.8 0z"/></g></g></g><circle id="prefix__楕円形_40_1_" class="st8" cx="341.2" cy="33.5" r="33.9"/><path class="st4" d="M346.4 67c2.2-4.5 4.6-10.2 5.8-13.1-2.3-1.8-4.1-3.5-4.5-4.7-1.1-3.4-.8-10.7-.8-10.7l-12.8-.5s1.3 9.5-.5 12.1c-.6.9-2.5 2.4-4.7 4.3 1.5 2.3 5.3 8.2 8.6 12.8 1.2.1 2.4.2 3.7.2 1.7-.1 3.5-.2 5.2-.4z"/><path class="st6" d="M346.4 67c5.5-.9 10.6-3 14.9-6.2-2.5-2.1-6.2-4.5-9.1-6.8-1.2 2.7-3.6 8.5-5.8 13zm-17.5-12.7c-2.5 2-5.5 4.3-7.9 6.3 4.7 3.5 10.4 5.8 16.4 6.4-3.2-4.5-7-10.4-8.5-12.7z"/><path d="M352.2 53.9c-1.2 2.9-3.7 8.6-5.8 13.1 2.2-4.5 4.6-10.3 5.8-13.1z"/><path id="prefix__パス_113_1_" class="st5" d="M331.9 26.4c-.1 2.4-.4 9.3 1 11.7 1.4 2.4 3.7 6.6 8.5 6.5s7.1-5.4 7.9-7.4.9-7.8.6-11-.3-9-8.5-9.3c-8.3-.2-9.4 6.8-9.5 9.5z"/><g id="prefix__グループ_1218_1_" transform="translate(43.923 49.276)"><g id="prefix__グループ_1217_1_"><path id="prefix__パス_114_1_" class="st6" d="M292.1-17.5c0 .3-.2.5-.5.5s-.5-.2-.5-.5.2-.5.5-.5c.2 0 .5.3.5.5z"/></g></g><g id="prefix__グループ_1220_1_" transform="translate(65.845 49.777)"><g id="prefix__グループ_1219_1_"><path id="prefix__パス_115_1_" class="st6" d="M280.7-17.7c0 .3-.2.5-.5.5s-.5-.2-.5-.5.2-.5.5-.5.5.2.5.5z"/></g></g><g id="prefix__グループ_1222_1_" transform="translate(40.92 55.082)"><g id="prefix__グループ_1221_1_"><circle id="prefix__楕円形_41_1_" class="st7" cx="294.2" cy="-19.3" r="1.7"/></g></g><g id="prefix__グループ_1224_1_" transform="translate(63.743 54.982)"><g id="prefix__グループ_1223_1_"><circle id="prefix__楕円形_42_1_" class="st7" cx="282.5" cy="-19.2" r="1.7"/></g></g><g id="prefix__グループ_1226_1_" transform="translate(52.656 48.629)"><g id="prefix__グループ_1225_1_"><path id="prefix__パス_116_1_" class="st7" d="M288.5-17.7l-2 4.7 1.5.4c.3.1.6.1 1 0l1.5-.5-2-4.6z"/></g></g><g id="prefix__グループ_1228_1_" transform="translate(74.218 45.255)"><g id="prefix__グループ_1227_1_"><path id="prefix__パス_117_1_" class="st4" d="M275.7-15.9s2.4-.6 2.5 2.6-2.8 2.8-2.8 2.8l.3-5.4z"/></g></g><g id="prefix__グループ_1230_1_" transform="translate(32.427 45.255)"><g id="prefix__グループ_1229_1_"><path id="prefix__パス_118_1_" class="st4" d="M299.5-15.9s-2.4-.6-2.5 2.6 2.8 2.8 2.8 2.8l-.3-5.4z"/></g></g><path id="prefix__パス_119_1_" d="M332.2 18.3s.1.8-1.3 1.5c-1.3.7-1.6 2.7-1 4.1s0 2.1-.2 3.3c-.2 1.7 1.2 1.8 1.5 2.2.3.6.6 1.2.8 1.8.1-1.1.2-2.2.2-3.3-.1-.8-.4-1.8-.2-2.7.2-.8.5-1.9 1.5-2s1.7-1.3 1.9-2.6 1.6-1.5 2.5-1.1 1.3-.6 2.2-.9c.9-.3 1.2-.2 1.7.7s1.8.7 2.3.3c.6-.6 1.5-.7 2.3-.3.8.4 1.3 1.3 1.2 2.2 0 1-.4 1.7.5 2.9.9 1.1 1.5 3.9 1.5 5.8.2-.5.6-.9 1-1.3.7-.6.8-1.4.6-2.5s.3-1.5.4-2.2.1-1.4-.2-2c-.4-.9.5-1 .5-2 0-1.4-1.2-1.4-1.5-2.1s.2-1.4-.5-2.2c-.6-.6-1.3-.9-2.1-1 0 0 1.5-1.7-.2-3-1.3-1 .2-1.8-2-2.7-.8-.3-1.4.5-2.4 0-.7-.3-.6-1.8-2.4-2-1.4-.1-1.9.9-2.8 1.4-.9.4-2.2-.1-3.3.4-1.2.5-1.5 1.9-1.5 2.9s-1 1.3-1.9 1.7c-.9.5-1.3 1.9-.9 3 .6 1 1.1 1.5 1.8 1.7z" fill="#fb5d51"/><path id="prefix__パス_627_1_" class="st16" d="M196.9 142.4l-15.4 8.1-.5 3c-.7 4.3-3.4 7.8-6 7.8v2h28.3v-2l-6.4-18.9z"/><path id="prefix__パス_628_1_" class="st17" d="M202.1 153.6l-1.8-11.2-8.7-8.1-8.7 8.1-1.3 8.2H197l.5 3c.7 4.3 3.4 7.8 6 7.8l2.3 2 2.3-2c-2.7 0-5.3-3.5-6-7.8z"/><path id="prefix__パス_629_1_" class="st17" d="M215.6 165.5h-48.3c-.6 0-1.2-.9-1.2-2s.5-2 1.2-2h48.3c.6 0 1.2.9 1.2 2s-.5 2-1.2 2z"/><path id="prefix__パス_630_1_" class="st18" d="M250.8 50.5h-8.1v91.9h8.1c4.5 0 8.1-3.7 8.1-8.1V58.7c.1-4.5-3.6-8.2-8.1-8.2z"/><path id="prefix__パス_631_1_" class="st16" d="M242.7 50.5H132.2c-4.5 0-8.1 3.7-8.1 8.1v75.6c0 4.5 3.7 8.1 8.1 8.1h110.6c4.5 0 8.1-3.7 8.1-8.1v-8.1l-59.3-38.7 59.3-28.7c-.1-4.5-3.7-8.2-8.2-8.2z"/><g id="prefix__グループ_1543_1_" transform="translate(-.151)"><path id="prefix__パス_632_1_" d="M250.8 58.7h-8.1l-51.2 28.7 51.2 38.7h8.1c.1 0 0-67.4 0-67.4z" fill="#d3dfff"/><path id="prefix__パス_633_1_" d="M242.7 58.7H132.2v67.4h110.5V58.7z" fill="#f4f4f7"/></g><circle id="prefix__楕円形_158_1_" cx="251" cy="134.2" r="2" fill="#85cf75"/><circle id="prefix__楕円形_159_1_" class="st18" cx="242.9" cy="134.2" r="2"/><g id="prefix__グループ_1544_1_"><path class="st8" d="M642.4 364.8h-.6V362h.6c1.5-.1 2.7-1.4 2.6-2.9-.1-1.4-1.2-2.5-2.6-2.6-.8 0-1.5.4-2 1l-.1.1-2.8 2.9v-1.3c-.1-1.4-1.3-2.6-2.7-2.5s-2.6 1.3-2.5 2.7c.1 1.4 1.2 2.5 2.6 2.5h.6v2.9h-.6c-1.5-.1-2.8 1.1-2.9 2.6s1.1 2.8 2.6 2.9 2.8-1.1 2.9-2.6v-1.4l2.8 2.9.1.2c.5.6 1.2 1 2 1 1.5-.1 2.7-1.4 2.6-2.9 0-1.5-1.2-2.6-2.6-2.7zm-.5-5.6c0-.3.3-.6.6-.5.3 0 .6.3.5.6 0 .3-.3.5-.6.5h-.6l.1-.6zm-6.4 8.4c0 .3-.3.6-.6.5-.3 0-.6-.3-.5-.6 0-.3.3-.5.6-.5h.6l-.1.6zm0-7.8h-.6c-.3 0-.6-.2-.6-.6 0-.3.2-.6.6-.6.3 0 .6.2.6.6v.6zm4.3 1.4v4.5l-2.1-2.2 2.1-2.3zm2.6 7c-.3 0-.6-.3-.6-.6v-.6h.6c.3 0 .6.3.5.7 0 .2-.2.4-.5.5z" transform="translate(-446.327 -287.027)"/><g class="st0"><path class="st10" d="M600.9 385v-10h2v4.5l4.1-4.5h2.7l-3.8 3.9 4 6.1h-2.6l-2.8-4.7-1.6 1.7v3h-2zm16.7 0h-1.9v-3.7c0-.8 0-1.3-.1-1.5-.1-.2-.2-.4-.4-.5s-.4-.2-.7-.2c-.3 0-.6.1-.9.3s-.4.4-.5.7-.1.9-.1 1.7v3.3h-2v-7.3h1.8v1.1c.6-.8 1.4-1.2 2.4-1.2.4 0 .8.1 1.2.2.4.2.6.3.8.6s.3.5.4.8.1.7.1 1.3v4.4zm1.5-3.7c0-.6.2-1.3.5-1.9s.8-1.1 1.3-1.4 1.2-.5 1.9-.5c1.1 0 2 .4 2.7 1.1.7.7 1.1 1.6 1.1 2.7s-.4 2-1.1 2.7c-.7.7-1.6 1.1-2.7 1.1-.7 0-1.3-.2-1.9-.5s-1.1-.7-1.4-1.3c-.2-.5-.4-1.2-.4-2zm2 .1c0 .7.2 1.3.5 1.7s.8.6 1.3.6.9-.2 1.3-.6.5-.9.5-1.7c0-.7-.2-1.3-.5-1.6s-.8-.6-1.3-.6-.9.2-1.3.6-.5.9-.5 1.6zm8.3 3.6l-2.3-7.3h1.9l1.4 4.8 1.3-4.8h1.9l1.2 4.8 1.4-4.8h1.9l-2.3 7.3H634l-1.3-4.7-1.2 4.7h-2.1zm9.6 0v-10h1.9v10H639zm8.1-2.3l1.9.3c-.2.7-.6 1.2-1.2 1.6-.5.4-1.2.6-2 .6-1.3 0-2.2-.4-2.8-1.2-.5-.7-.7-1.5-.7-2.5 0-1.2.3-2.1.9-2.8.6-.7 1.4-1 2.4-1 1.1 0 1.9.4 2.6 1.1.6.7.9 1.8.9 3.3h-4.8c0 .6.2 1 .5 1.3.3.3.7.5 1.1.5.3 0 .6-.1.8-.2s.3-.6.4-1zm.1-1.9c0-.6-.2-1-.4-1.3-.3-.3-.6-.4-1-.4s-.8.2-1 .5-.4.7-.4 1.2h2.8zm10.1 4.2h-1.8v-1c-.3.4-.6.7-1 .9-.4.2-.8.3-1.2.3-.8 0-1.5-.3-2.1-1-.6-.7-.9-1.6-.9-2.8 0-1.2.3-2.2.9-2.8.6-.6 1.3-1 2.2-1 .8 0 1.5.3 2.1 1V375h1.9v10zm-5.1-3.8c0 .8.1 1.3.3 1.7.3.5.7.8 1.3.8.4 0 .8-.2 1.1-.6.3-.4.5-.9.5-1.7 0-.8-.2-1.4-.5-1.8-.3-.4-.7-.5-1.2-.5s-.8.2-1.1.5c-.3.4-.4.9-.4 1.6zm6.8 4.3l2.2.3c0 .3.1.4.3.5.2.1.5.2.9.2.5 0 .9-.1 1.1-.2.2-.1.3-.3.4-.5.1-.2.1-.5.1-.9v-1.1c-.6.8-1.3 1.2-2.2 1.2-1 0-1.7-.4-2.3-1.2-.4-.7-.7-1.5-.7-2.4 0-1.2.3-2.1.9-2.8.6-.6 1.3-1 2.2-1 .9 0 1.6.4 2.2 1.2v-1h1.8v6.5c0 .9-.1 1.5-.2 1.9-.1.4-.3.8-.6 1-.3.2-.6.4-1 .6-.4.1-1 .2-1.6.2-1.2 0-2.1-.2-2.6-.6-.5-.4-.8-1-.8-1.6-.1-.1-.1-.2-.1-.3zm1.7-4.3c0 .8.1 1.3.4 1.7.3.4.7.5 1.1.5.5 0 .9-.2 1.2-.5.3-.4.5-.9.5-1.6 0-.8-.2-1.3-.5-1.7-.3-.4-.7-.5-1.2-.5s-.8.2-1.1.5c-.2.4-.4.9-.4 1.6zm11.3 1.5l1.9.3c-.2.7-.6 1.2-1.2 1.6-.5.4-1.2.6-2 .6-1.3 0-2.2-.4-2.8-1.2-.5-.7-.7-1.5-.7-2.5 0-1.2.3-2.1.9-2.8.6-.7 1.4-1 2.4-1 1.1 0 1.9.4 2.6 1.1.6.7.9 1.8.9 3.3h-4.8c0 .6.2 1 .5 1.3.3.3.7.5 1.1.5.3 0 .6-.1.8-.2s.3-.6.4-1zm.1-1.9c0-.6-.2-1-.4-1.3-.3-.3-.6-.4-1-.4s-.8.2-1 .5-.4.7-.4 1.2h2.8z" transform="translate(-446.327 -287.027)"/></g><g class="st0"><path class="st10" d="M622.4 390h4c.8 0 1.4 0 1.8.1.4.1.7.2 1 .4s.6.5.8.8c.2.3.3.7.3 1.2s-.1.9-.4 1.3-.6.7-1 .9c.6.2 1.1.5 1.4.9s.5.9.5 1.5c0 .5-.1.9-.3 1.3-.2.4-.5.8-.9 1-.4.3-.8.4-1.4.5-.3 0-1.2.1-2.4.1h-3.4v-10zm2.1 1.7v2.3h2.8c.3 0 .6-.2.8-.4.2-.2.3-.5.3-.8 0-.3-.1-.6-.3-.8-.2-.2-.4-.3-.8-.4h-2.8zm0 4v2.7h1.9c.7 0 1.2 0 1.4-.1.3-.1.5-.2.7-.4.2-.2.3-.5.3-.9 0-.3-.1-.6-.2-.8s-.4-.4-.6-.5-.9-.1-1.8-.1h-1.7zm9.5-.7l-1.7-.3c.2-.7.5-1.2 1-1.6s1.2-.5 2.1-.5c.9 0 1.5.1 1.9.3.4.2.7.5.9.8.2.3.3.9.3 1.7v2.2c0 .6 0 1.1.1 1.4.1.3.2.6.3 1H637c0-.1-.1-.3-.2-.6 0-.1-.1-.2-.1-.2-.3.3-.7.6-1.1.7-.4.2-.8.2-1.2.2-.7 0-1.3-.2-1.8-.6s-.6-.9-.6-1.5c0-.4.1-.8.3-1.1.2-.3.5-.6.8-.7.4-.2.9-.3 1.5-.4.9-.2 1.5-.3 1.9-.5v-.2c0-.4-.1-.6-.3-.8-.2-.2-.5-.2-1-.2-.3 0-.6.1-.8.2-.2.1-.3.3-.4.7zm2.5 1.5c-.2.1-.6.2-1.2.3s-.9.2-1 .3c-.3.2-.4.4-.4.7 0 .3.1.5.3.7.2.2.5.3.8.3.3 0 .7-.1 1-.3.2-.2.4-.4.5-.6.1-.2.1-.5.1-.9v-.5zm10.4 3.5H645v-3.7c0-.8 0-1.3-.1-1.5-.1-.2-.2-.4-.4-.5s-.4-.2-.7-.2c-.3 0-.6.1-.9.3-.3.2-.4.4-.5.7-.1.3-.1.9-.1 1.7v3.3h-1.9v-7.3h1.8v1.1c.6-.8 1.4-1.2 2.4-1.2.4 0 .8.1 1.2.2.4.2.6.3.8.6.2.2.3.5.4.8.1.3.1.7.1 1.3v4.4zm1.9 0v-10h1.9v5.3l2.2-2.6h2.4l-2.5 2.7 2.7 4.6h-2.1l-1.8-3.3-.9.9v2.3h-1.9z" transform="translate(-446.327 -287.027)"/></g></g></svg>