<svg xmlns="http://www.w3.org/2000/svg" width="171.603" height="120"><defs><clipPath id="prefix__clip-path"><path id="prefix__パス_234" d="M532.528 127.058l-7.79 1.546c-1.851.368-4.384 1.892-3.846 3.7l5.769 7.769-.451 5.9 11.63-2.9-2.555-4.929 1.651-8.62c-.211-1.855-2.569-2.831-4.408-2.466z" class="prefix__cls-1" data-name="パス 234" transform="translate(-520.818 -126.982)"/></clipPath><clipPath id="prefix__clip-path-2"><path id="prefix__パス_238" d="M531.025 121.139c.379 1.908-.656 4.818-2.536 5.32-1.96.523-4.029-1.951-4.375-3.948a3.523 3.523 0 116.911-1.372z" class="prefix__cls-2" data-name="パス 238" transform="translate(-524.058 -118.301)"/></clipPath><clipPath id="prefix__clip-path-3"><path id="prefix__パス_249" d="M484.705 124.3h9.06a3.655 3.655 0 013.639 3.995l-1.409 15.105h-13.676l-1.256-15.148a3.655 3.655 0 013.642-3.952z" class="prefix__cls-3" data-name="パス 249" transform="translate(-481.05 -124.296)"/></clipPath><clipPath id="prefix__clip-path-4"><path id="prefix__パス_257" d="M491.024 114.512c1.676 1.454 2.891 4.89 1.437 6.567s-5.027.958-6.7-.5a4.019 4.019 0 015.268-6.071z" class="prefix__cls-4" data-name="パス 257" transform="translate(-484.371 -113.528)"/></clipPath><clipPath id="prefix__clip-path-5"><path id="prefix__パス_268" d="M566.465 125.942h8.879a3.583 3.583 0 013.568 3.916l-1.382 14.811h-13.4l-1.23-14.849a3.582 3.582 0 013.565-3.878z" class="prefix__cls-3" data-name="パス 268" transform="translate(-562.883 -125.942)"/></clipPath><clipPath id="prefix__clip-path-6"><path id="prefix__パス_275" d="M567 119.249c0 2.175 1.763 5.282 3.939 5.282s3.939-3.107 3.939-5.282a3.939 3.939 0 00-7.878 0z" class="prefix__cls-4" data-name="パス 275" transform="translate(-567.004 -115.31)"/></clipPath><clipPath id="prefix__clip-path-7"><path id="prefix__パス_286" d="M614.7 124.332l8.975 1.912a3.7 3.7 0 012.762 4.725l-5.06 16.631-13.353-5.057 2.231-15.063a3.7 3.7 0 014.445-3.148z" class="prefix__cls-5" data-name="パス 286" transform="translate(-608.024 -124.249)"/></clipPath><clipPath id="prefix__clip-path-8"><path id="prefix__パス_293" d="M616.92 116c-1.207 1.9-1.394 5.584.5 6.79s5.157-.521 6.365-2.419A4.071 4.071 0 00616.92 116z" class="prefix__cls-4" data-name="パス 293" transform="translate(-616.005 -114.117)"/></clipPath><style>.prefix__cls-1{fill:#f3ba18}.prefix__cls-2{fill:#e8a181}.prefix__cls-3{fill:#002245}.prefix__cls-4{fill:#f4ae87}.prefix__cls-5{fill:#fb5d51}.prefix__cls-6{fill:#34be8e}.prefix__cls-7{fill:#2962ff}.prefix__cls-8{fill:#00003a}.prefix__cls-9{fill:#ad5549}.prefix__cls-11{fill:#014596}.prefix__cls-15{fill:#c77f67}.prefix__cls-17{fill:#230603}</style></defs><g id="prefix__グループ_996" data-name="グループ 996" transform="translate(-471.214 -58.15)"><g id="prefix__グループ_895" data-name="グループ 895" transform="translate(482.904 61.499)"><g id="prefix__グループ_894" data-name="グループ 894"><g id="prefix__グループ_893" data-name="グループ 893"><g id="prefix__グループ_892" data-name="グループ 892"><g id="prefix__グループ_891" data-name="グループ 891"><path id="prefix__パス_220" d="M482.785 66.039l24.938-4.574 1.93 10.52-7.209 1.322 6.515 35.529-10.589 1.942-6.515-35.529-7.141 1.309z" class="prefix__cls-6" data-name="パス 220" transform="translate(-482.785 -61.465)"/></g></g></g></g></g><g id="prefix__グループ_897" data-name="グループ 897" transform="translate(520.286 63.052)"><g id="prefix__グループ_896" data-name="グループ 896"><path id="prefix__パス_221" d="M522.991 63l21.447 1.471-.682 9.936-10.845-.744-.591 8.607 9.412.646-.665 9.691-9.411-.646-.584 8.5 10.916.749-.684 9.97-21.517-1.476z" class="prefix__cls-5" data-name="パス 221" transform="translate(-519.787 -63.002)"/></g></g><g id="prefix__グループ_899" data-name="グループ 899" transform="translate(553.951 60.251)"><g id="prefix__グループ_898" data-name="グループ 898"><path id="prefix__パス_222" d="M589.847 106.693l-11.042.3-2-7.769-11.218.3-1.645 7.868-10.832.294 11.14-47.136 11.918-.323zm-15.3-15.828q-2.667-10.381-4.115-19.779h-.141q-1 9.744-3 19.972z" class="prefix__cls-1" data-name="パス 222" transform="translate(-553.109 -60.23)"/></g></g><g id="prefix__グループ_902" data-name="グループ 902" transform="translate(596.156 58.15)"><g id="prefix__グループ_901" data-name="グループ 901"><g id="prefix__グループ_900" data-name="グループ 900"><path id="prefix__パス_223" d="M603.279 58.15l13.4.964q1.781 15.316 2.643 26.313l1.675-7.158q1-4.181 2.1-8.146l2.818-10.345 13.677.983 1.958 47.079-10.494-.755-.523-32.315-8.851 31.64-7.17-.515-4.541-32.673-5.048 31.978-10.038-.721z" class="prefix__cls-7" data-name="パス 223" transform="translate(-594.885 -58.15)"/></g></g></g><g id="prefix__グループ_903" data-name="グループ 903" transform="translate(523.431 118.659)"><path id="prefix__パス_224" d="M533.207 124.315s-1.045-5.713-4.372-6.2-5.208 1.469-5.8 4.249a14.4 14.4 0 00.216 4.791z" class="prefix__cls-8" data-name="パス 224" transform="translate(-522.9 -118.044)"/></g><g id="prefix__グループ_904" data-name="グループ 904" transform="translate(517.695 145.151)"><path id="prefix__パス_225" d="M549.342 155.012l-10.67-7.918-6.572 2.006-3.879-4.837c-.782 1.515-.619 5.765-.686 6.073l1.593 13.15a13.7 13.7 0 00-5.317-.928 53.939 53.939 0 01-6.192.207l-.4 2.8s13.237 2.451 14.613 1.323c1.19-.974 3.082-9.815 3.615-12.365.142-.679 1.157-.715 1.412-.531l10.66 4.434a29.659 29.659 0 00-2 5.109c-.529 2.386-1.429 12.022-1.429 12.022l3.2-.276 4.01-17.561a5.714 5.714 0 00-1.958-2.708z" class="prefix__cls-4" data-name="パス 225" transform="translate(-517.222 -144.266)"/></g><g id="prefix__グループ_905" data-name="グループ 905" transform="translate(544.497 175.576)"><path id="prefix__パス_226" d="M543.751 174.966l.322 1.989 6.69-1.084s.239-1.468-2.147-1.489a22.782 22.782 0 00-4.865.584z" class="prefix__cls-9" data-name="パス 226" transform="translate(-543.751 -174.381)"/></g><g id="prefix__グループ_906" data-name="グループ 906" transform="translate(514.611 163.163)"><path id="prefix__パス_227" d="M518.274 162.58l-2.274-.486-1.833 6.526s1.231.833 2.255-1.32a45.1 45.1 0 001.852-4.72z" class="prefix__cls-9" data-name="パス 227" transform="translate(-514.169 -162.094)"/></g><g id="prefix__グループ_907" data-name="グループ 907" transform="translate(516.839 110.463)"><path id="prefix__パス_228" d="M521.5 133.356c2.942-1.748 6.543 2.076 4.424-2.465-1.78-3.817-4.978-8.856-5.212-9.929s2.516-10.276 2.516-10.276l-2.987-.756-3.841 10.37a4.057 4.057 0 00.132 1.629l3.284 8.588z" class="prefix__cls-1" data-name="パス 228" transform="translate(-516.375 -109.931)"/></g><g id="prefix__グループ_908" data-name="グループ 908" transform="translate(537.937 107.809)"><path id="prefix__パス_229" d="M537.672 110.084s-1.158-2.1.4-2.7 2.312 2.188 2.312 2.188z" class="prefix__cls-4" data-name="パス 229" transform="translate(-537.258 -107.303)"/></g><g id="prefix__グループ_909" data-name="グループ 909" transform="translate(531.883 110.081)"><path id="prefix__パス_230" d="M535.626 134.387c-2.894-1.826-5.805-1.52-3.567-6 1.881-3.768 5.228-7.142 5.491-8.209s-.111-9.945-.111-9.945l3.006-.676 1.43 10.074a4.074 4.074 0 01-.175 1.625l-3.457 7.293z" class="prefix__cls-1" data-name="パス 230" transform="translate(-531.265 -109.553)"/></g><g id="prefix__グループ_911" data-name="グループ 911" transform="translate(537.18 109.237)"><g id="prefix__グループ_910" data-name="グループ 910"><path id="prefix__長方形_444" d="M0 0h4.254v1.736H0z" class="prefix__cls-6" data-name="長方形 444" transform="rotate(-12.31 4.208 .452)"/></g></g><g id="prefix__グループ_912" data-name="グループ 912" transform="translate(526.72 143.787)"><path id="prefix__パス_231" d="M537.785 142.916l-11.63 2.9 2.886 17.69a25.722 25.722 0 0011.87-.869 36.989 36.989 0 0010.029-5.491s.112-1.022-1.529-2.113-11.626-12.117-11.626-12.117z" class="prefix__cls-6" data-name="パス 231" transform="translate(-526.155 -142.916)"/></g><g id="prefix__グループ_916" data-name="グループ 916" transform="translate(521.329 127.69)"><path id="prefix__パス_232" d="M532.528 127.058l-7.79 1.546c-1.851.368-4.384 1.892-3.846 3.7l5.769 7.769-.451 5.9 11.63-2.9-2.555-4.929 1.651-8.62c-.211-1.855-2.569-2.831-4.408-2.466z" class="prefix__cls-1" data-name="パス 232" transform="translate(-520.818 -126.982)"/><g id="prefix__グループ_915" data-name="グループ 915"><g id="prefix__グループ_913" data-name="グループ 913" transform="translate(8.398 2.383)"><path id="prefix__長方形_445" d="M0 0h.661v18.684H0z" class="prefix__cls-11" data-name="長方形 445" transform="rotate(-10.728 .655 .061)"/></g><g id="prefix__グループ_914" data-name="グループ 914" transform="translate(4.584 -2.251)"><path id="prefix__パス_233" d="M525.373 128.724a3.616 3.616 0 103.243-3.952 3.616 3.616 0 00-3.243 3.952z" class="prefix__cls-2" data-name="パス 233" transform="translate(-525.355 -124.754)"/></g></g></g><g id="prefix__グループ_917" data-name="グループ 917" transform="translate(526.945 125.627)"><path id="prefix__長方形_446" d="M0 0h3.82v3.993H0z" class="prefix__cls-2" data-name="長方形 446" transform="rotate(-11.19 3.774 .368)"/></g><g id="prefix__グループ_918" data-name="グループ 918" transform="translate(524.589 118.919)"><path id="prefix__パス_235" d="M531.025 121.139c.379 1.908-.627 4.941-2.536 5.32s-4-2.04-4.375-3.948a3.523 3.523 0 116.911-1.372z" class="prefix__cls-4" data-name="パス 235" transform="translate(-524.046 -118.301)"/></g><g id="prefix__グループ_921" data-name="グループ 921" transform="translate(524.601 118.919)"><path id="prefix__パス_236" d="M531.025 121.139c.379 1.908-.656 4.818-2.536 5.32-1.96.523-4.029-1.951-4.375-3.948a3.523 3.523 0 116.911-1.372z" class="prefix__cls-2" data-name="パス 236" transform="translate(-524.058 -118.301)"/><g id="prefix__グループ_920" data-name="グループ 920"><g id="prefix__グループ_919" data-name="グループ 919" transform="translate(-2.757 -1.546)"><path id="prefix__パス_237" d="M526.565 127.15l-.707-5.407s7.311-1.217 7.679-2.372c.29-.909-6.527-2.864-7.411-2.57s-4.8 3.783-4.8 4.67 3.059 3.523 3.059 3.523z" class="prefix__cls-8" data-name="パス 237" transform="translate(-521.329 -116.77)"/></g></g></g><g id="prefix__グループ_922" data-name="グループ 922" transform="translate(521.479 107.863)"><path id="prefix__パス_239" d="M523.315 110.321s1.834-1.541.6-2.66-2.944 1.212-2.944 1.212z" class="prefix__cls-4" data-name="パス 239" transform="translate(-520.968 -107.357)"/></g><g id="prefix__グループ_924" data-name="グループ 924" transform="translate(520.298 109.009)"><g id="prefix__グループ_923" data-name="グループ 923"><path id="prefix__長方形_447" d="M0 0h1.736v4.254H0z" class="prefix__cls-6" data-name="長方形 447" transform="rotate(-64.478 1.242 .783)"/></g></g><g id="prefix__グループ_925" data-name="グループ 925" transform="translate(487.24 121.468)"><path id="prefix__長方形_448" d="M0 0h4.357v4.555H0z" class="prefix__cls-4" data-name="長方形 448"/></g><g id="prefix__グループ_926" data-name="グループ 926" transform="translate(496.096 174.503)"><path id="prefix__パス_240" d="M495.843 173.779v2.3h7.731s.536-1.609-2.145-2.069-3.908-.69-3.908-.69z" class="prefix__cls-11" data-name="パス 240" transform="translate(-495.843 -173.319)"/></g><g id="prefix__グループ_927" data-name="グループ 927" transform="translate(474.839 174.503)"><path id="prefix__パス_241" d="M482.576 173.779v2.3h-7.731s-.536-1.609 2.145-2.069 3.908-.69 3.908-.69z" class="prefix__cls-11" data-name="パス 241" transform="translate(-474.802 -173.319)"/></g><g id="prefix__グループ_928" data-name="グループ 928" transform="translate(503.696 103.987)"><path id="prefix__パス_242" d="M503.549 106.472s-.829-2.6 1.045-2.929 2.1 2.962 2.1 2.962z" class="prefix__cls-4" data-name="パス 242" transform="translate(-503.366 -103.52)"/></g><g id="prefix__グループ_930" data-name="グループ 930" transform="translate(478.272 144.081)"><g id="prefix__グループ_929" data-name="グループ 929"><path id="prefix__パス_243" d="M482.359 143.207h13.665l4.158 14.259v16.643h-4.158a50.494 50.494 0 01-1.693-10.992c-.047-1.357.207-5.057.207-5.057l-4.5-9.274a.939.939 0 00-.845-.528h-.012a.938.938 0 00-.845.528l-4.5 9.274a35.8 35.8 0 01.485 5.652 37.773 37.773 0 01-1.97 10.4H478.2v-16.646z" class="prefix__cls-5" data-name="パス 243" transform="translate(-478.2 -143.207)"/></g></g><g id="prefix__グループ_931" data-name="グループ 931" transform="translate(481.151 124.976)"><path id="prefix__パス_244" d="M484.705 124.3h9.06a3.655 3.655 0 013.639 3.995l-1.409 15.105h-13.676l-1.256-15.148a3.655 3.655 0 013.642-3.952z" class="prefix__cls-3" data-name="パス 244" transform="translate(-481.05 -124.296)"/></g><g id="prefix__グループ_932" data-name="グループ 932" transform="translate(491.958 106.972)"><path id="prefix__パス_245" d="M495.909 133.191c-2.833-2.685-6.157-2.989-2.657-7.509 2.941-3.8 7.435-6.831 7.965-7.966s2.083-11.151 2.083-11.151l3.513-.089-.636 11.589a4.636 4.636 0 01-.556 1.778l-5.488 7.393z" class="prefix__cls-3" data-name="パス 245" transform="translate(-491.747 -106.475)"/></g><g id="prefix__グループ_933" data-name="グループ 933" transform="translate(502.668 106.087)"><path id="prefix__長方形_449" d="M0 0h4.852v1.981H0z" class="prefix__cls-8" data-name="長方形 449" transform="translate(0 .096)"/></g><g id="prefix__グループ_934" data-name="グループ 934" transform="translate(471.747 152.408)"><path id="prefix__パス_246" d="M474.888 151.483s.829 2.6-1.045 2.929-2.1-2.963-2.1-2.963z" class="prefix__cls-4" data-name="パス 246" transform="translate(-471.742 -151.449)"/></g><g id="prefix__グループ_935" data-name="グループ 935" transform="translate(471.747 125.693)"><path id="prefix__パス_247" d="M482.647 125.006c2.832 2.685 6.157 2.989 2.657 7.509-2.941 3.8-7.436 6.831-7.965 7.965s-2.083 11.151-2.083 11.151l-3.514.089.635-11.588a4.621 4.621 0 01.557-1.778l5.488-7.393z" class="prefix__cls-3" data-name="パス 247" transform="translate(-471.742 -125.006)"/></g><g id="prefix__グループ_936" data-name="グループ 936" transform="translate(471.214 151.217)"><path id="prefix__長方形_450" d="M0 0h4.852v1.98H0z" class="prefix__cls-8" data-name="長方形 450" transform="rotate(-1.138 4.833 .048)"/></g><g id="prefix__グループ_939" data-name="グループ 939" transform="translate(481.151 124.976)"><path id="prefix__パス_248" d="M484.705 124.3h9.06a3.655 3.655 0 013.639 3.995l-1.409 15.105h-13.676l-1.256-15.148a3.655 3.655 0 013.642-3.952z" class="prefix__cls-3" data-name="パス 248" transform="translate(-481.05 -124.296)"/><g id="prefix__グループ_938" data-name="グループ 938"><g id="prefix__グループ_937" data-name="グループ 937" transform="translate(7.855 -1.221)"><path id="prefix__長方形_451" d="M0 0h.661v22.446H0z" class="prefix__cls-8" data-name="長方形 451"/></g></g></g><g id="prefix__グループ_941" data-name="グループ 941" transform="translate(487.718 125.867)"><g id="prefix__グループ_940" data-name="グループ 940"><path id="prefix__パス_250" d="M488.541 125.178h1.436l.99 12.28-1.44 2.1a.335.335 0 01-.553 0l-1.424-2.1z" class="prefix__cls-7" data-name="パス 250" transform="translate(-487.55 -125.178)"/></g></g><g id="prefix__グループ_942" data-name="グループ 942" transform="translate(487.991 124.968)"><path id="prefix__パス_251" d="M487.82 125.777a1.49 1.49 0 101.489-1.489 1.489 1.489 0 00-1.489 1.489z" class="prefix__cls-6" data-name="パス 251" transform="translate(-487.82 -124.288)"/></g><g id="prefix__グループ_943" data-name="グループ 943" transform="translate(489.48 124.968)"><path id="prefix__パス_252" d="M489.294 124.288s2.183 3.342 2.777 3.474 1.386-3.433 1.386-3.433z" class="prefix__cls-8" data-name="パス 252" transform="translate(-489.294 -124.288)"/></g><g id="prefix__グループ_944" data-name="グループ 944" transform="translate(485.321 124.968)"><path id="prefix__パス_253" d="M489.34 124.288s-2.182 3.342-2.776 3.474-1.387-3.433-1.387-3.433z" class="prefix__cls-8" data-name="パス 253" transform="translate(-485.177 -124.288)"/></g><g id="prefix__グループ_945" data-name="グループ 945" transform="translate(484.507 114.098)"><path id="prefix__パス_254" d="M491.024 114.512c1.676 1.454 2.891 4.89 1.437 6.567s-5.027.958-6.7-.5a4.019 4.019 0 015.268-6.071z" class="prefix__cls-4" data-name="パス 254" transform="translate(-484.371 -113.528)"/></g><g id="prefix__グループ_948" data-name="グループ 948" transform="translate(484.507 114.098)"><path id="prefix__パス_255" d="M491.024 114.512c1.676 1.454 2.891 4.89 1.437 6.567s-5.027.958-6.7-.5a4.019 4.019 0 015.268-6.071z" class="prefix__cls-4" data-name="パス 255" transform="translate(-484.371 -113.528)"/><g id="prefix__グループ_947" data-name="グループ 947"><g id="prefix__グループ_946" data-name="グループ 946" transform="translate(-2.074 -.118)"><path id="prefix__パス_256" d="M489.333 123.619a27.142 27.142 0 01-3.18-4.01c-.5-1.135 1.211-1.4 1.211-1.4l-.448-1.7s.689-1.5.065-2.391-2.83-.97-3.423-.086-1.673 6.765-1.056 7.563 5.221 1.035 5.221 1.035z" class="prefix__cls-1" data-name="パス 256" transform="translate(-482.318 -113.412)"/></g></g></g><g id="prefix__グループ_949" data-name="グループ 949" transform="translate(484.626 111.239)"><path id="prefix__パス_258" d="M487.789 117.907l3.141-3.62c.544-.626.583-3.765-2.018-3.581s-4.512 4.986-4.419 6.286 2.45 1.89 3.296.915z" class="prefix__cls-1" data-name="パス 258" transform="translate(-484.49 -110.698)"/></g><g id="prefix__グループ_950" data-name="グループ 950" transform="translate(569.792 123.889)"><path id="prefix__長方形_452" d="M0 0h4.271v4.465H0z" class="prefix__cls-2" data-name="長方形 452"/></g><g id="prefix__グループ_951" data-name="グループ 951" transform="translate(578.472 175.185)"><path id="prefix__パス_259" d="M577.381 174.445v2.255h7.578s.526-1.577-2.1-2.028-3.83-.676-3.83-.676z" class="prefix__cls-15" data-name="パス 259" transform="translate(-577.381 -173.994)"/></g><g id="prefix__グループ_952" data-name="グループ 952" transform="translate(557.637 175.185)"><path id="prefix__パス_260" d="M564.379 174.445v2.255H556.8s-.526-1.577 2.1-2.028 3.831-.676 3.831-.676z" class="prefix__cls-15" data-name="パス 260" transform="translate(-556.757 -173.994)"/></g><g id="prefix__グループ_953" data-name="グループ 953" transform="translate(585.923 106.066)"><path id="prefix__パス_261" d="M584.935 108.471s-.813-2.551 1.023-2.871 2.06 2.9 2.06 2.9z" class="prefix__cls-4" data-name="パス 261" transform="translate(-584.756 -105.578)"/></g><g id="prefix__グループ_955" data-name="グループ 955" transform="translate(561.003 145.365)"><g id="prefix__グループ_954" data-name="グループ 954"><path id="prefix__パス_262" d="M564.165 144.478h13.393l4.077 13.976v16.314h-4.077a49.509 49.509 0 01-1.659-10.774c-.045-1.331.2-4.957.2-4.957l-4.407-9.091a.92.92 0 00-.828-.518h-.011a.92.92 0 00-.828.518l-4.407 9.091a35.117 35.117 0 01.475 5.539 37.03 37.03 0 01-1.931 10.192h-4.076v-16.314z" class="prefix__cls-1" data-name="パス 262" transform="translate(-560.089 -144.478)"/></g></g><g id="prefix__グループ_956" data-name="グループ 956" transform="translate(563.825 126.639)"><path id="prefix__パス_263" d="M566.465 125.942h8.879a3.583 3.583 0 013.568 3.916l-1.382 14.811h-13.4l-1.23-14.849a3.582 3.582 0 013.565-3.878z" class="prefix__cls-3" data-name="パス 263" transform="translate(-562.883 -125.942)"/></g><g id="prefix__グループ_957" data-name="グループ 957" transform="translate(574.417 108.992)"><path id="prefix__パス_264" d="M577.447 134.66c-2.776-2.632-6.034-2.931-2.6-7.361 2.883-3.724 7.288-6.7 7.807-7.807s2.042-10.93 2.042-10.93l3.444-.087-.623 11.358a4.536 4.536 0 01-.545 1.744l-5.379 7.247z" class="prefix__cls-3" data-name="パス 264" transform="translate(-573.367 -108.475)"/></g><g id="prefix__グループ_958" data-name="グループ 958" transform="translate(584.914 108.124)"><path id="prefix__長方形_453" d="M0 0h4.756v1.941H0z" class="prefix__cls-11" data-name="長方形 453" transform="rotate(-1.139 4.779 .047)"/></g><g id="prefix__グループ_959" data-name="グループ 959" transform="translate(554.76 106.066)"><path id="prefix__パス_265" d="M556.993 108.471s.813-2.551-1.023-2.871-2.06 2.9-2.06 2.9z" class="prefix__cls-4" data-name="パス 265" transform="translate(-553.91 -105.578)"/></g><g id="prefix__グループ_960" data-name="グループ 960" transform="translate(554.76 108.992)"><path id="prefix__パス_266" d="M564.6 134.66c2.776-2.632 6.034-2.931 2.6-7.361-2.882-3.724-7.288-6.7-7.807-7.807s-2.042-10.93-2.042-10.93l-3.444-.087.623 11.358a4.531 4.531 0 00.545 1.744l5.379 7.247z" class="prefix__cls-3" data-name="パス 266" transform="translate(-553.91 -108.475)"/></g><g id="prefix__グループ_961" data-name="グループ 961" transform="translate(554.238 108.124)"><path id="prefix__長方形_454" d="M0 0h1.941v4.756H0z" class="prefix__cls-11" data-name="長方形 454" transform="rotate(-88.861 .99 .97)"/></g><g id="prefix__グループ_964" data-name="グループ 964" transform="translate(563.825 126.639)"><path id="prefix__パス_267" d="M566.465 125.942h8.879a3.583 3.583 0 013.568 3.916l-1.382 14.811h-13.4l-1.23-14.849a3.582 3.582 0 013.565-3.878z" class="prefix__cls-3" data-name="パス 267" transform="translate(-562.883 -125.942)"/><g id="prefix__グループ_963" data-name="グループ 963"><g id="prefix__グループ_962" data-name="グループ 962" transform="translate(7.692 -1.197)"><path id="prefix__長方形_455" d="M0 0h.661v22.001H0z" class="prefix__cls-17" data-name="長方形 455"/></g></g></g><g id="prefix__グループ_965" data-name="グループ 965" transform="translate(570.262 127.513)"><path id="prefix__パス_269" d="M570.224 126.807h1.407l.971 12.035-1.41 2.062a.328.328 0 01-.541 0l-1.4-2.061z" data-name="パス 269" transform="translate(-569.254 -126.807)" fill="#f9c273"/></g><g id="prefix__グループ_966" data-name="グループ 966" transform="translate(570.529 126.631)"><path id="prefix__パス_270" d="M569.518 127.394a1.46 1.46 0 101.46-1.46 1.46 1.46 0 00-1.46 1.46z" class="prefix__cls-6" data-name="パス 270" transform="translate(-569.518 -125.934)"/></g><g id="prefix__グループ_967" data-name="グループ 967" transform="translate(571.989 126.631)"><path id="prefix__パス_271" d="M570.963 125.934s2.14 3.276 2.722 3.406 1.359-3.365 1.359-3.365z" class="prefix__cls-11" data-name="パス 271" transform="translate(-570.963 -125.934)"/></g><g id="prefix__グループ_968" data-name="グループ 968" transform="translate(567.912 126.631)"><path id="prefix__パス_272" d="M571.008 125.934s-2.14 3.276-2.722 3.406-1.359-3.365-1.359-3.365z" class="prefix__cls-11" data-name="パス 272" transform="translate(-566.928 -125.934)"/></g><g id="prefix__グループ_971" data-name="グループ 971" transform="translate(567.989 115.898)"><path id="prefix__パス_273" d="M567 119.249c0 2.175 1.763 5.282 3.939 5.282s3.939-3.107 3.939-5.282a3.939 3.939 0 00-7.878 0z" class="prefix__cls-4" data-name="パス 273" transform="translate(-567.004 -115.31)"/><g id="prefix__グループ_970" data-name="グループ 970"><g id="prefix__グループ_969" data-name="グループ 969" transform="translate(-2.676 -1.912)"><path id="prefix__パス_274" d="M572.911 123.709v-2.135s1.553-1.553 1.036-2.653-1.811 0-1.811 0l-7.78.053s6.1-5.683 7.133-5.554 6.083 3.107 6.277 4.077-2.588 4.529-2.588 4.529z" class="prefix__cls-17" data-name="パス 274" transform="translate(-564.355 -113.418)"/></g></g></g><g id="prefix__グループ_972" data-name="グループ 972" transform="translate(617.622 122.206)"><path id="prefix__パス_276" d="M621.69 121.554l-4.6.1-.962 4.513 4.316.92z" class="prefix__cls-2" data-name="パス 276" transform="translate(-616.132 -121.554)"/></g><g id="prefix__グループ_973" data-name="グループ 973" transform="translate(608.732 175.049)"><path id="prefix__パス_277" d="M607.333 174.363l.052 2.327 7.773-.172s.5-1.641-2.2-2.047-3.945-.611-3.945-.611z" class="prefix__cls-5" data-name="パス 277" transform="translate(-607.333 -173.86)"/></g><g id="prefix__グループ_974" data-name="グループ 974" transform="translate(591.632 167.834)"><path id="prefix__パス_278" d="M598.186 169.642l-1.21 1.989-6.569-3.927s.383-1.674 2.945-.66 3.745 1.46 3.745 1.46z" class="prefix__cls-5" data-name="パス 278" transform="translate(-590.407 -166.718)"/></g><g id="prefix__グループ_975" data-name="グループ 975" transform="translate(622.94 100.17)"><path id="prefix__パス_279" d="M622.609 103.169s-2.143-1.75-.732-3.063 3.421 1.353 3.421 1.353z" class="prefix__cls-4" data-name="パス 279" transform="translate(-621.396 -99.742)"/></g><g id="prefix__グループ_977" data-name="グループ 977" transform="translate(595.57 143.006)"><g id="prefix__グループ_976" data-name="グループ 976"><path id="prefix__パス_280" d="M608.776 142.143l12.705 4.933.35 14.9-10.575 12.573-3.788.333s.374-6.559 4.2-11.074a7.374 7.374 0 014.912-2.832l-4.1-9.96a.948.948 0 00-.452-.9l-.01-.006a.95.95 0 00-1.01.013l-12.644 2.462s2.4 1.483 2.229 7.977a24.8 24.8 0 01-2.5 9.4l-3.6-2.19-.194-19.809z" class="prefix__cls-3" data-name="パス 280" transform="translate(-594.305 -142.143)"/></g></g><g id="prefix__グループ_978" data-name="グループ 978" transform="translate(609.707 124.929)"><path id="prefix__パス_281" d="M614.695 124.332l8.975 1.912a3.7 3.7 0 012.762 4.725l-4.587 14.672-13.545-2.887 1.954-15.271a3.7 3.7 0 014.441-3.151z" class="prefix__cls-5" data-name="パス 281" transform="translate(-608.298 -124.249)"/></g><g id="prefix__グループ_979" data-name="グループ 979" transform="translate(623.91 101.886)"><path id="prefix__パス_282" d="M624.907 135.847c-3.889-.712-2.152-3.877-2.054-6.037.221-4.861 4.079-14.479 3.9-15.735s-4.4-10.616-4.4-10.616l2.932-2.018 5.869 10.186a4.7 4.7 0 01.511 1.816s.011 7.051-.569 9.309c-.896 3.508-6.189 13.095-6.189 13.095z" class="prefix__cls-5" data-name="パス 282" transform="translate(-622.356 -101.441)"/></g><g id="prefix__グループ_980" data-name="グループ 980" transform="translate(622.708 100.861)"><path id="prefix__長方形_456" d="M0 0h4.915v2.006H0z" class="prefix__cls-11" data-name="長方形 456" transform="rotate(-34.228 4.49 1.383)"/></g><g id="prefix__グループ_981" data-name="グループ 981" transform="translate(613.347 101.309)"><path id="prefix__パス_283" d="M614.386 104.3s2.322-1.506 1.063-2.964-3.548.971-3.548.971z" class="prefix__cls-4" data-name="パス 283" transform="translate(-611.901 -100.87)"/></g><g id="prefix__グループ_982" data-name="グループ 982" transform="translate(605.884 102.972)"><path id="prefix__パス_284" d="M610.915 132.763c3.373-2.062 6.73-1.662 4.219-6.878-2.112-4.385-5.118-8.363-5.4-9.6s3.92-11.021 3.92-11.021l-2.664-2.748-6.45 12.178a4.684 4.684 0 00.177 1.879l3.274 9.4z" class="prefix__cls-5" data-name="パス 284" transform="translate(-604.514 -102.516)"/></g><g id="prefix__グループ_983" data-name="グループ 983" transform="translate(611.713 101.738)"><path id="prefix__長方形_457" d="M0 0h2.006v4.915H0z" class="prefix__cls-11" data-name="長方形 457" transform="rotate(-47.157 1.685 .736)"/></g><g id="prefix__グループ_986" data-name="グループ 986" transform="translate(609.43 124.929)"><path id="prefix__パス_285" d="M614.7 124.332l8.975 1.912a3.7 3.7 0 012.762 4.725l-5.06 16.631-13.353-5.057 2.231-15.063a3.7 3.7 0 014.445-3.148z" class="prefix__cls-5" data-name="パス 285" transform="translate(-608.024 -124.249)"/><g id="prefix__グループ_985" data-name="グループ 985"><g id="prefix__グループ_984" data-name="グループ 984" transform="translate(6.352 -.239)"><path id="prefix__長方形_458" d="M0 0h22.736v.662H0z" class="prefix__cls-17" data-name="長方形 458" transform="rotate(-77.944 13.742 11.117)"/></g></g></g><g id="prefix__グループ_988" data-name="グループ 988" transform="translate(615.602 126.833)"><g id="prefix__グループ_987" data-name="グループ 987"><path id="prefix__パス_287" d="M617.707 126.134l1.422.3-1.612 12.374-1.869 1.78a.339.339 0 01-.548-.118l-.968-2.383z" class="prefix__cls-6" data-name="パス 287" transform="translate(-614.133 -126.134)"/></g></g><g id="prefix__グループ_989" data-name="グループ 989" transform="translate(618.275 125.759)"><path id="prefix__パス_288" d="M616.813 126.266a1.509 1.509 0 101.79-1.162 1.509 1.509 0 00-1.79 1.162z" class="prefix__cls-6" data-name="パス 288" transform="translate(-616.779 -125.071)"/></g><g id="prefix__グループ_990" data-name="グループ 990" transform="translate(619.975 125.762)"><path id="prefix__パス_289" d="M618.461 125.074s1.456 3.771 2.018 4.027 2.1-3.108 2.1-3.108z" class="prefix__cls-11" data-name="パス 289" transform="translate(-618.461 -125.074)"/></g><g id="prefix__グループ_991" data-name="グループ 991" transform="translate(615.846 124.924)"><path id="prefix__パス_290" d="M618.507 125.083s-2.868 2.85-3.484 2.856-.648-3.694-.648-3.694z" class="prefix__cls-11" data-name="パス 290" transform="translate(-614.374 -124.245)"/></g><g id="prefix__グループ_994" data-name="グループ 994" transform="translate(617.493 114.693)"><path id="prefix__パス_291" d="M616.92 116c-1.207 1.9-1.394 5.584.5 6.79s5.157-.521 6.365-2.419A4.071 4.071 0 00616.92 116z" class="prefix__cls-4" data-name="パス 291" transform="translate(-616.005 -114.117)"/><g id="prefix__グループ_993" data-name="グループ 993"><g id="prefix__グループ_992" data-name="グループ 992" transform="translate(-3.722 -1.846)"><path id="prefix__パス_292" d="M622.062 123.9s-.6-1.59-.375-2.124c.268-.619 1.333-.973 1.492-2.219s-1.579-1.005-1.579-1.005l-9.279-3.645s5.063-1.119 5.412-2.165 5.524-.032 6.355.656 3.579 6.083 3.211 7.037-4.771 2.513-4.771 2.513z" class="prefix__cls-1" data-name="パス 292" transform="translate(-612.321 -112.29)"/></g></g></g><g id="prefix__グループ_995" data-name="グループ 995" transform="translate(618.185 111.879)"><path id="prefix__パス_294" d="M616.689 116.5s1.29-5.08 1.665-5.163.333 2.165.833 2.165 1.249-1.207 1.707-1.124 0 1.207.458 1.374 1.02-.926 1.394-.8-.02 1.051.313 1.426 1.135-.781 1.467-.614-.051 3.695-.094 4.528-7.743-1.792-7.743-1.792z" class="prefix__cls-1" data-name="パス 294" transform="translate(-616.689 -111.333)"/></g></g></svg>