<svg xmlns="http://www.w3.org/2000/svg" width="130.602" height="120"><defs><clipPath id="prefix__clip-path"><path id="prefix__パス_45" d="M172.113 106.172l9.241.9c2.2.215 5.317 1.7 4.9 3.865l-5.82 9.7 1.287 6.146-13.949-1.366 2.407-6.027-2.91-9.839c.031-2.186 2.663-3.592 4.844-3.379z" class="prefix__cls-1" data-name="パス 45" transform="translate(-167.268 -106.151)"/></clipPath><clipPath id="prefix__clip-path-2"><path id="prefix__パス_48" d="M173.9 95.843c-.23 2.355 1.349 5.9 3.7 6.135s4.594-2.945 4.824-5.3a4.285 4.285 0 10-8.529-.835z" class="prefix__cls-2" data-name="パス 48" transform="translate(-173.877 -91.975)"/></clipPath><clipPath id="prefix__clip-path-3"><path id="prefix__パス_59" d="M75.041 96l-9.058-3.026a3.853 3.853 0 00-4.972 2.779l-4.249 17.584 14.643 2.518 5.956-14.684A3.852 3.852 0 0075.041 96z" class="prefix__cls-1" data-name="パス 59" transform="translate(-56.763 -92.774)"/></clipPath><clipPath id="prefix__clip-path-4"><path id="prefix__パス_68" d="M80.679 86.257c-.741 2.219-3.6 4.787-5.817 4.045s-2.96-4.509-2.218-6.728a4.236 4.236 0 018.035 2.684z" class="prefix__cls-3" data-name="パス 68" transform="translate(-72.365 -80.679)"/></clipPath><style>.prefix__cls-1{fill:#002245}.prefix__cls-2{fill:#f4ae87}.prefix__cls-3{fill:#e8a181}.prefix__cls-4{fill:#272168}.prefix__cls-6{fill:#448fea}.prefix__cls-9{fill:#fb5d51}.prefix__cls-10{fill:#34be8e}.prefix__cls-11{fill:#014596}</style></defs><g id="prefix__グループ_1092" data-name="グループ 1092" transform="translate(-46.894 -41.938)"><g id="prefix__グループ_636" data-name="グループ 636" transform="translate(141.918 154.379)"><path id="prefix__パス_33" d="M171.455 181.859v1.958h-6.585s-.457-1.371 1.827-1.762 3.328-.588 3.328-.588z" class="prefix__cls-1" data-name="パス 33" transform="translate(-164.832 -181.467)"/></g><g id="prefix__グループ_637" data-name="グループ 637" transform="translate(151.837 154.379)"><path id="prefix__パス_34" d="M183.425 181.859v1.958h-6.586s-.457-1.371 1.827-1.762 3.329-.588 3.329-.588z" class="prefix__cls-1" data-name="パス 34" transform="translate(-176.801 -181.467)"/></g><g id="prefix__グループ_638" data-name="グループ 638" transform="translate(141.163 137.117)"><path id="prefix__パス_35" d="M163.884 159.732l4.135 17.613 3.293.46-1.912-17.92z" class="prefix__cls-2" data-name="パス 35" transform="translate(-163.884 -159.732)"/></g><g id="prefix__グループ_639" data-name="グループ 639" transform="translate(151.046 135.09)"><path id="prefix__パス_36" d="M175.805 159.206l4.365 17.537 3.063.536-2.2-20.1z" class="prefix__cls-2" data-name="パス 36" transform="translate(-175.805 -157.18)"/></g><g id="prefix__グループ_640" data-name="グループ 640" transform="translate(163.535 123.163)"><path id="prefix__パス_37" d="M192.039 142.789s-1.326 2.175.3 2.884 2.557-2.221 2.557-2.221z" class="prefix__cls-2" data-name="パス 37" transform="translate(-191.53 -142.789)"/></g><g id="prefix__グループ_641" data-name="グループ 641" transform="translate(158.117 97.052)"><path id="prefix__パス_38" d="M189.5 110.124c-3.158 1.808-6.237 1.352-4.062 6.218 1.827 4.089 5.231 7.826 5.461 8.971s-.57 10.561-.57 10.561l3.163.855 1.978-10.638a4.325 4.325 0 00-.112-1.734l-3.343-7.907z" class="prefix__cls-1" data-name="パス 38" transform="translate(-184.708 -110.124)"/></g><g id="prefix__グループ_642" data-name="グループ 642" transform="translate(163.001 121.824)"><path id="prefix__パス_39" d="M195.014 144.022l-4.156-1.108.468-1.786 4.156 1.108z" class="prefix__cls-4" data-name="パス 39" transform="translate(-190.858 -141.128)"/></g><g id="prefix__グループ_643" data-name="グループ 643" transform="translate(121.738 107.073)"><path id="prefix__パス_40" d="M142.631 122.956s-2.523-.732-2.79 1.078 2.9 1.946 2.9 1.946z" class="prefix__cls-2" data-name="パス 40" transform="translate(-139.825 -122.81)"/></g><g id="prefix__グループ_644" data-name="グループ 644" transform="translate(124.928 94.349)"><path id="prefix__パス_41" d="M168.909 111.548c-2.653-2.656-2.081-6.8-6.338-3.317-3.578 2.924-7.329 8.273-8.407 8.811s-10.669 2.284-10.669 2.284v3.38l11.126-.9a4.451 4.451 0 001.7-.58l6.971-5.462z" class="prefix__cls-1" data-name="パス 41" transform="translate(-143.495 -106.9)"/></g><g id="prefix__グループ_645" data-name="グループ 645" transform="translate(123.819 106.291)"><path id="prefix__パス_42" d="M142.438 126.278l-.019-4.437 1.9-.016.019 4.437z" class="prefix__cls-4" data-name="パス 42" transform="translate(-142.419 -121.825)"/></g><g id="prefix__グループ_651" data-name="グループ 651" transform="translate(144.266 93.785)"><path id="prefix__パス_43" d="M172.113 106.172l9.241.9c2.2.215 5.317 1.7 4.9 3.865l-5.82 9.7 1.287 6.146-13.949-1.366 2.407-6.027-2.91-9.839c.031-2.186 2.663-3.592 4.844-3.379z" class="prefix__cls-1" data-name="パス 43" transform="translate(-167.268 -106.151)"/><g id="prefix__グループ_650" data-name="グループ 650"><g id="prefix__グループ_647" data-name="グループ 647" transform="translate(6.39 2.412)"><g id="prefix__グループ_646" data-name="グループ 646"><path id="prefix__長方形_407" d="M0 0h21.843v.52H0z" class="prefix__cls-6" data-name="長方形 407" transform="rotate(-84.89 11.894 10.878)"/></g></g><g id="prefix__グループ_649" data-name="グループ 649" transform="translate(4.646 -3.159)"><g id="prefix__グループ_648" data-name="グループ 648"><path id="prefix__パス_44" d="M181.571 106.4a4.226 4.226 0 11-4.226-4.227 4.226 4.226 0 014.226 4.227z" class="prefix__cls-3" data-name="パス 44" transform="translate(-173.118 -102.173)"/></g></g></g></g><g id="prefix__グループ_652" data-name="グループ 652" transform="translate(150.545 90.893)"><path id="prefix__長方形_408" d="M0 0h4.669v4.466H0z" class="prefix__cls-3" data-name="長方形 408" transform="matrix(.097 -.995 .995 .097 0 4.646)"/></g><g id="prefix__グループ_655" data-name="グループ 655" transform="translate(149.229 82.274)"><path id="prefix__パス_46" d="M173.9 95.843c-.23 2.355 1.349 5.9 3.7 6.135s4.594-2.945 4.824-5.3a4.285 4.285 0 10-8.529-.835z" class="prefix__cls-2" data-name="パス 46" transform="translate(-173.877 -91.975)"/><g id="prefix__グループ_654" data-name="グループ 654"><g id="prefix__グループ_653" data-name="グループ 653" transform="translate(-4.827 -1.789)"><path id="prefix__パス_47" d="M179.557 103.716l-.357-5.054s1.589-1.495.868-2.6c-.663-1.021-1.531.255-1.531.255s-10.138.179-10.721-1.174c-.46-1.067 8.852-5.656 9.959-5.407s6.256 4.008 6.363 5.079-3.282 4.629-3.282 4.629z" class="prefix__cls-1" data-name="パス 47" transform="translate(-167.799 -89.723)"/></g></g></g><g id="prefix__グループ_656" data-name="グループ 656" transform="translate(137.251 113.437)"><path id="prefix__パス_49" d="M179.9 131.782l-13.949-1.366-7.517 23.284 25.271 2.144z" class="prefix__cls-6" data-name="パス 49" transform="translate(-158.434 -130.416)"/></g><g id="prefix__グループ_658" data-name="グループ 658" transform="translate(87.115 117.553)"><g id="prefix__グループ_657" data-name="グループ 657"><circle id="prefix__楕円形_57" cx="16.985" cy="16.985" r="16.985" data-name="楕円形 57" transform="rotate(-67.5 23.485 15.693)" fill="#f3ba18"/></g></g><g id="prefix__グループ_660" data-name="グループ 660" transform="translate(80.908 65.346)"><g id="prefix__グループ_659" data-name="グループ 659"><path id="prefix__長方形_409" d="M0 0h40.147v40.147H0z" class="prefix__cls-9" data-name="長方形 409" transform="rotate(-45 34.267 14.194)"/></g></g><g id="prefix__グループ_661" data-name="グループ 661" transform="translate(79.028 52.867)"><path id="prefix__長方形_410" d="M0 0h60.53v12.367H0z" class="prefix__cls-10" data-name="長方形 410"/></g><g id="prefix__グループ_662" data-name="グループ 662" transform="translate(66.339 80.905)"><path id="prefix__長方形_411" d="M0 0h4.801v4.592H0z" class="prefix__cls-3" data-name="長方形 411" transform="rotate(-71.532 3.161 2.277)"/></g><g id="prefix__グループ_663" data-name="グループ 663" transform="translate(46.901 138.794)"><path id="prefix__パス_50" d="M55.009 162.3l.034 2.422-8.09.118s-.585-1.688 2.214-2.213 4.079-.786 4.079-.786z" class="prefix__cls-9" data-name="パス 50" transform="translate(-46.903 -161.843)"/></g><g id="prefix__グループ_664" data-name="グループ 664" transform="translate(69.731 138.54)"><path id="prefix__パス_51" d="M75.233 161.968l.034 2.422 7.963-.051s.542-1.7-2.292-2.148-4.128-.668-4.128-.668z" class="prefix__cls-9" data-name="パス 51" transform="translate(-75.233 -161.524)"/></g><g id="prefix__グループ_665" data-name="グループ 665" transform="translate(76.004 58.686)"><path id="prefix__パス_52" d="M84.542 66.427s2.846-.438 2.275-2.36-3.781-.594-3.781-.594z" class="prefix__cls-2" data-name="パス 52" transform="translate(-83.035 -63.026)"/></g><g id="prefix__グループ_667" data-name="グループ 667" transform="translate(50.373 103.772)"><g id="prefix__グループ_666" data-name="グループ 666"><path id="prefix__パス_53" d="M69.845 120.589l-14-2.287-4.572 17.583.251 17.541 4.383-.063a53.232 53.232 0 001.619-11.61c.029-1.43-.3-5.327-.3-5.327l4.6-9.841a.99.99 0 01.882-.571h.013a.992.992 0 01.9.545l10.035 8.885s-2.2 2.186-2.851 7.243a79.852 79.852 0 00-.5 10.47l4.383-.063 5.052-19.645z" class="prefix__cls-11" data-name="パス 53" transform="translate(-51.275 -118.302)"/></g></g><g id="prefix__グループ_668" data-name="グループ 668" transform="translate(55.345 83.002)"><path id="prefix__パス_54" d="M75.2 96l-9.058-3.026a3.853 3.853 0 00-4.972 2.779l-3.635 15.577 13.671 4.57 6.314-14.724A3.852 3.852 0 0075.2 96z" class="prefix__cls-1" data-name="パス 54" transform="translate(-57.535 -92.774)"/></g><g id="prefix__グループ_669" data-name="グループ 669" transform="translate(57.767 59.133)"><path id="prefix__パス_55" d="M60.585 94.638c3.862 1.415 3.977-2.34 5.03-4.328 2.369-4.475 3.99-15.136 4.813-16.168s9.55-7.195 9.55-7.195l-1.563-3.358-10.642 6.033a4.889 4.889 0 00-1.418 1.359s-3.734 6.315-4.406 8.646c-1.049 3.621-1.364 15.011-1.364 15.011z" class="prefix__cls-1" data-name="パス 55" transform="translate(-60.585 -63.589)"/></g><g id="prefix__グループ_670" data-name="グループ 670" transform="translate(74.702 58.251)"><path id="prefix__長方形_412" d="M0 0h2.087v5.114H0z" class="prefix__cls-11" data-name="長方形 412" transform="rotate(-25.31 1.986 .447)"/></g><g id="prefix__グループ_671" data-name="グループ 671" transform="translate(85.037 65.101)"><path id="prefix__パス_56" d="M94.677 74s-1.286-2.576.613-3.219 2.668 2.745 2.668 2.745z" class="prefix__cls-2" data-name="パス 56" transform="translate(-94.251 -70.697)"/></g><g id="prefix__グループ_673" data-name="グループ 673" transform="translate(69.645 68.716)"><g id="prefix__グループ_672" data-name="グループ 672"><path id="prefix__パス_57" d="M77.9 101.731c-1.935-3.63-5.157-5.044-.149-8.395 4.208-2.815 9.005-4.8 9.914-5.753s3.386-12.006 3.386-12.006l3.816-.511L93.163 88.9a4.883 4.883 0 01-1.151 1.592l-7.9 6.7z" class="prefix__cls-1" data-name="パス 57" transform="translate(-75.083 -75.067)"/></g></g><g id="prefix__グループ_674" data-name="グループ 674" transform="translate(84.523 67.193)"><path id="prefix__長方形_413" d="M0 0h5.114v2.087H0z" class="prefix__cls-11" data-name="長方形 413" transform="rotate(-12.31 5.05 .543)"/></g><g id="prefix__グループ_677" data-name="グループ 677" transform="translate(54.732 83.002)"><path id="prefix__パス_58" d="M75.041 96l-9.058-3.026a3.853 3.853 0 00-4.972 2.779l-4.249 17.584 14.643 2.518 5.956-14.684A3.852 3.852 0 0075.041 96z" class="prefix__cls-1" data-name="パス 58" transform="translate(-56.763 -92.774)"/><g id="prefix__グループ_676" data-name="グループ 676"><g id="prefix__グループ_675" data-name="グループ 675" transform="translate(6.42 .408)"><path id="prefix__長方形_414" d="M0 0h23.658v.52H0z" class="prefix__cls-11" data-name="長方形 414" transform="rotate(-71.554 15.571 11.221)"/></g></g></g><g id="prefix__グループ_678" data-name="グループ 678" transform="translate(62.754 85.317)"><path id="prefix__パス_60" d="M73.389 96.193l-1.435-.48-5.09 11.945.736 2.584a.352.352 0 00.553.183l2.126-1.626z" class="prefix__cls-10" data-name="パス 60" transform="translate(-66.864 -95.713)"/></g><g id="prefix__グループ_679" data-name="グループ 679" transform="translate(66.741 84.48)"><path id="prefix__パス_61" d="M74.943 96.825a1.57 1.57 0 11-.992-1.986 1.57 1.57 0 01.992 1.986z" class="prefix__cls-10" data-name="パス 61" transform="translate(-71.884 -94.758)"/></g><g id="prefix__グループ_680" data-name="グループ 680" transform="translate(64.51 83.198)"><path id="prefix__パス_62" d="M73.373 94.511s-3.3 2.613-3.936 2.546-.239-3.895-.239-3.895z" class="prefix__cls-11" data-name="パス 62" transform="translate(-69.075 -93.162)"/></g><g id="prefix__グループ_681" data-name="グループ 681" transform="translate(69.116 84.568)"><path id="prefix__パス_63" d="M74.482 94.859s1.066 4.069 1.616 4.4 2.532-2.969 2.532-2.969z" class="prefix__cls-11" data-name="パス 63" transform="translate(-74.482 -94.859)"/></g><g id="prefix__グループ_682" data-name="グループ 682" transform="translate(67.421 73.167)"><path id="prefix__パス_64" d="M80.679 86.257c-.741 2.219-3.6 4.787-5.817 4.045s-2.96-4.509-2.218-6.728a4.236 4.236 0 018.035 2.684z" class="prefix__cls-3" data-name="パス 64" transform="translate(-72.365 -80.679)"/></g><g id="prefix__グループ_683" data-name="グループ 683" transform="translate(70.004 72.994)"><path id="prefix__パス_65" d="M76.755 84.425l4.791 1.6c.829.277 3.9-.95 2.675-3.409s-6.674-2.385-7.9-1.771-.855 3.149.434 3.58z" class="prefix__cls-1" data-name="パス 65" transform="translate(-75.568 -80.485)"/></g><g id="prefix__グループ_686" data-name="グループ 686" transform="translate(67.421 73.167)"><path id="prefix__パス_66" d="M80.679 86.257c-.741 2.219-3.6 4.787-5.817 4.045s-2.96-4.509-2.218-6.728a4.236 4.236 0 018.035 2.684z" class="prefix__cls-3" data-name="パス 66" transform="translate(-72.365 -80.679)"/><g id="prefix__グループ_685" data-name="グループ 685"><g id="prefix__グループ_684" data-name="グループ 684" transform="translate(-2.137 -1.929)"><path id="prefix__パス_67" d="M72.615 88.283l.727-2.178s-1.055-2.113-.152-3.058 1.848.617 1.848.617l1.475-1.121s1.738.068 2.355-.9-.2-3.147-1.3-3.367-7.262 1.1-7.791 2.02 1.1 5.5 1.1 5.5z" class="prefix__cls-1" data-name="パス 67" transform="translate(-69.675 -78.25)"/></g></g></g><g id="prefix__グループ_687" data-name="グループ 687" transform="translate(46.894 141.329)"><path id="prefix__長方形_415" d="M0 0h30.525v1.595H0z" class="prefix__cls-6" data-name="長方形 415"/></g><g id="prefix__グループ_688" data-name="グループ 688" transform="translate(46.897 141.792)"><path id="prefix__長方形_416" d="M0 0h.69v15.055H0z" class="prefix__cls-6" data-name="長方形 416"/></g><g id="prefix__グループ_689" data-name="グループ 689" transform="translate(77.138 141.792)"><path id="prefix__長方形_417" d="M0 0h.69v15.055H0z" class="prefix__cls-6" data-name="長方形 417"/></g><g id="prefix__グループ_691" data-name="グループ 691" transform="translate(154.426 75.911)"><g id="prefix__グループ_690" data-name="グループ 690"><path id="prefix__パス_69" d="M180.26 90.145a4.68 4.68 0 014.27-6.083c4.906-.35 4.621 2.924 7.018 4.562 1.345.919 6.9-1.111 10.528 3.568 3.1 4-1 11.164-7.6 8.656-6.316-2.4-2.807-6.551-6.316-7.545-2.143-.603-6.145 1.988-7.9-3.158z" class="prefix__cls-1" data-name="パス 69" transform="translate(-180.061 -84.036)"/></g></g><g id="prefix__グループ_692" data-name="グループ 692" transform="translate(141.449 45.708)"><path id="prefix__パス_70" d="M169.068 46.982a1.276 1.276 0 111.636 1.958c-.541.451-6.458 3.73-6.458 3.73s4.281-5.237 4.822-5.688z" class="prefix__cls-10" data-name="パス 70" transform="translate(-164.246 -46.685)"/></g><g id="prefix__グループ_693" data-name="グループ 693" transform="translate(109.656 41.938)"><path id="prefix__パス_71" d="M124.829 43.13a1.276 1.276 0 112.546.168c-.046.7-1.756 7.247-1.756 7.247s-.837-6.712-.79-7.415z" class="prefix__cls-10" data-name="パス 71" transform="translate(-124.827 -41.938)"/></g><g id="prefix__グループ_694" data-name="グループ 694" transform="translate(141.554 67.12)"><path id="prefix__パス_72" d="M170.866 76.865a1.276 1.276 0 01-1.617 1.974c-.546-.447-4.873-5.645-4.873-5.645s5.945 3.223 6.49 3.671z" class="prefix__cls-10" data-name="パス 72" transform="translate(-164.376 -73.193)"/></g><g id="prefix__グループ_695" data-name="グループ 695" transform="translate(69.778 45.851)"><path id="prefix__パス_73" d="M77.389 47.161a1.276 1.276 0 10-1.635 1.959c.541.451 6.457 3.73 6.457 3.73s-4.282-5.237-4.822-5.689z" class="prefix__cls-10" data-name="パス 73" transform="translate(-75.295 -46.865)"/></g><g id="prefix__グループ_696" data-name="グループ 696" transform="translate(69.255 66.466)"><path id="prefix__パス_74" d="M75.113 76.053a1.276 1.276 0 101.618 1.974c.545-.447 4.873-5.645 4.873-5.645s-5.946 3.223-6.491 3.671z" class="prefix__cls-10" data-name="パス 74" transform="translate(-74.646 -72.381)"/></g></g></svg>