<svg xmlns="http://www.w3.org/2000/svg" width="153.08" height="120"><defs><clipPath id="prefix__clip-path"><path id="prefix__パス_181" d="M724.046 143.748l41.9-41.9a4.084 4.084 0 015.775 0l37.679 37.693c2.988 2.988 4.782 21.557 1.159 23.731l-84.369-8.913a6.5 6.5 0 01-2.144-10.611z" class="prefix__cls-1" data-name="パス 181" transform="translate(-722.142 -100.656)"/></clipPath><clipPath id="prefix__clip-path-2"><path id="prefix__パス_191" d="M802.688 96.983h10.152a4.1 4.1 0 014.078 4.476l-1.58 16.932h-15.324l-1.408-16.975a4.1 4.1 0 014.082-4.433z" class="prefix__cls-2" data-name="パス 191" transform="translate(-798.592 -96.983)"/></clipPath><clipPath id="prefix__clip-path-3"><path id="prefix__パス_198" d="M806.42 83.609c-1.867 1.643-3.2 5.5-1.558 7.37s5.641 1.035 7.508-.608a4.5 4.5 0 00-5.949-6.762z" class="prefix__cls-3" data-name="パス 198" transform="translate(-804.119 -82.487)"/></clipPath><clipPath id="prefix__clip-path-4"><path id="prefix__パス_208" d="M736.84 102.08h10.152a4.1 4.1 0 014.078 4.476l-1.58 16.932h-15.324l-1.407-16.975a4.1 4.1 0 014.081-4.433z" class="prefix__cls-2" data-name="パス 208" transform="translate(-732.744 -102.08)"/></clipPath><clipPath id="prefix__clip-path-5"><path id="prefix__パス_215" d="M744.887 87.982c1.878 1.63 3.239 5.481 1.609 7.359s-5.633 1.074-7.512-.557a4.5 4.5 0 115.9-6.8z" class="prefix__cls-3" data-name="パス 215" transform="translate(-737.432 -86.88)"/></clipPath><style>.prefix__cls-1{fill:#f3ba18}.prefix__cls-2{fill:#002245}.prefix__cls-3{fill:#f4ae87}.prefix__cls-5{fill:#e0a000}.prefix__cls-7{fill:#c77f67}.prefix__cls-9{fill:#230603}.prefix__cls-11{fill:#f9c273}.prefix__cls-12{fill:#34be8e}.prefix__cls-14{fill:#fb5d51}.prefix__cls-15{fill:#00003a}.prefix__cls-18{fill:#014596}</style></defs><g id="prefix__グループ_1273" data-name="グループ 1273" transform="translate(-683.757 -34.625)"><g id="prefix__グループ_835" data-name="グループ 835" transform="translate(713.652 86.234)"><path id="prefix__パス_178" d="M724.046 143.748l41.9-41.9a4.084 4.084 0 015.775 0l44.879 44.888c2.988 2.988-2.413 14.362-6.037 16.536l-84.369-8.913a6.5 6.5 0 01-2.148-10.611z" class="prefix__cls-1" data-name="パス 178" transform="translate(-722.142 -100.656)"/></g><g id="prefix__グループ_839" data-name="グループ 839" transform="translate(713.719 86.234)"><path id="prefix__パス_179" d="M724.046 143.748l41.9-41.9a4.084 4.084 0 015.775 0l37.679 37.693c2.988 2.988 4.782 21.557 1.159 23.731l-84.369-8.913a6.5 6.5 0 01-2.144-10.611z" class="prefix__cls-1" data-name="パス 179" transform="translate(-722.142 -100.656)"/><g id="prefix__グループ_838" data-name="グループ 838"><g id="prefix__グループ_837" data-name="グループ 837" transform="translate(46.381 -3.747)"><g id="prefix__グループ_836" data-name="グループ 836"><path id="prefix__パス_180" d="M779.973 160.816V95.983l52.758 36.878-.919 17.455-39.5 10.762z" class="prefix__cls-5" data-name="パス 180" transform="translate(-779.973 -95.983)"/></g></g></g></g><g id="prefix__グループ_840" data-name="グループ 840" transform="translate(781.543 80.949)"><path id="prefix__長方形_436" d="M0 0h4.882v5.104H0z" data-name="長方形 436" fill="#e8a181"/></g><g id="prefix__グループ_841" data-name="グループ 841" transform="translate(791.666 138.786)"><path id="prefix__パス_182" d="M819.908 166.7v2.576h8.663s.6-1.8-2.4-2.318-4.379-.773-4.379-.773z" class="prefix__cls-7" data-name="パス 182" transform="translate(-819.908 -166.181)"/></g><g id="prefix__グループ_842" data-name="グループ 842" transform="translate(768.126 138.786)"><path id="prefix__パス_183" d="M798.92 166.7v2.576h-8.663s-.6-1.8 2.4-2.318 4.379-.773 4.379-.773z" class="prefix__cls-7" data-name="パス 183" transform="translate(-790.208 -166.181)"/></g><g id="prefix__グループ_843" data-name="グループ 843" transform="translate(799.783 60.814)"><path id="prefix__パス_184" d="M830.3 70.964s-.929-2.916 1.17-3.281S833.821 71 833.821 71z" class="prefix__cls-3" data-name="パス 184" transform="translate(-830.091 -67.657)"/></g><g id="prefix__グループ_844" data-name="グループ 844" transform="translate(771.455 104.697)"><path id="prefix__パス_185" d="M799.229 123.676h15.313l4.66 15.978V158.3h-4.66a56.606 56.606 0 01-1.9-12.317c-.051-1.52.233-5.667.233-5.667l-5.039-10.392a1.051 1.051 0 00-.946-.593h-.014a1.052 1.052 0 00-.946.593l-5.038 10.392a40.154 40.154 0 01.543 6.333 42.319 42.319 0 01-2.208 11.652h-4.66v-18.647z" data-name="パス 185" transform="translate(-794.569 -123.676)" fill="#448fea"/></g><g id="prefix__グループ_845" data-name="グループ 845" transform="translate(774.695 83.962)"><path id="prefix__パス_186" d="M802.688 96.983h10.152a4.1 4.1 0 014.078 4.476l-1.58 16.932h-15.324l-1.408-16.975a4.1 4.1 0 014.082-4.433z" class="prefix__cls-2" data-name="パス 186" transform="translate(-798.592 -96.983)"/></g><g id="prefix__グループ_846" data-name="グループ 846" transform="translate(786.665 64.022)"><path id="prefix__パス_187" d="M818.355 101.764c-3.174-3.009-6.9-3.35-2.978-8.415 3.3-4.257 8.332-7.654 8.926-8.926s2.334-12.5 2.334-12.5l3.937-.1-.712 12.985a5.176 5.176 0 01-.624 1.993l-6.149 8.285z" class="prefix__cls-2" data-name="パス 187" transform="translate(-813.69 -71.828)"/></g><g id="prefix__グループ_847" data-name="グループ 847" transform="translate(798.627 63.143)"><path id="prefix__長方形_437" d="M0 0h5.437v2.219H0z" class="prefix__cls-9" data-name="長方形 437" transform="rotate(-1.138 5.437 .054)"/></g><g id="prefix__グループ_848" data-name="グループ 848" transform="translate(764.563 60.814)"><path id="prefix__パス_188" d="M789.2 70.964s.93-2.916-1.17-3.281S785.671 71 785.671 71z" class="prefix__cls-3" data-name="パス 188" transform="translate(-785.671 -67.657)"/></g><g id="prefix__グループ_849" data-name="グループ 849" transform="translate(764.474 64.022)"><path id="prefix__パス_189" d="M797.89 101.764c3.174-3.009 6.9-3.35 2.978-8.415-3.3-4.257-8.332-7.654-8.925-8.926s-2.335-12.5-2.335-12.5l-3.937-.1.712 12.985a5.178 5.178 0 00.624 1.993l6.149 8.285z" class="prefix__cls-2" data-name="パス 189" transform="translate(-785.671 -71.828)"/></g><g id="prefix__グループ_850" data-name="グループ 850" transform="translate(763.961 63.143)"><path id="prefix__長方形_438" d="M0 0h2.219v5.437H0z" class="prefix__cls-9" data-name="長方形 438" transform="rotate(-88.862 1.132 1.11)"/></g><g id="prefix__グループ_853" data-name="グループ 853" transform="translate(774.695 83.962)"><path id="prefix__パス_190" d="M802.688 96.983h10.152a4.1 4.1 0 014.078 4.476l-1.58 16.932h-15.324l-1.408-16.975a4.1 4.1 0 014.082-4.433z" class="prefix__cls-2" data-name="パス 190" transform="translate(-798.592 -96.983)"/><g id="prefix__グループ_852" data-name="グループ 852"><g id="prefix__グループ_851" data-name="グループ 851" transform="translate(8.909 -1.369)"><path id="prefix__長方形_439" d="M0 0h.525v25.152H0z" class="prefix__cls-9" data-name="長方形 439"/></g></g></g><g id="prefix__グループ_854" data-name="グループ 854" transform="translate(782.081 84.981)"><path id="prefix__パス_192" d="M808.877 98.228h1.609l1.109 13.759-1.613 2.357a.374.374 0 01-.619 0l-1.6-2.355z" class="prefix__cls-11" data-name="パス 192" transform="translate(-807.767 -98.228)"/></g><g id="prefix__グループ_855" data-name="グループ 855" transform="translate(782.386 84.056)"><path id="prefix__パス_193" d="M808.147 98.64a1.669 1.669 0 101.67-1.669 1.669 1.669 0 00-1.67 1.669z" class="prefix__cls-12" data-name="パス 193" transform="translate(-808.147 -96.971)"/></g><g id="prefix__グループ_856" data-name="グループ 856" transform="translate(784.027 84.053)"><path id="prefix__パス_194" d="M810.229 96.971s2.445 3.745 3.111 3.893 1.553-3.846 1.553-3.846z" class="prefix__cls-9" data-name="パス 194" transform="translate(-810.229 -96.971)"/></g><g id="prefix__グループ_857" data-name="グループ 857" transform="translate(779.42 84.053)"><path id="prefix__パス_195" d="M809.082 96.971s-2.445 3.745-3.111 3.893-1.553-3.846-1.553-3.846z" class="prefix__cls-9" data-name="パス 195" transform="translate(-804.418 -96.971)"/></g><g id="prefix__グループ_861" data-name="グループ 861" transform="translate(779.143 72.548)"><path id="prefix__パス_196" d="M806.42 83.609c-1.867 1.643-3.2 5.5-1.558 7.37s5.641 1.035 7.508-.608a4.5 4.5 0 00-5.949-6.762z" class="prefix__cls-3" data-name="パス 196" transform="translate(-804.119 -82.487)"/><g id="prefix__グループ_860" data-name="グループ 860"><g id="prefix__グループ_859" data-name="グループ 859" transform="translate(-.519 -4.593)"><g id="prefix__グループ_858" data-name="グループ 858"><path id="prefix__パス_197" d="M809.1 93.878s2.163-4.455 2.716-5.73-1.368-1.555-1.368-1.555-7.622-8.7-6.929-9.7 10.49 4.005 11.161 4.992 1.927 7.566 1.241 8.466-5.842 1.2-5.842 1.2z" class="prefix__cls-14" data-name="パス 197" transform="translate(-803.471 -76.76)"/></g></g></g></g><g id="prefix__グループ_862" data-name="グループ 862" transform="translate(729.338 84.211)"><path id="prefix__長方形_440" d="M0 0h4.882v5.104H0z" class="prefix__cls-3" data-name="長方形 440"/></g><g id="prefix__グループ_863" data-name="グループ 863" transform="translate(739.131 142.874)"><path id="prefix__パス_199" d="M753.624 171.794v2.575h8.663s.6-1.8-2.4-2.318-4.378-.773-4.378-.773z" class="prefix__cls-7" data-name="パス 199" transform="translate(-753.624 -171.278)"/></g><g id="prefix__グループ_864" data-name="グループ 864" transform="translate(715.591 142.874)"><path id="prefix__パス_200" d="M732.636 171.794v2.575h-8.664s-.6-1.8 2.4-2.318 4.379-.773 4.379-.773z" class="prefix__cls-7" data-name="パス 200" transform="translate(-723.923 -171.278)"/></g><g id="prefix__グループ_865" data-name="グループ 865" transform="translate(747.573 64.856)"><path id="prefix__パス_201" d="M764.448 76.062s-.929-2.917 1.17-3.282 2.355 3.32 2.355 3.32z" class="prefix__cls-3" data-name="パス 201" transform="translate(-764.243 -72.754)"/></g><g id="prefix__グループ_867" data-name="グループ 867" transform="translate(719.342 108.784)"><g id="prefix__グループ_866" data-name="グループ 866"><path id="prefix__パス_202" d="M733.381 128.773h15.312l4.661 15.978V163.4h-4.661a56.593 56.593 0 01-1.9-12.316c-.051-1.521.233-5.668.233-5.668l-5.039-10.392a1.051 1.051 0 00-.946-.594h-.014a1.051 1.051 0 00-.946.594l-5.038 10.392a40.158 40.158 0 01.543 6.333 42.331 42.331 0 01-2.207 11.651h-4.66v-18.65z" class="prefix__cls-12" data-name="パス 202" transform="translate(-728.721 -128.773)"/></g></g><g id="prefix__グループ_868" data-name="グループ 868" transform="translate(722.55 87.995)"><path id="prefix__パス_203" d="M736.84 102.08h10.152a4.1 4.1 0 014.078 4.476l-1.58 16.932h-15.324l-1.407-16.975a4.1 4.1 0 014.081-4.433z" class="prefix__cls-2" data-name="パス 203" transform="translate(-732.744 -102.08)"/></g><g id="prefix__グループ_869" data-name="グループ 869" transform="translate(734.513 68.05)"><path id="prefix__パス_204" d="M752.507 106.861c-3.174-3.008-6.9-3.35-2.978-8.415 3.3-4.257 8.331-7.654 8.926-8.926s2.334-12.5 2.334-12.5l3.937-.1-.712 12.985a5.177 5.177 0 01-.624 1.992l-6.149 8.285z" class="prefix__cls-2" data-name="パス 204" transform="translate(-747.842 -76.925)"/></g><g id="prefix__グループ_870" data-name="グループ 870" transform="translate(746.425 67.185)"><path id="prefix__長方形_441" d="M0 0h5.437v2.219H0z" class="prefix__cls-15" data-name="長方形 441" transform="rotate(-1.14 5.428 .054)"/></g><g id="prefix__グループ_871" data-name="グループ 871" transform="translate(712.18 118.495)"><path id="prefix__パス_205" d="M723.13 140.446s.93 2.917-1.17 3.282-2.355-3.319-2.355-3.319z" class="prefix__cls-3" data-name="パス 205" transform="translate(-719.605 -140.408)"/></g><g id="prefix__グループ_872" data-name="グループ 872" transform="translate(712.149 88.718)"><path id="prefix__パス_206" d="M731.824 103.082c3.173 3.008 6.9 3.35 2.977 8.415-3.3 4.257-8.331 7.654-8.926 8.926s-2.334 12.5-2.334 12.5l-3.937.1.712-12.985a5.18 5.18 0 01.624-1.992l6.149-8.285z" class="prefix__cls-2" data-name="パス 206" transform="translate(-719.605 -103.082)"/></g><g id="prefix__グループ_873" data-name="グループ 873" transform="translate(711.586 117.183)"><path id="prefix__長方形_442" d="M0 0h5.437v2.219H0z" class="prefix__cls-15" data-name="長方形 442" transform="rotate(-1.139 5.433 .054)"/></g><g id="prefix__グループ_876" data-name="グループ 876" transform="translate(722.55 87.995)"><path id="prefix__パス_207" d="M736.84 102.08h10.152a4.1 4.1 0 014.078 4.476l-1.58 16.932h-15.324l-1.407-16.975a4.1 4.1 0 014.081-4.433z" class="prefix__cls-2" data-name="パス 207" transform="translate(-732.744 -102.08)"/><g id="prefix__グループ_875" data-name="グループ 875"><g id="prefix__グループ_874" data-name="グループ 874" transform="translate(8.909 -1.369)"><path id="prefix__長方形_443" d="M0 0h.525v25.152H0z" class="prefix__cls-15" data-name="長方形 443"/></g></g></g><g id="prefix__グループ_877" data-name="グループ 877" transform="translate(729.872 89.016)"><path id="prefix__パス_209" d="M743.029 103.325h1.609l1.109 13.759-1.612 2.357a.375.375 0 01-.62 0l-1.6-2.356z" class="prefix__cls-11" data-name="パス 209" transform="translate(-741.919 -103.325)"/></g><g id="prefix__グループ_878" data-name="グループ 878" transform="translate(730.176 88.097)"><path id="prefix__パス_210" d="M742.3 103.738a1.669 1.669 0 101.669-1.67 1.668 1.668 0 00-1.669 1.67z" class="prefix__cls-12" data-name="パス 210" transform="translate(-742.3 -102.068)"/></g><g id="prefix__グループ_879" data-name="グループ 879" transform="translate(731.821 88.094)"><path id="prefix__パス_211" d="M744.381 102.068s2.445 3.745 3.111 3.893 1.553-3.846 1.553-3.846z" class="prefix__cls-15" data-name="パス 211" transform="translate(-744.381 -102.068)"/></g><g id="prefix__グループ_880" data-name="グループ 880" transform="translate(727.214 88.094)"><path id="prefix__パス_212" d="M743.234 102.068s-2.445 3.745-3.111 3.893-1.554-3.846-1.554-3.846z" class="prefix__cls-15" data-name="パス 212" transform="translate(-738.57 -102.068)"/></g><g id="prefix__グループ_884" data-name="グループ 884" transform="translate(726.294 76.029)"><path id="prefix__パス_213" d="M744.887 87.982c1.878 1.63 3.239 5.481 1.609 7.359s-5.633 1.074-7.512-.557a4.5 4.5 0 115.9-6.8z" class="prefix__cls-3" data-name="パス 213" transform="translate(-737.432 -86.88)"/><g id="prefix__グループ_883" data-name="グループ 883"><g id="prefix__グループ_882" data-name="グループ 882" transform="translate(-2.324 -.131)"><g id="prefix__グループ_881" data-name="グループ 881"><path id="prefix__パス_214" d="M742.395 98.154a30.406 30.406 0 01-3.563-4.493c-.562-1.271 1.357-1.564 1.357-1.564l-.5-1.9s.772-1.681.072-2.68-3.17-1.087-3.834-.1-1.875 7.579-1.183 8.474 5.851 1.159 5.851 1.159z" class="prefix__cls-18" data-name="パス 214" transform="translate(-734.534 -86.717)"/></g></g></g></g><g id="prefix__グループ_885" data-name="グループ 885" transform="translate(683.757 117.501)"><path id="prefix__パス_216" d="M687.084 139.785l75.2 25.825-.788 11.155h-48.185a2.5 2.5 0 01-1.916-.891l-27.037-32.106a2.5 2.5 0 012.726-3.983z" class="prefix__cls-5" data-name="パス 216" transform="translate(-683.757 -139.641)"/></g><g id="prefix__グループ_886" data-name="グループ 886" transform="translate(759.247 117.579)"><path id="prefix__パス_217" d="M854.2 139.886s-74.169 25.133-74.169 25.349v11.043a.505.505 0 00.506.506h47.642a2.573 2.573 0 001.969-.916L857 143.98a2.574 2.574 0 00-2.8-4.094z" data-name="パス 217" transform="translate(-780.028 -139.738)" fill="#db8c00"/></g><g id="prefix__グループ_888" data-name="グループ 888" transform="translate(726.434 72.868)"><g id="prefix__グループ_887" data-name="グループ 887"><path id="prefix__パス_218" d="M741.3 90.965l3.52-4.057c.609-.7.653-4.219-2.261-4.013s-5.056 5.587-4.952 7.044 2.741 2.118 3.693 1.026z" class="prefix__cls-18" data-name="パス 218" transform="translate(-737.599 -82.886)"/></g></g><g id="prefix__グループ_889" data-name="グループ 889" transform="translate(749.479 34.625)"><path id="prefix__パス_219" d="M778.211 35.388l1.756 5.086a1.134 1.134 0 001.05.763l5.381.1a1.133 1.133 0 01.662 2.037l-4.295 3.242a1.133 1.133 0 00-.4 1.234l1.567 5.15a1.133 1.133 0 01-1.732 1.259l-4.411-3.083a1.134 1.134 0 00-1.3 0l-4.41 3.083A1.133 1.133 0 01770.348 53l1.568-5.147a1.133 1.133 0 00-.4-1.234l-4.294-3.242a1.133 1.133 0 01.661-2.037l5.38-.1a1.133 1.133 0 001.05-.763l1.756-5.086a1.133 1.133 0 012.142-.003z" class="prefix__cls-14" data-name="パス 219" transform="translate(-766.769 -34.625)"/></g></g></svg>