<svg xmlns="http://www.w3.org/2000/svg" width="621" height="538.832"><g data-name="グループ 1848" transform="translate(-575 -2665.168)"><g data-name="グループ 1517"><path data-name="パス 572" d="M900.569 3006.493s-3.938-7.994-5.441-8.606-19.562-1.085-20.1.626 6.183 2.194 9.361 2.683c0 0-.414 3.328 1.251 5.393s11.317 4.626 11.317 4.626z" fill="#f4ae87"/><g data-name="グループ 1514"><path data-name="パス 573" d="M891.669 3009.655a62.207 62.207 0 009.7-5.217c15.085 49.55 59.105 82.178 78.094 15.614 3.068-10.754 3.612-14.333 13.077-7.577 6.711 4.79 4.876 9.522-.213 19.17-33.262 63.079-84.299 40.843-100.658-21.99z" fill="#f3ba18"/></g><path data-name="パス 574" d="M990.534 2962.933s-8.779 2.691-7.125 8.246 10.125-3.207 10.125-3.207.969-6.939-3-5.039z" fill="#002245"/><g data-name="グループ 1515"><path data-name="パス 575" d="M1015.556 3120.46h-52.1c5.082-28.383 12.42-71.809 13.7-96.124.554-10.647 4.05-16.295 7.822-19.2a14.741 14.741 0 012.767-1.658c6.379-3.259 12.7-3.476 17.617-.771 4.03 2.172 7.133 6.281 8.613 12.248 1.106 4.423.811 7.939.357 13.846-1.845 24.791-1.469 61.042 1.224 91.659z" fill="#f3ba18"/></g><path data-name="パス 577" d="M1002.638 2983.785l-11.811-1.153c-.159 1.617-1.4 17.017-.8 22.821.434 1.788 3.379 2.608 6.578 1.832 2.876-.7 4.96-2.446 5.04-4.092h.014c-.357-3.483.428-13.757.979-19.408z" fill="#e8a181"/><path data-name="パス 576" d="M1004.01 2985.354c-6.161 9.472-17.754 12.859-23.543 9.094s-3.581-13.257 2.581-22.729 13.989-11.24 19.778-7.475 7.345 11.637 1.184 21.11z" fill="#f4ae87"/><path data-name="パス 578" d="M998.242 2988.592c-1.741-1.884-3.379-.187-7.57 2.166s-11.682 1.745-12.2-8.061c-.22-4.149-1.847-1.039-2.916 1.522a12.817 12.817 0 00-1.081 5.934 8.619 8.619 0 004.252 6.977c3.856 2.508 9.583 2.687 15.192.511a7.455 7.455 0 004.961-7.175 2.969 2.969 0 00-.638-1.874z" fill="#002245"/><path data-name="パス 579" d="M978.147 2982.336s.144.075.4.214c2.063 1.117 11.422 6.37 12.37 10.241 1.067 4.354-5.032-1.682-6.877-4.473s-4.078-2.414-6.083-3-2.916-3.095.19-2.982z" fill="#002245"/><path data-name="パス 580" d="M1009.308 2980.216s1.945-7.37-1.375-12.649-12.715-10.852-20.154-3.742c0 0-4.822 5.535 2.347 10.786s8.045.428 9.709 6.315 6.62 4.93 6.841 6.2z" fill="#002245"/><path data-name="パス 581" d="M1006.829 2990.731c-1.434 2.2-5.458 3.6-7.054 2.562s-.834-3.086.6-5.29 4.07-3.426 5.667-2.387 2.221 2.91.787 5.115z" fill="#e8a181"/><path data-name="パス 582" d="M991.841 3010.637a30.276 30.276 0 00-1.241 3.217 30.881 30.881 0 00-.886 3.337 20.767 20.767 0 00-.384 6.571 10.563 10.563 0 002.107 5.39l.1.138.147.207.3.418.591.842a9.429 9.429 0 01.546.863l.517.878c.364.582.634 1.194.938 1.8.147.3.3.607.443.914l.382.933a35.732 35.732 0 012.226 7.758c.141.664.208 1.337.291 2.012s.173 1.351.191 2.034.081 1.366.089 2.053l-.042 2.069a35.815 35.815 0 01-1.407 8.328 32.9 32.9 0 01-3.731 7.968l-9.123 2.391.089-9.221a22.075 22.075 0 003.194-4.731 26.085 26.085 0 001.915-5.761l.274-1.544c.074-.52.112-1.046.173-1.573a15.678 15.678 0 00.1-1.59c.017-.533.052-1.07.017-1.6a28.313 28.313 0 00-.812-6.4l-.186-.79c-.074-.258-.16-.51-.239-.767a15.891 15.891 0 00-.516-1.523l-.3-.744a6.159 6.159 0 00-.317-.731l-.35-.709-.175-.357-.088-.181-.134-.249a14.96 14.96 0 01-1.558-4.149 17.252 17.252 0 01-.361-4.216 24.925 24.925 0 011.626-7.739 34.076 34.076 0 011.527-3.5 32.506 32.506 0 011.905-3.316z" fill="#2962ff"/><path data-name="パス 583" d="M1017.44 3095.567s-19.46 5.5-21.437 10.191 17.136 1.557 25.52-7.339z" fill="#f4ae87"/><g data-name="グループ 1516"><path data-name="パス 584" d="M1016.917 3103.857a102.625 102.625 0 00-4.92-9.218c44.542-18.748 57.4-59.792 1.438-70.713-9.041-1.765-13.613-2.754-8.94-12.124 3.313-6.644 9.185-4.785 18.169-1.729 58.739 19.976 50.487 74.253-5.747 93.784z" fill="#f3ba18"/></g></g><g data-name="グループ 1513"><g data-name="グループ 1512" transform="translate(708.166 2665.168)"><path data-name="パス 554" d="M59.245 54.418a14.524 14.524 0 01.017 5.439c-.579 2.754 3.062 1.913 4.323.443s-2.166-7.578-4.34-5.882z" fill="#002245"/><path data-name="パス 555" d="M154.166 64.466s1.531-7.749 2.677-8.618 16.5-5.431 17.348-4.089-4.788 3.3-7.4 4.451c0 0 1.12 2.753.17 4.9s-8.623 6.564-8.623 6.564z" fill="#f4ae87"/><path data-name="パス 556" d="M37.472 7.248s4.123-6.737 5.5-7.155 17.355.626 17.689 2.18-5.635 1.436-8.48 1.61c0 0 .1 2.971-1.541 4.659s-10.364 3.167-10.364 3.167z" fill="#f4ae87"/><g data-name="グループ 1509"><path data-name="パス 557" d="M68.263 78.894c4.555-1.3 9.027-2.839 13.525-4.3.132.07-.03.155 0 .21 18.617 30.9 57.472 12.934 70.319-13.13 2.63 1.882 5.28 3.754 7.962 5.58-14.573 32.535-60.016 45.261-87.007 19.95-2.107-1.975-3.278-5.834-4.799-8.31z" fill="#34be8e"/></g><g data-name="グループ 1510"><path data-name="パス 558" d="M68.812 78.138c-3.5-3.748-6.28-7.754-9.545-11.566-.1-.105-.076.173-.174.223C2.382 85.29-7.107 43.824 41.937 12.678c-1.729-2.941-3.548-5.871-5.152-8.908-57.234 34.078-46.253 94.105 23.012 78.081 5.414-1.25 4.526-2.003 9.015-3.713z" fill="#34be8e"/></g><path data-name="パス 559" d="M72.493 31.12s7.841 2.4 6.364 7.365-9.043-2.865-9.043-2.865-.866-6.193 2.679-4.5z" fill="#002245"/><g data-name="グループ 1511"><path data-name="パス 560" d="M51.038 160.002c1.568-24.449 1.615-51.024.2-70.045-.405-5.275-.671-8.416.318-12.368 1.324-5.328 4.094-9 7.693-10.938 4.393-2.418 10.038-2.222 15.738.688a13.218 13.218 0 012.469 1.482c3.37 2.593 6.493 7.639 6.988 17.149.979 18.557 5.908 49.58 10.152 74.032z" fill="#34be8e"/></g><path data-name="パス 561" d="M77.449 68.827l-.482 16.014-.591 20.107-8.357-18.691-8.778-19.609c4.4-2.412 10.038-2.225 15.734.685a12.764 12.764 0 012.474 1.494z" fill="#fff"/><path data-name="パス 563" d="M61.683 49.747l10.549-1.03c.142 1.444 1.248 15.2.711 20.383-.387 1.6-3.018 2.329-5.875 1.636-2.569-.623-4.429-2.185-4.5-3.655h-.012c.32-3.111-.38-12.287-.873-17.334z" fill="#de9a7b"/><path data-name="パス 562" d="M60.458 51.147c5.5 8.46 15.858 11.485 21.028 8.122s3.2-11.841-2.3-20.3-12.495-10.039-17.665-6.676-6.566 10.394-1.063 18.854z" fill="#f4ae87"/><path data-name="パス 564" d="M55.725 46.558s-1.738-6.583 1.229-11.3 11.356-9.693 18-3.342c0 0 4.307 4.944-2.1 9.633s-7.186.383-8.672 5.641-5.913 4.4-6.111 5.536z" fill="#002245"/><path data-name="パス 565" d="M76.971 84.841l-.592 20.107-8.357-18.691.327-12.2h3.688z" fill="#fb5d51"/><path data-name="パス 566" d="M57.939 55.953c1.281 1.969 4.874 3.216 6.3 2.288s.744-2.756-.536-4.725-3.635-3.06-5.061-2.132-1.984 2.597-.703 4.569z" fill="#de9a7b"/><path data-name="パス 567" d="M77.45 107.118L59.241 66.647l-3.755 10.327 6.6 4.1-4.1 5.806z" fill="#002245"/><path data-name="パス 568" d="M74.888 112.733l2.623-44.3 7.183 8.316-4.709 6.181 5.9 3.967z" fill="#002245"/><circle data-name="楕円形 80" cx="1.522" cy="1.522" r="1.522" transform="translate(75.446 117.413)" fill="#002245"/><circle data-name="楕円形 81" cx="1.522" cy="1.522" r="1.522" transform="translate(76.968 133.136)" fill="#002245"/><circle data-name="楕円形 82" cx="1.522" cy="1.522" r="1.522" transform="translate(78.489 148.859)" fill="#002245"/><path data-name="パス 569" d="M68.812 40.554a26.225 26.225 0 01-2.345 5.077c-1.137 1.5 3.485.314 4.745-3.747s-2.4-1.33-2.4-1.33z" fill="#1a1c2e"/><path data-name="パス 570" d="M70.57 39.054a26.235 26.235 0 01-.422 5.576c-.539 1.807 3.375-.923 3.136-5.169s-2.714-.407-2.714-.407z" fill="#1a1c2e"/><path data-name="パス 571" d="M74.78 55.715a.559.559 0 01-.391-.622c.164-1.017.775-3.785 2.646-4.718 2.31-1.152 1.462-1.911 3.575-2.108s4.329 1.1 3.531 1.814-4.767 1.449-5.261 2.236c-.451.719-2.483 3.89-4.1 3.398z" fill="#002245"/></g></g><path data-name="前面オブジェクトで型抜き 1" d="M913 3154.355a205.87 205.87 0 01-41.185-4.152 203.329 203.329 0 01-38.359-11.908 204.372 204.372 0 01-34.713-18.841 205.825 205.825 0 01-30.243-24.953 205.826 205.826 0 01-24.954-30.244 204.374 204.374 0 01-18.846-34.712 203.326 203.326 0 01-11.9-38.36 206.349 206.349 0 010-82.369 203.326 203.326 0 0111.9-38.36 204.373 204.373 0 0118.846-34.711 205.825 205.825 0 0124.954-30.246 205.825 205.825 0 0130.243-24.954 204.373 204.373 0 0134.713-18.841 203.326 203.326 0 0138.359-11.907 205.867 205.867 0 0141.185-4.152 205.867 205.867 0 0141.185 4.152 203.325 203.325 0 0138.359 11.907 204.373 204.373 0 0134.713 18.841 205.826 205.826 0 0130.243 24.954 205.825 205.825 0 0124.954 30.246 204.373 204.373 0 0118.846 34.711 203.33 203.33 0 0111.9 38.36 205.87 205.87 0 014.152 41.185 205.87 205.87 0 01-4.152 41.184 203.329 203.329 0 01-11.9 38.36 204.374 204.374 0 01-18.841 34.713 205.826 205.826 0 01-24.959 30.243 205.826 205.826 0 01-30.244 24.954 204.373 204.373 0 01-34.713 18.841 203.329 203.329 0 01-38.359 11.908 205.87 205.87 0 01-41.184 4.151zm0-333.46a130.058 130.058 0 00-26.019 2.623 128.455 128.455 0 00-24.235 7.527 129.113 129.113 0 00-21.93 11.9 130.035 130.035 0 00-19.107 15.765 130.036 130.036 0 00-15.765 19.107 129.112 129.112 0 00-11.9 21.93 128.455 128.455 0 00-7.523 24.234 130.362 130.362 0 000 52.038 128.451 128.451 0 007.523 24.234 129.116 129.116 0 0011.9 21.93 130.031 130.031 0 0015.765 19.107 130.029 130.029 0 0019.107 15.765 129.113 129.113 0 0021.93 11.9 128.458 128.458 0 0024.234 7.523 130.057 130.057 0 0026.02 2.627 130.055 130.055 0 0026.019-2.623 128.449 128.449 0 0024.234-7.523 129.116 129.116 0 0021.93-11.9 130.027 130.027 0 0019.107-15.765 130.028 130.028 0 0015.765-19.107 129.116 129.116 0 0011.9-21.93 128.45 128.45 0 007.523-24.234 130.055 130.055 0 002.623-26.019 130.057 130.057 0 00-2.623-26.019 128.455 128.455 0 00-7.523-24.234 129.112 129.112 0 00-11.9-21.93 130.029 130.029 0 00-15.765-19.107 130.029 130.029 0 00-19.106-15.769 129.115 129.115 0 00-21.93-11.9 128.45 128.45 0 00-24.234-7.523 130.056 130.056 0 00-26.02-2.627z" fill="#2145aa"/><path data-name="前面オブジェクトで型抜き 4" d="M913.001 3154.355a205.885 205.885 0 01-41.185-4.152 203.342 203.342 0 01-38.36-11.907 204.437 204.437 0 01-34.713-18.841A205.873 205.873 0 01768.5 3094.5a205.846 205.846 0 01-24.954-30.243 204.341 204.341 0 01-18.841-34.718 203.342 203.342 0 01-11.907-38.36 205.8 205.8 0 01-4.153-41.184 205.82 205.82 0 014.153-41.185 203.3 203.3 0 0111.907-38.36 204.37 204.37 0 0118.841-34.711 205.863 205.863 0 0124.954-30.24 205.921 205.921 0 0130.244-24.953 204.431 204.431 0 0134.713-18.841 203.3 203.3 0 0138.36-11.907 205.884 205.884 0 0141.185-4.153v75.25h-.012a129.93 129.93 0 00-26.007 2.623 128.359 128.359 0 00-24.236 7.521 129.1 129.1 0 00-21.93 11.9 130.028 130.028 0 00-19.107 15.765 130.027 130.027 0 00-15.766 19.111 129.153 129.153 0 00-11.9 21.93 128.491 128.491 0 00-7.523 24.235 130.107 130.107 0 00-2.623 26.019 130.121 130.121 0 002.62 26.02 128.456 128.456 0 007.523 24.234 129.164 129.164 0 0011.9 21.93 130.027 130.027 0 0015.769 19.108 129.947 129.947 0 0019.107 15.764 129.121 129.121 0 0021.93 11.9 128.477 128.477 0 0024.235 7.522 130.042 130.042 0 0026.019 2.623 130.038 130.038 0 0026.023-2.619 128.46 128.46 0 0024.23-7.522 129.057 129.057 0 0021.93-11.9 129.947 129.947 0 0019.108-15.764 129.947 129.947 0 0015.764-19.111c1.09-1.613 2.16-3.277 3.179-4.945l65.3 37.449a205.637 205.637 0 01-6.083 9.569 205.845 205.845 0 01-24.953 30.244 205.822 205.822 0 01-30.244 24.954 204.4 204.4 0 01-34.713 18.841 203.342 203.342 0 01-38.36 11.907 205.867 205.867 0 01-41.181 4.152z" fill="#34be8e"/><path data-name="前面オブジェクトで型抜き 8" d="M770.422 3096.401c-.63-.613-1.277-1.252-1.923-1.9a204.7 204.7 0 01-43.794-64.957 203.259 203.259 0 01-11.908-38.359 206.352 206.352 0 010-82.37 203.247 203.247 0 0130.748-73.072 205.453 205.453 0 0155.2-55.2 204.328 204.328 0 0134.713-18.841 203.282 203.282 0 0138.359-11.907 205.867 205.867 0 0141.185-4.152v75.249h-.016a130.06 130.06 0 00-26 2.622 128.406 128.406 0 00-46.171 19.429 129.483 129.483 0 00-46.776 56.8 128.546 128.546 0 00-7.522 24.234 130.34 130.34 0 000 52.039 128.383 128.383 0 0019.428 46.168 130.184 130.184 0 0014.188 17.5l-49.71 56.716z" fill="#f3ba18"/><path data-name="前面オブジェクトで型抜き 20" d="M797.768 2891.721l-68.543-31.191a203.653 203.653 0 00-3.781 8.205A204.1 204.1 0 01913 2745.646v75.249a130.133 130.133 0 00-26.02 2.623 128.392 128.392 0 00-46.164 19.426 129.543 129.543 0 00-43.048 48.776z" fill="#fb5d51"/><path data-name="中マド 60" d="M861.041 2831.776a34194.441 34194.441 0 01-24.749-71.246 203.5 203.5 0 0135.523-10.733 205.888 205.888 0 0141.185-4.152v75.249a130.14 130.14 0 00-26.02 2.623 128.524 128.524 0 00-24.234 7.528c-.566.239-1.139.487-1.7.735z" fill="#002245"/><rect data-name="長方形 2241" width="158" height="112" rx="10" transform="translate(1038 2720)" fill="#fff"/><path data-name="パス 1121" d="M1081.736 2744.864a11.625 11.625 0 011.648 1.184 18.1 18.1 0 01-5.328 1.968 4.4 4.4 0 01.9 1.536 20.336 20.336 0 009.008-4.96 23.1 23.1 0 002.064-2.208l-.832-.88a10.886 10.886 0 01-1.424.08h-2.8c.336-.384.416-.464.832-.96l-1.968-.352a6.833 6.833 0 01-1.424 1.664 13.418 13.418 0 01-4.336 2.608 4.249 4.249 0 011.056 1.328 15.605 15.605 0 004.5-2.9h3.712a14.478 14.478 0 01-2.592 2.208 19.99 19.99 0 00-1.76-1.2zm7.964 4.036a11.881 11.881 0 01-2.62 2.348 21.63 21.63 0 00-1.824-1.36l-1.408.88a8.4 8.4 0 011.792 1.332 16.971 16.971 0 01-6.688 1.772 4.448 4.448 0 01.96 1.632 20.472 20.472 0 006.224-1.856 13.466 13.466 0 005.552-4.548 8.957 8.957 0 01.544-.72l-.944-.96a8.433 8.433 0 01-1.408.08h-2.32c.352-.4.432-.5.848-.992l-1.7-.544c-1.136 1.84-4.16 3.664-7.248 4.416a4.307 4.307 0 01.928 1.456 16.493 16.493 0 003.012-1.228 15.023 15.023 0 002.624-1.708zm12.784-5.488h-1.584a13.66 13.66 0 01-1.84-.1v1.872a4.452 4.452 0 011.06-.084v7.744c0 .944.24 1.376.928 1.648a8.063 8.063 0 002.8.288 51.342 51.342 0 004.064-.14l-.1-1.808a21.381 21.381 0 01-3.584.256c-2.112 0-2.368-.064-2.368-.64v-7.348h4.528c.736 0 1.36.032 1.84.08v-1.872a13.5 13.5 0 01-1.84.1h-2.16v-1.376a9.992 9.992 0 01.08-1.36h-1.9a10.267 10.267 0 01.08 1.344zm-4.976.9a11.482 11.482 0 01.656 2.864l1.2-.464a20.353 20.353 0 00-.928-3.072l-.928.336v-1.7a12.626 12.626 0 01.1-1.7h-1.936a10.624 10.624 0 01.112 1.7v11.024a15.277 15.277 0 01-.112 2.016h1.952a14.643 14.643 0 01-.112-2.016zm-2.688 4.144a16.765 16.765 0 00.64-4.528l-1.328-.24a12.085 12.085 0 01-.64 4.16zm18.404 5.928c-.016-.208-.016-.336-.016-.432a13.135 13.135 0 011.424-4.852l-1.28-.576a16.318 16.318 0 00-.832 2.116c.016-.4.032-.528.032-.88a26.714 26.714 0 01.24-3.536 22.059 22.059 0 011.008-4.784l-2.112-.224a10.469 10.469 0 01-.24 1.488 30.717 30.717 0 00-.656 6.256 27.908 27.908 0 00.416 4.784c.048.368.064.464.08.752zm2.208-9.584a18.994 18.994 0 002.88.176 28.659 28.659 0 003.424-.192c.768-.1 1.008-.128 1.136-.144l-.1-1.936a17.644 17.644 0 01-4.352.432 11.536 11.536 0 01-2.96-.256zm1.1 2.64a5.227 5.227 0 00-1.472 3.3 2.68 2.68 0 00.484 1.56c.704.948 1.984 1.4 3.968 1.4a19.731 19.731 0 003.312-.3 5.347 5.347 0 01.656-.1l-.16-2.036a11.244 11.244 0 01-3.808.608c-1.664 0-2.544-.48-2.544-1.392a3.619 3.619 0 011.132-2.304zm15.3-6.608a9.443 9.443 0 01.08 1.408c.016 2 .16 6.368.224 6.944a.359.359 0 00.016.16 5.917 5.917 0 00-1.488-.16c-2.3 0-3.952 1.2-3.952 2.864a2.885 2.885 0 00.4 1.424c.588.912 1.728 1.376 3.36 1.376 2.384 0 3.648-.944 3.648-2.736a3.726 3.726 0 00-.032-.512c.176.112.3.176.512.288a10.074 10.074 0 012.112 1.312 6.308 6.308 0 011.136 1.056l1.252-1.808c-.192-.112-.272-.176-.48-.32a21.526 21.526 0 00-2.064-1.36 11.814 11.814 0 00-2.5-1.088 64.995 64.995 0 01-.176-3.536 34.5 34.5 0 003.76-.288c.72-.08.72-.08 1.04-.1l-.16-1.936a17.3 17.3 0 01-4.688.544c-.016-.768-.016-.816-.016-1.04a18.208 18.208 0 01.112-2.48zm.352 10.24c0 .016.016.464.016.752a1.124 1.124 0 01-.336.9 2.287 2.287 0 01-1.456.432 2.862 2.862 0 01-1.168-.24.874.874 0 01-.54-.836c0-.7.8-1.184 2-1.184a5.193 5.193 0 011.484.176zm12.464-10.256a3.76 3.76 0 01-.048.544l-.24 1.984c-.128 1.1-.224 2.88-.224 4.176 0 .32.032 1.5.048 1.968v.3a1.244 1.244 0 01-.016.212l1.92-.032v-.336a7.671 7.671 0 012.012-5.168 2.381 2.381 0 011.728-.848c1.376 0 2.144 1.28 2.144 3.584 0 2.432-.848 3.952-2.7 4.9a9.34 9.34 0 01-3.5.912 6.12 6.12 0 01.94 1.888 13.645 13.645 0 003.136-.9 6.725 6.725 0 004.128-6.576 6.7 6.7 0 00-1.152-4.256 3.351 3.351 0 00-2.736-1.44 3.82 3.82 0 00-3.04 1.632 6.468 6.468 0 00-1.008 1.9 3.513 3.513 0 01-.1.352h-.04c.032-.384.1-.928.208-1.6a15.7 15.7 0 01.576-3.088zm-70.08 24.384a5.545 5.545 0 00-4.128 1.6 6.85 6.85 0 00-1.824 4.992c0 4.064 2.336 6.672 5.968 6.672s5.984-2.624 5.984-6.672a6.9 6.9 0 00-1.792-4.992 5.607 5.607 0 00-4.208-1.6zm.048 11.36a3.455 3.455 0 01-2.48-.976 5.286 5.286 0 01-1.3-3.776c0-2.9 1.456-4.72 3.76-4.72a3.444 3.444 0 012.464.976 5.168 5.168 0 011.264 3.728c.004 2.944-1.424 4.768-3.708 4.768zm12.592-11.1a12.192 12.192 0 01.128 2.064v7.136a2.068 2.068 0 01-.384 1.392 1.9 1.9 0 01-1.392.512 2.341 2.341 0 01-1.2-.3 2.1 2.1 0 01-.864-1.312l-2.112.768a4.907 4.907 0 00.912 1.52 4.17 4.17 0 003.248 1.2 4.113 4.113 0 003.1-1.12 3.781 3.781 0 00.864-2.624v-7.176a12.072 12.072 0 01.128-2.064zm10.3 1.92h2a16.824 16.824 0 012.352.112v-2.148a16.976 16.976 0 01-2.352.112h-6.336a16.093 16.093 0 01-2.172-.112v2.144a15.888 15.888 0 012.192-.112h2.16v8.736a13.412 13.412 0 01-.128 2.08h2.416a13.281 13.281 0 01-.128-2.08zm16 1.824a14.965 14.965 0 012.192 5.196l1.824-.912a14.881 14.881 0 00-2.4-5.088zm-4.7-3.52a3.722 3.722 0 01.128-.5l-2.08-.208v.288a22.506 22.506 0 01-.416 3.236 32.861 32.861 0 01-3.408.336l.192 1.888a6.57 6.57 0 01.656-.16l1.456-.24c.512-.1.512-.1.752-.128a23.534 23.534 0 01-3.216 7.536l1.856 1.024a34.351 34.351 0 003.264-8.7c.368-.032.624-.048.96-.048 1.232 0 1.6.432 1.6 1.9a14.217 14.217 0 01-.416 3.648c-.24.784-.5 1.088-.96 1.088a6.7 6.7 0 01-2.336-.644 6.01 6.01 0 01.16 1.36c0 .16-.016.4-.032.7a7.418 7.418 0 002.464.48 2.026 2.026 0 001.776-.72c.768-.88 1.232-3.072 1.232-5.824a3.881 3.881 0 00-.752-2.832 3.1 3.1 0 00-2.368-.844c-.288 0-.512.016-.992.032.048-.208.048-.208.1-.48.16-.864.272-1.52.352-1.984zm3.712.112a10.8 10.8 0 011.68 2.38l1.12-.592a10.369 10.369 0 00-1.68-2.352zm4.7.752a9.253 9.253 0 00-1.66-2.26l-1.072.56a11.789 11.789 0 011.632 2.32zm8.624.56a12.685 12.685 0 01-2.268 2.972 18.763 18.763 0 01-5.04 3.728 5.735 5.735 0 011.12 1.632 28.967 28.967 0 003.044-2.112 14.552 14.552 0 002.336-2.336c-.016.7-.016.912-.016 1.488v4.8a20.149 20.149 0 01-.12 2.02h2.068a15.441 15.441 0 01-.112-2.016v-8.4a10.8 10.8 0 001.136-1.784h3.232c.688 0 1.44.032 2.08.1v-1.888a17.738 17.738 0 01-2.128.1H1121a21.208 21.208 0 01-2.128-.1v1.888c.64-.064 1.5-.1 2.192-.1zm1.136 3.552a19.186 19.186 0 005.68 4.768 9.755 9.755 0 011.1-1.744 13.761 13.761 0 01-3.28-2.048 16.471 16.471 0 01-2.336-2.272zm14.02-.644h-4.112a18.615 18.615 0 01-2-.1v2a18.4 18.4 0 012-.1H1141v5.3c0 .8-.048 1.568-.112 2.24h2.16a18.68 18.68 0 01-.112-2.24v-5.3h4.352a19.787 19.787 0 012.048.1v-2a19.137 19.137 0 01-2.048.1h-4.352v-3.488a14.489 14.489 0 01.112-2.016h-2.16a14.643 14.643 0 01.112 2.016zm14.9 1.648a7.952 7.952 0 01-.1.928 6.19 6.19 0 01-2.1 3.648 7.55 7.55 0 01-2.48 1.472 5.678 5.678 0 011.168 1.568 9.267 9.267 0 004.064-3.52 8.513 8.513 0 001.248-4.1h3.072v.928a15.718 15.718 0 01-.5 4.256c-.144.24-.32.3-.912.3a13.153 13.153 0 01-1.936-.208 6.872 6.872 0 01.48 1.872c1.072.048 1.328.064 1.648.064 1.424 0 2-.224 2.352-.928.4-.848.672-3.376.672-6.688v-.536a16.315 16.315 0 001.984 1.68 7.449 7.449 0 011.216-1.728 12.408 12.408 0 01-4.432-4.64 5.98 5.98 0 01-.624-1.392l-1.776.688a6.564 6.564 0 01.336.672 16 16 0 002.64 4.016c-.384.016-.608.016-.992.016h-5.88a8.269 8.269 0 01-.832-.032 17.8 17.8 0 002.576-3.888 4.525 4.525 0 01.432-.816l-1.92-.688a4.974 4.974 0 01-.64 1.616 12.336 12.336 0 01-4.208 4.592 5.563 5.563 0 011.232 1.568 15.905 15.905 0 002-1.776v1.136a11.118 11.118 0 011.36-.08z" fill="#373943"/><path data-name="パス 1122" d="M1099.384 2804.708a11.85 11.85 0 01-1.818.126h-.63v-5.9a25.335 25.335 0 01.126-3.042h-2.43a17.132 17.132 0 01-1.494 1.98l-4.266 5.216c-.63.756-.828.99-1.44 1.656v2.214c.612-.054 1.188-.072 2.25-.072h4.986v1.242a11.481 11.481 0 01-.144 2.088h2.556a11.185 11.185 0 01-.144-2.052v-1.278h.648a13.892 13.892 0 011.8.126zm-4.7.144h-4.584l3.452-4.284c.648-.792.864-1.08 1.224-1.6a20.37 20.37 0 00-.09 2.16zm9.146-2.142a3.9 3.9 0 00-1.782.72 3.411 3.411 0 00-1.476 2.952 3.735 3.735 0 001.044 2.7 6.183 6.183 0 004.554 1.44c3.69 0 5.706-1.476 5.706-4.158a3.409 3.409 0 00-1.26-2.808 3.418 3.418 0 00-1.944-.846 3.34 3.34 0 002.592-3.366 3.541 3.541 0 00-.486-1.8c-.774-1.26-2.376-1.962-4.554-1.962-3.078 0-5.022 1.458-5.022 3.762a3.45 3.45 0 00.882 2.376 3.454 3.454 0 001.746.99zm2.394-5.184c1.6 0 2.61.81 2.61 2.088 0 1.314-.972 2.124-2.574 2.124-1.638 0-2.646-.828-2.646-2.142 0-1.26 1.026-2.07 2.61-2.07zm-.036 11.016c-1.944 0-3.1-.864-3.1-2.34 0-1.494 1.188-2.412 3.132-2.412s3.114.9 3.114 2.394c.004 1.516-1.134 2.358-3.146 2.358zm10.188 1.674v-2.628h-2.628v2.628zm9.18 0a15.089 15.089 0 01-.144-2.34v-9.108a27.123 27.123 0 01.144-2.97 13.091 13.091 0 01-1.836.09h-1.656a10 10 0 01-1.8-.108v2.286a16.008 16.008 0 011.854-.108h.864v9.918a14.941 14.941 0 01-.144 2.34zm7.056-.27l.918.738 11.34-14.508-.936-.72zm10.368.554a3.313 3.313 0 002.43-.918 4.249 4.249 0 001.044-3.114 4.231 4.231 0 00-1.044-3.1 3.357 3.357 0 00-2.43-.918 3.431 3.431 0 00-2.448.918 4.26 4.26 0 00-1.044 3.1 4.249 4.249 0 001.044 3.118 3.327 3.327 0 002.448.914zm0-6.516a1.3 1.3 0 011.152.558 3.178 3.178 0 01.486 1.8c0 1.746-.558 2.646-1.638 2.646-1.062 0-1.638-.9-1.638-2.556a3.13 3.13 0 01.486-1.872 1.253 1.253 0 011.152-.572zm-8.48-.32a3.313 3.313 0 002.43-.918 4.249 4.249 0 001.044-3.114 4.231 4.231 0 00-1.044-3.1 3.357 3.357 0 00-2.43-.918c-2.2 0-3.492 1.494-3.492 4.014a4.277 4.277 0 001.044 3.114 3.327 3.327 0 002.448.922zm0-6.516a1.385 1.385 0 011.314.81 3.952 3.952 0 01.324 1.674c0 1.62-.594 2.52-1.638 2.52-1.062 0-1.638-.9-1.638-2.556.002-1.566.596-2.448 1.638-2.448z" fill="#2962ff" stroke="rgba(0,0,0,0)"/><path data-name="パス 586" d="M1038 2762l-23.645 24.207 23.645-7.441z" fill="#fff" stroke="#fff" stroke-linecap="round" stroke-linejoin="round" stroke-width="3"/><rect data-name="長方形 2242" width="156" height="112" rx="10" transform="translate(930 3092)" fill="#fff"/><path data-name="パス 1128" d="M969.6 3125.248h-2.864a10.091 10.091 0 01-1.616-.08v1.712a13.905 13.905 0 011.808-.08h6.736a13.462 13.462 0 011.808.08v-1.712a11.139 11.139 0 01-1.7.08H971.2v-1.648h2.064a11.422 11.422 0 011.68.08v-1.648a11.139 11.139 0 01-1.7.08H971.2v-1.312h1.84a16.379 16.379 0 011.744.048c-.048-.464-.064-1.024-.064-2.144v-3.404c0-.976.016-1.728.064-2.192a13.887 13.887 0 01-2.064.08h-4.42a19.063 19.063 0 01-2.16-.08 17.417 17.417 0 01.08 2.144v3.616c-.032 1.616-.032 1.616-.064 1.984.48-.032.848-.048 1.92-.048h1.52v1.312h-1.792a9.579 9.579 0 01-1.648-.08v1.632a13.122 13.122 0 011.668-.068h1.776zm0-10.512v1.6h-1.776v-1.6zm1.6 0h1.856v1.6H971.2zm-1.6 2.944v1.62h-1.776v-1.62zm1.6 0h1.856v1.62H971.2zm-8.72-2.78v3.12h-.5a5.836 5.836 0 01-1.12-.08v1.648a5.589 5.589 0 011.088-.08h.528v3.808a13.582 13.582 0 01-1.968.608l.432 1.808.32-.128c2.48-1.008 3.1-1.28 4.5-1.968l-.048-1.7c-.7.352-.9.432-1.568.72v-3.156h.368a6.677 6.677 0 011.008.064v-1.628a4.953 4.953 0 01-1.008.08h-.368v-3.116h.48a9.278 9.278 0 011.184.064v-1.712a6.987 6.987 0 01-1.424.1h-2.256a8.533 8.533 0 01-1.456-.1v1.728a6.744 6.744 0 011.2-.08zm19.968-1.424a3.277 3.277 0 01-.832.064h-1.44c.256-.688.256-.688.336-.864l-1.7-.32a5.989 5.989 0 01-.592 1.728 6.786 6.786 0 01-1.808 2.48 4.912 4.912 0 011.056 1.088v.88c0 4.64-.176 6.064-.96 7.456a6.121 6.121 0 011.332 1.244 9.827 9.827 0 00.96-3.92h3.28v1.952c0 .256-.144.336-.672.336a12.694 12.694 0 01-1.344-.112 5.421 5.421 0 01.368 1.6c.544.016.816.016.992.016 1.632 0 2.08-.3 2.08-1.44v-8.464a4.845 4.845 0 011.008 1.328l.176-.112a.079.079 0 01.016.048 8.353 8.353 0 01-.176 1.056 6.646 6.646 0 01-.848 2.112 6.045 6.045 0 011.424.736 9.341 9.341 0 00.512-1.232h1.3v1.44h-1.584a9.447 9.447 0 01-1.456-.08v1.712a9.351 9.351 0 011.44-.08h1.6v1.6a10.806 10.806 0 01-.1 1.568h1.856a8.716 8.716 0 01-.1-1.568v-1.6h1.264a11.975 11.975 0 011.5.064v-1.692a10.33 10.33 0 01-1.536.08h-1.232v-1.44h.992a11.2 11.2 0 011.424.064v-1.684a7.178 7.178 0 01-1.424.1h-.992v-.128c0-.416.016-.768.048-1.168h-1.808a6.382 6.382 0 01.1 1.168v.128h-.864c.048-.24.048-.24.192-.9l-1.488-.32a5.317 5.317 0 001.76-1.536 4.9 4.9 0 00.912-2.256h1.7a9.033 9.033 0 01-.24 1.6c-.08.24-.24.32-.656.32a6.741 6.741 0 01-1.232-.16 4.2 4.2 0 01.368 1.584c.912.032.912.032 1.168.032.992 0 1.36-.128 1.632-.528a6.849 6.849 0 00.592-2.688c.064-.912.1-1.376.144-1.728a11.7 11.7 0 01-1.424.064h-3.936a9.664 9.664 0 01-1.68-.1v1.68a10.187 10.187 0 011.424-.08h.448a2.592 2.592 0 01-.688 1.456 4.433 4.433 0 01-1.54 1.06c.016-.448.016-.544.048-.816a12.431 12.431 0 01-1.52.064c.24-.384.512-.88.672-1.168a8.092 8.092 0 01.48-.9zm-3.344 2.9h-.368a12.5 12.5 0 00.832-1.408h1.568a11.877 11.877 0 01-.736 1.4zm-.204 5.544c0-.256 0-.352.016-.816v-.624h.944v1.44zm3.184 0h-.928v-1.44h.928zm0-2.768h-.928v-1.36h.928zm-2.224-1.36v1.36h-.912v-1.36zm26.832-3.248a14 14 0 01.06-1.644 10.855 10.855 0 01-1.52.064h-3.344a11.951 11.951 0 01-1.808-.1v1.664a7.489 7.489 0 011.28-.08l-.992.944a10.994 10.994 0 012.16 1.52l1.088-1.04a12.383 12.383 0 00-2.192-1.44h3.632v3.488c0 .368-.048.384-.736.384a6.687 6.687 0 01-.9-.064 9.126 9.126 0 001.04-.528l-.032-1.456a15.023 15.023 0 01-4.32 1.552l.432 1.312-.976-.192a2.814 2.814 0 00.08-.784v-3.632a11.924 11.924 0 01.068-1.612 12.882 12.882 0 01-1.612.06h-3.36a13.77 13.77 0 01-1.776-.1v1.648a8.955 8.955 0 011.456-.08h.176l-1.072.944a9.2 9.2 0 012.1 1.52l1.152-1.056a13.017 13.017 0 00-2.144-1.408h3.424v3.492c0 .352-.048.368-.8.368-.176 0-.352-.016-.848-.048.464-.208.576-.272 1.056-.528l-.048-1.488a17.306 17.306 0 01-4.56 1.744l.544 1.6a5.278 5.278 0 01.72-.32c.768-.3 1.344-.56 2.112-.912a3.564 3.564 0 01.336 1.392c.352.016.832.016 1.024.016a3.943 3.943 0 001.424-.176c-.3.56-.336.592-.48.832h-2.144a16.267 16.267 0 01-1.76-.064 17.016 17.016 0 01.064 1.84v3.3a10.737 10.737 0 01-.1 1.84h1.804v-.66h7.2v.656h1.824a10.405 10.405 0 01-.1-1.84v-3.328a16.523 16.523 0 01.064-1.808 16.079 16.079 0 01-1.76.064h-3.3a11.646 11.646 0 00.7-1.168c.16-.064.208-.08.416-.16.72-.272.928-.352 1.616-.656a3.828 3.828 0 01.256 1.312c.736.032.928.032 1.232.032a2.927 2.927 0 001.76-.3c.288-.224.368-.48.368-1.28zm-10.292 7.184h7.2v1.056h-7.2zm0 2.368h7.2v1.136h-7.2zm19.36-5.648a12.439 12.439 0 011.456 1.408 5.681 5.681 0 01-2.416 2.844 4.872 4.872 0 011.136 1.236 7.684 7.684 0 002.368-2.8c.384.5.544.72 1.056 1.488l1.088-1.424c-.656-.832-.9-1.12-1.456-1.744a12.145 12.145 0 00.5-2.96h.784c.032 2.88.24 4.528.72 5.616.368.832.832 1.28 1.344 1.28a1.04 1.04 0 00.9-.656 8.39 8.39 0 00.528-2.96 4.84 4.84 0 01-1.12-.7 6.246 6.246 0 01-.256 2.368 5.2 5.2 0 01-.424-1.944c-.08-.9-.176-2.64-.176-3.152 0-.56.032-1.2.064-1.52a8.185 8.185 0 01-1.344.08h-.944c.016-.544.016-.72.016-1.136a6.5 6.5 0 01.1-1.168h-1.764a7.219 7.219 0 01.1 1.312c0 .1 0 .256-.016.5v.5h-.596a6.409 6.409 0 01-1.056-.064v1.728a5.281 5.281 0 011.04-.08h.56a10.306 10.306 0 01-.176 1.66l-1.008-.944zm-3.84-4.848h-1.552a13.946 13.946 0 01-1.536-.08v1.38a12.745 12.745 0 011.468-.068h4.66c.672 0 .96.016 1.344.048v-1.36a13.241 13.241 0 01-1.488.08h-1.248v-.224a4.4 4.4 0 01.064-.832h-1.792a3.9 3.9 0 01.08.848zm1.632 8c.9-.08 1.28-.112 2.448-.272v-1.168c-1.184.16-1.6.208-2.448.272v-.176a11.661 11.661 0 002.272-1.232l-.688-.672a5.626 5.626 0 01-.9.032h-4a8.655 8.655 0 01-1.008-.048v1.248a5.588 5.588 0 01.944-.064h2.98a4.189 4.189 0 01-.928.448h-.288a4.946 4.946 0 01.064.56c-.576.032-2.144.064-2.448.064a6.325 6.325 0 01-.8-.048l.24 1.456c.5-.064.64-.064 1.008-.1.208-.016.208-.016 2-.144v.592c0 .224-.064.288-.288.288a10.96 10.96 0 01-1.648-.16 3.613 3.613 0 01.384 1.328c.816.064 1.088.08 1.408.08 1.28 0 1.7-.272 1.7-1.12zm-3.92-4.448a5.818 5.818 0 01-.048.768 18.7 18.7 0 01.992-.032h4.324c.3 0 .544.016.8.032a10.456 10.456 0 01-.032-.752v-1.12a5.922 5.922 0 01.032-.72c-.272.016-.528.032-.832.032h-4.356a6.259 6.259 0 01-.928-.048 5.646 5.646 0 01.048.768zm1.568-.816h2.9v.576h-2.9zm-1.152 11.104a8.131 8.131 0 002.1-2.832l-1.524-.688a5.828 5.828 0 01-1.984 2.32zm5.088-.368a13.6 13.6 0 00-.368-3.024l-1.616.16a16.123 16.123 0 01.224 2.432v.576zm3.792-.3a14.937 14.937 0 00-.912-2.832l-1.6.4a11.531 11.531 0 01.768 2.88zm4.272-.5a16.893 16.893 0 00-2.192-2.8l-1.344.8a14.748 14.748 0 012 3.024zm6.608-8.5v1.5a9.435 9.435 0 01-.064 1.008c.288-.016.5-.016 1.12-.016h4.448c.64 0 .672 0 1.04.016a8.849 8.849 0 01-.052-1v-1.5h1.54a10.129 10.129 0 011.424.064v-1.588a8.645 8.645 0 01-1.424.08h-1.54v-1.12h1.232a16.525 16.525 0 011.68.064v-1.664a14.457 14.457 0 01-1.936.1h-3.964v-.336a3.845 3.845 0 01.08-.928h-1.9a5.374 5.374 0 01.08.912v.352h-3.988a20.32 20.32 0 01-1.808-.08c.048.576.064.992.064 2.176a34.131 34.131 0 01-.464 7.216 8.666 8.666 0 01-.992 2.732 6.611 6.611 0 011.344 1.472 11.519 11.519 0 001.36-3.808 33.188 33.188 0 00.448-5.648zm-2.256-1.44v-1.12h2.256v1.12zm3.936 0v-1.12h3.136v1.12zm0 1.44h3.136v1.1h-3.136zm5.248 3.36a13.76 13.76 0 01-1.328.048h-5.584a11.121 11.121 0 01-1.712-.08v1.5c.336-.032.576-.048 1.136-.064a9.278 9.278 0 002.176 2.272 15.12 15.12 0 01-4.576.9 5.441 5.441 0 01.624 1.648 17.234 17.234 0 005.472-1.564 15.9 15.9 0 005.776 1.552 7.825 7.825 0 01.672-1.808 14.061 14.061 0 01-4.736-.752 13.1 13.1 0 002.64-2.4c.144-.16.16-.176.3-.32zm-1.712 1.412a9.013 9.013 0 01-1.984 1.5 6.279 6.279 0 01-1.856-1.5zm9.2 3.84c-.016-.208-.016-.336-.016-.432a13.135 13.135 0 011.424-4.852l-1.28-.576a16.318 16.318 0 00-.832 2.116c.016-.4.032-.528.032-.88a26.714 26.714 0 01.24-3.536 22.059 22.059 0 011.008-4.784l-2.112-.224a10.469 10.469 0 01-.24 1.488 30.717 30.717 0 00-.656 6.256 27.908 27.908 0 00.416 4.784c.048.368.064.464.08.752zm2.208-9.584a18.994 18.994 0 002.88.176 28.659 28.659 0 003.424-.192c.768-.1 1.008-.128 1.136-.144l-.1-1.936a17.644 17.644 0 01-4.352.432 11.536 11.536 0 01-2.96-.256zm1.1 2.64a5.227 5.227 0 00-1.472 3.3 2.68 2.68 0 00.48 1.568c.7.944 1.984 1.392 3.968 1.392a19.731 19.731 0 003.312-.3 5.347 5.347 0 01.656-.1l-.16-2.032a11.244 11.244 0 01-3.808.608c-1.664 0-2.544-.48-2.544-1.392a3.619 3.619 0 011.136-2.3zm-64.524 20.32v.96h-3.36a8.859 8.859 0 01-1.44-.08v1.584a11.983 11.983 0 011.44-.064h3.36v.976h-4.416a11.494 11.494 0 01-1.728-.08v1.644a14.034 14.034 0 011.728-.1h1.488a8.9 8.9 0 01-3.616 4.96 5.888 5.888 0 011.12 1.536 11.031 11.031 0 002.208-2.192 11.534 11.534 0 001.568-2.688v1.1a9.717 9.717 0 011.28-.064h1.86v1.968h-3.328a7.8 7.8 0 01-1.472-.1v1.728a14.685 14.685 0 011.84-.1h7.7a14.865 14.865 0 011.84.1v-1.712a13.332 13.332 0 01-1.76.1h-3.04v-1.972h2.336a10.73 10.73 0 011.536.08v-1.632a9.921 9.921 0 01-1.552.08h-5.936a7.681 7.681 0 01-1.12-.048c.128-.384.16-.5.352-1.136h7.584a11.467 11.467 0 011.712.1v-1.652a10.614 10.614 0 01-1.712.08h-4.688v-.976h3.664a11.864 11.864 0 011.424.064v-1.584a8.884 8.884 0 01-1.424.08h-3.664v-.96h4.128a12.906 12.906 0 011.712.08v-1.648a12.231 12.231 0 01-1.712.1h-1.9a10.468 10.468 0 001.072-1.536l-1.824-.4a7.757 7.757 0 01-1.1 1.936h-2.288a15.536 15.536 0 00-1.264-1.936l-1.744.464a7.076 7.076 0 011.1 1.472h-1.824a12.646 12.646 0 01-1.728-.1v1.648a13.021 13.021 0 011.728-.08zm20.4 1.44a14.965 14.965 0 012.192 5.2l1.824-.912a14.881 14.881 0 00-2.4-5.088zm-4.7-3.52a3.722 3.722 0 01.128-.5l-2.08-.208v.288a22.506 22.506 0 01-.416 3.232 32.861 32.861 0 01-3.408.336l.192 1.888a6.57 6.57 0 01.656-.16l1.456-.24c.512-.1.512-.1.752-.128a23.534 23.534 0 01-3.216 7.536l1.856 1.024a34.351 34.351 0 003.264-8.7c.368-.032.624-.048.96-.048 1.232 0 1.6.432 1.6 1.9a14.217 14.217 0 01-.416 3.648c-.24.784-.5 1.088-.96 1.088a6.7 6.7 0 01-2.34-.636 6.01 6.01 0 01.16 1.36c0 .16-.016.4-.032.7a7.418 7.418 0 002.464.48 2.026 2.026 0 001.776-.72c.768-.88 1.232-3.072 1.232-5.824a3.881 3.881 0 00-.752-2.832 3.1 3.1 0 00-2.368-.848c-.288 0-.512.016-.992.032.048-.208.048-.208.1-.48.16-.864.272-1.52.352-1.984zm3.712.112a10.8 10.8 0 011.68 2.384l1.12-.592a10.369 10.369 0 00-1.68-2.352zm4.7.752a9.253 9.253 0 00-1.664-2.256l-1.072.56a11.789 11.789 0 011.632 2.32zm10.88 2.064a6 6 0 01-.32 1.216 4.531 4.531 0 00-.608-.032 8.853 8.853 0 00-2.208.208c.016-.336.032-.848.08-1.536a51.331 51.331 0 005.632-.56c.336-.048.4-.048.624-.064l-.08-1.84a28.994 28.994 0 01-6.064.848 9.419 9.419 0 01.288-1.968l-1.984-.1a.9.9 0 01.032.256c0 .3-.016.7-.032.912-.048.64-.048.64-.064.96h-.352a14.155 14.155 0 01-2.992-.24v1.792c.176-.016.32-.016.368-.016h.3c1.552.048 2.416.064 2.592.064-.032.768-.064 1.408-.064 1.92a6.613 6.613 0 00-2.192 1.44 5.026 5.026 0 00-1.584 3.584 2.527 2.527 0 002.5 2.8c1.328 0 2.752-.784 4.192-2.3a14.121 14.121 0 002.784-4.252 2.347 2.347 0 011.792 2.2 2.687 2.687 0 01-1.872 2.5 6.634 6.634 0 01-3.056.64 5.154 5.154 0 01.848 1.808 8.912 8.912 0 003.264-.848 4.349 4.349 0 002.752-4 3.57 3.57 0 00-1.52-3.024 4.308 4.308 0 00-1.664-.784c.048-.144.064-.16.224-.608a3.7 3.7 0 01.192-.464zm-4.816 3.648a17.55 17.55 0 00.288 3.616 2.2 2.2 0 01-1.392.608c-.56 0-.912-.448-.912-1.168a3.172 3.172 0 01.72-1.952 4.759 4.759 0 011.296-1.104zm1.808 2.416a.656.656 0 01-.016-.176.845.845 0 00-.016-.208 26.607 26.607 0 01-.112-2.752 5.878 5.878 0 011.92-.288 3.758 3.758 0 01.416.016 12.173 12.173 0 01-1.984 3.2 1.477 1.477 0 00-.176.224zm15.308-3.312a6.28 6.28 0 00.656-.416 35.879 35.879 0 001.76-1.312c.544-.464 1.712-1.5 2.512-2.24a3.43 3.43 0 01.832-.656l-.992-1.408a2.358 2.358 0 01-.992.208c-1.552.112-3.5.192-4.864.192a14.47 14.47 0 01-1.888-.1l.08 1.92a5.4 5.4 0 01.768-.08c2.9-.128 3.92-.192 4.528-.272l.016.016-.288.288a53.425 53.425 0 01-4.784 4.16 14.389 14.389 0 01-2.256 1.5l1.092 1.74a9.858 9.858 0 016.592-2.688c1.936 0 3.168.816 3.168 2.064 0 1.136-.576 1.824-1.9 2.32a4.3 4.3 0 00-.736-1.44 3.444 3.444 0 00-2.768-1.312c-1.6 0-2.752.96-2.752 2.288a2.284 2.284 0 00.96 1.84 5.413 5.413 0 003.1.736 7.916 7.916 0 003.872-.912 3.91 3.91 0 002.176-3.536c0-2.192-1.76-3.6-4.5-3.6a7.81 7.81 0 00-3.36.736zm2.3 5.7a4.331 4.331 0 01-.832.064c-1.184 0-1.9-.368-1.9-1.008 0-.448.368-.736.944-.736.9-.004 1.508.572 1.796 1.676z" fill="#373943"/><path data-name="パス 1129" d="M978.738 3178.814a4.754 4.754 0 001.008 2.016 5.623 5.623 0 004.572 1.71 6.217 6.217 0 004.428-1.458 3.812 3.812 0 001.08-2.628 3.458 3.458 0 00-.864-2.484 3.787 3.787 0 00-2.574-1.206 4.443 4.443 0 001.746-.7 3.282 3.282 0 001.242-2.646c0-2.34-1.944-3.852-4.95-3.852a5.844 5.844 0 00-3.528.99 4.472 4.472 0 00-1.71 2.574l2.574.432a2.644 2.644 0 01.756-1.386 3 3 0 011.962-.558c1.53 0 2.376.7 2.376 1.944 0 1.386-1.062 2.214-2.862 2.214a12.34 12.34 0 01-1.746-.09v2.232a15.37 15.37 0 011.926-.09 4.663 4.663 0 012.07.432 2.1 2.1 0 011.008 1.89c0 1.422-1.134 2.34-2.916 2.34a3.4 3.4 0 01-2.178-.7 2.338 2.338 0 01-.846-1.48zm16.092-4.104a3.9 3.9 0 00-1.782.72 3.411 3.411 0 00-1.476 2.952 3.735 3.735 0 001.044 2.7 6.183 6.183 0 004.554 1.44c3.69 0 5.706-1.476 5.706-4.158a3.409 3.409 0 00-1.26-2.808 3.418 3.418 0 00-1.944-.846 3.34 3.34 0 002.592-3.366 3.541 3.541 0 00-.486-1.8c-.774-1.26-2.376-1.962-4.554-1.962-3.078 0-5.022 1.458-5.022 3.762a3.45 3.45 0 00.882 2.376 3.454 3.454 0 001.746.99zm2.394-5.184c1.6 0 2.61.81 2.61 2.088 0 1.314-.972 2.124-2.574 2.124-1.638 0-2.646-.828-2.646-2.142 0-1.26 1.026-2.07 2.61-2.07zm-.036 11.016c-1.944 0-3.1-.864-3.1-2.34 0-1.494 1.188-2.412 3.132-2.412s3.114.9 3.114 2.394c.004 1.516-1.134 2.358-3.146 2.358zm10.188 1.674v-2.628h-2.628v2.628zm2.178-3.2a5.31 5.31 0 001.134 1.962 5.268 5.268 0 004.104 1.562c3.348 0 5.418-1.962 5.418-5.13a4.424 4.424 0 00-1.278-3.384 4.625 4.625 0 00-3.51-1.35 4.428 4.428 0 00-3.078 1.1q.081-.54.108-.756l.288-3.15h4.23a17.266 17.266 0 012.484.144v-2.268a13.706 13.706 0 01-2.5.144h-4.43c-.954 0-1.368-.018-1.908-.054-.018.9-.054 1.512-.072 1.836l-.414 4.462c-.036.5-.054.594-.234 1.872l2.25.216a2.064 2.064 0 01.54-.81 3.164 3.164 0 012.232-.828 2.684 2.684 0 012.826 2.9 2.792 2.792 0 01-2.952 2.97 2.727 2.727 0 01-2.214-.918 2.465 2.465 0 01-.54-1.044zm14.058 2.93l.918.738 11.34-14.508-.936-.72zm10.368.554a3.313 3.313 0 002.43-.918 4.249 4.249 0 001.044-3.114 4.231 4.231 0 00-1.044-3.1 3.357 3.357 0 00-2.43-.918 3.431 3.431 0 00-2.448.918 4.26 4.26 0 00-1.044 3.1 4.249 4.249 0 001.044 3.118 3.327 3.327 0 002.448.914zm0-6.516a1.3 1.3 0 011.152.558 3.178 3.178 0 01.486 1.8c0 1.746-.558 2.646-1.638 2.646-1.062 0-1.638-.9-1.638-2.556a3.13 3.13 0 01.486-1.872 1.253 1.253 0 011.152-.572zm-8.48-.32a3.313 3.313 0 002.43-.918 4.249 4.249 0 001.044-3.114 4.231 4.231 0 00-1.044-3.1 3.357 3.357 0 00-2.43-.918c-2.2 0-3.492 1.494-3.492 4.014a4.277 4.277 0 001.044 3.114 3.327 3.327 0 002.448.922zm0-6.516a1.385 1.385 0 011.314.81 3.952 3.952 0 01.324 1.674c0 1.62-.594 2.52-1.638 2.52-1.062 0-1.638-.9-1.638-2.556.002-1.566.596-2.448 1.638-2.448z" fill="#2962ff" stroke="rgba(0,0,0,0)"/><path data-name="パス 621" d="M930 3127l-29.69-14.637 29.69 31.4z" fill="#fff" stroke="#fff" stroke-linecap="round" stroke-linejoin="round" stroke-width="3"/><rect data-name="長方形 2243" width="156" height="112" rx="10" transform="translate(575 2993)" fill="#fff"/><path data-name="パス 1126" d="M615.912 3016.5h-.832a7.745 7.745 0 01-1.248-.1v1.744a8.44 8.44 0 011.248-.08h.832v2.944a13.155 13.155 0 01-2.24.384l.288 1.84c.256-.08.32-.1.624-.176.672-.16 1.12-.272 1.328-.336v3.4c0 .352-.1.432-.48.432a12.273 12.273 0 01-1.648-.144 5.456 5.456 0 01.384 1.712c.592.032.848.048 1.168.048a5.084 5.084 0 001.568-.16c.5-.176.736-.608.736-1.328v-4.464l1.632-.56-.016-1.536c-.752.24-1.008.3-1.616.48v-2.528h.352a11.161 11.161 0 011.232.064v-1.712a7.967 7.967 0 01-1.232.08h-.352v-1.36a11.373 11.373 0 01.1-1.616h-1.92a11.779 11.779 0 01.1 1.632zm5.584-1.52a8.645 8.645 0 01.08-1.424H619.7a10.1 10.1 0 01.08 1.52v3.04c0 1.28.624 1.52 3.856 1.52 3.168 0 3.776-.144 4.256-1.008a4.7 4.7 0 00.416-1.856 8.509 8.509 0 01-1.664-.512c-.032.96-.112 1.312-.32 1.536-.224.256-.688.3-2.864.3-1.712 0-1.968-.08-1.968-.592v-.784a28.152 28.152 0 003.472-.608c.608-.144 1.6-.432 2.96-.848l-1.264-1.456a15.114 15.114 0 01-5.168 1.5zm-1.664 11.732a9.655 9.655 0 01-.08 1.568h1.748v-.72h4.192v.72h1.792a9.592 9.592 0 01-.084-1.632v-4.748a9.9 9.9 0 01.064-1.4 10.636 10.636 0 01-1.472.064h-4.784a10.885 10.885 0 01-1.424-.064 13.394 13.394 0 01.048 1.36zm1.668-4.672h4.192v1.28H621.5zm0 2.688h4.192v1.344H621.5zm13.92-10.016a8.65 8.65 0 01-1.52-.08v1.468a13.555 13.555 0 011.616-.064h2.368c-.112.208-.144.272-.24.448h-1.28c-.72 0-1.264-.016-1.568-.048a7.97 7.97 0 01.064 1.232v2.912a10 10 0 01-.048 1.184c.416-.016.784-.032 1.5-.032h5.488c.624 0 .832 0 1.232.032a8.553 8.553 0 01-.064-1.28v-2.8a9.052 9.052 0 01.064-1.248c-.336.032-.752.048-1.456.048h-2.144c.112-.192.112-.224.224-.448h2.8a13.081 13.081 0 011.6.064v-1.472a9.741 9.741 0 01-1.6.08h-1.008c.192-.272.352-.5.688-.992l-1.76-.336a7.145 7.145 0 01-.8 1.328h-1.568a9.448 9.448 0 00-.848-1.36l-1.712.3a6.293 6.293 0 01.752 1.056zm1.008 2.864h4.944v.448h-4.944zm0 1.264h4.944v.46h-4.944zm0 1.328h4.944v.448h-4.944zm3.264 3.952h-7.824a13.916 13.916 0 01-1.9-.1v1.62a15.131 15.131 0 011.936-.1h1.952l-.928.688a9.519 9.519 0 012.224 2.016l1.304-1.144a13.854 13.854 0 00-1.888-1.552h5.12v.864c0 .3-.112.368-.64.368a15.668 15.668 0 01-1.792-.128 3.865 3.865 0 01.48 1.648c.608.032.864.032 1.216.032 1.968 0 2.448-.256 2.448-1.344v-1.44h.832a14.79 14.79 0 011.936.1v-1.624a14.078 14.078 0 01-1.9.1h-.868v-.544c2.208-.032 2.208-.032 2.688-.048a4.036 4.036 0 01.464-1.472c-1.456.128-3.488.192-6.736.192a11.535 11.535 0 01-2.992-.224 1.864 1.864 0 01-1.216-1.056v-1.94a10.584 10.584 0 01.064-1.5 8.7 8.7 0 01-1.216.064h-1.2a7.156 7.156 0 01-1.28-.08v1.564a7.514 7.514 0 011.088-.064h.928v1.884a10.6 10.6 0 01-2.272 1.172l.672 1.616a15.832 15.832 0 002.384-1.552c.736 1.168 1.84 1.488 5.072 1.488.3 0 .3 0 1.84-.032zm-9.62-9.42a13.258 13.258 0 012.464 2.24l1.164-1.24a15.066 15.066 0 00-2.5-2.1zm22 4.976a26.59 26.59 0 01-6.592 2.94 5.849 5.849 0 01.944 1.6c1.232-.5 1.568-.64 2.544-1.12-.016.288-.016.64-.016.9v2.48a14.857 14.857 0 01-.1 1.808h1.872v-.692h5.812v.688h1.856a12.509 12.509 0 01-.092-1.808v-3.952a15.38 15.38 0 01.06-1.744c-.464.032-.912.048-1.68.048h-2.352c-.416 0-.944 0-1.3.016.72-.464 1.12-.736 1.728-1.168h3.444a16.715 16.715 0 011.984.1v-1.76a13.559 13.559 0 01-1.824.1h-1.648a23.388 23.388 0 002.176-2.212q.552-.648.72-.816l-1.584-1.044a11.394 11.394 0 01-1.856 2.432v-1.372a12.716 12.716 0 01-1.792.1h-1.152v-.272a6.817 6.817 0 01.1-1.408h-1.956a8.561 8.561 0 01.1 1.408v.272h-2.34a13.492 13.492 0 01-1.888-.1v1.68a17.64 17.64 0 011.824-.064h2.4v1.384h-3.648a14.082 14.082 0 01-1.952-.1v1.76a16.105 16.105 0 011.92-.1zm1.152-1.576v-1.392h1.312c.64 0 .912.016 1.344.048a15.651 15.651 0 01-1.536 1.344zm-2.5 4.176h5.796v1.184h-5.792zm0 2.576h5.796v1.236h-5.792zm14.964-1.852l-.016.768v.24a3.526 3.526 0 01-.032.48 9.382 9.382 0 011.06-.048h2.96c.416 0 .544 0 1.056.032a15.313 15.313 0 01-.048-1.392v-7.568c0-.656.016-1.04.048-1.456a10.773 10.773 0 01-1.1.048h-2.84a9.671 9.671 0 01-1.12-.048l-1.648-.608a9.931 9.931 0 01-.528 2.112 13.471 13.471 0 01-2.352 4.272 6.9 6.9 0 01.848 1.792 9.13 9.13 0 001.008-1.648c-.032.64-.048 1.168-.048 1.9v4.372a18.03 18.03 0 01-.1 2.064l1.776.016a24.299 24.299 0 01-.076-2.064v-8.928a16.835 16.835 0 00.864-2.4c.064-.208.192-.64.256-.816.016.24.032.944.032 1.3zm1.536-7.44h1.9v1.5h-1.9zm0 2.864h1.9v1.52h-1.9zm0 2.9h1.9v1.632h-1.9zm1.088 4.048a14.2 14.2 0 002.1 2.864 8.676 8.676 0 011.308-1.188 8.537 8.537 0 01-2.048-2.48zm4.944-.928a11.061 11.061 0 01-.064-1.488v-6.756a8.551 8.551 0 01.08-1.5h-1.664a12.3 12.3 0 01.064 1.5v6.752a7.2 7.2 0 01-.08 1.488zm-6.592.128a5.857 5.857 0 01-2.032 2.588 6.437 6.437 0 011.3 1.232 9.07 9.07 0 002.128-3.056zm7.488-10.72a10.665 10.665 0 01.1 1.792v10.476c0 .352-.112.432-.672.432a13.624 13.624 0 01-1.5-.112 4.463 4.463 0 01.384 1.648c.464.016.64.016.784.016 2.208 0 2.64-.272 2.64-1.664v-10.768a12.459 12.459 0 01.1-1.824zm12.1 2.9a3.5 3.5 0 011.616.48 3.964 3.964 0 011.968 3.552 4.48 4.48 0 01-2.224 4 8.5 8.5 0 01-3.184.88 5.1 5.1 0 01.972 1.864 10.46 10.46 0 002.512-.672 6.164 6.164 0 003.888-5.968c0-3.6-2.5-5.936-6.336-5.936a7.182 7.182 0 00-5.5 2.24 6.873 6.873 0 00-1.764 4.656c0 2.576 1.312 4.432 3.136 4.432 1.312 0 2.336-.944 3.248-3.008a23.147 23.147 0 001.664-6.528zm-1.952.008a21.087 21.087 0 01-1.328 5.408c-.576 1.376-1.12 2.048-1.648 2.048-.7 0-1.264-1.04-1.264-2.352a5.357 5.357 0 012.176-4.32 4.073 4.073 0 012.064-.784zm-75.236 24.416a54.072 54.072 0 01-.08 2.512h-1.36a9.9 9.9 0 01-1.792-.1v1.792a9.823 9.823 0 011.744-.1h1.232a8.587 8.587 0 01-.656 2.256 6.85 6.85 0 01-2.688 2.9 3.792 3.792 0 011.328 1.44 8.859 8.859 0 003.088-4.048 11.286 11.286 0 002.48 3.024 6.449 6.449 0 01.976-1.744 10.029 10.029 0 01-2.08-2.016 7.189 7.189 0 01-.832-1.264c.048-.24.064-.32.1-.544h1.072a10.3 10.3 0 011.552.08v-1.76a9.742 9.742 0 01-1.5.08h-.96c.064-.816.064-.816.1-2.512h.592a15.132 15.132 0 011.584.08v-1.74a10.382 10.382 0 01-1.584.08h-2.416c.144-.4.24-.672.336-1.008.144-.48.192-.624.272-.832l-1.808-.352a3.818 3.818 0 01-.192.992 8.217 8.217 0 01-2.048 3.744 5.677 5.677 0 011.376 1.216 9.684 9.684 0 001.392-2.176zm6.16 9.536h2.752v1.1h1.808a19.146 19.146 0 01-.1-2.016v-9.26a12.794 12.794 0 01.08-1.7 10.028 10.028 0 01-1.488.08h-3.36a9.419 9.419 0 01-1.472-.08 13.678 13.678 0 01.1 1.7v9.424c0 .64-.048 1.328-.1 1.84h1.776zm.032-10.192h2.72v8.592h-2.72zm14.656-1.488a6.951 6.951 0 01.08-1.376h-1.712a6.717 6.717 0 01.08 1.3v.08h-.768a6.575 6.575 0 01-1.04-.064v1.44c.24-.032.3-.032.544-.048a11.349 11.349 0 01.368 1.84 11.347 11.347 0 01-1.216-.064v1.6a11.39 11.39 0 011.616-.08h4.272a20.643 20.643 0 00.624 4.752 12.539 12.539 0 01-1.3 1.44v-.08l-.016-.224v-3.68a13.964 13.964 0 01.048-1.44 9.889 9.889 0 01-1.04.048h-2.7a5.857 5.857 0 01-1.04-.048 11.2 11.2 0 01.064 1.424v4.268a9.256 9.256 0 01-.08 1.424h1.5v-1.056h2.464c-.272.192-.4.272-.864.56a3.987 3.987 0 011.1 1.232 16.273 16.273 0 002.448-2.3c.608 1.264 1.36 2 2.064 2 .4 0 .736-.32.96-.9a9.651 9.651 0 00.384-2.144 4.7 4.7 0 01-1.232-.864c-.032 1.456-.1 1.984-.24 1.984-.192 0-.576-.656-.912-1.5a17.851 17.851 0 001.28-2.384 9.189 9.189 0 01.584-1.172l-1.376-.752a9.474 9.474 0 01-.96 2.432c-.128-.864-.192-1.792-.256-3.024h.9a15.253 15.253 0 011.776.1v-1.656a10.583 10.583 0 01-1.76.1h-.944c-.032-1.168-.032-1.216-.032-2.128a15.538 15.538 0 01.08-2.4h-1.712a8.186 8.186 0 01.1 1.552c0 1.184.016 2.032.048 2.976h-1.416a10.637 10.637 0 00.448-1.84c.24.016.336.016.576.048v-1.44a6.505 6.505 0 01-1.136.064zm-1.136 3.168a12.806 12.806 0 00-.288-1.84h1.248a8.04 8.04 0 01-.4 1.84zm-.56 3.552h1.808v1.04h-1.808zm0 2.3h1.808v1.072h-1.808zm-6.048-8.592a6.8 6.8 0 011.1-.064h1.488a6.9 6.9 0 011.12.064v-1.532a5.446 5.446 0 01-1.12.08h-1.488a5.372 5.372 0 01-1.1-.08zm4.032.72a8 8 0 01-1.216.064h-2.128a5.963 5.963 0 01-1.168-.08v1.584a7.058 7.058 0 011.168-.064h2.208c.48 0 .816.016 1.136.032zm-4.048 3.856a9.483 9.483 0 011.12-.048h1.44a10.717 10.717 0 011.152.048v-1.468a10.314 10.314 0 01-1.152.048h-1.44a8.94 8.94 0 01-1.12-.048zm0 2.256a9.483 9.483 0 011.12-.048h1.44a7.7 7.7 0 011.152.048v-1.468a10.119 10.119 0 01-1.152.048h-1.44a8.94 8.94 0 01-1.12-.048zm-.128 4.56a9.3 9.3 0 01-.08 1.472h1.392v-.8h1.3v.528h1.328c-.032-.48-.048-.768-.048-1.328v-2.32a12.152 12.152 0 01.032-1.3 9.363 9.363 0 01-1.056.032h-1.872a6.465 6.465 0 01-1.06-.036 11.757 11.757 0 01.064 1.36zm1.312-2.432h1.312v1.744h-1.312zm10.544-9.52a9.479 9.479 0 011.168 2.544l1.216-.688a11.168 11.168 0 00-1.264-2.412zm14.528 3.3a14.965 14.965 0 012.192 5.2l1.824-.912a14.881 14.881 0 00-2.4-5.088zm-4.7-3.52a3.722 3.722 0 01.128-.5l-2.08-.208v.288a22.506 22.506 0 01-.416 3.232 32.861 32.861 0 01-3.408.336l.192 1.888a6.57 6.57 0 01.656-.16l1.456-.24c.512-.1.512-.1.752-.128a23.534 23.534 0 01-3.216 7.536l1.856 1.024a34.351 34.351 0 003.264-8.7c.368-.032.624-.048.96-.048 1.232 0 1.6.432 1.6 1.9a14.217 14.217 0 01-.416 3.648c-.24.784-.5 1.088-.96 1.088a6.7 6.7 0 01-2.34-.636 6.01 6.01 0 01.16 1.36c0 .16-.016.4-.032.7a7.418 7.418 0 002.464.48 2.026 2.026 0 001.776-.72c.768-.88 1.232-3.072 1.232-5.824a3.881 3.881 0 00-.752-2.832 3.1 3.1 0 00-2.368-.848c-.288 0-.512.016-.992.032.048-.208.048-.208.1-.48.16-.864.272-1.52.352-1.984zm3.712.112a10.8 10.8 0 011.68 2.384l1.12-.592a10.369 10.369 0 00-1.68-2.352zm4.7.752a9.253 9.253 0 00-1.664-2.256l-1.072.56a11.789 11.789 0 011.632 2.32zm8.624.56a12.685 12.685 0 01-2.272 2.976 18.763 18.763 0 01-5.04 3.728 5.735 5.735 0 011.12 1.632 28.967 28.967 0 003.04-2.112 14.552 14.552 0 002.336-2.336c-.016.7-.016.912-.016 1.488v4.8a20.149 20.149 0 01-.112 2.02h2.064a15.441 15.441 0 01-.112-2.016v-8.4a10.8 10.8 0 001.136-1.784h3.232c.688 0 1.44.032 2.08.1v-1.888a17.738 17.738 0 01-2.128.1H655.9a21.208 21.208 0 01-2.128-.1v1.888c.64-.064 1.5-.1 2.192-.1zm1.136 3.552a19.186 19.186 0 005.68 4.768 9.755 9.755 0 011.1-1.744 13.761 13.761 0 01-3.28-2.048 16.471 16.471 0 01-2.336-2.272zm14.016-.64h-4.112a18.615 18.615 0 01-2-.1v2a18.4 18.4 0 012-.1h4.116v5.3c0 .8-.048 1.568-.112 2.24h2.16a18.68 18.68 0 01-.112-2.24v-5.3h4.352a19.787 19.787 0 012.048.1v-2a19.137 19.137 0 01-2.048.1h-4.356v-3.488a14.489 14.489 0 01.112-2.016h-2.16a14.643 14.643 0 01.112 2.016zm14.9 1.648a7.951 7.951 0 01-.1.928 6.19 6.19 0 01-2.1 3.648 7.55 7.55 0 01-2.48 1.472 5.678 5.678 0 011.168 1.568 9.267 9.267 0 004.064-3.52 8.513 8.513 0 001.248-4.1h3.072v.928a15.718 15.718 0 01-.5 4.256c-.144.24-.32.3-.912.3a13.153 13.153 0 01-1.936-.208 6.872 6.872 0 01.48 1.872c1.072.048 1.328.064 1.648.064 1.424 0 2-.224 2.352-.928.4-.848.672-3.376.672-6.688v-.536a16.315 16.315 0 001.984 1.68 7.449 7.449 0 011.216-1.728 12.408 12.408 0 01-4.432-4.64 5.98 5.98 0 01-.624-1.392l-1.776.688a6.563 6.563 0 01.336.672 16 16 0 002.64 4.016c-.384.016-.608.016-.992.016h-5.88a8.269 8.269 0 01-.832-.032 17.8 17.8 0 002.576-3.888 4.525 4.525 0 01.432-.816l-1.92-.688a4.974 4.974 0 01-.64 1.616 12.336 12.336 0 01-4.208 4.592 5.563 5.563 0 011.232 1.568 15.905 15.905 0 002-1.776v1.136a11.118 11.118 0 011.36-.08z" fill="#373943"/><path data-name="パス 1127" d="M631.064 3083.216a15.089 15.089 0 01-.144-2.34v-9.108a27.122 27.122 0 01.144-2.97 13.091 13.091 0 01-1.836.09h-1.656a10 10 0 01-1.8-.108v2.286a16.008 16.008 0 011.854-.108h.864v9.918a14.941 14.941 0 01-.144 2.34zm5.85-2.826a5.1 5.1 0 001.476 2 5.2 5.2 0 003.474 1.042 4.986 4.986 0 003.836-1.368c1.188-1.152 1.908-3.528 1.908-6.246a11.532 11.532 0 00-.522-3.726 5.1 5.1 0 00-4.95-3.546 5.883 5.883 0 00-3.15.792 4.745 4.745 0 00-2.286 4.23c0 2.9 1.908 4.734 4.9 4.734a4.893 4.893 0 002.916-.828 3.515 3.515 0 00.954-1.026c-.09 2.124-.5 3.42-1.4 4.284a2.72 2.72 0 01-2.034.738 2.712 2.712 0 01-2.07-.738 2.989 2.989 0 01-.558-.99zm5.04-4.032a2.688 2.688 0 01-2.862-2.88 2.821 2.821 0 012.934-2.952 2.842 2.842 0 013.024 2.9 2.952 2.952 0 01-3.096 2.932zm10.422 6.858v-2.628h-2.628v2.628zm10.188 0c1.152 0 1.872.036 2.718.108v-2.376a18.912 18.912 0 01-2.628.144h-5.04a4.339 4.339 0 011.026-1.62 15.747 15.747 0 012.142-1.8 22.534 22.534 0 003.024-2.214 3.654 3.654 0 001.278-2.88c0-2.466-1.944-3.978-5.094-3.978a5.234 5.234 0 00-4.122 1.6 5.4 5.4 0 00-1.242 2.88l2.574.306a3.421 3.421 0 01.558-1.656 2.543 2.543 0 012.286-1.062c1.53 0 2.484.756 2.484 1.98 0 .918-.5 1.512-2.16 2.646a24.788 24.788 0 00-2.968 2.18 8.884 8.884 0 00-2.468 3.526 9.2 9.2 0 00-.468 2.3 16.589 16.589 0 012.322-.09zm6.048-.27l.918.738 11.34-14.508-.936-.72zm10.368.554a3.313 3.313 0 002.43-.918 4.249 4.249 0 001.044-3.114 4.231 4.231 0 00-1.044-3.1 3.357 3.357 0 00-2.43-.918 3.431 3.431 0 00-2.448.918 4.26 4.26 0 00-1.044 3.1 4.249 4.249 0 001.044 3.118 3.327 3.327 0 002.448.914zm0-6.516a1.3 1.3 0 011.152.558 3.178 3.178 0 01.486 1.8c0 1.746-.558 2.646-1.638 2.646-1.062 0-1.638-.9-1.638-2.556a3.13 3.13 0 01.486-1.872 1.253 1.253 0 011.152-.572zm-8.48-.32a3.313 3.313 0 002.43-.918 4.249 4.249 0 001.044-3.114 4.231 4.231 0 00-1.044-3.1 3.357 3.357 0 00-2.43-.918c-2.2 0-3.492 1.494-3.492 4.014a4.277 4.277 0 001.044 3.114 3.327 3.327 0 002.448.922zm0-6.516a1.385 1.385 0 011.314.81 3.952 3.952 0 01.324 1.674c0 1.62-.594 2.52-1.638 2.52-1.062 0-1.638-.9-1.638-2.556.002-1.566.596-2.448 1.638-2.448z" fill="#2962ff" stroke="rgba(0,0,0,0)"/><path data-name="パス 622" d="M731.309 3031L761 3020.363l-29.69 31.4z" fill="#fff" stroke="#fff" stroke-linecap="round" stroke-linejoin="round" stroke-width="3"/><rect data-name="長方形 2244" width="142" height="112" rx="10" transform="translate(589 2804)" fill="#fff"/><path data-name="パス 1124" d="M625.568 2825.2a5.545 5.545 0 00-4.128 1.6 6.85 6.85 0 00-1.824 4.992c0 4.064 2.336 6.672 5.968 6.672s5.984-2.624 5.984-6.672a6.9 6.9 0 00-1.792-4.992 5.607 5.607 0 00-4.208-1.6zm.048 11.36a3.455 3.455 0 01-2.48-.976 5.286 5.286 0 01-1.3-3.776c0-2.9 1.456-4.72 3.76-4.72a3.444 3.444 0 012.464.976 5.168 5.168 0 011.264 3.728c.004 2.944-1.424 4.768-3.708 4.768zm12.592-11.1a12.192 12.192 0 01.128 2.064v7.136a2.068 2.068 0 01-.384 1.392 1.9 1.9 0 01-1.392.512 2.341 2.341 0 01-1.2-.3 2.1 2.1 0 01-.86-1.32l-2.112.768a4.907 4.907 0 00.912 1.52 4.17 4.17 0 003.248 1.2 4.113 4.113 0 003.1-1.12 3.781 3.781 0 00.864-2.624v-7.168a12.072 12.072 0 01.128-2.064zm10.3 1.92h2a16.824 16.824 0 012.352.112v-2.144a16.976 16.976 0 01-2.352.112h-6.336a16.093 16.093 0 01-2.172-.116v2.144a15.888 15.888 0 012.192-.112h2.16v8.736a13.412 13.412 0 01-.128 2.08h2.416a13.281 13.281 0 01-.128-2.08zm16.612-2.468a6.534 6.534 0 01.064 1.056 14.2 14.2 0 01-1.728 7.532c-1.168 1.892-2.896 3.188-5.712 4.276a7.335 7.335 0 011.024 1.584 12.745 12.745 0 005.36-3.824 12.471 12.471 0 003.44 3.7 7.038 7.038 0 011.12-1.828 9.237 9.237 0 01-3.488-3.44 11.451 11.451 0 001.008-2.336 21.478 21.478 0 00.768-4.464c.144-2.048.144-2.048.16-2.224zm-9.68 10.336a10.459 10.459 0 01-1.6.512l.512 1.952c.4-.192.512-.24 1.12-.512a42.822 42.822 0 006.288-3.184l-.384-1.68a33.438 33.438 0 01-4.112 2.176l-.08-7.632v-.352a14.13 14.13 0 01.08-1.568h-2.032a14.638 14.638 0 01.128 1.9zm3.136-8.384a18.487 18.487 0 013.056 4.08l1.648-1.136a23.944 23.944 0 00-3.168-3.92zm14 4.752a11.992 11.992 0 011.936 1.872 10.907 10.907 0 01-2.432 2.928 9.654 9.654 0 01-1.888 1.408 5.159 5.159 0 011.264 1.456 16.083 16.083 0 004-4 15.356 15.356 0 002.16-5.344 10.8 10.8 0 001.92 2.32v4.928a16.6 16.6 0 01-.112 2.128h1.968a16.106 16.106 0 01-.112-2.128v-3.456a17.523 17.523 0 002.752 1.7 8.871 8.871 0 01.928-1.748 10.521 10.521 0 01-2.16-1.072 14.431 14.431 0 01-1.52-.976v-5.2a10.188 10.188 0 01.112-1.84h-1.968a12.041 12.041 0 01.112 1.84v3.552a7.815 7.815 0 01-1.568-2.32c.08-.688.08-.752.144-1.088-.384.032-.688.048-1.3.048h-2.3c.1-.3.16-.528.272-.9.112-.416.176-.608.288-.928l-1.84-.32a12.258 12.258 0 01-.464 2.1 12.835 12.835 0 01-2.928 4.976 4.411 4.411 0 011.06 1.536 15.8 15.8 0 003.072-4.944h2.328a16.884 16.884 0 01-1.02 3.792 12.311 12.311 0 00-1.744-1.616zm21.776-3.872a3.5 3.5 0 011.616.48 3.964 3.964 0 011.968 3.552 4.48 4.48 0 01-2.224 4 8.5 8.5 0 01-3.184.88 5.1 5.1 0 01.972 1.872 10.46 10.46 0 002.512-.672 6.164 6.164 0 003.888-5.968c0-3.6-2.5-5.936-6.336-5.936a7.182 7.182 0 00-5.5 2.24 6.873 6.873 0 00-1.764 4.656c0 2.576 1.316 4.432 3.14 4.432 1.312 0 2.336-.944 3.248-3.008a23.147 23.147 0 001.664-6.528zm-1.952.016a21.087 21.087 0 01-1.328 5.408c-.576 1.376-1.12 2.048-1.648 2.048-.7 0-1.264-1.04-1.264-2.352a5.357 5.357 0 012.176-4.32 4.073 4.073 0 012.064-.784zm-65.44 23.14h-4.112a14.243 14.243 0 01-2-.112v1.932a17.4 17.4 0 012-.1h2.624c-.08 3.264-.624 5.12-2 6.768a10.344 10.344 0 01-2.864 2.368 4.461 4.461 0 011.3 1.52 10.482 10.482 0 005.136-7.248h4.416a23.423 23.423 0 01-.352 4.016c-.208 1.1-.368 1.28-1.072 1.28a15.208 15.208 0 01-2.4-.208 5.192 5.192 0 01.464 1.856c1.232.1 1.6.112 2.16.112 1.6 0 2.128-.4 2.5-1.92a31.626 31.626 0 00.544-5.616c.032-.688.032-.88.064-1.12a.4.4 0 00.016-.16 10.058 10.058 0 01-1.648.08H627.3c.048-.48.048-.528.128-1.728h5.856a14.241 14.241 0 011.952.1v-1.936a13.463 13.463 0 01-2.016.112h-4.4v-.976a7.172 7.172 0 01.1-1.328h-2.064a6.427 6.427 0 01.112 1.328zm13.792 11.92c.512-.1.848-.144 2.592-.32a52.836 52.836 0 005.792-.832c.256.5.368.736.736 1.472l1.568-.944a34.652 34.652 0 00-3.232-4.928l-1.424.732a20.391 20.391 0 011.568 2.272 38.4 38.4 0 01-4.252.528l.144-.3a32 32 0 001.408-3.1c.224-.592.224-.592.32-.88h3.76a12.618 12.618 0 011.664.1v-1.804a12.7 12.7 0 01-1.68.1h-3.076v-2.4h2.576a10.985 10.985 0 011.616.08v-1.76a11.618 11.618 0 01-1.632.1h-2.56v-.7a9.237 9.237 0 01.1-1.68h-1.94a8.626 8.626 0 01.1 1.68v.7H643a11.521 11.521 0 01-1.7-.1v1.76c.512-.048 1.056-.08 1.68-.08h1.92v2.4h-2.5a12.58 12.58 0 01-1.744-.1v1.792a13.851 13.851 0 011.728-.1h1.728a24.233 24.233 0 01-1.984 4.416 22.28 22.28 0 01-1.184.048c-.16 0-.288 0-.544-.016zm-3.472-12.948a16.32 16.32 0 012.752 2.208l1.088-1.392a16.826 16.826 0 00-2.752-2.048zm-.688 3.952a16.484 16.484 0 012.848 2.128l1.008-1.456a19.824 19.824 0 00-2.864-1.952zm2.416 3.184a19.235 19.235 0 01-2.352 4.8l1.536 1.344a3.223 3.223 0 00.192-.4c.208-.5.208-.5.5-1.088.64-1.328.992-2.176 1.552-3.648zm24.4-3.808a14.965 14.965 0 012.192 5.2l1.824-.912a14.881 14.881 0 00-2.4-5.088zm-4.7-3.52a3.722 3.722 0 01.128-.5l-2.08-.208v.288a22.506 22.506 0 01-.42 3.24 32.861 32.861 0 01-3.408.336l.192 1.888a6.57 6.57 0 01.656-.16l1.456-.24c.512-.1.512-.1.752-.128a23.534 23.534 0 01-3.216 7.536l1.856 1.024a34.351 34.351 0 003.264-8.7c.368-.032.624-.048.96-.048 1.232 0 1.6.432 1.6 1.9a14.217 14.217 0 01-.416 3.648c-.24.784-.5 1.088-.96 1.088a6.7 6.7 0 01-2.336-.644 6.01 6.01 0 01.16 1.36c0 .16-.016.4-.032.7a7.418 7.418 0 002.464.48 2.026 2.026 0 001.776-.72c.768-.88 1.232-3.072 1.232-5.824a3.881 3.881 0 00-.752-2.832 3.1 3.1 0 00-2.368-.844c-.288 0-.512.016-.992.032.048-.208.048-.208.1-.48.16-.864.272-1.52.352-1.984zm3.712.112a10.8 10.8 0 011.68 2.384l1.12-.592a10.369 10.369 0 00-1.68-2.352zm4.7.752a9.253 9.253 0 00-1.664-2.256l-1.072.56a11.789 11.789 0 011.632 2.32zm5.76-1.808a16.346 16.346 0 01-.48 2.784c-.352.016-.624.016-.816.016a11.109 11.109 0 01-2.16-.144v1.824l.848.016c.336.016.432.016.64.016.192 0 .288 0 1.008-.016a24.615 24.615 0 01-1.5 3.776 14.564 14.564 0 01-1.552 2.56l1.84 1.024.3-.576c.608-1.12.752-1.408 1.12-2.192a30.712 30.712 0 001.76-4.64c.992-.08 1.968-.192 2.544-.288a3.12 3.12 0 01.512-.08l-.048-1.84a13.724 13.724 0 01-2.56.448c.176-.7.256-1.024.336-1.408a8.009 8.009 0 01.256-1.072zm10.24 4.164a25.257 25.257 0 00-4.512-2.144l-.96 1.552a19.583 19.583 0 014.608 2.24zm-.064 7.216a2.865 2.865 0 01-.24-.224 5.9 5.9 0 00-.56-.432 10 10 0 00-2.528-1.472 16.988 16.988 0 01-.144-2.192 5.333 5.333 0 01.192-1.616l-1.856-.1a8.487 8.487 0 00-.128 1.616c0 .48.032 1.1.08 1.84a7.947 7.947 0 00-1.488-.144c-2.032 0-3.456 1.136-3.456 2.752 0 1.632 1.376 2.688 3.488 2.688a3.694 3.694 0 002.656-.9 2.557 2.557 0 00.688-1.7c0-.064-.016-.176-.032-.32a9.677 9.677 0 012.448 1.988zm-5.12-.88s.032.384.032.544c0 .9-.528 1.344-1.616 1.344-.992 0-1.568-.384-1.568-1.04 0-.672.672-1.1 1.712-1.1a4.033 4.033 0 011.44.248zm7.776-8.992a7.645 7.645 0 01.064 1.024c.064 4.432.352 6.752 1.008 8.352.64 1.536 1.5 2.32 2.576 2.32 1.36 0 2.288-1.3 3.12-4.416a7.9 7.9 0 01-1.6-1.456 11.8 11.8 0 01-.848 2.9c-.192.448-.416.688-.656.688-.512 0-1.024-1.024-1.3-2.688a29.941 29.941 0 01-.3-4.288 18.6 18.6 0 01.124-2.44zm8.08 1.52a13.966 13.966 0 012.272 3.936 16.22 16.22 0 011.024 4.624l1.984-.752a15.952 15.952 0 00-3.6-8.608z" fill="#373943"/><path data-name="パス 1125" d="M636.064 2894.216a15.089 15.089 0 01-.144-2.34v-9.108a27.122 27.122 0 01.144-2.97 13.091 13.091 0 01-1.836.09h-1.656a10 10 0 01-1.8-.108v2.286a16.008 16.008 0 011.854-.108h.864v9.918a14.941 14.941 0 01-.144 2.34zm12.816 0a15.089 15.089 0 01-.144-2.34v-9.108a27.122 27.122 0 01.144-2.97 13.091 13.091 0 01-1.836.09h-1.656a10 10 0 01-1.8-.108v2.286a16.008 16.008 0 011.854-.108h.864v9.918a14.94 14.94 0 01-.144 2.34zm8.5 0v-2.628h-2.632v2.628zm2.178-3.2a5.31 5.31 0 001.134 1.962 5.268 5.268 0 004.1 1.562c3.348 0 5.418-1.962 5.418-5.13a4.424 4.424 0 00-1.278-3.384 4.625 4.625 0 00-3.51-1.35 4.428 4.428 0 00-3.078 1.1q.081-.54.108-.756l.288-3.15h4.23a17.266 17.266 0 012.484.144v-2.268a13.706 13.706 0 01-2.5.144h-4.43c-.954 0-1.368-.018-1.908-.054-.018.9-.054 1.512-.072 1.836l-.414 4.462c-.036.5-.054.594-.234 1.872l2.25.216a2.064 2.064 0 01.54-.81 3.164 3.164 0 012.232-.828 2.684 2.684 0 012.826 2.9 2.792 2.792 0 01-2.952 2.97 2.727 2.727 0 01-2.214-.918 2.465 2.465 0 01-.54-1.044zm14.054 2.93l.918.738 11.34-14.508-.936-.72zm10.368.554a3.313 3.313 0 002.43-.918 4.249 4.249 0 001.044-3.114 4.231 4.231 0 00-1.044-3.1 3.357 3.357 0 00-2.43-.918 3.431 3.431 0 00-2.448.918 4.26 4.26 0 00-1.044 3.1 4.249 4.249 0 001.044 3.118 3.327 3.327 0 002.448.914zm0-6.516a1.3 1.3 0 011.152.558 3.178 3.178 0 01.486 1.8c0 1.746-.558 2.646-1.638 2.646-1.062 0-1.638-.9-1.638-2.556a3.13 3.13 0 01.486-1.872 1.253 1.253 0 011.152-.572zm-8.48-.32a3.313 3.313 0 002.43-.918 4.249 4.249 0 001.044-3.114 4.231 4.231 0 00-1.044-3.1 3.357 3.357 0 00-2.43-.918c-2.2 0-3.492 1.494-3.492 4.014a4.277 4.277 0 001.044 3.114 3.327 3.327 0 002.448.922zm0-6.516a1.385 1.385 0 011.314.81 3.952 3.952 0 01.324 1.674c0 1.62-.594 2.52-1.638 2.52-1.062 0-1.638-.9-1.638-2.556.002-1.566.596-2.448 1.638-2.448z" fill="#2962ff" stroke="rgba(0,0,0,0)"/><path data-name="パス 623" d="M730.309 2853l35.48-10-35.48 30.766z" fill="#fff" stroke="#fff" stroke-linecap="round" stroke-linejoin="round" stroke-width="3"/><rect data-name="長方形 2245" width="108" height="56" rx="10" transform="translate(821 2832)" fill="#fff"/><path data-name="パス 1123" d="M854.616 2855.52a8.945 8.945 0 011.024-.1 39.509 39.509 0 004.46-.348 30.81 30.81 0 01-4.908 3.936 8.342 8.342 0 01-.912.128c-.32.048-.528.064-.608.08-.384.048-1.056.1-1.376.1a1.768 1.768 0 01-.256-.016l.192 1.952a5.461 5.461 0 01.736-.16 106.72 106.72 0 012.576-.352c.448-.064 1.04-.128 1.76-.224.768-.1 1.28-.176 1.968-.3a5.485 5.485 0 00-1.712 1.208 3.059 3.059 0 00-.86 2.076 3 3 0 002.252 2.8 10.444 10.444 0 002.976.448h.208c.448-.016.7-.016.816-.016.224 0 .416 0 .592.016l-.08-2.032a6.209 6.209 0 01-1.52.144c-2.064 0-3.216-.576-3.216-1.616 0-.864.88-1.84 2.176-2.432a10.809 10.809 0 014.448-.784h.48l-.112-1.868a2.65 2.65 0 01-.528.064c-.144.016-.56.048-1.136.112-.368.032-1.1.08-2.112.16-1.936.16-3.088.272-3.888.384a45.892 45.892 0 004.4-3.488 6.842 6.842 0 01.928-.784l-1.04-1.328a5.512 5.512 0 01-1.5.256c-1.248.1-3.312.176-4.752.176a10.8 10.8 0 01-1.568-.08zm21.632.224a3.5 3.5 0 011.616.48 3.964 3.964 0 011.968 3.552 4.48 4.48 0 01-2.224 4 8.5 8.5 0 01-3.184.88 5.1 5.1 0 01.976 1.872 10.46 10.46 0 002.512-.672 6.164 6.164 0 003.888-5.968c0-3.6-2.5-5.936-6.336-5.936a7.182 7.182 0 00-5.5 2.24 6.873 6.873 0 00-1.764 4.656c0 2.576 1.312 4.432 3.136 4.432 1.312 0 2.336-.944 3.248-3.008a23.147 23.147 0 001.664-6.528zm-1.948.016a21.087 21.087 0 01-1.328 5.408c-.576 1.376-1.12 2.048-1.648 2.048-.7 0-1.264-1.04-1.264-2.352a5.357 5.357 0 012.176-4.32 4.073 4.073 0 012.064-.784zm18.076 2.74v3.568a9.589 9.589 0 01-.1 1.648h1.856a9.885 9.885 0 01-.1-1.6v-4.16l1.952-.64a26.311 26.311 0 01-.128 2.96c-.1.752-.16.864-.512.864a6.8 6.8 0 01-1.088-.144 5.306 5.306 0 01.448 1.632c.4.032.576.048.88.048 1.232 0 1.632-.352 1.792-1.552.128-1.04.24-3.248.272-5.168 0-.4 0-.528.016-.864a9.356 9.356 0 01-1.3.48l-2.324.748v-2.128a10.879 10.879 0 01.1-1.552h-1.86a12.288 12.288 0 01.1 1.6v2.608l-1.648.528v-1.424a9.069 9.069 0 01.1-1.632h-1.896a10.2 10.2 0 01.1 1.7v1.88a9.207 9.207 0 01-1.392.32l.144 1.824a7.439 7.439 0 01.928-.368c.064-.016.176-.048.32-.1v5.68c0 1.28.752 1.6 3.744 1.6 2.912 0 3.984-.144 4.592-.576.5-.384.7-1.008.9-2.832a7.288 7.288 0 01-1.744-.512 12.137 12.137 0 01-.112 1.264 1.11 1.11 0 01-.384.736c-.352.24-1.04.3-2.848.3a8.882 8.882 0 01-2.024-.116c-.352-.08-.432-.176-.432-.5v-5.6zm-7.008 6.9a16.129 16.129 0 01-.1 1.952h1.872a27.795 27.795 0 01-.076-1.944v-8.908a16.541 16.541 0 001.12-2.64c.16-.448.192-.544.32-.912l-1.804-.548a9.949 9.949 0 01-.624 2.16 12.952 12.952 0 01-2.836 4.416 10.849 10.849 0 01.832 1.888 11.437 11.437 0 001.344-1.84c-.048 1.376-.048 1.376-.048 1.76z" fill="#373943"/><path data-name="パス 624" d="M888.666 2832.123l7.594-15.95 8.176 15.95z" fill="#fff" stroke="#fff" stroke-linecap="round" stroke-linejoin="round" stroke-width="3"/></g></svg>