<svg xmlns="http://www.w3.org/2000/svg" width="344.904" height="294.407"><g data-name="グループ 1851" transform="translate(-575 -6560.168)"><g data-name="グループ 1517"><path data-name="パス 572" d="M755.872 6749.794s-2.188-4.441-3.023-4.781-10.868-.6-11.165.348 3.435 1.219 5.2 1.491a4.548 4.548 0 00.7 3c.925 1.147 6.287 2.57 6.287 2.57z" fill="#f4ae87"/><g data-name="グループ 1514"><path data-name="パス 573" d="M750.927 6751.55a34.557 34.557 0 005.391-2.9c8.381 27.528 32.836 45.655 43.386 8.674 1.7-5.974 2.007-7.963 7.265-4.209 3.728 2.661 2.709 5.29-.118 10.65-18.482 35.046-46.836 22.692-55.924-12.215z" fill="#f3ba18"/></g><path data-name="パス 574" d="M805.855 6725.592s-4.877 1.495-3.959 4.581 5.625-1.782 5.625-1.782.534-3.85-1.666-2.799z" fill="#002245"/><g data-name="グループ 1515"><path data-name="パス 575" d="M819.754 6813.109H790.81c2.823-15.768 6.9-39.894 7.612-53.4.308-5.915 2.25-9.053 4.346-10.666a8.182 8.182 0 011.537-.921c3.543-1.811 7.055-1.931 9.788-.428a10.11 10.11 0 014.785 6.8c.615 2.457.451 4.411.2 7.692a348.293 348.293 0 00.676 50.923z" fill="#f3ba18"/></g><path data-name="パス 577" d="M812.576 6737.181l-6.562-.641c-.088.9-.776 9.454-.443 12.678.241.993 1.877 1.449 3.654 1.018 1.6-.387 2.755-1.359 2.8-2.273h.008a86.98 86.98 0 01.543-10.782z" fill="#e8a181"/><path data-name="パス 576" d="M813.335 6738.049c-3.423 5.262-9.863 7.144-13.08 5.052s-1.989-7.365 1.434-12.627 7.772-6.245 10.988-4.153 4.085 6.466.658 11.728z" fill="#f4ae87"/><path data-name="パス 578" d="M810.133 6739.851c-.967-1.046-1.877-.1-4.206 1.2s-6.49.97-6.779-4.479c-.122-2.305-1.026-.577-1.62.846a7.118 7.118 0 00-.6 3.3 4.788 4.788 0 002.362 3.876c2.143 1.394 5.323 1.493 8.44.284a4.142 4.142 0 002.756-3.986 1.651 1.651 0 00-.353-1.041z" fill="#002245"/><path data-name="パス 579" d="M798.97 6736.373l.223.119c1.146.621 6.345 3.539 6.872 5.689.593 2.419-2.8-.934-3.821-2.485s-2.266-1.341-3.379-1.668-1.623-1.718.105-1.655z" fill="#002245"/><path data-name="パス 580" d="M816.282 6735.195s1.081-4.094-.764-7.027-7.064-6.029-11.2-2.079c0 0-2.679 3.075 1.3 5.992s4.47.238 5.395 3.508 3.677 2.739 3.8 3.443z" fill="#002245"/><path data-name="パス 581" d="M814.906 6741.037c-.8 1.225-3.032 2-3.919 1.423s-.463-1.714.334-2.939 2.261-1.9 3.148-1.326a1.884 1.884 0 01.437 2.842z" fill="#e8a181"/><path data-name="パス 582" d="M806.579 6752.096a16.827 16.827 0 00-.69 1.787 17.2 17.2 0 00-.492 1.854 11.544 11.544 0 00-.213 3.651 5.869 5.869 0 001.17 2.995l.057.077.082.115.164.233.328.468a5.172 5.172 0 01.3.479l.287.488c.2.323.352.663.521 1 .082.169.168.337.246.508l.212.518a19.853 19.853 0 011.236 4.31c.079.369.116.743.162 1.118s.1.751.106 1.13.045.759.049 1.141l-.024 1.15a19.9 19.9 0 01-.782 4.627 18.271 18.271 0 01-2.073 4.427l-5.068 1.328.049-5.123a12.263 12.263 0 001.774-2.628 14.515 14.515 0 001.064-3.2l.152-.858c.041-.289.062-.581.1-.874a8.653 8.653 0 00.053-.884c.009-.3.029-.594.01-.891a15.725 15.725 0 00-.451-3.555l-.1-.439c-.041-.143-.089-.284-.132-.426-.093-.282-.167-.578-.287-.846l-.164-.413a3.4 3.4 0 00-.176-.406l-.195-.394-.1-.2-.049-.1-.075-.138a8.32 8.32 0 01-.865-2.3 9.58 9.58 0 01-.2-2.342 13.842 13.842 0 01.9-4.3 18.885 18.885 0 01.848-1.945 18.1 18.1 0 011.058-1.842z" fill="#2962ff"/><path data-name="パス 583" d="M820.8 6799.28s-10.811 3.054-11.91 5.661 9.52.865 14.178-4.077z" fill="#f4ae87"/><g data-name="グループ 1516"><path data-name="パス 584" d="M820.509 6803.885a57.005 57.005 0 00-2.733-5.121c24.746-10.416 31.889-33.218.8-39.285-5.023-.98-7.563-1.53-4.967-6.736 1.84-3.691 5.1-2.658 10.094-.961 32.632 11.098 28.047 41.253-3.194 52.103z" fill="#f3ba18"/></g></g><g data-name="グループ 1513"><g data-name="グループ 1512" transform="translate(648.981 6560.168)"><path data-name="パス 554" d="M32.911 30.232a8.07 8.07 0 01.01 3.022c-.322 1.53 1.7 1.063 2.4.246s-1.2-4.21-2.41-3.268z" fill="#002245"/><path data-name="パス 555" d="M85.648 35.814s.851-4.305 1.487-4.788 9.164-3.017 9.638-2.271-2.66 1.834-4.109 2.473a4.031 4.031 0 01.094 2.724c-.527 1.2-4.79 3.646-4.79 3.646z" fill="#f4ae87"/><path data-name="パス 556" d="M20.818 4.027S23.109.284 23.873.052s9.642.348 9.828 1.211-3.131.8-4.711.895a4.03 4.03 0 01-.856 2.588c-.909.938-5.758 1.759-5.758 1.759z" fill="#f4ae87"/><g data-name="グループ 1509"><path data-name="パス 557" d="M37.924 43.831c2.53-.723 5.015-1.577 7.514-2.387.074.039-.016.086 0 .117 10.343 17.164 31.929 7.185 39.066-7.295a231.373 231.373 0 004.423 3.1c-8.1 18.075-33.342 25.145-48.337 11.083-1.171-1.099-1.821-3.243-2.666-4.618z" fill="#34be8e"/></g><g data-name="グループ 1510"><path data-name="パス 558" d="M38.229 43.409c-1.945-2.082-3.489-4.308-5.3-6.425-.054-.058-.042.1-.1.124C1.323 47.383-3.949 24.346 23.298 7.043c-.96-1.634-1.971-3.262-2.862-4.949-31.8 18.932-25.7 52.281 12.784 43.379 3.008-.697 2.515-1.113 5.009-2.064z" fill="#34be8e"/></g><path data-name="パス 559" d="M40.275 17.288s4.356 1.335 3.536 4.092-5.024-1.592-5.024-1.592-.486-3.44 1.488-2.5z" fill="#002245"/><g data-name="グループ 1511"><path data-name="パス 560" d="M28.356 88.888a305.205 305.205 0 00.11-38.914c-.225-2.931-.373-4.676.176-6.871a9.035 9.035 0 014.274-6.077c2.44-1.343 5.577-1.235 8.743.382a7.342 7.342 0 011.371.823c1.872 1.441 3.608 4.244 3.882 9.527.544 10.309 3.282 27.544 5.64 41.129z" fill="#34be8e"/></g><path data-name="パス 561" d="M43.028 38.237l-.268 8.9-.328 11.171-4.643-10.384-4.876-10.894c2.447-1.34 5.577-1.236 8.741.38a7.078 7.078 0 011.374.827z" fill="#fff"/><path data-name="パス 563" d="M34.269 27.637l5.861-.572c.079.8.693 8.444.4 11.324-.215.887-1.676 1.294-3.264.909-1.427-.346-2.461-1.214-2.5-2.03h-.007a77.576 77.576 0 00-.49-9.631z" fill="#de9a7b"/><path data-name="パス 562" d="M33.588 28.416c3.058 4.7 8.81 6.381 11.682 4.513s1.777-6.578-1.28-11.278-6.942-5.578-9.814-3.709-3.645 5.773-.588 10.474z" fill="#f4ae87"/><path data-name="パス 564" d="M30.958 25.866s-.965-3.657.683-6.276 6.309-5.385 10-1.857c0 0 2.393 2.746-1.165 5.352s-3.992.213-4.818 3.134-3.285 2.447-3.4 3.075z" fill="#002245"/><path data-name="パス 565" d="M42.76 47.134l-.329 11.171-4.643-10.384.182-6.779h2.049z" fill="#fb5d51"/><path data-name="パス 566" d="M32.188 31.083c.712 1.094 2.708 1.787 3.5 1.271s.413-1.531-.3-2.625-2.02-1.7-2.812-1.185a1.683 1.683 0 00-.388 2.539z" fill="#de9a7b"/><path data-name="パス 567" d="M43.028 59.51L32.912 37.026l-2.086 5.737 3.666 2.279-2.279 3.225z" fill="#002245"/><path data-name="パス 568" d="M41.604 62.63l1.457-24.611 3.991 4.62-2.618 3.43 3.277 2.2z" fill="#002245"/><circle data-name="楕円形 80" cx=".845" cy=".845" r=".845" transform="translate(41.914 65.23)" fill="#002245"/><circle data-name="楕円形 81" cx=".845" cy=".845" r=".845" transform="translate(42.76 73.964)" fill="#002245"/><circle data-name="楕円形 82" cx=".845" cy=".845" r=".845" transform="translate(43.605 82.699)" fill="#002245"/><path data-name="パス 569" d="M38.229 22.53a14.562 14.562 0 01-1.3 2.821c-.631.836 1.936.175 2.636-2.082s-1.336-.739-1.336-.739z" fill="#1a1c2e"/><path data-name="パス 570" d="M39.206 21.696a14.578 14.578 0 01-.234 3.1c-.3 1 1.875-.513 1.742-2.872s-1.508-.228-1.508-.228z" fill="#1a1c2e"/><path data-name="パス 571" d="M41.544 30.953a.31.31 0 01-.217-.345c.091-.565.43-2.1 1.47-2.621 1.283-.64.813-1.062 1.986-1.171s2.405.609 1.961 1.008-2.648.805-2.923 1.242c-.25.399-1.379 2.16-2.277 1.887z" fill="#002245"/></g></g><path data-name="前面オブジェクトで型抜き 1" d="M762.778 6831.938a114.371 114.371 0 01-22.88-2.307 112.909 112.909 0 01-40.6-17.083 113.862 113.862 0 01-41.133-49.95 112.959 112.959 0 01-6.615-21.311 114.638 114.638 0 010-45.761 112.91 112.91 0 0117.083-40.6 113.862 113.862 0 0149.953-41.127 112.959 112.959 0 0121.311-6.615 114.638 114.638 0 0145.761 0 112.91 112.91 0 0140.6 17.083 113.862 113.862 0 0141.133 49.95 112.96 112.96 0 016.615 21.311 114.638 114.638 0 010 45.761 112.91 112.91 0 01-17.083 40.6 113.862 113.862 0 01-49.95 41.133 112.96 112.96 0 01-21.311 6.615 114.371 114.371 0 01-22.884 2.301zm0-185.256a72.254 72.254 0 00-14.455 1.457 71.331 71.331 0 00-25.648 10.793 71.935 71.935 0 00-25.986 31.557 71.364 71.364 0 00-4.179 13.464 72.423 72.423 0 000 28.91 71.331 71.331 0 0010.792 25.647 71.936 71.936 0 0031.557 25.986 71.366 71.366 0 0013.463 4.181 72.424 72.424 0 0028.91 0 71.331 71.331 0 0025.647-10.792 71.935 71.935 0 0025.986-31.557 71.361 71.361 0 004.179-13.464 72.423 72.423 0 000-28.91 71.331 71.331 0 00-10.792-25.647 71.935 71.935 0 00-31.557-25.986 71.361 71.361 0 00-13.464-4.179 72.253 72.253 0 00-14.453-1.46z" fill="#2145aa"/><path data-name="前面オブジェクトで型抜き 4" d="M762.778 6831.938a114.381 114.381 0 01-22.881-2.307 112.9 112.9 0 01-40.6-17.082 113.865 113.865 0 01-41.128-49.95 112.968 112.968 0 01-6.615-21.311 114.614 114.614 0 010-45.76 112.9 112.9 0 0117.082-40.6 113.858 113.858 0 0149.95-41.129 112.944 112.944 0 0121.311-6.615 114.379 114.379 0 0122.881-2.307v41.806h-.007a72.184 72.184 0 00-14.448 1.457 71.345 71.345 0 00-25.648 10.792 71.935 71.935 0 00-25.986 31.557 71.384 71.384 0 00-4.18 13.464 72.433 72.433 0 000 28.91 71.337 71.337 0 0010.793 25.647 71.946 71.946 0 0031.557 25.987 71.374 71.374 0 0013.464 4.18 72.43 72.43 0 0028.91 0 71.313 71.313 0 0025.647-10.792 72.1 72.1 0 0019.374-19.373c.606-.9 1.2-1.82 1.766-2.747l36.279 20.8a114.704 114.704 0 01-3.38 5.316 113.858 113.858 0 01-49.95 41.133 112.966 112.966 0 01-21.311 6.615 114.371 114.371 0 01-22.88 2.309z" fill="#34be8e"/><path data-name="前面オブジェクトで型抜き 8" d="M683.568 6799.742c-.35-.341-.709-.7-1.068-1.054a113.72 113.72 0 01-24.33-36.087 112.922 112.922 0 01-6.615-21.31 114.64 114.64 0 010-45.761 112.915 112.915 0 0117.083-40.6 113.861 113.861 0 0149.949-41.131 112.935 112.935 0 0121.31-6.615 114.371 114.371 0 0122.881-2.306v41.805h-.009a72.256 72.256 0 00-14.447 1.456 71.337 71.337 0 00-25.647 10.793 71.935 71.935 0 00-25.987 31.558 71.414 71.414 0 00-4.179 13.464 72.411 72.411 0 000 28.91 71.324 71.324 0 0010.792 25.647 72.325 72.325 0 007.882 9.723l-27.615 31.507z" fill="#f3ba18"/><path data-name="前面オブジェクトで型抜き 20" d="M698.76 6686.03l-38.08-17.331c-.73 1.5-1.437 3.029-2.1 4.558a113.386 113.386 0 01104.2-68.38v41.8a72.3 72.3 0 00-14.455 1.457 71.329 71.329 0 00-25.645 10.798 71.969 71.969 0 00-23.916 27.1z" fill="#fb5d51"/><path data-name="中マド 60" d="M733.912 6652.728a18659.29 18659.29 0 01-13.75-39.581 113.056 113.056 0 0119.735-5.962 114.382 114.382 0 0122.88-2.307v41.8a72.3 72.3 0 00-14.455 1.462 71.4 71.4 0 00-13.46 4.18c-.314.133-.633.27-.947.409z" fill="#002245"/><rect data-name="長方形 2241" width="87.904" height="54.38" rx="6" transform="translate(832 6590.196)" fill="#fff"/><path data-name="パス 1152" d="M849.552 6601.686a8.719 8.719 0 011.236.888 13.576 13.576 0 01-4 1.476 3.3 3.3 0 01.672 1.152 15.252 15.252 0 006.756-3.72 17.323 17.323 0 001.548-1.656l-.624-.66a8.165 8.165 0 01-1.068.06h-2.1c.252-.288.312-.348.624-.72l-1.476-.264a5.125 5.125 0 01-1.068 1.248 10.063 10.063 0 01-3.252 1.956 3.187 3.187 0 01.792 1 11.7 11.7 0 003.372-2.172h2.784a10.859 10.859 0 01-1.944 1.656 14.992 14.992 0 00-1.32-.9zm5.976 3.024a8.911 8.911 0 01-1.968 1.764 16.222 16.222 0 00-1.368-1.02l-1.056.66a6.3 6.3 0 011.344 1 12.728 12.728 0 01-5.016 1.324 3.336 3.336 0 01.72 1.224 15.354 15.354 0 004.668-1.388 10.1 10.1 0 004.164-3.408 6.717 6.717 0 01.408-.54l-.708-.72a6.325 6.325 0 01-1.056.06h-1.74c.264-.3.324-.372.636-.744l-1.272-.408c-.852 1.38-3.12 2.748-5.436 3.312a3.23 3.23 0 01.7 1.092 12.37 12.37 0 002.252-.924 11.267 11.267 0 001.968-1.284zm9.588-4.116h-1.188a10.245 10.245 0 01-1.38-.072v1.4a3.339 3.339 0 01.792-.06v5.812c0 .708.18 1.032.7 1.236a6.047 6.047 0 002.1.216c1.06 0 2.132-.036 3.044-.108l-.072-1.356a16.036 16.036 0 01-2.688.192c-1.584 0-1.776-.048-1.776-.48v-5.508h3.4c.552 0 1.02.024 1.38.06v-1.4a10.123 10.123 0 01-1.38.072h-1.62v-1.036a7.494 7.494 0 01.056-1.024h-1.428a7.7 7.7 0 01.06 1.008zm-3.732.672a8.611 8.611 0 01.492 2.148l.9-.348a15.265 15.265 0 00-.7-2.3l-.7.252v-1.28a9.469 9.469 0 01.072-1.272H860a7.968 7.968 0 01.088 1.272v8.272a11.458 11.458 0 01-.088 1.512h1.464a10.982 10.982 0 01-.084-1.512zm-2.016 3.108a12.574 12.574 0 00.48-3.4l-1-.18a9.063 9.063 0 01-.48 3.12zm13.8 4.452c-.012-.156-.012-.252-.012-.324a9.851 9.851 0 011.068-3.636l-.96-.432a12.239 12.239 0 00-.624 1.584c.012-.3.024-.4.024-.66a20.036 20.036 0 01.18-2.652 16.544 16.544 0 01.756-3.588l-1.584-.168a7.852 7.852 0 01-.18 1.116 23.037 23.037 0 00-.492 4.692 20.931 20.931 0 00.312 3.588c.036.276.048.348.06.564zm1.656-7.188a14.245 14.245 0 002.16.132 21.5 21.5 0 002.568-.144c.576-.072.756-.1.852-.108l-.072-1.452a13.233 13.233 0 01-3.264.324 8.652 8.652 0 01-2.22-.192zm.828 1.98a3.92 3.92 0 00-1.1 2.472 2.01 2.01 0 00.36 1.176c.524.708 1.488 1.044 2.972 1.044a14.8 14.8 0 002.484-.228 4.011 4.011 0 01.492-.072l-.12-1.524a8.433 8.433 0 01-2.856.452c-1.248 0-1.908-.356-1.908-1.04a2.715 2.715 0 01.852-1.728zm11.472-4.956a7.082 7.082 0 01.06 1.056c.012 1.5.12 4.776.168 5.208a.269.269 0 00.012.12 4.438 4.438 0 00-1.116-.12c-1.728 0-2.964.9-2.964 2.148a2.164 2.164 0 00.3 1.064 2.8 2.8 0 002.516 1.036c1.788 0 2.736-.708 2.736-2.052a2.794 2.794 0 00-.024-.384c.132.084.228.132.384.216a7.556 7.556 0 011.588.984 4.731 4.731 0 01.852.792l.936-1.356c-.144-.084-.2-.132-.36-.24a16.145 16.145 0 00-1.548-1.02 8.861 8.861 0 00-1.872-.816 48.746 48.746 0 01-.132-2.652 25.872 25.872 0 002.82-.216c.54-.06.54-.06.78-.072l-.12-1.452a12.975 12.975 0 01-3.516.408c-.012-.576-.012-.612-.012-.78a13.656 13.656 0 01.084-1.86zm.264 7.68c0 .012.012.348.012.564a.843.843 0 01-.252.672 1.716 1.716 0 01-1.092.324 2.147 2.147 0 01-.876-.18.656.656 0 01-.408-.624c0-.528.6-.888 1.5-.888a3.894 3.894 0 011.116.128zm9.348-7.692a2.821 2.821 0 01-.036.408l-.18 1.488c-.1.828-.168 2.16-.168 3.132 0 .24.024 1.128.036 1.476v.228a.933.933 0 01-.012.156l1.44-.024v-.252a5.753 5.753 0 011.512-3.876 1.786 1.786 0 011.3-.636c1.032 0 1.608.96 1.608 2.688a3.658 3.658 0 01-2.036 3.672 7 7 0 01-2.628.684 4.59 4.59 0 01.712 1.416 10.234 10.234 0 002.352-.672 5.044 5.044 0 003.1-4.932 5.026 5.026 0 00-.864-3.192 2.513 2.513 0 00-2.056-1.076 2.865 2.865 0 00-2.28 1.224 4.851 4.851 0 00-.756 1.428 2.634 2.634 0 01-.072.264h-.036c.024-.288.072-.7.156-1.2a11.771 11.771 0 01.432-2.316zm-52.56 14.288a4.159 4.159 0 00-3.1 1.2 5.137 5.137 0 00-1.368 3.744c0 3.048 1.752 5 4.476 5s4.488-1.968 4.488-5a5.175 5.175 0 00-1.34-3.744 4.205 4.205 0 00-3.156-1.2zm.036 8.52a2.591 2.591 0 01-1.86-.732 3.965 3.965 0 01-.972-2.832c0-2.172 1.092-3.54 2.82-3.54a2.583 2.583 0 011.848.732 3.876 3.876 0 01.952 2.796c0 2.208-1.072 3.576-2.788 3.576zm9.444-8.328a9.144 9.144 0 01.1 1.548v5.352a1.551 1.551 0 01-.288 1.044 1.424 1.424 0 01-1.044.384 1.756 1.756 0 01-.9-.228 1.575 1.575 0 01-.648-.984l-1.584.576a3.68 3.68 0 00.684 1.14 3.127 3.127 0 002.436.9 3.085 3.085 0 002.328-.84 2.836 2.836 0 00.648-1.968v-5.376a9.054 9.054 0 01.1-1.548zm7.728 1.44h1.5a12.618 12.618 0 011.764.084v-1.608a12.732 12.732 0 01-1.764.084h-4.752a12.07 12.07 0 01-1.632-.084v1.608a11.916 11.916 0 011.644-.084h1.62v6.552a10.059 10.059 0 01-.1 1.56h1.812a9.96 9.96 0 01-.1-1.56zm12 1.368a11.224 11.224 0 011.644 3.9l1.372-.684a11.161 11.161 0 00-1.8-3.816zm-3.528-2.64a2.792 2.792 0 01.1-.372l-1.56-.156v.216a16.88 16.88 0 01-.316 2.424 24.646 24.646 0 01-2.556.252l.144 1.416a4.927 4.927 0 01.492-.12l1.092-.18c.384-.072.384-.072.564-.1a17.651 17.651 0 01-2.416 5.66l1.392.768a25.763 25.763 0 002.452-6.532c.276-.024.468-.036.72-.036.924 0 1.2.324 1.2 1.428a10.662 10.662 0 01-.312 2.736c-.18.588-.372.816-.72.816a5.023 5.023 0 01-1.752-.48 4.507 4.507 0 01.12 1.02c0 .12-.012.3-.024.528a5.563 5.563 0 001.848.36 1.52 1.52 0 001.332-.54c.576-.66.924-2.3.924-4.368a2.911 2.911 0 00-.564-2.124 2.325 2.325 0 00-1.776-.636c-.216 0-.384.012-.744.024.036-.156.036-.156.072-.36.12-.648.2-1.14.264-1.488zm2.784.084a8.1 8.1 0 011.26 1.788l.84-.444a7.777 7.777 0 00-1.26-1.764zm3.528.564a6.94 6.94 0 00-1.248-1.692l-.8.42a8.841 8.841 0 011.22 1.74zm6.468.42a9.514 9.514 0 01-1.7 2.232 14.073 14.073 0 01-3.78 2.8 4.3 4.3 0 01.84 1.224 21.726 21.726 0 002.276-1.584 10.914 10.914 0 001.752-1.756c-.012.528-.012.684-.012 1.116v3.6a15.112 15.112 0 01-.084 1.512h1.548a11.581 11.581 0 01-.084-1.512v-6.3a8.1 8.1 0 00.852-1.332h2.424c.516 0 1.08.024 1.56.072v-1.416a13.3 13.3 0 01-1.6.072H879a15.906 15.906 0 01-1.6-.072v1.416a18.23 18.23 0 011.644-.072zm.852 2.664a14.389 14.389 0 004.26 3.576 7.316 7.316 0 01.828-1.308 10.321 10.321 0 01-2.46-1.536 12.354 12.354 0 01-1.752-1.7zm10.512-.48h-3.084a13.961 13.961 0 01-1.5-.072v1.5a13.8 13.8 0 011.5-.072H894v3.972c0 .6-.036 1.176-.084 1.68h1.62a14.01 14.01 0 01-.084-1.68v-3.972h3.264a14.84 14.84 0 011.536.072v-1.5a14.353 14.353 0 01-1.536.072h-3.264v-2.612a10.867 10.867 0 01.084-1.512h-1.62a10.982 10.982 0 01.084 1.512zm11.172 1.236a5.964 5.964 0 01-.072.7 4.643 4.643 0 01-1.572 2.736 5.662 5.662 0 01-1.86 1.1 4.259 4.259 0 01.876 1.176 6.951 6.951 0 003.048-2.64 6.385 6.385 0 00.936-3.072h2.3v.7a11.789 11.789 0 01-.372 3.192c-.108.18-.24.228-.684.228a9.865 9.865 0 01-1.452-.156 5.154 5.154 0 01.36 1.4c.8.036 1 .048 1.236.048 1.068 0 1.5-.168 1.764-.7a16.365 16.365 0 00.5-5.016v-.404a12.236 12.236 0 001.496 1.26 5.587 5.587 0 01.912-1.3 9.306 9.306 0 01-3.324-3.48 4.485 4.485 0 01-.464-1.04l-1.336.52a4.922 4.922 0 01.252.5 12 12 0 001.984 3.012c-.288.012-.456.012-.744.012h-4.42a6.2 6.2 0 01-.624-.024 13.347 13.347 0 001.932-2.916 3.394 3.394 0 01.324-.612l-1.44-.516a3.73 3.73 0 01-.48 1.212 9.252 9.252 0 01-3.156 3.444 4.172 4.172 0 01.924 1.176 11.929 11.929 0 001.5-1.332v.852a8.339 8.339 0 011.02-.06z" fill="#373943"/><path data-name="パス 1151" d="M866.387 6633.845a6.583 6.583 0 01-1.01.07h-.35v-3.28a14.075 14.075 0 01.07-1.69h-1.35a9.517 9.517 0 01-.83 1.1l-2.37 2.9c-.35.42-.46.55-.8.92v1.23c.34-.03.66-.04 1.25-.04h2.77v.69a6.379 6.379 0 01-.08 1.16h1.42a6.214 6.214 0 01-.08-1.14v-.71h.36a7.718 7.718 0 011 .07zm-2.61.08h-2.55l1.92-2.38c.36-.44.48-.6.68-.89a11.317 11.317 0 00-.05 1.2zm5.08-1.19a2.164 2.164 0 00-.99.4 1.9 1.9 0 00-.82 1.64 2.075 2.075 0 00.58 1.5 3.435 3.435 0 002.53.8c2.05 0 3.17-.82 3.17-2.31a1.894 1.894 0 00-.7-1.56 1.9 1.9 0 00-1.08-.47 1.855 1.855 0 001.44-1.87 1.967 1.967 0 00-.27-1 2.8 2.8 0 00-2.53-1.09c-1.71 0-2.79.81-2.79 2.09a1.917 1.917 0 00.49 1.32 1.919 1.919 0 00.97.55zm1.33-2.88c.89 0 1.45.45 1.45 1.16 0 .73-.54 1.18-1.43 1.18-.91 0-1.47-.46-1.47-1.19 0-.7.57-1.15 1.45-1.15zm-.02 6.12c-1.08 0-1.72-.48-1.72-1.3s.66-1.34 1.74-1.34 1.73.5 1.73 1.33-.63 1.31-1.75 1.31zm5.66.93v-1.46h-1.46v1.46zm5.1 0a8.383 8.383 0 01-.08-1.3v-5.06a15.068 15.068 0 01.08-1.65 7.273 7.273 0 01-1.02.05h-.92a5.557 5.557 0 01-1-.06v1.27a8.893 8.893 0 011.03-.06h.48v5.51a8.3 8.3 0 01-.08 1.3zm3.92-.15l.51.41 6.3-8.06-.52-.4zm5.76.31a1.841 1.841 0 001.35-.51 2.36 2.36 0 00.58-1.73 2.351 2.351 0 00-.58-1.72 1.865 1.865 0 00-1.35-.51 1.906 1.906 0 00-1.36.51 2.367 2.367 0 00-.58 1.72 2.36 2.36 0 00.58 1.73 1.849 1.849 0 001.36.51zm0-3.62a.72.72 0 01.64.31 1.766 1.766 0 01.27 1c0 .97-.31 1.47-.91 1.47s-.91-.5-.91-1.42a1.739 1.739 0 01.27-1.04.7.7 0 01.64-.32zm-4.71-.18a1.841 1.841 0 001.35-.51 2.36 2.36 0 00.58-1.73 2.351 2.351 0 00-.58-1.72 1.865 1.865 0 00-1.35-.51c-1.22 0-1.94.83-1.94 2.23a2.376 2.376 0 00.58 1.73 1.849 1.849 0 001.36.51zm0-3.62a.77.77 0 01.73.45 2.2 2.2 0 01.18.93c0 .9-.33 1.4-.91 1.4s-.91-.5-.91-1.42c0-.87.33-1.36.91-1.36z" fill="#2962ff" stroke="rgba(0,0,0,0)"/><path data-name="パス 586" d="M832.222 6613.964l-13.136 13.448 13.136-4.134z" fill="#fff" stroke="#fff" stroke-linecap="round" stroke-linejoin="round" stroke-width="2"/><rect data-name="長方形 2242" width="86.014" height="57.38" rx="6" transform="translate(773 6797.196)" fill="#fff"/><path data-name="パス 1144" d="M787.2 6814.974h-2.148a7.568 7.568 0 01-1.212-.06v1.284a10.429 10.429 0 011.36-.06h5.052a10.1 10.1 0 011.348.06v-1.284a8.354 8.354 0 01-1.272.06H788.4v-1.236h1.548a8.567 8.567 0 011.26.06v-1.236a8.354 8.354 0 01-1.272.06H788.4v-.984h1.38a12.284 12.284 0 011.308.036c-.036-.348-.048-.768-.048-1.608v-2.556c0-.732.012-1.3.048-1.644a10.415 10.415 0 01-1.548.06h-3.312a14.3 14.3 0 01-1.62-.06 13.063 13.063 0 01.06 1.608v2.712c-.024 1.212-.024 1.212-.048 1.488.36-.024.636-.036 1.44-.036h1.14v.984h-1.344a7.184 7.184 0 01-1.236-.06v1.224a9.842 9.842 0 011.248-.048h1.332zm0-7.884v1.2h-1.332v-1.2zm1.2 0h1.392v1.2H788.4zm-1.2 2.208v1.212h-1.332v-1.212zm1.2 0h1.392v1.212H788.4zm-6.54-2.088v2.34h-.372a4.377 4.377 0 01-.84-.06v1.236a4.192 4.192 0 01.816-.06h.4v2.856a10.187 10.187 0 01-1.476.456l.32 1.36.24-.1c1.86-.756 2.328-.96 3.372-1.476l-.036-1.272c-.528.264-.672.324-1.176.54v-2.364h.276a5.008 5.008 0 01.756.048v-1.224a3.715 3.715 0 01-.756.06h-.276v-2.34h.36a6.959 6.959 0 01.888.048v-1.284a5.24 5.24 0 01-1.068.072H781.6a6.4 6.4 0 01-1.1-.072v1.3a5.058 5.058 0 01.9-.06zm14.976-1.072a2.458 2.458 0 01-.624.048h-1.08c.192-.516.192-.516.252-.648l-1.272-.24a4.491 4.491 0 01-.444 1.3 5.089 5.089 0 01-1.356 1.86 3.684 3.684 0 01.792.816v.66c0 3.48-.132 4.548-.72 5.592a4.591 4.591 0 011 .936 7.37 7.37 0 00.72-2.94h2.46v1.464c0 .192-.108.252-.5.252a9.52 9.52 0 01-1.008-.084 4.066 4.066 0 01.276 1.2c.408.012.612.012.744.012 1.224 0 1.56-.228 1.56-1.08v-6.348a3.634 3.634 0 01.756 1l.132-.084a.059.059 0 01.012.036 6.264 6.264 0 01-.132.792 4.984 4.984 0 01-.636 1.584 4.534 4.534 0 011.068.552 7.005 7.005 0 00.384-.924h.972v1.08H799a7.085 7.085 0 01-1.092-.06v1.284a7.013 7.013 0 011.08-.06h1.2v1.2a8.1 8.1 0 01-.076 1.172h1.388a6.537 6.537 0 01-.068-1.172v-1.2h.948a8.981 8.981 0 011.128.048v-1.276a7.747 7.747 0 01-1.152.06h-.924v-1.08h.744a8.4 8.4 0 011.068.048v-1.26a5.383 5.383 0 01-1.068.072h-.744v-.1c0-.312.012-.576.036-.876h-1.356a4.786 4.786 0 01.072.876v.1h-.648c.036-.18.036-.18.144-.672l-1.116-.24a3.988 3.988 0 001.32-1.152 3.676 3.676 0 00.684-1.692h1.272a6.775 6.775 0 01-.18 1.2c-.06.18-.18.24-.492.24a5.056 5.056 0 01-.924-.12 3.148 3.148 0 01.276 1.188c.684.024.684.024.876.024.744 0 1.02-.1 1.224-.4a5.137 5.137 0 00.444-2.016c.048-.684.072-1.032.108-1.3a8.771 8.771 0 01-1.068.048h-2.952a7.248 7.248 0 01-1.26-.072v1.26a7.64 7.64 0 011.068-.06h.336a1.944 1.944 0 01-.516 1.092 3.324 3.324 0 01-1.152.792c.012-.336.012-.408.036-.612a9.323 9.323 0 01-1.14.048c.18-.288.384-.66.5-.876a6.068 6.068 0 01.36-.672zm-2.508 2.172h-.276a9.378 9.378 0 00.624-1.056h1.176a8.908 8.908 0 01-.552 1.06zm-.156 4.164c0-.192 0-.264.012-.612v-.464h.708v1.08zm2.388 0h-.7v-1.076h.7zm0-2.076h-.7v-1.02h.7zm-1.668-1.02v1.02h-.684v-1.02zm20.124-2.432a10.5 10.5 0 01.048-1.236 8.142 8.142 0 01-1.14.048h-2.508a8.963 8.963 0 01-1.356-.072v1.252a5.617 5.617 0 01.96-.06l-.744.708a8.245 8.245 0 011.624 1.136l.816-.78a9.287 9.287 0 00-1.644-1.08h2.724v2.616c0 .276-.036.288-.552.288a5.015 5.015 0 01-.672-.048 6.844 6.844 0 00.78-.4l-.024-1.092a11.268 11.268 0 01-3.24 1.164l.324.984-.736-.136a2.11 2.11 0 00.06-.588v-2.728a8.943 8.943 0 01.048-1.212 9.661 9.661 0 01-1.212.048h-2.52a10.328 10.328 0 01-1.332-.072v1.236a6.716 6.716 0 011.092-.06h.132l-.8.708a6.9 6.9 0 011.572 1.14l.864-.792a9.763 9.763 0 00-1.608-1.056h2.568v2.616c0 .264-.036.276-.6.276-.132 0-.264-.012-.636-.036.348-.156.432-.2.792-.4l-.036-1.116a12.979 12.979 0 01-3.42 1.308l.408 1.2a3.958 3.958 0 01.54-.24 30.03 30.03 0 001.584-.684 2.673 2.673 0 01.248 1.052c.264.012.624.012.768.012a2.957 2.957 0 001.068-.132c-.228.42-.256.44-.356.62h-1.612a12.2 12.2 0 01-1.32-.048 12.762 12.762 0 01.048 1.38v2.468a8.053 8.053 0 01-.072 1.38h1.356v-.488h5.4v.492h1.368a7.8 7.8 0 01-.068-1.384v-2.5a12.392 12.392 0 01.048-1.356 12.059 12.059 0 01-1.32.048h-2.476a8.735 8.735 0 00.528-.876c.12-.048.156-.06.312-.12.54-.2.7-.264 1.212-.492a2.871 2.871 0 01.196.996c.552.024.7.024.924.024a2.195 2.195 0 001.32-.228c.216-.168.276-.36.276-.96zm-7.716 5.392h5.4v.792h-5.4zm0 1.776h5.4v.852h-5.4zm14.52-4.24a9.329 9.329 0 011.092 1.056 4.261 4.261 0 01-1.812 2.136 3.654 3.654 0 01.852.924 5.763 5.763 0 001.776-2.1c.288.372.408.54.792 1.116l.816-1.068a21.54 21.54 0 00-1.092-1.308 9.109 9.109 0 00.372-2.22h.584a11.408 11.408 0 00.54 4.212c.276.624.624.96 1.008.96a.78.78 0 00.672-.492 6.292 6.292 0 00.4-2.22 3.63 3.63 0 01-.84-.528 4.685 4.685 0 01-.192 1.776 3.9 3.9 0 01-.312-1.452 42.26 42.26 0 01-.132-2.364c0-.42.024-.9.048-1.14a6.139 6.139 0 01-1.008.06h-.708c.012-.408.012-.54.012-.852a4.871 4.871 0 01.072-.876h-1.32a5.414 5.414 0 01.072.984c0 .072 0 .192-.012.372v.372h-.444a4.807 4.807 0 01-.792-.048v1.3a3.961 3.961 0 01.78-.06h.42a7.729 7.729 0 01-.132 1.244c-.24-.228-.384-.36-.756-.708zm-2.88-3.636h-1.164a10.459 10.459 0 01-1.152-.06v1.032a9.559 9.559 0 011.1-.048h3.496c.5 0 .72.012 1.008.036v-1.02a9.931 9.931 0 01-1.116.06h-.936v-.168a3.3 3.3 0 01.048-.624h-1.344a2.923 2.923 0 01.06.636zm1.224 6c.672-.06.96-.084 1.836-.2v-.88c-.888.12-1.2.156-1.836.2v-.132a8.746 8.746 0 001.7-.924l-.516-.5a4.219 4.219 0 01-.672.024h-3a6.492 6.492 0 01-.756-.036v.936a4.191 4.191 0 01.708-.048h2.236a3.142 3.142 0 01-.7.336h-.212a3.71 3.71 0 01.048.424 59.84 59.84 0 01-1.836.048 4.743 4.743 0 01-.6-.036l.18 1.088c.372-.048.48-.048.756-.072l1.5-.108v.444c0 .168-.048.216-.216.216a8.22 8.22 0 01-1.236-.12 2.709 2.709 0 01.288 1c.612.048.816.06 1.056.06.96 0 1.272-.2 1.272-.84zm-2.94-3.336a4.363 4.363 0 01-.036.576c.2-.012.5-.024.744-.024h3.24c.228 0 .408.012.6.024a7.842 7.842 0 01-.024-.564v-.84a4.442 4.442 0 01.024-.536c-.2.012-.4.024-.624.024h-3.264a4.694 4.694 0 01-.7-.036 4.234 4.234 0 01.036.576zm1.176-.612h2.172v.432H818.4zm-.864 8.328a6.1 6.1 0 001.572-2.124l-1.14-.516a4.371 4.371 0 01-1.488 1.74zm3.816-.28a10.2 10.2 0 00-.276-2.268l-1.212.12a12.092 12.092 0 01.168 1.828v.432zm2.848-.224a11.2 11.2 0 00-.684-2.124l-1.2.3a8.648 8.648 0 01.572 2.16zm3.2-.376a12.67 12.67 0 00-1.644-2.1l-1.008.6a11.061 11.061 0 011.5 2.268zm4.956-6.372v1.132a7.076 7.076 0 01-.048.756c.216-.012.372-.012.84-.012h3.336c.48 0 .5 0 .78.012a6.637 6.637 0 01-.036-.756v-1.128h1.152a7.6 7.6 0 011.068.048v-1.188a6.484 6.484 0 01-1.068.06h-1.152v-.84h.924a12.394 12.394 0 011.26.048v-1.248a10.843 10.843 0 01-1.452.072h-2.976v-.252a2.884 2.884 0 01.06-.7h-1.428a4.031 4.031 0 01.06.684v.264h-2.988c-.516 0-.936-.024-1.356-.06.036.432.048.744.048 1.632a25.6 25.6 0 01-.348 5.412 6.5 6.5 0 01-.744 2.056 4.959 4.959 0 011.012 1.104 8.639 8.639 0 001.02-2.856 24.891 24.891 0 00.336-4.236zm-1.692-1.08v-.84h1.692v.84zm2.952 0v-.84h2.352v.84zm0 1.08h2.352v.828h-2.352zm3.936 2.52a10.3 10.3 0 01-1 .036h-4.184a8.341 8.341 0 01-1.284-.06v1.128c.252-.024.432-.036.852-.048a6.958 6.958 0 001.632 1.7 11.34 11.34 0 01-3.432.672 4.081 4.081 0 01.464 1.244 12.926 12.926 0 004.1-1.176 11.922 11.922 0 004.34 1.164 5.869 5.869 0 01.5-1.356 10.546 10.546 0 01-3.552-.564 9.825 9.825 0 001.98-1.8c.108-.12.12-.132.228-.24zm-1.284 1.06a6.76 6.76 0 01-1.488 1.128 4.709 4.709 0 01-1.392-1.128zm6.9 2.88c-.012-.156-.012-.252-.012-.324a9.851 9.851 0 011.068-3.636l-.96-.432a12.238 12.238 0 00-.624 1.584c.012-.3.024-.4.024-.66a20.036 20.036 0 01.18-2.652 16.544 16.544 0 01.756-3.588l-1.584-.168a7.852 7.852 0 01-.18 1.116 23.037 23.037 0 00-.492 4.692 20.931 20.931 0 00.312 3.588c.036.276.048.348.06.564zm1.656-7.188a14.245 14.245 0 002.16.132 21.5 21.5 0 002.568-.144c.576-.072.756-.1.852-.108l-.072-1.452a13.233 13.233 0 01-3.264.324 8.652 8.652 0 01-2.22-.192zm.828 1.98a3.92 3.92 0 00-1.1 2.472 2.01 2.01 0 00.36 1.176c.528.708 1.488 1.044 2.976 1.044a14.8 14.8 0 002.484-.228 4.011 4.011 0 01.492-.072l-.12-1.524a8.433 8.433 0 01-2.856.456c-1.248 0-1.908-.36-1.908-1.044a2.715 2.715 0 01.852-1.728zm-48.4 11.24v.72h-2.52a6.644 6.644 0 01-1.08-.06v1.188a8.987 8.987 0 011.08-.048h2.52v.732h-3.312a8.62 8.62 0 01-1.3-.06v1.236a10.526 10.526 0 011.3-.072h1.116a6.673 6.673 0 01-2.712 3.72 4.416 4.416 0 01.84 1.152 8.273 8.273 0 001.656-1.644 8.651 8.651 0 001.176-2.016v.832a7.287 7.287 0 01.96-.048h1.392v1.476h-2.5a5.853 5.853 0 01-1.1-.072v1.3a11.014 11.014 0 011.38-.072h5.772a11.149 11.149 0 011.38.072v-1.3a10 10 0 01-1.32.072h-2.28v-1.48h1.752a8.047 8.047 0 011.152.06v-1.224a7.441 7.441 0 01-1.164.06h-4.452a5.761 5.761 0 01-.84-.036c.1-.288.12-.372.264-.852h5.688a8.6 8.6 0 011.284.072v-1.236a7.961 7.961 0 01-1.284.06h-3.516v-.732h2.748a8.9 8.9 0 011.068.048v-1.188a6.663 6.663 0 01-1.068.06h-2.748v-.72h3.1a9.68 9.68 0 011.284.06v-1.236a9.173 9.173 0 01-1.284.072h-1.428a7.851 7.851 0 00.8-1.152l-1.368-.3a5.817 5.817 0 01-.828 1.452h-1.7a11.652 11.652 0 00-.948-1.452l-1.308.348a5.307 5.307 0 01.828 1.1h-1.368a9.484 9.484 0 01-1.3-.072v1.24a9.765 9.765 0 011.3-.06zm15.3 1.08a11.224 11.224 0 011.648 3.9l1.368-.684a11.161 11.161 0 00-1.8-3.816zm-3.524-2.64a2.792 2.792 0 01.1-.372l-1.56-.156v.216a16.88 16.88 0 01-.312 2.424 24.646 24.646 0 01-2.556.252l.144 1.416a4.927 4.927 0 01.492-.12l1.092-.18c.384-.072.384-.072.564-.1a17.651 17.651 0 01-2.416 5.66l1.392.768a25.763 25.763 0 002.448-6.532c.276-.024.468-.036.72-.036.924 0 1.2.324 1.2 1.428a10.662 10.662 0 01-.312 2.736c-.18.588-.372.816-.72.816a5.023 5.023 0 01-1.752-.48 4.507 4.507 0 01.12 1.02c0 .12-.012.3-.024.528a5.563 5.563 0 001.848.36 1.52 1.52 0 001.332-.54c.576-.66.924-2.3.924-4.368a2.911 2.911 0 00-.564-2.124 2.325 2.325 0 00-1.776-.636c-.216 0-.384.012-.744.024.036-.156.036-.156.072-.36.12-.648.2-1.14.264-1.488zm2.784.084a8.1 8.1 0 011.26 1.788l.84-.444a7.777 7.777 0 00-1.26-1.764zm3.528.564a6.94 6.94 0 00-1.248-1.692l-.8.42a8.841 8.841 0 011.224 1.74zm8.16 1.548a4.5 4.5 0 01-.24.912 3.4 3.4 0 00-.46-.024 6.64 6.64 0 00-1.652.156c.012-.252.024-.636.06-1.152a38.5 38.5 0 004.224-.42c.252-.036.3-.036.468-.048l-.06-1.38a21.745 21.745 0 01-4.548.636 7.065 7.065 0 01.216-1.476l-1.488-.072a.675.675 0 01.024.192c0 .228-.012.528-.024.684-.036.48-.036.48-.048.72h-.264a10.616 10.616 0 01-2.244-.184v1.348c.132-.012.24-.012.276-.012h.228c1.164.036 1.812.048 1.944.048-.024.576-.048 1.056-.048 1.44a4.96 4.96 0 00-1.644 1.076 3.77 3.77 0 00-1.188 2.688 1.9 1.9 0 001.872 2.1 4.585 4.585 0 003.144-1.728 10.591 10.591 0 002.088-3.188 1.76 1.76 0 011.344 1.656 2.015 2.015 0 01-1.4 1.872 4.975 4.975 0 01-2.292.48 3.865 3.865 0 01.636 1.356 6.684 6.684 0 002.444-.636 3.262 3.262 0 002.064-3 2.677 2.677 0 00-1.14-2.268 3.231 3.231 0 00-1.248-.588c.036-.108.048-.12.168-.456a2.771 2.771 0 01.144-.348zm-3.612 2.736a13.162 13.162 0 00.212 2.708 1.653 1.653 0 01-1.044.456c-.42 0-.684-.336-.684-.876a2.379 2.379 0 01.54-1.464 3.569 3.569 0 01.976-.824zm1.356 1.808a.492.492 0 01-.012-.132.634.634 0 00-.012-.156 19.955 19.955 0 01-.084-2.064 4.409 4.409 0 011.44-.216 2.818 2.818 0 01.312.012 9.13 9.13 0 01-1.488 2.4 1.108 1.108 0 00-.132.168zm11.484-2.48a4.71 4.71 0 00.492-.312c.24-.156 1.1-.8 1.32-.984a86.196 86.196 0 001.884-1.68 2.572 2.572 0 01.624-.492l-.748-1.052a1.768 1.768 0 01-.744.156 56.737 56.737 0 01-3.648.144 10.853 10.853 0 01-1.408-.076l.06 1.44a4.048 4.048 0 01.576-.06c2.172-.1 2.94-.144 3.4-.2l.012.012-.216.216a40.069 40.069 0 01-3.588 3.12 10.792 10.792 0 01-1.692 1.128l.816 1.3a7.394 7.394 0 014.932-2.024c1.452 0 2.376.612 2.376 1.548 0 .852-.432 1.368-1.428 1.74a3.227 3.227 0 00-.552-1.08 2.583 2.583 0 00-2.076-.984 1.847 1.847 0 00-2.06 1.72 1.713 1.713 0 00.72 1.38 4.06 4.06 0 002.328.552 5.937 5.937 0 002.9-.684 2.933 2.933 0 001.632-2.652c0-1.644-1.32-2.7-3.372-2.7a5.858 5.858 0 00-2.52.552zm1.728 4.272a3.248 3.248 0 01-.624.048c-.888 0-1.428-.276-1.428-.756 0-.336.276-.552.708-.552.672 0 1.128.432 1.344 1.26z" fill="#373943"/><path data-name="パス 1145" d="M800.41 6842.015a2.641 2.641 0 00.56 1.12 3.124 3.124 0 002.54.95 3.454 3.454 0 002.46-.81 2.118 2.118 0 00.6-1.46 1.921 1.921 0 00-.48-1.38 2.1 2.1 0 00-1.43-.67 2.469 2.469 0 00.97-.39 1.823 1.823 0 00.69-1.47c0-1.3-1.08-2.14-2.75-2.14a3.247 3.247 0 00-1.96.55 2.485 2.485 0 00-.95 1.43l1.43.24a1.469 1.469 0 01.42-.77 1.667 1.667 0 011.09-.31c.85 0 1.32.39 1.32 1.08 0 .77-.59 1.23-1.59 1.23a6.856 6.856 0 01-.97-.05v1.24a8.539 8.539 0 011.07-.05 2.59 2.59 0 011.15.24 1.165 1.165 0 01.56 1.05c0 .79-.63 1.3-1.62 1.3a1.888 1.888 0 01-1.21-.39 1.3 1.3 0 01-.47-.82zm8.94-2.28a2.164 2.164 0 00-.99.4 1.9 1.9 0 00-.82 1.64 2.075 2.075 0 00.58 1.5 3.435 3.435 0 002.53.8c2.05 0 3.17-.82 3.17-2.31a1.894 1.894 0 00-.7-1.56 1.9 1.9 0 00-1.08-.47 1.855 1.855 0 001.44-1.87 1.967 1.967 0 00-.27-1 2.8 2.8 0 00-2.53-1.09c-1.71 0-2.79.81-2.79 2.09a1.917 1.917 0 00.49 1.32 1.919 1.919 0 00.97.55zm1.33-2.88c.89 0 1.45.45 1.45 1.16 0 .73-.54 1.18-1.43 1.18-.91 0-1.47-.46-1.47-1.19 0-.7.57-1.15 1.45-1.15zm-.02 6.12c-1.08 0-1.72-.48-1.72-1.3s.66-1.34 1.74-1.34 1.73.5 1.73 1.33-.63 1.31-1.75 1.31zm5.66.93v-1.46h-1.46v1.46zm1.21-1.78a2.95 2.95 0 00.63 1.09 2.927 2.927 0 002.28.87 2.719 2.719 0 003.01-2.85 2.458 2.458 0 00-.71-1.88 2.569 2.569 0 00-1.95-.75 2.46 2.46 0 00-1.71.61q.045-.3.06-.42l.16-1.75h2.35a9.592 9.592 0 011.38.08v-1.26a7.614 7.614 0 01-1.39.08h-2.46c-.53 0-.76-.01-1.06-.03-.01.5-.03.84-.04 1.02l-.23 2.48c-.02.28-.03.33-.13 1.04l1.25.12a1.147 1.147 0 01.3-.45 1.758 1.758 0 011.24-.46 1.491 1.491 0 011.57 1.61 1.551 1.551 0 01-1.64 1.65 1.515 1.515 0 01-1.23-.51 1.369 1.369 0 01-.3-.58zm7.81 1.63l.51.41 6.3-8.06-.52-.4zm5.76.31a1.841 1.841 0 001.35-.51 2.36 2.36 0 00.58-1.73 2.351 2.351 0 00-.58-1.72 1.865 1.865 0 00-1.35-.51 1.906 1.906 0 00-1.36.51 2.367 2.367 0 00-.58 1.72 2.36 2.36 0 00.58 1.73 1.849 1.849 0 001.36.51zm0-3.62a.72.72 0 01.64.31 1.766 1.766 0 01.27 1c0 .97-.31 1.47-.91 1.47s-.91-.5-.91-1.42a1.739 1.739 0 01.27-1.04.7.7 0 01.64-.32zm-4.71-.18a1.841 1.841 0 001.35-.51 2.36 2.36 0 00.58-1.73 2.351 2.351 0 00-.58-1.72 1.865 1.865 0 00-1.35-.51c-1.22 0-1.94.83-1.94 2.23a2.376 2.376 0 00.58 1.73 1.849 1.849 0 001.36.51zm0-3.62a.77.77 0 01.73.45 2.2 2.2 0 01.18.93c0 .9-.33 1.4-.91 1.4s-.91-.5-.91-1.42c0-.87.33-1.36.91-1.36z" fill="#2962ff" stroke="rgba(0,0,0,0)"/><path data-name="パス 621" d="M774.218 6816.747l-16.494-8.132 16.494 17.446z" fill="#fff" stroke="#fff" stroke-linecap="round" stroke-linejoin="round" stroke-width="2"/><rect data-name="長方形 2243" width="86.959" height="55.38" rx="6" transform="translate(575 6742.374)" fill="#fff"/><path data-name="パス 1147" d="M590.184 6752.845h-.624a5.809 5.809 0 01-.936-.072v1.308a6.33 6.33 0 01.936-.06h.624v2.208a9.867 9.867 0 01-1.684.288l.216 1.38c.192-.06.24-.072.468-.132.5-.12.84-.2 1-.252v2.544c0 .264-.072.324-.36.324a9.2 9.2 0 01-1.236-.108 4.092 4.092 0 01.288 1.284c.444.024.636.036.876.036a3.813 3.813 0 001.176-.12c.372-.132.552-.456.552-1v-3.344l1.224-.42-.012-1.152c-.564.18-.756.228-1.212.36v-1.9h.264a8.371 8.371 0 01.924.048v-1.28a5.975 5.975 0 01-.924.06h-.264v-1.02a8.53 8.53 0 01.072-1.212h-1.44a8.834 8.834 0 01.072 1.224zm4.188-1.14a6.484 6.484 0 01.06-1.068h-1.4a7.573 7.573 0 01.06 1.14v2.28c0 .96.468 1.14 2.892 1.14 2.376 0 2.832-.108 3.192-.756a3.523 3.523 0 00.312-1.392 6.382 6.382 0 01-1.248-.384c-.024.72-.084.984-.24 1.152-.168.192-.516.228-2.148.228-1.284 0-1.476-.06-1.476-.444v-.584a21.114 21.114 0 002.6-.456c.456-.108 1.2-.324 2.22-.636l-.948-1.092a11.336 11.336 0 01-3.876 1.124zm-1.248 8.8a7.241 7.241 0 01-.06 1.172h1.308v-.54h3.144v.54h1.344a7.194 7.194 0 01-.06-1.224v-3.564a7.422 7.422 0 01.048-1.044 7.977 7.977 0 01-1.1.048h-3.588a8.164 8.164 0 01-1.068-.048 10.045 10.045 0 01.036 1.02zm1.248-3.5h3.144v.96h-3.144zm0 2.016h3.144v.996h-3.144zm10.44-7.512a6.487 6.487 0 01-1.14-.06v1.1a10.166 10.166 0 011.212-.048h1.776l-.18.336h-.96c-.54 0-.948-.012-1.176-.036a5.977 5.977 0 01.048.916v2.184a7.5 7.5 0 01-.036.888c.312-.012.588-.024 1.128-.024h4.116c.468 0 .624 0 .924.024a6.414 6.414 0 01-.048-.96v-2.1a6.789 6.789 0 01.048-.936c-.252.024-.564.036-1.092.036h-1.608c.084-.144.084-.168.168-.336h2.1a9.811 9.811 0 011.2.048v-1.1a7.306 7.306 0 01-1.2.06h-.756c.144-.2.264-.372.516-.744l-1.32-.252a5.358 5.358 0 01-.6 1h-1.176a7.086 7.086 0 00-.636-1.02l-1.284.228a4.719 4.719 0 01.564.792zm.756 2.148h3.708v.336h-3.708zm0 .948h3.708v.348h-3.708zm0 1h3.708v.336h-3.708zm2.448 2.952h-5.868a10.437 10.437 0 01-1.428-.072v1.212a11.348 11.348 0 011.452-.072h1.464l-.7.516a7.139 7.139 0 011.672 1.512l.984-.864a10.39 10.39 0 00-1.416-1.164h3.84v.648c0 .228-.084.276-.48.276a11.751 11.751 0 01-1.344-.1 2.9 2.9 0 01.36 1.236c.456.024.648.024.912.024 1.476.008 1.836-.192 1.836-1.004v-1.08h.624a11.092 11.092 0 011.452.072v-1.212a10.559 10.559 0 01-1.428.072h-.648v-.408c1.656-.024 1.656-.024 2.016-.036a3.027 3.027 0 01.348-1.1c-1.092.1-2.616.144-5.052.144a8.651 8.651 0 01-2.244-.168 1.4 1.4 0 01-.912-.792v-1.456a7.938 7.938 0 01.044-1.124 6.525 6.525 0 01-.912.048h-.9a5.367 5.367 0 01-.96-.06v1.172a5.636 5.636 0 01.816-.048h.7v1.416a7.953 7.953 0 01-1.7.876l.5 1.212a11.874 11.874 0 001.788-1.164c.552.876 1.38 1.116 3.8 1.116.228 0 .228 0 1.38-.024zm-7.216-7.068a9.944 9.944 0 011.848 1.68l.876-.924a11.3 11.3 0 00-1.872-1.572zm16.5 3.728a19.942 19.942 0 01-4.94 2.212 4.387 4.387 0 01.708 1.2c.924-.372 1.176-.48 1.908-.84-.012.216-.012.48-.012.672v1.856a11.143 11.143 0 01-.072 1.36h1.4v-.516h4.36v.516h1.392a9.381 9.381 0 01-.072-1.36v-2.96a11.535 11.535 0 01.048-1.308c-.348.024-.684.036-1.26.036H619c-.312 0-.708 0-.972.012.54-.348.84-.552 1.3-.876h2.572a12.536 12.536 0 011.488.072v-1.32a10.169 10.169 0 01-1.368.072h-1.236a17.541 17.541 0 001.632-1.656q.414-.486.54-.612l-1.188-.78a8.546 8.546 0 01-1.392 1.82v-1.028a9.537 9.537 0 01-1.344.072h-.864v-.2a5.113 5.113 0 01.072-1.06h-1.464a6.421 6.421 0 01.072 1.056v.2H615.1a10.119 10.119 0 01-1.42-.068v1.26a13.23 13.23 0 011.368-.048h1.8v1.044h-2.736a10.562 10.562 0 01-1.464-.072v1.32a12.079 12.079 0 011.44-.076zm.868-1.172v-1.044h.984c.48 0 .684.012 1.008.036a11.738 11.738 0 01-1.152 1.008zm-1.868 3.132h4.34v.888h-4.34zm0 1.932h4.34v.924h-4.34zm11.216-1.392l-.016.576v.18a2.645 2.645 0 01-.024.36 7.036 7.036 0 01.792-.036h2.22c.312 0 .408 0 .792.024a11.484 11.484 0 01-.036-1.044v-5.676c0-.492.012-.78.036-1.092a8.08 8.08 0 01-.828.036h-2.12a7.254 7.254 0 01-.84-.036l-1.236-.456a7.448 7.448 0 01-.4 1.584 10.1 10.1 0 01-1.756 3.204 5.178 5.178 0 01.636 1.344 6.848 6.848 0 00.756-1.236c-.024.48-.036.876-.036 1.428v3.276a13.522 13.522 0 01-.076 1.548l1.332.016c-.036-.4-.06-.88-.06-1.552v-6.7a12.627 12.627 0 00.648-1.8c.048-.156.144-.48.192-.612.012.18.024.708.024.972zm1.152-5.58h1.432v1.128h-1.432zm0 2.148h1.432v1.14h-1.432zm0 2.172h1.432v1.224h-1.432zm.816 3.036a10.653 10.653 0 001.572 2.148 6.507 6.507 0 01.984-.888 6.4 6.4 0 01-1.54-1.86zm3.708-.7a8.3 8.3 0 01-.048-1.116v-5.06a6.413 6.413 0 01.06-1.128h-1.248a9.229 9.229 0 01.044 1.128v5.064a5.4 5.4 0 01-.06 1.116zm-4.944.1a4.393 4.393 0 01-1.524 1.944 4.828 4.828 0 01.972.924 6.8 6.8 0 001.6-2.292zm5.616-8.04a8 8 0 01.072 1.344v7.86c0 .264-.084.324-.5.324a10.218 10.218 0 01-1.136-.084 3.347 3.347 0 01.292 1.236c.348.012.48.012.588.012 1.656 0 1.98-.2 1.98-1.248v-8.08a9.345 9.345 0 01.072-1.368zm9.072 2.172a2.623 2.623 0 011.212.36 2.973 2.973 0 011.476 2.664 3.36 3.36 0 01-1.668 3 6.377 6.377 0 01-2.388.66 3.828 3.828 0 01.732 1.408 7.845 7.845 0 001.884-.5 4.623 4.623 0 002.916-4.484c0-2.7-1.872-4.452-4.752-4.452a5.387 5.387 0 00-4.128 1.68 5.155 5.155 0 00-1.32 3.492c0 1.932.984 3.324 2.352 3.324.984 0 1.752-.708 2.436-2.256a17.36 17.36 0 001.248-4.896zm-1.464.012a15.815 15.815 0 01-1 4.056c-.432 1.032-.84 1.536-1.236 1.536-.528 0-.948-.78-.948-1.764a4.018 4.018 0 011.632-3.24 3.055 3.055 0 011.552-.588zm-56.424 14.312a40.554 40.554 0 01-.06 1.884h-1.02a7.422 7.422 0 01-1.344-.072v1.344a7.367 7.367 0 011.308-.072h.924a6.44 6.44 0 01-.492 1.692 5.138 5.138 0 01-2.016 2.172 2.844 2.844 0 011 1.08 6.644 6.644 0 002.316-3.036 8.465 8.465 0 001.86 2.268 4.837 4.837 0 01.732-1.308 7.522 7.522 0 01-1.56-1.512 5.392 5.392 0 01-.624-.948c.036-.18.048-.24.072-.408h.8a7.727 7.727 0 011.164.06v-1.32a7.307 7.307 0 01-1.128.06h-.72c.048-.612.048-.612.072-1.884h.444a11.349 11.349 0 011.188.06v-1.308a7.786 7.786 0 01-1.188.06h-1.812c.108-.3.18-.5.252-.756.108-.36.144-.468.2-.624l-1.352-.264a2.863 2.863 0 01-.144.744 6.162 6.162 0 01-1.536 2.808 4.258 4.258 0 011.032.912 7.263 7.263 0 001.044-1.632zm4.62 7.152h2.064v.828h1.356a14.359 14.359 0 01-.072-1.512v-6.948a9.6 9.6 0 01.06-1.272 7.521 7.521 0 01-1.116.06h-2.52a7.064 7.064 0 01-1.1-.06 10.259 10.259 0 01.072 1.272v7.068c0 .48-.036 1-.072 1.38h1.332zm.024-7.644h2.04v6.444h-2.04zm10.992-1.116a5.213 5.213 0 01.06-1.032h-1.284a5.038 5.038 0 01.06.972v.06h-.576a4.931 4.931 0 01-.78-.048v1.08c.18-.024.228-.024.408-.036a8.512 8.512 0 01.276 1.38 8.51 8.51 0 01-.912-.048v1.2a8.542 8.542 0 011.212-.06h3.2a15.483 15.483 0 00.468 3.564 9.4 9.4 0 01-.972 1.08v-.06l-.012-.168v-2.76a10.473 10.473 0 01.036-1.08 7.417 7.417 0 01-.78.036h-2.028a4.393 4.393 0 01-.78-.036 8.4 8.4 0 01.048 1.068v3.2a6.942 6.942 0 01-.06 1.068h1.132v-.792h1.848c-.2.144-.3.2-.648.42a2.99 2.99 0 01.828.924 12.2 12.2 0 001.836-1.728c.456.948 1.02 1.5 1.548 1.5.3 0 .552-.24.72-.672a7.238 7.238 0 00.288-1.608 3.521 3.521 0 01-.92-.648c-.024 1.092-.072 1.488-.18 1.488-.144 0-.432-.492-.684-1.128a13.389 13.389 0 00.96-1.788 6.892 6.892 0 01.432-.876l-1.032-.564a7.106 7.106 0 01-.72 1.824c-.1-.648-.144-1.344-.192-2.268h.672a11.439 11.439 0 011.332.072v-1.232a7.937 7.937 0 01-1.32.072h-.708c-.024-.876-.024-.912-.024-1.6a11.653 11.653 0 01.06-1.8h-1.284a6.139 6.139 0 01.072 1.164c0 .888.012 1.524.036 2.232h-1.06a7.978 7.978 0 00.34-1.376c.18.012.252.012.432.036v-1.08a4.879 4.879 0 01-.852.048zm-.852 2.376a9.6 9.6 0 00-.216-1.38h.936a6.03 6.03 0 01-.3 1.38zm-.42 2.664h1.356v.78h-1.356zm0 1.728h1.356v.8h-1.356zm-4.536-6.444a5.1 5.1 0 01.824-.048h1.116a5.172 5.172 0 01.84.048v-1.148a4.084 4.084 0 01-.84.06H595.7a4.029 4.029 0 01-.828-.06zm3.024.54a6 6 0 01-.912.048h-1.6a4.473 4.473 0 01-.876-.06v1.188a5.294 5.294 0 01.876-.048h1.656c.36 0 .612.012.852.024zm-3.036 2.892a7.113 7.113 0 01.84-.036h1.08a8.038 8.038 0 01.864.036v-1.1a7.735 7.735 0 01-.864.036H595.7a6.7 6.7 0 01-.84-.036zm0 1.692a7.112 7.112 0 01.84-.036h1.08a5.773 5.773 0 01.864.036v-1.1a7.589 7.589 0 01-.864.036H595.7a6.7 6.7 0 01-.84-.036zm-.1 3.42a6.971 6.971 0 01-.06 1.1h1.044v-.6h.972v.4h1c-.024-.36-.036-.576-.036-1v-1.74a9.114 9.114 0 01.024-.972 7.023 7.023 0 01-.792.024h-1.4a4.849 4.849 0 01-.792-.036 8.818 8.818 0 01.048 1.02zm.984-1.824h.984v1.308h-.984zm7.908-7.14a7.109 7.109 0 01.876 1.908l.912-.516a8.376 8.376 0 00-.944-1.812zm10.9 2.472a11.224 11.224 0 011.644 3.9l1.368-.684a11.161 11.161 0 00-1.8-3.816zm-3.528-2.64a2.792 2.792 0 01.1-.372l-1.56-.156v.216a16.88 16.88 0 01-.312 2.424 24.646 24.646 0 01-2.556.252l.144 1.416a4.927 4.927 0 01.492-.12l1.092-.18c.384-.072.384-.072.564-.1a17.651 17.651 0 01-2.416 5.66l1.392.768a25.763 25.763 0 002.448-6.532c.276-.024.468-.036.72-.036.924 0 1.2.324 1.2 1.428a10.662 10.662 0 01-.312 2.736c-.18.588-.372.816-.72.816a5.023 5.023 0 01-1.752-.48 4.507 4.507 0 01.12 1.02c0 .12-.012.3-.024.528a5.563 5.563 0 001.848.36 1.52 1.52 0 001.332-.54c.576-.66.924-2.3.924-4.368a2.911 2.911 0 00-.564-2.124 2.325 2.325 0 00-1.776-.636c-.216 0-.384.012-.744.024.036-.156.036-.156.072-.36.12-.648.2-1.14.264-1.488zm2.784.084a8.1 8.1 0 011.26 1.788l.84-.444a7.777 7.777 0 00-1.26-1.764zm3.528.564a6.94 6.94 0 00-1.248-1.692l-.8.42a8.841 8.841 0 011.224 1.74zm6.468.42a9.514 9.514 0 01-1.708 2.232 14.073 14.073 0 01-3.78 2.8 4.3 4.3 0 01.84 1.224 21.725 21.725 0 002.284-1.584 10.914 10.914 0 001.756-1.756c-.012.528-.012.684-.012 1.116v3.6a15.112 15.112 0 01-.088 1.512h1.548a11.581 11.581 0 01-.084-1.512v-6.3a8.1 8.1 0 00.852-1.332h2.424c.516 0 1.08.024 1.56.072v-1.416a13.3 13.3 0 01-1.6.072h-7.628a15.906 15.906 0 01-1.6-.072v1.416a18.23 18.23 0 011.644-.072zm.852 2.664a14.389 14.389 0 004.26 3.576 7.316 7.316 0 01.828-1.308 10.321 10.321 0 01-2.46-1.536 12.354 12.354 0 01-1.752-1.7zm10.512-.48h-3.084a13.961 13.961 0 01-1.5-.072v1.5a13.8 13.8 0 011.5-.072h3.084v3.972c0 .6-.036 1.176-.084 1.68h1.62a14.01 14.01 0 01-.084-1.68v-3.972h3.264a14.84 14.84 0 011.536.072v-1.5a14.353 14.353 0 01-1.536.072h-3.264v-2.612a10.867 10.867 0 01.084-1.512h-1.62a10.982 10.982 0 01.084 1.512zm11.172 1.236a5.964 5.964 0 01-.072.7 4.643 4.643 0 01-1.572 2.732 5.662 5.662 0 01-1.86 1.1 4.259 4.259 0 01.876 1.176 6.951 6.951 0 003.048-2.64 6.385 6.385 0 00.936-3.068h2.3v.7a11.789 11.789 0 01-.372 3.192c-.108.18-.24.228-.684.228a9.865 9.865 0 01-1.452-.156 5.154 5.154 0 01.36 1.4c.8.036 1 .048 1.236.048 1.068 0 1.5-.168 1.764-.7a16.365 16.365 0 00.5-5.016v-.404a12.236 12.236 0 001.496 1.26 5.587 5.587 0 01.912-1.3 9.306 9.306 0 01-3.324-3.48 4.485 4.485 0 01-.468-1.044l-1.332.524a4.922 4.922 0 01.252.5 12 12 0 001.98 3.012c-.288.012-.456.012-.744.012h-4.416a6.2 6.2 0 01-.624-.024 13.347 13.347 0 001.932-2.916 3.394 3.394 0 01.324-.612l-1.44-.516a3.73 3.73 0 01-.48 1.212 9.252 9.252 0 01-3.156 3.444 4.172 4.172 0 01.924 1.176 11.929 11.929 0 001.5-1.332v.852a8.339 8.339 0 011.02-.06z" fill="#373943"/><path data-name="パス 1146" d="M610.48 6789.138a8.383 8.383 0 01-.08-1.3v-5.06a15.068 15.068 0 01.08-1.65 7.273 7.273 0 01-1.02.05h-.92a5.557 5.557 0 01-1-.06v1.27a8.893 8.893 0 011.03-.06h.48v5.51a8.3 8.3 0 01-.08 1.3zm3.25-1.57a2.832 2.832 0 00.82 1.11 2.889 2.889 0 001.93.58 2.77 2.77 0 002.13-.76 5.041 5.041 0 001.06-3.47 6.407 6.407 0 00-.29-2.07 2.835 2.835 0 00-2.75-1.97 3.268 3.268 0 00-1.75.44 2.636 2.636 0 00-1.27 2.35 2.5 2.5 0 002.72 2.63 2.718 2.718 0 001.62-.46 1.952 1.952 0 00.53-.57 3.286 3.286 0 01-.78 2.38 1.511 1.511 0 01-1.13.41 1.506 1.506 0 01-1.15-.41 1.66 1.66 0 01-.31-.55zm2.8-2.24a1.494 1.494 0 01-1.59-1.6 1.567 1.567 0 011.63-1.64 1.579 1.579 0 011.68 1.61 1.64 1.64 0 01-1.72 1.63zm5.79 3.81v-1.46h-1.46v1.46zm5.66 0c.64 0 1.04.02 1.51.06v-1.32a10.507 10.507 0 01-1.46.08h-2.8a2.411 2.411 0 01.57-.9 8.748 8.748 0 011.19-1 12.519 12.519 0 001.68-1.23 2.03 2.03 0 00.71-1.6c0-1.37-1.08-2.21-2.83-2.21a2.908 2.908 0 00-2.29.89 3 3 0 00-.69 1.6l1.43.17a1.9 1.9 0 01.31-.92 1.413 1.413 0 011.27-.59c.85 0 1.38.42 1.38 1.1 0 .51-.28.84-1.2 1.47a13.771 13.771 0 00-1.65 1.21 4.935 4.935 0 00-1.37 1.96 5.11 5.11 0 00-.26 1.28 9.216 9.216 0 011.29-.05zm3.36-.15l.51.41 6.3-8.06-.52-.4zm5.76.31a1.841 1.841 0 001.35-.51 2.36 2.36 0 00.58-1.73 2.351 2.351 0 00-.58-1.72 1.865 1.865 0 00-1.35-.51 1.906 1.906 0 00-1.36.51 2.367 2.367 0 00-.58 1.72 2.36 2.36 0 00.58 1.73 1.849 1.849 0 001.36.51zm0-3.62a.72.72 0 01.64.31 1.766 1.766 0 01.27 1c0 .97-.31 1.47-.91 1.47s-.91-.5-.91-1.42a1.739 1.739 0 01.27-1.04.7.7 0 01.64-.32zm-4.71-.18a1.841 1.841 0 001.35-.51 2.36 2.36 0 00.58-1.73 2.351 2.351 0 00-.58-1.72 1.865 1.865 0 00-1.35-.51c-1.22 0-1.94.83-1.94 2.23a2.376 2.376 0 00.58 1.73 1.849 1.849 0 001.36.51zm0-3.62a.77.77 0 01.73.45 2.2 2.2 0 01.18.93c0 .9-.33 1.4-.91 1.4s-.91-.5-.91-1.42c0-.87.33-1.36.91-1.36z" fill="#2962ff" stroke="rgba(0,0,0,0)"/><path data-name="パス 622" d="M661.838 6763.409l16.494-5.909-16.494 17.446z" fill="#fff" stroke="#fff" stroke-linecap="round" stroke-linejoin="round" stroke-width="2"/><rect data-name="長方形 2244" width="79.397" height="54.38" rx="6" transform="translate(583 6637.456)" fill="#fff"/><path data-name="パス 1148" d="M596.176 6646.199a4.159 4.159 0 00-3.1 1.2 5.137 5.137 0 00-1.368 3.744c0 3.048 1.752 5 4.476 5s4.488-1.968 4.488-5a5.175 5.175 0 00-1.34-3.744 4.205 4.205 0 00-3.156-1.2zm.036 8.52a2.591 2.591 0 01-1.86-.732 3.965 3.965 0 01-.972-2.832c0-2.172 1.092-3.54 2.82-3.54a2.583 2.583 0 011.848.732 3.876 3.876 0 01.952 2.796c0 2.208-1.072 3.576-2.788 3.576zm9.444-8.328a9.144 9.144 0 01.1 1.548v5.352a1.551 1.551 0 01-.288 1.044 1.424 1.424 0 01-1.044.384 1.756 1.756 0 01-.9-.228 1.575 1.575 0 01-.648-.984l-1.584.576a3.68 3.68 0 00.684 1.14 3.127 3.127 0 002.436.9 3.085 3.085 0 002.328-.84 2.836 2.836 0 00.648-1.968v-5.376a9.054 9.054 0 01.1-1.548zm7.728 1.44h1.5a12.618 12.618 0 011.764.084v-1.608a12.732 12.732 0 01-1.764.084h-4.752a12.07 12.07 0 01-1.632-.084v1.608a11.916 11.916 0 011.644-.084h1.62v6.552a10.059 10.059 0 01-.1 1.56h1.816a9.96 9.96 0 01-.1-1.56zm12.456-1.848a4.9 4.9 0 01.048.792 10.653 10.653 0 01-1.3 5.652 7.986 7.986 0 01-4.284 3.2 5.5 5.5 0 01.772 1.192 9.559 9.559 0 004.024-2.868 9.354 9.354 0 002.576 2.772 5.279 5.279 0 01.84-1.368 6.927 6.927 0 01-2.616-2.58 8.589 8.589 0 00.756-1.752 16.109 16.109 0 00.576-3.348c.108-1.536.108-1.536.12-1.668zm-7.26 7.752a7.844 7.844 0 01-1.2.384l.384 1.464c.3-.144.384-.18.84-.384a32.116 32.116 0 004.716-2.388l-.288-1.26a25.079 25.079 0 01-3.084 1.632l-.06-5.724v-.26a10.6 10.6 0 01.06-1.176h-1.524a10.978 10.978 0 01.1 1.428zm2.352-6.288a13.865 13.865 0 012.292 3.06l1.236-.852a17.958 17.958 0 00-2.376-2.94zm10.5 3.564a8.994 8.994 0 011.452 1.4 8.18 8.18 0 01-1.824 2.2 7.24 7.24 0 01-1.416 1.056 3.869 3.869 0 01.948 1.092 12.062 12.062 0 003-3 11.517 11.517 0 001.62-4.008 8.1 8.1 0 001.44 1.74v3.7a12.448 12.448 0 01-.084 1.6h1.476a12.08 12.08 0 01-.084-1.6v-2.592a13.143 13.143 0 002.064 1.272 6.653 6.653 0 01.7-1.308 7.891 7.891 0 01-1.62-.8 10.823 10.823 0 01-1.14-.732v-3.9a7.641 7.641 0 01.084-1.38h-1.48a9.031 9.031 0 01.084 1.38v2.664a5.861 5.861 0 01-1.176-1.74c.06-.516.06-.564.108-.816-.288.024-.516.036-.972.036h-1.728c.072-.228.12-.4.2-.672.084-.312.132-.456.216-.7l-1.38-.24a9.193 9.193 0 01-.348 1.572 9.626 9.626 0 01-2.2 3.732 3.309 3.309 0 01.792 1.152 11.85 11.85 0 002.3-3.708h1.752a12.663 12.663 0 01-.768 2.844 9.234 9.234 0 00-1.296-1.216zm16.332-2.9a2.623 2.623 0 011.212.36 2.973 2.973 0 011.476 2.664 3.36 3.36 0 01-1.668 3 6.377 6.377 0 01-2.388.66 3.828 3.828 0 01.732 1.404 7.845 7.845 0 001.884-.5 4.623 4.623 0 002.916-4.476c0-2.7-1.872-4.452-4.752-4.452a5.387 5.387 0 00-4.128 1.68 5.155 5.155 0 00-1.32 3.492c0 1.932.984 3.324 2.352 3.324.984 0 1.752-.708 2.436-2.256a17.36 17.36 0 001.248-4.904zm-1.464.008a15.815 15.815 0 01-1 4.056c-.432 1.032-.84 1.536-1.236 1.536-.528 0-.948-.78-.948-1.764a4.018 4.018 0 011.632-3.24 3.055 3.055 0 011.552-.588zm-49.08 13.352h-3.084a10.682 10.682 0 01-1.5-.084v1.452a13.047 13.047 0 011.5-.072h1.964c-.06 2.448-.468 3.84-1.5 5.076a7.758 7.758 0 01-2.148 1.776 3.346 3.346 0 01.972 1.14 7.861 7.861 0 003.856-5.436h3.312a17.567 17.567 0 01-.264 3.012c-.156.828-.276.96-.8.96a11.406 11.406 0 01-1.8-.156 3.894 3.894 0 01.348 1.392c.924.072 1.2.084 1.62.084 1.2 0 1.6-.3 1.872-1.44a23.719 23.719 0 00.408-4.212c.024-.516.024-.66.048-.84a.3.3 0 00.012-.12 7.544 7.544 0 01-1.236.06h-3.324c.036-.36.036-.4.1-1.3h4.392a10.681 10.681 0 011.464.072v-1.448a10.1 10.1 0 01-1.512.084h-3.3v-.732a5.379 5.379 0 01.072-1h-1.548a4.82 4.82 0 01.084 1zm10.344 8.94c.384-.072.636-.108 1.944-.24a39.627 39.627 0 004.344-.624c.192.372.276.552.552 1.1l1.176-.708a25.989 25.989 0 00-2.424-3.7l-1.068.56a15.293 15.293 0 011.176 1.7 28.8 28.8 0 01-3.192.4l.108-.228a24 24 0 001.056-2.328c.168-.444.168-.444.24-.66h2.824a9.464 9.464 0 011.248.072v-1.344a9.529 9.529 0 01-1.26.072h-2.3v-1.8h1.932a8.239 8.239 0 011.212.06v-1.32a8.714 8.714 0 01-1.232.076h-1.92v-.532a6.928 6.928 0 01.072-1.26H610.6a6.469 6.469 0 01.072 1.26v.532h-1.428a8.64 8.64 0 01-1.272-.072v1.32c.384-.036.792-.06 1.26-.06h1.44v1.8H608.8a9.435 9.435 0 01-1.308-.072v1.34a10.388 10.388 0 011.3-.072h1.3a18.174 18.174 0 01-1.492 3.316c-.408.024-.7.036-.888.036-.12 0-.216 0-.408-.012zm-2.604-9.712a12.24 12.24 0 012.064 1.66l.816-1.044a12.619 12.619 0 00-2.064-1.536zm-.516 2.964a12.363 12.363 0 012.136 1.6l.756-1.092a14.868 14.868 0 00-2.148-1.464zm1.812 2.388a14.426 14.426 0 01-1.764 3.6l1.152 1.008a2.417 2.417 0 00.144-.3c.156-.372.156-.372.372-.816.48-1 .744-1.632 1.164-2.736zm18.3-2.852a11.224 11.224 0 011.644 3.9l1.368-.684a11.161 11.161 0 00-1.8-3.816zm-3.528-2.64a2.792 2.792 0 01.1-.372l-1.56-.156v.216a16.88 16.88 0 01-.312 2.424 24.646 24.646 0 01-2.556.252l.14 1.416a4.927 4.927 0 01.492-.12l1.092-.18c.384-.072.384-.072.564-.1a17.651 17.651 0 01-2.412 5.66l1.392.768a25.763 25.763 0 002.448-6.532c.276-.024.468-.036.72-.036.924 0 1.2.324 1.2 1.428a10.662 10.662 0 01-.312 2.736c-.18.588-.372.816-.72.816a5.023 5.023 0 01-1.752-.48 4.507 4.507 0 01.12 1.02c0 .12-.012.3-.024.528a5.563 5.563 0 001.848.36 1.52 1.52 0 001.332-.54c.576-.66.924-2.3.924-4.368a2.911 2.911 0 00-.564-2.124 2.325 2.325 0 00-1.776-.636c-.216 0-.384.012-.744.024.036-.156.036-.156.072-.36.12-.648.2-1.14.264-1.488zm2.784.084a8.1 8.1 0 011.26 1.788l.84-.444a7.777 7.777 0 00-1.26-1.764zm3.528.564a6.94 6.94 0 00-1.248-1.692l-.8.42a8.841 8.841 0 011.224 1.74zm4.32-1.356a12.259 12.259 0 01-.36 2.088c-.264.012-.468.012-.612.012a8.332 8.332 0 01-1.62-.108v1.368l.636.012c.252.012.324.012.48.012s.216 0 .756-.012a18.461 18.461 0 01-1.128 2.832 10.923 10.923 0 01-1.164 1.92l1.38.768c.072-.144.072-.144.228-.432.456-.84.564-1.056.84-1.644a23.034 23.034 0 001.32-3.48c.744-.06 1.476-.144 1.908-.216a2.34 2.34 0 01.384-.06l-.036-1.38a10.293 10.293 0 01-1.92.336c.132-.528.192-.768.252-1.056a6.007 6.007 0 01.192-.8zm7.68 3.12a18.943 18.943 0 00-3.384-1.608l-.72 1.164a14.687 14.687 0 013.456 1.68zm-.048 5.412a2.149 2.149 0 01-.18-.168 4.425 4.425 0 00-.42-.324 7.5 7.5 0 00-1.9-1.1 12.741 12.741 0 01-.108-1.644 4 4 0 01.144-1.212l-1.388-.076a6.365 6.365 0 00-.1 1.212c0 .36.024.828.06 1.38a5.96 5.96 0 00-1.116-.108c-1.524 0-2.592.852-2.592 2.064s1.032 2.016 2.616 2.016a2.77 2.77 0 001.992-.672 1.918 1.918 0 00.516-1.272c0-.048-.012-.132-.024-.24a7.258 7.258 0 011.836 1.488zm-3.84-.66s.024.288.024.408c0 .672-.4 1.008-1.212 1.008-.744 0-1.176-.288-1.176-.78s.5-.828 1.284-.828a3.025 3.025 0 011.08.192zm5.832-6.744a5.734 5.734 0 01.048.768c.048 3.324.264 5.064.756 6.264.48 1.152 1.128 1.74 1.932 1.74 1.02 0 1.716-.972 2.34-3.312a5.923 5.923 0 01-1.2-1.092 8.847 8.847 0 01-.636 2.172c-.144.336-.312.516-.492.516-.384 0-.768-.768-.972-2.016a22.456 22.456 0 01-.228-3.22 13.95 13.95 0 01.1-1.824zm6.06 1.14a10.474 10.474 0 011.7 2.952 12.165 12.165 0 01.768 3.468l1.488-.564a11.964 11.964 0 00-2.7-6.456z" fill="#373943"/><path data-name="パス 1149" d="M613.48 6684.22a8.383 8.383 0 01-.08-1.3v-5.06a15.068 15.068 0 01.08-1.65 7.273 7.273 0 01-1.02.05h-.92a5.557 5.557 0 01-1-.06v1.27a8.893 8.893 0 011.03-.06h.48v5.51a8.3 8.3 0 01-.08 1.3zm7.12 0a8.383 8.383 0 01-.08-1.3v-5.06a15.068 15.068 0 01.08-1.65 7.273 7.273 0 01-1.02.05h-.92a5.557 5.557 0 01-1-.06v1.27a8.893 8.893 0 011.03-.06h.48v5.51a8.3 8.3 0 01-.08 1.3zm4.72 0v-1.46h-1.46v1.46zm1.21-1.78a2.95 2.95 0 00.63 1.09 2.927 2.927 0 002.28.87 2.719 2.719 0 003.01-2.85 2.458 2.458 0 00-.71-1.88 2.569 2.569 0 00-1.95-.75 2.46 2.46 0 00-1.71.61q.045-.3.06-.42l.16-1.75h2.35a9.592 9.592 0 011.38.08v-1.26a7.614 7.614 0 01-1.39.08h-2.46c-.53 0-.76-.01-1.06-.03-.01.5-.03.84-.04 1.02l-.23 2.48c-.02.28-.03.33-.13 1.04l1.25.12a1.147 1.147 0 01.3-.45 1.758 1.758 0 011.24-.46 1.491 1.491 0 011.57 1.61 1.551 1.551 0 01-1.64 1.65 1.515 1.515 0 01-1.23-.51 1.369 1.369 0 01-.3-.58zm7.81 1.63l.51.41 6.3-8.06-.52-.4zm5.76.31a1.841 1.841 0 001.35-.51 2.36 2.36 0 00.58-1.73 2.351 2.351 0 00-.58-1.72 1.865 1.865 0 00-1.35-.51 1.906 1.906 0 00-1.36.51 2.367 2.367 0 00-.58 1.72 2.36 2.36 0 00.58 1.73 1.849 1.849 0 001.36.51zm0-3.62a.72.72 0 01.64.31 1.766 1.766 0 01.27 1c0 .97-.31 1.47-.91 1.47s-.91-.5-.91-1.42a1.739 1.739 0 01.27-1.04.7.7 0 01.64-.32zm-4.71-.18a1.841 1.841 0 001.35-.51 2.36 2.36 0 00.58-1.73 2.351 2.351 0 00-.58-1.72 1.865 1.865 0 00-1.35-.51c-1.22 0-1.94.83-1.94 2.23a2.376 2.376 0 00.58 1.73 1.849 1.849 0 001.36.51zm0-3.62a.77.77 0 01.73.45 2.2 2.2 0 01.18.93c0 .9-.33 1.4-.91 1.4s-.91-.5-.91-1.42c0-.87.33-1.36.91-1.36z" fill="#2962ff" stroke="rgba(0,0,0,0)"/><path data-name="パス 623" d="M661.283 6664.519l19.711-5.555-19.711 17.092z" fill="#fff" stroke="#fff" stroke-linecap="round" stroke-linejoin="round" stroke-width="2"/><rect data-name="長方形 2245" width="59.548" height="30.19" rx="6" transform="translate(712.055 6652.579)" fill="#fff"/><path data-name="パス 1150" d="M725.835 6665.062a6.709 6.709 0 01.768-.072 29.632 29.632 0 003.348-.268 23.108 23.108 0 01-3.684 2.952 6.256 6.256 0 01-.684.1c-.24.036-.4.048-.456.06-.288.036-.792.072-1.032.072a1.326 1.326 0 01-.192-.012l.144 1.464a4.1 4.1 0 01.552-.12c.8-.12 1.452-.2 1.932-.264.336-.048.78-.1 1.32-.168.576-.072.96-.132 1.476-.228a4.113 4.113 0 00-1.284.912 2.3 2.3 0 00-.648 1.56 2.249 2.249 0 001.692 2.1 7.833 7.833 0 002.236.336h.156c.336-.012.528-.012.612-.012.168 0 .312 0 .444.012l-.064-1.524a4.657 4.657 0 01-1.14.108c-1.548 0-2.412-.432-2.412-1.212 0-.648.66-1.38 1.632-1.824a8.107 8.107 0 013.336-.588h.36l-.084-1.4a1.987 1.987 0 01-.4.048c-.108.012-.42.036-.852.084-.276.024-.828.06-1.584.12-1.452.12-2.316.2-2.916.288a34.419 34.419 0 003.3-2.616 5.131 5.131 0 01.7-.588l-.78-1a4.134 4.134 0 01-1.128.192 54.83 54.83 0 01-3.564.132 8.1 8.1 0 01-1.176-.06zm16.224.168a2.623 2.623 0 011.212.36 2.973 2.973 0 011.476 2.664 3.36 3.36 0 01-1.668 3 6.377 6.377 0 01-2.388.66 3.828 3.828 0 01.732 1.408 7.845 7.845 0 001.884-.5 4.623 4.623 0 002.916-4.484c0-2.7-1.872-4.452-4.752-4.452a5.387 5.387 0 00-4.128 1.68 5.155 5.155 0 00-1.32 3.492c0 1.932.984 3.324 2.352 3.324.984 0 1.748-.708 2.436-2.26a17.36 17.36 0 001.248-4.892zm-1.464.012a15.815 15.815 0 01-1 4.056c-.432 1.032-.84 1.536-1.236 1.536-.528 0-.948-.78-.948-1.764a4.018 4.018 0 011.632-3.24 3.055 3.055 0 011.552-.588zm13.56 2.052v2.676a7.192 7.192 0 01-.072 1.236h1.392a7.414 7.414 0 01-.072-1.2v-3.12l1.464-.48a19.734 19.734 0 01-.1 2.22c-.072.564-.12.648-.384.648a5.1 5.1 0 01-.816-.108 3.98 3.98 0 01.336 1.224c.3.024.432.036.66.036.924 0 1.224-.264 1.344-1.164.1-.78.18-2.436.2-3.876 0-.3 0-.4.012-.648a7.017 7.017 0 01-.972.36l-1.744.564v-1.6a8.16 8.16 0 01.072-1.164h-1.392a9.217 9.217 0 01.072 1.2v1.956l-1.236.4v-1.068a6.8 6.8 0 01.072-1.224h-1.416a7.651 7.651 0 01.072 1.272v1.416a6.905 6.905 0 01-1.044.24l.108 1.368a5.579 5.579 0 01.7-.276c.048-.012.132-.036.24-.072v4.26c0 .96.564 1.2 2.808 1.2 2.184 0 2.988-.108 3.444-.432.372-.288.528-.756.672-2.124a5.466 5.466 0 01-1.308-.384 9.1 9.1 0 01-.084.948.833.833 0 01-.288.552c-.264.18-.78.228-2.136.228a6.661 6.661 0 01-1.512-.1c-.264-.06-.324-.132-.324-.372v-4.2zm-5.256 5.172a12.1 12.1 0 01-.076 1.464h1.4a22.034 22.034 0 01-.052-1.452v-6.684a12.406 12.406 0 00.84-1.98c.12-.336.144-.408.24-.684l-1.356-.408a7.462 7.462 0 01-.472 1.62 9.714 9.714 0 01-2.12 3.312 8.136 8.136 0 01.62 1.416 8.578 8.578 0 001.008-1.38c-.032 1.032-.032 1.032-.032 1.32z" fill="#373943"/><path data-name="パス 624" d="M749.259 6652.921l4.219-8.861 4.542 8.861z" fill="#fff" stroke="#fff" stroke-linecap="round" stroke-linejoin="round" stroke-width="2"/></g></svg>